<?xml version="1.0" encoding="utf-8"?>
<!-- Generator: Adobe Illustrator 24.0.1, SVG Export Plug-In . SVG Version: 6.00 Build 0)  -->
<svg version="1.1" id="Layer_1" xmlns="http://www.w3.org/2000/svg" xmlns:xlink="http://www.w3.org/1999/xlink" x="0px" y="0px"
	 viewBox="0 0 200 200" style="enable-background:new 0 0 200 200;" xml:space="preserve">
<style type="text/css">
	.st0{fill:#E3F3FA;}
	.st1{opacity:0.45;}
	.st2{fill:#EFD09A;}
	.st3{fill:#F1EFEE;}
	.st4{fill:#650E0F;}
	.st5{fill:#414042;}
	.st6{fill:none;stroke:#414042;stroke-width:2;stroke-miterlimit:10;}
	.st7{fill:none;stroke:#58595B;stroke-miterlimit:10;}
	.st8{fill:none;stroke:#7C372C;stroke-miterlimit:10;}
	.st9{fill:none;stroke:#2E3192;stroke-width:4;stroke-miterlimit:10;}
	.st10{fill:none;stroke:#414042;stroke-width:4;stroke-miterlimit:10;}
	.st11{fill:none;stroke:#87C540;stroke-miterlimit:10;}
	.st12{fill:none;stroke:#F7941D;stroke-width:4;stroke-miterlimit:10;}
	.st13{fill:none;stroke:#F7941D;stroke-width:7;stroke-miterlimit:10;}
</style>
<g>
	<g>
		<path class="st0" d="M48.5,185c-0.6,0.3-0.8,1.4-0.1,1.6c0.3,0.1,0.6,0,0.9-0.1c0.2-0.1,0.5-0.3,0.7-0.3c0.3-0.1,0.6,0.1,0.9,0.1
			c0.3,0,0.7-0.2,0.7-0.6c0.1-0.8-0.9-0.9-1.4-1c-0.7-0.1-1.4,0-2,0.4c-0.2,0.1-0.2,0.3-0.1,0.5c0.1,0.2,0.3,0.2,0.5,0.1
			c0.3-0.2,0.7-0.3,1.1-0.3c0.2,0,0.4,0,0.6,0c0.1,0,0.2,0,0.3,0.1c0,0,0.1,0,0.1,0c0,0,0,0,0.1,0c0,0,0.1,0,0,0c0.1,0,0,0,0,0
			c0,0,0,0,0-0.1c0,0,0,0,0,0c0,0,0,0,0,0c-0.1,0-0.2,0-0.3-0.1c-0.1,0-0.3-0.1-0.4-0.1c-0.3,0-0.5,0.1-0.8,0.2
			c-0.2,0.1-0.4,0.2-0.5,0.3c-0.1,0-0.2,0.1-0.2,0.1c0,0-0.1,0-0.1,0c0,0,0,0,0,0c0,0,0,0.1,0,0.1c0,0,0-0.1,0-0.1c0,0,0-0.1,0-0.1
			c0-0.1,0.1-0.1,0.1-0.1c0.2-0.1,0.2-0.3,0.1-0.5C48.9,184.9,48.7,184.9,48.5,185L48.5,185z"/>
	</g>
</g>
<g class="st1">
	<g>
		<path class="st2" d="M152.4,185.1c0.1,0.6,0.3,1.1,0.4,1.7c0,0.1,0.2,0.2,0.3,0.2c0.1,0,0.2-0.2,0.2-0.3c-0.1-0.6-0.3-1.1-0.4-1.7
			c0-0.1-0.2-0.2-0.3-0.2C152.4,184.8,152.4,184.9,152.4,185.1L152.4,185.1z"/>
	</g>
</g>
<g>
	<g>
		<g>
			<rect x="-7.7" y="-114" class="st3" width="216.3" height="323.5"/>
		</g>
		<g>
			<path class="st4" d="M202.6,203.5H-1.7V-108h204.4V203.5z M-1,202.8h202.9v-310H-1V202.8z"/>
		</g>
		<g>
			<g>
				<path class="st5" d="M189-81.8l-47.3-0.2c-0.9,0-1.8-0.4-2.5-1.2c-0.6-0.7-1-1.7-1-2.7l0-11.3c0-1,0.4-2,1-2.7
					c0.7-0.7,1.5-1.1,2.5-1.1l50.8,0.2c1.9,0,3.5,1.8,3.5,3.9l-0.1,15h-0.5l0.1-15c0-1.9-1.3-3.4-3-3.4l-50.8-0.2h0
					c-0.8,0-1.5,0.3-2.1,1c-0.6,0.6-0.9,1.5-0.9,2.4l0,11.3c0,0.9,0.3,1.8,0.9,2.4c0.6,0.6,1.3,1,2.1,1l47.3,0.2L189-81.8z"/>
			</g>
			<g>
				<path class="st5" d="M192.1-4.4c-0.4,0-0.8-0.1-1.2-0.2c-5.5-1.9-13-4.9-14.6-9.3c-1.8-4.8-0.4-17.8,4.2-38.5
					c3.4-15.4,7.4-29.6,7.5-29.7l0.1-0.2l7.9,0v0.2l-0.2,74c0,1.2-0.6,2.3-1.5,2.9C193.5-4.6,192.8-4.4,192.1-4.4z M188.4-81.8
					c-1,3.5-15.8,56.7-11.7,67.7c1.8,4.8,11.2,8,14.3,9c1,0.3,2,0.2,2.8-0.4c0.8-0.6,1.3-1.5,1.3-2.5l0.2-73.7L188.4-81.8z"/>
			</g>
		</g>
		<g>
			<g>
				<path class="st5" d="M141.7,196.5c-0.9,0-1.8-0.4-2.5-1.1s-1-1.7-1-2.7l0-11.3c0-1,0.4-2,1-2.7c0.7-0.7,1.5-1.2,2.5-1.2
					l47.3-0.2v0.5l-47.3,0.2c-0.8,0-1.5,0.4-2.1,1c-0.6,0.6-0.9,1.5-0.9,2.4l0,11.3c0,0.9,0.3,1.8,0.9,2.4c0.6,0.6,1.3,1,2.1,1h0
					l50.8-0.2c1.6,0,3-1.5,3-3.4l-0.1-15h0.5l0.1,15c0,2.1-1.5,3.9-3.5,3.9L141.7,196.5C141.7,196.5,141.7,196.5,141.7,196.5z"/>
			</g>
			<g>
				<path class="st5" d="M188,177.8l-0.1-0.2c0-0.1-4.1-14.3-7.5-29.7c-4.6-20.7-6-33.6-4.2-38.5c1.7-4.5,9.2-7.5,14.6-9.3
					c1.1-0.4,2.3-0.2,3.3,0.5s1.5,1.8,1.5,2.9l0.2,74.2L188,177.8z M192.1,100.4c-0.3,0-0.7,0.1-1,0.2c-3.1,1.1-12.6,4.3-14.3,9
					c-4.1,11,10.7,64.1,11.7,67.7l7,0l-0.2-73.7c0-1-0.5-1.9-1.3-2.5C193.3,100.6,192.7,100.4,192.1,100.4z"/>
			</g>
		</g>
		<g>
			<g>
				<path class="st5" d="M11.7-81.8v-0.5l47.3-0.2c1.6,0,3-1.5,3-3.4l0-11.3c0-1.9-1.3-3.4-3-3.4h0l-50.8,0.2c-0.8,0-1.5,0.4-2.1,1
					c-0.6,0.6-0.9,1.5-0.9,2.4l0.1,15H4.8L4.8-97c0-1,0.4-2,1-2.7c0.7-0.7,1.5-1.2,2.5-1.2L59-101h0c1.9,0,3.5,1.7,3.5,3.9l0,11.3
					c0,2.1-1.5,3.9-3.5,3.9L11.7-81.8z"/>
			</g>
			<g>
				<path class="st5" d="M8.7-4.4C8-4.4,7.2-4.6,6.6-5.1C5.6-5.8,5.1-6.8,5.1-8L4.8-82.2l7.9,0l0.1,0.2c0,0.1,4.1,14.3,7.5,29.7
					c4.6,20.7,6,33.6,4.2,38.5c-1.7,4.5-9.2,7.5-14.6,9.3C9.5-4.5,9.1-4.4,8.7-4.4z M5.3-81.7L5.6-8c0,1,0.5,1.9,1.3,2.5
					C7.7-4.9,8.7-4.7,9.7-5c3.1-1.1,12.6-4.3,14.3-9c4.1-11-10.7-64.1-11.7-67.7L5.3-81.7z"/>
			</g>
		</g>
		<g>
			<g>
				<path class="st5" d="M59.5,196.3L59.5,196.3l-50.8-0.2c-1.9,0-3.5-1.8-3.5-3.9l0.1-15h0.5l-0.1,15c0,1.9,1.3,3.4,3,3.4l50.8,0.2
					h0c0.8,0,1.5-0.3,2.1-1c0.6-0.6,0.9-1.5,0.9-2.4l0-11.3c0-0.9-0.3-1.8-0.9-2.4c-0.6-0.6-1.3-1-2.1-1l-47.3-0.2V177l47.3,0.2
					c0.9,0,1.8,0.4,2.5,1.2c0.6,0.7,1,1.7,1,2.7l0,11.3c0,1-0.4,2-1,2.7C61.3,195.9,60.4,196.3,59.5,196.3z"/>
			</g>
			<g>
				<path class="st5" d="M13.2,177.5l-7.9,0l0.2-74.2c0-1.2,0.6-2.3,1.5-2.9c1-0.7,2.2-0.9,3.3-0.5c5.5,1.9,13,4.9,14.6,9.3
					c1.8,4.8,0.4,17.8-4.2,38.5c-3.4,15.4-7.4,29.6-7.5,29.7L13.2,177.5z M5.8,177l7,0c1-3.5,15.8-56.7,11.7-67.7
					c-1.8-4.8-11.2-8-14.3-9c-1-0.3-2-0.2-2.8,0.4c-0.8,0.6-1.3,1.5-1.3,2.5L5.8,177z"/>
			</g>
		</g>
		<g>
			<g>
				<path class="st5" d="M100.5,160.8C100.4,160.8,100.4,160.8,100.5,160.8c-1.1,0-10-0.3-18.9-0.9c-5.2-0.3-9.4-0.7-12.5-1.1
					c-5.3-0.7-6.3-1.3-6.6-1.7c-0.1-0.2-0.2-0.3-0.1-0.5l0-2.9c-0.6-0.3-1.3-0.7-1.4-0.9c0-0.1,0-0.1,0-0.2l-0.1-1.6l0.5,0l0.1,1.7
					c0.1,0.2,0.7,0.5,1.3,0.7l0.1,0.1l0,3.2l0,0c0,0,0,0,0,0.1c0.4,0.5,3.5,1.6,18.8,2.6c9,0.6,17.8,0.9,18.8,0.9c0,0,0.1,0,0.1,0
					c1,0,9.9-0.4,18.8-1c15.3-1.1,18.3-2.2,18.8-2.7c0,0,0-0.1,0-0.1l0-0.1l0-3.2l0.1-0.1c0.5-0.2,1.1-0.6,1.3-0.7l0.1-1.7l0.5,0
					l-0.1,1.6c0,0.1,0,0.1,0,0.2c-0.1,0.3-0.8,0.7-1.4,1l0,2.9c0,0.1,0,0.3-0.1,0.5c-0.3,0.4-1.3,1-6.6,1.7
					c-3.1,0.4-7.3,0.8-12.5,1.2C110.4,160.5,101.5,160.8,100.5,160.8C100.5,160.8,100.5,160.8,100.5,160.8z"/>
			</g>
			<g>
				<path class="st5" d="M78.1,196.5v-0.4c0-0.6,0.2-1.1,0.5-1.5c0.3-0.4,0.8-0.6,1.3-0.6l4.7,0c0.1,0,0.2-0.1,0.2-0.3
					c0-0.3,0.1-0.6,0.3-0.8c0.2-0.2,0.4-0.4,0.7-0.4l5.3,0c0.3,0,0.5-0.3,0.5-0.6c0-0.4,0.1-0.7,0.3-0.9c0.2-0.3,0.5-0.4,0.8-0.4
					l3.7,0c0.3,0,0.6-0.3,0.7-0.7c0.7-3.3,1.4-9.3,0.7-19c-0.4-5.8-1-10.2-1-10.2l0.5-0.1c0,0,0.7,4.5,1.1,10.2
					c0.3,5.3,0.5,13-0.8,19.1c-0.1,0.6-0.6,1.1-1.2,1.1l-3.7,0c-0.2,0-0.3,0.1-0.4,0.2c-0.1,0.2-0.2,0.4-0.2,0.6
					c0,0.6-0.4,1.1-1,1.1l-5.3,0c-0.1,0-0.2,0.1-0.3,0.2c-0.1,0.1-0.2,0.3-0.2,0.5c0,0.5-0.3,0.8-0.7,0.8l-4.7,0
					c-0.3,0-0.6,0.2-0.9,0.5c-0.2,0.3-0.4,0.6-0.4,1l43.9-0.1c-0.1-0.8-0.6-1.5-1.3-1.5l0,0l-4.7,0l0,0c-0.4,0-0.7-0.4-0.7-0.8
					c0-0.2-0.1-0.4-0.2-0.5c-0.1-0.1-0.2-0.2-0.3-0.2l0,0l-5.3,0l0,0c-0.3,0-0.5-0.1-0.7-0.4c-0.2-0.2-0.3-0.5-0.3-0.8
					c0-0.2-0.1-0.5-0.2-0.6c-0.1-0.1-0.3-0.2-0.4-0.2l0,0l-3.7,0l0,0c-0.5,0-1-0.4-1.2-1.1c-0.7-3.4-1.4-9.4-0.9-19.1
					c0.3-5.8,1-10.2,1-10.3l0.5,0.1c0,0-0.6,4.4-1,10.2c-0.3,5.3-0.4,12.9,0.9,19c0.1,0.4,0.4,0.7,0.7,0.7l0,0l3.7,0
					c0.3,0,0.6,0.1,0.8,0.4c0.2,0.3,0.3,0.6,0.3,0.9c0,0.2,0.1,0.4,0.2,0.5c0.1,0.1,0.2,0.2,0.3,0.2l5.3,0l0,0
					c0.3,0,0.5,0.1,0.7,0.4c0.2,0.2,0.3,0.5,0.3,0.8c0,0.2,0.1,0.3,0.2,0.3l0,0l4.7,0c0,0,0,0,0,0c1,0,1.8,1,1.8,2.1v0.4L78.1,196.5
					z"/>
			</g>
			<g>
				<path class="st5" d="M122.4,148.6c-9.9-0.6-20.7-0.8-22-0.9c-1.1,0-10.1,0.3-19.1,0.8l0-0.5c8.8-0.5,17.6-0.8,19-0.8v0h0.2v0
					c1.6,0,12.2,0.3,21.9,0.9L122.4,148.6z"/>
			</g>
			<g>
				<path class="st5" d="M99.9,154.7c-2.4,0-19.8-0.7-29.8-1.3c0,0-2.1-0.2-4.3-0.5c-4-0.6-4.7-1.1-4.9-1.5c-0.1-0.2-0.1-0.4,0-0.5
					c0.2-0.3,0.7-1.2,11.9-2.2l0,0.5c-9.9,0.8-11.4,1.6-11.5,1.9c0,0,0,0,0,0.1c0.4,0.7,4.8,1.4,8.8,1.8c10.5,0.7,29.3,1.4,30,1.3h0
					h0.8h0c0.7,0.1,19.9-0.8,30-1.5c4-0.4,8.4-1.1,8.8-1.8c0,0,0,0,0-0.1c-0.1-0.1-0.8-0.9-8-1.6l0.1-0.5c7.9,0.8,8.3,1.6,8.4,1.8
					c0.1,0.2,0.1,0.4,0,0.5c-0.2,0.4-0.9,0.9-4.9,1.5c-2.2,0.3-4.3,0.5-4.3,0.5c-10.2,0.7-29.1,1.6-30.1,1.5h-0.7
					C100,154.7,100,154.7,99.9,154.7z"/>
			</g>
		</g>
		<g>
			<g>
				<path class="st4" d="M131.4,86.8c-0.1-0.6-0.3-2.1-0.9-2.8c-0.2-0.2-0.3-0.4-0.3-0.5c-0.2-0.9-0.3-2.1-0.1-2.6
					c0.1-0.2-0.2-0.6-0.6-0.8c-0.3-0.2-0.4-0.5-0.2-0.8c0.1-0.7,1.1-0.7,1.6-0.7c0-0.1-0.1-0.1-0.2-0.2c-0.5-0.4-1.4-0.9-1.8-0.7
					c-0.1,0-0.1,0.1-0.1,0.1c0,0,0.1,0.1,0.1,0.2l0.1,0.1l0,0.1c0,0.3,0,0.7-0.3,0.9c-0.1,0-0.2,0.1-0.4,0c-0.3,0-1.4-0.2-1.8-0.7
					c-0.1-0.2-0.1-0.4-0.1-0.6c-0.3-0.5-4-2.2-9.9-4.2l-0.3-0.1l0.2-0.3c0-0.1,0.1-0.2,0.1-0.2l-0.7-0.2c0,0.1,0,0.1,0,0.2v0.4
					l-2-0.7c-0.2-0.1-0.5,0-0.6,0.2c-0.3,0.6-0.3,1.1,0.1,1.4c0.7,0.7,2.8,1.4,3.7,1.7c0.5,0.2,0.7,0.6,0.6,1.1l0,0.1
					c0,0.1,0.1,0.3,0.2,0.3l7.6,3.4c0.5,0.2,0.8,0.6,0.9,1.1c0,0.2,0.1,0.5,0.1,0.8c0,0.2,0.1,0.5,0.1,0.7l-0.5,0.1
					c0-0.2-0.1-0.5-0.1-0.7c0-0.3-0.1-0.6-0.1-0.7c-0.1-0.3-0.3-0.6-0.6-0.7l-7.6-3.4c-0.4-0.2-0.6-0.6-0.5-0.9l0-0.1
					c0.1-0.2-0.1-0.4-0.3-0.4c-1.1-0.4-3.1-1.1-3.9-1.8c-0.6-0.5-0.6-1.3-0.2-2.1c0.2-0.4,0.7-0.6,1.2-0.4l1.3,0.5
					c0.1-0.3,0.2-0.4,0.2-0.4c0.1,0,0.2,0,0.3,0l0.9,0.3c0.1,0,0.2,0,0.2,0.1c0,0.1,0.1,0.2,0,0.5c2.1,0.7,9.4,3.4,9.9,4.4
					c0.1,0.1,0.1,0.2,0,0.3c0,0.1,0,0.2,0,0.2c0.2,0.3,1.1,0.5,1.5,0.5h0c0-0.1,0-0.2,0-0.3c-0.1-0.1-0.2-0.3-0.2-0.5
					c0-0.1,0.1-0.3,0.3-0.5c0.8-0.5,2.2,0.6,2.4,0.7c0.5,0.4,0.5,0.7,0.4,0.8c0,0.1-0.2,0.2-0.3,0.2c0,0-0.1,0-0.1,0
					c-1-0.1-1.2,0.1-1.2,0.3l0,0.1l0,0c0,0.1,0,0.2,0.1,0.2c1,0.7,0.9,1.2,0.8,1.5c-0.1,0.3-0.1,1.2,0.1,2.3c0,0.1,0.1,0.2,0.2,0.3
					c0.7,0.7,0.9,2.2,1,3L131.4,86.8z"/>
			</g>
			<g>
				<path class="st4" d="M122.9,83.2c-1.5-0.5-1.1-1.9-1.1-1.9l0.5-1.6l0.5,0.1l-0.5,1.6c0,0.1-0.2,0.9,0.8,1.3L122.9,83.2z"/>
			</g>
		</g>
		<g>
			<g>
				<path class="st4" d="M148.5,97c-1.4-1-21.2-13.5-25.2-15.6c-0.4-0.2-1.6-0.3-1.6-0.3c-1.6,0.4-2,2.5-1.7,3.8l0,0
					c0.1,0.5,0.4,0.9,0.7,1.1l26.1,17.7c0,0,0.8,1.9,0.8,3.3l-0.5,18.4l-4.6,47.3c-0.1,0.9,0.2,1.8,0.7,2.6l0.3,0.4
					c1.4,1.9,4,2,5.6,0.2l0.3-0.3c0.5-0.6,0.9-1.4,1-2.2l3.8-36c0.1-0.6,0.3-1.2,0.9-1.2c0.7,0,0.9,0.6,0.9,1.2l3.8,36
					c0.1,0.8,0.4,1.6,1,2.2l0.3,0.3c1.5,1.7,4.1,1.6,5.6-0.2l0.3-0.4c0.5-0.7,0.8-1.6,0.7-2.6l-4.6-47.3l-0.9-18.4
					c0-0.3,0.3-0.4,0.4-0.1l7.2,23.8c0.2,0.5,0.8,1,1.2,1.3l0,0c1.1,0.7,3,0.2,3.6-1l0.1-0.1c0.2-0.5,0.4-1.2,0.2-1.7
					c-1.5-4.7-7.8-28.3-8.4-30.2c-0.5-1.5-1.7-1.6-2.3-1.8c0,0-0.8-0.2-1.1-0.2l-7.7-0.4c-0.2,0-0.4,0-0.5,0L148.5,97z"/>
			</g>
		</g>
		<g>
			<path class="st6" d="M175.6-62.2"/>
		</g>
		<g>
			<path class="st6" d="M153.3-63"/>
		</g>
		<g>
			<path class="st6" d="M52-69.6"/>
		</g>
		<g>
			<path class="st7" d="M126,1.7"/>
		</g>
		<g>
			<path class="st4" d="M35.7,110.8c-0.4-0.2-0.8,0.2-0.8,0.6l0.4,3.6l1,9.8c0,0.4,0,0.7-0.1,1l-9.3,28c-0.4,1,0.5,2,1.7,2l6.7-0.2
				c0.5,0,1,0.3,1,0.8l2.6,16.3c0.2,1,1.1,3.2,2.3,4c0.3,0.2,0.6,0.2,0.9,0.2h0.9c0,0,0.8,0,0.8,0h1c0.2,0,0.4,0,0.5-0.1
				c1.3-0.6,2.3-3,2.5-4.1l2.6-16.3c0.1-0.5,0.5-0.8,1-0.8l6.5-0.1c1.2,0,2-1,1.7-2l-9.1-27.8c-0.1-0.3-0.2-0.7-0.1-1l0.8-7.2
				c0-0.3-0.1-0.5-0.4-0.6L35.7,110.8z"/>
		</g>
		<g>
			<g>
				<path class="st4" d="M68.2,118.8l-4.4-1.8l0.2-0.3c0.8-0.9,1.3-1.4,1.6-1.5c0.1,0,0.2-0.1,0.3-0.2c0.7-0.7,1.1-1.4,1.1-1.7
					c0-0.3,0.3-0.7,1.3-0.8c0.1,0,0.1-0.1,0.1-0.1v-0.1l0-0.1c0-0.1,0-0.3-0.8-0.7c-0.1,0-0.1,0-0.1-0.1c-0.1-0.1-0.2-0.2-0.1-0.4
					c0-0.1,0.1-0.4,0.7-0.5c0.2,0,1.8-0.2,2.2,0.5c0.1,0.3,0.1,0.4,0,0.5c-0.1,0.2-0.3,0.3-0.4,0.3c-0.1,0.1-0.1,0.2-0.1,0.2h0
					c0.4,0.2,1.1,0.4,1.4,0.3c0,0,0.1-0.1,0.1-0.1c0.1-0.4,0.6-0.5,1.9-0.4c0.9,0.1,2,0.2,3.5,0.4c2,0.3,4,0.7,4.7,0.8
					c0.1-0.3,0.2-0.4,0.2-0.4c0.1,0,0.2,0,0.3,0l0.9,0.2c0.1,0,0.2,0,0.3,0.1c0,0.1,0.1,0.1,0,0.4l1.3,0.2c0.5,0.1,0.8,0.4,0.8,0.9
					c0,0.8-0.4,1.4-1.1,1.5c-0.9,0.2-2.9-0.1-3.9-0.3c-0.2,0-0.4,0.1-0.4,0.2l0,0.1c-0.1,0.3-0.4,0.6-0.8,0.5l-7.6-0.8
					c-0.3,0-0.6,0.1-0.8,0.3c0,0-0.1,0.1-0.2,0.2c-0.4,0.4-1.3,1.3-2,2.3L68.2,118.8z M64.6,116.7l3.4,1.4c0.7-1,1.5-1.9,1.9-2.2
					c0.1-0.1,0.2-0.2,0.2-0.2c0.3-0.3,0.8-0.5,1.2-0.5l7.6,0.8c0.1,0,0.3-0.1,0.3-0.2l0-0.1c0.1-0.4,0.5-0.6,1-0.6
					c1.8,0.3,3.1,0.5,3.7,0.3c0.5-0.1,0.7-0.5,0.7-1.1c0-0.2-0.2-0.3-0.4-0.4l-1.9-0.3l0.2-0.3c0,0,0-0.1,0.1-0.1l-0.6-0.1
					c0,0.1,0,0.1,0,0.2v0.3l-0.3-0.1c-4.4-0.8-9.2-1.5-9.8-1.2c-0.1,0.2-0.2,0.3-0.3,0.4c-0.5,0.3-1.6-0.1-1.8-0.2
					c-0.2,0-0.3-0.1-0.3-0.2c-0.1-0.3,0.1-0.6,0.2-0.9l0.1-0.1l0.1,0c0.1,0,0.1,0,0.2-0.1c0,0,0,0,0-0.1c-0.2-0.4-1.2-0.4-1.7-0.3
					c-0.1,0-0.1,0-0.2,0c0.4,0.2,1.1,0.6,0.9,1.3c0,0.3-0.3,0.5-0.6,0.5c-0.5,0-0.8,0.2-0.8,0.3c0,0.5-0.7,1.4-1.3,2
					c-0.1,0.1-0.3,0.2-0.5,0.3C65.5,115.7,65,116.2,64.6,116.7z"/>
			</g>
			<g>
				<path class="st4" d="M73.1,118.5c-0.1,0-0.3,0-0.5-0.1l-3.7-0.7l0.1-0.5l3.7,0.7c1,0.2,1.2-0.4,1.3-0.5l0.4-1.7l0.5,0.1
					l-0.4,1.7C74.4,117.9,74,118.5,73.1,118.5z"/>
			</g>
		</g>
		<g>
			<path class="st4" d="M41.3,107.7l27.3,11.1v0.1c1,0.9,0.2,3.8-1.2,3.9c-0.2,0-0.5-0.1-0.6-0.1c-1.3-0.2-32.6-13-32.6-13
				s-1.4-3,0.4-5c0.2-0.2,0.5-0.3,0.8-0.1L41.3,107.7z"/>
		</g>
		<g>
			<path class="st4" d="M39.8,106.8c-0.2,0.2-0.4,0.3-0.7,0.2l-4.7-2.1c-0.1,0,0.6-0.4,0.6-0.4h15.1c0.3,0,0.6,0.1,0.8,0.2l15,9.3
				c0.2,0.2,0.3,0.5,0.2,0.7l-0.2,0.3c0,0.1-0.1,0.1-0.2,0.2l-1.4,1c-0.2,0.1-0.4,0.2-0.5,0.1l-23.6-9.7
				C40.2,106.5,40,106.6,39.8,106.8L39.8,106.8z"/>
		</g>
		<g>
			<g>
				<path class="st4" d="M166.7-68.5c0.8,0,1.4-0.9,1.4-1.7v-3.4c0-4.2-3.4-7.7-7.6-7.7l-21.6,0c-1.8,0.1-2.3-0.3-2.4-2.2l-0.8-15.5
					c-0.1-2.1-1.8-3.8-3.9-3.8h-1c-2.2,0-3.9,1.8-4,4l0,22.5c0,3.9,3.1,7.1,7,7.1l15.8,0c0.8,0,1.4,0.6,1.4,1.4l0,25.2
					c0,0.8,0.6,1.4,1.4,1.4h7.7c0.8,0,2.5-0.6,2.6-1.4l0.3-24.5c0-1-0.2-1.6,0.9-1.6H166.7z"/>
			</g>
			<g>
				<path class="st4" d="M151.1-42.4l9.4-0.4c0.8,0,2.3-0.6,2.3,0.2l0,3.7c0,0,0,0,0,0c0,0.2,0.1,0.3,0.1,0.4l0,0
					c0.2,0.1,0.4,0.1,0.5-0.2c0-0.1,0.1-0.1,0.1-0.2l0.3-27c0-0.6-0.2-2.2,2-2.2l-0.3,0c0.1-0.1,1.5-0.1,2.5,0
					c0.8,0,1.5,0.5,1.7,1.3c0.1,0.2,0.1,0.5,0.1,0.7c-0.1,4-0.2,22.3-0.3,31.7c0,2.6-2.1,4.8-4.7,4.9l-5.5,0.2c-0.1,0-0.1,0-0.1,0
					c-0.5,0.1-4.4,0.5-6.6-2.1c-1.4-1.7-1.4-4.8-1.6-9.6c0-0.1,0-0.2,0-0.3"/>
			</g>
		</g>
		<g>
			<g>
				<path class="st4" d="M69.2-71.8c1.8-1.1,2.6-1.2,2.6-4.8l-0.2-15.9c0-2.5-1.6-4.4-4-4.4l-0.5,0c-2.4,0-3.5,1.9-3.6,4.2l-0.7,9.4
					c-0.1,1.8-1.3,2.2-3.1,2.2l-16.1,0.2c-4.5,0.1-8,3.7-8,8.2l0.1,3.7c0,0.3,0.3,0.6,0.6,0.6l0.7,0.1c0.3,0,2.6,0,2.9,0.1
					c0.4,0.2,0.6,0.3,0.8,0.7c0,0.1,0.1,0.2,0.1,0.3l0.7,28.7L53-41.3l-3.8-19.2c-0.1-0.4,0-1.5,0.3-1.8L69.2-71.8z"/>
			</g>
			<g>
				<path class="st4" d="M52.6-42.9l-10.4,3.6c-0.4,0.1-1.6,0.6-1.6,0.1l-0.6-26.4c0-0.3,0.1-1.9-1.1-2.1c-1.2-0.2-2.9-0.2-3.6-0.1
					c-1.4,0.3-1.3,1.8-1.3,2.1c0.2,3.5,0.4,18.4,0.6,28.1c0.1,4.4,3.6,8,8,8.1l2.3,0.1c0.1,0,0.1,0,0.1,0c0.3,0,2.7-0.7,4.9-3.4
					c1.4-1.7,3.1-3.6,3.2-8.2c0-0.1,0-0.2,0-0.3"/>
			</g>
		</g>
		<g>
			<path class="st8" d="M158.3,92.9"/>
		</g>
		<g>
			<path class="st8" d="M158.3,78.8"/>
		</g>
		<g>
			<path class="st9" d="M160.9-9.8"/>
		</g>
		<g>
			<path class="st9" d="M40-10.6"/>
		</g>
		<g>
			<g>
				<path class="st10" d="M125.9,151.4"/>
			</g>
			<g>
				<path class="st5" d="M126.3,151.6c-1.7,0-2.2-0.1-2.3-0.2c-0.3-0.2-1.2-0.8-1.9-2.9c-0.5-1.6-0.8-3.6-0.8-6
					c-0.1-0.1-0.1-0.2-0.1-0.4c0.1-0.2,0.2-0.8,5.1-0.8v0.5c-3.3,0-4.3,0.3-4.5,0.4l0,0v0.1c0,2.4,0.3,4.4,0.8,6
					c0.7,2.2,1.7,2.6,1.7,2.7l0.1,0v0c0.3,0.1,1.2,0.1,1.9,0.1L126.3,151.6z M124.4,151.1L124.4,151.1
					C124.4,151.1,124.4,151.1,124.4,151.1z"/>
			</g>
			<g>
				<path class="st10" d="M126.3,151.4"/>
			</g>
			<g>
				<path class="st5" d="M126.3,151.6v-0.5c0.8,0,1.7-0.1,1.9-0.1l0,0l0.1,0c0,0,2.4-1.2,2.4-8.6v-0.1l0,0c-0.3-0.1-1.2-0.4-4.5-0.4
					v-0.5c4.9,0,5,0.5,5.1,0.8c0,0.1,0,0.3-0.1,0.4c-0.1,7.1-2.2,8.7-2.7,8.9C128.5,151.5,128.1,151.6,126.3,151.6z"/>
			</g>
			<g>
				<path class="st5" d="M129.4,150l0.8-2l0.2,0c0.1,0,1.2,0.2,2-0.9c1-1.5,0.9-2.1,0.6-2.4c-0.4-0.5-1.1-0.3-1.1-0.3l0,0
					c0,0-0.3,0.1-0.8,0.5l-0.5,0.4l0.1-2l0.2-0.1c0.8-0.3,2.5-0.3,3,1.1c0.6,1.8-0.3,3.2-1.2,4.2c-1,1.2-3,1.5-3,1.5L129.4,150z
					 M130.5,148.5l-0.3,0.9c0.6-0.2,1.7-0.5,2.3-1.2c0.6-0.7,1.2-1.6,1.2-2.7c-0.1,0.5-0.4,1.1-0.9,1.9
					C132,148.4,130.9,148.5,130.5,148.5z M132.3,143.8c0.3,0,0.8,0.1,1.1,0.5c0.1,0.1,0.1,0.2,0.1,0.2c0,0,0-0.1,0-0.1
					c-0.2-0.6-0.6-0.9-1.3-0.9c-0.4,0-0.7,0-0.9,0.1l0,0.5c0.3-0.2,0.5-0.2,0.5-0.2C131.8,143.8,132,143.8,132.3,143.8z"/>
			</g>
			<g>
				<path class="st5" d="M126.5,142.7c-2.8,0-4.9-0.2-4.9-0.2l0-0.5c0.1,0,4.7,0.3,9.4,0l0,0.5C129.5,142.7,127.9,142.7,126.5,142.7
					z"/>
			</g>
		</g>
		<g>
			<g>
				<path class="st10" d="M77.9,151"/>
			</g>
			<g>
				<path class="st5" d="M77.5,151.3v-0.5c0.8,0,1.7-0.1,1.9-0.1l0,0l0.1,0c0,0,2.4-1.2,2.4-8.6v-0.1l0,0c-0.3-0.1-1.2-0.4-4.5-0.4
					V141c4.9,0,5,0.5,5.1,0.8c0,0.1,0,0.3-0.1,0.4c-0.1,7.1-2.2,8.7-2.7,8.9C79.6,151.2,79.2,151.3,77.5,151.3z"/>
			</g>
			<g>
				<path class="st10" d="M77.5,151"/>
			</g>
			<g>
				<path class="st5" d="M77.5,151.3c-1.7,0-2.2-0.1-2.3-0.2c-0.4-0.2-2.6-1.8-2.7-8.9c-0.1-0.1-0.1-0.2-0.1-0.4
					c0.1-0.2,0.2-0.8,5.1-0.8v0.5c-3.4,0-4.3,0.3-4.5,0.4l0,0l0,0.1c0,7.4,2.4,8.6,2.4,8.6l0.1,0v0c0.3,0.1,1.2,0.1,1.9,0.1
					L77.5,151.3z M75.6,150.8L75.6,150.8C75.6,150.8,75.6,150.8,75.6,150.8z"/>
			</g>
			<g>
				<path class="st5" d="M74.4,149.6l-0.4-0.1c-0.1,0-2-0.3-3-1.5c-0.9-1-1.8-2.3-1.2-4.2c0.5-1.4,2.2-1.4,3-1.1l0.2,0.1l0.1,2
					l-0.5-0.4c-0.4-0.4-0.8-0.5-0.8-0.5l0,0c0,0-0.7-0.2-1.1,0.3c-0.3,0.4-0.4,0.9,0.6,2.4c0.8,1.2,2,1,2,0.9l0.2,0l0.1,0.2
					L74.4,149.6z M70.1,145.1c0,1.1,0.6,2,1.2,2.7c0.6,0.7,1.7,1.1,2.3,1.2l-0.3-0.9c-0.5,0-1.5,0-2.3-1.2
					C70.5,146.2,70.2,145.6,70.1,145.1z M71.8,143.2c-0.1,0-0.1,0-0.2,0c-0.7,0-1.1,0.3-1.3,0.9c0,0,0,0.1,0,0.1
					c0-0.1,0.1-0.2,0.1-0.2c0.5-0.7,1.5-0.5,1.6-0.4c0.1,0,0.3,0.1,0.5,0.2l0-0.5C72.4,143.2,72.1,143.2,71.8,143.2z"/>
			</g>
			<g>
				<path class="st5" d="M77.3,142.4c-1.4,0-3,0-4.6-0.2l0-0.5c4.7,0.3,9.3,0,9.4,0l0,0.5C82.2,142.3,80.1,142.4,77.3,142.4z"/>
			</g>
		</g>
		<g>
			<g>
				<path class="st5" d="M139.6-55.4l-0.1-1.7c-0.1-0.2-0.7-0.5-1.3-0.7l-0.1-0.1l0-3.2c0,0,0,0,0-0.1c-0.4-0.5-3.4-1.6-18.8-2.7
					c-8.9-0.6-17.8-1-18.8-1c0,0-0.1,0-0.1,0c-1,0-9.9,0.3-18.8,0.9c-15.3,1-18.4,2-18.8,2.6c0,0,0,0.1,0,0.1l0,0l0,3.2L62.6-58
					c-0.5,0.2-1.1,0.6-1.3,0.7l-0.1,1.7l-0.5,0l0.1-1.6c0-0.1,0-0.1,0-0.2c0.1-0.3,0.8-0.7,1.4-0.9l0-2.9c0-0.1,0-0.3,0.1-0.5
					c0.3-0.4,1.3-1,6.6-1.7c3.1-0.4,7.3-0.8,12.5-1.1c9-0.6,17.9-0.9,18.8-0.9c0.1,0,0.1,0,0.2,0c1,0,9.9,0.4,18.8,1
					c5.2,0.4,9.4,0.8,12.5,1.2c5.3,0.7,6.3,1.3,6.6,1.7c0.1,0.2,0.2,0.3,0.1,0.5l0,2.9c0.6,0.3,1.3,0.7,1.4,1c0,0.1,0,0.1,0,0.2
					l0.1,1.6L139.6-55.4z"/>
			</g>
			<g>
				<path class="st5" d="M103.8-65.1c0,0-0.6-4.5-1-10.3c-0.3-5.3-0.4-13,0.9-19.1c0.1-0.6,0.6-1.1,1.2-1.1l0,0l3.7,0
					c0.2,0,0.3-0.1,0.4-0.2c0.1-0.2,0.2-0.4,0.2-0.6c0-0.3,0.1-0.6,0.3-0.8c0.2-0.2,0.4-0.4,0.7-0.4l0,0l5.3,0l0,0
					c0.1,0,0.2-0.1,0.3-0.2c0.1-0.1,0.2-0.3,0.2-0.5c0-0.2,0.1-0.4,0.2-0.6c0.1-0.2,0.3-0.3,0.5-0.3l0,0l4.7,0l0,0
					c0.7,0,1.2-0.7,1.3-1.5l-43.9-0.1c0.1,0.8,0.6,1.5,1.3,1.5l4.7,0c0.4,0,0.7,0.4,0.7,0.8c0,0.3,0.2,0.6,0.5,0.6l5.3,0
					c0.3,0,0.5,0.1,0.7,0.4c0.2,0.2,0.3,0.5,0.3,0.8c0,0.5,0.3,0.9,0.6,0.9l3.7,0c0.6,0,1,0.5,1.2,1.1c0.7,3.4,1.4,9.4,0.8,19.1
					c-0.4,5.8-1,10.2-1.1,10.2l-0.5-0.1c0,0,0.7-4.4,1-10.2c0.3-5.3,0.5-12.9-0.7-19c-0.1-0.4-0.4-0.7-0.7-0.7l-3.7,0
					c-0.6,0-1.1-0.6-1.1-1.3c0-0.2-0.1-0.4-0.2-0.5C91.3-97,91.2-97,91-97l-5.3,0c-0.5,0-1-0.5-1-1.1c0-0.2-0.1-0.3-0.2-0.3l-4.7,0
					c-1,0-1.8-1-1.8-2.1v-0.4l44.9,0.1v0.4c0,1.2-0.8,2.1-1.8,2.1c0,0,0,0,0,0l-4.7,0c-0.1,0-0.1,0.1-0.1,0.1
					c-0.1,0.1-0.1,0.2-0.1,0.3c0,0.3-0.1,0.6-0.3,0.8c-0.2,0.2-0.4,0.4-0.7,0.4l-5.3,0l0,0c-0.1,0-0.2,0.1-0.3,0.2
					c-0.1,0.1-0.2,0.3-0.2,0.5c0,0.4-0.1,0.7-0.3,0.9c-0.2,0.3-0.5,0.4-0.8,0.4l-3.7,0l0,0c-0.3,0-0.6,0.3-0.7,0.7
					c-0.7,3.3-1.4,9.3-0.9,19c0.3,5.8,1,10.2,1,10.2L103.8-65.1z"/>
			</g>
			<g>
				<path class="st5" d="M100.5-51.8l-0.2,0c-1.4,0-10.2-0.3-19-0.8l0-0.5c9,0.5,18,0.8,19.1,0.8c1.2,0,12-0.3,22-0.9l0,0.5
					C112.7-52.1,102.1-51.8,100.5-51.8L100.5-51.8z"/>
			</g>
			<g>
				<path class="st5" d="M72.7-53.2C61.5-54.1,61-55,60.8-55.4c-0.1-0.2-0.1-0.4,0-0.5c0.2-0.4,0.9-0.9,4.9-1.5
					c2.2-0.3,4.3-0.5,4.3-0.5c10.5-0.7,29.1-1.4,30.1-1.3h0.7c1-0.1,19.8,0.8,30,1.5c0,0,2.1,0.2,4.3,0.5c4,0.6,4.7,1.2,4.9,1.5
					c0.1,0.2,0.1,0.4,0,0.5c-0.1,0.3-0.6,1.1-8.4,1.8l-0.1-0.5c7.2-0.7,8-1.4,8-1.6c0,0,0,0,0-0.1c-0.4-0.7-4.8-1.4-8.8-1.8
					c-10-0.7-29.3-1.6-30-1.5h0l-0.8,0c-0.7-0.1-19.5,0.6-30,1.3c-4,0.3-8.4,1.1-8.8,1.8c0,0,0,0,0,0.1c0.2,0.3,1.6,1.1,11.5,1.9
					L72.7-53.2z"/>
			</g>
		</g>
		<g>
			<g>
				<path class="st10" d="M125.9-55.9"/>
			</g>
			<g>
				<path class="st5" d="M126.3-45.8c-4.9,0-5-0.5-5.1-0.8c0-0.1,0-0.3,0.1-0.4c0-2.4,0.3-4.4,0.8-6c0.7-2.1,1.6-2.8,1.9-2.9
					c0.1-0.1,0.6-0.2,2.3-0.2v0.5c-0.8,0-1.7,0.1-1.9,0.1l0,0l-0.1,0c0,0-1,0.5-1.7,2.7c-0.5,1.5-0.8,3.5-0.8,6v0.1l0,0
					c0.3,0.1,1.2,0.4,4.5,0.4V-45.8z"/>
			</g>
			<g>
				<path class="st10" d="M126.3-55.9"/>
			</g>
			<g>
				<path class="st5" d="M126.3-45.8v-0.5c3.4,0,4.3-0.3,4.5-0.4l0,0l0-0.1c0-7.5-2.4-8.6-2.4-8.6l-0.1,0l0,0
					c-0.3-0.1-1.2-0.1-1.9-0.1v-0.5c1.7,0,2.2,0.1,2.3,0.2c0.4,0.2,2.6,1.8,2.7,8.9c0.1,0.1,0.1,0.2,0.1,0.4
					C131.3-46.3,131.2-45.8,126.3-45.8z"/>
			</g>
			<g>
				<path class="st5" d="M132-47.5c-0.4,0-0.7-0.1-1-0.1l-0.2-0.1l-0.1-2l0.5,0.4c0.4,0.4,0.8,0.5,0.8,0.5l0,0c0,0,0.7,0.2,1.1-0.3
					c0.3-0.4,0.4-0.9-0.6-2.4c-0.8-1.2-2-0.9-2-0.9l-0.2,0l-0.8-2l0.4,0.1c0.1,0,2,0.3,3,1.5c0.9,1,1.8,2.3,1.2,4.2
					C133.7-47.8,132.8-47.5,132-47.5z M131.3-48.1c0.2,0,0.5,0.1,0.9,0.1c0.7,0,1.1-0.3,1.3-0.9c0,0,0-0.1,0-0.1
					c0,0.1-0.1,0.2-0.1,0.2c-0.5,0.7-1.5,0.5-1.6,0.4c-0.1,0-0.3-0.1-0.5-0.2L131.3-48.1z M130.6-53c0.5,0,1.5,0.2,2.2,1.2
					c0.5,0.8,0.8,1.4,0.9,1.9c0-1.1-0.6-2-1.2-2.7c-0.6-0.7-1.7-1.1-2.3-1.2l0.3,0.9C130.5-53,130.6-53,130.6-53z"/>
			</g>
			<g>
				<path class="st5" d="M131-46.6c-4.7-0.3-9.3,0-9.4,0l0-0.5c0.1,0,4.7-0.3,9.5,0L131-46.6z"/>
			</g>
		</g>
		<g>
			<g>
				<path class="st10" d="M77.9-55.5"/>
			</g>
			<g>
				<path class="st5" d="M77.5-45.5v-0.5c3.3,0,4.3-0.3,4.5-0.4l0,0v-0.1c0-7.5-2.4-8.6-2.4-8.6l-0.1,0l0,0
					c-0.3-0.1-1.2-0.1-1.9-0.1v-0.5c1.7,0,2.2,0.1,2.3,0.2c0.4,0.2,2.6,1.8,2.7,8.9c0.1,0.1,0.1,0.2,0.1,0.4
					C82.5-46,82.3-45.5,77.5-45.5z"/>
			</g>
			<g>
				<path class="st10" d="M77.5-55.5"/>
			</g>
			<g>
				<path class="st5" d="M77.5-45.5c-4.9,0-5-0.5-5.1-0.8c0-0.1,0-0.3,0.1-0.4c0.1-7.1,2.2-8.7,2.7-8.9c0.1-0.1,0.6-0.2,2.3-0.2v0.5
					c-0.8,0-1.7,0.1-1.9,0.1l0,0l-0.1,0c0,0-2.4,1.2-2.4,8.6v0.1l0,0c0.3,0.1,1.2,0.4,4.5,0.4L77.5-45.5z"/>
			</g>
			<g>
				<path class="st5" d="M71.8-47.2c-0.8,0-1.7-0.3-2-1.3c-0.6-1.8,0.3-3.2,1.2-4.2c1-1.2,3-1.5,3-1.5l0.4-0.1l-0.8,2l-0.2,0
					c-0.1,0-1.2-0.2-2,0.9c-1,1.5-0.9,2.1-0.6,2.4c0.4,0.5,1.1,0.3,1.1,0.3l0,0c0,0,0.3-0.1,0.8-0.5l0.5-0.4l-0.1,2l-0.2,0.1
					C72.6-47.3,72.2-47.2,71.8-47.2z M70.3-48.7C70.3-48.7,70.3-48.6,70.3-48.7c0.2,0.6,0.6,0.9,1.3,1c0.4,0,0.7,0,0.9-0.1l0-0.5
					C72.3-48.1,72.1-48,72-48c-0.1,0-1.1,0.3-1.6-0.4C70.4-48.5,70.3-48.6,70.3-48.7z M73.6-53.5c-0.6,0.2-1.7,0.5-2.3,1.2
					c-0.6,0.7-1.2,1.6-1.2,2.7c0.1-0.5,0.4-1.1,0.9-1.9c0.8-1.1,1.9-1.2,2.3-1.2L73.6-53.5z"/>
			</g>
			<g>
				<path class="st5" d="M72.8-46.3l0-0.5c4.7-0.3,9.4,0,9.5,0l0,0.5C82.1-46.3,77.5-46.6,72.8-46.3z"/>
			</g>
		</g>
		<g>
			<path class="st11" d="M164.6,113"/>
		</g>
		<g>
			<circle class="st4" cx="43.3" cy="94.2" r="8.3"/>
		</g>
		<g>
			<circle class="st4" cx="156" cy="85.8" r="8.3"/>
		</g>
		<g>
			<circle class="st4" cx="44" cy="-18.4" r="8.3"/>
		</g>
		<g>
			<circle class="st4" cx="161.7" cy="-18.1" r="8.3"/>
		</g>
		<g>
		</g>
		<g>
			<rect x="40.1" y="105.7" transform="matrix(0.5 -0.866 0.866 0.5 -72.8496 90.3359)" class="st4" width="3.4" height="5.1"/>
		</g>
		<g>
			<path class="st12" d="M40.2-29.6"/>
		</g>
		<g>
			<path class="st12" d="M43.3,94.2"/>
		</g>
		<g>
			<path class="st13" d="M41.8-18.4"/>
		</g>
		<g>
			<path class="st13" d="M43.3,94.2"/>
		</g>
		<g>
			<path class="st4" d="M46,31.2L46,31.2c1-1.4,2.4-2.3,4.1-2.3c3.3,0,5.5,2.9,5.5,6.1c0,3.3-2,6.3-5.6,6.3c-1.6,0-3-0.9-3.9-2.2H46
				v8.5h-2.2V29.3H46L46,31.2L46,31.2z M53.3,35.1c0-2.3-1.4-4.2-3.8-4.2c-2.3,0-3.7,2-3.7,4.2c0,2.2,1.3,4.2,3.7,4.2
				C52,39.3,53.3,37.3,53.3,35.1z"/>
			<path class="st4" d="M60.1,29.3v6.4c0,1.9,0.5,3.5,2.7,3.5s2.7-1.6,2.7-3.5v-6.4h2.2v6.7c0,3.2-1.5,5.3-4.9,5.3
				c-3.4,0-4.9-2.2-4.9-5.3v-6.7H60.1z"/>
			<path class="st4" d="M73.3,40.9H71V19.3h2.2V40.9z"/>
			<path class="st4" d="M78.8,31.2L78.8,31.2c1-1.4,2.4-2.3,4.1-2.3c3.3,0,5.5,2.9,5.5,6.1c0,3.3-2,6.3-5.6,6.3
				c-1.6,0-3-0.9-3.9-2.2h-0.1v8.5h-2.2V29.3h2.2L78.8,31.2L78.8,31.2z M86.1,35.1c0-2.3-1.4-4.2-3.8-4.2c-2.3,0-3.7,2-3.7,4.2
				c0,2.2,1.3,4.2,3.7,4.2C84.7,39.3,86.1,37.3,86.1,35.1z"/>
			<path class="st4" d="M99.6,40.9h-1.1V30.5h-1.3v-1h1.3v-5.1c0-0.8,0-2.1,0.4-2.8c0.5-0.9,1.5-1.4,2.6-1.4c0.3,0,0.7,0.1,1,0.2v1
				c-0.3-0.1-0.6-0.2-0.9-0.2c-1.9,0-2,1.9-2,3.4v4.9h2.9v1h-2.9C99.6,30.5,99.6,40.9,99.6,40.9z"/>
			<path class="st4" d="M106.7,25.6c0,0.6-0.4,1-1,1c-0.6,0-1-0.4-1-1c0-0.5,0.4-1,1-1C106.3,24.6,106.7,25,106.7,25.6z M106.3,40.9
				h-1.1V29.4h1.1V40.9z"/>
			<path class="st4" d="M119.5,32.1c-1.1-1.2-2.4-1.9-4-1.9c-2.7,0-4.7,2.3-4.7,4.9s2,5,4.7,5c1.6,0,3.2-0.8,4.2-2.1v1.5
				c-1.2,1-2.6,1.6-4.2,1.6c-3.4,0-5.9-2.7-5.9-6c0-3.3,2.5-5.9,5.9-5.9c1.5,0,2.9,0.4,4,1.4L119.5,32.1L119.5,32.1z"/>
			<path class="st4" d="M124.1,40.9H123V30.5h-1.3v-1h1.3v-4.1h1.1v4.1h2v1h-2V40.9z"/>
			<path class="st4" d="M130.3,25.6c0,0.6-0.4,1-1,1c-0.6,0-1-0.4-1-1c0-0.5,0.4-1,1-1S130.3,25,130.3,25.6z M129.8,40.9h-1.1V29.4
				h1.1V40.9z"/>
			<path class="st4" d="M145.2,35.1c0,3.4-2.7,6-6,6c-3.3,0-5.9-2.7-5.9-5.9c0-3.3,2.6-6,5.9-6C142.5,29.2,145.2,31.7,145.2,35.1z
				 M134.3,35.2c0,2.6,2.1,4.9,4.8,4.9c2.8,0,5-2.1,5-4.9c0-2.8-2.2-5-5-5C136.4,30.2,134.3,32.5,134.3,35.2z"/>
			<path class="st4" d="M149.2,31.2L149.2,31.2c0.7-1.3,2-2,3.4-2c2.9,0,3.8,1.8,3.8,4.8v6.9h-1.1v-6.9c0-2.1-0.2-3.7-2.8-3.7
				c-2.9,0-3.3,2.7-3.3,5v5.7h-1.1V29.4h1.1L149.2,31.2L149.2,31.2z"/>
		</g>
	</g>
</g>
</svg>
