<?xml version="1.0" encoding="utf-8"?>
<!-- Generator: Adobe Illustrator 24.1.0, SVG Export Plug-In . SVG Version: 6.00 Build 0)  -->
<svg version="1.1" id="Layer_1" xmlns="http://www.w3.org/2000/svg" xmlns:xlink="http://www.w3.org/1999/xlink" x="0px" y="0px"
	 viewBox="0 0 1080 608" style="enable-background:new 0 0 1080 608;" xml:space="preserve">
<style type="text/css">
	.st0{fill:#F5F4F2;}
	.st1{fill:#EE5023;}
	.st2{fill:#111113;}
</style>
<g>
	<rect y="0.25" class="st0" width="1080" height="607.5"/>
	<g>
		<g>
			<path class="st1" d="M416.73,244.16c-1.48-7.74-6.29-14.54-11.31-20.4c-4.78-5.58-10.31-10.49-15.99-15.13
				c-2.8-2.29-5.67-4.48-8.22-7.07c-0.63-0.63-1.23-1.29-1.82-1.95c-0.32-0.36-1.61-1.52-1.67-2c0.21,0.26,0.41,0.53,0.62,0.79
				c-0.15-0.2-0.3-0.41-0.45-0.62c-0.25-0.34-0.49-0.69-0.72-1.03c-0.55-0.82-1.08-1.67-1.57-2.53c-0.4-0.71-0.78-1.42-1.13-2.15
				c-0.14-0.29-0.27-0.58-0.41-0.87c-0.75-1.56,0.66,1.75,0.06,0.13c-0.6-1.63-1.12-3.27-1.48-4.97c-0.14-0.66-0.39-3.31-0.19-0.67
				c-0.06-0.78-0.17-1.56-0.21-2.35c-0.09-1.77,0.01-3.51,0.15-5.27c0.06-0.76,0.44-0.69-0.1,0.65c0.17-0.41,0.16-1.03,0.25-1.47
				c0.16-0.83,0.34-1.65,0.55-2.46c0.43-1.65,0.87-4.05,1.84-5.48c-0.1,0.14-0.77,1.68-0.15,0.39c0.24-0.5,0.47-1.01,0.72-1.51
				c0.41-0.82,0.84-1.64,1.29-2.44c0.82-1.44,1.74-2.78,2.69-4.13c0.63-0.9-1.28,1.56-0.24,0.3c0.25-0.3,0.49-0.61,0.74-0.9
				c0.5-0.6,1.02-1.18,1.56-1.74c1.18-1.25,2.43-2.43,3.75-3.53c0.3-0.25,0.6-0.49,0.91-0.74c1.26-1.04-1.2,0.87-0.3,0.24
				c0.64-0.45,1.27-0.92,1.92-1.35c1.37-0.91,2.78-1.75,4.24-2.52c0.69-0.37,1.4-0.72,2.11-1.05c0.41-0.19,0.9-0.34,1.29-0.58
				c-1.51,0.92-1.16,0.47-0.59,0.26c1.62-0.61,3.23-1.19,4.9-1.66c1.51-0.42,3.04-0.78,4.58-1.05c0.45-0.08,0.96-0.1,1.39-0.23
				c-1.76,0.52-1.35,0.16-0.71,0.1c0.93-0.1,1.87-0.19,2.8-0.25c1.56-0.09,3.12-0.1,4.68-0.03c0.78,0.04,1.56,0.09,2.33,0.17
				c0.56,0.06,2.18,0.39-0.25-0.06c0.46,0.08,0.93,0.14,1.39,0.22c1.54,0.27,3.06,0.63,4.56,1.08c0.77,0.23,1.53,0.48,2.29,0.76
				c0.3,0.11,1.28,0.32,1.48,0.57c-0.31-0.13-0.61-0.26-0.92-0.38c0.32,0.14,0.64,0.29,0.96,0.44c1.59,0.76,3.13,1.63,4.59,2.62
				c0.21,0.14,1.59,0.81,0.48,0.3c-1.05-0.47,0.18,0.15,0.43,0.36c0.8,0.68,1.55,1.4,2.26,2.16c0.29,0.32,0.56,0.66,0.86,0.98
				c0.76,0.82-1.07-1.62-0.13-0.16c0.48,0.74,0.96,1.45,1.38,2.22c0.23,0.43,0.43,0.87,0.65,1.31c0.54,1.04-0.57-1.81-0.03-0.01
				c0.33,1.12,0.7,2.2,0.95,3.34c0.08,0.38,0.14,0.76,0.22,1.14c0.43,1.94-0.14-1.79,0.04,0.2c0.09,0.98,0.17,1.95,0.21,2.93
				c0.08,2.18,0.01,4.35-0.13,6.53c-0.27,4.29-0.84,8.55-1.01,12.84c-0.4,9.54,1.43,18.99,7.9,26.31c2.96,3.34,6.96,5.92,11.23,7.21
				c4.93,1.48,9.95,0.8,14.57-1.28c8.09-3.63,12.69-12.14,17.1-19.35c1.04-1.7,2.09-3.38,3.23-5.02c0.34-0.49,0.69-0.97,1.04-1.45
				c0.84-1.18-0.04-0.01-0.15,0.19c0.57-0.96,1.51-1.82,2.28-2.63c0.64-0.67,1.31-1.3,2.01-1.91c0.14-0.12,0.28-0.24,0.42-0.36
				c0.67-0.54,0.57-0.47-0.29,0.21c0.13-0.2,0.76-0.54,0.91-0.64c0.76-0.51,1.56-0.99,2.37-1.41c0.16-0.08,0.33-0.16,0.49-0.25
				c0.79-0.36,0.66-0.32-0.4,0.14c0.24-0.29,1.2-0.44,1.54-0.54c0.43-0.13,0.87-0.24,1.3-0.34c1.63-0.36-0.22-0.12-0.25-0.03
				c0.06-0.22,2.49-0.06,2.7-0.06c1.88,0-1.82-0.44-0.19-0.04c0.29,0.07,0.59,0.12,0.88,0.2c0.44,0.11,0.85,0.26,1.29,0.38
				c1.39,0.39-1.62-0.84-0.25-0.13c0.66,0.34,1.3,0.67,1.93,1.07c0.31,0.2,0.6,0.44,0.92,0.63c0.9,0.52-1.52-1.33-0.37-0.27
				c1.22,1.13,2.24,2.57,3.48,3.65c-1.19-1.05-0.76-1.02-0.39-0.47c0.27,0.39,0.55,0.78,0.81,1.18c0.44,0.67,0.86,1.35,1.26,2.05
				c0.89,1.55,1.66,3.15,2.41,4.77c0.56,1.21-0.19-0.41-0.23-0.56c0.11,0.45,0.37,0.91,0.54,1.34c0.29,0.74,0.56,1.48,0.82,2.23
				c0.76,2.16,1.46,4.34,2.13,6.53c2.58,8.47,4.54,17.12,5.86,25.87c0.08,0.53,0.15,1.06,0.23,1.58c0.31,2.07-0.14-1.19,0.02,0.11
				c0.13,1.06,0.26,2.12,0.38,3.18c0.26,2.33,0.48,4.67,0.65,7.01c0.32,4.36,0.48,8.73,0.49,13.1c0,4.48-0.16,8.96-0.48,13.42
				c-0.15,2.01-0.32,4.01-0.55,6.01c-0.06,0.54-0.08,1.12-0.2,1.65c0.42-1.92,0.13-0.92,0.05-0.46c-0.19,1.09-0.36,2.19-0.58,3.28
				c-0.37,1.8-0.82,3.58-1.39,5.33c-0.25,0.77-0.46,1.89-0.94,2.55c0.12-0.3,0.25-0.6,0.37-0.9c-0.15,0.33-0.3,0.65-0.46,0.98
				c-0.24,0.48-0.49,0.96-0.75,1.43c-0.44,0.79-0.93,1.53-1.43,2.28c-1.02,1.54,1.18-1.25-0.08,0.11c-0.25,0.27-0.47,0.55-0.72,0.82
				c-0.61,0.66-1.28,1.26-1.94,1.87c-1.36,1.25,1.45-0.94-0.09,0.09c-0.45,0.3-0.88,0.62-1.34,0.9c-0.76,0.48-1.54,0.93-2.35,1.33
				c-0.4,0.2-0.82,0.38-1.22,0.58c-1.04,0.52,1.85-0.66,0.14-0.07c-1.89,0.66-3.78,1.26-5.75,1.66c-0.44,0.09-0.89,0.17-1.34,0.25
				c-0.09,0.01-0.18,0.03-0.27,0.04c-0.9,0.13-0.71,0.11,0.56-0.06c-0.69-0.12-1.8,0.19-2.51,0.24c-1.82,0.12-3.65,0.14-5.47,0.06
				c-0.82-0.04-1.64-0.09-2.46-0.17c-0.33-0.03-0.65-0.06-0.98-0.1c-0.16-0.02-0.33-0.04-0.49-0.06c-0.87-0.11-0.65-0.08,0.64,0.09
				c-1.61-0.61-3.66-0.63-5.35-1.03c-3.42-0.81-6.78-1.88-10.09-3.09c-1.6-0.59-3.19-1.21-4.77-1.86c0.04,0.02-0.94-0.34-0.95-0.39
				c0.31,0.13,0.63,0.27,0.94,0.4c-0.32-0.13-0.63-0.27-0.95-0.41c-0.95-0.41-1.9-0.83-2.85-1.25c-3.26-1.45-6.5-2.97-9.74-4.46
				c-7-3.23-14.06-6.43-21.38-8.86c-14.36-4.77-29.91-5.68-44.14,0.06c-14.84,5.99-26.94,17.19-32.19,32.53
				c-2.86,8.36-3.38,17.56-2.53,26.3c0.86,8.79,2.67,17.51,5.19,25.96c2.57,8.62,6.21,16.77,11.94,23.75
				c5.15,6.28,12.97,11.3,21.03,12.75c4.61,0.82,9.27,0.89,13.81-0.41c4.07-1.16,7.79-3.25,11.14-5.79c3.41-2.58,6.6-5.43,9.92-8.11
				c1.12-0.9-0.25,0.13-0.32,0.25c0.21-0.34,0.98-0.72,1.3-0.94c0.64-0.44,1.29-0.87,1.97-1.26c0.62-0.35,1.33-0.59,1.92-0.97
				c-1.51,0.95-1.29,0.51-0.68,0.3c0.56-0.19,1.1-0.39,1.67-0.55c0.7-0.2,1.41-0.37,2.13-0.51c0.28-0.05,0.58-0.08,0.86-0.14
				c-2.27,0.55-1.1,0.15-0.39,0.11c0.7-0.04,1.41-0.04,2.11,0c0.26,0.02,0.56,0.08,0.82,0.07c-2.34,0.07-0.99-0.15-0.12,0.07
				c0.26,0.07,0.51,0.14,0.76,0.22c0.99,0.32,0.83,0.8-0.45-0.22c0.17,0.14,0.5,0.25,0.68,0.36c0.76,0.44,0.95,1.06-0.34-0.37
				c0.39,0.44,0.91,1,1.37,1.37c-0.15-0.12-1.04-1.65-0.55-0.62c0.14,0.23,0.28,0.48,0.4,0.72c-0.35-0.91-0.43-1.08-0.24-0.53
				c0.06,0.29,0.51,1.16,0.37,1.42c-0.04-0.31-0.07-0.63-0.11-0.94c0.04,0.39,0.07,0.79,0.08,1.18c0.03,1-0.06,1.99-0.12,2.99
				c-0.03,0.46,0.06,1.47,0.06-0.33c0,0.5-0.16,1.07-0.24,1.57c-0.16,0.97-0.33,1.95-0.51,2.91c-0.69,3.7-1.52,7.38-2.23,11.08
				c-1.59,8.26-2.78,16.71-0.94,25.04c1.75,7.93,7.04,15.32,14.3,19.08c14.49,7.5,32.12,2.86,43.52-8
				c12.23-11.65,18.08-28.69,23.67-44.18c3.1-8.58,5.91-17.27,8.44-26.04c2.45-8.51,4.66-17.11,7.64-25.46
				c0.69-1.94,1.3-4.07,2.26-5.89c-0.91,1.72,0.06-0.12,0.2-0.43c0.17-0.39,0.34-0.77,0.52-1.15c0.47-1.03,0.97-2.06,1.48-3.08
				c1.7-3.37,3.64-6.62,5.83-9.7c0.26-0.37,0.53-0.73,0.79-1.09c0.44-0.59,0.52-1.36-0.09,0.11c0.29-0.68,1.23-1.51,1.71-2.07
				c1.28-1.48,2.64-2.9,4.07-4.23c0.65-0.6,1.31-1.19,1.99-1.76c0.27-0.23,0.55-0.45,0.82-0.67c1.43-1.19-1.43,1.02,0.08-0.05
				c1.6-1.13,3.22-2.2,4.94-3.13c0.8-0.44,1.62-0.85,2.45-1.23c0.31-0.14,0.7-0.37,1.03-0.46c-2,0.57-0.23,0.11,0.2-0.05
				c1.93-0.73,3.91-1.34,5.91-1.86c3.86-1.01,7.79-1.69,11.72-2.29c7.76-1.2,15.64-2.09,23.11-4.61c7.7-2.6,14.68-6.69,20.45-12.44
				c5.13-5.11,9.26-11.3,12.36-17.82c3.23-6.81,5.68-13.95,7.46-21.27c1.86-7.61,2.89-15.36,4.22-23.08
				c0.76-4.39,1.63-8.78,2.87-13.06c0.57-1.97,1.21-3.92,1.95-5.83c0.13-0.32,0.29-0.65,0.39-0.98c-0.64,2.05-0.17,0.42,0.04-0.05
				c0.44-0.96,0.91-1.92,1.41-2.85c0.83-1.56,1.75-3.07,2.75-4.52c0.2-0.29,0.41-0.57,0.61-0.86c1.06-1.51-1.15,1.34,0.04-0.07
				c0.62-0.73,1.23-1.47,1.89-2.17c0.6-0.63,1.21-1.25,1.85-1.83c0.32-0.29,0.64-0.58,0.98-0.86c0.15-0.13,1.51-1.04,0.41-0.36
				c-1.12,0.7,0.32-0.21,0.46-0.3c0.43-0.3,0.86-0.58,1.31-0.86c0.81-0.5,1.64-0.96,2.49-1.38c0.33-0.16,0.72-0.28,1.03-0.48
				c-1.64,1.02-1.11,0.43-0.43,0.21c0.71-0.23,1.41-0.48,2.13-0.68c0.72-0.2,1.44-0.36,2.17-0.5c0.36-0.07,0.74-0.09,1.09-0.19
				c-2.26,0.59-1.03,0.14-0.34,0.08c1.48-0.13,2.96-0.14,4.44-0.05c0.45,0.03,0.89,0.08,1.33,0.11c1.6,0.13-1.62-0.31-0.55-0.08
				c0.8,0.17,1.62,0.28,2.43,0.47c1.47,0.34,2.92,0.77,4.33,1.3c0.42,0.16,0.84,0.36,1.27,0.5c-1.91-0.6-1.13-0.49-0.64-0.25
				c0.82,0.4,1.64,0.79,2.44,1.23c1.34,0.74,2.62,1.55,3.86,2.45c0.47,0.34,1.49,1.4-0.15-0.13c0.22,0.2,0.48,0.39,0.71,0.58
				c0.7,0.59,1.38,1.21,2.03,1.85c0.54,0.53,1.07,1.09,1.58,1.65c0.3,0.34,0.59,0.69,0.89,1.04c0.38,0.44,0.53,1.05-0.39-0.53
				c0.84,1.44,1.91,2.73,2.71,4.21c0.37,0.69,0.7,1.39,1.03,2.1c0.75,1.59-0.48-1.3-0.1-0.22c0.14,0.41,0.31,0.8,0.45,1.21
				c0.62,1.77,1.11,3.6,1.46,5.44c0.08,0.42,0.14,0.84,0.22,1.26c0.21,1.14-0.2-2.08-0.05-0.33c0.08,0.85,0.16,1.7,0.2,2.55
				c0.09,1.88,0.06,3.77-0.1,5.65c-0.03,0.34-0.06,0.69-0.1,1.03c-0.06,0.6-0.53,2.11,0.02-0.06c-0.21,0.83-0.28,1.71-0.46,2.55
				c-0.39,1.87-0.89,3.71-1.49,5.52c-0.28,0.83-0.59,1.64-0.89,2.45c-0.5,1.37,0.21-0.35,0.2-0.44c0.01,0.36-0.49,1.11-0.64,1.43
				c-0.81,1.74-1.72,3.43-2.72,5.07c-0.45,0.74-0.93,1.47-1.42,2.19c-0.36,0.52-2.13,2.61-0.61,0.92c-1.32,1.48-2.53,3.02-3.93,4.44
				c-2.7,2.74-5.64,5.24-8.65,7.62c-0.37,0.29-0.74,0.58-1.11,0.87c-1.47,1.16,0.99-0.76,0.04-0.03c-0.82,0.63-1.65,1.26-2.47,1.89
				c-1.96,1.49-3.92,2.99-5.87,4.51c-6.46,5.03-12.31,10.48-17.02,17.22c-4.33,6.2-7.41,13.41-9.28,20.72
				c-3.87,15.16-2.95,31.41,1.03,46.45c2.05,7.75,5.33,15,8.18,22.47c1.48,3.88,2.8,7.84,3.56,11.92c0.09,0.46,0.28,1.02,0.26,1.49
				c0.08-1.81-0.08-0.59-0.02-0.01c0.1,1.01,0.17,2.02,0.18,3.03c0.01,0.76-0.02,1.53-0.08,2.29c-0.02,0.3-0.08,0.62-0.09,0.92
				c0.07-2.41,0.1-0.72-0.02-0.05c-0.28,1.52-0.69,3.02-1.21,4.47c-0.13,0.35-0.32,0.72-0.41,1.08c0.48-1.87,0.45-1.05,0.14-0.42
				c-0.36,0.75-0.76,1.49-1.2,2.2c-0.24,0.38-0.5,0.75-0.74,1.13c-0.67,1.07,0.33-0.43,0.44-0.53c-0.59,0.53-1.05,1.25-1.62,1.81
				c-0.27,0.27-2.11,1.86-1,0.96c1.08-0.89-0.04,0-0.26,0.14c-0.36,0.24-0.73,0.46-1.11,0.67c-0.37,0.2-0.81,0.35-1.17,0.57
				c1.5-0.96,1.3-0.5,0.67-0.32c-0.71,0.2-1.42,0.39-2.14,0.57c-1.61,0.4,1.94-0.14,0.23-0.03c-0.31,0.02-0.62,0.05-0.93,0.06
				c-0.89,0.04-1.77-0.01-2.67-0.05c-1.62-0.07,1.98,0.4,0.41,0.06c-0.27-0.06-0.55-0.1-0.82-0.16c-0.67-0.15-1.34-0.33-2-0.53
				c-0.65-0.21-1.28-0.5-1.93-0.7c2.54,0.78,0-0.04-0.71-0.4c-5.77-2.94-10.91-6.75-17.07-8.94c-7.45-2.65-15.83-2.27-22.78,1.57
				c-6.95,3.83-11.62,10.55-14.58,17.73c-1.33,3.23-2.12,6.51-2.58,9.96c-0.53,3.96-0.37,7.9-0.43,11.89
				c-0.03,1.79-0.09,3.59-0.23,5.38c-0.07,0.86-0.16,1.72-0.25,2.57c-0.11,1.17,0.34-2.07,0.04-0.32c-0.09,0.51-0.16,1.02-0.25,1.54
				c-0.34,1.87-0.78,3.71-1.31,5.54c-0.27,0.94-0.57,1.88-0.89,2.81c-0.17,0.49-0.34,0.98-0.52,1.46c-0.12,0.34-0.25,0.68-0.39,1.02
				c0.15-0.35,0.3-0.7,0.45-1.06c-0.44,0.52-0.67,1.4-1.02,2c-0.37,0.64-0.8,1.25-1.21,1.87c-0.9,1.35,1.24-1.41,0.15-0.21
				c-0.2,0.22-0.39,0.45-0.58,0.67c-0.6,0.66-1.23,1.28-1.9,1.87c-0.32,0.28-0.74,0.54-1.02,0.86c1.11-1.23,1.08-0.79,0.53-0.43
				c-0.62,0.42-1.23,0.85-1.88,1.24c-0.65,0.39-1.31,0.76-1.98,1.1c-0.41,0.21-0.82,0.39-1.23,0.59c-1.5,0.71,1.77-0.64,0.2-0.1
				c-1.46,0.51-2.9,0.99-4.41,1.34c-0.75,0.18-1.51,0.31-2.28,0.45c-1.69,0.3,1.98-0.17,0.27-0.03c-0.46,0.04-0.92,0.09-1.39,0.12
				c-1.54,0.1-3.09,0.11-4.63,0c-0.46-0.03-0.92-0.08-1.38-0.12c-0.68-0.06-0.95-0.43,0.74,0.1c-0.83-0.26-1.81-0.32-2.66-0.5
				c-3.23-0.65-6.46-1.36-9.61-2.35c-0.76-0.24-1.52-0.49-2.26-0.76c-0.37-0.14-0.74-0.29-1.11-0.42c-1.04-0.38,1.86,0.86,0.37,0.16
				c-1.52-0.71-3.01-1.46-4.4-2.41c-0.2-0.13-0.49-0.41-0.72-0.51c1.61,0.72,0.91,0.73,0.24,0.14c-0.54-0.48-1.02-1.01-1.53-1.53
				c-0.86-0.87,0.37,0.46,0.43,0.6c-0.15-0.36-0.52-0.73-0.72-1.07c-0.48-0.78-0.84-1.61-1.23-2.43c-0.57-1.21,0.23,0.43,0.23,0.56
				c-0.01-0.38-0.4-1.01-0.53-1.37c-0.29-0.78-0.55-1.57-0.79-2.37c-0.24-0.81-0.46-1.62-0.65-2.44c-0.2-0.86-0.16-2.25-0.57-2.98
				c0.08,0.14,0.19,1.99,0.1,0.61c-0.04-0.5-0.09-0.99-0.12-1.49c-0.04-0.82-0.05-1.64-0.02-2.46c0.01-0.32,0.03-0.65,0.05-0.97
				c0.01-0.16,0.03-0.32,0.04-0.48c0.1-0.87,0.06-0.64-0.1,0.68c0.38-0.75,0.38-1.92,0.64-2.74c0.09-0.28,0.24-0.59,0.3-0.87
				c-0.38,1.86-0.44,0.95-0.06,0.21c0.29-0.57,1.09-1.36,1.2-1.95c-0.04,0.19-1.27,1.42-0.36,0.52c0.31-0.31,0.6-0.64,0.92-0.94
				c0.21-0.2,0.44-0.38,0.65-0.58c1.08-0.99-1.63,1.01-0.03,0.06c0.63-0.37,1.24-0.78,1.89-1.12c0.33-0.17,0.66-0.33,0.99-0.49
				c1.4-0.72-1.47,0.52-0.46,0.17c1.58-0.54,3.12-1.12,4.74-1.55c2.91-0.78,5.87-1.32,8.81-1.98c6.7-1.49,12.81-4.73,18.43-8.61
				c6.42-4.44,12.31-9.75,16.48-16.42c4.42-7.07,5.93-15.14,4.42-23.31c-0.76-4.09-5.92-6.77-9.75-5.54
				c-4.37,1.42-6.35,5.37-5.54,9.75c0.03,0.16,0.06,0.33,0.09,0.49c0.14,0.87,0.11,0.65-0.08-0.65c-0.09,0.3,0.07,0.87,0.09,1.2
				c0.04,0.79,0.03,1.58-0.02,2.37c-0.02,0.37-0.13,0.8-0.1,1.17c-0.13-1.99,0.16-1.1-0.01-0.27c-0.17,0.84-0.39,1.66-0.65,2.48
				c-0.12,0.37-0.26,0.73-0.38,1.1c-0.54,1.61,0.83-1.68,0.07-0.15c-0.35,0.71-0.69,1.43-1.08,2.12c-0.4,0.7-0.82,1.39-1.27,2.06
				c-0.18,0.27-0.37,0.54-0.55,0.81c-0.19,0.27-0.38,0.53-0.58,0.8c0.74-0.95,0.85-1.09,0.32-0.43c-2.31,2.77-4.89,5.22-7.69,7.49
				c-1.37,1.11,1.09-0.79,0.15-0.12c-0.36,0.25-0.7,0.52-1.06,0.77c-0.71,0.51-1.43,1-2.16,1.48c-1.59,1.05-3.23,2.03-4.9,2.95
				c-1.42,0.78-2.94,1.42-4.35,2.21c2.41-1.35,0.67-0.3-0.17-0.04c-0.65,0.21-1.31,0.39-1.98,0.55c-3.05,0.77-6.16,1.3-9.22,2.04
				c-7.73,1.87-15.02,5.23-19.62,11.97c-4.81,7.04-4.65,16.57-2.74,24.53c0.92,3.83,2.34,7.79,4.29,11.21
				c2.05,3.59,5.15,6.45,8.59,8.69c5.93,3.86,13.13,5.64,19.98,7.04c7.64,1.56,15.36,1.73,22.88-0.67
				c7.66-2.45,14.21-6.93,18.92-13.48c2.36-3.28,3.75-7.23,4.93-11.06c1.28-4.18,2.01-8.47,2.44-12.82
				c0.4-3.97,0.41-7.97,0.38-11.95c-0.01-1.64,0.04-3.26,0.17-4.9c0.13-1.63-0.27,1.61-0.07,0.51c0.07-0.38,0.12-0.76,0.2-1.14
				c0.17-0.91,0.38-1.82,0.63-2.71c0.2-0.75,0.43-1.49,0.69-2.22c0.15-0.44,0.32-0.87,0.48-1.31c0.24-0.64,0.63-0.69-0.27,0.61
				c0.93-1.35,1.47-3.04,2.38-4.43c0.24-0.38,0.51-0.74,0.76-1.12c0.7-1.06-0.34,0.44-0.44,0.53c0.52-0.51,0.94-1.15,1.44-1.68
				c0.55-0.58,1.12-1.14,1.72-1.67c0.27-0.23,0.58-0.44,0.83-0.69c-1.51,1.55-0.79,0.61-0.22,0.23c0.65-0.43,1.32-0.83,2.01-1.18
				c0.31-0.16,0.66-0.28,0.95-0.45c-1.87,1.1-1,0.42-0.31,0.19c0.68-0.22,1.37-0.37,2.06-0.54c0.62-0.15,1.17,0.09-0.83,0.08
				c0.58,0,1.17-0.11,1.76-0.12c0.79-0.01,1.58,0.05,2.37,0.09c0.65,0.03,1.06,0.41-0.72-0.12c0.42,0.13,0.91,0.15,1.34,0.24
				c1.59,0.33,3.05,0.97,4.6,1.42c-2.37-0.68-0.26-0.09,0.44,0.25c0.63,0.31,1.26,0.64,1.88,0.98c1.35,0.74,2.68,1.54,4,2.34
				c2.48,1.5,4.95,3.01,7.6,4.19c7.92,3.53,16.42,4.24,24.42,0.44c7.11-3.38,11.88-10.7,14.19-17.99
				c2.61-8.28,1.64-17.17-0.85-25.34c-2.44-8.01-6.25-15.52-8.81-23.5c-1.12-3.5-2.05-7.06-2.79-10.66
				c-0.35-1.72-0.63-3.45-0.91-5.19c-0.3-1.85,0.22,1.88,0,0.02c-0.04-0.35-0.09-0.7-0.12-1.04c-0.12-1.04-0.22-2.09-0.3-3.14
				c-0.3-3.73-0.36-7.48-0.16-11.21c0.05-0.95,0.12-1.89,0.2-2.84c0.07-0.73,0.44-1.87,0.27-2.56c0.24,0.99-0.22,1.48-0.08,0.58
				c0.08-0.51,0.15-1.01,0.24-1.52c0.17-1.01,0.36-2.01,0.58-3.01c0.75-3.49,1.82-6.85,3.08-10.18c0.61-1.62-0.59,1.3-0.12,0.26
				c0.17-0.38,0.34-0.77,0.52-1.15c0.35-0.76,0.72-1.52,1.11-2.27c0.85-1.65,1.79-3.25,2.81-4.81c0.47-0.71,0.95-1.41,1.45-2.1
				c0.31-0.43,1.46-1.57,0-0.03c0.23-0.24,0.43-0.54,0.65-0.8c1.29-1.57,2.67-3.06,4.12-4.48c2.92-2.87,6.08-5.66,9.41-8.04
				c-0.18,0.13-1.38,1.06-0.26,0.2c0.45-0.34,0.9-0.69,1.35-1.03c0.75-0.57,1.5-1.14,2.25-1.71c2.04-1.55,4.07-3.11,6.07-4.7
				c3.08-2.45,6.09-5.01,8.83-7.85c5.94-6.15,10.35-13.4,13.26-21.42c5.62-15.49,3.81-33.26-6.49-46.32
				c-9.37-11.89-25.2-17.91-40.05-15.46c-17.13,2.83-28.1,18.84-32.85,34.34c-2.61,8.51-3.67,17.37-5.15,26.12
				c-1.2,7.08-2.78,14.11-5.08,20.92c-0.53,1.58-1.1,3.15-1.72,4.7c-0.15,0.39-0.31,0.77-0.47,1.15c-0.42,1.05,0.82-1.85,0.12-0.29
				c-0.41,0.9-0.81,1.8-1.24,2.69c-1.48,3.06-3.17,6.03-5.11,8.82c-0.44,0.64-1.04,1.26-1.41,1.94c0.98-1.79,0.48-0.62,0.05-0.11
				c-0.25,0.31-0.51,0.61-0.77,0.91c-1.14,1.32-2.35,2.58-3.63,3.76c-0.58,0.54-1.18,1.06-1.79,1.57c-0.3,0.24-0.67,0.47-0.93,0.75
				c1.37-1.48,0.63-0.49,0.07-0.09c-1.45,1.03-2.96,1.97-4.53,2.81c-0.83,0.44-1.68,0.84-2.53,1.24c-1.31,0.62,0.19-0.03,0.34-0.13
				c-0.42,0.28-1.1,0.43-1.57,0.61c-1.94,0.71-3.91,1.3-5.91,1.81c-3.86,0.98-7.79,1.64-11.72,2.25
				c-7.95,1.22-16.03,2.15-23.64,4.88c-16.07,5.77-27.83,18.64-35.04,33.84c-7.99,16.85-11.6,35.36-17.41,52.99
				c-2.88,8.73-6.01,17.4-9.52,25.9c-0.14,0.34-0.29,0.67-0.42,1.01c0.81-2.03,0.1-0.26-0.07,0.13c-0.37,0.84-0.74,1.68-1.12,2.51
				c-0.84,1.83-1.73,3.64-2.68,5.41c-0.86,1.6-1.76,3.18-2.73,4.72c-0.48,0.76-0.98,1.52-1.49,2.26c-0.31,0.44-0.62,0.88-0.94,1.32
				c-0.11,0.14-0.21,0.29-0.32,0.43c-0.52,0.68-0.43,0.57,0.25-0.33c-0.24,0.69-1.23,1.49-1.73,2.05c-0.59,0.67-1.21,1.32-1.84,1.95
				c-0.63,0.63-1.28,1.25-1.96,1.84c-0.4,0.36-0.82,0.7-1.23,1.04c-1.42,1.2,1.42-0.98-0.11,0.08c-1.33,0.92-2.67,1.77-4.12,2.5
				c-0.34,0.17-0.7,0.33-1.04,0.5c-1.46,0.72,1.42-0.54,0.4-0.16c-0.87,0.32-1.74,0.65-2.63,0.92c-1.57,0.47-3.18,0.63-4.75,1.05
				c0.12-0.03,2.05-0.2,0.73-0.12c-0.46,0.03-0.92,0.08-1.37,0.1c-0.91,0.05-1.82,0.06-2.74,0.02c-0.75-0.03-1.5-0.17-2.25-0.18
				c2.5,0.04,0.29,0.01-0.53-0.18c-0.72-0.16-1.43-0.36-2.13-0.59c-0.34-0.11-0.69-0.28-1.04-0.37c-0.57-0.22-0.28-0.09,0.88,0.38
				c-0.27-0.12-0.53-0.24-0.79-0.37c-0.65-0.32-1.29-0.68-1.91-1.07c-0.3-0.19-0.59-0.44-0.91-0.61c-0.9-0.48,1.53,1.33,0.38,0.3
				c-0.55-0.5-1.11-0.98-1.62-1.52c-0.12-0.12-0.76-1.01-0.9-1.02c0.2,0.26,0.4,0.52,0.6,0.78c-0.2-0.27-0.4-0.55-0.59-0.84
				c-0.47-0.7-0.89-1.42-1.28-2.17c-0.28-0.55-0.63-1.95-0.02,0.1c-0.09-0.31-0.24-0.61-0.35-0.92c-0.27-0.77-0.5-1.56-0.7-2.35
				c-0.12-0.48-0.22-0.96-0.31-1.45c-0.06-0.33-0.11-0.65-0.16-0.98c0.05,0.37,0.1,0.74,0.15,1.12c0.22-0.56-0.16-1.87-0.19-2.52
				c-0.04-0.94-0.04-1.89-0.01-2.83c0.03-0.96,0.09-1.92,0.17-2.88c0.03-0.35,0.06-0.71,0.1-1.06c0.02-0.24,0.29-2.47,0.12-1.08
				c-0.18,1.4,0.06-0.39,0.09-0.56c0.08-0.54,0.17-1.08,0.26-1.62c0.15-0.9,0.32-1.81,0.49-2.71c0.38-1.99,0.79-3.98,1.2-5.97
				c1.79-8.64,4.88-19.18-0.36-27.2c-5-7.65-14.2-9.4-22.66-7.73c-8.08,1.59-14.06,7.11-20.16,12.22c-0.57,0.48-1.39,1.42-2.08,1.7
				c0.25-0.19,0.51-0.39,0.76-0.58c-0.28,0.22-0.57,0.43-0.85,0.64c-0.29,0.21-0.57,0.41-0.87,0.62c-0.72,0.5-1.46,0.98-2.22,1.42
				c-0.45,0.27-0.92,0.52-1.39,0.76c-0.23,0.12-0.47,0.24-0.71,0.35c-0.54,0.25-0.31,0.16,0.68-0.27c-0.23,0.43-2,0.69-2.5,0.82
				c-0.5,0.13-1,0.22-1.5,0.33c-1.43,0.31,0.51-0.16,0.59-0.07c-0.21-0.21-2.39,0.1-2.79,0.09c-0.42-0.01-0.85-0.06-1.27-0.08
				c-1.69-0.08,1.62,0.35,0.08,0.01c-0.92-0.2-1.84-0.39-2.75-0.66c-0.41-0.12-0.82-0.26-1.23-0.4c-0.16-0.06-0.33-0.12-0.49-0.18
				c-0.8-0.31-0.65-0.24,0.45,0.21c-0.31,0.16-2.04-0.98-2.35-1.15c-0.92-0.5-1.82-1.06-2.68-1.65c-0.26-0.18-0.58-0.49-0.86-0.61
				c0.26,0.2,0.51,0.4,0.77,0.6c-0.27-0.22-0.55-0.44-0.81-0.67c-0.67-0.56-1.31-1.16-1.93-1.78c-0.62-0.63-1.22-1.28-1.79-1.95
				c-0.07-0.08-1.24-1.54-0.45-0.52c0.76,0.97-0.59-0.84-0.71-1.02c-1.06-1.55-2.02-3.17-2.89-4.84c-0.44-0.84-0.85-1.69-1.24-2.54
				c-0.18-0.39-1.1-2.05-0.11-0.19c-0.26-0.49-0.43-1.07-0.63-1.59c-1.44-3.73-2.56-7.58-3.56-11.45c-1.09-4.23-2.04-8.5-2.74-12.81
				c-0.08-0.51-0.15-1.01-0.24-1.52c-0.32-2,0.13,1.25-0.01-0.02c-0.12-1.12-0.26-2.23-0.36-3.35c-0.19-2.23-0.3-4.46-0.28-6.69
				c0.01-2.01,0.11-4.03,0.32-6.03c0.04-0.39,0.07-0.81,0.14-1.19c-0.38,2.15,0.01,0.12,0.08-0.27c0.21-1.18,0.46-2.36,0.76-3.52
				c0.15-0.6,1.42-5.67,1.84-5.63c-0.14,0.33-0.28,0.66-0.42,1c0.13-0.3,0.26-0.59,0.4-0.89c0.14-0.29,0.27-0.58,0.42-0.87
				c0.43-0.87,0.88-1.72,1.37-2.55c0.4-0.69,0.83-1.37,1.27-2.04c0.37-0.55,1.22-1.33,1.39-1.97c-0.22,0.28-0.44,0.56-0.65,0.84
				c0.2-0.25,0.4-0.5,0.6-0.75c0.2-0.25,0.41-0.49,0.62-0.74c0.63-0.73,1.28-1.44,1.95-2.13c1.18-1.21,2.43-2.35,3.73-3.43
				c0.29-0.24,0.7-0.47,0.94-0.76c-1.23,1.44-0.66,0.51-0.05,0.07c0.72-0.52,1.46-1.02,2.21-1.5c1.44-0.92,2.92-1.77,4.44-2.55
				c0.73-0.37,1.46-0.72,2.2-1.06c0.25-0.11,0.65-0.23,0.9-0.39c-1.14,0.48-1.32,0.56-0.54,0.24c0.3-0.12,0.61-0.24,0.91-0.35
				c3.21-1.2,6.54-2.09,9.92-2.64c0.21-0.03,1.84-0.29,0.4-0.07c-1.44,0.22,0.18-0.01,0.4-0.03c0.81-0.08,1.62-0.15,2.44-0.19
				c1.79-0.1,3.58-0.09,5.37,0.01c0.84,0.05,1.68,0.12,2.52,0.21c0.51,0.05,2.28,0.36-0.08-0.04c0.33,0.06,0.67,0.1,1.01,0.15
				c1.84,0.29,3.68,0.66,5.49,1.1c3.58,0.86,7.09,1.99,10.54,3.27c1.7,0.63,3.39,1.31,5.07,2c1.29,0.53-0.3-0.17-0.45-0.19
				c0.46,0.09,1.01,0.43,1.44,0.62c0.96,0.42,1.92,0.84,2.87,1.27c13.59,6.08,27.17,13.58,42.06,15.9c8.12,1.27,16.46,1.36,24.41-1
				c8.85-2.62,16.71-8.14,21.2-16.32c4.33-7.9,5.58-16.87,6.32-25.72c0.75-8.92,0.83-17.91,0.26-26.84
				c-0.62-9.63-1.94-19.26-3.97-28.7c-1.78-8.28-3.97-16.65-7.16-24.5c-3.14-7.73-7.23-14.96-14.08-19.99
				c-7.68-5.65-17.46-5.63-25.82-1.55c-8.25,4.03-13.67,11.87-18.31,19.48c-1.14,1.87-2.27,3.76-3.46,5.6
				c-0.5,0.78-1.02,1.56-1.56,2.32c-0.19,0.26-0.5,0.59-0.63,0.87c0.7-0.89,0.78-1,0.24-0.33c-0.23,0.28-0.46,0.55-0.7,0.82
				c-0.59,0.67-1.21,1.32-1.86,1.92c-0.19,0.18-0.69,0.5-0.79,0.7c0.26-0.2,0.52-0.39,0.78-0.59c-0.28,0.21-0.56,0.41-0.85,0.6
				c-0.29,0.19-0.58,0.37-0.89,0.54c-0.15,0.08-0.3,0.16-0.45,0.25c-0.77,0.37-0.61,0.32,0.48-0.16c0.01,0.07-1.1,0.37-1.24,0.4
				c-0.25,0.07-0.51,0.13-0.77,0.19c-0.87,0.15-0.65,0.13,0.64-0.08c-0.27-0.05-0.68,0.04-0.97,0.03c-0.16,0-0.32-0.01-0.48-0.01
				c-0.87-0.07-0.64-0.03,0.67,0.13c-0.5-0.31-1.73-0.43-2.32-0.61c-1.57-0.47,1.26,0.68,0.33,0.13c-0.35-0.21-0.73-0.38-1.08-0.58
				c-0.1-0.06-1.22-0.83-1.24-0.81c0.15-0.11,1.49,1.28,0.04-0.02c-0.63-0.57-1.2-1.19-1.77-1.81c-1.2-1.31,0.94,1.49-0.01-0.01
				c-0.18-0.29-0.38-0.56-0.57-0.85c-0.46-0.72-0.83-1.47-1.22-2.23c-0.81-1.56,0.54,1.71,0.04,0.03c-0.18-0.59-0.38-1.17-0.54-1.76
				c-0.22-0.81-0.78-2.14-0.64-2.99c0.04,0.3,0.07,0.6,0.11,0.9c-0.05-0.41-0.09-0.81-0.13-1.22c-0.05-0.51-0.08-1.02-0.11-1.53
				c-0.12-2.27-0.06-4.54,0.07-6.81c0.26-4.36,0.84-8.7,1.03-13.07c0.41-9.69-1.45-19.11-7.74-26.72
				c-5.25-6.35-13.28-10.51-21.17-12.52c-14.39-3.66-30.33-0.78-42.77,7.25c-13.57,8.76-22.95,23.44-23.99,39.7
				c-0.51,7.87,1.61,15.88,5.49,22.71c3.91,6.88,9.51,12.1,15.58,17.02c5.53,4.49,10.92,9.2,15.67,14.52
				c0.59,0.66,1.17,1.34,1.74,2.02c0.22,0.27,0.44,0.55,0.67,0.82c1.19,1.41-1.03-1.43,0.05,0.05c1,1.37,1.97,2.75,2.85,4.2
				c0.42,0.7,0.82,1.41,1.19,2.13c0.22,0.42,0.42,0.86,0.63,1.28c0.59,1.17-0.21-0.46-0.24-0.61c0.28,1.58,1.1,3.12,1.4,4.73
				c0.78,4.08,5.9,6.78,9.75,5.54C415.55,252.5,417.56,248.53,416.73,244.16L416.73,244.16z"/>
		</g>
		<g>
			<path class="st2" d="M460.41,322.63v-53.35c0-9.26-4.04-17.2-12.32-17.2c-6.94,0-13.09,3.46-21.56,9.24v61.31
				c0,14.46,11.86,9.26,13.32,12.67h-50.91c1.46-3.41,13.32,1.79,13.32-12.67v-90.94c0-0.19,0-0.35-0.02-0.51
				c-0.05-2-0.3-3.46-0.6-4.45c-0.42-1.32-1.42-2.92-2.97-4.8l-6.96-8.26c1.56-0.67,3.41-1.53,5.5-2.58
				c1.53-0.79,3.23-1.67,5.04-2.64c0.56-0.3,1.14-0.63,1.74-0.95c5.08-2.78,12.6-7.1,22.56-12.93v65.67
				c14.25-8.86,22.9-14.06,36.02-14.06c12.11,0,22.14,6.94,22.14,21.95v54.51c0,14.46,11.86,9.26,13.32,12.67h-50.91
				C448.55,331.88,460.41,337.08,460.41,322.63z"/>
		</g>
		<g>
			<path class="st2" d="M568.37,273.47c-0.15,0.18-0.24,0.27-0.24,0.27c16.42,6.53,24.51,18.1,24.51,31.97
				c0,19.56-15.67,31.85-41.83,35.95h-0.03c-0.6,0.12-1.17,0.21-1.77,0.27c-0.96,0.12-1.95,0.24-2.97,0.36
				c-0.45,0.06-0.87,0.09-1.29,0.12c-10.16,0.78-19.71-0.72-26.73-2.4c-0.21-0.03-0.39-0.09-0.6-0.15c-0.81-0.21-1.59-0.39-2.34-0.6
				c-1.83-0.45-3.57-0.96-5.18-1.53c-1.11-0.39-1.95-0.69-2.49-0.9c-0.27-0.12-0.45-0.18-0.54-0.21c-0.03,0-0.06-0.03-0.09-0.06
				h-0.03c-0.96-0.42-1.89-0.87-2.79-1.32c-0.54,0.33-1.05,0.69-1.53,1.08c-2.91,2.43-4.49,5.57-4.64,9.11
				c-0.18,4.02,1.29,7.58,4.28,10.25c2.85,2.49,6.59,3.87,11.15,4.07c3.98,0.15,10.58-1.35,20.22-4.64l1.17-0.39
				c7.31-2.49,13.21-4.13,17.62-4.94c4.28-0.81,8.48-1.14,12.46-0.96c10.34,0.42,18.31,3.71,24.39,10.07
				c6.02,6.29,8.75,14.08,8.33,23.82c-0.54,12.61-6.14,22.26-17.23,29.48c-8.72,5.69-19.8,8.96-33.02,9.8
				c-0.06,0-0.12-0.06-0.12-0.15c0-0.06,0.06-0.12,0.12-0.12c5.51-0.63,10.34-2.07,14.35-4.19c7.31-3.83,11.15-11.3,11.45-18.28
				c0.18-4.43-1.41-8.33-4.52-11.2c-3.09-2.79-7.16-4.28-12.16-4.49c-1.89-0.09-5.93,0.15-18.99,3.24
				c-9.02,2.16-16.84,3.09-23.1,2.82c-1.65-0.06-3.42-0.3-5.24-0.75c-0.51-0.09-0.96-0.21-1.44-0.33c-1.41-0.36-2.82-0.81-4.19-1.35
				c-0.06,0-0.09-0.03-0.12-0.03c-2.31-0.96-4.31-2.1-5.93-3.15l-2.67-2.01c-0.42-0.3-0.87-0.63-1.26-0.99
				c-0.24-0.21-0.48-0.39-0.72-0.63c-0.15-0.12-0.24-0.21-0.3-0.27l-0.03-0.03c-2.31-2.13-4.05-4.61-5.36-7.49
				c-1.71-3.74-2.46-7.97-2.28-12.58c0.27-6.47,2.13-11.77,5.78-16.12c3.12-3.74,7.55-6.71,13.09-8.9
				c-11.2-6.02-15.82-15.76-15.82-28.04c0-20.64,17.38-38.53,52.19-38.53h4.49c8.69,0.78,16.21,2.46,22.53,4.85
				c9.41-19.32,20.04-26.16,30.53-24.69v22.26c-10.85-5.54-18.76-3.93-23.61-1.44C571.85,270.15,569.87,271.47,568.37,273.47z
				 M558.33,305.56c0-29.51-8.48-36.04-18.67-36.04s-19.15,6.53-19.15,36.04c0,29.45,8.96,36.01,19.15,36.01
				C549.85,341.58,558.33,335.01,558.33,305.56z"/>
		</g>
		<g>
			<path class="st2" d="M697.07,259.58c0,25.92-20.48,48.73-50.67,48.73c-7.21,0-12.47-1.17-19.3-3.12v25.2
				c0,13.88,12.68,9.84,15.45,12.37H587.1c2.77-2.54,15.45,1.5,15.45-12.37v-75.59c0-0.35-0.02-0.7-0.05-1.03
				c-0.05-2.02-0.31-3.5-0.61-4.51c-0.42-1.34-1.43-2.96-3.01-4.86l-7.04-8.36c1.57-0.68,3.43-1.55,5.54-2.61h0.02
				c1.55-0.8,3.26-1.69,5.1-2.68c0.56-0.31,1.15-0.63,1.76-0.96c5.14-2.82,12.75-7.19,22.82-13.08v15.97l0.4,0.21
				c7.21-8.57,19.09-16.18,32.92-16.18C682.25,216.7,697.07,237.74,697.07,259.58z M671.34,266.98c0-23.76-12.66-41.87-27.66-41.87
				c-6.43,0-12.49,4.49-16.58,9.37v49.64c0,11.91,7.42,20.66,18.32,20.66C659.85,304.78,671.34,293.87,671.34,266.98z"/>
		</g>
		<g>
			<circle class="st2" cx="377.71" cy="413.78" r="4.97"/>
			<circle class="st2" cx="398.63" cy="420.52" r="4.97"/>
			<circle class="st2" cx="382.68" cy="432.67" r="4.97"/>
		</g>
		<g>
			<circle class="st2" cx="644.28" cy="179.69" r="4.97"/>
			<circle class="st2" cx="665.14" cy="164.69" r="4.97"/>
			<circle class="st2" cx="645.34" cy="158.78" r="4.97"/>
		</g>
	</g>
</g>
</svg>
