<?xml version="1.0" encoding="utf-8"?>
<!-- Generator: Adobe Illustrator 24.1.0, SVG Export Plug-In . SVG Version: 6.00 Build 0)  -->
<svg version="1.1" id="Layer_1" xmlns="http://www.w3.org/2000/svg" xmlns:xlink="http://www.w3.org/1999/xlink" x="0px" y="0px"
	 viewBox="0 0 1920 1080" style="enable-background:new 0 0 1920 1080;" xml:space="preserve">
<style type="text/css">
	.st0{fill:#F5F4F2;}
	.st1{fill:#EE5023;}
	.st2{fill:#111113;}
</style>
<g>
	<rect class="st0" width="1920" height="1080"/>
	<g>
		<g>
			<path class="st1" d="M740.85,433.62c-2.62-13.75-11.18-25.85-20.1-36.27c-8.49-9.92-18.33-18.65-28.42-26.9
				c-4.98-4.07-10.08-7.97-14.61-12.56c-1.11-1.13-2.2-2.29-3.24-3.47c-0.57-0.64-2.87-2.71-2.97-3.56c0.36,0.47,0.73,0.94,1.09,1.4
				c-0.27-0.36-0.54-0.73-0.8-1.09c-0.44-0.61-0.87-1.22-1.28-1.84c-0.99-1.46-1.92-2.96-2.79-4.49c-0.71-1.25-1.38-2.53-2.01-3.83
				c-0.25-0.51-0.48-1.04-0.72-1.55c-1.33-2.78,1.17,3.11,0.11,0.23c-1.06-2.9-1.99-5.81-2.63-8.84c-0.25-1.18-0.7-5.89-0.33-1.2
				c-0.11-1.39-0.29-2.78-0.37-4.18c-0.16-3.14,0.01-6.24,0.26-9.36c0.11-1.36,0.79-1.23-0.17,1.15c0.3-0.73,0.29-1.82,0.44-2.61
				c0.28-1.47,0.61-2.93,0.99-4.37c0.76-2.94,1.55-7.21,3.28-9.74c-0.17,0.25-1.37,2.99-0.26,0.68c0.43-0.89,0.84-1.8,1.28-2.69
				c0.73-1.46,1.49-2.91,2.29-4.33c1.45-2.55,3.1-4.94,4.78-7.35c1.11-1.59-2.28,2.77-0.43,0.54c0.44-0.53,0.88-1.08,1.32-1.61
				c0.9-1.06,1.82-2.09,2.77-3.1c2.1-2.22,4.32-4.31,6.66-6.28c0.53-0.45,1.07-0.88,1.61-1.32c2.24-1.85-2.13,1.55-0.54,0.42
				c1.14-0.8,2.25-1.63,3.41-2.4c2.43-1.62,4.95-3.12,7.54-4.48c1.23-0.65,2.48-1.27,3.74-1.86c0.73-0.34,1.6-0.61,2.29-1.03
				c-2.69,1.64-2.06,0.84-1.05,0.46c2.88-1.09,5.75-2.12,8.71-2.96c2.68-0.75,5.4-1.38,8.14-1.87c0.79-0.14,1.7-0.18,2.47-0.41
				c-3.13,0.93-2.4,0.29-1.26,0.17c1.66-0.17,3.32-0.34,4.98-0.44c2.77-0.16,5.55-0.18,8.32-0.05c1.39,0.06,2.77,0.16,4.15,0.3
				c1,0.1,3.87,0.69-0.44-0.1c0.82,0.15,1.65,0.25,2.47,0.4c2.74,0.48,5.45,1.13,8.11,1.92c1.37,0.41,2.73,0.86,4.07,1.34
				c0.54,0.2,2.27,0.57,2.62,1.01c-0.54-0.23-1.09-0.46-1.63-0.68c0.57,0.25,1.14,0.51,1.71,0.78c2.83,1.35,5.57,2.89,8.16,4.65
				c0.37,0.25,2.83,1.43,0.85,0.54c-1.87-0.84,0.32,0.26,0.76,0.64c1.41,1.2,2.76,2.48,4.02,3.84c0.52,0.57,1,1.17,1.53,1.74
				c1.35,1.46-1.9-2.88-0.23-0.29c0.85,1.31,1.71,2.57,2.45,3.94c0.41,0.76,0.76,1.55,1.16,2.32c0.96,1.86-1.01-3.21-0.06-0.03
				c0.59,1.98,1.24,3.9,1.68,5.93c0.15,0.67,0.25,1.36,0.4,2.03c0.77,3.45-0.25-3.17,0.08,0.36c0.16,1.74,0.31,3.47,0.37,5.22
				c0.14,3.87,0.02,7.74-0.22,11.6c-0.49,7.62-1.48,15.2-1.8,22.83c-0.71,16.96,2.54,33.76,14.04,46.77
				c5.25,5.94,12.37,10.53,19.97,12.81c8.77,2.63,17.69,1.42,25.91-2.27c14.37-6.45,22.56-21.59,30.4-34.39
				c1.85-3.02,3.72-6.02,5.74-8.93c0.6-0.87,1.23-1.72,1.84-2.58c1.5-2.1-0.06-0.02-0.28,0.33c1.02-1.7,2.68-3.24,4.06-4.68
				c1.14-1.19,2.33-2.32,3.57-3.4c0.25-0.21,0.5-0.43,0.75-0.64c1.19-0.96,1.02-0.84-0.51,0.37c0.23-0.35,1.35-0.96,1.61-1.14
				c1.36-0.91,2.77-1.76,4.22-2.51c0.29-0.15,0.58-0.29,0.87-0.44c1.4-0.65,1.17-0.57-0.7,0.24c0.43-0.51,2.14-0.78,2.73-0.95
				c0.77-0.23,1.54-0.43,2.32-0.61c2.9-0.65-0.4-0.22-0.44-0.05c0.11-0.39,4.42-0.11,4.8-0.11c3.35,0-3.23-0.78-0.34-0.07
				c0.52,0.13,1.05,0.22,1.57,0.35c0.77,0.2,1.52,0.47,2.29,0.68c2.47,0.69-2.88-1.5-0.45-0.23c1.17,0.61,2.32,1.19,3.43,1.9
				c0.55,0.35,1.07,0.79,1.63,1.11c1.59,0.92-2.71-2.37-0.66-0.48c2.18,2.01,3.99,4.56,6.18,6.49c-2.12-1.86-1.34-1.81-0.69-0.84
				c0.47,0.7,0.97,1.38,1.44,2.09c0.78,1.19,1.53,2.4,2.24,3.64c1.59,2.75,2.95,5.6,4.28,8.48c1,2.16-0.34-0.74-0.4-0.99
				c0.19,0.79,0.66,1.62,0.96,2.38c0.51,1.31,1,2.63,1.46,3.96c1.35,3.84,2.6,7.71,3.78,11.6c4.59,15.05,8.07,30.43,10.42,45.99
				c0.14,0.94,0.27,1.88,0.41,2.81c0.55,3.67-0.25-2.11,0.03,0.2c0.23,1.88,0.47,3.76,0.68,5.65c0.46,4.14,0.85,8.3,1.15,12.46
				c0.57,7.75,0.86,15.52,0.86,23.29c0.01,7.96-0.28,15.92-0.86,23.86c-0.26,3.57-0.57,7.13-0.98,10.69
				c-0.11,0.96-0.15,1.99-0.36,2.93c0.75-3.41,0.23-1.64,0.09-0.82c-0.33,1.95-0.63,3.89-1.03,5.83c-0.65,3.2-1.45,6.37-2.46,9.47
				c-0.45,1.37-0.81,3.37-1.67,4.54c0.22-0.53,0.44-1.06,0.66-1.6c-0.26,0.58-0.53,1.16-0.82,1.74c-0.42,0.86-0.87,1.71-1.34,2.54
				c-0.78,1.4-1.66,2.72-2.54,4.05c-1.82,2.74,2.09-2.23-0.14,0.2c-0.44,0.48-0.84,0.98-1.28,1.45c-1.09,1.18-2.27,2.25-3.45,3.33
				c-2.42,2.22,2.57-1.67-0.15,0.17c-0.79,0.54-1.57,1.1-2.38,1.61c-1.35,0.86-2.74,1.64-4.17,2.37c-0.72,0.36-1.45,0.68-2.17,1.04
				c-1.85,0.92,3.29-1.17,0.25-0.12c-3.37,1.17-6.72,2.24-10.22,2.95c-0.79,0.16-1.58,0.31-2.38,0.44
				c-0.16,0.03-0.32,0.05-0.48,0.08c-1.6,0.24-1.27,0.2,1-0.11c-1.23-0.22-3.2,0.34-4.47,0.43c-3.24,0.22-6.49,0.25-9.73,0.1
				c-1.46-0.07-2.92-0.17-4.38-0.3c-0.58-0.05-1.16-0.11-1.75-0.18c-0.29-0.03-0.58-0.07-0.87-0.1c-1.54-0.19-1.16-0.14,1.14,0.15
				c-2.85-1.08-6.5-1.12-9.5-1.83c-6.09-1.44-12.06-3.34-17.93-5.49c-2.85-1.05-5.67-2.15-8.47-3.31c0.07,0.03-1.67-0.6-1.69-0.7
				c0.56,0.24,1.12,0.47,1.67,0.71c-0.56-0.24-1.13-0.48-1.69-0.72c-1.69-0.73-3.38-1.47-5.07-2.22c-5.8-2.58-11.55-5.27-17.32-7.93
				c-12.44-5.74-24.99-11.42-38-15.74c-25.53-8.48-53.17-10.1-78.48,0.11c-26.38,10.64-47.9,30.56-57.23,57.84
				c-5.08,14.85-6,31.22-4.49,46.76c1.52,15.62,4.76,31.12,9.23,46.16c4.56,15.33,11.03,29.81,21.22,42.23
				c9.16,11.17,23.06,20.1,37.38,22.66c8.19,1.47,16.48,1.59,24.56-0.73c7.23-2.07,13.85-5.78,19.8-10.3
				c6.06-4.59,11.73-9.65,17.64-14.42c1.99-1.61-0.45,0.24-0.58,0.45c0.37-0.6,1.73-1.27,2.32-1.68c1.14-0.79,2.3-1.56,3.5-2.24
				c1.1-0.62,2.36-1.05,3.42-1.72c-2.68,1.69-2.3,0.9-1.21,0.54c0.99-0.33,1.96-0.69,2.96-0.98c1.25-0.36,2.51-0.66,3.79-0.9
				c0.49-0.09,1.04-0.13,1.53-0.25c-4.04,0.99-1.95,0.26-0.7,0.19c1.25-0.07,2.5-0.08,3.75-0.01c0.46,0.03,1,0.14,1.47,0.12
				c-4.17,0.13-1.76-0.27-0.21,0.13c0.45,0.12,0.91,0.25,1.35,0.39c1.76,0.57,1.48,1.43-0.79-0.39c0.31,0.25,0.88,0.45,1.21,0.64
				c1.35,0.78,1.69,1.88-0.6-0.66c0.7,0.78,1.62,1.78,2.43,2.43c-0.26-0.21-1.85-2.94-0.97-1.11c0.26,0.42,0.49,0.84,0.71,1.28
				c-0.62-1.61-0.77-1.93-0.43-0.95c0.11,0.52,0.91,2.06,0.66,2.52c-0.07-0.56-0.13-1.12-0.2-1.67c0.07,0.7,0.12,1.4,0.14,2.1
				c0.06,1.78-0.11,3.54-0.22,5.32c-0.05,0.83,0.12,2.6,0.11-0.58c0,0.9-0.29,1.91-0.43,2.79c-0.28,1.73-0.59,3.46-0.91,5.18
				c-1.23,6.58-2.7,13.12-3.97,19.69c-2.83,14.69-4.93,29.71-1.66,44.52c3.12,14.1,12.51,27.23,25.42,33.92
				c25.77,13.34,57.11,5.09,77.37-14.22c21.73-20.71,32.15-51.01,42.09-78.55c5.51-15.26,10.51-30.71,15.01-46.3
				c4.36-15.14,8.29-30.42,13.58-45.27c1.23-3.45,2.31-7.23,4.02-10.48c-1.61,3.06,0.1-0.21,0.35-0.76c0.3-0.68,0.61-1.37,0.92-2.05
				c0.84-1.84,1.72-3.66,2.63-5.47c3.03-5.99,6.47-11.78,10.37-17.24c0.46-0.65,0.93-1.29,1.41-1.93c0.78-1.05,0.93-2.42-0.16,0.2
				c0.51-1.22,2.18-2.68,3.04-3.67c2.28-2.63,4.69-5.15,7.24-7.53c1.15-1.07,2.33-2.12,3.54-3.13c0.48-0.4,0.98-0.8,1.46-1.2
				c2.54-2.11-2.54,1.81,0.15-0.09c2.84-2.01,5.73-3.91,8.78-5.57c1.43-0.77,2.88-1.5,4.35-2.18c0.54-0.25,1.24-0.65,1.83-0.82
				c-3.56,1.02-0.4,0.2,0.35-0.08c3.44-1.3,6.95-2.38,10.51-3.31c6.86-1.79,13.85-3,20.84-4.08c13.79-2.13,27.8-3.71,41.08-8.2
				c13.68-4.62,26.1-11.9,36.36-22.12c9.12-9.08,16.46-20.09,21.97-31.69c5.75-12.1,10.09-24.8,13.27-37.81
				c3.3-13.53,5.14-27.31,7.5-41.03c1.35-7.81,2.9-15.6,5.1-23.22c1.01-3.5,2.15-6.96,3.47-10.36c0.22-0.57,0.51-1.16,0.7-1.74
				c-1.14,3.64-0.3,0.75,0.08-0.09c0.79-1.71,1.62-3.41,2.51-5.07c1.48-2.77,3.1-5.46,4.89-8.04c0.36-0.51,0.72-1.02,1.08-1.53
				c1.88-2.68-2.04,2.38,0.07-0.12c1.1-1.31,2.19-2.61,3.37-3.86c1.06-1.13,2.16-2.21,3.3-3.26c0.57-0.52,1.15-1.03,1.73-1.53
				c0.27-0.23,2.69-1.85,0.74-0.64c-2,1.25,0.57-0.37,0.81-0.54c0.76-0.53,1.54-1.04,2.33-1.52c1.43-0.89,2.91-1.7,4.43-2.45
				c0.59-0.29,1.28-0.5,1.83-0.85c-2.91,1.81-1.97,0.77-0.76,0.38c1.26-0.41,2.5-0.86,3.79-1.21c1.27-0.35,2.56-0.65,3.85-0.89
				c0.64-0.12,1.32-0.17,1.95-0.33c-4.02,1.06-1.83,0.24-0.61,0.14c2.63-0.23,5.27-0.25,7.9-0.08c0.79,0.05,1.58,0.14,2.37,0.2
				c2.84,0.22-2.88-0.56-0.98-0.14c1.43,0.31,2.88,0.5,4.31,0.83c2.61,0.6,5.18,1.38,7.69,2.31c0.75,0.28,1.49,0.64,2.26,0.89
				c-3.39-1.07-2.02-0.88-1.14-0.45c1.46,0.72,2.92,1.41,4.34,2.19c2.37,1.31,4.67,2.76,6.86,4.35c0.84,0.61,2.65,2.49-0.26-0.23
				c0.39,0.36,0.85,0.69,1.26,1.03c1.24,1.05,2.44,2.15,3.6,3.28c0.97,0.95,1.9,1.93,2.8,2.94c0.54,0.61,1.05,1.24,1.58,1.85
				c0.68,0.78,0.94,1.87-0.69-0.94c1.49,2.56,3.4,4.85,4.82,7.48c0.66,1.22,1.24,2.48,1.84,3.73c1.33,2.82-0.85-2.32-0.18-0.4
				c0.25,0.72,0.54,1.43,0.8,2.15c1.1,3.15,1.97,6.39,2.59,9.67c0.14,0.74,0.25,1.5,0.39,2.24c0.38,2.03-0.36-3.7-0.08-0.59
				c0.13,1.51,0.29,3.02,0.36,4.54c0.16,3.35,0.1,6.7-0.18,10.04c-0.05,0.61-0.11,1.22-0.17,1.83c-0.11,1.06-0.94,3.75,0.04-0.1
				c-0.37,1.47-0.5,3.04-0.81,4.53c-0.69,3.32-1.58,6.6-2.65,9.82c-0.49,1.47-1.05,2.91-1.58,4.36c-0.89,2.43,0.37-0.63,0.36-0.79
				c0.02,0.63-0.87,1.97-1.14,2.55c-1.44,3.09-3.05,6.1-4.83,9.01c-0.81,1.32-1.65,2.62-2.53,3.9c-0.63,0.92-3.79,4.64-1.09,1.63
				c-2.35,2.62-4.51,5.38-6.98,7.9c-4.8,4.88-10.03,9.31-15.39,13.55c-0.66,0.52-1.32,1.03-1.97,1.55
				c-2.62,2.06,1.77-1.35,0.07-0.05c-1.47,1.12-2.93,2.24-4.4,3.36c-3.49,2.66-6.97,5.32-10.43,8.01
				c-11.48,8.94-21.89,18.64-30.26,30.62c-7.7,11.02-13.18,23.83-16.5,36.83c-6.88,26.96-5.25,55.84,1.83,82.58
				c3.65,13.78,9.47,26.67,14.54,39.95c2.63,6.89,4.97,13.93,6.34,21.19c0.15,0.82,0.49,1.82,0.45,2.65
				c0.14-3.22-0.14-1.05-0.03-0.01c0.18,1.79,0.3,3.59,0.31,5.39c0.01,1.36-0.04,2.72-0.14,4.07c-0.04,0.54-0.14,1.1-0.15,1.63
				c0.12-4.29,0.18-1.28-0.04-0.08c-0.5,2.7-1.22,5.37-2.16,7.95c-0.23,0.63-0.57,1.27-0.74,1.92c0.86-3.33,0.79-1.87,0.25-0.75
				c-0.65,1.34-1.35,2.64-2.13,3.91c-0.42,0.68-0.89,1.33-1.31,2.01c-1.19,1.9,0.59-0.76,0.78-0.94c-1.04,0.94-1.86,2.22-2.87,3.23
				c-0.49,0.48-3.75,3.31-1.78,1.7c1.93-1.58-0.08-0.01-0.46,0.24c-0.64,0.42-1.31,0.81-1.98,1.18c-0.66,0.36-1.45,0.62-2.07,1.02
				c2.67-1.72,2.31-0.88,1.2-0.57c-1.27,0.35-2.53,0.69-3.81,1.01c-2.86,0.7,3.44-0.26,0.41-0.05c-0.55,0.04-1.1,0.09-1.65,0.11
				c-1.59,0.07-3.16-0.02-4.74-0.1c-2.88-0.13,3.53,0.7,0.74,0.11c-0.49-0.1-0.98-0.18-1.46-0.29c-1.2-0.26-2.38-0.58-3.55-0.95
				c-1.16-0.37-2.27-0.89-3.42-1.24c4.52,1.4,0-0.07-1.26-0.71c-10.26-5.22-19.39-12-30.34-15.9c-13.24-4.71-28.14-4.04-40.51,2.78
				c-12.35,6.81-20.66,18.75-25.91,31.51c-2.36,5.73-3.77,11.58-4.59,17.71c-0.95,7.05-0.65,14.04-0.77,21.13
				c-0.05,3.19-0.17,6.38-0.41,9.56c-0.12,1.53-0.29,3.05-0.44,4.58c-0.2,2.07,0.6-3.67,0.08-0.57c-0.15,0.91-0.29,1.82-0.45,2.73
				c-0.6,3.32-1.39,6.6-2.33,9.84c-0.49,1.68-1.02,3.34-1.58,4.99c-0.3,0.87-0.6,1.74-0.92,2.6c-0.22,0.61-0.45,1.22-0.69,1.82
				c0.26-0.63,0.53-1.25,0.79-1.88c-0.78,0.92-1.2,2.48-1.82,3.55c-0.66,1.15-1.41,2.22-2.15,3.32c-1.61,2.41,2.21-2.5,0.26-0.37
				c-0.35,0.39-0.68,0.8-1.04,1.19c-1.06,1.17-2.19,2.28-3.37,3.32c-0.57,0.5-1.31,0.97-1.82,1.53c1.97-2.19,1.91-1.41,0.95-0.76
				c-1.11,0.75-2.19,1.51-3.34,2.2c-1.15,0.69-2.33,1.34-3.52,1.95c-0.72,0.37-1.46,0.7-2.19,1.05c-2.66,1.27,3.16-1.14,0.36-0.17
				c-2.59,0.9-5.16,1.77-7.84,2.39c-1.34,0.31-2.69,0.56-4.05,0.8c-3.01,0.53,3.51-0.31,0.47-0.06c-0.82,0.07-1.64,0.16-2.47,0.22
				c-2.74,0.19-5.49,0.19-8.23,0.01c-0.82-0.05-1.63-0.15-2.45-0.22c-1.2-0.1-1.7-0.77,1.31,0.19c-1.47-0.47-3.21-0.58-4.73-0.88
				c-5.75-1.16-11.48-2.43-17.08-4.17c-1.35-0.42-2.7-0.87-4.03-1.36c-0.66-0.24-1.31-0.51-1.97-0.75c-1.84-0.67,3.3,1.53,0.67,0.29
				c-2.7-1.27-5.35-2.6-7.83-4.28c-0.35-0.24-0.88-0.73-1.29-0.91c2.86,1.27,1.62,1.3,0.43,0.24c-0.96-0.86-1.81-1.8-2.71-2.72
				c-1.53-1.55,0.66,0.82,0.76,1.07c-0.26-0.64-0.92-1.31-1.29-1.91c-0.85-1.38-1.5-2.85-2.19-4.31c-1.02-2.16,0.4,0.76,0.41,1
				c-0.01-0.67-0.71-1.8-0.95-2.44c-0.51-1.39-0.98-2.79-1.4-4.21c-0.43-1.43-0.82-2.88-1.16-4.34c-0.35-1.52-0.28-4-1.01-5.3
				c0.14,0.25,0.35,3.54,0.17,1.08c-0.06-0.89-0.16-1.77-0.21-2.65c-0.08-1.46-0.09-2.92-0.04-4.38c0.02-0.58,0.05-1.15,0.1-1.72
				c0.02-0.28,0.05-0.57,0.07-0.86c0.17-1.54,0.11-1.13-0.18,1.21c0.68-1.33,0.68-3.41,1.14-4.87c0.16-0.5,0.43-1.05,0.54-1.56
				c-0.67,3.31-0.77,1.69-0.1,0.38c0.52-1.01,1.94-2.42,2.14-3.47c-0.06,0.34-2.26,2.53-0.65,0.93c0.55-0.55,1.06-1.13,1.63-1.67
				c0.38-0.35,0.78-0.68,1.16-1.03c1.92-1.76-2.89,1.79-0.06,0.11c1.12-0.67,2.2-1.38,3.36-1.99c0.58-0.31,1.18-0.58,1.77-0.88
				c2.5-1.28-2.61,0.92-0.81,0.31c2.81-0.96,5.55-1.98,8.43-2.76c5.17-1.39,10.44-2.35,15.67-3.51
				c11.91-2.64,22.77-8.41,32.76-15.31c11.42-7.89,21.89-17.33,29.3-29.19c7.86-12.57,10.54-26.91,7.85-41.43
				c-1.34-7.26-10.52-12.04-17.33-9.84c-7.78,2.52-11.28,9.55-9.84,17.33c0.05,0.29,0.11,0.58,0.16,0.87
				c0.24,1.54,0.2,1.15-0.14-1.16c-0.16,0.54,0.13,1.55,0.16,2.13c0.07,1.4,0.06,2.81-0.03,4.21c-0.04,0.67-0.23,1.41-0.18,2.07
				c-0.23-3.54,0.28-1.96-0.02-0.47c-0.3,1.49-0.7,2.96-1.16,4.4c-0.21,0.66-0.46,1.31-0.68,1.96c-0.95,2.86,1.48-2.99,0.13-0.28
				c-0.63,1.27-1.23,2.54-1.93,3.77c-0.7,1.25-1.45,2.47-2.25,3.66c-0.32,0.48-0.65,0.96-0.98,1.43c-0.34,0.48-0.68,0.95-1.03,1.41
				c1.32-1.68,1.51-1.94,0.57-0.77c-4.11,4.93-8.7,9.27-13.67,13.32c-2.43,1.98,1.94-1.4,0.27-0.22c-0.63,0.45-1.25,0.92-1.88,1.38
				c-1.26,0.9-2.54,1.78-3.84,2.64c-2.83,1.86-5.74,3.61-8.71,5.25c-2.53,1.39-5.22,2.52-7.73,3.93c4.28-2.41,1.2-0.53-0.3-0.06
				c-1.16,0.37-2.34,0.68-3.52,0.98c-5.43,1.37-10.95,2.31-16.39,3.63c-13.73,3.33-26.7,9.3-34.89,21.29
				c-8.55,12.52-8.27,29.45-4.88,43.61c1.63,6.81,4.16,13.85,7.63,19.94c3.65,6.39,9.15,11.46,15.26,15.44
				c10.54,6.86,23.35,10.03,35.53,12.51c13.59,2.77,27.31,3.08,40.67-1.19c13.62-4.36,25.27-12.33,33.64-23.96
				c4.2-5.84,6.67-12.85,8.76-19.67c2.28-7.43,3.57-15.06,4.34-22.78c0.71-7.06,0.72-14.16,0.67-21.25c-0.02-2.92,0.06-5.79,0.3-8.7
				c0.23-2.9-0.48,2.86-0.13,0.91c0.12-0.67,0.22-1.35,0.35-2.02c0.31-1.62,0.68-3.23,1.11-4.82c0.36-1.33,0.77-2.64,1.22-3.94
				c0.27-0.78,0.57-1.55,0.86-2.32c0.42-1.14,1.12-1.23-0.47,1.09c1.65-2.4,2.62-5.4,4.22-7.88c0.43-0.67,0.91-1.32,1.35-1.99
				c1.24-1.89-0.6,0.77-0.77,0.94c0.92-0.9,1.67-2.04,2.56-2.99c0.97-1.04,1.99-2.03,3.06-2.97c0.47-0.41,1.03-0.78,1.47-1.23
				c-2.69,2.75-1.4,1.08-0.4,0.41c1.15-0.77,2.34-1.47,3.57-2.1c0.55-0.28,1.17-0.49,1.7-0.81c-3.33,1.95-1.79,0.75-0.56,0.34
				c1.21-0.4,2.44-0.66,3.67-0.96c1.1-0.27,2.08,0.15-1.47,0.14c1.03,0,2.09-0.19,3.13-0.21c1.41-0.03,2.8,0.09,4.21,0.16
				c1.16,0.06,1.88,0.73-1.28-0.21c0.75,0.22,1.61,0.27,2.38,0.43c2.83,0.59,5.42,1.73,8.17,2.52c-4.21-1.21-0.47-0.17,0.79,0.45
				c1.13,0.56,2.24,1.14,3.34,1.74c2.41,1.32,4.76,2.74,7.11,4.16c4.4,2.67,8.8,5.35,13.51,7.45c14.07,6.27,29.19,7.54,43.41,0.79
				c12.64-6,21.13-19.02,25.22-31.99c4.64-14.71,2.92-30.52-1.51-45.06c-4.34-14.25-11.12-27.6-15.66-41.77
				c-1.99-6.22-3.65-12.55-4.95-18.95c-0.62-3.06-1.12-6.14-1.62-9.22c-0.53-3.29,0.39,3.35,0,0.04c-0.07-0.62-0.15-1.24-0.22-1.86
				c-0.21-1.86-0.39-3.72-0.54-5.58c-0.53-6.63-0.64-13.29-0.29-19.93c0.09-1.68,0.21-3.37,0.36-5.05c0.12-1.3,0.79-3.33,0.49-4.55
				c0.43,1.77-0.39,2.63-0.14,1.03c0.14-0.9,0.27-1.8,0.42-2.7c0.3-1.79,0.64-3.58,1.02-5.35c1.33-6.2,3.23-12.18,5.48-18.1
				c1.09-2.87-1.05,2.31-0.21,0.47c0.31-0.68,0.6-1.37,0.92-2.05c0.63-1.36,1.29-2.7,1.98-4.03c1.52-2.93,3.19-5.79,5-8.55
				c0.83-1.26,1.69-2.51,2.58-3.73c0.55-0.76,2.59-2.79,0-0.05c0.41-0.43,0.77-0.96,1.15-1.43c2.29-2.79,4.75-5.44,7.33-7.97
				c5.18-5.1,10.81-10.05,16.72-14.3c-0.32,0.23-2.45,1.88-0.46,0.36c0.8-0.61,1.6-1.22,2.4-1.83c1.33-1.02,2.67-2.03,4-3.05
				c3.62-2.76,7.23-5.53,10.8-8.36c5.48-4.36,10.82-8.92,15.69-13.96c10.56-10.93,18.41-23.83,23.58-38.09
				c9.99-27.53,6.77-59.12-11.53-82.35c-16.65-21.13-44.8-31.83-71.2-27.48c-30.46,5.02-49.95,33.5-58.4,61.05
				c-4.64,15.13-6.52,30.88-9.16,46.43c-2.13,12.58-4.95,25.08-9.02,37.19c-0.95,2.81-1.96,5.6-3.05,8.35
				c-0.27,0.69-0.56,1.37-0.83,2.05c-0.75,1.87,1.46-3.29,0.21-0.52c-0.72,1.6-1.43,3.2-2.2,4.79c-2.63,5.45-5.63,10.72-9.09,15.69
				c-0.79,1.14-1.85,2.23-2.51,3.44c1.74-3.19,0.85-1.1,0.09-0.19c-0.45,0.54-0.9,1.08-1.37,1.62c-2.03,2.34-4.17,4.58-6.45,6.68
				c-1.03,0.96-2.09,1.89-3.18,2.79c-0.53,0.44-1.19,0.83-1.65,1.33c2.43-2.63,1.12-0.87,0.13-0.17c-2.57,1.83-5.26,3.5-8.05,4.99
				c-1.48,0.79-2.99,1.49-4.5,2.21c-2.32,1.1,0.34-0.06,0.61-0.24c-0.75,0.5-1.95,0.77-2.79,1.08c-3.44,1.26-6.95,2.32-10.51,3.22
				c-6.86,1.74-13.85,2.92-20.84,3.99c-14.13,2.16-28.5,3.83-42.03,8.68c-28.57,10.25-49.47,33.13-62.3,60.16
				c-14.21,29.95-20.62,62.86-30.96,94.2c-5.12,15.52-10.68,30.93-16.92,46.04c-0.25,0.6-0.51,1.2-0.75,1.8
				c1.43-3.62,0.18-0.46-0.12,0.22c-0.65,1.49-1.32,2.98-2,4.46c-1.5,3.25-3.07,6.46-4.76,9.62c-1.52,2.85-3.13,5.65-4.86,8.39
				c-0.86,1.36-1.74,2.7-2.65,4.02c-0.55,0.79-1.1,1.57-1.67,2.34c-0.19,0.26-0.38,0.51-0.57,0.77c-0.92,1.21-0.77,1.02,0.45-0.58
				c-0.43,1.22-2.18,2.65-3.07,3.65c-1.05,1.19-2.14,2.34-3.27,3.47c-1.12,1.13-2.28,2.22-3.48,3.27c-0.72,0.63-1.46,1.24-2.19,1.86
				c-2.52,2.13,2.53-1.74-0.2,0.14c-2.36,1.63-4.75,3.15-7.32,4.44c-0.61,0.31-1.24,0.59-1.85,0.89c-2.59,1.27,2.53-0.96,0.71-0.29
				c-1.55,0.57-3.09,1.15-4.68,1.63c-2.78,0.84-5.66,1.12-8.45,1.87c0.22-0.06,3.65-0.36,1.3-0.21c-0.82,0.05-1.63,0.14-2.44,0.19
				c-1.62,0.08-3.24,0.1-4.87,0.03c-1.33-0.05-2.68-0.3-4-0.32c4.45,0.06,0.51,0.02-0.95-0.32c-1.28-0.29-2.54-0.64-3.79-1.05
				c-0.61-0.2-1.22-0.49-1.84-0.66c-1.01-0.39-0.49-0.17,1.56,0.68c-0.47-0.21-0.95-0.43-1.41-0.66c-1.16-0.57-2.3-1.2-3.39-1.9
				c-0.54-0.34-1.06-0.79-1.62-1.09c-1.6-0.86,2.72,2.37,0.68,0.53c-0.98-0.89-1.97-1.75-2.88-2.71c-0.21-0.22-1.36-1.8-1.6-1.81
				c0.35,0.46,0.71,0.93,1.06,1.39c-0.36-0.49-0.72-0.99-1.06-1.49c-0.83-1.24-1.59-2.52-2.27-3.85c-0.5-0.98-1.11-3.47-0.04,0.17
				c-0.16-0.55-0.43-1.09-0.62-1.63c-0.49-1.37-0.9-2.77-1.24-4.19c-0.21-0.85-0.39-1.71-0.55-2.57c-0.11-0.58-0.2-1.16-0.29-1.74
				c0.09,0.66,0.18,1.32,0.27,1.99c0.4-1-0.29-3.32-0.33-4.47c-0.06-1.68-0.06-3.35-0.01-5.03c0.05-1.71,0.16-3.42,0.3-5.12
				c0.05-0.63,0.11-1.26,0.18-1.88c0.04-0.43,0.52-4.4,0.21-1.92c-0.32,2.49,0.11-0.69,0.16-0.99c0.15-0.96,0.3-1.92,0.47-2.87
				c0.27-1.61,0.56-3.21,0.87-4.81c0.67-3.54,1.41-7.08,2.14-10.61c3.18-15.36,8.67-34.1-0.65-48.36
				c-8.89-13.6-25.24-16.71-40.28-13.75c-14.36,2.83-25,12.64-35.85,21.73c-1.02,0.85-2.48,2.52-3.7,3.03
				c0.45-0.34,0.9-0.69,1.35-1.03c-0.5,0.38-1.01,0.76-1.52,1.14c-0.51,0.37-1.02,0.74-1.54,1.1c-1.29,0.89-2.6,1.74-3.95,2.53
				c-0.81,0.47-1.63,0.92-2.46,1.35c-0.42,0.21-0.84,0.42-1.26,0.61c-0.96,0.44-0.56,0.28,1.22-0.48c-0.42,0.76-3.55,1.23-4.44,1.46
				c-0.89,0.23-1.78,0.39-2.67,0.58c-2.55,0.55,0.9-0.28,1.05-0.13c-0.38-0.38-4.24,0.18-4.96,0.16c-0.75-0.02-1.5-0.1-2.26-0.14
				c-3-0.15,2.88,0.62,0.15,0.02c-1.64-0.36-3.27-0.69-4.88-1.17c-0.73-0.22-1.46-0.45-2.19-0.71c-0.29-0.1-0.58-0.21-0.87-0.31
				c-1.42-0.56-1.15-0.43,0.79,0.38c-0.56,0.29-3.62-1.75-4.17-2.05c-1.64-0.9-3.23-1.88-4.77-2.94c-0.46-0.32-1.04-0.87-1.52-1.09
				c0.46,0.36,0.91,0.71,1.37,1.07c-0.49-0.39-0.97-0.78-1.45-1.18c-1.19-1-2.33-2.06-3.43-3.16c-1.11-1.11-2.17-2.27-3.19-3.47
				c-0.12-0.14-2.2-2.73-0.79-0.93c1.35,1.73-1.05-1.49-1.27-1.81c-1.89-2.76-3.6-5.64-5.14-8.6c-0.77-1.49-1.51-3-2.21-4.52
				c-0.31-0.69-1.95-3.64-0.19-0.34c-0.47-0.88-0.77-1.9-1.12-2.82c-2.55-6.64-4.55-13.48-6.33-20.36
				c-1.94-7.52-3.63-15.11-4.88-22.77c-0.15-0.9-0.28-1.8-0.42-2.7c-0.57-3.55,0.24,2.22-0.01-0.04c-0.22-1.99-0.46-3.97-0.63-5.96
				c-0.34-3.96-0.52-7.93-0.5-11.9c0.02-3.58,0.2-7.16,0.58-10.71c0.07-0.69,0.13-1.43,0.25-2.12c-0.68,3.82,0.02,0.21,0.14-0.48
				c0.37-2.1,0.82-4.19,1.34-6.26c0.27-1.07,2.53-10.08,3.26-10.01c-0.25,0.59-0.5,1.18-0.75,1.77c0.23-0.53,0.46-1.05,0.7-1.58
				c0.24-0.52,0.49-1.04,0.74-1.56c0.76-1.54,1.57-3.06,2.44-4.54c0.72-1.23,1.48-2.44,2.26-3.63c0.65-0.98,2.17-2.37,2.47-3.49
				c-0.39,0.5-0.77,1-1.16,1.49c0.35-0.45,0.71-0.89,1.07-1.33c0.36-0.44,0.73-0.88,1.1-1.31c1.11-1.3,2.27-2.56,3.47-3.79
				c2.1-2.15,4.32-4.18,6.64-6.1c0.52-0.43,1.24-0.84,1.68-1.35c-2.19,2.56-1.18,0.91-0.09,0.13c1.28-0.93,2.59-1.82,3.93-2.67
				c2.55-1.64,5.19-3.15,7.89-4.53c1.29-0.66,2.6-1.28,3.92-1.88c0.45-0.2,1.16-0.41,1.59-0.7c-2.03,0.85-2.35,0.99-0.95,0.43
				c0.54-0.21,1.08-0.42,1.62-0.63c5.71-2.14,11.62-3.72,17.64-4.69c0.38-0.06,3.27-0.52,0.71-0.13c-2.55,0.39,0.33-0.02,0.72-0.06
				c1.44-0.15,2.89-0.26,4.33-0.34c3.18-0.17,6.37-0.17,9.54,0.01c1.5,0.08,2.99,0.21,4.48,0.37c0.91,0.09,4.04,0.64-0.15-0.07
				c0.59,0.1,1.19,0.17,1.79,0.26c3.28,0.51,6.54,1.17,9.76,1.95c6.36,1.54,12.6,3.54,18.73,5.82c3.03,1.12,6.03,2.33,9.02,3.55
				c2.3,0.94-0.53-0.29-0.8-0.34c0.82,0.15,1.79,0.77,2.56,1.1c1.71,0.74,3.41,1.49,5.11,2.25c24.15,10.81,48.31,24.14,74.76,28.27
				c14.43,2.25,29.25,2.41,43.4-1.77c15.73-4.66,29.7-14.46,37.69-29.02c7.71-14.04,9.92-30,11.24-45.72
				c1.34-15.87,1.48-31.83,0.46-47.72c-1.1-17.12-3.45-34.24-7.05-51.02c-3.16-14.71-7.06-29.6-12.72-43.56
				c-5.58-13.75-12.86-26.59-25.02-35.54c-13.65-10.04-31.04-10.01-45.9-2.75c-14.67,7.16-24.3,21.1-32.54,34.62
				c-2.03,3.33-4.03,6.68-6.14,9.96c-0.9,1.39-1.81,2.77-2.77,4.12c-0.33,0.47-0.89,1.05-1.12,1.55c1.24-1.58,1.38-1.77,0.43-0.59
				c-0.4,0.49-0.82,0.98-1.24,1.46c-1.05,1.19-2.14,2.34-3.31,3.42c-0.34,0.32-1.23,0.9-1.41,1.24c0.46-0.35,0.92-0.7,1.39-1.04
				c-0.5,0.37-1,0.73-1.52,1.07c-0.51,0.34-1.04,0.66-1.57,0.96c-0.27,0.15-0.54,0.29-0.81,0.44c-1.37,0.66-1.09,0.57,0.85-0.28
				c0.02,0.13-1.96,0.65-2.2,0.72c-0.45,0.13-0.9,0.24-1.36,0.33c-1.54,0.27-1.16,0.23,1.14-0.14c-0.48-0.08-1.21,0.06-1.72,0.06
				c-0.29-0.01-0.57-0.01-0.86-0.02c-1.54-0.12-1.14-0.05,1.2,0.23c-0.89-0.54-3.08-0.77-4.13-1.08c-2.79-0.84,2.23,1.2,0.59,0.23
				c-0.62-0.37-1.29-0.67-1.92-1.04c-0.17-0.1-2.16-1.48-2.21-1.45c0.27-0.2,2.64,2.27,0.08-0.03c-1.12-1.01-2.13-2.11-3.15-3.22
				c-2.13-2.32,1.67,2.65-0.03-0.01c-0.32-0.51-0.68-1-1.01-1.51c-0.81-1.28-1.47-2.62-2.17-3.96c-1.45-2.78,0.96,3.04,0.07,0.06
				c-0.31-1.05-0.68-2.08-0.97-3.13c-0.39-1.44-1.38-3.81-1.14-5.31c0.06,0.53,0.13,1.06,0.19,1.59c-0.09-0.72-0.17-1.44-0.23-2.16
				c-0.08-0.91-0.14-1.81-0.19-2.72c-0.22-4.03-0.11-8.08,0.13-12.11c0.47-7.75,1.5-15.47,1.83-23.23
				c0.74-17.22-2.58-33.98-13.76-47.5c-9.33-11.29-23.61-18.69-37.63-22.25c-25.58-6.51-53.92-1.39-76.03,12.88
				c-24.12,15.58-40.79,41.67-42.65,70.58c-0.9,13.99,2.86,28.23,9.75,40.37c6.95,12.24,16.91,21.5,27.69,30.26
				c9.83,7.98,19.41,16.36,27.85,25.82c1.05,1.18,2.09,2.37,3.09,3.59c0.4,0.48,0.79,0.97,1.19,1.45c2.11,2.51-1.84-2.54,0.08,0.08
				c1.78,2.43,3.51,4.88,5.06,7.47c0.75,1.24,1.45,2.5,2.12,3.79c0.39,0.75,0.74,1.53,1.12,2.28c1.05,2.09-0.38-0.82-0.42-1.08
				c0.5,2.81,1.95,5.54,2.49,8.4c1.38,7.25,10.49,12.05,17.33,9.84C738.76,448.44,742.34,441.39,740.85,433.62L740.85,433.62z"/>
		</g>
		<g>
			<path class="st2" d="M818.51,573.11v-94.85c0-16.46-7.18-30.57-21.91-30.57c-12.33,0-23.27,6.15-38.33,16.42v109
				c0,25.7,21.08,16.46,23.68,22.52h-90.51c2.6-6.06,23.68,3.18,23.68-22.52V411.43c0-0.33,0-0.62-0.04-0.91
				c-0.08-3.55-0.54-6.15-1.07-7.92c-0.74-2.35-2.52-5.2-5.28-8.54l-12.38-14.69c2.76-1.2,6.06-2.72,9.78-4.58
				c2.72-1.4,5.74-2.97,8.95-4.7c0.99-0.54,2.02-1.12,3.09-1.69c9.03-4.95,22.4-12.62,40.1-22.98v116.75
				c25.33-15.76,40.72-25,64.03-25c21.54,0,39.36,12.34,39.36,39.03v96.91c0,25.7,21.08,16.46,23.68,22.52h-90.51
				C797.43,589.57,818.51,598.81,818.51,573.11z"/>
		</g>
		<g>
			<path class="st2" d="M1010.44,485.73c-0.26,0.32-0.43,0.48-0.43,0.48c29.19,11.61,43.57,32.17,43.57,56.83
				c0,34.78-27.86,56.62-74.36,63.92h-0.05c-1.07,0.21-2.08,0.37-3.14,0.48c-1.71,0.21-3.46,0.43-5.27,0.64
				c-0.8,0.11-1.54,0.16-2.29,0.21c-18.06,1.38-35.05-1.28-47.51-4.26c-0.37-0.05-0.69-0.16-1.06-0.26
				c-1.44-0.37-2.82-0.69-4.15-1.07c-3.25-0.8-6.34-1.71-9.21-2.72c-1.97-0.69-3.46-1.22-4.42-1.6c-0.48-0.21-0.8-0.32-0.96-0.37
				c-0.05,0-0.11-0.05-0.16-0.11h-0.05c-1.71-0.75-3.36-1.54-4.95-2.34c-0.96,0.59-1.86,1.23-2.72,1.92
				c-5.17,4.31-7.99,9.91-8.26,16.19c-0.32,7.14,2.29,13.48,7.62,18.22c5.06,4.42,11.72,6.87,19.81,7.24
				c7.08,0.27,18.8-2.4,35.95-8.26l2.08-0.69c13-4.42,23.49-7.35,31.32-8.79c7.62-1.44,15.07-2.02,22.16-1.7
				c18.38,0.75,32.54,6.6,43.36,17.9c10.71,11.18,15.55,25.03,14.81,42.34c-0.96,22.42-10.92,39.58-30.63,52.41
				c-15.5,10.12-35.21,15.93-58.7,17.42c-0.11,0-0.21-0.11-0.21-0.26c0-0.11,0.11-0.21,0.21-0.21c9.8-1.12,18.38-3.68,25.51-7.46
				c13-6.82,19.81-20.08,20.35-32.49c0.32-7.88-2.5-14.81-8.04-19.92c-5.49-4.95-12.73-7.62-21.63-7.99
				c-3.35-0.16-10.55,0.27-33.77,5.75c-16.03,3.83-29.94,5.49-41.07,5.01c-2.93-0.11-6.07-0.53-9.32-1.33
				c-0.91-0.16-1.7-0.37-2.56-0.59c-2.5-0.64-5.01-1.44-7.46-2.4c-0.11,0-0.16-0.05-0.21-0.05c-4.1-1.71-7.67-3.73-10.55-5.59
				l-4.74-3.57c-0.75-0.53-1.54-1.12-2.24-1.76c-0.43-0.37-0.85-0.69-1.28-1.12c-0.27-0.21-0.43-0.37-0.53-0.48l-0.05-0.05
				c-4.1-3.78-7.19-8.2-9.53-13.32c-3.04-6.66-4.37-14.17-4.05-22.37c0.48-11.5,3.78-20.93,10.28-28.66
				c5.54-6.66,13.42-11.93,23.27-15.82c-19.92-10.71-28.12-28.02-28.12-49.85c0-36.7,30.89-68.5,92.79-68.5h7.99
				c15.45,1.38,28.82,4.37,40.05,8.63c16.72-34.35,35.63-46.5,54.27-43.89v39.57c-19.28-9.86-33.34-6.98-41.97-2.56
				C1016.62,479.82,1013.1,482.16,1010.44,485.73z M992.59,542.78c0-52.46-15.07-64.08-33.18-64.08s-34.04,11.61-34.04,64.08
				c0,52.36,15.93,64.02,34.04,64.02C977.52,606.8,992.59,595.14,992.59,542.78z"/>
		</g>
		<g>
			<path class="st2" d="M1239.24,461.03c0,46.09-36.4,86.62-90.09,86.62c-12.82,0-22.17-2.09-34.32-5.55v44.79
				c0,24.67,22.54,17.49,27.47,22h-98.56c4.93-4.51,27.47,2.67,27.47-22V452.52c0-0.63-0.04-1.25-0.08-1.84
				c-0.08-3.59-0.54-6.22-1.09-8.02c-0.75-2.38-2.55-5.26-5.34-8.64l-12.52-14.86c2.8-1.21,6.09-2.76,9.85-4.64h0.04
				c2.76-1.42,5.8-3.01,9.06-4.76c1-0.54,2.05-1.13,3.13-1.71c9.14-5.01,22.67-12.78,40.58-23.25v28.39l0.71,0.38
				c12.82-15.24,33.94-28.76,58.53-28.76C1212.9,384.8,1239.24,422.21,1239.24,461.03z M1193.48,474.18
				c0-42.25-22.5-74.43-49.18-74.43c-11.44,0-22.21,7.97-29.47,16.66v88.25c0,21.17,13.19,36.74,32.56,36.74
				C1173.07,541.39,1193.48,521.98,1193.48,474.18z"/>
		</g>
		<g>
			<circle class="st2" cx="671.48" cy="735.17" r="8.84"/>
			<circle class="st2" cx="708.68" cy="747.14" r="8.84"/>
			<circle class="st2" cx="680.32" cy="768.75" r="8.84"/>
		</g>
		<g>
			<circle class="st2" cx="1145.39" cy="319" r="8.84"/>
			<circle class="st2" cx="1182.48" cy="292.34" r="8.84"/>
			<circle class="st2" cx="1147.27" cy="281.83" r="8.84"/>
		</g>
	</g>
</g>
</svg>
