<svg id="Layer_1" data-name="Layer 1" xmlns="http://www.w3.org/2000/svg" viewBox="0 0 1920 1080"><defs><style>.cls-1{fill:#efedea;}.cls-2{fill:#e6662f;}.cls-3{fill:#1d1012;}.cls-4{fill:#2d1011;}</style></defs><rect class="cls-1" width="1920" height="1080"/><path class="cls-2" d="M740.85,433.62c-2.62-13.75-11.18-25.85-20.1-36.28-8.49-9.92-18.33-18.64-28.42-26.89-5-4.08-10.08-8-14.6-12.57q-1.68-1.68-3.25-3.47c-.57-.64-2.86-2.7-3-3.56l1.09,1.41c-.27-.37-.54-.73-.8-1.1-.44-.61-.87-1.22-1.29-1.84q-1.47-2.19-2.78-4.49c-.71-1.26-1.39-2.53-2-3.83-.25-.51-.48-1-.73-1.55-1.33-2.78,1.17,3.11.12.23a66.49,66.49,0,0,1-2.64-8.84c-.25-1.18-.69-5.89-.33-1.19-.11-1.4-.29-2.78-.36-4.18a71.29,71.29,0,0,1,.26-9.36c.11-1.36.79-1.23-.17,1.15a15.8,15.8,0,0,0,.44-2.61c.28-1.46.61-2.92,1-4.37.77-2.94,1.56-7.21,3.28-9.74-.17.25-1.37,3-.26.68.43-.89.84-1.79,1.28-2.68.72-1.47,1.49-2.91,2.29-4.34,1.45-2.55,3.1-4.94,4.78-7.34,1.11-1.59-2.28,2.77-.43.54.45-.54.88-1.08,1.33-1.61.89-1.06,1.82-2.09,2.77-3.1a80.67,80.67,0,0,1,6.66-6.28l1.61-1.32c2.24-1.84-2.13,1.55-.54.43,1.14-.8,2.26-1.63,3.41-2.4q3.66-2.43,7.54-4.49c1.23-.65,2.48-1.27,3.74-1.86a21.56,21.56,0,0,0,2.29-1c-2.69,1.65-2,.84-1,.46,2.87-1.09,5.75-2.12,8.71-3,2.68-.75,5.4-1.38,8.14-1.87.8-.14,1.71-.18,2.48-.4-3.14.93-2.41.29-1.27.17,1.66-.17,3.32-.34,5-.44a79.62,79.62,0,0,1,8.32-.05c1.39.06,2.77.16,4.15.3,1,.1,3.87.69-.44-.1.81.15,1.64.25,2.46.39a75.39,75.39,0,0,1,8.12,1.92c1.36.41,2.72.86,4.06,1.35.54.19,2.27.56,2.63,1l-1.64-.68q.87.38,1.71.78a62,62,0,0,1,8.16,4.65c.38.26,2.83,1.44.85.55s.32.26.76.64a47.14,47.14,0,0,1,4,3.84c.52.57,1,1.17,1.52,1.74,1.35,1.46-1.9-2.88-.23-.29.85,1.31,1.71,2.58,2.46,3.95.41.76.76,1.55,1.15,2.32,1,1.86-1-3.21-.06,0,.59,2,1.25,3.9,1.69,5.93.14.67.24,1.36.39,2,.78,3.45-.25-3.18.08.36.16,1.74.31,3.47.37,5.21a115.29,115.29,0,0,1-.22,11.61c-.49,7.61-1.49,15.19-1.81,22.82-.7,17,2.55,33.76,14,46.77a43.92,43.92,0,0,0,20,12.81c8.77,2.64,17.7,1.42,25.91-2.27,14.38-6.44,22.57-21.58,30.4-34.39,1.85-3,3.73-6,5.74-8.93.6-.87,1.22-1.72,1.84-2.58,1.5-2.1-.06,0-.27.33a28.53,28.53,0,0,1,4.06-4.68c1.13-1.18,2.33-2.31,3.57-3.39l.75-.64c1.2-1,1-.84-.51.37a8.1,8.1,0,0,1,1.62-1.14,44.51,44.51,0,0,1,4.21-2.51l.87-.44c1.41-.64,1.17-.56-.7.25.43-.52,2.14-.78,2.73-1,.77-.23,1.54-.43,2.32-.61,2.9-.64-.4-.22-.45,0,.11-.4,4.43-.11,4.81-.11,3.35,0-3.23-.78-.35-.07.52.13,1,.22,1.58.35.77.2,1.51.47,2.28.68,2.47.7-2.88-1.5-.45-.23,1.16.61,2.32,1.2,3.43,1.91.55.35,1.06.79,1.62,1.11,1.6.92-2.7-2.37-.66-.48s4,4.56,6.18,6.49c-2.12-1.86-1.34-1.81-.69-.84.47.7,1,1.38,1.44,2.09.78,1.19,1.53,2.4,2.24,3.64,1.59,2.74,2.95,5.6,4.28,8.47,1,2.16-.34-.73-.4-1a21.07,21.07,0,0,0,.95,2.38q.77,2,1.47,4c1.35,3.84,2.59,7.71,3.78,11.6a323.21,323.21,0,0,1,10.42,46c.14.93.27,1.87.41,2.81.55,3.67-.25-2.12,0,.2.23,1.88.48,3.76.69,5.64q.69,6.23,1.15,12.46.86,11.63.86,23.29,0,11.94-.86,23.87c-.26,3.56-.57,7.13-1,10.68a28.58,28.58,0,0,1-.36,2.93c.75-3.41.23-1.64.09-.82-.33,1.95-.64,3.9-1,5.83a85.49,85.49,0,0,1-2.46,9.47c-.45,1.37-.81,3.37-1.67,4.54l.66-1.59c-.26.58-.53,1.16-.81,1.73-.43.86-.87,1.71-1.34,2.55-.78,1.39-1.66,2.72-2.54,4-1.82,2.74,2.09-2.23-.15.2-.43.47-.84,1-1.28,1.45-1.09,1.18-2.27,2.25-3.45,3.33-2.42,2.22,2.58-1.67-.15.17-.79.53-1.57,1.09-2.38,1.6a47.59,47.59,0,0,1-4.17,2.37c-.71.37-1.45.68-2.17,1-1.85.93,3.29-1.17.25-.11a78.09,78.09,0,0,1-10.22,3c-.79.16-1.58.3-2.37.44l-.48.08q-2.4.36,1-.12c-1.23-.21-3.2.34-4.47.43a87.54,87.54,0,0,1-9.72.11c-1.47-.07-2.93-.17-4.38-.31-.59,0-1.17-.11-1.75-.18l-.87-.1q-2.31-.29,1.13.15c-2.85-1.08-6.49-1.12-9.5-1.83a157.83,157.83,0,0,1-17.93-5.49c-2.85-1.05-5.67-2.16-8.48-3.31a13.6,13.6,0,0,1-1.69-.7l1.68.71-1.69-.73c-1.7-.73-3.38-1.47-5.07-2.22-5.8-2.58-11.55-5.27-17.32-7.93-12.43-5.74-25-11.42-38-15.74-25.53-8.48-53.16-10.1-78.47.11-26.38,10.64-47.9,30.56-57.23,57.83-5.08,14.86-6,31.22-4.49,46.76a245.45,245.45,0,0,0,9.23,46.16c4.56,15.33,11,29.8,21.22,42.23,9.16,11.16,23.06,20.09,37.38,22.65,8.19,1.47,16.48,1.59,24.55-.72a60.78,60.78,0,0,0,19.8-10.3c6.07-4.6,11.73-9.65,17.65-14.42,2-1.61-.45.24-.58.45a9.45,9.45,0,0,1,2.32-1.68c1.14-.79,2.3-1.56,3.5-2.24s2.36-1.06,3.42-1.72c-2.68,1.68-2.29.9-1.21.54s2-.7,3-1c1.25-.36,2.52-.66,3.79-.9.49-.09,1-.13,1.53-.25-4,1-2,.26-.7.19a33.51,33.51,0,0,1,3.75,0c.46,0,1,.14,1.47.13-4.17.12-1.77-.27-.21.13q.69.16,1.35.39c1.77.57,1.49,1.43-.79-.39a12.68,12.68,0,0,0,1.21.63c1.35.78,1.69,1.89-.6-.66a23.23,23.23,0,0,0,2.43,2.43c-.26-.21-1.85-2.94-1-1.11.25.42.49.84.71,1.28-.62-1.61-.77-1.93-.43-.94.11.52.91,2.06.66,2.51l-.2-1.67c.07.7.12,1.4.14,2.1.06,1.79-.11,3.55-.22,5.33,0,.82.12,2.6.11-.58a19,19,0,0,1-.43,2.79c-.28,1.73-.59,3.46-.91,5.18-1.24,6.58-2.7,13.12-4,19.69-2.83,14.69-4.93,29.71-1.66,44.52,3.11,14.1,12.51,27.23,25.42,33.91,25.77,13.35,57.11,5.09,77.37-14.22,21.74-20.71,32.15-51,42.09-78.54q8.27-22.9,15-46.3c4.36-15.14,8.29-30.42,13.58-45.27,1.23-3.45,2.31-7.24,4-10.48-1.61,3.06.1-.21.35-.76s.61-1.37.92-2q1.26-2.76,2.63-5.47a133.3,133.3,0,0,1,10.37-17.24c.46-.65.93-1.29,1.41-1.93.78-1,.93-2.42-.17.19.51-1.21,2.19-2.68,3.05-3.67a98.93,98.93,0,0,1,7.24-7.53c1.16-1.07,2.34-2.12,3.54-3.13l1.47-1.2c2.53-2.11-2.55,1.81.15-.1a87.91,87.91,0,0,1,8.78-5.57q2.13-1.15,4.35-2.18a13.76,13.76,0,0,1,1.83-.82c-3.56,1-.4.2.35-.09a104.07,104.07,0,0,1,10.51-3.3,207.3,207.3,0,0,1,20.84-4.08c13.79-2.13,27.8-3.72,41.08-8.2a93.25,93.25,0,0,0,36.36-22.12,113.36,113.36,0,0,0,22-31.68,196.36,196.36,0,0,0,13.26-37.81c3.3-13.54,5.15-27.32,7.51-41a214,214,0,0,1,5.09-23.22c1-3.5,2.15-7,3.47-10.36.23-.57.52-1.16.7-1.74-1.14,3.63-.3.75.08-.09.78-1.71,1.62-3.41,2.51-5.07a83.11,83.11,0,0,1,4.88-8c.36-.52.73-1,1.09-1.53,1.88-2.68-2,2.37.07-.12,1.1-1.31,2.19-2.62,3.36-3.86s2.16-2.22,3.3-3.26c.57-.52,1.15-1,1.74-1.54.27-.23,2.68-1.85.73-.63s.57-.37.81-.54c.77-.53,1.54-1,2.33-1.52a50.11,50.11,0,0,1,4.42-2.45,19.06,19.06,0,0,0,1.83-.85c-2.91,1.81-2,.77-.76.38s2.5-.86,3.79-1.22,2.55-.64,3.85-.89c.64-.12,1.32-.17,1.94-.33-4,1.06-1.82.24-.61.14a53.43,53.43,0,0,1,7.9-.09c.79,0,1.58.14,2.37.2,2.84.22-2.88-.56-1-.14,1.43.31,2.88.49,4.31.82a62.39,62.39,0,0,1,7.69,2.31c.75.28,1.5.64,2.26.88-3.39-1.07-2-.88-1.14-.45,1.46.72,2.92,1.41,4.34,2.2a64.64,64.64,0,0,1,6.87,4.35c.83.6,2.64,2.48-.27-.23.39.36.85.68,1.26,1q1.86,1.57,3.6,3.29c1,.94,1.9,1.92,2.8,2.93.55.61,1.06,1.24,1.59,1.85.68.78.94,1.87-.69-.94,1.49,2.55,3.4,4.84,4.82,7.47.66,1.23,1.24,2.48,1.84,3.74,1.33,2.82-.85-2.32-.18-.4.25.72.54,1.43.79,2.15a66,66,0,0,1,2.59,9.67c.14.75.25,1.5.39,2.24.37,2-.36-3.7-.08-.59.13,1.51.29,3,.36,4.54a76.48,76.48,0,0,1-.18,10c0,.61-.11,1.22-.17,1.83-.11,1.06-.94,3.75,0-.1-.38,1.47-.51,3-.82,4.53a82.69,82.69,0,0,1-2.65,9.82c-.49,1.47-1,2.91-1.58,4.37-.89,2.43.37-.63.36-.79a9,9,0,0,1-1.14,2.55,90.63,90.63,0,0,1-4.83,9q-1.21,2-2.53,3.89c-.63.93-3.78,4.64-1.08,1.63-2.36,2.63-4.51,5.38-7,7.9a167.73,167.73,0,0,1-15.38,13.56l-2,1.55c-2.61,2.06,1.77-1.35.07-.05l-4.39,3.36q-5.23,4-10.43,8c-11.48,8.94-21.89,18.64-30.26,30.62a113.8,113.8,0,0,0-16.5,36.82c-6.88,27-5.25,55.85,1.83,82.58,3.65,13.78,9.47,26.67,14.53,40a124.53,124.53,0,0,1,6.34,21.2,12.69,12.69,0,0,1,.45,2.64c.15-3.22-.13-1,0,0,.18,1.79.3,3.59.31,5.39,0,1.35,0,2.71-.14,4.06,0,.54-.14,1.1-.15,1.64.12-4.3.18-1.28,0-.09a49.81,49.81,0,0,1-2.16,8c-.23.63-.57,1.27-.74,1.91.86-3.32.8-1.87.26-.75q-1,2-2.13,3.91c-.42.68-.89,1.33-1.32,2-1.19,1.9.59-.76.78-.93-1,.94-1.86,2.22-2.87,3.22-.48.48-3.74,3.31-1.78,1.7s-.08,0-.46.24c-.64.42-1.3.82-2,1.19s-1.44.61-2.07,1c2.67-1.72,2.31-.89,1.2-.58-1.27.36-2.53.7-3.81,1-2.85.71,3.44-.25.41-.05-.55,0-1.09.09-1.64.12-1.6.07-3.16,0-4.75-.1-2.88-.13,3.53.71.74.11-.48-.1-1-.18-1.46-.29a33.79,33.79,0,0,1-3.55-1c-1.16-.36-2.27-.88-3.43-1.24,4.52,1.4,0-.06-1.26-.71-10.26-5.22-19.39-12-30.34-15.9-13.24-4.71-28.14-4-40.51,2.79s-20.66,18.74-25.91,31.51a70.42,70.42,0,0,0-4.59,17.71c-1,7-.65,14-.77,21.13,0,3.2-.17,6.39-.41,9.57-.11,1.53-.29,3.05-.44,4.57-.2,2.08.6-3.67.08-.56-.15.91-.29,1.82-.45,2.73a97.65,97.65,0,0,1-2.33,9.84q-.74,2.5-1.58,5c-.3.87-.6,1.73-.92,2.6-.22.61-.45,1.21-.69,1.82l.8-1.88c-.79.92-1.2,2.48-1.82,3.55s-1.42,2.23-2.15,3.32c-1.61,2.41,2.21-2.5.26-.36-.35.39-.68.79-1,1.18a46,46,0,0,1-3.37,3.33,20.63,20.63,0,0,0-1.82,1.52c2-2.19,1.91-1.41,1-.76-1.11.75-2.2,1.51-3.34,2.2s-2.33,1.34-3.53,2c-.72.36-1.46.69-2.19,1-2.66,1.27,3.16-1.14.36-.17a76.2,76.2,0,0,1-7.84,2.39c-1.34.32-2.69.56-4.05.8-3,.53,3.52-.31.47-.06-.82.07-1.64.16-2.46.22a61.24,61.24,0,0,1-8.24,0c-.82,0-1.63-.14-2.45-.21-1.2-.11-1.7-.77,1.31.18-1.47-.46-3.21-.57-4.73-.88a172.12,172.12,0,0,1-17.08-4.17c-1.36-.43-2.7-.88-4-1.36-.66-.24-1.31-.51-2-.75-1.85-.67,3.3,1.53.66.29a55.41,55.41,0,0,1-7.82-4.28,10.69,10.69,0,0,0-1.29-.91c2.86,1.27,1.62,1.3.42.24-1-.86-1.81-1.8-2.71-2.72-1.53-1.55.66.82.76,1.07a15.91,15.91,0,0,0-1.28-1.91,42.75,42.75,0,0,1-2.2-4.32c-1-2.15.4.76.41,1a10.62,10.62,0,0,0-.95-2.44c-.51-1.39-1-2.8-1.4-4.21s-.82-2.88-1.16-4.34-.27-4-1-5.3c.13.25.34,3.55.17,1.09-.07-.89-.16-1.77-.21-2.65-.08-1.46-.09-2.92,0-4.38,0-.58,0-1.15.1-1.73l.07-.85c.17-1.54.11-1.13-.18,1.21.68-1.32.68-3.41,1.14-4.87a15.76,15.76,0,0,0,.53-1.55c-.67,3.31-.77,1.68-.1.37.52-1,1.94-2.42,2.14-3.47-.06.34-2.26,2.53-.65.93.55-.54,1.06-1.13,1.63-1.66.38-.36.78-.68,1.16-1,1.92-1.77-2.89,1.79-.06.11,1.12-.67,2.2-1.38,3.36-2,.58-.31,1.18-.58,1.77-.88,2.49-1.28-2.61.92-.81.31,2.81-1,5.55-2,8.43-2.76,5.18-1.38,10.45-2.35,15.67-3.51,11.91-2.64,22.77-8.41,32.76-15.31,11.42-7.9,21.89-17.34,29.3-29.2a57.34,57.34,0,0,0,7.85-41.43c-1.35-7.26-10.53-12-17.34-9.84-7.77,2.51-11.28,9.55-9.84,17.33l.16.87q.38,2.31-.14-1.16a8.65,8.65,0,0,0,.16,2.13,37,37,0,0,1,0,4.21,16.22,16.22,0,0,0-.18,2.07c-.23-3.53.28-2,0-.47a39,39,0,0,1-1.16,4.4c-.21.66-.46,1.31-.68,2-1,2.86,1.48-3,.13-.28-.63,1.27-1.23,2.54-1.92,3.77s-1.46,2.47-2.25,3.66q-.48.72-1,1.44c-.33.47-.68.94-1,1.41,1.32-1.68,1.51-1.94.58-.76a98.44,98.44,0,0,1-13.68,13.32c-2.43,2,1.94-1.41.27-.22l-1.88,1.37q-1.89,1.36-3.84,2.64-4.25,2.79-8.71,5.25c-2.52,1.39-5.21,2.52-7.72,3.93,4.28-2.41,1.2-.54-.3-.07-1.16.37-2.33.69-3.51,1-5.43,1.37-11,2.3-16.39,3.62-13.74,3.34-26.71,9.3-34.89,21.29-8.55,12.52-8.27,29.45-4.88,43.61a77.27,77.27,0,0,0,7.63,19.94C939.77,824,945.27,829,951.39,833c10.53,6.86,23.34,10,35.52,12.51,13.59,2.77,27.32,3.08,40.67-1.19,13.62-4.36,25.27-12.33,33.64-24,4.2-5.84,6.67-12.85,8.76-19.67a117,117,0,0,0,4.35-22.79,200.88,200.88,0,0,0,.67-21.25c0-2.92.06-5.79.3-8.7s-.48,2.85-.13.91c.12-.68.22-1.35.34-2,.31-1.62.68-3.22,1.12-4.81.36-1.33.77-2.65,1.22-3.95.27-.78.57-1.54.86-2.32.42-1.14,1.12-1.22-.48,1.09,1.65-2.4,2.63-5.4,4.23-7.88.43-.68.91-1.32,1.35-2,1.24-1.89-.61.77-.78.94.93-.9,1.67-2,2.56-3s2-2,3.05-3c.48-.41,1-.78,1.47-1.23-2.68,2.75-1.4,1.08-.39.41a35.5,35.5,0,0,1,3.57-2.1c.55-.28,1.17-.49,1.7-.81-3.33,1.95-1.79.75-.56.35s2.44-.66,3.67-1,2.08.15-1.47.14c1,0,2.09-.2,3.12-.22,1.41,0,2.81.1,4.21.16,1.17.06,1.88.74-1.28-.21.75.23,1.61.27,2.38.43,2.84.59,5.42,1.73,8.18,2.53-4.22-1.22-.47-.17.79.45s2.24,1.14,3.34,1.74c2.4,1.32,4.76,2.74,7.1,4.16a123.46,123.46,0,0,0,13.52,7.45c14.07,6.26,29.19,7.54,43.4.78,12.64-6,21.13-19,25.22-32,4.65-14.71,2.92-30.52-1.5-45.06-4.34-14.24-11.12-27.6-15.66-41.77a182,182,0,0,1-5-19c-.62-3.06-1.12-6.14-1.62-9.22-.53-3.29.4,3.34,0,0-.07-.62-.15-1.23-.22-1.85q-.32-2.79-.54-5.58a150.64,150.64,0,0,1-.29-19.93c.09-1.68.21-3.37.36-5.05.12-1.29.79-3.32.49-4.55.43,1.76-.39,2.62-.14,1,.14-.9.27-1.8.43-2.7.3-1.8.64-3.58,1-5.36a124.15,124.15,0,0,1,5.48-18.1c1.09-2.87-1,2.31-.21.47.31-.68.6-1.37.92-2.05.63-1.35,1.29-2.7,2-4a97.17,97.17,0,0,1,5-8.54q1.24-1.9,2.58-3.73c.55-.76,2.59-2.79,0-.05.41-.44.77-1,1.15-1.43a102.2,102.2,0,0,1,7.33-8,145.2,145.2,0,0,1,16.72-14.3c-.32.24-2.46,1.89-.47.37l2.4-1.84,4-3c3.62-2.76,7.23-5.53,10.79-8.36a160,160,0,0,0,15.69-14,106.73,106.73,0,0,0,23.58-38.08c10-27.54,6.77-59.13-11.53-82.35-16.65-21.13-44.81-31.83-71.2-27.48-30.46,5-50,33.5-58.39,61.05-4.64,15.12-6.53,30.88-9.17,46.43a244.92,244.92,0,0,1-9,37.19c-.95,2.81-2,5.59-3,8.35-.27.69-.55,1.37-.83,2.05-.75,1.87,1.46-3.29.22-.52-.73,1.6-1.44,3.2-2.2,4.79a116,116,0,0,1-9.09,15.68,41.35,41.35,0,0,0-2.51,3.44c1.74-3.19.85-1.1.1-.19-.45.55-.91,1.09-1.37,1.62a81.44,81.44,0,0,1-6.45,6.69c-1,.95-2.09,1.88-3.18,2.78a19.56,19.56,0,0,0-1.65,1.33c2.43-2.62,1.13-.87.13-.16a73.92,73.92,0,0,1-8,5c-1.48.79-3,1.49-4.5,2.21-2.33,1.1.34-.06.61-.24a13.53,13.53,0,0,1-2.8,1.08,106.88,106.88,0,0,1-10.5,3.22c-6.86,1.74-13.85,2.92-20.84,4-14.13,2.16-28.51,3.83-42,8.69-28.58,10.25-49.48,33.13-62.3,60.16-14.21,30-20.62,62.86-31,94.2-5.12,15.52-10.68,30.94-16.92,46-.25.6-.51,1.2-.75,1.8,1.43-3.61.18-.46-.12.23-.65,1.49-1.31,3-2,4.46q-2.23,4.88-4.76,9.62-2.28,4.27-4.85,8.38c-.86,1.36-1.74,2.7-2.66,4-.54.79-1.1,1.57-1.67,2.35l-.57.77c-.91,1.21-.76,1,.45-.58-.43,1.22-2.18,2.65-3.07,3.65-1,1.19-2.14,2.34-3.26,3.47s-2.29,2.21-3.48,3.26c-.72.64-1.46,1.24-2.19,1.86-2.53,2.13,2.53-1.74-.21.14a61.21,61.21,0,0,1-7.32,4.44c-.61.31-1.24.59-1.85.9-2.59,1.27,2.53-1,.71-.29-1.55.57-3.09,1.15-4.68,1.63-2.78.84-5.66,1.12-8.44,1.87.21-.06,3.65-.36,1.3-.21-.82,0-1.63.14-2.44.19-1.62.08-3.25.1-4.87,0-1.33-.05-2.67-.3-4-.32,4.45.06.51,0-1-.32-1.28-.29-2.55-.64-3.79-1.05-.61-.2-1.22-.49-1.84-.66q-1.53-.58,1.56.68-.72-.31-1.41-.66a36.34,36.34,0,0,1-3.4-1.89c-.54-.34-1-.79-1.61-1.09-1.61-.86,2.72,2.37.68.53-1-.88-2-1.74-2.88-2.71-.21-.21-1.36-1.8-1.6-1.81l1.06,1.39c-.36-.49-.72-1-1.06-1.49a38.1,38.1,0,0,1-2.27-3.85c-.5-1-1.11-3.47,0,.17-.16-.55-.42-1.09-.62-1.63-.48-1.38-.89-2.78-1.23-4.19-.21-.85-.39-1.71-.55-2.57-.1-.58-.2-1.16-.29-1.74l.28,2c.4-1-.29-3.32-.33-4.47-.07-1.67-.07-3.35,0-5s.16-3.41.31-5.12c0-.63.11-1.25.18-1.88,0-.42.52-4.4.2-1.92s.12-.69.16-1c.15-1,.31-1.91.47-2.87.27-1.61.56-3.21.87-4.81.67-3.55,1.41-7.08,2.14-10.61,3.17-15.36,8.67-34.11-.65-48.37-8.89-13.6-25.24-16.7-40.28-13.75-14.36,2.83-25,12.65-35.85,21.73-1,.85-2.47,2.52-3.7,3l1.35-1-1.52,1.13c-.5.37-1,.74-1.53,1.1-1.29.89-2.61,1.74-4,2.53-.8.47-1.63.92-2.46,1.34-.42.22-.84.42-1.26.62-1,.44-.56.28,1.21-.48-.41.75-3.55,1.23-4.43,1.46s-1.78.38-2.68.58c-2.54.54.91-.28,1.06-.14-.38-.37-4.25.19-5,.16s-1.5-.1-2.25-.13c-3-.15,2.88.62.15,0-1.64-.36-3.27-.68-4.89-1.16-.73-.22-1.46-.46-2.18-.71l-.87-.32c-1.42-.55-1.15-.43.79.38-.55.29-3.62-1.75-4.17-2a55.5,55.5,0,0,1-4.77-2.94,11.83,11.83,0,0,0-1.52-1.09l1.37,1.07c-.49-.39-1-.78-1.45-1.19-1.18-1-2.33-2.05-3.43-3.15s-2.17-2.28-3.18-3.48c-.13-.14-2.21-2.73-.79-.92s-1.05-1.49-1.27-1.81a83.18,83.18,0,0,1-5.15-8.6q-1.16-2.24-2.2-4.52c-.32-.69-2-3.64-.19-.34a26.32,26.32,0,0,1-1.13-2.82,185.28,185.28,0,0,1-6.32-20.37c-1.94-7.52-3.64-15.1-4.88-22.77-.15-.9-.28-1.8-.42-2.7-.57-3.55.24,2.22,0,0-.22-2-.46-4-.64-6-.34-4-.52-7.92-.5-11.89a106.62,106.62,0,0,1,.58-10.72c.07-.69.12-1.43.24-2.12-.67,3.82,0,.21.14-.48q.55-3.15,1.35-6.26c.27-1.07,2.52-10.08,3.26-10l-.75,1.77c.23-.53.46-1,.7-1.58s.49-1,.75-1.55c.75-1.54,1.57-3.06,2.43-4.54.72-1.23,1.48-2.45,2.27-3.63.65-1,2.16-2.37,2.46-3.5l-1.16,1.5c.35-.45.71-.9,1.07-1.34s.73-.88,1.1-1.31c1.12-1.3,2.27-2.56,3.47-3.79a85.22,85.22,0,0,1,6.64-6.1,12.89,12.89,0,0,0,1.67-1.34c-2.19,2.56-1.18.91-.09.13q1.92-1.4,3.92-2.68a90.76,90.76,0,0,1,7.89-4.52c1.29-.66,2.6-1.29,3.92-1.88a12.39,12.39,0,0,0,1.59-.7q-3,1.28-1,.42l1.62-.62a92.74,92.74,0,0,1,17.64-4.7c.38-.06,3.27-.51.71-.12s.32,0,.71-.06c1.45-.15,2.89-.26,4.34-.34a86.75,86.75,0,0,1,9.54,0c1.5.09,3,.21,4.48.37.91.09,4,.64-.15-.07.59.1,1.19.17,1.79.27,3.28.51,6.53,1.17,9.76,1.94a167.68,167.68,0,0,1,18.73,5.82c3,1.13,6,2.34,9,3.56,2.3.94-.53-.3-.8-.35a14.74,14.74,0,0,1,2.56,1.1l5.1,2.25c24.15,10.82,48.31,24.15,74.77,28.27,14.43,2.25,29.25,2.42,43.39-1.77,15.73-4.66,29.7-14.46,37.69-29,7.71-14,9.92-30,11.24-45.72a322.1,322.1,0,0,0,.46-47.72,350.76,350.76,0,0,0-7-51c-3.16-14.72-7.06-29.6-12.73-43.57-5.57-13.74-12.86-26.59-25-35.53-13.64-10-31-10-45.9-2.76-14.67,7.17-24.3,21.1-32.54,34.63-2,3.33-4,6.68-6.15,9.95-.89,1.39-1.81,2.78-2.77,4.12a13.15,13.15,0,0,0-1.12,1.55c1.24-1.58,1.38-1.77.43-.59-.4.5-.82,1-1.24,1.47a44.27,44.27,0,0,1-3.3,3.41,8.76,8.76,0,0,0-1.41,1.25l1.38-1.05c-.49.38-1,.73-1.52,1.07s-1,.66-1.57,1l-.81.44q-2.05,1,.85-.28a12.91,12.91,0,0,1-2.2.72c-.45.13-.9.24-1.36.33q-2.31.4,1.14-.14a12.53,12.53,0,0,0-1.72.06l-.86,0q-2.31-.19,1.2.23c-.89-.54-3.08-.76-4.13-1.08-2.79-.83,2.23,1.21.59.24-.62-.37-1.29-.67-1.92-1-.17-.1-2.16-1.49-2.21-1.45.27-.2,2.65,2.27.08,0-1.12-1-2.13-2.11-3.15-3.23-2.13-2.32,1.67,2.66,0,0-.32-.51-.68-1-1-1.51-.81-1.28-1.48-2.62-2.17-4-1.45-2.78,1,3,.07.06-.32-1.06-.68-2.08-1-3.14-.39-1.44-1.38-3.81-1.14-5.31l.19,1.59c-.09-.72-.17-1.44-.23-2.16-.09-.91-.15-1.82-.2-2.72a106.35,106.35,0,0,1,.14-12.11c.47-7.75,1.5-15.47,1.83-23.23.73-17.22-2.58-34-13.76-47.5-9.33-11.29-23.6-18.69-37.63-22.25-25.58-6.51-53.92-1.4-76,12.88-24.12,15.58-40.79,41.67-42.66,70.58-.9,14,2.87,28.23,9.76,40.37s16.9,21.5,27.69,30.25c9.83,8,19.41,16.37,27.85,25.82,1,1.18,2.09,2.38,3.1,3.59.39.48.78,1,1.18,1.46,2.11,2.5-1.83-2.55.09.08,1.77,2.43,3.5,4.88,5.06,7.47.74,1.24,1.45,2.5,2.11,3.78.39.76.74,1.53,1.12,2.28,1,2.09-.37-.81-.42-1.07.5,2.8,1.95,5.54,2.49,8.4,1.39,7.25,10.5,12.05,17.33,9.84,7.75-2.51,11.33-9.56,9.84-17.33Z"/><path class="cls-3" d="M818.51,573.11V478.27c0-16.46-7.18-30.57-21.91-30.57-12.33,0-23.27,6.14-38.33,16.42v109c0,25.7,21.09,16.46,23.69,22.53H691.44c2.6-6.07,23.68,3.17,23.68-22.53V411.43a6.41,6.41,0,0,0,0-.9,30,30,0,0,0-1.07-7.92c-.74-2.36-2.52-5.2-5.28-8.55l-12.38-14.68c2.77-1.2,6.07-2.72,9.78-4.58,2.72-1.4,5.73-3,9-4.7,1-.54,2-1.12,3.1-1.7q13.55-7.42,40.1-23V462.18c25.33-15.76,40.71-25,64-25,21.54,0,39.36,12.33,39.36,39v96.91c0,25.7,21.08,16.46,23.68,22.53H794.83C797.43,589.57,818.51,598.81,818.51,573.11Z"/><path class="cls-3" d="M1010.44,485.73c-.27.32-.43.48-.43.48,29.19,11.61,43.57,32.17,43.57,56.83,0,34.79-27.86,56.62-74.36,63.92h-.05c-1.07.21-2.08.37-3.14.48-1.71.21-3.46.43-5.28.64-.79.11-1.54.16-2.28.21C950.41,609.68,933.42,607,921,604a8.19,8.19,0,0,1-1.06-.26c-1.44-.38-2.83-.7-4.16-1.07-3.25-.8-6.33-1.71-9.21-2.72-2-.69-3.46-1.22-4.42-1.6-.48-.21-.8-.31-1-.37a.28.28,0,0,1-.16-.1h-.05c-1.71-.75-3.36-1.55-5-2.35a25.35,25.35,0,0,0-2.71,1.92A21.91,21.91,0,0,0,885,613.67a22.33,22.33,0,0,0,7.62,18.22c5.06,4.42,11.72,6.87,19.81,7.24,7.09.27,18.8-2.4,36-8.25l2.08-.7c13-4.42,23.49-7.35,31.32-8.79a96.88,96.88,0,0,1,22.16-1.7c18.37.75,32.54,6.6,43.35,17.9s15.56,25,14.81,42.34c-1,22.42-10.92,39.58-30.62,52.41-15.5,10.12-35.21,15.93-58.7,17.42a.24.24,0,0,1-.21-.27.23.23,0,0,1,.21-.21,71.8,71.8,0,0,0,25.51-7.46,38.68,38.68,0,0,0,20.35-32.49,25,25,0,0,0-8-19.92c-5.49-4.95-12.73-7.61-21.63-8-3.35-.16-10.54.27-33.77,5.76-16,3.83-29.93,5.48-41.07,5a45.78,45.78,0,0,1-9.32-1.33c-.9-.16-1.7-.37-2.55-.59a63.38,63.38,0,0,1-7.46-2.39c-.11,0-.16-.06-.21-.06A65.74,65.74,0,0,1,884,682.22l-4.74-3.57a26.06,26.06,0,0,1-2.24-1.75c-.42-.38-.85-.7-1.27-1.12-.27-.22-.43-.38-.54-.48l0-.06a40.92,40.92,0,0,1-9.53-13.31,48.74,48.74,0,0,1-4-22.37c.48-11.51,3.78-20.94,10.28-28.66,5.54-6.66,13.42-11.93,23.27-15.82-19.92-10.7-28.12-28-28.12-49.85,0-36.7,30.89-68.5,92.79-68.5h8c15.44,1.39,28.81,4.37,40,8.63,16.72-34.36,35.63-46.5,54.27-43.89v39.58c-19.28-9.86-33.34-7-42-2.56A21.44,21.44,0,0,0,1010.44,485.73Zm-17.85,57c0-52.47-15.07-64.08-33.18-64.08s-34,11.61-34,64.08,15.93,64,34,64S992.59,595.14,992.59,542.78Z"/><path class="cls-3" d="M1239.24,461c0,46.09-36.4,86.63-90.09,86.63-12.82,0-22.17-2.09-34.32-5.56v44.8c0,24.67,22.55,17.49,27.47,22h-98.56c4.93-4.51,27.47,2.67,27.47-22V452.52c0-.63,0-1.26-.08-1.84a31.12,31.12,0,0,0-1.09-8c-.75-2.37-2.54-5.26-5.34-8.64l-12.53-14.86c2.8-1.21,6.1-2.75,9.86-4.63h0c2.75-1.42,5.8-3,9.06-4.76,1-.54,2-1.13,3.13-1.71q13.71-7.51,40.57-23.26v28.39l.71.38c12.82-15.24,33.94-28.77,58.53-28.77C1212.9,384.8,1239.24,422.21,1239.24,461Zm-45.76,13.15c0-42.24-22.5-74.43-49.17-74.43-11.44,0-22.21,8-29.48,16.66v88.25c0,21.16,13.2,36.73,32.57,36.73C1173.07,541.39,1193.48,522,1193.48,474.18Z"/><circle class="cls-4" cx="671.48" cy="735.17" r="8.84"/><circle class="cls-4" cx="708.68" cy="747.14" r="8.84"/><circle class="cls-4" cx="680.32" cy="768.75" r="8.84"/><circle class="cls-4" cx="1145.39" cy="319" r="8.84"/><circle class="cls-4" cx="1182.48" cy="292.34" r="8.84"/><circle class="cls-4" cx="1147.27" cy="281.83" r="8.84"/></svg>