<?xml version="1.0" encoding="utf-8"?>
<!-- Generator: Adobe Illustrator 24.0.1, SVG Export Plug-In . SVG Version: 6.00 Build 0)  -->
<svg version="1.1" id="Layer_1" xmlns="http://www.w3.org/2000/svg" xmlns:xlink="http://www.w3.org/1999/xlink" x="0px" y="0px"
	 viewBox="0 0 1007.87 566.93" style="enable-background:new 0 0 1007.87 566.93;" xml:space="preserve">
<style type="text/css">
	.st0{fill:#59C5C7;}
	.st1{fill:#EFC7D7;}
	.st2{fill:#CB4972;}
	.st3{fill:#BF1F51;}
	.st4{fill:#F5DBE5;}
	.st5{display:none;fill:#F0CBDA;}
	.st6{display:none;fill:#EFC7D7;}
	.st7{display:none;fill:#F3D7E2;}
	.st8{display:none;fill:#C32A5A;}
	.st9{display:none;fill:#D97BA0;}
	.st10{display:none;fill:#FCF4F7;}
	.st11{display:none;fill:#CE5787;}
	.st12{display:none;fill:#BF1F51;}
	.st13{display:none;fill:none;stroke:#C32A5A;stroke-miterlimit:10;}
	.st14{display:none;fill:#FFFFFF;}
	.st15{display:none;fill:#C73966;}
	.st16{display:none;fill:#E7ACC4;}
	.st17{display:none;fill:#EFC9D9;}
	.st18{display:none;fill:none;stroke:#E29AB7;stroke-linecap:round;stroke-miterlimit:10;}
	.st19{display:none;fill:#F9EBF1;}
	.st20{fill:#C4315F;}
	.st21{display:none;fill:#EBBCCF;}
	.st22{fill:#E8B0C7;}
	.st23{fill:#F1CEDC;}
	.st24{fill:#EBBCCF;}
	.st25{fill:#C32A5A;}
	.st26{display:none;fill:#F2D2DF;}
	.st27{display:none;fill:none;stroke:#CE5787;stroke-miterlimit:10;}
	.st28{display:none;fill:#F1CEDC;}
	.st29{fill:#CA426D;}
	.st30{fill:#C63563;}
	.st31{fill:#FFFFFF;}
	.st32{fill:#191646;}
	.st33{fill:none;stroke:#FFFFFF;stroke-width:8;stroke-miterlimit:10;}
	.st34{fill:none;stroke:#191646;stroke-miterlimit:10;}
	.st35{fill:none;stroke:#59C5C7;stroke-width:2;stroke-miterlimit:10;}
	.st36{fill:none;stroke:#59C5C7;stroke-width:6;stroke-miterlimit:10;}
	.st37{fill:none;stroke:#FFFFFF;stroke-width:32;stroke-miterlimit:10;}
	.st38{fill:none;}
</style>
<rect class="st0" width="1007.87" height="566.93"/>
<g>
	<polygon class="st1" points="816.24,263.97 787.23,205.6 660.59,256.27 635.57,413.55 843.42,356.91 	"/>
	<path class="st2" d="M567.3,342.61c0-4.7,2.34-9.08,6.24-11.7c14.42-9.67,50.21-32.34,68.27-31.96
		c22.95,0.48-4.3,57.85,31.08,76.02c35.38,18.17,58.8,7.17,83.19-4.3c24.38-11.47,61.67-62.15,61.67-62.15s104.78,66.4,104.78,97.14
		s-7.91,37.22-7.91,37.22L567.3,535.13V342.61z"/>
	<path class="st3" d="M678.72,163.84c-1.77-7.79,0.1-37.6,1.87-44.69c1.77-7.08,13.2-31.89,25.24-43.24
		c12.05-11.35,42.87-8.13,52.07-1.76c9.21,6.38,17.71,2.12,17.71,2.12c31.88-12.4-10.27-48.88-26.57-49.59
		c-16.3-0.71-41.8,19.13-58.8,33.65s-22.32,51.01-27.63,63.05c-5.31,12.04-9.92,49.59-12.04,58.09c-1.1,4.41-6.66,25.91-13.59,47.1
		c-0.15,0.45-0.3,0.9-0.45,1.35c-0.9,2.74-1.83,5.46-2.77,8.13c-5.95,12.79-19.08,30.78-19.54,40.96c-0.58,13.18-3,12.36-7.98,39.01
		s15.23,38.65,22.55,43.34c7.32,4.69,12.3-7.61,16.98-3.22s17.57,11.42,17.57,11.42s-2.05-12.01-0.59-9.95
		c1.46,2.05,4.98,2.63,7.32,7.02c2.35,4.39,11.72,5.57,11.72,3.52c0-2.05,7.32-9.96,8.32-16.11c1-6.14-3.04-18.41-0.43-34.48
		c7.91-21.73,0.91-63.35,0.91-63.35L678.72,163.84z"/>
	<path class="st4" d="M715.09,64.4c72.77-25.68,86.15,23.78,86.15,23.78l16.75,39.67c0,0-6.53,96.47-8.07,102.39
		c-2.43,12.53-14.51,23.77-32.11,36.1c-2.22,1.56-4.38,3.21-6.47,4.94c-17.84,14.68-34.18,18.7-50.24,14.27
		c-0.57-0.16-1.14-0.29-1.73-0.39c-3.29-0.57-17.23-4.18-30.12-25.13c-14.73-23.94-19.47-30.13-20.26-42.1s0.13-43.14,0.53-47.49
		c0.39-4.35,1.45-20.53,5.39-28.82s5.66-28.55,9.74-35.78c3.48-6.17,11.2-24.4,20.59-34.7c2.35-2.58,5.22-4.63,8.37-6.11l0.04-0.02
		C714.11,64.78,714.6,64.57,715.09,64.4z"/>
	<path class="st5" d="M727.6,188.25c2.49-0.12,4.76-8.12,3.75-20.54c-1.01-12.42-3.88-17.99-5.96-19.24s-10.94-10.5-18.82-11.02
		s-21.63-3.04-24.59,2.58c-2.96,5.62-0.1,17.22,6.94,18.91c7.03,1.69,34.91,2.01,34.91,2.01s2.21,0.09,2.08,2.89
		c-0.13,2.79-1.54,9.83-6.24,13.08s0.24,3,3.44,4.95C726.3,183.83,724.87,188.38,727.6,188.25z"/>
	<path class="st6" d="M758.67,153.58c0,0-8.48,6.32-9.15,8.84c-0.68,2.52-6.28,14.89-6.28,20.5s-0.78,9.77,4.17,6.9
		c4.95-2.87,1.04-7.25,4.17-8.71c3.13-1.45,1.95-6.24,2.74-10.23c0.78-3.99,7.9-8.73,7.9-8.73l30.9,14.39c0,0,11.74,0.71,13.56-8.57
		c1.82-9.28,0-11.38,0-11.38l-8.99-3.9l-28.66-4.21L758.67,153.58z"/>
	<path class="st7" d="M775.21,74.13c0,0,5.54,15.84,4.76,23.29c-0.78,7.46-6.71,12.92-2.26,20.13s10.67,9.19,10.92,12.18
		c0.25,2.98-2.26,8.34-1.4,15.88c0.86,7.54,19.44,10.97,19.44,10.97l1.87-28.84l-18.42-44.73L775.21,74.13z"/>
	<path class="st8" d="M729.36,152.65c0,0,0.89-5.61,0-7.52s-20.76-12.23-34.78-12.87c-7.01,0-12.61,7.77-12.61,7.77
		s3.95-4.08,13.63-2.29s14.27,2.93,15.92,4.71c1.66,1.78,1.27,5.22,11.59,8.53C728.93,153.06,729.36,152.65,729.36,152.65z"/>
	<path class="st8" d="M755.73,154.43c0,0,1.66-8.66,3.95-8.79c2.29-0.13,27.52,0.13,33.88,2.29s10.57,8.66,10.57,8.66
		s-5.99-3.57-16.05-3.44c-10.06,0.13-11.97-0.76-14.27-0.13s-7.64,2.8-11.08,3.57C759.3,157.36,755.86,157.23,755.73,154.43z"/>
	<path class="st9" d="M757.26,168.47c0,0,0.2-4.6,4.95-6.33c4.75-1.73,12.01-3.2,15.97-2.37c3.96,0.83,10.66,3.99,12.21,5.49
		s3.69,4.32,4.22,5.24c0.53,0.92-1.5,2.04-1.5,2.04l-14.93-1.94L757.26,168.47z"/>
	<path class="st7" d="M758.67,170.65c0,0,5.48,7.33,13.9,9.75c8.42,2.43,25.35-1.89,23.21-5.48c-2.13-3.59-8.55-5.24-8.55-5.24
		l-21.63-2.73L758.67,170.65z"/>
	<path class="st7" d="M688.91,156.14c-1.88-0.04-1.66,9.71,9.07,11.87c10.73,2.16,17.97-1.5,22.22-2.08
		c4.24-0.58,2.58-3.52,2.58-3.52S699.15,156.34,688.91,156.14z"/>
	<path class="st10" d="M760.85,168.52l6.39,1.41l4.92,2.02l5.09,1.13l10.19-0.29l5.21-0.79l-1.58-3.48l-5.09-4.56l-7.8-2.96
		l-9.9,2.35C768.28,163.35,760.7,166.24,760.85,168.52z"/>
	<path class="st10" d="M690.57,154.37c-0.81,1.15,0.03,1.2,2.23,2.6c6.27,3.98,12.47,4.05,12.47,4.05l10.16,0.62l4.3,0.97
		c0,0,2.76,1.47,3-1.48c0.29-3.59-7.58-8.12-7.58-8.12s-4.25-3.85-6.25-3.85C704.6,149.18,694,149.49,690.57,154.37z"/>
	<path class="st11" d="M702.11,156.04c0,1.93,0.81,3.75,2.26,4.8c0.66,0.47,2.45,0.25,3.96,0.25c1.25,0,2.98,0.41,3.38,0.17
		c1.75-1.04,2.83-3.03,2.83-5.22c0-3.43-2.78-6.22-6.22-6.22C704.89,149.82,702.11,152.6,702.11,156.04z"/>
	<circle class="st12" cx="708.01" cy="155.72" r="2.21"/>
	<path class="st11" d="M784.36,166.78c0-1.17-0.29-2.27-0.79-3.24c-1.17-2.23-5.43-1.87-6.25-1.87c-0.82,0-3.31-1.25-4.53-0.19
		c-1.48,1.28-2.42,3.18-2.42,5.3c0,2.11,0.93,4,2.41,5.29c0.61,0.53,1.1,0.26,1.88,0.56c0.77,0.29,1.73,0.45,2.61,0.45
		c0.92,0,1.91,0.53,2.72,0.2C782.54,172.24,784.36,169.72,784.36,166.78z"/>
	<circle class="st12" cx="777.25" cy="167" r="2.27"/>
	<path class="st7" d="M811.82,211.78c2.88,9.46-1.52,16.98-1.91,18.46c-2.43,12.51-14.49,23.75-32.05,36.06
		c-2.06,1.44-4.08,2.93-6.01,4.54c-10.94,9.11-21.31,14.22-31.4,15.84c0,0,13.34-7.36,16.27-13.79c2.94-6.43,5.32-15.61,12.12-21.67
		c5.07-4.52,16.24-17.37,18.38-23.33C791.89,214.97,809.43,203.93,811.82,211.78z"/>
	<path class="st11" d="M762.23,168.01c-0.18,0.42,0.43,0.81,1.25,0.85c0.81,0.04,2.07,0.43,2.13,0.72c0.06,0.29-4.76,0.7-4.76,0.7
		l-2.18-0.4l-0.47-0.95l1.09-1.22l6.21-3.53l0.94-0.3C766.44,163.88,762.76,166.78,762.23,168.01z"/>
	<path class="st11" d="M719.39,158.24c0.02,0.42,0.93,4.17-2.43,3.67c0.24,0.06,4.54,1.95,5.12,1.06
		C722.96,161.62,719.39,158.24,719.39,158.24z"/>
	<path class="st9" d="M723.1,163.43c1.89-1.51,2.83-2.5-0.65-6.1c-3.48-3.6-7.21-6.15-9.41-6.81c-0.74-0.22-0.73,2.58,1.67,3.11
		c2.35,0.52,3.93,4.12,5.75,6.19C721.88,161.44,723.1,163.43,723.1,163.43z"/>
	<path class="st13" d="M758.32,169.27c0.13,1.29,2.56,1.19,4.67,0.68s4.41-0.14,5.25,0.34s6.59,3.5,14.33,2.92s8.96-1.02,8.96-1.02
		s-5.15-9.24-12.01-9.92c-6.86-0.68-13.58,1.59-15.12,2.46C762.87,165.6,758.2,168.01,758.32,169.27z"/>
	<path class="st8" d="M762,166.25c0,0,6.39-4.48,8.27-4.81c1.28-0.23-3.04,2.1-5.92,3.6C763.03,165.73,762,166.25,762,166.25z"/>
	<path class="st8" d="M764.13,165.1c0,0,1.02-0.21,1.77-0.38c0.74-0.17,1.96-0.4,2.09-0.72s2.44-0.87,2.53-1.27
		c0,0,2.13-0.17,2.48-0.55c0,0,2.82,0.45,3.19,0.25s5.78,1.42,6.53,1.57s2.77,2.52,3.61,2.92c0.85,0.4,2.67,2.72,3.46,3.39
		c0.8,0.67,1.37,1.67,2.04,1.74c0,0-0.51,0.36-0.38,0.56c0.13,0.2,2.76,1.49,3.53,1.45s1.1-0.68,1.1-0.68s-2.6-0.9-2.6-1.32
		c0-0.42,0-2,0-2s-4.16-4.42-5.22-5.33c-1.07-0.91-3.46-2.1-7.25-3.29c-3.78-1.19-8.99-1.33-10.73,0.02s-6.41,3.55-6.41,3.55
		L764.13,165.1z"/>
	<path class="st14" d="M703.66,155.35c0.03-0.59,0.73-0.63,0.99-0.49c0.26,0.13,1.03,0.2,0.38,1.02
		C704.38,156.7,703.66,155.35,703.66,155.35z"/>
	<path class="st14" d="M709.13,155.47c0.07,0.67,1.06,0.28,1.06,0.28s0.2-0.69-0.53-0.63S709.13,155.47,709.13,155.47z"/>
	<path class="st13" d="M718.22,162.26c1.31,0.46,3.16,1.49,3.92,0.48c0.76-1.01-2.29-3.54-3.46-5.72c-1.17-2.17-3.5-5.27-5.39-6.04
		c-1.89-0.76-11.07-2.09-16.9,0.72c-5.84,2.82-5.31,4.29-4.51,4.86s4.87,2.7,8.33,3.75s9.31,0.65,10.38,0.8
		C711.67,161.28,715.98,161.48,718.22,162.26z"/>
	<path class="st14" d="M777.44,166.79c-0.29,0.2-0.25,0.43,0.13,0.54c0.38,0.11,0.76,0.11,0.56-0.27
		C777.93,166.68,777.44,166.79,777.44,166.79z"/>
	<path class="st14" d="M772.54,166.5c-0.56,0-0.68-0.03-0.68,0.27c0,0.3,0.36,0.57,0.68,0.62c0.32,0.05,0.63-0.05,0.72-0.31
		C773.35,166.83,772.54,166.5,772.54,166.5z"/>
	<path class="st12" d="M729.37,227.76c2.23,0.33,3.56-0.4,6.48,0c2.92,0.4,14.78,3.79,16.36,4.19c1.58,0.4,6.72,1.03,8.93,1.11
		c2.21,0.08-33.43,7.19-33.43,7.19l-24.74-17.02l-1.34-0.92c0,0,4.19,0.08,9.25,0.71s9.72,0.47,11.77,1.34
		S726.2,227.29,729.37,227.76z"/>
	<path class="st15" d="M726.13,246.09c6.88,1.31,16.67,2.21,24.02-2.77c7.35-4.98,11.04-8.84,10.98-10.27c0,0-8.44,2.55-12.53,2.13
		c-4.09-0.42-15.31,1.36-19.51,0.89c-4.19-0.47-12.04-5.15-15.68-6.66c-3.64-1.51-10.45-6.19-10.45-6.19
		S707.91,243.13,726.13,246.09z"/>
	<path class="st8" d="M692.02,155.28c-0.33,0.03-0.04,1.04-1.62,1.12c-1.58,0.08-2.49,1.16-2.49,1.16s0.04-1.91,0.58-1.99
		c0.54-0.08,1.62-3.32,4.28-4.73c2.66-1.41,4.53-2.37,9.09-2.37s9.05,0.54,10.92,1.87c1.87,1.33,3.78,3.16,3.99,3.45
		c0.21,0.29-1.33,1.33-1.83,0.29c0,0-1.05,0.02-1.28-0.69c0,0-1.3-0.39-1.54-1.22c0,0-1.54,0-1.85-0.69c0,0-1.56,0.06-1.71-0.43
		c0,0-1.44-0.16-1.73-0.57c0,0-1.26,0.37-1.65-0.08c0,0-1.56,0.02-2.01-0.41c0,0-2.56,0.83-2.98,0.49c0,0-2.36,1.11-3.19,1.33
		c-0.83,0.22-2.86,1.67-4,1.67C692.99,153.47,692.55,155.24,692.02,155.28z"/>
	<path class="st8" d="M715.76,154.23c0,0,0.85,0.83,1.03,1.31c0.19,0.48,1.02,1.85,1.76,2.38c0.74,0.54,1.19,1.99,1.82,2.26
		c0.63,0.27,1.34,1.07,1.34,1.07s-4.31-6.81-4.94-7.47C716.14,153.13,715.76,154.23,715.76,154.23z"/>
	<path class="st16" d="M734.58,217.35c0,0-0.02,1.11,5.3,0.41c5.32-0.7,9.87-0.52,9.6-3.65c-1.04-0.22-9.22-1.75-9.22-1.75
		L734.58,217.35z"/>
	<path class="st17" d="M721.47,195.48c-0.55,0.65-2.8,8.09-1.55,10.44c1.25,2.35,4.34,6.34,8.34,6.94c3.99,0.6,15.53-1.1,17.23-4.24
		s2.25-5.79,1.85-7.44c-0.4-1.65,2.8,2.95-0.15,8.24c-1.4,2.65-7.74,5.64-8.79,6.09c-1.05,0.45-4.54,3.25-5.79,3.4
		c-1.25,0.15-7.64-0.6-10.64-6.19c-3-5.59-3.99-5.39-3.8-8.94C718.38,200.23,721.47,195.48,721.47,195.48z"/>
	<path class="st18" d="M716.38,194.29c0,0-4.09,2.55-3.94,6.84c0.15,4.29,4.29,6.24,6.24,6.79c1.95,0.55,1.28,3.87,5.21,7.38
		c3.93,3.51,7.58,3.56,8.72,3.61c1.15,0.05,8.22-4.99,9.93-5.54c1.71-0.55,5.6,0.5,6.95,0.75s6.14-1.5,6.84-4.19
		c0.7-2.7,0.6-4.59-1.2-6.94"/>
	<path class="st19" d="M740.92,166.5c-0.18-1.12-4.24-2.61-4.62,1.21s-3.29,23.02-2.99,25.1s0.68,6.47,3.23,3.39
		C739.07,193.12,741.61,170.72,740.92,166.5z"/>
	<path class="st3" d="M680.59,119.14c1.77-7.08,13.2-31.89,25.24-43.24c12.05-11.35,42.87-8.13,52.07-1.76
		c9.21,6.38,17.71,2.12,17.71,2.12c31.88-12.4-10.27-48.88-26.57-49.59c-16.3-0.71-41.8,19.13-58.8,33.65s-22.32,51.01-27.63,63.05
		C657.31,135.43,678.83,126.23,680.59,119.14z"/>
	<path class="st20" d="M876.66,345.81c0.4,0.71,0.33,1.59-0.16,2.25l-1.76,2.3c-0.56,0.73-1.53,1-2.39,0.65l-1.68-0.67
		c-1.18-0.47-2.5,0.23-2.76,1.48c-1.58,7.65-7.99,31.23-27.81,37.29c-0.7,0.22-1.47,0.05-2.01-0.45l-6.46-5.98
		c-1.02-0.95-0.82-2.62,0.41-3.3c5.73-3.17,18.91-11.87,15.9-23.44c-3.19-12.29-18.39-9.44-23.29-8.17
		c-0.9,0.23-1.52,1.05-1.52,1.98v4.91c0,0.78-0.45,1.49-1.15,1.84l-15.18,7.4c-0.55,0.27-1.21,0.27-1.77,0.01
		c-1.53-0.72-4.7-2.42-7.57-5.19c-1.54-1.48-4.05,0.12-3.35,2.14c0.36,1.05,0.82,2.05,1.38,2.91c1.16,1.76-0.88,4.01-2.67,2.91
		c-0.09-0.05-0.17-0.11-0.24-0.17c-1.81-1.5-13-9.1-12.59-19.96c0.41-10.86,4.49-14.11,5.95-21.59c1.45-7.46,3.96-20.61,5.47-41.65
		c0.05-0.63,9.1-38.46,9.1-38.46c0.62-6.34,1.07-11.7,1.27-15.2c0.54-9.62,3.76-51.63,3.34-70.87
		c-0.42-19.23-8.99-50.38-12.96-61.04c-3.97-10.66-13.99-16.86-20.06-20.4c-7.03-4.11-4.36-10.07-10.34-12.23
		c-7.7-2.78-9.93-2.3-14.52-3.66c-4.89-1.45-9.93-2.35-15.03-2.57l-3.28-0.14c-12.63-0.55-23.88-10.44-23.88-10.44
		c24.66-20.44,37.42-20.95,54.57-23.3c17.16-2.35,32.21,1.56,62.24,21.46c30.02,19.9,48.53,108.58,54.46,122.54
		c5.84,13.74,0.97,56.39,6.13,73.55c0.08,0.28,0.17,0.55,0.26,0.82c0.04,0.11,0.06,0.2,0.09,0.31c4.06,13.02,7.9,27.88,7.08,35.47
		c-1.63,15.25-11.16,47.12-16.07,50.66C869.76,332.72,874.76,342.45,876.66,345.81z"/>
	<path class="st3" d="M752.17,71.44c0,0,3.24-14.26,13.48-12.03c10.24,2.24,7.7,16.39,11.7,21.62c4.01,5.23,10.31,7.17,12.55,11.95
		c2.24,4.77,21.57,45.59,23.41,77.89s17.88,46.76,24.31,69.37s-5.98,50.64,0,70.41s8.22,34.06,10.32,45.3
		c2.09,11.24-6.47,17.96-18.45,24.75l9.45,8.75c0,0,13.71-3.25,20.91-16.67c7.19-13.42,10.28-22.83,7.61-32.28
		s-20.56-26.72-18.97-46.51c1.59-19.79,14.56-39.58,8.42-57.78s-25.48-36.64-25.93-63.13s-11.32-77.45-20.67-86.78
		s-18.23-2.27-21.87-14.33c-3.64-12.06-19.26-30.83-29.76-20.93S752.17,71.44,752.17,71.44z"/>
	<path class="st21" d="M713.84,193.94c0,0-4.56,5.89-9.62,7.72c-5.07,1.83-10.37,3-11.84,6.24s-2.53,4.77-1.89,5.01
		c0.65,0.24,3.59-5.56,6.42-6.32c2.83-0.75,9.84-3.17,11.84-4.64S713.62,196.89,713.84,193.94z"/>
	<path class="st21" d="M776.49,225.93c0,0-2.48-5.36-5.27-7.01c-2.8-1.65-6.98-6.89-8.92-10.31c-1.94-3.42-2.83-4.59-2.83-4.59
		s-0.47,4.06,1.06,5.66s5.77,9.31,8.95,10.72C772.66,221.81,776.49,225.93,776.49,225.93z"/>
	<path class="st19" d="M721.72,201.1c-0.15-0.18-0.45-0.11-0.51,0.11c-0.24,0.98-0.64,3.11,0.14,4.38c1.04,1.69,2.02,3.75,5.32,5.28
		c1.55,0.72,8.18,0.99,8.56,0c0.7-1.8-7.79,0.2-10.34-3.87C722.56,203.24,723,202.59,721.72,201.1z"/>
</g>
<g>
	<g>
		<path class="st22" d="M505.11,234.68c0,0,2.55,3.83,4.85-6.25c2.3-10.08,2.55-10.34,5.36-15.57c2.81-5.23,4.03-12.13,3.29-14.3
			c-0.74-2.17-12.23,7.79-12.23,7.79L505.11,234.68z"/>
		<path class="st23" d="M511.74,194.71c0,0,2.17-3.45,3.7-3.06c1.53,0.38,4.59,1.66,3.7,5.74c-0.89,4.08-0.89,0.13-4.85,5.49
			c-3.96,5.36-7.15,9.45-7.15,9.45L511.74,194.71z"/>
		<path class="st24" d="M307.38,317.16l55.6,101.15c0,0,149.05,11.05,150.05-35.84c1-46.89-15.74-72.68-15.74-72.68l-32.15-23.45
			c0,0-110.75-2.15-119.85,4.11S307.38,317.16,307.38,317.16z"/>
		<path class="st1" d="M345.57,233.76c0,0-3.35,19.09-5.02,31.82s-1.41,106.13-9.45,121.53c-8.04,15.41,128.35,49.96,140.08,13.45
			c11.72-36.51-2.68-24.45-2.68-24.45s8.37-78.42,8.37-90.12S345.57,233.76,345.57,233.76z"/>
		<path class="st3" d="M312.77,321.79c-0.16-0.92-0.13-1.85,0.09-2.76c0.98-4.02,4.09-15.33,8.48-16.58l-57.76,29.78
			c-6.69,3.45-10.8,10.43-10.57,17.95l3.68,121.59l324.2,50.32V367.61c0-13.25-7.29-25.43-18.97-31.68
			c-14.34-7.68-33.83-18.09-47.52-25.27c-4.26-2.24-9.23,0.72-9.64,5.51c-0.12,1.36-0.57,2.69-1.51,3.89
			c-4.75,6.11-14.91,26.65-17.17,31.25c-0.3,0.61-0.69,1.18-1.16,1.67l-13.12,13.83c-0.22,0.23-0.46,0.45-0.71,0.65l-16.99,13.45
			c-0.17,0.13-0.34,0.26-0.52,0.38l-13.16,8.52c-0.74,0.48-1.56,0.81-2.43,0.97l-19.02,3.55c-0.12,0.02-0.24,0.05-0.35,0.08
			l-17.88,4.34c-0.59,0.14-1.19,0.21-1.79,0.19l-23.61-0.7c-0.75-0.02-1.5-0.17-2.2-0.44l-31.58-12.01
			c-1.66-0.63-3.01-1.89-3.74-3.51l-3.3-7.23c-0.1-0.21-0.21-0.42-0.32-0.62l-7.75-13.17c-0.08-0.13-0.15-0.27-0.22-0.4l-8.73-17.45
			c-0.24-0.48-0.42-0.99-0.54-1.52l-2.84-12.44c-0.03-0.12-0.05-0.23-0.07-0.35L312.77,321.79z"/>
		<path class="st25" d="M253.05,348.28c0,0,49.15-24.39,52.98-24.39s-2.68,20.3,13.4,45.57c16.08,25.28,35.23,37.15,62.04,38.3
			c26.81,1.15,63.57-6.57,87.31-26.65c23.74-20.07,41.36-48.41,40.98-57.22l71.13,36.84v-5.5c0-5.57-3.05-10.69-7.95-13.33
			c-22.19-11.98-83.7-45.07-91.52-47.89c-9.57-3.45-1.91,5.74-1.91,5.74s13.79,8.81,13.79,18.76c0,9.96-18.38,43.48-42.51,56.4
			c-24.13,12.92-38.71,20.9-66.63,18.66s-46.72-18-54-36.38c-7.28-18.38-12.64-36-11.49-38.3c0.88-1.76,12.7-14.68,20.46-20.69
			l0.26-5.1c-24.83,11.23-78.77,37.55-82.94,41.98C253.15,338.6,253.05,348.28,253.05,348.28z"/>
		<path class="st3" d="M479.84,52.14c0,0,19.4,1.71,21.97,13.41c0,0,10.56,2.85,11.55,11.41c1,8.56,12.98-1.43,9.27,27.67
			c0,0,0.85,9.99,0.71,15.69c-0.14,5.71,7.56,15.24,2.14,38.01c-5.42,22.76-9.78,27.74-9.78,27.74l-6.28-52.62l-30.62-17.39
			l-28.93-29.97l6.56-36.8L479.84,52.14z"/>
		<path class="st4" d="M415.12,338.22c0.81,0.06,1.61,0.16,2.4,0.32c6.83,1.37,14.25,3.73,23.1,1.17
			c9.51-2.74,20.48-21.07,25.6-24.61c5.12-3.55,19.93-16.71,26.33-34.64c6.4-17.92,10.79-27.61,12.44-35.29
			c1.65-7.68,3.7-34.42,5.67-40.78c2.09-6.72,8.78-31.64,7.86-41.88c-0.91-10.24-6.94-40.9-18.71-45.83
			c-11.77-4.93-13.54,2.61-48.03-19.83s-55.44,0.94-59.54,3.41c-4.11,2.46-14.78,12.59-15.33,16.15c-0.55,3.56,0.82,21.9-2.46,24.36
			s-12.04,4.65-16.42,10.13s-4.11,21.08-4.65,24.36s-8.21,14.51-12.32,17.24c-4.11,2.74-6.3,10.13-5.47,12.87
			c0.82,2.74,7.12,14.78,7.12,18.89c0,4.11-1.09,26,1.09,34.22c2.19,8.21,7.66,21.62,12.59,27.51c4.93,5.89,25.46,44.76,44.62,49.69
			C409.33,337.63,413.48,338.11,415.12,338.22z"/>
		<path class="st5" d="M434.4,204.04c0,0,2.42-14.17-4.98-19.41c-7.4-5.25-31.15-13.99-38.3-11.43s-17.36,7.24-18.58,9.07
			c-1.22,1.82,6.72,8.07,11.42,7.84s12.19-3.29,12.47,3.42c0.29,6.71,21.64,4.55,21.64,4.55S428.15,195.14,434.4,204.04z"/>
		<path class="st6" d="M458.08,203.36c0,0,7.89-8.61,14.04-10.56s27.89-3.08,32.19,2.25c3.46,4.29,6.25,5.2,5.71,12.16
			c-0.03,1.46-0.56,2.69-0.8,5.02c-0.28,2.67-0.48,4.26-0.59,4.49c-0.6,1.22-3.36-6.45-12.01-6.43
			c-11.52,0.03-10.96,0.93-10.96,0.93l-17.59-3.05C468.07,208.18,468.76,201.42,458.08,203.36z"/>
		<path class="st4" d="M343.67,191.96c0,0,3.25-17.47-4.29-24.06c-7.54-6.59-11.71-11.42-16.01-8.87
			c-4.3,2.55-5.38,12.61-5.51,16.12c-0.13,3.51,0.13,9.42,0,12.24c-0.13,2.82,1.75,8.87,1.61,12.1c-0.13,3.23,1.88,22.31,8.6,27.69
			s13.54,2.23,15.32,5.51C345.19,235.97,343.67,191.96,343.67,191.96z"/>
		<path class="st22" d="M340.18,195.6c0,0-0.27-4.98-1.61-7c-1.34-2.02-4.7-10.48-5.91-13.71s-5.11-6.72-6.72-8.87
			c-1.61-2.15-4.97-3.36-5.38,3.09c-0.4,6.45,0.54,17.88,1.08,18.95c0.54,1.08,11.02,30.06,15.73,28.27
			C342.06,214.54,340.18,195.6,340.18,195.6z"/>
		<path class="st1" d="M320.45,196.67c0.49,4.42,1.31,10.53,6.01,11.83c4.7,1.3,1.37-4.92,5.78-2.69c2.15,1.48,1.83,7.73,4.44,7.93
			s2.7-2.96,2.7-2.96l-2.57-5.57c0,0-6.04,0.87-6.31-5.18c-0.27-6.05-2.69-11.09,6.72-14.01s-9.21-17.58-9.21-17.58
			s-1.81,4.44-2.75,9.28C324.32,182.55,319.55,188.47,320.45,196.67z"/>
		<path class="st8" d="M370.33,182.99c0,0,13.02-4.59,23.1-4.34c10.08,0.26,10.85,1.53,17.74,2.68c6.89,1.15,16.98,4.59,19.02,6.25
			c2.04,1.66,4.79-4.19,4.79-4.19c-0.13-0.38-5.44-8.61-23.17-10.49c-21.36-2.26-21.19-2.94-31.02,1.28
			C374.31,177.86,370.33,182.99,370.33,182.99z"/>
		<path class="st8" d="M468.03,195.6c0,0,3.33-7.07,5.43-7.72c2.37-0.74,23.82-0.27,29.25,2.35c3.38,1.63,8.75,7.16,9.26,9.19
			c0.51,2.03-3.16,7.07-3.16,7.07s-3.46-7.9-11.54-9.16c-8.08-1.25-20.47-1.37-23.54-1.73C470.67,195.24,468.03,195.6,468.03,195.6z
			"/>
		<path class="st21" d="M417.89,318.12c0.11-1.54,10.07,0.18,10.37,1.47c0.3,1.3-1.3,2.81-1.97,4.24c-0.67,1.43-3.61,1.26-4.12,0
			S417.64,321.73,417.89,318.12z"/>
		<path class="st12" d="M399.83,274.45c0,0,9.66,0.67,15.2,0c5.24-0.63,14.24-1.87,19.71,3.02c0.63,0.57,1.5,0.79,2.34,0.65
			c1.75-0.29,4.86-0.65,7.77-0.14c4.37,0.76,13.02,5.12,17.47,4.87l-16.97,9.07l-31.33-7.98L399.83,274.45z"/>
		<path class="st15" d="M430.49,299.06c6.26,1.02,15.37,1.51,20.83-1.85c5.24-3.23,9.28-7.23,8.46-12.3
			c-0.04-0.27-0.34-0.44-0.58-0.31c-0.81,0.43-2.9,1.05-7.79,0.34c-6.97-1.01-10.41,0.92-16.63-0.08
			c-6.22-1.01-12.04-4.28-15.98-4.96s-4.85-0.42-7.46-1.26s-9.13-2.61-9.63-2.94c-0.5-0.33,2.63,5.39,4.64,7.86
			c0.02,0.03,0.04,0.05,0.05,0.08C406.76,284.46,412.15,296.06,430.49,299.06z"/>
		<path class="st8" d="M390.47,195.18c0,0,4.13-5.08,11.16-5.05c5.46-0.14,10.28,0.29,12.24,1.31s5.31,5.5,5.31,5.5l-4.7-2.79
			l-16.72-0.61l-3.22,1.64H390.47z"/>
		<path class="st7" d="M386.99,196.94c0,0-3.2,6.09,6.01,10.06c9.21,3.97,20.79,1.82,24.04,1.82c3.25,0,8.99-0.39,9.59-0.94
			s-11.41-10.48-11.41-10.48S389.32,192.08,386.99,196.94z"/>
		<path class="st26" d="M465.62,213.36c0.99,0.34,5.26,6.8,13.92,7.92c8.67,1.12,15.97-1.73,13.84-6.35
			c-2.13-4.62-9.75-5.33-9.75-5.33h-19.49l-1.97,0.8C462.18,210.4,461.51,211.93,465.62,213.36z"/>
		<path class="st8" d="M465.88,207.22c0,0,4.33-4.41,10.25-4.26c5.92,0.15,11.44,2.42,12.23,3.06c0.79,0.64,3.06,2.12,3.6,3.8
			c0.54,1.68,1.18,4.63,1.18,4.63s-4.29-5.52-6.21-6.7c-1.92-1.18-6.89-2.91-9.49-3.31C474.84,204.04,472.2,203.88,465.88,207.22z"
			/>
		<path class="st19" d="M390.47,195.18c0,0,1.14,4.06,13.93,6.68c8.06,1.31,10.87-0.22,12.74,0.19c1.87,0.41,3.78,0.12,5.56,0.76
			s-1.63-2.93-1.63-2.93l-7.47-2.32l-9.85-0.28l-8.55-0.79C395.19,196.49,392.16,194.88,390.47,195.18z"/>
		<path class="st19" d="M464.51,210.23c0,0-0.48,0.67,1.97,0.88c2.46,0.21,4.89,1.39,5.77,1.67c0.88,0.28,3.13,1.74,8.88,2.57
			c5.75,0.83,12-0.91,12-0.91s-0.29-1.43-3.56-1.85s-14.69-1.35-14.69-1.35l-6.86-2.97L464.51,210.23z"/>
		<path class="st10" d="M391.12,195.18c0,0,4.81-3.34,9.4-3.79c4.59-0.45,9.55-0.78,13.17,1.19c3.62,1.98,8.88,7.19,10.03,9.47
			c1.16,2.28-2.95-0.96-6.68-0.81c-3.73,0.15-9.59,0.26-12.31-0.3C402.02,200.38,393.51,197.82,391.12,195.18z"/>
		<path class="st10" d="M462.18,210.4c-0.46,0.76,4.61,0.04,6.25,0.3c1.64,0.26,7.42,2.52,9.5,3.08c2.08,0.56,11.33,1.17,14.8,0
			c0,0-1.75-5.9-8.2-7.94s-10.72-2.04-12.8-1.48C469.64,204.92,463.83,207.67,462.18,210.4z"/>
		<path class="st11" d="M412.46,194.42c0-0.91-0.17-1.78-0.48-2.58c-5.66-1.36-13.32-0.22-13.32-0.22c-0.36,0.86-0.56,1.8-0.56,2.8
			c0,2.17,0.96,4.11,2.48,5.43c0.95,0.62,6.29,1.62,7.02,1.37C410.42,200.26,412.46,197.58,412.46,194.42z"/>
		<circle class="st12" cx="405.48" cy="193.54" r="3.41"/>
		<path class="st27" d="M424.59,198.08c0,0-2.1-7.61-9.65-9.76s-15.27-2.65-19.19-1.93c-3.91,0.72-13.01,5.69-13.01,5.69"/>
		<path class="st11" d="M417.57,201.24c0,0,3.41-0.83,1.61-4.3c0,0,4.5,3.85,4.72,5.55c0.02,0.82-1.98-0.19-2.74-0.44
			C420.4,201.79,417.57,201.24,417.57,201.24z"/>
		<path class="st11" d="M469.55,208.27c0,1.01,0.2,1.97,0.57,2.85c0,0,9.79,3.96,10.98,3.11c1.86-1.33,3.07-3.5,3.07-5.95
			c0-0.95-0.18-1.87-0.51-2.7c-4.73-1.75-12.48-1.71-13.23-0.78C469.87,205.82,469.55,207.01,469.55,208.27z"/>
		<circle class="st12" cx="476.48" cy="207.22" r="3.18"/>
		<path class="st14" d="M404.44,191.05c0,0-0.65,1.74,1.3,2.43c1.95,0.7,3.29-0.14,3.57-1.95
			C409.31,191.53,408.85,190.49,404.44,191.05z"/>
		<circle class="st14" cx="403.36" cy="194.8" r="0.38"/>
		<path class="st14" d="M474.66,204.98c0,0,0,2.44,2.44,2.41c2.44-0.04,2.69-1.65,2.3-2.91C476.87,204.04,475,203.35,474.66,204.98z
			"/>
		<circle class="st14" cx="473.82" cy="208.58" r="0.31"/>
		<path class="st11" d="M465.65,209.24c0.2,0.58,0.83,1.41,1.22,1.4c0,0-3.13,0.15-3.68,0.11c-0.55-0.04-1.04-0.08-1.02-0.22
			c0.02-0.14,1.22-1.6,1.67-1.96s1.92-1.3,2.04-1.36C466,207.16,465.32,208.28,465.65,209.24z"/>
		<path class="st13" d="M462.18,210.4c-0.46,0.76,4.61,0.04,6.25,0.3c1.64,0.26,7.42,2.52,9.5,3.08c2.08,0.56,11.33,1.17,14.8,0
			c0,0-1.75-5.9-8.2-7.94s-10.72-2.04-12.8-1.48C469.64,204.92,463.83,207.67,462.18,210.4z"/>
		<path class="st13" d="M391.12,195.18c0,0,4.81-3.34,9.4-3.79c4.59-0.45,9.55-0.78,13.17,1.19c3.62,1.98,8.88,7.19,10.03,9.47
			c1.16,2.28-2.95-0.96-6.68-0.81c-3.73,0.15-9.59,0.26-12.31-0.3C402.02,200.38,393.51,197.82,391.12,195.18z"/>
		<path class="st27" d="M463.4,206.26c0,0,2.22-2.61,5.48-3.6c3.26-0.99,5.13-2.37,11.64-1.7c6.51,0.67,12.03,3.63,12.62,4.22
			c0.6,0.59,3.51,2.47,3.7,7.15"/>
		<path class="st27" d="M437,219.24"/>
		<path class="st17" d="M422.74,237.52c0,0-5.93,10.52,0,12.33c5.93,1.82,9.28-0.48,11.28,1.63c2.01,2.1,1.53,7.54,10.52,7.83
			c8.99,0.29,8.94-3.53,11.02-3.53c2.08,0,7.34-1.21,6.76-8.78c0,0,2.53,9.45-3.4,12.18c0,0-3.6-1.11-3.84,1.54
			c0,0-4.09,3.2-7.81,3.83c-6.44,0.25-9.39-1.92-9.39-1.92l-2.41-2.26l-1.62-2.51c0,0-1.72-2.41-4.32-2.7s-3.49-0.69-3.49-0.69
			s1.47,1.76-2.83-0.25c-4.3-2.01-7.57-6.87-4.88-12.42C421.02,236.25,422.74,237.52,422.74,237.52z"/>
		<path class="st16" d="M433.23,257.76c-0.38-0.41-0.9-0.67-1.46-0.73c-1.97-0.21-7.06-0.99-6.37-3.23
			c0.86-2.77,7.39,1.94,9.04,3.68c1.64,1.72,2.95,5.5,8.64,5.56c0.09,0,0.19,0.01,0.28,0.03c3.31,0.7,10.35-0.3,13.14-3.88
			c2.07-0.68-0.5,2.22-2.77,3.04c-0.3,0.11-0.57,0.28-0.83,0.47c-0.88,0.69-2.41,1.75-6.38,2.05c-3.49,0.27-6.55,0.15-9.42-1.85
			C434.12,260.82,434.77,259.44,433.23,257.76z"/>
		<path class="st18" d="M431.77,257.04c0,0-3.4-0.28-5.45-1.49c-0.36-0.21-0.73-0.4-1.13-0.51c-6.06-1.67-10.74-8.75-6.4-13.86"/>
		<path class="st18" d="M453.08,261.84c0,0,2.27-1.83,3.43-2.65c0.28-0.2,0.63-0.25,0.95-0.14c0.78,0.27,1.82,0.61,3.65-1.51
			c2.27-2.63,2.63-8.89,0.43-12.09"/>
		<path class="st19" d="M437.64,255.46c0,0,2.45,2.86,10.18,1.59c7.73-1.27,6.17-4.79,6.17-11.6c0-6.81-3.26-32.21-1.2-39.87
			s2.33-8.5-0.27-8.63c-2.61-0.13-6.27,1.22-6.49,3.84c-0.23,2.62-1.6,34.31-2.29,38.15C443.05,242.77,435.9,247.51,437.64,255.46z"
			/>
		<path class="st6" d="M456.01,251.62c-0.12,0.22-0.45,0.14-0.44-0.1c0.06-3.92,0.24-18.42-0.01-22.33c-0.3-4.53-1.89-17.13,0-21.8
			s5.16-6.68,5.16-6.68s0.9,1.01,0.1,2.32c-3.02,0.8-3.61,4.84-3.57,5.48c0.07,1.13,1.3,31,3.5,34
			C461.81,244.74,459.98,244.17,456.01,251.62z"/>
		<path class="st27" d="M463.73,244.43"/>
		<path class="st5" d="M424.59,232.47c0.04-1.84,8.23-5.84,8.64-18.03c0.41-12.19-1.68-13.6-2.64-14.24
			c-0.96-0.65,1.76-12.01,2.96-9.7c1.07,2.06,8.13,35.66,7.13,41.98c-0.98,6.22-6.19,18.71-12.13,8.19
			c-0.23-0.41-0.48-0.82-0.77-1.19C426.3,237.59,423.67,235.28,424.59,232.47z"/>
		<path class="st28" d="M505.45,121.24c0,0-0.23,25.05-8.06,37.64c-7.84,12.6-2.61,13.52,4.14,19.65c6.75,6.14,8.35,8.57,10.9,16.74
			c0,0,1.05,2.35,0.71,3.52c0,0,3.77-14.91,4.38-19.09c0.72-4.94,4.69-17.65,0.18-32.33C511.77,128.09,505.45,121.24,505.45,121.24z
			"/>
		<path class="st26" d="M374.42,141.12c-3.28,2.46-12.04,4.65-16.42,10.13c-4.38,5.47-4.11,21.08-4.65,24.36
			c-0.55,3.28-8.21,14.51-12.32,17.24c-4.11,2.74-6.3,10.13-5.47,12.87c0.82,2.74,7.12,14.78,7.12,18.89s-1.09,26,1.09,34.22
			c2.19,8.21,7.66,21.62,12.59,27.51c4.93,5.89,25.46,44.76,44.62,49.69c8.33,1.95,12.48,2.43,14.12,2.55
			c0.81,0.06,1.6,0.16,2.4,0.32c6.83,1.37,14.25,3.73,23.1,1.18c9.51-2.74,20.48-21.07,25.6-24.61l0.41-0.29c0,0-4.44,4.36-17.76,14
			c-0.78,0.56-1.46,1.24-2.04,2.01c-6.57,8.68-12.41,7.62-29.29,4.2c-0.51-0.1-1.04-0.16-1.56-0.17
			c-24.26-0.63-30.77-17.65-38.84-29.35c-8.16-11.82-3.47-49.99-6.81-60.05s-15.05-38.2-14.72-48.51
			c0.33-10.31,20.36-16.32,21.02-24.2C377.25,165.2,374.42,141.12,374.42,141.12z"/>
		<path class="st28" d="M440.62,340.27c9.51-2.74,20.48-21.07,25.6-24.61c5.12-3.55,19.85-16.85,26.25-34.77
			c6.4-17.92,10.79-27.61,12.44-35.29c0,0-2.25,11.49-14.61,21.58c-6.29,6.99-8.89,17.8-9.9,20.92
			c-1.02,3.12-14.33,18.82-15.6,21.66c-1.08,2.41-12.39,17.19-15.65,22.35c-0.87,1.38-1.96,2.61-3.22,3.64L440.62,340.27z"/>
		<path class="st3" d="M483.3,113.42c0,0-16.12,4.21-30.95-11.82c-14.83-16.02-49.22-3.65-49.22-3.65l-5.35-10.74l42.33-20.46
			l24.92,2.88l20.1,16.17L483.3,113.42z"/>
		<path class="st3" d="M462.96,98.79c0,0-2.78,9.26-17.86-5.82c-15.08-15.08,6.05-14.01,6.05-14.01S471.42,97.21,462.96,98.79z"/>
		<path class="st29" d="M337.79,169.94c0,0-3.05-22.97-2.37-30.47c0.68-7.5-0.77-36.75,10.11-42.56c10.88-5.8,36.27,8.7,36.27,8.7
			s-1.93,27.08-3.39,31.19c-1.45,4.11-14.75,11.85-16.44,16.44c-1.69,4.59-7.5,14.27-7.01,18.13c0.48,3.87-6.59,24-14.78,24.21
			S337.79,169.94,337.79,169.94z"/>
		<path class="st3" d="M340.55,110.34c0,0,6.76-5.75,4.98-13.43c-1.78-7.68-1.78-22.23,1.64-28.23S356.87,51,364,49.86
			s0.66-17.12,41.27-13.12c0,0,29.2-6.85,46.89,3.14c0,0,26.94-1.71,32.02,12.84c0,0-32.59,13.69-31.73,24.25
			s-14.89-20.26-33.27-19.12c-18.38,1.14-28.71-9.54-35.18-0.7s-18.19,14.68-13.67,20.1s3.36,20.86,4.51,24.84
			c1.15,3.98-14.83-4.58-19.68-1.44S348.19,111.2,340.55,110.34z"/>
		<path class="st3" d="M477.44,108.63c0,0-9.01,4.56-15.29,0s-1.43-12.84-12.55-14.27s-35.48-2.57-40.71,0s-15.62,11.86-20.98,9.21
			c-5.36-2.65-3.65-18.34-3.65-18.34l38.95-28.82h17.61l21.33,8.2l4.49,7.8L477.44,108.63z"/>
		<path class="st25" d="M414.73,120.94c0,0-2.37,12.31,7.31,12.3c7.44-0.01,10.87-7.4,11.83-14.45c0.79-5.75,5.28-20.84,15.1-22.23
			c9.82-1.39,23.85,12.73,25.93,15.27c2.56,3.13-11.41-27.62-31.04-23.12c-11.05,2.53-12.27,8.34-13.15,11.35
			c-0.86,2.95-0.26,12.05-0.68,18s-2.57,8.48-6.76,8.48s-2.71-1.87-2.9-4.17S414.73,120.94,414.73,120.94z"/>
		<g>
			<g>
				<path class="st25" d="M375.35,116.72c8.16,4.47,19.41,7.19,27.49,0.98c3.61-2.77,5.59-6.88,7.15-11.04
					c1.49-3.96,2.73-9.05,6.48-11.49c3.45-2.25,8.08-3.73,12.22-3.63c1.61,0.04,1.61-2.46,0-2.5c-3.68-0.09-7.46,1.03-10.79,2.53
					c-1.58,0.71-3.12,1.58-4.4,2.75c-1.57,1.43-2.6,3.48-3.46,5.38c-1.89,4.17-2.94,8.74-5.51,12.58c-2.68,4-6.99,6.11-11.73,6.47
					c-5.72,0.43-11.22-1.47-16.18-4.19C375.2,113.78,373.94,115.94,375.35,116.72L375.35,116.72z"/>
			</g>
		</g>
		<path class="st3" d="M404.18,107.78c-0.38-0.49-1.17-0.14-1.04,0.46c1.23,5.68,4.83,19.21,11.21,18.75
			c8.06-0.58,18.32-14.46,19.62-25.4c0.75-6.25-0.37-17.93-6.96-21.7c-8.43-4.83-1.8,3.17-8.99,5.98
			c-2.99,1.17,11.91,14.67,6.14,25.72C418.7,122.06,419.16,127.08,404.18,107.78z"/>
		<path class="st25" d="M411.41,116.51c0,0,5.35,4.68,5.61-3.36c-0.6-7.62,2.13-11.76,4.46-15.17s11.49-16.78,21.21-17.77
			c9.72-0.99,25.97,6.67,32.51,24.96c6.54,18.28-3.32,1.55-3.32,1.55s-9.23-21.38-26.11-19.51c-16.88,1.87-19.4,19.93-21.62,24.4
			C421.94,116.07,420.32,127.59,411.41,116.51z"/>
		<path class="st25" d="M352.02,99.22c3.14,1.43,6.79,14.55,6.53,20.54c-0.26,5.99-4.25,14.55,4.31,11.7s33.1-27.03,33.38-35.91
			s11.41-5.17,19.12-11.16c7.7-5.99,13.47-13.28,18.82-11.95c29.59,7.35,43.26,24.5,39.31,38.65c0,0-0.84,4.51,5.33,4.98
			c6.16,0.47,6.17-8.57,3.6-12.57s-8.97-13.41-7.76-18.55c1.2-5.14-0.47-24.25-8.77-26.53c-8.29-2.28-29.33-9.29-36.25-4.85
			s-18.51-13.98-38.5-3.14c-19.99,10.84-24.55,17.75-24.55,22s0,14.18-5.99,17.06C354.59,92.37,352.02,99.22,352.02,99.22z"/>
	</g>
	<path class="st30" d="M410.82,70.01c-0.16,0.79,2.4,3.26,3.14,2.92c3.13-1.45,10.76-0.24,15.83-3.78
		c4.54-3.17,18.48-5.09,22.3-3.39c3.82,1.7,13.17,8.9,16.99,27.77c3.82,18.86,6.58,20.8,9.98,21.42c3.4,0.62,7.22-2.98,5.73-7.43
		c-1.49-4.45-5.95-9.75-6.37-16.11s0.85-18.76-9.34-26.02c-10.19-7.26-25.06-10.44-30.58-8.32
		C433.21,59.1,413.66,56.25,410.82,70.01z"/>
	<path class="st30" d="M420.24,71.91c0,0-29.3,3.46-29.56,13.81s-4.27,21.61-22.95,19.45l-4.43-4.51c0,0,17.62,5.29,18.5-2.18
		s-2.77-17.64,3.46-21.5s27.38-13.29,37.01-16.68C431.9,56.9,420.24,71.91,420.24,71.91z"/>
</g>
<g>
	<g>
		<path class="st31" d="M1114.4,430.35"/>
		<path class="st31" d="M1080.31,429.19c-48.25-9.88-199.11,125.5-199.11,125.5C705.82,715.46,620.65,696.21,472.6,675.51
			c-148.07-20.68-255.18,36.13-342.55,80.69C42.69,800.79-89.19,942.03-89.19,942.03l85.24-413.51
			c68.74-69.26,109.19-100.54,218.28-121.07c82.7-15.56,270.68,90.16,367.35,110.29c96.65,20.13,198.3-71.45,198.3-71.45
			c99.47-92.82,170.91-129.65,239.05-140.47C1076.56,296.66,1080.31,429.19,1080.31,429.19z"/>
		<g>
			<path class="st32" d="M4.98,519.81c0,0,32.61-35.4,37.04-31.36l-22.13,175.3l-42.5,32.62L4.98,519.81z"/>
			<path class="st32" d="M53.38,634.25l49.57-27.3l6.73-167.73c0,0-38.45,21.46-41.27,24.62L53.38,634.25z"/>
			<path class="st32" d="M181.47,417.55l11.4,145.58l45.69-13.86l-17.01-143.38C221.55,405.88,193.13,412.38,181.47,417.55z"/>
			<path class="st32" d="M240.91,405.09l21.03,139.13l43.65-4.03L278.1,410.71C278.1,410.71,248.88,404.14,240.91,405.09z"/>
			<path class="st32" d="M325.03,542.23l27.5,1.62l-33.61-121.71c0,0-20.38-6.89-22.9-6.88L325.03,542.23z"/>
			<path class="st32" d="M405.63,554.56l-37.85-115.19c0,0,22.67,8.14,23.96,8.93l40.94,112.86L405.63,554.56z"/>
			<path class="st32" d="M442.65,563.59l26.85,6.55L423.74,461.3c0,0-18.71-7.75-21.21-8.47L442.65,563.59z"/>
			<path class="st32" d="M507.91,581.75l18.07,4.41l-48.92-103.48c0,0-12.16-4.83-14.28-5.68L507.91,581.75z"/>
			<path class="st32" d="M531.83,586.95l17.94,4.38l-51.16-100.26c0,0-10.76-4.15-13.75-5.32L531.83,586.95z"/>
			<path class="st32" d="M508.76,494.9l47.56,98.02l15.29,3.73l-48.13-96.35C523.48,500.3,511.8,496.05,508.76,494.9z"/>
			<path class="st32" d="M548.35,508.73l51.07,93.09l12.36,1.77l-51.58-91.28C560.21,512.33,549.12,509.72,548.35,508.73z"/>
			<path class="st32" d="M568.9,514.71l49.17,88.34l11.62,0.67l-50.09-86.4C579.6,517.32,571.26,515.34,568.9,514.71z"/>
			<path class="st32" d="M605.59,520.54l48.73,82.12l14.05-4.19l-50.47-78.03C617.9,520.44,608.35,520.65,605.59,520.54z"/>
			<path class="st32" d="M626.62,519.79l49.42,76.69l13.7-4.11l-51.06-74.21C638.67,518.15,628.25,520.22,626.62,519.79z"/>
			<path class="st32" d="M645.94,516.77l50.56,73.56l13.72-4.99l-52.07-71.52C658.15,513.82,648.14,516.33,645.94,516.77z"/>
			<path class="st32" d="M682.3,505.8l50.97,68.72l10.97-6.56l-50.88-66.26C693.36,501.71,684.49,504.97,682.3,505.8z"/>
			<polygon class="st32" points="699.48,498.44 750.07,565.56 761.24,558.16 708.97,493.82 			"/>
			<polygon class="st32" points="730.64,481.79 783.16,545.8 795.18,535.63 742.66,474.18 			"/>
			<polygon class="st32" points="748.7,469.66 803.91,532.14 815.22,520.19 759.93,461.47 			"/>
			<polygon class="st32" points="768.83,455.49 824.97,514.93 832.38,506.6 776.89,448.96 			"/>
			<path class="st32" d="M1019.85,397.65l-48.32-82.42l-14.07,4.11l50.08,78.34C1007.55,397.68,1017.09,397.52,1019.85,397.65z"/>
			<path class="st32" d="M999.4,401.64l-49.04-76.99l-13.71,4.03l50.7,74.53C987.34,403.21,997.78,401.2,999.4,401.64z"/>
			<path class="st32" d="M979.29,408.73l-50.2-73.87l-13.74,4.91l51.71,71.84C967.07,411.61,977.08,409.16,979.29,408.73z"/>
			<path class="st32" d="M942.02,425.95l-50.63-69.03l-11,6.5l50.55,66.57C930.94,429.98,939.83,426.77,942.02,425.95z"/>
			<polygon class="st32" points="924.8,433.21 874.55,365.79 863.34,373.13 915.3,437.79 			"/>
			<polygon class="st32" points="892.06,456.49 839.86,392.16 827.79,402.26 880,464.03 			"/>
			<polygon class="st32" points="875.66,468.82 820.76,406.01 809.4,417.9 864.39,476.94 			"/>
			<polygon class="st32" points="855.47,482.87 799.63,423.1 792.17,431.39 847.38,489.36 			"/>
		</g>
		<path class="st33" d="M-62.78,730.19c0,0,193.69-191.65,368.37-180.26s282.23,93.97,404.63,45.17
			c122.4-48.8,131.85-116.6,214.59-152.13s128.5-40.01,128.5-40.01"/>
		<g>
			<line class="st34" x1="-2.92" y1="664.72" x2="-37.96" y2="890.21"/>
			<line class="st34" x1="72.76" y1="792.99" x2="87.42" y2="582.54"/>
			<line class="st34" x1="148.65" y1="746.73" x2="144.5" y2="431.16"/>
			<line class="st34" x1="228.83" y1="687.13" x2="211.98" y2="534.6"/>
			<line class="st34" x1="307.11" y1="664.45" x2="278.97" y2="506.54"/>
			<line class="st34" x1="368.29" y1="655" x2="332.17" y2="512.6"/>
			<line class="st34" x1="414.01" y1="655" x2="343.95" y2="430.63"/>
			<line class="st34" x1="456.06" y1="660.24" x2="418.45" y2="549.73"/>
			<line class="st34" x1="495.21" y1="664.45" x2="452.77" y2="554.39"/>
			<line class="st34" x1="530.76" y1="667.59" x2="444.66" y2="469.72"/>
			<line class="st34" x1="557.6" y1="672.99" x2="510.48" y2="563.01"/>
			<line class="st34" x1="582.24" y1="672.99" x2="536.92" y2="573.06"/>
			<line class="st34" x1="606.29" y1="675.1" x2="561.53" y2="587.1"/>
			<line class="st34" x1="623.36" y1="668.83" x2="533.12" y2="503.68"/>
			<line class="st34" x1="643.52" y1="672.99" x2="604.38" y2="597.55"/>
			<line class="st34" x1="661.35" y1="667.59" x2="617.67" y2="592.75"/>
			<line class="st34" x1="677.22" y1="663.25" x2="590.98" y2="519.33"/>
			<line class="st34" x1="697.84" y1="658.64" x2="656.93" y2="591.82"/>
			<line class="st34" x1="716.35" y1="650.37" x2="676.38" y2="585.43"/>
			<line class="st34" x1="740.19" y1="642.62" x2="694.96" y2="578.83"/>
			<line class="st34" x1="766.77" y1="644.25" x2="670.14" y2="510.19"/>
			<line class="st34" x1="784.69" y1="631.55" x2="732.62" y2="565.13"/>
			<line class="st34" x1="800.14" y1="621.01" x2="745.65" y2="549.76"/>
			<line class="st34" x1="817.07" y1="608.62" x2="718.25" y2="488.9"/>
			<line class="st34" x1="835.5" y1="594.18" x2="785.04" y2="532.78"/>
			<line class="st34" x1="855.06" y1="576.96" x2="803.9" y2="519.52"/>
			<line class="st34" x1="875.13" y1="560.19" x2="819.37" y2="503.43"/>
			<line class="st34" x1="985.86" y1="311.87" x2="1056.5" y2="431.15"/>
			<line class="st34" x1="1012.56" y1="392.49" x2="1040.04" y2="437.9"/>
			<line class="st34" x1="990.09" y1="394.6" x2="1022.16" y2="447.32"/>
			<line class="st34" x1="967.21" y1="405.48" x2="1004.19" y2="458.24"/>
			<line class="st34" x1="905.23" y1="345.51" x2="991.53" y2="466.6"/>
			<line class="st34" x1="933.37" y1="419.73" x2="977.37" y2="476.47"/>
			<line class="st34" x1="917.88" y1="430.18" x2="962.1" y2="488.65"/>
			<line class="st34" x1="854.77" y1="380.87" x2="950.63" y2="498.28"/>
			<line class="st34" x1="884.26" y1="456.1" x2="930.24" y2="512.66"/>
			<line class="st34" x1="865.92" y1="467.56" x2="916.79" y2="525.31"/>
			<line class="st34" x1="846.92" y1="480.89" x2="900.97" y2="536.52"/>
			<line class="st34" x1="889.79" y1="547.32" x2="783.39" y2="439.41"/>
		</g>
		<g>
			<path class="st34" d="M1120.27,432.92"/>
		</g>
		<path class="st35" d="M1114.65,429.49"/>
		<path class="st36" d="M1080.35,428.13c-48.25-9.88-199.11,125.5-199.11,125.5C705.86,714.4,620.69,695.16,472.64,674.45
			c-148.07-20.68-255.18,36.13-342.55,80.69C42.73,799.73-89.15,940.97-89.15,940.97l85.24-413.51
			c68.74-69.26,109.19-100.54,218.28-121.07c82.7-15.56,270.68,90.16,367.35,110.29c96.65,20.13,198.3-71.45,198.3-71.45
			c99.47-92.82,170.91-129.65,239.05-140.47C1076.6,295.6,1080.35,428.13,1080.35,428.13z"/>
	</g>
	<path class="st37" d="M740.19,628.21c-95.3,49.16-168.36,35.31-272.58,20.73c-114.09-15.93-203.85,14.13-279.01,49.15"/>
	<path id="SVGID_x5F_1_x5F_" class="st38" d="M872.05,538.28c-9.59,8.79-18.91,17.04-27.98,24.79
		C687.17,696.94,603.4,678.68,463.45,659.1c-114.09-15.93-203.85,14.13-279.01,49.15"/>
	<text>	<textPath  xlink:href="#SVGID_x5F_1_x5F_" startOffset="23.698%">
<tspan  class="st3" style="font-family:'HiraginoSans-W7-83pv-RKSJ-H'; font-size:27.1342px;">17.08.19, 8.30pm, palazzo de la salle</tspan>	</textPath>
</text>
	<path id="SVGID_x5F_2_x5F_" class="st38" d="M880.14,581.05c-9.59,8.79-18.91,17.04-27.98,24.79
		C695.27,739.71,611.5,721.45,471.54,701.87c-114.09-15.93-203.85,14.13-279.01,49.15"/>
	<text>	<textPath  xlink:href="#SVGID_x5F_2_x5F_" startOffset="23.698%">
<tspan  class="st32" style="font-family:'HiraginoSans-W7-83pv-RKSJ-H'; font-size:22.6118px;">                         bookings: sidebysideconcert@gmail.com</tspan>	</textPath>
</text>
</g>
</svg>
