<?xml version="1.0" encoding="utf-8"?>
<!-- Generator: Adobe Illustrator 23.0.0, SVG Export Plug-In . SVG Version: 6.00 Build 0)  -->
<svg version="1.1" id="Layer_1" xmlns="http://www.w3.org/2000/svg" xmlns:xlink="http://www.w3.org/1999/xlink" x="0px" y="0px"
	 viewBox="0 0 300 300" enable-background="new 0 0 300 300" xml:space="preserve">
<rect fill="#FCFAE9" width="300" height="300"/>
<rect x="10" y="10" fill="#A4D0C9" width="280" height="280"/>
<g>
	<ellipse fill="#E9AF85" cx="150" cy="150" rx="129.21" ry="127.5"/>
	<g>
		<g>
			<path fill="#FFFFFF" d="M88,90.99c0.01,0.45,0.05,0.91,0.08,1.36l-0.03-1.79C88.02,90.7,88,90.85,88,90.99z"/>
			<path fill="#FFFFFF" d="M238.49,98.93c-0.62-1.8-1.52-3.51-2.29-5.26c-1.01-2.29-2.63-4.15-4.47-5.78
				c-1.13-1-2.47-1.76-3.72-2.63c-2.06-1.43-4.39-2.05-6.87-2.07c-2.19-0.01-4.25,0.56-6.19,1.65c-2.08,1.16-3.88,2.59-5.13,4.63
				c-0.58,0.95-1.19,1.88-1.84,2.89c0-0.37-0.02-0.68,0-0.99c0.18-3.16,0.38-6.33,0.56-9.49c0.07-1.3-0.08-2.66,0.24-3.89
				c0.29-1.13,0.13-1.96-0.56-2.79c-0.36-0.42-0.72-0.86-1.17-1.18c-0.47-0.33-1.06-0.5-1.56-0.78c-1.52-0.85-2.97-1.85-4.55-2.54
				c-2.39-1.04-4.86-1.91-7.32-2.78c-1.58-0.56-3.2-1.01-4.82-1.44c-1.19-0.31-2.41-0.5-3.61-0.77c-2.72-0.62-5.43-1.31-8.16-1.87
				c-2.43-0.5-4.88-0.86-7.32-1.3c-2.64-0.47-5.29-0.83-7.99-0.91c-1.97-0.06-3.93-0.31-5.9-0.48c-2.62-0.23-5.23-0.48-7.85-0.71
				c-1.93-0.17-3.85-0.4-5.78-0.48c-3.89-0.15-7.78-0.24-11.67-0.3c-1.62-0.02-3.24,0.01-4.85,0.17c-3.15,0.32-6.29,0.73-9.43,1.13
				c-2.48,0.32-4.98,0.57-7.43,1.07c-2.51,0.52-4.96,1.29-7.43,1.99c-1.62,0.45-3.22,0.96-4.83,1.45c-1.26,0.38-2.51,0.81-3.78,1.16
				c-1.24,0.34-2.44,0.74-3.48,1.52c-0.17,0.13-0.31,0.31-0.47,0.46c-0.25,0.23-0.54,0.42-0.76,0.67c-0.2,0.23-0.34,0.52-0.57,0.89
				c0.06,1.21,0.14,2.57,0.19,3.93c0.07,1.68,0.12,3.36,0.17,5.04c0.05,1.91,0.09,3.82,0.13,5.74l0.09,4.82
				c0.02,0.11,0.04,0.22,0.05,0.33c0.02,0.15-0.01,0.3-0.04,0.45l0.14,7.02c0.04,0.26,0.05,0.52,0.01,0.78l0.03,1.31
				c0.02,0.02,0.05,0.03,0.07,0.04c-0.02,0.03-0.05,0.05-0.07,0.07l0.19,9.63c0.05,0.47,0.09,0.93,0.11,1.4c0,0.02,0,0.05,0,0.07
				c0.5,3.51,0.68,15.04,0.57,24.78c0.06,0.09,0.1,0.2,0.1,0.34c0,2.13,0.04,4.23,0.19,6.36c0.09,1.24,0.29,2.72-0.01,3.98
				c0.03,0.17,0.02,0.39,0.01,0.69c-0.04,0.76-0.14,1.53-0.1,2.29c0.05,1,0.27,2,0.3,3c0.08,2.41,0.07,4.83,0.13,7.24
				c0.05,2.32,0.15,4.63,0.2,6.95c0.07,3.7,0.12,7.41,0.18,11.12c0.02,1.21,0.07,2.43,0.09,3.64c0.04,2.09,0.04,4.18,0.09,6.27
				c0.08,3.57,0.2,7.13-0.05,10.69c-0.12,1.71-0.06,3.42,0.26,5.1c0.53,2.76,1.12,5.51,1.7,8.26c0.22,1.03,0.5,2.04,0.73,3.07
				c0.11,0.49,0.17,1,0.24,1.5c0.04,0.33-0.03,0.7,0.09,0.99c0.3,0.74,0.72,1.43,1.03,2.17c0.22,0.52,0.31,1.08,0.52,1.6
				c0.31,0.79,0.56,1.64,1.03,2.33c0.75,1.1,1.77,2.04,2.49,3.15c0.77,1.18,1.82,2.02,2.91,2.86c0.96,0.75,2.26,1.17,2.64,2.52
				c0.01,0.03,0.13,0.01,0.19,0.04c0.3,0.16,0.62,0.29,0.89,0.49c1.25,0.9,2.47,1.85,3.74,2.7c1.14,0.76,2.3,1.51,3.53,2.12
				c1.99,0.99,4.04,1.85,6.05,2.78c2.7,1.24,5.45,2.37,8.41,2.86c2.49,0.41,4.98,0.8,7.47,1.18c0.82,0.13,1.65,0.21,2.54,0.32
				c-0.01,0.02-0.02,0.04-0.03,0.06c0.37,0,0.74,0.02,1.11,0.06c0.25-0.08,0.53-0.07,0.86,0.04c0.29,0.1,0.63,0.08,0.95,0.07
				c3.54-0.09,7.09-0.14,10.63-0.32c2.45-0.12,4.91-0.31,7.34-0.66c3.39-0.5,6.8-1.01,10.12-1.83c3.28-0.81,6.48-1.97,9.69-3.06
				c2.44-0.83,4.74-1.97,6.84-3.47c2.45-1.75,4.91-3.48,7.02-5.65c1.02-1.06,2.21-1.96,3.18-3.06c1.15-1.3,2.17-2.71,3.18-4.13
				c1.94-2.7,3.61-5.57,4.86-8.65c0.43-1.06,0.9-2.14,1.13-3.25c0.71-3.5,1.34-7.01,1.96-10.52c0.19-1.1,0.26-2.23,0.36-3.35
				c0.16-1.9,0.49-3.78,0.33-5.7c-0.11-1.29-0.02-2.59-0.02-4.02c0.63,0.53,1.17,0.9,1.6,1.37c1.03,1.12,2.37,1.76,3.79,1.98
				c2.04,0.32,4.13,0.53,6.18,0.47c4.01-0.12,7.51-1.57,10.18-4.62c2.04-2.33,2.88-5.24,3.75-8.1c0.38-1.26,0.51-2.6,0.67-3.91
				c0.15-1.22,0.22-2.45,0.26-3.68c0.02-0.58-0.11-1.16-0.19-1.74c-0.17-1.29-0.23-2.61-0.56-3.86c-0.65-2.52-1.45-5-2.19-7.5
				c0-0.02-0.01-0.03-0.02-0.05c-0.44-0.76-0.73-1.75-0.87-2.3c-0.63-2.45-1.7-5.72-1.09-8.4c-0.01-0.13,0.03-0.3,0.1-0.56
				c0.09-1.59,0.29-3.38,0.81-4.9c0.01-0.05,0.02-0.1,0.03-0.16c0.4-2.97,1.82-5.59,2.99-8.28c1.15-2.64,2.61-5.16,3.85-7.76
				c0.8-1.68,1.48-3.42,2.17-5.15c1.01-2.53,1.51-5.16,1.88-7.85C240.18,107.41,239.92,103.12,238.49,98.93z M89.81,69.79
				c0.73-0.1,0.92-1.23,1.84-0.95c0.4-0.85,1.24-0.69,1.96-0.82c0.02,0,0.05-0.02,0.05-0.04c0.32-1.1,1.39-0.92,2.17-1.2
				c1.75-0.64,3.52-1.24,5.29-1.81c1.84-0.59,3.67-1.22,5.55-1.65c2.66-0.61,5.34-1.12,8.03-1.55c2.31-0.37,4.66-0.57,6.98-0.88
				c3.62-0.48,7.26-0.69,10.91-0.61c3.48,0.07,6.97,0.29,10.45,0.46c1.32,0.06,2.64,0.15,3.96,0.28c4.17,0.41,8.33,0.88,12.49,1.28
				c2.15,0.21,4.33,0.19,6.46,0.5c4.5,0.66,9.01,1.28,13.44,2.4c3.22,0.82,6.49,1.4,9.73,2.13c2.67,0.6,5.24,1.49,7.74,2.59
				c1.58,0.7,3.18,1.35,4.73,2.1c0.79,0.38,1.49,0.94,2.23,1.42c0.7,0.46,1.38,0.95,2.1,1.39c1.4,0.87,2.04,3.09,1.05,4.29
				c-0.56,0.68-1.39,1.3-2.22,1.6c-1.25,0.44-2.6,0.66-3.93,0.81c-2.35,0.28-4.72,0.44-5.96,0.56c-3.7,0.12-6.27,0.27-8.84,0.27
				c-2.8,0-5.59-0.15-8.39-0.21c-2.41-0.06-4.82-0.07-7.23-0.13c-4.56-0.1-9.11-0.23-13.67-0.33c-1.95-0.04-3.91,0.05-5.86-0.06
				c-1.6-0.09-3.19-0.44-4.8-0.57c-2.06-0.16-4.14-0.16-6.21-0.33c-3.84-0.31-7.67-0.71-11.5-1.05c-1.63-0.15-3.27-0.25-4.9-0.4
				c-1.47-0.13-2.94-0.27-4.41-0.44c-3.26-0.36-6.51-0.73-9.77-1.13c-0.83-0.1-1.65-0.31-2.48-0.49c-2.74-0.58-5.51-1.04-8.2-1.79
				c-1.84-0.51-3.58-1.4-5.35-2.17c-0.81-0.35-1.58-0.8-2.34-1.24c-0.53-0.31-1.3-0.48-1-1.4c0.03-0.09-0.15-0.23-0.17-0.35
				C89.74,70.11,89.77,69.79,89.81,69.79z M95.16,216.96c-0.51-0.91-0.65-1.94-0.74-2.98c-0.16-0.32-0.24-0.67-0.23-1.06
				c-0.04-0.19-0.07-0.38-0.1-0.57c-0.33-1.32-0.67-2.64-1-3.97c-0.32-1.27-0.64-2.35-0.64-3.57c-0.06-0.19-0.07-0.41-0.09-0.63
				c-0.14-1.68-0.3-3.35-0.4-5.03c-0.03-0.47,0.13-0.95,0.26-1.42c0.03-0.1,0.27-0.21,0.42-0.21c4.12-0.17,8.24-0.35,12.37-0.49
				c5.12-0.17,10.25-0.3,15.37-0.48c3.62-0.13,7.24-0.31,10.86-0.46c1.14-0.05,2.3-0.17,3.41-0.02c1.2,0.16,2.36-0.1,3.55-0.03
				c1.3,0.07,2.62-0.16,3.94-0.25c0.32-0.02,0.72-0.09,0.72,0.36c0,0.2-0.27,0.48-0.48,0.58c-2.54,1.21-5.09,2.41-7.65,3.58
				c-4.18,1.91-8.37,3.8-12.55,5.71c-5.69,2.6-11.37,5.22-17.06,7.82c-2.75,1.26-5.51,2.5-8.26,3.74c-0.27,0.12-0.54,0.25-0.83,0.31
				C95.38,218.07,94.99,217.63,95.16,216.96z M112.5,235.51c-0.34,0-0.61-0.15-0.79-0.39c-0.21-0.05-0.42-0.25-0.62-0.39
				c-2.29-1.69-4.63-3.34-6.86-5.11c-1.43-1.14-2.67-2.49-4.05-3.7c-1.4-1.23-2.35-2.79-3.4-4.28c-0.31-0.44-0.52-0.95-0.75-1.44
				c-0.29-0.62-0.09-1.06,0.54-1.36c3.15-1.47,6.29-2.96,9.45-4.42c5.12-2.36,10.25-4.7,15.37-7.06c4.07-1.88,8.11-3.8,12.18-5.67
				c2.04-0.94,4.12-1.82,6.19-2.7c1.08-0.46,2.18-0.88,3.27-1.32c0.48-0.2,0.78,0.03,0.71,0.56c-0.1,0.8-0.39,1.46-0.95,2.09
				c-2.54,2.88-5.02,5.82-7.53,8.73c-1.17,1.35-2.37,2.67-3.53,4.03c-1.1,1.29-2.15,2.62-3.24,3.9c-0.84,0.98-1.76,1.89-2.57,2.89
				c-0.95,1.17-1.75,2.46-2.72,3.61c-3.01,3.58-6.06,7.12-9.1,10.68c-0.14,0.17-0.28,0.37-0.43,0.54
				C113.46,235.15,113.04,235.51,112.5,235.51z M137.89,239.02c-0.35,1.01-0.35,2.05-0.65,3.06c-0.19,0.64-0.49,0.86-1.09,0.81
				c-1.42-0.12-2.84-0.16-4.21-0.68c-0.66-0.25-1.47-0.09-2.18-0.24c-1.91-0.41-3.84-0.78-5.69-1.38c-2.11-0.68-4.15-1.59-6.22-2.4
				l0.02,0.02c-1.25-0.53-2.5-1.06-3.88-1.64c0.52-0.77,0.92-1.47,1.42-2.09c3.22-3.9,6.47-7.79,9.71-11.68
				c2.95-3.54,5.9-7.09,8.84-10.63c2.72-3.28,5.43-6.58,8.16-9.86c0.45-0.54,0.93-1.05,1.38-1.58c0.14-0.16,0.28-0.28,0.42-0.35
				c0.05-0.08,0.1-0.16,0.17-0.24c0.27-0.91,1.34-1.03,2.07-0.7c0.02,0,0.04,0,0.06,0.01c0.1,0.01,0.18,0.06,0.25,0.11
				c0.22,0.03,0.41,0.09,0.48,0.29c0.08,0.06,0.16,0.12,0.23,0.2c0.3,0.59-0.21,1.37-0.57,2.22c-0.06,0.28-0.11,0.57-0.16,0.85
				c-0.01,0-0.02,0-0.03,0c-0.11,1.04-0.56,2.07-0.76,3.1c-0.18,1.05-0.47,2.08-0.69,3.12c-0.62,3.01-1.3,6.02-1.98,9.02
				c-0.61,2.65-1.25,5.3-1.89,7.95c-0.62,2.56-1.23,5.12-1.86,7.67C138.82,235.64,138.46,237.37,137.89,239.02z M145.38,195.74
				c1.66-0.04,3.27-0.08,4.88-0.12c0.43-0.01,0.86-0.06,1.3-0.08c0.51-0.01,0.68,0.24,0.42,0.65c-0.2,0.31-0.46,0.7-0.78,0.82
				c-0.95,0.36-1.93,0.7-2.93,0.85C147.15,198.04,145.56,197,145.38,195.74z M158.96,242c-1.74,0.31-3.51,0.56-5.28,0.6
				c-0.65,0.02-1.3,0-1.94,0.05c-0.07,0.06-0.16,0.1-0.27,0.13c-0.28,0.06-0.57,0.07-0.85,0.07c-0.02,0-0.04,0-0.06,0
				c-0.41-0.01-0.81-0.07-1.21-0.09c-0.11,0.04-0.21,0.07-0.31,0.08c-0.83,0.1-1.72,0.36-2.5,0.18c-1.18-0.27-2.24,0.26-3.37,0.17
				c-1.24-0.1-2.49-0.12-3.73-0.13c-0.67,0-0.87-0.33-0.75-0.89c0.25-1.23,0.53-2.45,0.79-3.68c0.11-0.52,0.16-1.06,0.27-1.58
				c0.48-2.38,0.94-4.76,1.46-7.13c0.28-1.29,0.69-2.55,1-3.84c0.19-0.78,0.27-1.59,0.45-2.38c0.21-0.93,0.49-1.84,0.68-2.76
				c0.07-0.31,0.19-0.55,0.4-0.7c-0.06-0.51-0.04-1.03,0.16-1.49c-0.04-0.07-0.07-0.14-0.06-0.18c0.12-0.35,0.26-0.7,0.4-1.04
				c0.08-0.54,0.16-1.08,0.24-1.62c-0.01-0.15,0.02-0.28,0.06-0.39c0.36-2.31,0.81-4.62,1.55-6.77c0.04-0.28,0.1-0.55,0.18-0.82
				c0.45-1.39,0.7-2.84,1.07-4.26c-0.09-0.6,0.1-1.32,0.27-1.84c0.17-0.52,0.4-1.1,0.83-1.46c0-0.01,0.01-0.02,0.01-0.02
				c0.05-0.1,0.13-0.16,0.22-0.21c0.15-0.2,0.49-0.21,1.23-0.29c0.25-0.03,0.49-0.08,0.82-0.14c0.29,1.01,0.59,2,0.84,2.99
				c0.4,1.57,0.76,3.14,1.14,4.72c0.6,2.5,1.23,5,1.81,7.5c0.46,1.97,0.86,3.95,1.31,5.92c0.56,2.48,1.15,4.95,1.72,7.43
				c0.56,2.45,1.1,4.91,1.67,7.36c0.33,1.42,0.66,2.85,1.07,4.25C160.77,241.43,160.71,241.69,158.96,242z M182.08,234.97
				c-1.75,1-3.46,2.16-5.34,2.84c-3.48,1.27-7.1,2.13-10.76,2.77c-0.91,0.16-1.8,0.42-2.71,0.58c-0.31,0.06-0.82,0.08-0.94-0.09
				c-0.24-0.35-0.32-0.82-0.39-1.26c-0.08-0.46-0.08-0.93-0.12-1.45c-0.08,0.13-0.12,0.2-0.21,0.35c-0.94-3.56-1.91-7.04-2.79-10.54
				c-1.5-6-2.96-12.02-4.42-18.03c-0.82-3.36-1.62-6.73-2.42-10.09c-0.09-0.39-0.3-0.82,0.21-1.17c0.01,0.02,0.02,0.03,0.03,0.05
				c0.11-0.11,0.26-0.18,0.46-0.18c0.12,0,0.22,0.03,0.31,0.08c0.03,0.01,0.06,0.01,0.08,0.02c0.19,0.07,0.34,0.2,0.42,0.37
				c0.15,0.01,0.31,0.14,0.45,0.29c1.2,1.3,2.41,2.58,3.6,3.88c2.23,2.46,4.44,4.93,6.67,7.4c2.88,3.18,5.79,6.35,8.66,9.54
				c2.33,2.59,4.62,5.21,6.94,7.8c1.54,1.71,3.11,3.39,4.75,5.19C183.71,233.87,182.93,234.48,182.08,234.97z M200.62,215.32
				c-0.71,1.33-1.38,2.69-2.23,3.93c-1.16,1.71-2.43,3.36-3.74,4.97c-0.9,1.1-1.88,2.14-2.94,3.1c-1.64,1.49-3.35,2.9-5.05,4.32
				c-0.67,0.56-0.74,0.54-1.33-0.09c-3.41-3.58-6.84-7.15-10.22-10.76c-3.95-4.21-7.86-8.45-11.78-12.67
				c-2.52-2.72-5.05-5.43-7.56-8.15c-0.73-0.79-1.41-1.64-2.1-2.45c0.75-0.96,0.89-0.95,1.91-0.42c0.64,0.33,1.37,0.46,2.04,0.73
				c2.25,0.9,4.49,1.85,6.75,2.73c2.29,0.89,4.61,1.7,6.9,2.58c2.78,1.08,5.52,2.23,8.3,3.3c2.33,0.9,4.7,1.71,7.04,2.61
				c2.97,1.14,5.92,2.34,8.88,3.49c1.54,0.6,3.09,1.2,4.65,1.75C200.72,214.5,200.88,214.84,200.62,215.32z M204.35,199.22
				c-0.3,2.7-0.53,5.41-1.06,8.07c-0.42,2.1-1.24,4.11-1.91,6.21c-15.78-5.8-31.28-11.8-46.78-17.78c0.02-0.1,0.04-0.2,0.05-0.29
				c16.67-0.45,33.34-0.9,50.11-1.35C204.63,195.88,204.54,197.55,204.35,199.22z M206,130.96c-0.07,3.69-0.17,7.37-0.25,11.06
				c-0.06,2.95-0.11,5.89-0.15,8.84c-0.07,4.38-0.11,8.76-0.19,13.13c-0.08,4-0.19,8.01-0.29,12.01c-0.06,2.6-0.17,5.21-0.19,7.81
				c-0.01,1.64,0.15,3.27,0.18,4.91c0.02,1.21-0.08,2.43-0.1,3.64c-0.01,0.39-0.15,0.55-0.56,0.56c-2.64,0.08-5.29,0.19-7.93,0.28
				c-2.44,0.09-4.87,0.18-7.31,0.25c-3.09,0.09-6.18,0.17-9.28,0.26c-2.75,0.08-5.5,0.16-8.25,0.24c-3.6,0.1-7.19,0.19-10.79,0.29
				c-1.62,0.05-3.23,0.14-4.85,0.17c-0.35,0.01-0.7-0.01-1.04-0.04c-0.07,0.01-0.15,0-0.22-0.02c-0.04,0-0.08-0.01-0.13-0.01
				c-0.06,0.04-0.14,0.07-0.23,0.08c-0.57,0.09-1.12,0.07-1.68,0.03c-0.07,0.02-0.14,0.04-0.21,0.04c-3.5,0.12-7.01,0.2-10.51,0.31
				c-3.44,0.11-6.87,0.24-10.31,0.35c-4.21,0.13-8.43,0.22-12.64,0.35c-1.08,0.03-2.16,0.09-3.18,0.14
				c-0.29,0.06-0.58,0.05-0.88,0.03c-0.1,0.01-0.2,0.02-0.31,0.03c0,0.01-0.01,0.02-0.01,0.03h-0.29c-2.05,0.33-4.18,0.37-6.31,0.32
				c-0.06,0.01-0.12,0.02-0.18,0.01c-0.13-0.01-0.26-0.02-0.39-0.03c-0.31-0.01-0.62-0.02-0.94-0.03c-0.05,0.01-0.1,0.01-0.15,0.02
				c-0.11,0.11-0.26,0.19-0.46,0.19h-2.42c-0.73,0.02-1.46,0.03-2.2,0.03c-0.1,0.09-0.23,0.15-0.4,0.15c-2.78,0-5.57,0.17-8.35,0.11
				c-0.12,0-0.24-0.04-0.34-0.1c-0.2,0.1-0.46-0.03-0.51-0.37c-0.08-0.48-0.13-0.98-0.13-1.47c-0.04-3.15-0.04-6.29-0.09-9.44
				c-0.03-2.39-0.12-4.77-0.17-7.16c-0.03-1.55-0.09-3.09-0.02-4.64c0.09-2.3-0.11-4.59-0.1-6.89c0-0.32,0.1-0.65,0.15-1
				c-0.16-0.97-0.31-1.95-0.18-2.95c0-0.03,0-0.06,0-0.09c-0.04-1.58-0.31-3.14-0.33-4.73c-0.03-1.75,0.02-3.52,0.1-5.26
				c0.07-1.57-0.15-3-0.28-4.56c-0.01-0.1,0.01-0.19,0.04-0.27c-0.05-0.68-0.01-1.36,0.08-2.04c-0.03-0.69-0.05-1.39-0.07-2.09
				c-0.03-0.13-0.02-0.28-0.01-0.43c0-0.2-0.01-0.41-0.01-0.61c-0.01-0.07-0.01-0.14,0-0.19c-0.01-0.94-0.01-1.88,0-2.82
				c-0.1-0.07-0.13-0.2-0.02-0.48c0,0,0,0,0.01,0c-0.02-0.18-0.04-0.37-0.06-0.56c-0.01,0-0.01,0.01-0.02,0.01
				c-0.01-0.12-0.01-0.23-0.02-0.35c-0.04-0.45-0.06-0.9-0.06-1.35c-0.01-0.19-0.02-0.37-0.03-0.56c0-0.02-0.01-0.03-0.01-0.05
				c0-0.33-0.01-0.65,0.02-0.97c-0.03-0.21-0.05-0.41-0.06-0.62c0-0.04,0-0.08,0.01-0.12c-0.06-0.49-0.1-0.99-0.11-1.48
				c-0.07-2.38-0.11-4.77-0.16-7.15c-0.08-4-0.18-8-0.22-12c-0.02-2.45,0.12-4.9,0.07-7.34c-0.05-2.33-0.29-4.66-0.41-6.99
				c-0.1-1.84-0.18-3.68-0.23-5.53c-0.06-2.06-0.1-4.13-0.13-6.19c-0.02-1.96,0.01-3.93-0.02-5.89c-0.02-1.46-0.14-2.91-0.14-4.37
				c0-1.43,0.09-2.86,0.14-4.29c0.01-0.21,0.06-0.42,0.1-0.67c1.58,0.81,3.06,1.64,4.59,2.36c1.58,0.74,3.2,1.38,4.96,1.65
				c1.46,0.23,2.87,0.68,4.33,0.93c2.55,0.44,5.12,0.81,7.67,1.21c0.88,0.14,1.75,0.32,2.63,0.42c3.39,0.38,6.78,0.76,10.18,1.09
				c1.88,0.18,3.77,0.24,5.65,0.41c3.04,0.27,6.07,0.61,9.11,0.85c1.5,0.12,3.01,0.06,4.51,0.15c1.27,0.08,2.55,0.14,3.79,0.4
				c2.93,0.62,5.89,0.42,8.84,0.47c2.69,0.04,5.38,0.09,8.07,0.14c3.65,0.06,7.3,0.09,10.95,0.18c3.49,0.08,6.97,0.26,10.46,0.33
				c1.66,0.03,3.32-0.09,4.98-0.15c1.89-0.07,3.78-0.08,5.66-0.25c2.85-0.26,5.74-0.24,8.53-1.02c0.98-0.28,1.91-0.74,2.92-1.14
				c0.01,0.08,0.06,0.29,0.05,0.5c-0.07,3.12-0.14,6.24-0.21,9.36c-0.06,2.69-0.1,5.39-0.18,8.08c-0.08,2.74-0.2,5.47-0.29,8.21
				c-0.11,3.28-0.23,6.55-0.3,9.83C206.16,121.29,206.1,126.12,206,130.96z M235.77,113.41c-0.74,2.83-1.56,5.63-2.87,8.26
				c-0.87,1.75-1.88,3.44-2.65,5.23c-1.19,2.75-2.27,5.54-3.31,8.35c-0.8,2.15-1.62,4.32-2.14,6.54c-0.69,2.91-1.16,5.86-0.87,8.89
				c0.27,2.8,0.92,5.52,1.75,8.19c1.08,3.5,2.38,6.93,2.78,10.62c0.25,2.23,0.33,4.41-0.23,6.62c-0.56,2.21-1.51,4.22-2.71,6.13
				c-1,1.59-2.37,2.84-4.05,3.73c-2.75,1.45-5.62,1.56-8.54,0.59c-0.87-0.29-1.75-0.68-2.5-1.2c-1.18-0.81-1.44-2.06-1.31-3.42
				c0.28-2.85,1.38-5.23,3.69-7.11c1.93-1.57,3.86-3.2,5.48-5.07c2.12-2.42,3.44-5.28,2.88-8.62c-0.2-1.21-0.76-2.33-1.84-3.13
				c-0.67-0.5-1.46-0.44-2.15-0.4c-1.35,0.08-2.69,0.36-3.94,0.94c-2.22,1.03-3.65,2.76-4.68,4.9c-0.98,2.03-1.61,4.15-1.93,6.37
				c-0.08-0.01-0.15-0.01-0.23-0.02c0.26-17.15,0.52-34.29,0.79-51.6c0.6,0.75,1.08,1.34,1.55,1.94c1.78,2.27,4.1,3.64,7,4.01
				c0.49,0.06,1-0.03,1.5,0.03c0.43,0.06,0.93,0.13,1.26,0.38c0.53,0.41,0.85,0.2,1.29-0.11c0.22-0.16,0.59-0.12,0.89-0.15
				c0.21-0.02,0.43,0.01,0.64-0.01c0.43-0.03,0.86-0.09,1.29-0.11c0.04,0,0.09,0.1,0.1,0.13c0.69-0.37,1.32-0.8,2.02-1.06
				c2.05-0.78,3.44-2.26,4.28-4.14c0.7-1.57,1.15-3.26,1.53-4.94c0.63-2.76,0.76-5.58,0.14-8.36c-0.19-0.88-0.72-1.68-1.09-2.52
				c-0.16-0.37-0.35-0.73-0.48-1.11c-0.94-2.88-4.99-5.84-8.63-4.8c-1.84,0.53-3.1,1.7-3.95,3.38c-1.01,2-0.83,4.05-0.48,6.18
				c0.23,1.42,1.21,2.28,1.92,3.34c1.01,1.51,2.1,2.98,3.16,4.46c0.88,1.23,0.97,2.62,0.65,4.01c-0.12,0.5-0.59,1.09-1.06,1.32
				c-3.01,1.49-6.35,1.1-8.66-1.84c-0.93-1.18-1.59-2.5-1.96-3.9c-0.39-1.49-0.49-3.06-0.64-4.6c-0.29-2.94-0.12-5.89-0.04-8.83
				c0.1-3.43,1.23-6.54,3.27-9.19c1.72-2.23,3.84-4.18,6.82-4.78c1.37-0.27,2.73-0.16,4.04,0.22c1.97,0.58,3.71,1.62,5.15,3.06
				c1.73,1.72,3.51,3.42,5.01,5.32c0.81,1.02,1.25,2.41,1.55,3.71c0.53,2.27,1.03,4.57,1.18,6.88
				C236.64,108.56,236.4,111.01,235.77,113.41z"/>
			<path fill="#FFFFFF" d="M146.61,202.23c0.36-0.85,0.87-1.64,0.57-2.22c-0.07-0.07-0.15-0.14-0.23-0.2
				c0.02,0.07,0.04,0.14,0.02,0.25C146.89,200.79,146.75,201.51,146.61,202.23z"/>
			<path fill="#FFFFFF" d="M114.34,181.03c-0.67-1.8-1.87-2.98-3.77-3.49c-0.53-0.14-1.01-0.42-1.52-0.63c0-0.07,0-0.13,0-0.2
				c0.17-0.05,0.35-0.1,0.55-0.15c0.01-0.08,0.03-0.16,0.07-0.24c0.06-0.1,0.13-0.18,0.21-0.26c0.13-0.4,0.59-0.66,0.84-1.02
				c1.95-2.82,1.25-5.48-1.15-7.2c-2.18-1.57-4.73-2.02-7.31-2.05c-2.36-0.03-4.72,0.3-7.08,0.52c-0.22,0.02-0.56,0.31-0.58,0.51
				c-0.1,0.82-0.14,1.65-0.13,2.48c0.06,3.19,0.16,6.38,0.23,9.57c0.05,2.41,0.06,4.81,0.09,7.22c0.03,2.47,0.05,4.94,0.08,7.42
				c0.01,0.45,0.05,0.81,0.7,0.81c1.17,0,2.33,0.05,3.5,0.09c1.68,0.03,3.35,0.05,5.02,0c2.6-0.07,4.72-1.07,7.06-1.75
				c0.32-0.18,0.64-0.35,0.98-0.49c0.04-0.04,0.08-0.08,0.12-0.11c1.44-1.43,2.57-3.04,2.92-5.08
				C115.54,184.91,115.06,182.96,114.34,181.03z"/>
			<path fill="#FFFFFF" d="M161.98,179.24c0.01-0.23,0.04-0.47,0.04-0.7c-0.03-3.53-0.07-7.06-0.11-10.59
				c0-0.34-0.03-0.67-0.06-1.01c-0.05-0.62,0.16-0.74,0.79-0.72c1.54,0.04,3.09,0.03,4.63-0.01c0.54-0.01,0.66,0.15,0.62,0.68
				c-0.1,1.13-0.11,2.27-0.13,3.4c-0.09,5.04-0.21,10.08-0.22,15.12c0,2.15-0.32,4.32,0.26,6.44c0.1,0.37-0.06,0.49-0.41,0.5
				c-1.75,0.01-3.51,0.03-5.26,0.05c-0.09,0-0.18,0-0.27,0.01c-0.34,0.04-0.79,0.22-1,0.08c-0.24-0.17-0.26-0.64-0.41-0.96
				c-1.05-2.19-2.11-4.39-3.18-6.57c-0.57-1.18-1.16-2.34-1.75-3.51c-0.06-0.13-0.15-0.24-0.4-0.34c0,1.09-0.01,2.18,0,3.28
				c0.04,2.27,0.09,4.54,0.15,6.81c0.01,0.21,0.1,0.42,0.16,0.63c0.05,0.16,0.22,0.4,0.18,0.44c-0.14,0.12-0.35,0.24-0.53,0.24
				c-1.09,0-2.17-0.03-3.26-0.04c-0.66-0.01-1.32,0-1.97-0.01c-0.49-0.01-0.69-0.22-0.68-0.77c0.03-2.18-0.01-4.37-0.04-6.55
				c-0.06-5.18-0.13-10.35-0.2-15.53c-0.01-0.83-0.04-1.67-0.06-2.5c-0.02-0.79,0.28-0.99,1.08-0.94c1.5,0.09,3.01,0.11,4.51,0.14
				c0.4,0.01,0.81-0.54,1.22,0.01c0.08,0.11,0.19,0.2,0.24,0.31c1.2,2.61,2.39,5.23,3.59,7.84c0.68,1.47,1.36,2.94,2.05,4.42
				c0.06,0.14,0.15,0.27,0.22,0.4C161.85,179.26,161.91,179.25,161.98,179.24z M166.99,170.06c0.02,0,0.03,0,0.05,0
				c0-0.85,0-1.71,0-2.56c0-0.33-0.12-0.49-0.48-0.48c-1.05,0.01-2.1,0.01-3.15,0c-0.39,0-0.51,0.18-0.51,0.55
				c0,0.72-0.02,1.44-0.04,2.16c-0.05,1.57-0.17,3.14-0.15,4.71c0.03,2.51,0.17,5.03,0.22,7.54c0,0.22-0.29,0.45-0.45,0.67
				c-0.15-0.16-0.31-0.31-0.43-0.48c-0.08-0.1-0.11-0.25-0.16-0.37c-0.88-1.85-1.77-3.7-2.65-5.54c-1.37-2.89-2.75-5.77-4.11-8.67
				c-0.18-0.37-0.41-0.54-0.84-0.53c-1.28,0.03-2.55,0-3.83,0.05c-0.18,0.01-0.49,0.28-0.49,0.44c-0.03,2.38-0.04,4.76-0.03,7.13
				c0.01,1.45,0.09,2.9,0.09,4.35c0.01,2.07-0.05,4.15-0.03,6.22c0.02,1.95,0.13,3.9,0.19,5.86c0.01,0.38,0.11,0.58,0.55,0.57
				c1.02-0.03,2.05-0.06,3.08-0.05c0.59,0.01,0.79-0.2,0.77-0.79c-0.07-3.28-0.08-6.56-0.16-9.84c-0.02-0.82-0.23-1.63-0.3-2.45
				c-0.02-0.22,0.15-0.46,0.24-0.69c0.21,0.09,0.51,0.12,0.62,0.28c0.2,0.31,0.28,0.7,0.44,1.04c1.22,2.63,2.43,5.28,3.68,7.9
				c0.66,1.38,1.39,2.73,2.11,4.07c0.09,0.17,0.33,0.37,0.5,0.37c1.46,0.01,2.92-0.01,4.38-0.04c0.84-0.02,0.93-0.13,0.92-0.96
				c-0.01-1.69-0.02-3.37-0.02-5.06C166.99,180.31,166.99,175.18,166.99,170.06z"/>
			<path fill="#FFFFFF" d="M122.66,182.37c1.98-0.02,3.96-0.09,5.94-0.11c0.52-0.01,0.77-0.23,0.78-0.72c0-0.92,0-1.84-0.02-2.77
				c-0.01-0.42-0.19-0.67-0.69-0.6c-0.38,0.06-0.77,0.06-1.16,0.06c-2.02,0.01-4.04,0-6.04,0c-0.05-0.19-0.1-0.28-0.1-0.36
				c-0.06-1.98-0.12-3.96-0.18-5.93c-0.01-0.45,0.25-0.57,0.65-0.58c1.02-0.03,2.05-0.1,3.07-0.11c1.09-0.02,2.19-0.07,3.27,0.04
				c0.96,0.09,1.11,0.04,1.13-0.94c0.01-0.97,0.03-1.93,0.07-2.9c0.04-0.97-0.11-1.15-1.07-1.24c-0.18-0.02-0.36-0.03-0.55-0.02
				c-2.46,0.03-4.92,0.08-7.38,0.09c-0.11,0-0.23-0.03-0.35-0.06c-0.62,0-1.18,0-1.79,0c-0.03,0.03-0.05,0.04-0.07,0.04
				c-0.58,0.04-1.17,0.07-1.74,0.01c-0.71-0.08-0.92,0.06-0.92,0.76c0.03,3.17,0.03,6.34,0.09,9.51c0.09,4.29,0.24,8.59,0.34,12.88
				c0.03,1.06,0.07,2.12-0.04,3.16c-0.07,0.61,0.15,0.82,0.65,0.84c0.7,0.02,1.41-0.04,2.11-0.07c3.26-0.13,6.51-0.29,9.77-0.38
				c0.65-0.02,0.86-0.23,0.85-0.82c-0.01-0.94-0.05-1.89,0.02-2.83c0.05-0.59-0.17-0.78-0.71-0.79c-2.07-0.01-4.14-0.05-6.22-0.02
				c-0.57,0.01-0.77-0.18-0.78-0.72c-0.02-1.44-0.09-2.87-0.11-4.31C121.47,182.35,121.48,182.38,122.66,182.37z M120.73,187.76
				c0,0.11,0.01,0.22,0,0.34c-0.05,1.25-0.05,1.3,1.19,1.31c1.82,0.02,3.64-0.06,5.47-0.07c0.99-0.01,1.01,0.03,1,1.04
				c-0.01,0.58,0,1.16,0,1.85c-1.3,0.06-2.57,0.13-3.84,0.16c-2.26,0.06-4.51,0.1-6.77,0.15c-0.89,0.02-1.02-0.02-1.04-0.91
				c-0.07-2.34-0.08-4.68-0.1-7.02c-0.04-3.91-0.07-7.83-0.11-11.74c-0.02-1.68-0.05-3.37-0.08-5.05c-0.01-0.4,0.05-0.69,0.58-0.69
				c3.68,0.01,7.35,0.01,11.03,0.01c0.09,0,0.18,0.02,0.47,0.06c0,0.94,0.02,1.89-0.02,2.83c-0.01,0.15-0.3,0.42-0.47,0.42
				c-1.59,0.06-3.19,0.09-4.78,0.09c-0.77,0-1.54-0.12-2.31-0.15c-0.42-0.01-0.68,0.22-0.67,0.67c0.07,2.49,0.14,4.99,0.22,7.48
				c0.01,0.49,0.24,0.73,0.78,0.71c2.18-0.08,4.37-0.13,6.55-0.23c0.51-0.02,0.71,0.13,0.71,0.63c0,2.11,0.29,1.7-1.68,1.75
				c-1.87,0.05-3.73,0-5.6,0c-0.47,0-0.7,0.2-0.69,0.7C120.63,183.99,120.68,185.88,120.73,187.76z"/>
			<path fill="#FFFFFF" d="M101.14,156.23c0.32,1.92,0.63,3.73,0.94,5.55c0.03,0.18,0.07,0.38,0.18,0.5
				c0.27,0.28,0.55,0.65,0.89,0.72c0.23,0.05,0.68-0.27,0.83-0.54c0.78-1.44,1.51-2.91,2.24-4.38c0.73-1.47,0.34-2.99,0.19-4.5
				c-0.14-1.4-0.28-2.81-0.3-4.21c-0.01-0.8,0.75-1.55,1.39-1.61c0.76-0.07,1.12,0.26,1.22,1.02c0.26,2.04-0.27,3.96-0.73,5.92
				c-0.3,1.29-0.41,2.63-0.48,3.94c0.62-0.92,1.2-1.86,1.88-2.74c0.26-0.34,0.73-0.53,1.1-0.79c0.09,0.44,0.23,0.88,0.27,1.32
				c0.15,1.92-0.05,3.87,0.55,5.76c0.21,0.66,0.5,0.79,1.1,0.46c0.04-0.02,0.08-0.05,0.11-0.07c1.06-0.66,1.1-0.68,0.48-1.72
				c-0.67-1.14-0.53-2.28-0.13-3.44c0.23-0.65,0.43-1.32,1.14-1.68c0.71-0.36,0.96-0.3,1.41,0.32c0.56,0.77,0.75,1.58,0.48,2.48
				c-0.26,0.88-0.52,1.76-0.84,2.62c-0.14,0.36-0.14,0.56,0.21,0.77c0.86,0.52,1.82,0.46,2.71,0.31c0.33-0.06,0.65-0.69,0.82-1.11
				c0.26-0.64,0.38-1.34,0.57-2.01c0.03-0.12,0.12-0.22,0.18-0.33c0.08,0,0.16-0.01,0.23-0.01c0.05,0.52,0.17,1.05,0.13,1.56
				c-0.04,0.58-0.21,1.15-0.35,1.71c-0.2,0.8-0.68,1.24-1.55,1.37c-1.23,0.18-2.36-0.01-3.41-0.65c-0.33-0.2-0.58-0.21-0.9,0.07
				c-0.33,0.3-0.75,0.52-1.14,0.75c-0.91,0.54-1.68,0.22-2.08-0.76c-0.65-1.62-0.52-3.31-0.62-4.99c-0.02-0.31-0.06-0.62-0.11-1.09
				c-0.73,0.74-1.14,1.5-1.42,2.34c-0.43,1.28-0.86,2.55-0.65,3.94c0.06,0.38-0.01,1-0.58,0.96c-0.58-0.04-0.35-0.62-0.35-1
				c-0.01-1,0-2,0-2.99c-0.08-0.01-0.17-0.02-0.25-0.03c-0.43,0.78-0.84,1.57-1.29,2.34c-0.2,0.35-0.43,0.7-0.71,0.99
				c-1.08,1.11-2.66,0.87-3.15-0.59c-0.44-1.33-0.6-2.76-0.86-4.15c-0.12-0.62-0.22-1.24-0.28-1.87c-0.04-0.42-0.26-0.51-0.63-0.52
				c-0.66-0.01-1.32-0.02-1.98-0.11c-0.22-0.03-0.41-0.3-0.61-0.46c0.23-0.16,0.44-0.44,0.68-0.46c0.49-0.06,1,0,1.5,0.05
				c0.57,0.05,0.77-0.17,0.74-0.73c-0.08-1.19-0.12-2.38-0.16-3.57c-0.03-0.88,0-1.73,0.52-2.53c0.37-0.57,0.85-0.96,1.48-0.9
				c0.63,0.06,1.17,0.38,1.46,1.06c0.52,1.21,0.4,2.42,0.16,3.65c-0.04,0.18-0.28,0.32-0.43,0.48c-0.07-0.22-0.18-0.43-0.19-0.65
				c-0.01-0.8,0.11-1.61,0.02-2.39c-0.1-0.83-0.73-1.41-1.21-1.37c-0.52,0.05-0.94,0.68-0.92,1.56c0.05,1.61,0.17,3.22,0.23,4.84
				c0.02,0.38,0.19,0.54,0.54,0.52c0.61-0.04,1.23-0.06,1.83-0.16c0.43-0.07,0.76-0.06,0.79,0.43c0.03,0.43-0.16,0.71-0.68,0.71
				C102.67,156.13,101.96,156.19,101.14,156.23z M114.45,160.82c0.28-0.93,0.62-1.85,0.81-2.8c0.08-0.41-0.11-0.9-0.29-1.31
				c-0.24-0.55-0.61-0.36-0.88,0C113.3,157.7,113.38,159.72,114.45,160.82z M107.13,153.27c0.1,0.01,0.19,0.02,0.29,0.02
				c0.34-1.33,0.73-2.65,0.53-4.05c-0.03-0.23-0.2-0.44-0.3-0.66c-0.22,0.17-0.46,0.32-0.65,0.52c-0.09,0.1-0.13,0.3-0.12,0.45
				C106.96,150.79,107.05,152.03,107.13,153.27z"/>
			<path fill="#FFFFFF" d="M175.26,177.63c1.36,0,2.59,0.01,3.81,0c1.02-0.01,2.05-0.03,3.07-0.05c0.18,0,0.36-0.04,0.53-0.1
				c0.55-0.18,0.86,0.11,0.84,0.69c-0.05,0.95-0.05,1.91-0.02,2.87c0.02,0.57-0.34,0.54-0.71,0.54c-2.05,0.01-4.1,0.02-6.15,0.03
				c-0.09,0-0.18-0.01-0.27,0c-1.14,0.08-1.17,0.12-1.19,1.23c-0.02,1.28-0.09,2.56-0.09,3.84c0,0.98,0.13,1.06,1.12,1.06
				c1.94,0.01,3.87,0.04,5.81,0.02c0.55,0,0.72,0.18,0.69,0.71c-0.05,0.94-0.07,1.89-0.06,2.83c0,0.6-0.31,0.81-0.85,0.79
				c-2.8-0.08-5.6-0.18-8.4-0.23c-0.97-0.02-1.95,0.09-2.92,0.18c-0.21,0.02-0.41,0.22-0.72,0.4c-0.08-0.22-0.22-0.43-0.22-0.63
				c0.04-5.62,0.1-11.24,0.15-16.86c0.02-2.32,0.06-4.63,0.09-6.95c0-0.34-0.04-0.67-0.07-1.01c-0.06-0.65,0.22-0.97,0.88-0.95
				c2.57,0.07,5.15,0.2,7.72,0.23c1.43,0.02,2.87-0.08,4.3-0.18c0.47-0.03,0.74,0.11,0.75,0.54c0.03,1.48,0.04,2.97,0.02,4.45
				c0,0.13-0.28,0.38-0.42,0.38c-1.25,0-2.49-0.06-3.74-0.09c-0.93-0.02-1.87,0-2.8-0.05c-0.62-0.04-0.91,0.1-0.92,0.79
				C175.44,173.87,175.34,175.64,175.26,177.63z M176.52,166.92c0-0.03,0-0.05,0-0.08c-1.78,0-3.56,0.01-5.33-0.01
				c-0.42,0-0.62,0.1-0.61,0.57c0.01,0.78-0.07,1.57-0.07,2.36c-0.01,2.04,0.03,4.09,0.01,6.13c-0.02,2.13-0.11,4.27-0.13,6.4
				c-0.01,1.84,0.06,3.67,0.07,5.51c0,0.92-0.07,1.84-0.05,2.76c0,0.17,0.28,0.47,0.45,0.49c0.93,0.09,1.86,0.11,2.79,0.13
				c1.57,0.04,3.14,0.07,4.71,0.08c1.02,0,2.04-0.04,3.05-0.11c0.15-0.01,0.39-0.3,0.41-0.48c0.05-0.53,0-1.08,0.01-1.62
				c0.01-0.43-0.17-0.59-0.62-0.57c-1.77,0.05-3.55,0.04-5.33,0.09c-1.8,0.06-1.71,0.07-1.62-1.47c0.11-1.82,0.14-3.64,0.19-5.46
				c0.01-0.45,0.17-0.65,0.65-0.65c0.59,0,1.18-0.07,1.77-0.07c1.71-0.01,3.41-0.03,5.12,0.01c0.51,0.01,0.65-0.19,0.64-0.63
				c-0.02-0.45-0.1-0.9-0.05-1.34c0.06-0.56-0.2-0.66-0.66-0.65c-1.98,0.04-3.96,0.05-5.94,0.12c-1.14,0.04-1.35-0.09-1.38-1.22
				c-0.03-0.92-0.07-1.84-0.07-2.75c0-1.01,0.03-2.02,0.06-3.04c0.02-0.62,0.35-0.88,0.97-0.87c0.82,0.01,1.63-0.03,2.45-0.02
				c0.64,0.01,1.27,0.06,1.91,0.09c0.72,0.03,1.44,0.07,2.16,0.06c0.44,0,0.62-0.27,0.59-0.72c-0.05-0.72-0.06-1.44-0.06-2.16
				c0-0.61-0.23-0.9-0.89-0.89C179.98,166.94,178.25,166.92,176.52,166.92z"/>
			<path fill="#FFFFFF" d="M148.56,192.13c-0.09-0.44-0.26-0.86-0.37-1.29c-0.67-2.62-1.36-5.23-2.01-7.85
				c-0.91-3.65-1.81-7.3-2.69-10.95c-0.43-1.79-0.81-3.6-1.23-5.4c-0.07-0.32-0.16-0.62-0.66-0.6c-2.06,0.08-4.13,0.13-6.19,0.14
				c-0.61,0-0.81,0.13-0.82,0.73c0,0.36-0.04,0.72-0.11,1.07c-0.73,3.71-1.46,7.42-2.2,11.12c-0.56,2.8-1.12,5.6-1.68,8.41
				c-0.28,1.37-0.53,2.74-0.87,4.09c-0.25,1-0.09,1.33,0.96,1.35c1.36,0.03,2.73,0,4.1,0c0.42,0,0.59-0.2,0.67-0.6
				c0.61-3.13,1.24-6.26,1.86-9.39c0.09-0.44,0.34-0.61,0.76-0.61c0.66-0.01,1.32-0.02,1.98-0.02c0.36,0,0.59,0.14,0.65,0.54
				c0.1,0.71,0.24,1.41,0.37,2.12c0.42,2.3,0.9,4.58,1.22,6.89c0.03,0.24,0.13,0.52,0.16,0.8c0.23,0.01,0.45,0.03,0.68,0.06
				c0.7,0.09,1.49,0.04,2.22,0.15c0.87-0.03,1.73-0.06,2.6-0.08C148.48,192.8,148.65,192.57,148.56,192.13z M146.7,191.96
				c-0.96,0.04-1.91,0.06-2.87,0.11c-0.39,0.02-0.56-0.11-0.63-0.51c-0.57-3.19-1.16-6.37-1.74-9.56c-0.13-0.7-0.32-0.74-1.03-0.61
				c-0.82,0.15-1.68,0.14-2.52,0.14c-1.04-0.01-1.11-0.01-1.32,0.99c-0.61,2.86-1.18,5.72-1.78,8.58c-0.19,0.9-0.32,0.97-1.24,0.96
				c-0.93-0.02-1.86,0-2.98,0c0.17-1.2,0.27-2.31,0.48-3.4c0.49-2.6,1.02-5.2,1.57-7.8c0.73-3.48,1.49-6.94,2.23-10.42
				c0.19-0.9,0.38-1.8,0.53-2.71c0.07-0.4,0.21-0.6,0.64-0.61c1.55-0.03,3.1-0.06,4.65-0.11c0.51-0.02,0.77,0.17,0.89,0.69
				c1.34,5.6,2.7,11.21,4.08,16.8c0.54,2.21,1.14,4.4,1.7,6.6C147.53,191.87,147.47,191.93,146.7,191.96z"/>
			<path fill="#FFFFFF" d="M195.14,172.98c0.4-0.84,0.77-1.59,1.13-2.36c0.41-0.88,0.82-1.75,1.24-2.63
				c0.06-0.12,0.16-0.25,0.15-0.37c-0.06-1.07,0.57-1.11,1.43-1.09c1.39,0.03,2.78-0.07,4.16-0.11c0.86-0.02,1.11,0.27,0.77,1.05
				c-0.61,1.4-1.29,2.77-1.91,4.16c-1.15,2.57-2.35,5.12-3.36,7.74c-0.36,0.95-0.25,2.08-0.3,3.13c-0.12,2.38-0.2,4.76-0.28,7.14
				c-0.01,0.35,0.09,0.71,0.14,1.07c0.09,0.63-0.06,0.75-0.68,0.75c-2.02,0-4.04,0.03-6.06,0.06c-0.48,0.01-0.66-0.22-0.64-0.66
				c0.13-3.79,0.27-7.59,0.36-11.38c0.01-0.56-0.17-1.16-0.41-1.67c-1.46-3.15-2.96-6.27-4.46-9.41c-0.14-0.28-0.29-0.56-0.43-0.84
				c-0.32-0.6-0.14-0.97,0.54-1.01c0.52-0.03,1.04,0.01,1.56,0.01c1.18,0.01,2.37,0.02,3.55,0c0.45-0.01,0.67,0.13,0.85,0.57
				c0.78,1.85,1.61,3.67,2.43,5.51C194.93,172.74,195.01,172.82,195.14,172.98z M186.74,167.26c0.06,0.29,0.07,0.43,0.13,0.54
				c0.59,1.27,1.16,2.54,1.78,3.79c1.11,2.24,2.24,4.47,3.35,6.71c0.1,0.21,0.17,0.46,0.16,0.69c-0.03,1.43-0.09,2.87-0.11,4.3
				c-0.02,0.83,0.2,1.71-0.03,2.47c-0.44,1.46-0.21,2.93-0.3,4.39c-0.03,0.51,0.24,0.66,0.72,0.65c1.46-0.05,2.92-0.1,4.37-0.11
				c0.6,0,0.73-0.3,0.74-0.79c0.06-3.08,0.13-6.16,0.19-9.23c0.02-0.76,0.11-1.45,0.47-2.18c1.63-3.38,3.15-6.82,4.7-10.24
				c0.31-0.67,0.17-0.94-0.57-0.95c-0.98-0.02-1.96,0.09-2.93,0.03c-0.59-0.03-0.88,0.19-1.1,0.67c-0.82,1.82-1.66,3.64-2.47,5.46
				c-0.11,0.26-0.16,0.55-0.2,0.83c-0.05,0.34-0.07,0.68-0.09,0.86c-0.3-0.18-0.7-0.28-0.82-0.52c-0.35-0.71-0.59-1.49-0.89-2.23
				c-0.64-1.58-1.28-3.16-1.96-4.73c-0.08-0.18-0.34-0.38-0.53-0.39C189.85,167.25,188.35,167.26,186.74,167.26z"/>
			<path fill="#FFFFFF" d="M114.45,160.82c-1.07-1.09-1.14-3.12-0.37-4.11c0.27-0.35,0.64-0.54,0.88,0c0.18,0.41,0.37,0.9,0.29,1.31
				C115.07,158.96,114.73,159.88,114.45,160.82z"/>
			<path fill="#FFFFFF" d="M107.13,153.27c-0.08-1.24-0.17-2.48-0.24-3.72c-0.01-0.15,0.02-0.35,0.12-0.45
				c0.19-0.2,0.43-0.35,0.65-0.52c0.1,0.22,0.27,0.43,0.3,0.66c0.19,1.4-0.19,2.72-0.53,4.05
				C107.33,153.28,107.23,153.28,107.13,153.27z"/>
			<path fill="#FFFFFF" d="M138.74,179.01c-1.45,0.03-1.59,0.17-1.19-1.72c0.27-1.31,0.41-2.66,0.55-3.99
				c0.06-0.61,0.46-0.74,0.93-0.77c0.54-0.03,0.55,0.4,0.62,0.79c0.24,1.39,0.46,2.79,0.77,4.17c0.31,1.39,0.24,1.52-1.2,1.52
				C139.1,179.01,138.98,179.01,138.74,179.01z M139.84,178.14c-0.3-1.37-0.58-2.66-0.86-3.95c-0.04,0-0.09,0.01-0.13,0.01
				c-0.24,1.3-0.47,2.6-0.72,3.94C138.75,178.14,139.21,178.14,139.84,178.14z"/>
		</g>
	</g>
</g>
</svg>
