<?xml version="1.0" encoding="utf-8"?>
<!-- Generator: Adobe Illustrator 23.0.0, SVG Export Plug-In . SVG Version: 6.00 Build 0)  -->
<svg version="1.1" id="Layer_1" xmlns="http://www.w3.org/2000/svg" xmlns:xlink="http://www.w3.org/1999/xlink" x="0px" y="0px"
	 viewBox="0 0 300 300" enable-background="new 0 0 300 300" xml:space="preserve">
<rect fill="#FCFAE9" width="300" height="300"/>
<rect x="10" y="10" fill="#A4D0C9" width="280" height="280"/>
<g>
	<ellipse fill="#E9AF85" cx="150" cy="150" rx="133.42" ry="127.5"/>
	<g>
		<path fill="#FFFFFF" d="M263.44,108.62c-0.11-1.21-0.37-2.4-0.56-3.6c-0.17-1.03-0.19-2.11-0.53-3.08
			c-0.93-2.69-1.92-5.36-3.04-7.98c-0.74-1.74-1.69-3.42-2.66-5.06c-0.58-0.99-1.33-1.91-2.08-2.8c-1.19-1.42-2.48-2.77-4.14-3.68
			c-1.54-0.84-3.14-1.61-4.78-2.25c-0.94-0.37-2.07-0.3-3.04-0.62c-1.54-0.51-3.09-0.79-4.71-0.71c-0.53,0.03-1.06-0.09-1.59-0.08
			c-0.78,0.02-1.55,0.08-2.33,0.14c-0.84,0.07-1.69,0.11-2.52,0.26c-2.4,0.44-4.46,1.64-6.45,2.88c-1.21,0.75-2.26,1.8-3.2,2.87
			c-1.24,1.41-2.49,2.85-3.13,4.66c-0.19,0.54-0.41,1.08-0.66,1.61c-0.81,1.72-1.27,3.5-1.17,5.39c0.02,0.35,0,0.69,0,1.04
			c-0.09,0.01-0.19,0.01-0.28,0.02c-0.1-0.25-0.21-0.5-0.29-0.76c-0.42-1.36-0.78-2.74-1.26-4.09c-0.34-0.96-1.03-1.84-1.23-2.81
			c-0.32-1.6-1.56-2.83-1.75-4.47c-0.06-0.53-0.52-1.02-0.81-1.52c-1.19-2.09-2.39-4.18-3.59-6.27c-0.5-0.87-1.17-1.57-2.11-2.02
			c-0.54-0.26-1.06-0.55-1.59-0.82c-1.1-0.55-2.16-1.17-3.3-1.61c-2.49-0.96-5.01-1.86-7.55-2.72c-1.09-0.37-2.22-0.63-3.35-0.88
			c-2.78-0.6-5.57-1.17-8.36-1.73c-1.28-0.26-2.58-0.49-3.87-0.68c-1.05-0.15-2.11-0.17-3.16-0.31c-1.19-0.15-2.37-0.39-3.56-0.54
			c-3.75-0.47-7.51-0.96-11.27-1.36c-3.46-0.37-6.92-0.69-10.4-0.9c-3.4-0.2-6.82-0.33-10.23-0.32c-4.17,0.01-8.34,0.19-12.51,0.31
			c-0.09,0-0.17,0.03-0.26,0.04c-0.78,0.14-1.55,0.34-2.34,0.42c-2.61,0.27-5.24,0.43-7.84,0.78c-2.04,0.27-4.05,0.74-6.07,1.15
			c-2.89,0.59-5.78,1.18-8.67,1.82c-1.93,0.43-3.85,0.89-5.75,1.41c-1.2,0.32-2.35,0.78-3.53,1.17c-0.67,0.22-1.39,0.34-2.03,0.63
			c-1.57,0.7-3.13,1.44-4.65,2.23c-0.53,0.27-0.97,0.71-1.4,1.12c-0.33,0.32-0.56,0.72-0.86,1.07c-0.17,0.19-0.42,0.32-0.57,0.53
			c-0.83,1.1-1.67,2.19-2.45,3.32c-0.86,1.24-1.75,2.48-2.46,3.8c-0.75,1.39-1.61,2.72-2.1,4.27c-0.61,1.94-1.61,3.77-2.39,5.66
			c-0.72,1.76-1.37,3.54-2.01,5.33c-0.65,1.79-1.25,3.59-1.88,5.38c-0.85,2.42-1.73,4.83-2.56,7.25c-0.69,2.01-1.34,4.04-2.01,6.07
			c-0.72,2.16-1.53,4.3-2.13,6.48c-0.73,2.67-1.27,5.38-1.89,8.07c-0.34,1.49-0.69,2.99-1.02,4.48c-0.39,1.71-0.82,3.4-1.13,5.12
			c-0.29,1.61-0.44,3.25-0.68,4.87c-0.03,0.18-0.09,0.37-0.16,0.56c0.09,0.09,0.14,0.22,0.14,0.38c-0.07,1.53-0.27,3.04-0.31,4.58
			c-0.01,0.65-0.12,1.29-0.24,1.92c0.01,0.04,0.03,0.07,0.03,0.11c0.11,0.87,0.01,1.77,0.18,2.62c0.08,0.41-0.16,0.71-0.05,1.14
			c0.38,1.52,0.56,3.09,0.81,4.63c0.01,0.03,0,0.07,0,0.1c0.06,0.45,0.11,0.91,0.15,1.36c0.27,0.54,0.27,1.2,0.44,1.76
			c0.2,0.63,0.18,1.32,0.19,2c0.05,0.06,0.08,0.14,0.1,0.23c0.16,0.9-0.02,1.85-0.04,2.78c0.02,0.14,0.03,0.27,0.05,0.41
			c0,0,0,0.01,0.01,0.01c0.43,0.48,0.45,0.93,0.25,1.23c0.15,0.65,0.27,1.14,0.37,1.62c0.08,0.37,0.16,0.73,0.2,1.1
			c0.08,0.67,0.13,1.34,0.2,2.01c0.04,0.34,0.09,0.69,0.13,1.03c0.09,0.29-0.11,0.77,0.02,0.87c0.53,0.4,0.37,0.97,0.53,1.46
			c0.27,0.82,0.52,1.66,0.78,2.5c0.28,0.48,0.46,1.03,0.63,1.57c0.01,0.03,0.02,0.06,0.03,0.09c0.1,0.11,0.17,0.22,0.15,0.29
			c-0.01,0.04-0.01,0.07-0.02,0.1c0.11,0.33,0.22,0.65,0.35,0.97c0.12,0.18,0.23,0.37,0.25,0.6c0,0.01-0.01,0.02-0.01,0.03
			c0.14,0.36,0.29,0.72,0.44,1.08c1.1,2.3,2.18,4.55,3.26,6.8c0.3,0.38,0.58,0.76,0.87,1.15c0.09-0.01,0.25,0.04,0.42,0.05
			c-0.09,0.08-0.16,0.15-0.23,0.21c0.2,0.27,0.39,0.53,0.59,0.8c0.61,0.33,0.88,0.85,1.04,1.46c1.61,2.28,3.18,4.6,4.89,6.81
			c0,0,0,0,0.01,0c0.79,0.43,1.2,1.05,1.53,1.81c0.04,0.1,0.09,0.19,0.14,0.28c0.21,0.27,0.43,0.55,0.64,0.83
			c0.64,0.59,1.56,0.93,1.72,1.91c0.01,0.09,0.13,0.16,0.21,0.24c0.97,0.97,1.93,1.96,2.92,2.91c0.27,0.26,0.68,0.4,0.92,0.67
			c0.32,0.37,0.6,0.77,0.89,1.17c0.3,0.27,0.6,0.55,0.9,0.82c0.09,0.04,0.18,0.08,0.26,0.12c0.11,0.06,0.24,0.08,0.33,0.15
			c0.66,0.54,1.32,1.08,1.96,1.64c0.21,0.18,0.39,0.4,0.62,0.64c0.19,0.08,0.48,0.14,0.69,0.29c0.79,0.56,1.53,1.18,2.33,1.72
			c0.83,0.56,1.72,1.05,2.57,1.6c0.49,0.32,0.92,0.71,1.43,1.01c0.7,0.41,1.52,0.65,2.13,1.14c0.56,0.45,1.18,0.64,1.83,0.84
			c0.08,0.03,0.16,0.08,0.24,0.12c1,0.42,2.02,0.83,3.01,1.27c0.33,0.15,0.6,0.39,0.91,0.57c0.14,0.08,0.3,0.18,0.46,0.2
			c0.35,0.03,0.72-0.06,1.04,0.03c0.67,0.19,1.3,0.59,1.98,0.67c1.44,0.17,2.73,0.82,4.22,0.9c3.02,0.15,6.03,0.53,9.05,0.81
			c2.84,0.26,5.69,0.51,8.53,0.79c2.46,0.24,4.92,0.67,7.38,0.73c2.59,0.07,5.18,0.29,7.81,0.03c2.21-0.22,4.49,0.17,6.73,0.3
			c0.63,0.04,1.26,0.23,1.83-0.27c0.18-0.16,0.55-0.14,0.84-0.16c0.9-0.04,1.8-0.05,2.7-0.07c2.52-0.04,5.04-0.06,7.56-0.11
			c0.68-0.02,1.36-0.11,2.03-0.22c0.38-0.06,0.74-0.26,1.12-0.31c0.97-0.13,1.94-0.21,2.91-0.32c0.46-0.05,0.93-0.07,1.38-0.18
			c0.57-0.14,1.08-0.6,1.74-0.24c0.08,0.04,0.25-0.08,0.38-0.09c0.81-0.1,1.62-0.26,2.44-0.28c1.06-0.02,2.1,0.04,3-0.65
			c0.24-0.18,0.54-0.29,0.83-0.41c3.03-1.23,6.07-2.46,9.1-3.67c0.57-0.23,1.18-0.38,1.73-0.65c1.06-0.52,2.1-1.1,3.14-1.65
			c0.86-0.46,1.75-0.86,2.55-1.4c1.46-0.96,2.84-2.03,4.29-3c0.37-0.24,0.9-0.16,1.27-0.56c0.46-0.48,1.03-0.88,1.58-1.27
			c0.31-0.22,0.73-0.3,1.03-0.53c1.26-1,2.49-2.02,3.72-3.05c0.35-0.29,0.65-0.64,0.98-0.95c0.96-0.88,1.99-1.7,2.87-2.65
			c1.56-1.69,3.07-3.43,4.52-5.2c0.43-0.53,0.56-1.27,0.95-1.84c0.5-0.74,1.18-1.37,1.67-2.12c0.62-0.95,1.17-1.95,1.66-2.96
			c0.62-1.27,1.13-2.59,1.73-3.87c0.44-0.96,0.94-1.89,1.49-3c0,0.52-0.01,0.84,0,1.16c0.08,2.32,0.88,4.43,2.2,6.35
			c0.49,0.72,1.03,1.51,1.75,1.98c0.94,0.61,2.05,1.03,3.14,1.37c1.48,0.46,2.97,0.95,4.58,0.83c0.6-0.05,1.2-0.13,1.8-0.12
			c2.54,0.05,4.81-0.78,6.82-2.14c2.51-1.7,4.38-4,5.67-6.67c0.71-1.46,1.18-3.03,1.66-4.58c0.17-0.53,0.1-1.15,0.06-1.72
			c-0.06-0.85-0.24-1.68-0.31-2.53c-0.18-2.38-0.36-4.75-1.32-7.01c-0.7-1.65-1.54-3.17-3.22-4.09c-0.65-0.36-1.35-0.63-2.04-0.92
			c-1.07-0.45-2.14-0.6-3.32-0.28c-1.75,0.48-2.92,1.69-4.11,2.83c-1.04,1-1.32,2.4-1.29,3.79c0.04,1.68,0.55,3.28,1.38,4.76
			c0.36,0.64,0.8,1.2,1.68,1.42c1.18,0.29,2.33,0.73,3.43,1.23c0.61,0.28,1.22,0.74,1.6,1.27c0.49,0.69,1.03,1.43,0.83,2.41
			c-0.28,1.43-1.03,2.64-1.88,3.78c-1.2,1.61-2.97,2.33-4.96,2.61c-2.51,0.35-4.79-0.13-6.61-1.88c-1.37-1.31-2.2-3.02-2.38-4.77
			c-0.22-2.12-0.15-4.33,0.24-6.42c0.44-2.4,1.34-4.71,2.59-6.88c1.67-2.89,3.19-5.86,4.84-8.76c0.77-1.36,1.67-2.67,2.54-3.98
			c1.03-1.55,2.05-3.1,3.16-4.6c1.5-2.01,3.12-3.94,4.62-5.96c1.27-1.72,2.48-3.49,3.64-5.28c1.71-2.65,3.42-5.31,4.81-8.14
			c1.49-3.04,3.01-6.08,4.45-9.15c1-2.13,2.04-4.27,2.8-6.49c1.16-3.4,2.17-6.86,2.11-10.5
			C263.57,111.16,263.56,109.88,263.44,108.62z M85.64,75.57c0.5-0.92,1.26-1.51,2.26-1.88c1.68-0.63,3.3-1.4,5.01-1.95
			c2.22-0.71,4.49-1.27,6.73-1.88c0.79-0.22,1.59-0.43,2.39-0.61c1.39-0.31,2.77-0.62,4.17-0.89c2.47-0.47,4.94-0.93,7.41-1.36
			c2.47-0.43,4.94-0.95,7.43-1.22c2.81-0.31,5.64-0.39,8.46-0.56c0.91-0.06,1.83-0.1,2.74-0.15c0,0.03,0.01,0.07,0.01,0.1
			c0.75-0.09,1.49-0.23,2.24-0.28c1.49-0.09,3.05-0.43,4.46-0.13c2.24,0.47,4.45-0.13,6.66,0.23c1.28,0.21,2.58,0.37,3.88,0.47
			c0.88,0.07,1.79-0.06,2.67,0.01c3.36,0.24,6.72,0.51,10.07,0.8c1.39,0.12,2.78,0.26,4.17,0.45c2.76,0.37,5.52,0.77,8.28,1.16
			c1.92,0.27,3.85,0.47,5.76,0.8c2.3,0.4,4.59,0.89,6.88,1.39c1.32,0.29,2.63,0.66,3.94,1.01c1.78,0.46,3.61,0.81,5.33,1.43
			c2.39,0.87,4.71,1.92,7.04,2.95c0.88,0.39,1.64,0.96,2.14,1.81c0.36,0.63,0.33,1.13-0.34,1.53c-0.97,0.57-1.96,1.13-3,1.58
			c-2.25,0.98-4.62,1.51-7.09,1.7c-4.11,0.32-8.21,0.79-12.33,1.09c-2.42,0.18-4.86,0.15-7.29,0.26c-0.72,0.03-1.44,0.21-2.16,0.33
			c-0.35,0.06-0.7,0.14-1.05,0.19c-1.17,0.14-2.34,0.32-3.51,0.38c-2.02,0.11-4.05,0.15-6.08,0.2c-2.92,0.07-5.84,0.13-8.76,0.15
			c-1.17,0.01-2.35-0.12-3.52-0.12c-0.5,0-1,0.23-1.49,0.23c-2.02,0-4.05-0.08-6.07-0.07c-0.97,0-1.95,0.12-2.92,0.18
			c-0.13,0.01-0.26,0.04-0.39,0.04c-1.07-0.05-2.13-0.11-3.2-0.15c-2.28-0.08-4.57-0.12-6.85-0.23c-2.18-0.11-4.37-0.22-6.54-0.45
			c-2.44-0.26-4.85-0.71-7.28-1c-2.13-0.25-4.29-0.37-6.43-0.57c-0.37-0.03-0.74-0.14-1.11-0.22c-1.8-0.39-3.61-0.75-5.41-1.16
			c-2.27-0.53-4.53-1.13-6.81-1.64c-0.73-0.17-1.5-0.2-2.25-0.26c-2.31-0.19-4.39-1.05-6.46-1.94c-0.52-0.22-1.04-0.48-1.53-0.76
			C85.48,76.33,85.42,76,85.64,75.57z M121.52,228.47c-3.08-0.31-6.16-0.62-9.22-1.06c-2.4-0.34-4.77-0.86-7.15-1.34
			c-0.37-0.07-0.69-0.31-1.14-0.53c-0.02,0.01-0.21,0.13-0.34,0.09c-1.13-0.37-2.25-0.76-3.37-1.18c-0.26-0.1-0.45-0.38-0.71-0.51
			c-0.28-0.15-0.61-0.22-0.91-0.34c-0.52-0.22-1.05-0.43-1.55-0.69c-0.58-0.3-1.11-0.7-1.71-0.97c-0.38-0.17-0.66-0.29-0.69-0.74
			c-0.01-0.13-0.26-0.29-0.43-0.37c-0.62-0.29-1.29-0.5-1.87-0.85c-0.97-0.58-1.9-1.24-2.82-1.89c-0.08-0.06,0-0.32-0.09-0.4
			c-0.24-0.2-0.52-0.34-0.81-0.53c-0.25-0.39-0.56-0.84-0.82-1.32c-0.01-0.01-0.01-0.02-0.02-0.04c-0.49-0.33-0.81-0.77-1.16-1.22
			c-0.32-0.22-0.63-0.46-0.93-0.7c-0.45-0.22-0.88-0.46-1.29-0.72c-0.02,0.04-0.04,0.08-0.06,0.13c-0.21-0.19-0.42-0.35-0.59-0.54
			c-0.03-0.03-0.04-0.07-0.07-0.1c-0.76-0.6-1.35-1.29-1.6-2.05c-0.26-0.11-0.47-0.34-0.65-0.62c-0.14-0.21-0.27-0.42-0.2-0.64
			c-0.19-0.29-0.37-0.59-0.53-0.89c-1.07-1.93-2.44-3.85-3.03-5.97c-0.07-0.13-0.13-0.26-0.18-0.39c-0.03-0.07-0.02-0.17,0-0.26
			c-0.62-2.27-1.37-4.51-1.34-6.85c-0.04-0.05-0.05-0.12-0.06-0.22c-0.46-0.93-0.55-1.97-0.82-2.98c-0.06-0.22-0.11-0.44-0.17-0.66
			c-0.06-0.11-0.1-0.21-0.14-0.31c-0.01-0.03,0-0.06,0.04-0.08c-0.22-0.92-0.37-1.82-0.33-2.79c0.03-0.59,0.09-1.16,0.15-1.74
			c-0.21-0.21-0.15-0.43,0.01-1.09c0.06-0.24,0.01-0.5,0.01-0.73c0.04-0.01,0.08-0.01,0.12-0.02c0-0.02,0-0.04,0-0.06
			c0.01-0.39,0.03-0.74,0.14-1.06c-0.25-0.69-0.24-1.41-0.25-2.12c-0.02-2.48-0.29-4.93-0.99-7.33c-0.31-1.07-0.6-2.15-0.81-3.25
			c-0.47-2.43-1.68-4.55-2.95-6.65c-0.49-0.81-0.92-1.66-1.38-2.5c0.04-0.05,0.09-0.11,0.13-0.16c0.67,0.25,1.34,0.51,2.02,0.74
			c0.88,0.3,1.77,0.58,2.66,0.86c1.71,0.54,3.41,1.09,5.13,1.6c1.31,0.39,2.66,0.7,3.97,1.1c1.5,0.46,3.04,0.87,4.47,1.49
			c1.6,0.7,3.16,1.54,4.64,2.45c1.41,0.87,2.79,1.83,4.03,2.9c1.16,1.01,2.15,2.2,3.18,3.35c0.93,1.03,1.8,2.11,2.71,3.16
			c0.11,0.13,0.28,0.23,0.42,0.34l0.24-0.13c-0.15-0.36-0.21-0.79-0.45-1.08c-1.93-2.35-3.8-4.74-6.15-6.73
			c-1.03-0.87-2.14-1.65-3.27-2.4c-1.41-0.93-2.82-1.86-4.32-2.65c-2.06-1.08-4.3-1.71-6.61-2.19c-1.4-0.3-2.74-0.88-4.12-1.3
			c-1.02-0.31-2.05-0.56-3.07-0.85c-1.25-0.36-2.5-0.75-3.75-1.13c-0.36-0.11-0.7-0.3-1.07-0.37c-1.47-0.29-2.26-1.26-2.82-2.48
			c-0.33-0.74-0.73-1.46-0.93-2.23c-0.13-0.53-0.18-1.08-0.22-1.63c-0.16-0.46-0.14-1.03,0.03-1.55c0-0.03,0-0.05,0.01-0.08
			c-0.06-0.02-0.11-0.04-0.18-0.06c0.13-0.26,0.26-0.52,0.39-0.77c0.05-0.09,0.16-0.18,0.16-0.26c-0.01-0.65,0.3-1.03,0.79-1.51
			c0.41-0.4,0.6-0.4,0.84-0.27c0.27-0.23,0.43-0.44,0.66-0.56c0.33-0.17,0.69-0.29,1.05-0.4c1.07-0.32,2.14-0.41,3.22-0.03
			c0.71,0.25,1.47,0.4,2.15,0.71c0.86,0.38,1.67,0.87,2.49,1.33c0.86,0.49,1.72,0.98,2.55,1.51c0.98,0.63,1.92,1.31,2.87,1.97
			c2.07,1.44,4.12,2.91,6.21,4.31c0.89,0.6,1.9,1.02,2.83,1.58c1,0.6,1.94,1.29,2.92,1.91c1.19,0.75,2.38,1.5,3.62,2.18
			c2.04,1.13,4.09,2.25,6.17,3.29c2.19,1.1,4.05,2.61,5.91,4.14c1.82,1.5,3.73,2.9,5.44,4.5c1.36,1.27,2.48,2.78,3.7,4.19
			c0.1,0.11,0.08,0.3,0.14,0.45c0.04,0.1,0.1,0.29,0.14,0.29c0.75-0.04,0.89,0.57,1.2,1c0.1,0.14,0.24,0.25,0.32,0.39
			c0.3,0.5,0.56,1.03,0.87,1.52c0.3,0.48,0.86,0.93,0.89,1.42c0.05,0.71,0.36,1.44-0.19,2.21c-0.63,0.88-0.97,1.95-1.4,2.95
			c-0.48,1.11-0.98,2.22-1.35,3.37c-0.44,1.36-0.74,2.75-1.1,4.13c-0.21,0.81-0.53,1.6-0.6,2.42c-0.16,1.74-0.32,3.49-0.25,5.23
			c0.07,1.91,0.27,3.83,0.62,5.71c0.37,1.96,0.79,3.93,1.67,5.77c0.17,0.36,0.25,0.76,0.37,1.13c-0.03,0.05-0.07,0.1-0.1,0.15
			c-1.26-0.75-2.51-1.52-3.79-2.24c-3.06-1.71-5.52-4.09-8-6.44c-1.6-1.53-2.98-3.27-4.45-4.92c-0.52-0.58-1.05-1.16-1.53-1.76
			c-0.79-1-1.56-2.01-2.3-3.04c-0.83-1.16-1.66-2.33-2.43-3.53c-0.55-0.86-0.99-1.78-1.46-2.68c-0.48-0.94-0.95-1.88-1.4-2.83
			c-0.25-0.52-0.43-1.07-0.66-1.59c-0.24-0.52-0.52-1.02-0.76-1.54c-0.1-0.21-0.13-0.45-0.19-0.64c-0.57-0.29-1.13-0.57-1.78-0.91
			c0.24,1.18,0.33,2.23,0.68,3.19c0.31,0.87,0.92,1.64,1.38,2.47c0.69,1.23,1.39,2.46,2.06,3.7c0.81,1.5,1.55,3.05,2.41,4.52
			c1.05,1.79,2.2,3.53,3.3,5.3c0.31,0.49,0.55,1.03,0.92,1.47c0.38,0.46,0.9,0.81,1.31,1.25c1.07,1.14,2.1,2.31,3.19,3.44
			c0.67,0.7,1.42,1.33,2.13,1.99c0.74,0.68,1.46,1.38,2.22,2.03c0.83,0.7,1.63,1.48,2.59,2.01c1.47,0.81,2.69,2,4.39,2.5
			c1.33,0.39,2.58,1.05,3.81,1.67c0.4,0.2,0.76,0.61,0.97,1.01c0.72,1.34,1.62,2.54,2.77,3.57c1.04,0.93,2.11,1.84,3.28,2.86
			C126.7,228.9,124.11,228.73,121.52,228.47z M117.05,154.07c-0.02-0.08-0.25-0.19-0.31-0.15c-0.17,0.08-0.37,0.21-0.43,0.36
			c-0.12,0.29-0.21,0.62-0.22,0.93c-0.07,2.32-0.18,4.64-0.14,6.96c0.04,2.43,0.13,4.86,0.39,7.28c0.18,1.68,0.68,3.33,1.04,4.99
			c0.09,0.44,0.21,0.87,0.35,1.42c-0.57-0.6-1.07-1.13-1.57-1.66c-0.08-0.08-0.15-0.18-0.25-0.24c-0.44-0.26-0.93-0.45-1.33-0.76
			c-0.9-0.69-1.72-1.48-2.62-2.16c-2.03-1.53-4.06-3.05-6.15-4.5c-0.93-0.65-1.99-1.13-3.02-1.71c0.09-0.2,0.16-0.34,0.24-0.54
			c-0.28-0.02-0.49-0.03-0.77-0.05c0.04,0.12,0.06,0.22,0.09,0.32c-0.45,0.1-2.44-1.42-2.47-1.9c-0.16,0.04-0.32,0.07-0.45,0.1
			c-0.09-2.4,0.45-4.62,1.54-6.76c0.62-1.21,1.17-2.44,2.16-3.42c0.89-0.88,1.85-1.7,2.76-2.57c0.43-0.42,0.8-0.91,1.2-1.36
			c1.33-1.55,2.45-3.21,3.05-5.17c0.34-1.12,0.87-2.19,1.35-3.27c0.53-1.2,2.15-2.07,3.69-2c0.62,0.03,1.24,0.14,1.86,0.21
			c1.94,0.22,2.99,1.47,3.93,2.95c1.16,1.83,1.56,3.91,2.32,5.88c0.86,2.22,1.82,4.4,3.48,6.21c1.33,1.45,2.61,2.96,3.99,4.37
			c0.91,0.93,2.01,1.68,2.93,2.6c0.64,0.64,1.12,1.42,1.67,2.14c0.51,0.67,0.8,1.51,1.62,1.97c0.1,0.06,0.1,0.4,0.03,0.57
			c-0.36,0.89-0.79,1.75-1.14,2.65c-0.88,2.29-2.21,4.34-3.62,6.35c-0.97,1.39-2.16,2.65-3.2,4c-0.59,0.76-1.06,1.62-1.63,2.4
			c-0.6,0.81-1.26,1.59-1.89,2.38c-0.25,0.32-0.5,0.63-0.83,1.05c-0.49-0.65-0.95-1.24-1.37-1.85c-0.65-0.94-1.15-2.01-1.95-2.81
			c-1.14-1.15-1.93-2.44-2.38-3.91c-0.47-1.5-0.83-3.04-1.16-4.58c-0.67-3.06-0.66-6.18-0.74-9.29c-0.05-1.93,0.02-3.83,0.36-5.73
			C117.52,155.23,117.21,154.63,117.05,154.07z M152.01,228.26c-0.51,0.67-1.2,0.79-1.98,0.82c-0.58,0.03-1.21-0.08-1.68,0.44
			c-0.11,0.12-0.47,0.07-0.71,0.05c-1.79-0.1-3.58-0.21-5.4-0.32c0.32-0.6,0.65-1.29,1.05-1.93c0.82-1.33,1.44-2.73,1.71-4.26
			c0.02-0.11,0.04-0.21,0.07-0.31c0.33-1.05,0.75-2.05,0.78-3.21c0.03-1.32,0.49-2.63,0.77-3.95c0.48-2.23,1.06-4.45,1.42-6.7
			c0.4-2.5,0.69-5.02,0.85-7.55c0.19-2.79-0.09-5.57-0.55-8.33c-0.14-0.85-0.08-1.73-0.3-2.55c-0.19-0.69-0.64-1.32-1-1.97
			c-0.03-0.06-0.32-0.07-0.39-0.01c-0.35,0.33-0.64,0.68-0.55,1.23c0.24,1.38,0.47,2.77,0.62,4.16c0.18,1.76,0.35,3.52,0.38,5.29
			c0.03,1.68-0.1,3.36-0.21,5.04c-0.1,1.51-0.24,3.02-0.42,4.53c-0.16,1.24-0.35,2.49-0.63,3.71c-0.39,1.69-0.81,3.37-1.34,5.02
			c-0.49,1.57-1.17,3.08-1.69,4.64c-0.27,0.82-0.31,1.7-0.57,2.52c-0.37,1.18-0.82,2.34-1.26,3.49c-0.19,0.5-0.43,0.98-0.71,1.44
			c-0.11,0.18-0.4,0.38-0.6,0.37c-1.76-0.1-3.53-0.19-5.27-0.43c-0.59-0.08-1.1-0.6-1.66-0.9c-2.19-1.18-4.14-2.67-5.86-4.4
			c-0.97-0.98-1.61-2.25-2.44-3.36c-1.6-2.14-2.03-4.67-2.67-7.13c-0.37-1.43-0.85-2.83-1.15-4.27c-0.26-1.25-0.39-2.52-0.49-3.79
			c-0.04-0.42,0.2-0.86,0.26-1.29c0.2-1.22,0.31-2.45,0.57-3.66c0.51-2.38,1.05-4.76,1.67-7.11c0.51-1.94,1.05-3.87,2.05-5.65
			c0.07-0.13,0.16-0.26,0.22-0.36c0.04-0.01,0.08-0.01,0.11-0.01c0.13-0.35,0.31-0.68,0.5-0.96c0.12-0.18,0.25-0.34,0.4-0.5
			c0.01-0.3,0.12-0.61,0.32-0.95c1.21-2.07,2.87-3.8,4.39-5.63c0.99-1.19,1.97-2.39,2.91-3.62c0.44-0.57,0.69-1.27,1.15-1.81
			c0.47-0.54,0.87-1.04,1.12-1.73c0.45-1.28,1.09-2.49,1.64-3.74c0.09-0.19,0.12-0.41,0.18-0.61c0.28-0.87,0.46-1.79,0.87-2.6
			c0.68-1.33,0.8-2.73,0.83-4.16c0.02-1.36,0.08-2.73,0.04-4.09c-0.04-1.45-0.2-2.89-0.23-4.34c-0.04-1.66-0.04-3.32,0-4.97
			c0.03-1.2,1.73-2.53,3.27-2.04c2.73,0.87,4.9,2.47,5.79,5.15c0.4,1.21,0.34,2.63,0.2,3.92c-0.23,2.15-0.61,4.3-1.09,6.42
			c-0.39,1.76-0.99,3.48-1.53,5.21c-0.41,1.3-0.81,2.62-1.33,3.88c-0.58,1.4-1.21,2.79-1.96,4.11c-0.94,1.64-2.03,3.19-3.05,4.78
			c-0.25,0.39-0.57,0.74-0.39,1.29c0.07,0.21-0.15,0.5-0.24,0.76c0.04,0.04,0.08,0.09,0.12,0.13c0.35-0.36,0.74-0.68,1.03-1.08
			c1.12-1.51,2.43-2.94,3.25-4.59c0.81-1.61,1.91-3.11,2.36-4.9c0.28-1.11,0.91-2.13,1.37-3.19c0.4-0.94,0.91-1.86,1.16-2.83
			c0.54-2.08,0.97-4.18,1.38-6.28c0.18-0.95,0.2-1.93,0.41-2.94c0.35,0.62,0.73,1.24,1.06,1.87c1.07,2.08,2.12,4.17,3.18,6.25
			c0.57,1.13,1.18,2.25,1.72,3.4c0.73,1.57,1.44,3.15,2.09,4.75c0.67,1.64,1.31,3.3,1.87,4.98c0.43,1.29,0.69,2.64,1.05,3.95
			c0.21,0.78,0.46,1.55,0.7,2.32c0.26,0.81,0.65,1.6,0.78,2.43c0.5,3.12,0.87,6.26,1.39,9.37c0.35,2.11,0.63,4.2,0.29,6.35
			c-0.24,1.51-0.15,3.07-0.34,4.58c-0.26,1.96-0.52,3.93-1.03,5.84c-0.49,1.85-1.22,3.64-1.98,5.41c-0.68,1.59-1.47,3.15-2.37,4.63
			c-0.79,1.3-1.72,2.54-2.74,3.68c-0.71,0.79-1.69,1.37-2.55,2.05C152.66,227.74,152.25,227.95,152.01,228.26z M169.56,156.12
			c0-0.17,0.07-0.36,0.01-0.51c-0.12-0.29-0.31-0.56-0.47-0.83c-0.22,0.2-0.51,0.37-0.64,0.62c-0.79,1.54-1.63,3.07-2.3,4.66
			c-0.47,1.11-0.77,2.29-1.02,3.47c-0.38,1.83-0.73,3.67-0.96,5.52c-0.31,2.43-0.57,4.87-0.72,7.31c-0.07,1.07,0.19,2.16,0.29,3.24
			c0.06,0.64,0.12,1.27,0.19,1.91c0.02,0.17,0.01,0.4,0.12,0.48c0.67,0.51,0.35,1.02,0.06,1.55c-0.19,0.35-0.36,0.71-0.7,1.06
			c-0.06-0.19-0.14-0.37-0.19-0.56c-0.31-1.3-0.57-2.62-0.94-3.9c-0.68-2.36-1.35-4.72-2.15-7.04c-0.6-1.72-1.37-3.4-2.15-5.05
			c-0.4-0.84-1.05-1.58-1.47-2.41c-1.06-2.11-2.1-4.23-3.06-6.38c-0.34-0.75-0.2-1.58,0.05-2.38c0.45-1.45,1.27-2.7,2.13-3.95
			c1.51-2.19,3.1-4.32,5.05-6.16c1.26-1.19,2.62-2.28,3.96-3.38c1.42-1.17,2.8-2.39,4.33-3.41c1.35-0.9,2.92-1.58,4.63-1.28
			c0.87,0.15,1.71,0.6,2.48,1.04c0.38,0.22,0.69,0.69,0.83,1.11c0.79,2.39,1.24,4.83,1.21,7.35c-0.02,1.76,0.44,3.46,0.93,5.14
			c0.26,0.9,0.52,1.8,0.78,2.71c0.44,1.53,1.57,2.58,2.75,3.61c0.48,0.41,0.96,0.83,1.37,1.29c0.1,0.11,0.05,0.52-0.08,0.64
			c-1.97,1.76-4,3.46-5.94,5.24c-1.06,0.97-1.98,2.07-2.96,3.12c-1.23,1.32-2.48,2.63-3.66,3.99c-1.33,1.52-2.6,3.09-3.89,4.64
			c-0.11,0.13-0.19,0.28-0.28,0.42c-0.1-0.04-0.21-0.07-0.31-0.11c-0.13-0.92-0.28-1.84-0.38-2.76c-0.19-1.67-0.43-3.34-0.52-5.02
			c-0.05-0.92,0.13-1.86,0.25-2.79c0.28-2.15,0.96-4.2,1.73-6.23c0.31-0.82,0.53-1.66,0.8-2.49c0.06-0.17,0.14-0.38,0.29-0.47
			c0.01-0.01,0.01-0.01,0.02-0.02c0.11-0.66,0.25-1.29,0.55-1.88C169.57,156.84,169.56,156.48,169.56,156.12z M200.3,215.36
			c-1.01,0.73-2.06,1.42-3.05,2.17c-1.9,1.45-3.88,2.76-6.11,3.73c-1.09,0.47-2.1,1.13-3.19,1.61c-2.08,0.92-4.17,1.82-6.29,2.65
			c-2.1,0.82-4.23,1.6-6.39,2.26c-0.91,0.28-1.94,0.21-2.92,0.3c-1.22,0.11-2.45,0.22-3.67,0.34c-0.75,0.08-0.9-0.06-0.8-0.81
			c0.2-1.59,0.86-3.03,1.58-4.45c0.7-1.37,1.54-2.61,2.69-3.71c0.91-0.87,1.61-1.93,2.45-2.86c0.65-0.73,1.38-1.38,2.06-2.09
			c1.05-1.09,2.13-2.15,3.11-3.29c1.53-1.79,3.1-3.57,4.45-5.49c1.12-1.58,1.96-3.33,2.91-5.02c0.64-1.14,1.27-2.3,1.84-3.47
			c0.92-1.89,1.82-3.79,2.66-5.71c0.43-0.98,0.73-2.01,1.09-3.02c0.03-0.08,0.08-0.17,0.07-0.24c-0.07-0.4-0.02-0.96-0.28-1.17
			c-0.34-0.27-1.39,0.38-1.51,0.85c-0.9,3.31-2.39,6.4-3.81,9.53c-1.53,3.39-3.95,6.11-6.35,8.87c-1.85,2.13-3.96,4.06-5.74,6.24
			c-1.61,1.97-2.98,4.13-4.38,6.26c-0.89,1.35-1.75,2.74-2.41,4.2c-0.7,1.55-1.18,3.19-1.68,4.82c-0.15,0.5-0.31,0.68-0.87,0.69
			c-1.29,0.02-2.58,0.15-3.87,0.22c-2.12,0.12-4.23,0.23-6.35,0.33c-0.28,0.01-0.57-0.07-0.99-0.12c0.19-0.25,0.3-0.42,0.44-0.56
			c0.87-0.86,1.76-1.69,2.61-2.56c1.93-1.96,3.39-4.21,4.39-6.73c0.94-2.37,1.79-4.76,2.27-7.26c0.36-1.88,0.86-3.75,1.12-5.64
			c0.24-1.73,0.25-3.48,0.34-5.22c0.04-0.7,0.01-1.41,0.04-2.11c0.12-2.16-0.1-4.3-0.55-6.41c-0.3-1.44-0.67-2.87-0.9-4.31
			c-0.09-0.55,0.01-1.2,0.25-1.71c1.31-2.74,3-5.28,4.87-7.69c1.46-1.88,3.13-3.6,4.73-5.38c1.15-1.28,2.28-2.57,3.51-3.77
			c1.65-1.62,3.33-3.22,5.11-4.7c1.83-1.52,3.78-2.91,5.71-4.32c1.86-1.36,3.74-2.69,5.65-3.98c2.08-1.41,4.32-2.59,6.71-3.42
			c3.58-1.26,7.2-2.42,10.84-3.51c1.56-0.47,3.18-0.3,4.66,0.51c0.58,0.32,0.94,0.75,0.98,1.42c0.12,2.12-0.43,4.04-1.68,5.81
			c-0.54,0.77-1.03,1.6-1.41,2.46c-0.72,1.62-2.13,2.39-3.73,2.97c-1.06,0.39-2.12,0.8-3.19,1.15c-1.41,0.46-2.84,0.89-4.26,1.3
			c-2.58,0.75-5.19,1.36-7.62,2.53c-3.33,1.6-6.65,3.21-9.71,5.28c-0.69,0.46-1.29,1.05-1.93,1.58c-1.59,1.31-3.13,2.65-4.38,4.28
			c-0.44,0.57-0.47,0.61-0.16,1.22c0.58-0.47,1.11-0.86,1.6-1.3c1.9-1.7,3.69-3.52,5.72-5.07c1.64-1.25,3.54-2.2,5.37-3.22
			c1.11-0.62,2.28-1.17,3.47-1.64c1.5-0.58,3.05-1.05,4.59-1.56c1.2-0.4,2.4-0.79,3.6-1.22c1.84-0.65,3.66-1.34,5.5-1.99
			c0.89-0.31,1.8-0.57,2.81-0.89c-0.3,0.77-0.58,1.52-0.88,2.26c-1.1,2.77-2.05,5.58-2.26,8.57c-0.13,1.93-0.36,3.87-0.31,5.8
			c0.05,1.74,0.49,3.46,0.65,5.2c0.16,1.76,0.2,3.53,0.3,5.3c0.06,1.04,0.16,2.08,0.22,3.12c0.04,0.68,0.08,1.37,0.02,2.04
			c-0.23,2.27-0.42,4.55-0.81,6.8c-0.18,1.07-0.75,2.08-1.16,3.12c-0.94,2.34-2.43,4.39-3.66,6.58
			C203.12,213.66,201.65,214.4,200.3,215.36z M227.69,163.1c-0.12,1.21-0.23,2.42-0.36,3.63c-0.03,0.27-0.07,0.56-0.18,0.81
			c-0.24,0.53-0.18,1.04-0.16,1.61c0.04,0.99-0.08,2-0.28,2.97c-0.2,0.97-0.59,1.9-0.85,2.86c-0.2,0.72-0.29,1.47-0.5,2.18
			c-0.33,1.1-0.76,2.18-1.09,3.28c-0.5,1.66-0.91,3.34-1.42,4.99c-0.47,1.51-0.94,3.04-1.59,4.48c-1.16,2.56-2.4,5.09-3.71,7.59
			c-0.66,1.25-1.6,2.36-2.31,3.59c-1.43,2.47-3.35,4.57-5.28,6.66c-1.03,1.12-2.29,2.05-3.45,3.07c-0.06-0.05-0.12-0.11-0.18-0.16
			c0.98-2,2.01-3.98,2.93-6c0.4-0.89,0.68-1.86,0.84-2.81c0.24-1.45,0.38-2.92,0.44-4.38c0.09-2.1,0.14-4.2,0.07-6.3
			c-0.09-2.66-0.31-5.32-0.49-7.97c-0.11-1.61-0.34-3.23-0.38-4.84c-0.03-1.18,0.16-2.37,0.29-3.55c0.13-1.23,0.17-2.49,0.49-3.67
			c0.53-1.97,1.25-3.9,1.9-5.85c0.18-0.53,0.34-1.07,0.62-1.55c0.43-0.71,1-1.34,1.45-2.04c0.73-1.16,1.43-2.35,2.11-3.54
			c0.47-0.82,0.85-1.69,1.32-2.51c0.73-1.28,1.04-2.62,0.82-4.06c-0.21-1.41-1.51-2.58-2.9-2.83c-1.34-0.25-2.7-0.35-4.05-0.12
			c-0.61,0.1-1.2,0.31-1.79,0.48c-1.6,0.45-3.24,0.83-4.81,1.37c-2.74,0.95-5.49,1.92-8.16,3.05c-1.99,0.85-3.89,1.91-5.76,2.99
			c-1.98,1.14-3.87,2.43-5.81,3.63c-0.13,0.08-0.49,0.01-0.59-0.11c-1.02-1.17-2.09-2.29-2.84-3.69c-1.11-2.06-1.84-4.25-2.45-6.46
			c-0.3-1.07-0.19-2.24-0.35-3.36c-0.23-1.53-0.55-3.05-0.83-4.58c-0.08-0.42-0.11-0.85-0.2-1.27c-0.16-0.8-0.52-1.47-1.29-1.91
			c-0.5-0.28-1-0.59-1.39-0.98c-1.11-1.12-2.45-0.87-3.81-0.74c-1.35,0.14-2.4,0.8-3.44,1.56c-1.2,0.88-2.46,1.69-3.71,2.5
			c-2.58,1.67-4.76,3.78-6.87,5.94c-0.88,0.9-1.46,2.07-2.16,3.12c-1.06,1.6-2.11,3.2-3.17,4.8c-0.1,0.15-0.25,0.28-0.44,0.5
			c-0.39-0.89-0.71-1.69-1.08-2.48c-0.79-1.71-1.39-3.51-2.64-5.01c-1.18-1.41-2.44-2.81-4.31-3.3c-1.46-0.38-3.12-0.37-4.39,0.54
			c-0.89,0.65-1.84,1.47-1.74,2.84c0.14,1.78,0.2,3.57,0.22,5.36c0.04,2.72,0.44,5.45,0,8.17c-0.04,0.27-0.16,0.52-0.28,0.92
			c-0.47-0.48-0.86-0.88-1.25-1.27c-0.98-0.99-1.97-1.97-2.95-2.97c-1.61-1.64-3.18-3.32-4.44-5.25c-0.81-1.24-1.8-2.37-2.6-3.62
			c-0.69-1.09-1.27-2.25-1.81-3.41c-0.74-1.57-1.39-3.17-2.11-4.75c-0.62-1.37-1.49-2.66-2.75-3.48c-1.2-0.78-2.63-1.39-4.23-0.96
			c-0.41,0.11-0.83,0.18-1.25,0.22c-2.01,0.22-3.2,1.49-4.12,3.03c-0.93,1.55-1.78,3.14-2.65,4.73c-1.22,2.23-3.03,4.01-4.89,5.73
			c-3.2,2.96-5.01,6.47-4.91,10.79c0,0.19,0,0.38,0,0.69c-0.31-0.13-0.56-0.19-0.76-0.32c-1.19-0.78-2.35-1.62-3.57-2.36
			c-1.41-0.86-2.92-1.56-4.29-2.46c-1.39-0.92-2.62-2.03-3.97-3c-1.69-1.21-3.37-2.44-5.15-3.52c-1.67-1.01-3.46-1.82-5.19-2.72
			c-2.28-1.17-4.62-0.96-6.94-0.19c-2.32,0.77-3.77,2.99-3.57,5.37c0.1,1.16,0.2,2.33,0.5,3.45c0.25,0.96,0.79,1.84,1.17,2.77
			c0.09,0.23,0.05,0.51,0.08,0.77c0.01,0.12,0.01,0.26,0.06,0.37c0.49,1.06,0.98,2.11,1.49,3.16c0.74,1.53,1.53,3.03,2.25,4.57
			c0.56,1.19,1.05,2.42,1.57,3.63c0.16,0.37,0.27,0.77,0.46,1.13c0.93,1.8,1.5,3.68,1.59,5.7c0.04,0.81,0.39,1.57,0.03,2.43
			c-0.21,0.51-0.04,1.16-0.04,1.67c0.11,0.25,0.28,0.47,0.27,0.68c-0.05,0.74,0,1.55-0.29,2.2c-0.34,0.75-0.13,1.4-0.1,2.12
			c0.03,0.58-0.16,1.17-0.25,1.75c-0.02,0.14-0.05,0.27,0.02,0.45c0.06-0.08,0.13-0.17,0.19-0.25c0.11,0.89,0.22,1.77,0.32,2.65
			c0.01,0.11-0.08,0.23-0.11,0.34c-0.05,0.26-0.22,0.62-0.1,0.77c0.74,0.97,0.24,2.22,0.82,3.23c0.1,0.18-0.04,0.5-0.06,0.66
			c0.17,0.42,0.34,0.76,0.45,1.13c0.34,1.16,0.63,2.33,1,3.47c0.29,0.88,0.68,1.74,1.01,2.61c0.05,0.14,0.01,0.32,0.01,0.67
			c0.08,0.03,0.34,0.14,0.61,0.25c-0.08,0.07-0.16,0.15-0.23,0.22c-1.2-0.14-1.61-1.13-2.22-1.91c-0.52-0.65-1.06-1.3-1.57-1.96
			c-0.03-0.03-0.03-0.08-0.03-0.13c-0.79-0.78-1.37-1.69-1.9-2.63c-0.1-0.16-0.19-0.33-0.28-0.5c-0.1-0.17-0.19-0.34-0.29-0.51
			c-0.21-0.36-0.43-0.72-0.65-1.07c-0.02,0.09-0.04,0.19-0.07,0.32c-0.37-0.72-0.69-1.34-1.01-1.95c-0.12-0.18-0.24-0.35-0.36-0.53
			c-0.04-0.04-0.08-0.08-0.12-0.12c-0.23-0.26-0.41-0.51-0.5-0.82c-0.07-0.12-0.15-0.23-0.22-0.34c-1.34-2.15-2.88-4.77-3.56-7.38
			c-0.06-0.13-0.11-0.26-0.15-0.38c-0.22-0.58-0.43-1.16-0.64-1.74c-0.09-0.07-0.16-0.17-0.19-0.32c-0.03-0.14-0.06-0.29-0.09-0.43
			c-0.05-0.14-0.1-0.28-0.16-0.42c-0.02-0.06-0.07-0.14-0.05-0.18c0.02-0.04,0.04-0.08,0.05-0.12c-0.14-0.6-0.29-1.19-0.44-1.78
			c-0.02-0.05-0.03-0.1-0.05-0.15c-0.01-0.02-0.01-0.05-0.01-0.08c-0.16-0.61-0.32-1.23-0.47-1.84c-0.1-0.43-0.18-0.85-0.25-1.28
			c-0.01-0.02-0.03-0.04-0.04-0.05c-0.23-0.33-0.41-0.6-0.32-1.12c0.13-0.79-0.14-1.64-0.28-2.46c-0.04-0.22-0.33-0.43-0.09-0.61
			c-0.04-0.16-0.08-0.32-0.12-0.48c-0.08,0.03-0.16,0.06-0.24,0.1c-0.07-0.45-0.13-0.84-0.21-1.37c0.09,0.11,0.14,0.17,0.17,0.22
			c-0.3-1.19-0.53-2.37-0.42-3.62c-0.22-1.02-0.45-2.03-0.63-3.06c-0.21-1.17-0.32-2.37-0.4-3.56c-0.01-0.22-0.02-0.44-0.01-0.66
			c-0.04-0.07-0.06-0.15-0.06-0.24c-0.03-0.65-0.25-1.27-0.33-1.92c0-0.01,0-0.02,0-0.03c-0.16-0.31-0.17-0.72-0.26-1.05
			c-0.2-0.75-0.16-1.56-0.15-2.35c0-0.07,0.01-0.14,0.01-0.2c-0.22-0.95-0.08-1.93,0.06-2.92c-0.11-0.82-0.07-1.67,0.06-2.46
			c0.12-0.7,0.13-1.36,0.17-2.03c-0.02,0.01-0.04,0.01-0.06,0.02c0.02-0.09,0.05-0.17,0.07-0.26c0.01-0.24,0.03-0.48,0.06-0.73
			c0.05-0.46,0.19-0.78,0.44-1.11c0.02-0.67,0.01-1.35,0.13-2c0.38-1.98,0.86-3.93,1.27-5.9c0.49-2.36,0.9-4.73,1.42-7.08
			c0.41-1.85,0.9-3.69,1.41-5.52c0.64-2.25,1.32-4.5,2.02-6.73c0.32-1.01,0.74-2,1.09-3c0.98-2.85,1.94-5.71,2.93-8.56
			c0.33-0.95,0.76-1.86,1.08-2.82c0.58-1.76,1.06-3.55,1.69-5.29c0.79-2.16,1.69-4.29,2.56-6.43c0.57-1.39,1.11-2.79,1.8-4.12
			c0.94-1.83,2-3.6,3.01-5.4c0.22-0.39,0.42-0.8,0.69-1.16c0.19-0.26,0.52-0.44,0.71-0.7c0.91-1.23,1.8-2.47,2.66-3.66
			c0.17,0.02,0.24,0.01,0.25,0.03c0.91,1.3,2.66,1.28,3.81,2.2c0.21,0.17,0.6,0.11,0.89,0.2c1.64,0.47,3.26,1.01,4.91,1.41
			c1.17,0.28,2.41,0.31,3.6,0.55c1.59,0.32,3.15,0.78,4.75,1.08c2.38,0.44,4.78,0.8,7.17,1.18c1.82,0.29,3.65,0.57,5.47,0.84
			c1.71,0.26,3.43,0.51,5.15,0.75c1.48,0.2,2.97,0.36,4.45,0.56c0.9,0.12,1.79,0.33,2.69,0.4c1.03,0.08,2.07,0.03,3.1,0.07
			c3.21,0.12,6.42,0.3,9.64,0.36c1.75,0.03,3.5-0.17,5.26-0.21c1.65-0.04,3.3,0.03,4.96,0.01c2.03-0.03,4.05-0.11,6.08-0.17
			c1.36-0.04,2.72-0.02,4.08-0.09c2.28-0.12,4.56-0.31,6.84-0.43c2.36-0.12,4.73-0.16,7.08-0.32c1.37-0.09,2.72-0.35,4.08-0.52
			c0.51-0.07,1.02-0.12,1.53-0.17c1.66-0.15,3.31-0.29,4.97-0.43c2.07-0.17,4.14-0.29,6.2-0.5c2.46-0.25,4.92-0.5,7.36-0.86
			c1.75-0.26,3.49-0.67,5.07-1.52c1.08-0.58,2.15-1.16,3.23-1.73c0.17-0.09,0.36-0.16,0.66-0.29c0.63,1.09,1.24,2.17,1.86,3.25
			c0.07,0.13,0.14,0.3,0.26,0.36c0.72,0.36,0.96,1.05,1.28,1.67c1.77,3.57,3.25,7.25,4.48,11.02c0.65,1.97,1.34,3.93,1.92,5.92
			c0.8,2.72,1.52,5.47,2.25,8.21c0.46,1.75,0.86,3.52,1.3,5.28c0.57,2.28,1.18,4.55,1.73,6.83c0.49,2.06,0.91,4.13,1.36,6.19
			c0.68,3.09,1.41,6.16,2.02,9.26c0.46,2.34,0.79,4.7,1.15,7.06c0.37,2.49,0.67,4.99,1.06,7.48
			C228.33,155.5,228.08,159.3,227.69,163.1z M258.84,116.58c-0.14,0.97-0.64,1.9-0.98,2.84c-0.27,0.74-0.53,1.49-0.81,2.23
			c-0.68,1.82-1.39,3.64-2.06,5.46c-1.29,3.49-3.22,6.68-4.98,9.95c-1.02,1.88-2.12,3.69-3.46,5.38c-1.75,2.21-3.42,4.47-5.22,6.63
			c-2.04,2.44-4.08,4.9-6.34,7.15c-1.82,1.81-3.3,3.87-5.06,5.72c-0.45,0.47-0.7,1.11-1.04,1.67c-0.06-0.02-0.13-0.04-0.19-0.05
			c0-0.4-0.01-0.79,0-1.19c0.05-1.47,0.11-2.94,0.17-4.41c0.01-0.21,0.07-0.41,0.1-0.62c0.07-0.4,0.22-0.81,0.19-1.21
			c-0.1-1.59-0.25-3.19-0.39-4.78c-0.04-0.47-0.15-0.93-0.19-1.39c-0.22-2.92-0.35-5.85-0.67-8.76c-0.16-1.46-0.67-2.88-1.01-4.33
			c-0.31-1.35-0.6-2.7-0.88-4.05c-0.27-1.35-0.48-2.72-0.79-4.06c-0.15-0.65-0.47-1.27-0.71-1.91c-0.03-0.09-0.02-0.2-0.04-0.45
			c0.55,0.42,0.99,0.79,1.46,1.11c1.31,0.88,2.69,1.66,3.92,2.62c1.09,0.85,2.32,1.3,3.6,1.77c2.13,0.78,4.3,0.81,6.5,0.55
			c0.55-0.06,1.11-0.08,1.66-0.17c2.6-0.41,4.69-1.7,6.61-3.36c2.65-2.29,4.25-5.26,5.84-8.22c0.55-1.02,0.76-2.22,1.03-3.36
			c0.36-1.49,0.75-2.99,0.92-4.51c0.27-2.37,0.21-4.78-0.67-7.02c-0.54-1.38-1.54-2.62-2.47-3.82c-1.21-1.55-2.87-2.68-4.57-3.67
			c-1.26-0.73-2.67-1.32-4.1-1.68c-0.99-0.24-2.16-0.14-3.18,0.09c-4.66,1.05-7.62,3.88-8.73,8.3c-0.54,2.17-0.16,4.42,1.34,6.19
			c2.26,2.67,5.22,4.17,8.94,3.82c0.79-0.07,1.57-0.34,2.34-0.53c1.74-0.42,3.4-0.25,4.97,0.61c0.9,0.49,1.07,1.33,0.89,2.17
			c-0.44,2.02-0.86,4.08-2.28,5.74c-1.18,1.38-2.63,2.53-4.28,3.33c-0.95,0.45-2.08,0.57-3.15,0.75c-2.21,0.36-4.42,0.29-6.53-0.49
			c-0.77-0.29-1.47-0.78-2.17-1.22c-0.65-0.41-1.32-0.81-1.9-1.3c-3.06-2.57-5.48-5.56-6.59-9.39c-0.3-1.05-0.73-2.06-1.03-3.11
			c-0.57-2.01-1.03-4.04-1.1-6.13c-0.04-1.12-0.26-2.24-0.35-3.36c-0.21-2.73-0.01-5.43,0.91-8.02c0.38-1.06,1.13-2.03,1.83-2.96
			c0.96-1.27,1.92-2.59,3.1-3.67c1.78-1.64,3.99-2.65,6.45-3.03c3.27-0.51,6.49-0.45,9.53,1.05c1.44,0.71,2.99,1.25,4.39,2.02
			c1.92,1.05,3.31,2.7,4.78,4.25c0.33,0.35,0.64,0.71,0.97,1.06c1.29,1.34,2.21,2.89,2.84,4.59c0.91,2.4,1.92,4.79,2.58,7.26
			c0.48,1.77,0.63,3.66,0.62,5.5C259.42,112.3,259.15,114.45,258.84,116.58z"/>
		<path fill="#FFFFFF" d="M75.39,191.5c-0.14-0.28-0.26-0.47-0.33-0.69"/>
		<path fill="#FFFFFF" d="M165.71,111.31c-2.85,0.38-5.21,1.37-6.71,3.76c-0.37,0.58-0.81,1.13-1.11,1.74
			c-0.68,1.42-0.8,2.96-0.8,4.49c0,0.91,0.22,1.81,0.29,2.72c0.07,0.86-0.27,1.13-1.15,1.16c-0.98,0.03-1.95,0.16-2.93,0.22
			c-1.38,0.08-2.75,0.12-4.13,0.19c-0.24,0.01-0.49,0.06-0.73,0.05c-1.04-0.02-2.07-0.02-3.11-0.1c-0.54-0.04-0.67-0.42-0.3-0.82
			c1.18-1.28,1.76-2.81,2.19-4.43c0.92-3.46,1.31-6.99,1.67-10.54c0.3-2.91-0.28-5.68-1.1-8.44c-0.18-0.61-0.42-1.21-0.6-1.82
			c-0.13-0.44,0.07-0.75,0.57-0.82c1.32-0.19,2.64-0.44,3.96-0.56c1.44-0.14,2.88-0.16,4.33-0.24c0.22-0.01,0.45,0.01,0.66-0.03
			c0.97-0.16,1.16-0.03,1.09,0.93c-0.08,1.06-0.23,2.12-0.34,3.18c-0.23,2.35-0.45,4.7-0.67,7.06c-0.01,0.08,0.02,0.16,0.05,0.41
			c0.62-0.74,1.2-1.34,1.68-2.01c1.41-1.95,3.24-3.37,5.56-4.21c0.37-0.14,0.72-0.33,1.07-0.51c0.53-0.27,0.84-0.65,0.78-1.28
			c-0.05-0.62,0.01-1.24-0.03-1.86c-0.02-0.26-0.19-0.5-0.27-0.76c-0.06-0.2-0.16-0.47-0.08-0.61c0.11-0.17,0.4-0.34,0.62-0.35
			c1.91-0.07,3.82-0.11,5.74-0.16c0.11,0,0.22-0.03,0.33-0.03c1.5-0.05,1.76,0.28,1.48,1.67c-0.54,2.65-1.11,5.3-1.52,7.97
			c-0.26,1.66-0.3,3.36-0.37,5.04c-0.1,2.72-0.15,5.45-0.2,8.17c-0.02,1,0.07,2.01-0.04,3c-0.07,0.63-0.39,1.23-0.66,1.82
			c-0.06,0.12-0.38,0.17-0.59,0.18c-1.35,0.12-2.7,0.23-4.06,0.32c-0.58,0.04-1.17,0.06-1.75,0.03c-0.12-0.01-0.33-0.31-0.31-0.46
			c0.04-0.46,0.16-0.92,0.28-1.37c0.46-1.8,0.99-3.58,1.37-5.39c0.36-1.7,0.22-3.43-0.04-5.15
			C165.74,112.79,165.75,112.07,165.71,111.31z M148.31,122.94c0.06,0.08,0.11,0.15,0.17,0.23c1.89-0.24,3.78-0.47,5.67-0.74
			c0.15-0.02,0.36-0.27,0.39-0.44c0.13-0.67,0.2-1.35,0.3-2.03c0.02-0.16,0-0.34,0.06-0.49c0.4-1.06,0.79-2.12,1.25-3.15
			c0.53-1.22,1.04-2.47,2.12-3.37c1.01-0.83,1.99-1.72,3.11-2.38c1.47-0.86,3.06-1.55,4.64-2.22c0.44-0.19,1.17-0.25,1.52-0.02
			c0.42,0.28,0.73,0.9,0.79,1.41c0.13,1.09,0.1,2.21,0.08,3.31c-0.02,1.13-0.04,2.27-0.19,3.38c-0.25,1.93-0.61,3.85-0.92,5.78
			c-0.04,0.24-0.07,0.47-0.11,0.75c0.34,0,0.59-0.03,0.82,0.01c0.72,0.12,0.99-0.17,1.02-0.85c0.05-1.21,0.14-2.42,0.24-3.63
			c0.29-3.2,0.6-6.41,0.88-9.61c0.1-1.19,0.07-2.39,0.18-3.57c0.15-1.56,0.38-3.12,0.57-4.68c0.03-0.28,0-0.58,0-0.93
			c-0.95,0.1-1.79,0.16-2.62,0.29c-0.15,0.02-0.37,0.29-0.38,0.46c-0.08,0.87-0.08,1.75-0.18,2.61c-0.03,0.31-0.16,0.69-0.39,0.87
			c-0.4,0.31-0.93,0.47-1.37,0.73c-1.21,0.74-2.37,1.57-3.62,2.25c-2.32,1.27-3.88,3.24-5.52,5.15c-0.31,0.36-0.66,0.69-1.06,0.96
			c-0.61,0.41-1.25,0.19-1.34-0.52c-0.13-1.04-0.19-2.1-0.13-3.15c0.1-1.72,0.35-3.43,0.49-5.15c0.1-1.31,0.13-2.63,0.2-4.15
			c-1.67,0.17-3.22,0.33-4.85,0.49c0.46,1.6,0.88,3.06,1.23,4.27c-0.01,3.23,0.02,6.26-0.59,9.26
			C150.14,117.09,149.67,120.12,148.31,122.94z"/>
		<path fill="#FFFFFF" d="M115.58,106.46c0.07,0.11,0.11,0.24,0.2,0.31c0.99,0.74,1.34,1.83,1.75,2.88c0.25,0.65,0.61,1.3,0.68,1.97
			c0.16,1.6,0.39,3.24,0.17,4.81c-0.21,1.48-0.81,2.97-1.5,4.32c-0.62,1.21-1.74,2.02-3.08,2.68c-1.79,0.89-3.43,0.37-5.12,0.07
			c-1.91-0.35-3.71-1.07-5.42-1.94c-1-0.51-2.15-0.94-2.87-1.71c-0.87-0.92-2.06-1.64-2.54-2.88c-0.07-0.17-0.14-0.37-0.12-0.54
			c0.37-2.76,0.8-5.52,1.13-8.29c0.29-2.52,0.48-5.05,0.71-7.58c0.12-1.34,0.23-2.67,0.33-4.01c0.02-0.21,0.04-0.44-0.04-0.63
			c-0.42-0.96-0.9-1.91-1.32-2.87c-0.15-0.35-0.45-0.76,0.01-1.11c0.38-0.29,0.79-0.48,1.27-0.11c0.14,0.11,0.37,0.13,0.56,0.15
			c0.88,0.11,1.8,0.09,2.64,0.34c1.05,0.31,2.08,0.26,3.11,0.18c1.55-0.13,3.1-0.29,4.64-0.5c0.95-0.13,1.64,0.32,2.34,0.75
			c2.02,1.22,3.88,2.62,4.89,4.76c0.41,0.86,0.79,1.81,0.85,2.74c0.14,2.15-0.34,4.16-2.22,5.61
			C116.32,106.09,115.95,106.25,115.58,106.46z M101.24,94.37c0,0.2-0.01,0.28,0,0.37c0.14,1.07,0.86,2.01,0.75,3.15
			c-0.03,0.34,0.17,0.71,0.17,1.06c-0.01,1.01-0.03,2.03-0.12,3.04c-0.21,2.36-0.47,4.71-0.71,7.06c-0.21,2.04-0.42,4.07-0.67,6.11
			c-0.12,0.98-0.07,1.84,1.01,2.32c0.11,0.05,0.18,0.19,0.28,0.27c0.98,0.8,1.82,1.76,3.07,2.22c0.85,0.32,1.67,0.69,2.52,1.02
			c0.24,0.09,0.52,0.16,0.78,0.15c0.98-0.05,1.97-0.06,2.93-0.22c0.91-0.15,1.88-0.34,2.48-1.12c0.57-0.75,0.95-1.58,0.94-2.54
			c-0.01-0.6,0.01-1.19,0.06-1.79c0.2-2.24-0.12-4.39-1.34-6.32c-0.57-0.91-1.13-1.86-2.08-2.51c-0.51-0.35-1.09-0.76-0.48-1.48
			c-0.16-0.11-0.26-0.2-0.38-0.25c-0.88-0.4-1.63-0.97-1.95-1.85c-0.36-0.97-1.05-1.8-1.22-2.84c-0.21-1.25-1.37-1.99-1.87-3.1
			c-0.15-0.34-0.36-0.6-0.01-0.89c0.32-0.27,0.66-0.41,1.08-0.14c0.17,0.11,0.42,0.12,0.64,0.16c1.38,0.22,2.78,0.38,4.14,0.69
			c0.78,0.17,1.67,0.42,2.21,0.92c1.29,1.2,1.97,2.73,1.64,4.52c-0.06,0.3-0.17,0.62-0.36,0.85c-0.52,0.63-1.11,1.21-1.65,1.8
			c0.11,0,0.31,0.06,0.45-0.01c0.68-0.34,1.37-0.66,2-1.08c0.27-0.18,0.46-0.56,0.54-0.88c0.15-0.64,0.21-1.3,0.27-1.96
			c0.04-0.46,0.13-0.94,0.03-1.38c-0.45-1.91-1.34-3.56-3.24-4.53c-1-0.51-1.98-1.09-3.18-1.04c-1.09,0.05-2.18,0.1-3.27,0.14
			c-1.51,0.06-3.02,0.1-4.53,0.14C101.87,94.44,101.58,94.4,101.24,94.37z M108,98c0.23,0.7,0.39,1.18,0.55,1.66
			c0.36,1.09,0.92,2.07,1.78,2.87c0.66,0.61,1.54,0.73,2.12,0.32c1.08-0.77,1.37-1.52,0.79-2.44c-0.32-0.52-0.77-0.99-1.23-1.4
			C110.91,98.04,109.42,98.53,108,98z"/>
		<path fill="#FFFFFF" d="M175.2,110.06c0.07-2.52,0.64-4.94,1.84-7.18c0.79-1.47,1.72-2.87,2.7-4.23c0.36-0.5,0.96-0.93,1.55-1.18
			c1.21-0.53,2.47-0.96,3.74-1.35c1.1-0.34,2.21-0.3,3.36-0.01c2.61,0.64,4.55,2.05,5.85,4.29c0.21,0.37,0.57,0.68,0.71,1.07
			c0.48,1.28,0.9,2.57,1.32,3.87c0.23,0.69,0.49,1.38,0.62,2.08c0.26,1.42,0.38,2.87,0.67,4.29c0.52,2.52-0.46,4.75-1.4,6.98
			c-0.28,0.66-0.95,1.17-1.44,1.75c-1.31,1.55-3.06,2.36-5.02,2.96c-2.04,0.62-3.99,0.22-5.98-0.12c-2.31-0.4-4.07-1.62-5.58-3.26
			c-0.06-0.06-0.09-0.16-0.17-0.2c-1.35-0.72-1.17-2.16-1.67-3.28c-0.27-0.61-0.48-1.25-0.65-1.9c-0.19-0.72-0.37-1.45-0.45-2.19
			C175.14,111.64,175.2,110.85,175.2,110.06z M187.72,120.68c1.4,0.03,2.62-0.01,3.63-0.65c0.76-0.49,1.37-1.19,2-1.84
			c0.87-0.92,1.71-1.86,1.9-3.16c0.19-1.33,0.43-2.65,0.57-3.99c0.08-0.73,0.09-1.5-0.05-2.21c-0.27-1.34-0.54-2.7-1.05-3.96
			c-0.66-1.62-1.05-3.43-2.55-4.63c-0.8-0.64-1.63-1.34-2.58-1.67c-1.6-0.55-3.25-0.76-5.04-0.41c-1.62,0.32-2.58,1.27-3.55,2.29
			c-1.05,1.1-1.46,2.52-1.88,3.92c-0.31,1.06-0.62,2.14-0.81,3.22c-0.32,1.85-0.27,3.7,0.13,5.54c0.48,2.2,1.13,4.22,3.37,5.54
			C183.72,119.79,185.58,120.83,187.72,120.68z"/>
		<path fill="#FFFFFF" d="M139.54,123.15c-0.73,0.37-1.53,0.93-2.42,1.2c-1.43,0.43-2.91,0.78-4.4,0.97
			c-2.22,0.29-4.31-0.31-6.34-1.14c-2.07-0.85-3.48-2.33-4.55-4.15c-0.74-1.26-1.07-2.65-1.08-4.11c0-0.98-0.15-1.96-0.1-2.93
			c0.04-0.77,0.23-1.55,0.41-2.31c0.34-1.49,0.59-3.01,1.1-4.44c0.42-1.19,1.07-2.33,1.75-3.42c1.04-1.67,2.47-3.06,4.05-4.27
			c1.3-0.99,2.8-1.6,4.47-1.65c0.95-0.03,1.92,0.07,2.86,0.22c0.57,0.09,1.11,0.39,1.67,0.59c0.21,0.08,0.4,0.21,0.62,0.25
			c1.17,0.18,1.94,0.95,2.62,1.74c1.34,1.56,2.38,3.3,2.82,5.3c0.21,0.97,0.3,1.97,0.44,2.95c0.09,0.61,0.22,1.21,0.23,1.82
			c0.03,2.03-0.11,4.05-0.67,6.02c-0.2,0.7-0.55,1.35-0.75,2.05c-0.49,1.7-1.62,3.05-2.59,4.49
			C139.52,122.54,139.58,122.86,139.54,123.15z M123.21,113.7c-0.02,2.73,0.17,3.63,1.3,5.45c0.33,0.54,0.56,1.25,1.06,1.55
			c2.02,1.19,4.15,2.15,6.62,2.08c0.54-0.02,1.09-0.13,1.6-0.04c0.97,0.18,1.75-0.2,2.51-0.64c0.74-0.43,1.59-0.81,2.1-1.43
			c1.78-2.13,2.54-4.72,3.22-7.3c0.27-1.01,0.14-2.11,0.2-3.17c0.04-0.71,0.27-1.49,0.07-2.13c-0.49-1.55-1.16-3.06-1.83-4.55
			c-0.54-1.21-1.35-2.23-2.57-2.92c-0.24-0.14-0.39-0.41-0.62-0.58c-0.29-0.22-0.59-0.46-0.92-0.6c-1.4-0.61-2.88-0.49-4.35-0.39
			c-0.27,0.02-0.57,0.15-0.8,0.3c-1.96,1.35-3.9,2.73-5.05,4.84c-0.57,1.05-1.29,2.09-1.56,3.22
			C123.72,109.46,123.52,111.59,123.21,113.7z"/>
		<path fill="#FFFFFF" d="M106.39,103.32c-0.01,1.33,0.54,2.34,1.26,3.24c1.3,1.62,2.74,3.14,4,4.79c1.13,1.48,1.7,3.22,1.52,5.05
			c-0.06,0.64-0.59,1.35-1.11,1.81c-1.08,0.96-2.35,1.52-3.91,1.03c-0.81-0.26-1.78-0.26-2.45-0.7c-1.38-0.88-2.42-2.07-2.25-3.85
			c0.19-1.95,0.34-3.89,0.53-5.84c0.14-1.37,0.24-2.75,0.51-4.09c0.11-0.54,0.52-1.08,0.93-1.5
			C105.57,103.1,106.1,103.29,106.39,103.32z M106.15,108.77c-0.07,0.02-0.14,0.03-0.21,0.05c-0.09,0.26-0.26,0.51-0.27,0.77
			c-0.04,1.49-0.06,2.98-0.07,4.46c-0.01,1.53,0.94,2.42,2.34,2.83c0.63,0.18,1.45,0.15,2.06-0.07c0.54-0.2,0.5-1.72,0.12-2.24
			c-0.9-1.24-1.78-2.49-2.65-3.74C107.02,110.15,106.59,109.45,106.15,108.77z"/>
		<path fill="#FFFFFF" d="M193.59,108.55c-0.23,1.99-0.3,3.98-1.13,5.79c-0.37,0.8-1.1,1.48-1.73,2.15
			c-0.37,0.39-0.84,0.72-1.32,0.97c-0.45,0.23-0.99,0.45-1.47,0.43c-1.41-0.06-2.87,0.03-4.16-0.69c-2.02-1.13-3.45-2.66-3.64-5.01
			c-0.03-0.38-0.07-0.76-0.12-1.14c-0.19-1.35,0.17-2.62,0.63-3.87c0.07-0.2,0.2-0.39,0.23-0.6c0.27-2.25,1.8-3.89,3.01-5.68
			c0.54-0.79,2.23-1.19,3.15-0.84c0.17,0.06,0.34,0.13,0.51,0.15c2.07,0.25,3.55,1.43,4.77,2.9c0.46,0.56,0.73,1.33,0.88,2.04
			C193.42,106.28,193.47,107.44,193.59,108.55z M187.38,115.53c0.43-0.09,0.92-0.09,1.28-0.29c1.01-0.57,2.05-1.15,2.41-2.35
			c0.13-0.45,0.37-0.87,0.55-1.3c0.96-2.3,0.82-4.57-0.43-6.71c-0.47-0.8-1.19-1.64-2.01-2.06c-1.66-0.85-4.24,0.29-4.94,1.97
			c-0.22,0.53-0.44,1.07-0.7,1.59c-1,2.02-1.22,4.06-0.38,6.2C183.79,114.23,185.5,115.46,187.38,115.53z"/>
		<path fill="#FFFFFF" d="M140.05,110.81c-0.06,2.41-0.78,4.66-1.9,6.74c-0.69,1.28-2.14,1.9-3.6,2.36
			c-1.29,0.4-2.46-0.14-3.69-0.24c-0.78-0.06-1.38-0.46-1.99-0.92c-1.62-1.21-2.62-2.75-2.99-4.66c-0.07-0.34-0.03-0.72,0.04-1.06
			c0.33-1.58,0.75-3.14,1.04-4.73c0.31-1.74,1.32-3.12,2.37-4.47c0.8-1.01,1.9-1.72,3.17-2.16c1.63-0.57,3.24-0.06,4.42,1.64
			c0.84,1.22,1.48,2.57,2.14,3.89c0.34,0.69,0.55,1.44,0.76,2.18C139.95,109.85,139.98,110.34,140.05,110.81z M128.86,113.09
			c-0.2,2.09,0.58,3.64,2.53,4.64c0.83,0.43,1.73,0.5,2.48,0.06c1.65-0.97,2.96-2.24,3.28-4.19c0.58-3.43,0.18-6.62-2.44-9.28
			c-0.8-0.81-2.27-0.8-2.94,0.16c-1.12,1.59-2.09,3.28-2.43,5.21C129.15,110.81,129.02,111.95,128.86,113.09z"/>
	</g>
</g>
</svg>
