<?xml version="1.0" encoding="utf-8"?>
<!-- Generator: Adobe Illustrator 23.0.0, SVG Export Plug-In . SVG Version: 6.00 Build 0)  -->
<svg version="1.1" id="Layer_1" xmlns="http://www.w3.org/2000/svg" xmlns:xlink="http://www.w3.org/1999/xlink" x="0px" y="0px"
	 viewBox="0 0 300 300" enable-background="new 0 0 300 300" xml:space="preserve">
<rect fill="#FCFAE9" width="300" height="300"/>
<rect x="10" y="10" fill="#A4D0C9" width="280" height="280"/>
<g id="burgate">
	<circle fill="#E9AF85" cx="150" cy="150" r="127.5"/>
	<g>
		<path fill="#FFFFFF" d="M236.27,120.83c1.07-0.63,2.04-1.27,3.08-1.79c1.41-0.7,2.84-1.38,4.31-1.93
			c1.98-0.74,4.05-1.12,6.16-1.26c2.61-0.17,5.15,0.19,7.4,1.57c2.09,1.28,3.93,2.89,5.06,5.15c0.2,0.4,0.28,0.86,0.36,1.31
			c0.12,0.68,0.18,1.37,0.27,2.06c0.36,2.79,0.81,5.58,1.07,8.38c0.21,2.33,0.31,4.68,0.25,7.02c-0.05,2.1-0.36,4.19-0.58,6.28
			c-0.19,1.75-0.38,3.51-0.64,5.26c-0.12,0.8-0.36,1.58-0.6,2.35c-0.98,3.09-1.96,6.19-3,9.26c-0.43,1.28-1.05,2.5-1.54,3.77
			c-0.2,0.52-0.25,1.09-0.39,1.63c-0.04,0.16-0.11,0.32-0.21,0.45c-0.79,1.09-1.53,2.22-2.41,3.23c-0.89,1.02-1.92,1.91-2.9,2.85
			c-0.67,0.64-1.34,1.27-2.03,1.9c-0.17,0.16-0.38,0.31-0.6,0.39c-1.44,0.51-2.88,1.04-4.35,1.48c-1.76,0.53-3.58,0.8-5.41,0.82
			c-2.55,0.03-4.78,0.89-6.74,2.43c-1.99,1.57-3.88,3.25-5.84,4.85c-1.85,1.51-3.57,3.16-5.07,5.03c-1.27,1.58-2.48,3.21-3.72,4.82
			c-0.03,0.04-0.05,0.09-0.08,0.12c-1.92,1.65-3.57,3.6-5.86,4.8c-1.22,0.64-2.38,1.4-3.59,2.08c-0.5,0.28-1.03,0.49-1.55,0.75
			c-0.89,0.44-1.84,0.8-2.66,1.35c-0.89,0.59-1.65,1.36-2.47,2.05c-0.83,0.69-1.67,1.37-2.51,2.06c-2.21,1.8-4.41,3.6-6.62,5.4
			c-1.07,0.88-2.13,1.78-3.21,2.65c-0.35,0.28-0.76,0.49-1.13,0.73c-1.18,0.77-2.36,1.56-3.55,2.31c-0.5,0.32-1.05,0.55-1.56,0.85
			c-1.16,0.67-2.3,1.35-3.64,2.13c1.37,0,2.56,0.02,3.75,0c2.35-0.04,4.7-0.1,7.05-0.13c0.62-0.01,1.25-0.01,1.72,0.54
			c0.29,0.33,0.25,0.56-0.12,0.72c-0.24,0.1-0.51,0.19-0.76,0.19c-2.68,0.01-5.36-0.03-8.04-0.01c-2.8,0.02-5.61,0.13-8.41,0.15
			c-1.91,0.01-3.83-0.08-5.74-0.09c-0.71,0-1.42,0.13-2.14,0.17c-0.56,0.03-1.13,0.01-1.7,0.01c-1.36,0-2.72,0.01-4.09,0.01
			c-2.13,0-4.26-0.03-6.39,0c-1.55,0.02-3.1,0.14-4.65,0.18c-1.52,0.03-3.05,0-4.57,0.01c-2.7,0.02-5.4,0.05-8.11,0.06
			c-2.07,0-4.13-0.04-6.2-0.04c-2.2-0.01-4.41-0.04-6.61,0.01c-1.48,0.03-2.95,0.23-4.42,0.27c-1.57,0.04-3.15-0.01-4.73-0.03
			c-1.6-0.02-3.21-0.04-4.81-0.05c-1.14-0.01-2.28,0-3.42,0.01c-0.43,0-0.86,0.06-1.29,0.05c-1.36-0.03-2.72-0.07-4.08-0.13
			c-0.18-0.01-0.38-0.1-0.52-0.22c-0.31-0.27-0.4-0.61,0.09-0.75c0.84-0.24,1.71-0.39,2.56-0.59c0.29-0.07,0.57-0.19,1.01-0.33
			c-1.14-0.27-2.02-0.47-3.06-0.72c0.36-0.14,0.64-0.32,0.92-0.33c1.31-0.05,2.61-0.05,3.92-0.08c0.06,0,0.11-0.08,0.26-0.18
			c-0.2-0.19-0.35-0.4-0.56-0.5c-1.33-0.65-2.66-1.28-4-1.92c-0.15-0.07-0.31-0.13-0.45-0.22c-1.67-1.06-3.34-2.13-5.01-3.2
			c-1.01-0.65-1.99-1.33-3-1.96c-1.11-0.7-2.26-1.33-3.35-2.05c-1.03-0.69-2-1.47-3-2.2c-0.86-0.63-1.73-1.24-2.59-1.88
			c-0.36-0.27-0.68-0.59-1.03-0.88c-0.95-0.79-1.93-1.55-2.84-2.38c-0.95-0.88-1.7-2.04-2.78-2.69c-1.34-0.81-2.03-2.2-3.28-3.06
			c-0.74-0.51-1.22-1.4-1.84-2.1c-0.51-0.57-1.07-1.1-1.57-1.67c-0.4-0.46-0.77-0.94-1.14-1.43c-1.11-1.46-2.21-2.93-3.31-4.4
			c-0.55-0.75-1.12-1.49-1.62-2.28c-1.09-1.71-2.15-3.44-3.22-5.16c-0.15-0.24-0.36-0.45-0.5-0.7c-0.39-0.67-0.76-1.35-1.14-2.03
			c-0.16-0.29-0.3-0.6-0.49-0.87c-0.53-0.77-1.42-1.35-1.21-2.51c0.04-0.23-0.22-0.52-0.35-0.77c-0.26-0.51-0.55-1-0.79-1.52
			c-0.16-0.34-0.41-0.6-0.16-1.13c0.17-0.35-0.24-1.02-0.46-1.53c-0.47-1.1-1.2-2.14-1.43-3.29c-0.29-1.49-0.97-2.82-1.3-4.28
			c-0.54-2.4-1.26-4.76-1.76-7.17c-0.58-2.76-1.02-5.56-1.48-8.35c-0.29-1.8-0.58-3.61-0.73-5.42c-0.17-1.98-0.18-3.96-0.26-5.95
			c-0.12-2.99-0.28-5.98-0.34-8.97c-0.02-1.04,0.23-2.08,0.28-3.12c0.16-2.92,0.27-5.84,0.44-8.76c0.11-1.88,0.22-3.77,0.47-5.64
			c0.25-1.82,0.71-3.61,1.02-5.42c0.15-0.9,0.14-1.82,0.29-2.72c0.1-0.62,0.37-1.22,0.52-1.84c0.09-0.35,0.09-0.71,0.12-1.07
			c0.01-0.09-0.07-0.18-0.09-0.27c-0.1-0.6,1.13-2.61,1.69-2.85c0.34-0.14,0.63-0.4,0.95-0.58c1.53-0.83,3.11-1.58,4.59-2.49
			c0.95-0.58,2-0.67,2.99-1.03c0.99-0.36,1.93-0.83,2.89-1.25c0.33-0.14,0.65-0.38,0.99-0.41c1.62-0.14,2.98-0.97,4.45-1.54
			c0.28-0.11,0.64-0.29,0.88-0.21c0.84,0.29,1.57,0.03,2.36-0.2c1.31-0.39,2.65-0.64,3.98-0.95c0.12-0.03,0.24-0.06,0.36-0.05
			c2.73,0.29,5.26-0.77,7.89-1.18c1.86-0.29,3.69-0.81,5.54-1.14c1.45-0.26,2.93-0.48,4.4-0.54c1.3-0.06,2.62,0.2,3.93,0.16
			c1.8-0.06,3.6-0.29,5.41-0.42c0.81-0.06,1.63-0.05,2.44-0.09c3.1-0.14,6.21-0.3,9.31-0.44c2.53-0.12,5.07-0.26,7.6-0.36
			c1.67-0.07,3.35-0.1,5.03-0.11c3.16-0.02,6.33-0.01,9.49-0.01c1.27,0,2.54,0.04,3.81-0.01c0.28-0.01,0.55-0.34,0.83-0.49
			c0.2-0.11,0.43-0.18,0.64-0.26c0.04,0.07,0.07,0.14,0.11,0.21c-0.14,0.13-0.28,0.26-0.44,0.4c0.05,0.08,0.08,0.17,0.12,0.19
			c0.25,0.07,0.5,0.13,0.75,0.16c0.73,0.09,1.47,0.2,2.21,0.25c1.35,0.1,2.71,0.14,4.06,0.24c2.04,0.16,4.07,0.38,6.11,0.54
			c1.4,0.11,2.82,0.11,4.22,0.28c1.68,0.22,3.4,0.4,5,0.92c1.28,0.42,2.59,0.6,3.88,0.81c3.69,0.61,7.4,1.07,11.09,1.65
			c2.03,0.32,4.04,0.76,6.05,1.16c0.89,0.17,1.78,0.39,2.67,0.54c0.18,0.03,0.39-0.18,0.59-0.25c0.2-0.07,0.43-0.17,0.61-0.13
			c1.3,0.32,2.59,0.68,3.89,1c0.56,0.14,1.12,0.22,1.68,0.35c1.35,0.31,2.69,0.68,4.06,0.92c1.36,0.24,2.75,0.29,4.1,0.52
			c1.24,0.22,2.47,0.55,3.69,0.88c2.73,0.74,5.43,1.61,8.18,2.24c2.2,0.5,4.12,1.62,6.18,2.42c1.22,0.47,2.39,1.09,3.58,1.64
			c0.02,0.01,0.05,0.01,0.07,0.02c0.97,0.71,1.94,1.42,2.91,2.14c0.38,0.28,0.79,0.55,1.09,0.91c0.27,0.31,0.52,0.71,0.6,1.1
			c0.75,3.48,1.32,7.01,2.25,10.45c0.35,1.28,0.67,2.5,0.75,3.82C235.83,120.09,236.11,120.45,236.27,120.83z M75.43,151.62
			c0.17,0.2,0.27,0.33,0.39,0.44c1.56,1.49,3.33,2.7,4.58,4.59c1.42,2.16,2.83,4.25,3.43,6.79c0.04,0.18,0.11,0.36,0.16,0.54
			c0.65,2.03,0.92,4.13,0.68,6.24c-0.14,1.22-0.62,2.41-1.04,3.58c-0.82,2.31-2.55,3.93-4.61,5.02c-1.78,0.94-3.85,1.02-5.89,0.88
			c-1.33-0.09-2.67-0.02-4-0.02c0.56,0.13,1.13,0.18,1.69,0.32c1.8,0.44,3.6,0.94,5.4,1.37c1.79,0.43,3.6,0.8,5.4,1.2
			c1.14,0.25,2.28,0.56,3.43,0.76c1.72,0.3,3.47,0.49,5.19,0.81c1.71,0.31,3.4,0.77,5.12,1.06c1.01,0.17,2.06,0.09,3.08,0.2
			c2.12,0.23,4.23,0.56,6.35,0.75c2.48,0.22,4.97,0.35,7.46,0.47c1.94,0.09,3.89,0.09,5.84,0.18c1.17,0.05,2.33,0.24,3.5,0.31
			c0.66,0.04,1.33-0.13,1.99-0.09c0.98,0.06,1.95,0.28,2.93,0.31c3.15,0.09,6.31,0.16,9.47,0.16c2.05,0,4.08-0.28,6.16-0.15
			c2.78,0.17,5.59-0.2,8.39-0.26c2.82-0.06,5.64,0.04,8.46-0.02c1.51-0.03,3.01-0.33,4.51-0.39c2.66-0.11,5.32-0.13,7.98-0.19
			c1.02-0.02,2.04-0.06,3.06-0.11c0.76-0.03,1.53-0.05,2.28-0.13c1.81-0.17,3.61-0.43,5.42-0.55c1.6-0.11,3.21-0.02,4.81-0.17
			c2.49-0.22,4.97-0.6,7.47-0.85c4.67-0.46,9.16-1.74,13.71-2.79c1.38-0.32,2.73-0.7,4.11-1.01c2.34-0.52,4.68-1.01,7.02-1.51
			c0.82-0.17,1.64-0.31,2.45-0.5c0.36-0.09,0.85-0.18,1.03-0.44c0.5-0.74,0.86-1.57,1.36-2.52c-0.68,0.1-1.18,0.16-1.67,0.24
			c-0.82,0.14-1.64,0.38-2.46,0.44c-2.17,0.18-4.34,0.3-6.52,0.43c-0.87,0.05-0.87,0.04-0.54-0.74c0.03-0.08,0.07-0.19,0.04-0.27
			c-0.28-0.78-0.04-1.53,0.01-2.31c0.1-1.45-0.01-2.91-0.01-4.37c0-1.96,0.05-3.93,0.03-5.89c-0.02-1.64-0.15-3.29-0.16-4.93
			c-0.01-1.43,0.1-2.87,0.1-4.3c0.01-1.39-0.05-2.78-0.07-4.17c-0.02-1.48,0.02-2.97-0.07-4.45c-0.09-1.42-0.42-2.84-0.48-4.26
			c-0.08-1.99-0.04-3.98,0-5.97c0.01-0.48,0.11-1.03,0.37-1.41c0.62-0.9,1.29-1.7,2.51-2.01c0.64-0.16,1.2-0.21,1.83-0.17
			c0.5,0.03,1,0.03,1.49-0.01c2.36-0.21,4.73-0.44,7.09-0.68c1.5-0.15,2.99-0.34,4.49-0.5c0.82-0.09,1.64-0.14,2.59-0.22
			c-0.24,0.37-0.48,0.56-0.48,0.76c0,0.59,0.08,1.18,0.15,1.76c0.09,0.74-0.55,2.08-1.15,2.25c-0.85,0.24-1.71,0.46-2.58,0.62
			c-1.55,0.29-3.12,0.51-4.67,0.79c-1.72,0.3-3.44,0.65-5.16,0.95c-1.55,0.27-1.56,0.26-1.48,1.85c0.01,0.24,0.02,0.48,0.03,0.72
			c0.01,1.12-0.03,2.25,0.05,3.37c0.07,1.04,0.3,2.07,0.42,3.11c0.08,0.69,0.09,1.39,0.15,2.08c0.04,0.47-0.05,1.12,0.21,1.35
			c0.25,0.22,0.89,0.02,1.35-0.05c2.65-0.41,5.29-0.82,7.93-1.26c0.7-0.12,0.85,0,0.77,0.72c-0.15,1.38-0.29,2.75-0.46,4.13
			c-0.05,0.38-0.15,0.75-0.24,1.12c-0.16,0.67-0.57,1.02-1.27,1.03c-0.62,0.01-1.25,0-1.87,0.09c-1.96,0.29-3.93,0.6-5.88,0.95
			c-0.23,0.04-0.57,0.35-0.58,0.55c-0.06,1.57-0.07,3.14-0.05,4.71c0.01,1.1,0.07,2.2,0.11,3.3c0.05,1.32,0.12,2.63,0.17,3.95
			c0.02,0.49,0.23,0.75,0.75,0.71c1.36-0.1,2.72-0.21,4.08-0.3c0.5-0.03,1.01-0.11,1.49-0.02c0.21,0.04,0.5,0.44,0.51,0.69
			c0.03,0.73-0.07,1.46-0.07,2.19c0,0.18,0.17,0.36,0.26,0.54c0.17-0.11,0.41-0.18,0.49-0.34c0.94-1.99,1.93-3.96,2.75-6
			c0.69-1.71,1.21-3.49,1.71-5.26c0.35-1.26,0.49-2.57,0.79-3.84c0.18-0.76,0.59-1.47,0.75-2.24c0.37-1.83,0.65-3.67,0.97-5.51
			c0.43-2.48,0.88-4.95,1.28-7.43c0.18-1.13,0.24-2.28,0.38-3.42c0.14-1.19,0.37-2.37,0.44-3.56c0.14-2.44,0.2-4.89,0.29-7.34
			c0.02-0.43,0-0.87,0-1.29c-0.38,0.14-0.63,0.24-0.89,0.32c-1.28,0.37-2.56,0.72-3.84,1.09c-0.76,0.22-1.49,0.54-2.26,0.69
			c-1.41,0.27-2.84,0.41-4.25,0.66c-1.79,0.31-3.57,0.76-5.37,0.99c-1.68,0.22-3.39,0.15-5.07,0.34c-2.78,0.31-5.55,0.8-8.34,1.08
			c-3.23,0.32-6.41,1.12-9.69,1c-1.02-0.04-2.05,0.17-3.08,0.24c-2.39,0.15-4.79,0.33-7.18,0.42c-4.59,0.18-9.17,0.78-13.79,0.37
			c-2.24-0.2-4.51-0.12-6.76-0.16c-4.07-0.06-8.15-0.11-12.23-0.17c-3.62-0.06-7.24-0.15-10.85-0.19c-1.58-0.02-3.16,0.13-4.74,0.06
			c-3.02-0.14-6.03-0.36-9.04-0.58c-4.04-0.3-8.08-0.63-12.11-0.98c-1.96-0.17-3.91-0.42-5.87-0.6c-0.76-0.07-1.53,0.03-2.28-0.07
			c-2.99-0.38-5.97-0.81-8.96-1.23c-2.7-0.38-5.41-0.75-8.11-1.18c-2.03-0.33-4.04-0.79-6.07-1.12c-2.16-0.36-4.36-0.48-6.44-1.26
			c-0.64-0.24-1.35-0.32-2.03-0.46c-0.35-0.07-0.74-0.04-1.05-0.19c-1.03-0.49-1.06-0.52-2.12-0.01c0.5,0.19,0.96,0.32,1.39,0.52
			c1.38,0.64,2.88,1.13,4.1,2.01c1.15,0.83,2.08,2.03,2.97,3.17c1.2,1.54,2.29,3.16,2.72,5.15c0.32,1.49,0.51,2.95,0.05,4.43
			c-0.6,1.94-1.48,3.71-2.69,5.36c-1.39,1.87-2.82,3.64-4.97,4.68C75.95,151.24,75.72,151.43,75.43,151.62z M138.05,191.87
			c-0.24,0.14-0.45,0.25-0.65,0.38c-0.12,0.08-0.21,0.19-0.33,0.27c-2.06,1.39-4.05,2.94-6.66,3.17c-0.38,0.03-0.76,0.14-1.14,0.12
			c-1.4-0.08-2.81-0.17-4.2-0.33c-0.58-0.07-1.13-0.34-1.7-0.49c-1.77-0.47-3.21-1.34-3.92-3.14c-0.1-0.26-0.27-0.49-0.46-0.83
			c-0.23,0.3-0.42,0.5-0.56,0.74c-1.17,1.93-3.03,2.86-5.09,3.49c-1.61,0.49-3.22,0.22-4.85,0.04c-2.57-0.28-4.81-1.39-7.03-2.57
			c-0.16-0.08-0.28-0.26-0.39-0.41c-0.9-1.22-1.79-2.44-2.66-3.62c-0.51,0.48-1.15,1.02-1.73,1.62c-1.55,1.58-3.54,2.38-5.63,2.59
			c-2.65,0.26-5.32,0.11-7.81-1.17c-1.54-0.79-2.7-1.85-3.31-3.5c-0.36-0.97-0.82-1.91-1.25-2.9c-2.74,3.17-6,4.99-10.45,4.49
			c0.97,1.28,1.81,2.41,2.68,3.52c1.17,1.49,2.28,3.03,3.56,4.43c1.31,1.43,2.77,2.72,4.19,4.04c1.21,1.13,2.44,2.23,3.68,3.32
			c0.24,0.21,0.57,0.32,0.81,0.53c1.15,1.04,2.21,2.19,3.43,3.12c2.69,2.05,5.41,4.06,8.2,5.96c2.45,1.67,4.98,3.24,7.56,4.7
			c1.99,1.13,4.14,2,6.18,3.05c1.68,0.86,3.46,1.26,5.32,1.36c2.97,0.16,5.93,0.33,8.9,0.45c2.32,0.09,4.65,0.04,6.96,0.21
			c2.26,0.17,4.49-0.38,6.79,0.09c1.82,0.37,3.77,0.24,5.66,0.2c2.48-0.05,4.95-0.28,7.43-0.35c3.35-0.09,6.7-0.11,10.05-0.11
			c2.11,0,4.22,0.13,6.33,0.15c1.5,0.02,3-0.17,4.49-0.05c1.74,0.15,3.44-0.04,5.12-0.35c1.59-0.29,3.16-0.76,4.71-1.22
			c0.85-0.25,1.69-0.55,2.47-0.96c1.01-0.53,1.98-1.15,2.93-1.78c1.99-1.33,4-2.62,5.92-4.05c2.05-1.53,4.04-3.15,6-4.8
			c2.14-1.8,4.26-3.64,6.32-5.55c1.54-1.43,3.01-2.94,4.44-4.48c1.26-1.35,2.5-2.72,3.6-4.2c1.1-1.47,2.01-3.09,2.98-4.65
			c1.04-1.67,2.07-3.35,3.06-5.04c0.14-0.24,0.2-0.74,0.06-0.89c-0.65-0.67-1.39-1.26-2.13-1.91c-0.08,0.17-0.15,0.31-0.22,0.47
			c-0.49,1.13-0.8,2.32-1.81,3.19c-1.53,1.32-3.07,2.46-5.27,2.29c-1.3-0.1-2.45-0.44-3.44-1.26c-0.89-0.72-1.74-1.49-2.78-2.39
			c-0.76,3.23-3.04,4.73-5.96,5.55c-3.28,0.93-5.38-0.93-7.42-3.05c-0.34,0.66-0.66,1.28-0.97,1.89c-1.08,2.18-3.04,3.25-5.25,3.61
			c-1.75,0.28-3.63,0.22-5.21-0.95c-0.02-0.01-0.05-0.02-0.07-0.03c-1.1-0.69-2.4-1.09-3.15-2.3c-0.34-0.54-0.87-0.97-1.2-1.32
			c-0.91,1.15-1.72,2.27-2.62,3.3c-1.52,1.74-3.51,2.01-5.65,1.57c-1.08-0.22-2.14-0.52-3.21-0.78c-1.39-0.34-2.54-1.08-3.49-2.14
			c-0.42-0.47-0.84-0.95-1.28-1.45c-0.16,0.18-0.25,0.26-0.32,0.36c-0.12,0.18-0.25,0.36-0.34,0.55c-1.32,2.82-3.72,4.13-6.62,4.76
			c-2.4,0.52-4.62-0.1-6.79-1.06C141,194.55,139.49,193.32,138.05,191.87z M217.43,109.57c0.01,0.05,0.01,0.1,0.02,0.15
			c1.23-0.17,2.49-0.25,3.7-0.53c2.83-0.66,5.53-1.73,8.16-2.97c0.52-0.24,0.98-0.61,1.47-0.92c-0.45-0.5-0.85-1.07-1.38-1.47
			c-0.72-0.54-1.55-0.91-2.31-1.4c-2.11-1.36-4.34-2.53-6.7-3.37c-1.32-0.46-2.71-0.71-4.07-1.05c-1.75-0.43-3.33-1.34-5.21-1.45
			c-1.59-0.1-3.14-0.71-4.71-1.07c-1-0.23-2-0.55-3.01-0.6c-1.01-0.05-1.96-0.19-2.94-0.46c-1.02-0.28-2.12-0.25-3.17-0.44
			c-2.3-0.43-4.59-0.93-6.89-1.37c-1.97-0.37-3.95-0.69-5.92-1.05c-1.65-0.3-3.29-0.65-4.94-0.93c-1.35-0.23-2.71-0.36-4.06-0.56
			c-2.25-0.34-4.5-0.71-6.75-1.05c-1.71-0.26-3.42-0.46-5.12-0.74c-1.79-0.29-3.57-0.73-5.37-0.93c-1.34-0.15-2.71-0.01-4.07-0.05
			c-1.89-0.06-3.77-0.15-5.66-0.25c-2.94-0.15-5.9-0.19-8.82-0.52c-2.11-0.24-4.19-0.32-6.3-0.07c-0.47,0.06-0.95,0.02-1.43,0.04
			c-2.08,0.1-4.16,0.19-6.24,0.32c-2.44,0.15-4.87,0.33-7.31,0.5c-1.29,0.09-2.59,0.14-3.88,0.23c-0.94,0.07-1.88,0.2-2.83,0.3
			c-1.38,0.14-2.81,0.11-4.14,0.43c-2.83,0.69-5.7,0.89-8.58,1.14c-0.2,0.02-0.42-0.17-0.64-0.23c-0.26-0.07-0.54-0.19-0.8-0.16
			c-0.61,0.07-1.2,0.26-1.81,0.31c-2.17,0.21-4.35,0.29-6.51,0.59c-2.06,0.28-4.08,0.81-6.13,1.17c-1.08,0.19-2.2,0.44-3.27,0.34
			c-1.79-0.16-3.46,0.29-5.13,0.73c-1.77,0.46-3.5,1.1-5.27,1.58c-2.87,0.77-5.77,1.44-8.4,2.89c-1.46,0.8-3.11,1.22-4.38,2.41
			c-0.78,0.73-1.06,2.17-0.24,2.6c1.62,0.85,3.27,1.66,4.96,2.36c1.37,0.57,2.8,0.99,4.22,1.42c1.36,0.41,2.74,0.82,4.13,1.11
			c1.09,0.23,2.22,0.24,3.33,0.4c1.5,0.21,2.99,0.51,4.5,0.69c1.28,0.15,2.55,0.75,3.88,0.18c0.2-0.08,0.47-0.01,0.7,0.03
			c2.54,0.42,5.08,0.94,7.63,1.26c3.71,0.45,7.44,0.81,11.17,1.11c2.96,0.24,5.93,0.37,8.9,0.49c2.1,0.08,4.21,0.07,6.32,0.06
			c0.57,0,1.14-0.23,1.71-0.22c1.42,0.02,2.81,0.35,4.27,0.16c1.23-0.16,2.52,0.14,3.79,0.23c2.82,0.2,5.64,0.48,8.47,0.58
			c2.41,0.08,4.83-0.06,7.25-0.05c2.37,0.01,4.74,0.1,7.11,0.13c1.8,0.02,3.6-0.04,5.39-0.02c2.16,0.02,4.32,0.07,6.48,0.12
			c1.65,0.04,3.3,0.07,4.96,0.13c1.97,0.07,3.95,0.19,5.92,0.26c0.71,0.03,1.43-0.03,2.14-0.04c2.92-0.02,5.85-0.05,8.77-0.06
			c2.98-0.01,5.95-0.49,8.95-0.1c1.29,0.17,2.63,0.02,3.95-0.07c3.82-0.26,7.64-0.55,11.46-0.87c1.98-0.16,3.96-0.38,5.93-0.63
			C214.26,110.09,215.85,109.81,217.43,109.57z M231.91,106.87c-0.52,0.4-0.96,0.87-1.51,1.11c-1.04,0.45-2.12,0.8-3.2,1.13
			c-1.09,0.34-2.21,0.61-3.31,0.9c-0.85,0.22-1.7,0.51-2.57,0.62c-2.9,0.36-5.81,0.62-8.71,0.98c-2.96,0.37-5.88,1-8.89,0.95
			c-1.53-0.03-3.06,0.07-4.59,0.14c-2.28,0.1-4.55,0.26-6.83,0.33c-1.95,0.06-3.88,0.67-5.85,0.15c-0.11-0.03-0.24-0.01-0.36,0
			c-2.99,0.17-5.98,0.37-8.97,0.49c-1.69,0.07-3.37,0.07-5.07-0.05c-2.78-0.19-5.59,0.03-8.38,0.01c-1.74-0.01-3.49-0.19-5.23-0.23
			c-3.61-0.08-7.23-0.13-10.84-0.18c-2.75-0.04-5.51-0.04-8.26-0.11c-4.83-0.12-9.67-0.26-14.5-0.43c-2.32-0.08-4.64-0.22-6.96-0.34
			c-4.91-0.26-9.83-0.14-14.72-0.74c-2.02-0.25-4.05-0.35-6.08-0.5c-3.74-0.29-7.49-0.55-11.23-0.87c-1.71-0.15-3.4-0.43-5.1-0.64
			c-2.35-0.28-4.71-0.54-7.06-0.83c-1.79-0.22-3.57-0.44-5.35-0.73c-0.76-0.12-1.48-0.48-2.24-0.62c-0.94-0.17-1.9-0.2-2.84-0.34
			c-0.59-0.09-1.3-0.1-1.7-0.45c-0.97-0.83-2.17-0.96-3.27-1.4c-0.55-0.22-1.14-0.49-1.71-0.49c-0.61,0-1.01-0.15-1.35-0.61
			c-0.09-0.12-0.25-0.18-0.46-0.33c-0.24,0.97-0.49,1.84-0.67,2.72c-0.28,1.36-0.47,2.74-0.77,4.09c-0.27,1.26-0.21,1.4,1.04,1.77
			c0.83,0.24,1.74,0.38,2.43,0.85c1.66,1.13,3.23,2.39,4.79,3.65c0.6,0.49,1.08,1.13,1.69,1.77c2.76-2.78,5.94-3.68,9.84-2.9
			c3.92,0.78,6.16,3.35,8.09,6.37c0.57-0.54,1.1-1.09,1.69-1.57c0.81-0.67,1.6-1.5,2.7-1.54c2.48-0.1,4.95,0.04,7.27,1.06
			c0.74,0.33,1.44,0.77,2.1,1.24c0.65,0.47,1.27,1.01,1.82,1.59c0.87,0.92,1.66,1.9,2.53,2.9c0.32-0.38,0.6-0.77,0.93-1.11
			c0.9-0.96,1.71-2.07,3.06-2.41c2.07-0.52,4.15-0.86,6.33-0.42c3.69,0.74,6.67,2.44,8.5,5.86c0.4,0.75,0.79,1.51,1.28,2.47
			c0.2-0.58,0.36-0.97,0.47-1.38c0.69-2.68,3.34-5.24,6.35-5.33c0.52-0.02,1.05,0.01,1.57,0.05c2.01,0.13,3.88,0.61,5.4,2.04
			c1.22,1.14,2.45,2.26,3.64,3.37c0.61-0.56,1.18-1.11,1.77-1.62c1.1-0.94,2.29-1.72,3.72-2.09c1.95-0.5,3.9-0.42,5.85-0.08
			c1.01,0.17,2.01,0.43,2.97,0.77c1.35,0.47,2.26,1.47,2.97,2.69c0.27,0.46,0.66,0.84,1.07,1.35c0.19-0.36,0.29-0.6,0.43-0.82
			c0.98-1.58,1.91-3.14,3.63-4.17c2.79-1.67,5.66-1.86,8.63-0.9c2.56,0.83,4.75,2.36,6.74,4.16c0.35,0.31,0.57,0.75,0.85,1.14
			c0.48,0.68,0.95,1.36,1.5,2.16c0.27-0.39,0.4-0.58,0.53-0.77c0.99-1.41,1.92-2.87,2.99-4.2c0.49-0.6,1.21-1.13,1.94-1.41
			c2.59-0.99,5.2-0.69,7.74,0.23c0.99,0.36,1.91,0.98,2.79,1.59c0.67,0.47,1.25,1.08,1.8,1.7c0.53,0.6,0.96,1.28,1.55,2.08
			c0.34-0.69,0.6-1.17,0.81-1.66c0.93-2.23,2.34-3.95,4.66-4.9c1.71-0.7,3.46-0.9,5.09-0.16c1.64,0.74,3.11,1.86,4.18,3.39
			c0.16,0.23,0.28,0.49,0.41,0.73c0.46-0.53,0.64-0.86,0.82-1.18c1.26-2.32,3.34-3.68,5.63-4.77c1.77-0.84,3.62-0.9,5.42-0.05
			c1.48,0.7,3.1,1.18,4.32,2.38c0.45,0.44,0.94,0.84,1.51,1.35c0.09-0.81,0.12-1.5,0.26-2.16c0.49-2.21,1.76-3.92,3.56-5.21
			c0.84-0.6,1.09-1.22,0.86-2.22C233.17,113.18,232.57,110.07,231.91,106.87z M236.29,129.97c0.09,0.02,0.18,0.04,0.27,0.06
			c0.14-0.09,0.3-0.15,0.42-0.26c1.02-0.9,2.01-1.84,3.06-2.72c2.47-2.09,5.25-3.27,8.58-2.89c1.52,0.17,2.63,0.83,3.28,2.21
			c0.43,0.9,0.81,1.83,1.18,2.76c0.81,2.02,1.26,4.12,1.2,6.29c-0.07,2.51-0.16,5.02-0.39,7.52c-0.26,2.87-0.47,5.75-1.36,8.55
			c-0.63,1.97-0.92,4.06-1.35,6.09c-0.75,3.58-2.35,6.66-5.21,9.02c-0.4,0.33-0.86,0.6-1.31,0.87c-1.46,0.91-2.87,1.91-4.4,2.69
			c-2.04,1.04-4.21,1.84-6.26,2.88c-1.4,0.71-2.77,1.54-4,2.5c-2.15,1.69-4.1,3.59-5.67,5.86c-0.81,1.18-1.76,2.26-2.64,3.39
			c-0.37,0.47-0.75,0.92-1.08,1.42c-0.56,0.86-1.34,1.68-1.54,2.63c-0.24,1.12-0.93,1.86-1.49,2.71c-0.85,1.3-1.85,2.52-2.76,3.78
			c-0.07,0.1-0.01,0.29-0.01,0.6c0.43-0.31,0.77-0.49,1.04-0.74c1.41-1.29,2.81-2.6,4.21-3.9c1.76-1.65,3.48-3.34,5.29-4.94
			c1.36-1.2,2.81-2.32,4.28-3.4c1.07-0.79,2.18-1.58,3.37-2.16c2.17-1.07,4.38-2.03,6.84-2.31c1.06-0.12,2.14-0.38,3.11-0.8
			c1.64-0.72,3.2-1.63,4.81-2.43c0.65-0.32,1.18-0.78,1.88-1.08c2.14-0.91,4.24-2.01,5.64-4c0.51-0.71,0.89-1.52,1.27-2.31
			c0.92-1.9,1.79-3.82,2.7-5.72c0.86-1.79,1.13-3.75,1.61-5.64c0.41-1.59,0.88-3.18,1.13-4.8c0.32-2.12,0.52-4.26,0.66-6.41
			c0.18-2.84,0.41-5.69,0.31-8.53c-0.09-2.66-0.58-5.31-0.9-7.97c-0.15-1.23-0.26-2.47-0.5-3.69c-0.14-0.72-0.38-1.45-0.74-2.08
			c-0.73-1.28-1.81-2.26-2.94-3.2c-2.27-1.9-4.88-2.64-7.74-2.4c-1.71,0.14-3.41,0.49-5.07,0.9c-2.47,0.61-4.79,1.62-6.85,3.15
			c-0.64,0.47-1.11,1.22-1.93,0.95C236.29,124.97,236.29,127.47,236.29,129.97z M235.49,144.71c-0.63,0.41-0.45,1.31-0.56,2.08
			c-0.1,0.66,0.1,1.37-0.01,2.03c-0.26,1.53-0.55,3.06-0.95,4.56c-0.45,1.71-1.04,3.38-1.56,5.08c-0.54,1.76-1.06,3.52-1.6,5.28
			c-0.46,1.51-0.94,3.01-1.4,4.52c-0.16,0.53-0.23,1.09-0.44,1.59c-0.2,0.48-0.57,0.89-0.81,1.36c-0.37,0.72-0.65,1.49-1.04,2.19
			c-0.42,0.76-0.97,1.45-1.37,2.22c-0.36,0.7-0.61,1.46-0.89,2.19c-0.09,0.22-0.13,0.46-0.19,0.69c0.06,0.02,0.12,0.05,0.17,0.07
			c0.16-0.2,0.3-0.42,0.48-0.59c1.2-1.16,2.36-2.36,3.63-3.45c0.62-0.53,1.43-0.85,2.16-1.26c1.03-0.58,2.05-1.19,3.1-1.73
			c1.94-0.97,3.91-1.87,5.85-2.85c1.07-0.54,2.05-1.23,3.12-1.78c2.12-1.1,3.81-2.66,4.97-4.73c0.99-1.76,1.38-3.74,1.91-5.68
			c1.02-3.73,1.65-7.51,2.02-11.34c0.23-2.43,0.32-4.87,0.41-7.31c0.05-1.6,0-3.2-0.03-4.8c-0.04-2.01-0.72-3.86-1.63-5.6
			c-0.33-0.63-0.99-1.31-1.64-1.49c-1.06-0.29-2.25-0.36-3.34-0.23c-1.85,0.23-3.42,1.27-4.85,2.37c-1.3,1-2.34,2.32-3.54,3.44
			c-1.07,0.99-1.11,2.25-1.11,3.54c0,0.45,0.13,0.92,0.07,1.36c-0.29,2.38-0.62,4.75-0.92,7.12
			C235.45,143.9,235.49,144.22,235.49,144.71z M68.91,125.12c-1.77-0.43-3.68-0.9-5.6-1.37c-1.23-0.3-2.46-0.62-3.7-0.91
			c-1.55-0.37-3.11-0.72-4.66-1.09c-0.67-0.16-1.34-0.37-2.01-0.52c-0.4-0.09-0.61,0.1-0.64,0.54c-0.12,1.72-0.33,3.44-0.38,5.16
			c-0.09,3.16-0.15,6.33-0.11,9.49c0.03,2.44,0.15,4.89,0.39,7.33c0.37,3.74,0.83,7.47,1.83,11.12c0.98,3.56,1.69,7.2,2.77,10.72
			c1.24,4.1,2.74,8.11,4.16,12.16c0.08,0.23,0.38,0.45,0.62,0.53c0.4,0.13,0.83,0.14,1.25,0.22c0.7,0.12,1.4,0.25,2.11,0.37
			c0.02-0.06,0.04-0.13,0.05-0.19c-0.9-0.56-1.75-1.24-2.72-1.64c-0.89-0.37-1.2-0.97-1.38-1.81c-0.23-1.05-0.4-2.14-0.55-3.19
			c-0.33-2.31-1.36-4.55-0.88-6.97c0.05-0.24-0.1-0.51-0.11-0.77c-0.05-1.18-0.39-2.32-0.17-3.55c0.17-0.97,0.28-2.08-0.56-3.02
			c0.7,0.01,0.62-0.39,0.49-0.83c-0.16-0.52-0.51-1.11-0.4-1.57c0.22-0.94,0.27-1.84,0.21-2.81c-0.13-2.17-0.03-4.36-0.07-6.54
			c-0.03-1.28-0.17-2.57-0.22-3.85c-0.1-2.41-0.15-4.83-0.25-7.24c-0.04-0.98-0.24-1.96-0.25-2.94c-0.02-1.69,0.05-3.39,0.09-5.08
			c0.02-0.71,0.68-1.4,1.37-1.42c1.17-0.03,2.34-0.04,3.51-0.08C65.07,125.29,67.05,125.2,68.91,125.12z M66.11,164.64
			c-0.01,0-0.02,0-0.04,0.01c0.22,2.04,0.46,4.09,0.65,6.13c0.13,1.36,0.22,2.72,0.29,4.09c0.04,0.75,0.5,1,1.14,1.01
			c1.1,0.01,2.23,0.12,3.3-0.07c2.56-0.46,5.27-0.54,7.23-2.71c0.98-1.08,2-2.06,1.97-3.67c-0.01-0.69,0.13-1.38,0.16-2.07
			c0.06-1.77-0.18-3.52-0.91-5.12c-0.7-1.51-1.35-3.08-2.61-4.26c-0.12-0.11-0.2-0.27-0.26-0.43c-0.77-1.99-2.6-2.88-4.3-3.69
			c-1.54-0.73-3.34-0.96-5.04-1.3c-1.38-0.28-1.65,0-1.72,1.42c-0.08,1.58-0.17,3.16-0.22,4.74c-0.02,0.69-0.01,1.39,0.05,2.08
			c0.06,0.68,0.24,1.36,0.3,2.04C66.16,163.44,66.11,164.04,66.11,164.64z M68.02,131.52c-1.09,0.15-1.03,0.83-1.04,1.45
			c-0.02,1,0.03,2.01-0.02,3.01c-0.11,1.99-0.31,3.97-0.39,5.96c-0.06,1.51,0.06,3.02-0.04,4.53c-0.06,0.8,0.21,1.01,0.9,1.22
			c2.53,0.75,4.95,0.03,7.24-0.76c1.41-0.48,2.78-1.52,3.57-2.99c0.48-0.9,1.18-1.76,1.38-2.71c0.51-2.41-0.15-4.68-1.34-6.81
			c-0.7-1.26-1.89-2.01-3.05-2.75c-0.81-0.51-1.71-0.87-2.52-1.37c-1.52-0.94-3.16-1.1-4.89-0.97c-0.7,0.05-0.89,0.37-0.83,1.01
			c0.03,0.35,0,0.67,0.47,0.74C67.58,131.08,67.69,131.25,68.02,131.52z M176.13,132.74c-0.29-0.48-0.44-0.82-0.68-1.1
			c-0.43-0.51-0.88-1.01-1.36-1.47c-0.87-0.85-1.67-1.81-2.65-2.5c-1.96-1.38-4.15-2.22-6.56-2.56c-2.91-0.41-5.11,0.76-6.96,2.83
			c-0.39,0.44-0.69,1-0.87,1.56c-0.28,0.87-0.43,1.79-0.59,2.69c-0.01,0.08,0.27,0.31,0.43,0.32c2.08,0.09,4.15,0.16,6.23,0.22
			c1.03,0.03,2.05,0,3.08,0.02c0.48,0.01,0.96,0.09,1.43,0.09c2.23,0,4.46-0.01,6.69-0.02
			C174.85,132.82,175.37,132.78,176.13,132.74z M99.66,129.07c0.2,0.06,0.38,0.13,0.57,0.16c2.16,0.29,4.32,0.65,6.49,0.85
			c3.51,0.33,7.02,0.54,10.53,0.83c0.59,0.05,0.66-0.13,0.48-0.65c-0.81-2.38-2.24-4.3-4.42-5.54c-1.58-0.9-3.27-1.64-5.16-1.61
			c-1.21,0.02-2.43,0.16-3.64,0.25c-1.17,0.09-2.18,0.51-2.9,1.49c-0.38,0.52-0.76,1.04-1.19,1.52
			C99.74,127.13,99.42,127.98,99.66,129.07z M69.7,116.68c-0.96,0.16-2.02,0.11-2.85,0.53c-1.56,0.77-2.71,2.1-3.5,3.67
			c-0.43,0.85-0.23,1.21,0.69,1.46c0.41,0.11,0.83,0.23,1.25,0.31c1.1,0.2,2.2,0.38,3.31,0.56c0.3,0.05,0.62,0.02,0.91,0.1
			c0.93,0.23,1.84,0.53,2.77,0.75c1.84,0.43,3.7,0.8,5.54,1.23c1.14,0.26,1.19,0.3,1.49-0.8c0.18-0.67,0.43-1.52,0.18-2.08
			c-0.71-1.59-1.96-2.83-3.34-3.86C74.25,117.13,72,116.9,69.7,116.68z M87.14,120.52c-0.01-0.08-0.03-0.17-0.04-0.25
			c-0.96,0.22-2.05,0.23-2.85,0.72c-1.44,0.88-2.38,2.34-3.2,3.81c-0.49,0.89-0.37,1.14,0.61,1.32c2.38,0.44,4.76,0.86,7.15,1.26
			c2.81,0.47,5.62,0.92,8.44,1.34c0.17,0.03,0.51-0.21,0.57-0.4c0.25-0.72,0.16-1.46-0.33-2.04c-0.92-1.1-1.83-2.22-2.89-3.18
			c-0.82-0.74-1.81-1.38-2.83-1.8C90.31,120.7,88.77,120.26,87.14,120.52z M111.69,194.17c0.78-0.19,1.58-0.34,2.35-0.58
			c2.06-0.63,3.23-2.21,4.24-3.97c0.43-0.75,0.07-1.43-0.8-1.5c-0.58-0.05-1.16-0.04-1.74-0.06c-2.98-0.1-5.96-0.14-8.94-0.32
			c-1.98-0.12-3.94-0.44-5.92-0.65c-0.32-0.03-0.64,0-0.96,0c0.09,0.3,0.17,0.61,0.27,0.91c0.06,0.18,0.15,0.35,0.24,0.52
			c0.63,1.19,1.38,2.35,2.52,3.07C105.6,193.25,108.51,194.1,111.69,194.17z M156,188.38c-5.46,0.1-10.91,0.2-16.37,0.3
			c-0.06,0.36-0.04,0.78-0.2,1.1c-0.24,0.48-0.13,0.87,0.21,1.16c0.96,0.85,1.91,1.73,2.97,2.44c0.76,0.51,1.67,0.8,2.53,1.13
			c0.77,0.29,1.56,0.63,2.37,0.72c1.93,0.22,3.67-0.54,5.35-1.35c1.24-0.6,1.82-1.87,2.48-3C155.76,190.16,156.2,189.43,156,188.38z
			 M194.98,131.77c-0.1-0.35-0.11-0.68-0.28-0.89c-1.1-1.39-2-2.96-3.78-3.72c-1.01-0.43-1.94-1-3.07-1.1
			c-0.62-0.06-1.22-0.25-1.83-0.38c-1.71-0.35-3.26,0.2-4.43,1.32c-1.07,1.02-1.74,2.44-2.69,3.6c-0.61,0.74-0.75,1.99-2.08,2.08
			C182.89,132.98,188.87,132.15,194.98,131.77z M80.12,183.85c-0.01,0.18-0.05,0.3-0.02,0.41c0.39,1.78,1.21,3.38,2.28,4.81
			c0.78,1.04,2.03,1.58,3.25,1.87c1.45,0.34,2.98,0.41,4.47,0.55c1.39,0.13,2.75-0.1,3.91-0.87c1.1-0.73,2.08-1.65,3.08-2.52
			c0.31-0.27,0.5-0.68,0.76-1.04C91.9,185.97,86.05,184.92,80.12,183.85z M120.14,131.32c1.29,0.15,2.3,0.32,3.32,0.37
			c2.32,0.12,4.64,0.13,6.96,0.27c1.63,0.1,3.26-0.3,4.88,0.09c0.13,0.03,0.52-0.3,0.49-0.4c-0.15-0.69-0.17-1.54-0.6-2.01
			c-1.12-1.21-2.34-2.34-3.67-3.31c-1.83-1.33-3.99-1.65-6.2-1.34c-1.15,0.16-2.31,0.61-2.92,1.65
			C121.57,128.09,120.93,129.66,120.14,131.32z M78.07,183.21c-5.37-1.17-10.61-2.31-15.99-3.48c0.27,0.69,0.41,1.29,0.72,1.78
			c1.25,1.98,2.56,3.93,3.86,5.87c0.14,0.2,0.36,0.4,0.59,0.49c2.24,0.89,4.43,0.9,6.64-0.25
			C75.76,186.64,77.05,185.16,78.07,183.21z M128.54,194.4c2.59-0.04,4.32-0.6,5.88-1.68c0.9-0.62,1.8-1.24,2.68-1.9
			c0.61-0.45,0.31-1.03,0.13-1.57c-0.16-0.5-0.57-0.5-0.99-0.49c-0.86,0.02-1.72,0-2.58,0.01c-0.59,0.01-1.19,0.07-1.78,0.05
			c-1.02-0.04-2.03-0.13-3.05-0.18c-1.17-0.05-2.35-0.07-3.52-0.12c-1.41-0.05-2.81-0.09-4.22-0.18c-0.57-0.04-0.8,0.35-0.76,0.72
			c0.15,1.44,0.62,2.77,1.9,3.62C124.35,194.07,126.78,194.32,128.54,194.4z M154.59,132.48c-0.12-0.34-0.17-0.59-0.29-0.8
			c-0.44-0.76-0.87-1.55-1.38-2.26c-0.76-1.05-1.56-2.06-2.99-2.26c-1.35-0.19-2.68-0.55-4.03-0.67c-3.26-0.29-6,0.69-7.87,3.53
			c-0.57,0.87-0.74,1.67-0.23,2.06C143.51,132.21,148.98,132.34,154.59,132.48z M188.29,186.58c-2.84,0.23-5.57,0.46-8.3,0.66
			c-1.83,0.13-3.67,0.24-5.5,0.31c-0.59,0.02-0.71,0.31-0.6,0.78c0.06,0.25,0.17,0.52,0.34,0.7c1.11,1.22,2.03,2.57,3.63,3.38
			c1.6,0.81,3.2,1.43,4.92,1.17c1.19-0.18,2.49-0.63,3.39-1.38C187.81,190.83,188.14,188.75,188.29,186.58z M212.84,129.77
			c0.85-0.12,1.68-0.23,2.51-0.36c2.87-0.46,5.74-0.92,8.61-1.39c1.29-0.21,2.58-0.44,3.86-0.71c0.67-0.14,0.76-0.44,0.22-0.84
			c-1.22-0.9-2.45-1.81-3.77-2.56c-1.48-0.85-3.1-1.56-4.85-1.01c-1.05,0.33-2,0.98-3.02,1.42c-1.85,0.8-2.69,2.42-3.42,4.12
			C212.82,128.79,212.88,129.24,212.84,129.77z M172.56,187.91c-1.74-0.4-13.55,0.22-14.72,0.78c0.32,1.5,1.33,2.49,2.52,3.32
			c1.74,1.23,3.83,1.5,5.85,1.83c1.33,0.22,2.53-0.15,3.62-1.15c1.06-0.97,1.64-2.16,2.21-3.39
			C172.25,188.86,172.39,188.38,172.56,187.91z M209.25,189.29c0.33-0.03,0.67-0.02,1-0.08c2.88-0.54,5.33-4.18,4.72-7.05
			c-0.03-0.14-0.37-0.33-0.52-0.3c-1.73,0.34-3.46,0.72-5.19,1.07c-0.42,0.08-0.86,0.05-1.28,0.15c-1.44,0.35-2.86,0.76-4.3,1.09
			c-0.6,0.14-0.78,0.47-0.59,0.97c0.14,0.37,0.39,0.71,0.66,1.01c0.43,0.48,0.91,0.93,1.38,1.36
			C206.29,188.58,207.6,189.32,209.25,189.29z M197.28,131.43c0.41,0.05,0.6,0.11,0.77,0.1c1.02-0.09,2.05-0.17,3.07-0.3
			c2.54-0.31,5.08-0.64,7.62-0.96c0.45-0.06,0.9-0.09,1.35-0.17c0.24-0.04,0.61-0.08,0.68-0.23c0.08-0.18-0.02-0.53-0.16-0.72
			c-1.02-1.39-2.09-2.76-3.68-3.57c-2.78-1.41-4.91-0.96-6.85,1.1C198.88,127.95,198.24,129.75,197.28,131.43z M195.31,191.37
			c1.23-0.07,2.34-0.44,3.45-1.02c1.76-0.93,2.4-2.52,2.88-4.25c0.21-0.78-0.29-1.31-1.06-1.19c-0.56,0.09-1.11,0.29-1.67,0.37
			c-2.74,0.41-5.48,0.84-8.24,1.17c-0.66,0.08-0.75,0.38-0.72,0.87c0.02,0.26,0.12,0.51,0.19,0.77
			C190.5,189.54,193.29,191.57,195.31,191.37z M52.58,118.27c-0.01,0-0.02,0-0.03,0c0,0.31,0.02,0.62,0,0.93
			c-0.03,0.51,0.21,0.7,0.7,0.79c0.91,0.17,1.79,0.44,2.69,0.65c0.16,0.04,0.34-0.04,0.51-0.05c0.25-0.02,0.52-0.1,0.76-0.05
			c1.3,0.26,2.58,0.55,3.88,0.81c0.11,0.02,0.35-0.11,0.38-0.21c0.2-0.79,0.38-1.54-0.22-2.3c-1.12-1.41-2.55-2.45-3.99-3.46
			c-1.07-0.75-2.2-1.43-3.54-1.63c-0.57-0.09-0.85,0.02-0.87,0.66C52.78,115.7,52.67,116.98,52.58,118.27z M235.09,125.61
			c-0.24-2.2-0.48-4.42-0.73-6.68c-2.5,1.01-4.65,4.75-3.74,7.69C232.05,126.3,233.49,125.97,235.09,125.61z M221.61,180.37
			c-0.14-0.05-0.21-0.1-0.27-0.08c-1.49,0.33-2.97,0.65-4.46,1c-0.5,0.12-0.49,0.51-0.41,0.92c0.2,1.02,0.87,1.74,1.54,2.45
			c0.7,0.74,0.9,0.67,1.39-0.22c0.65-1.17,1.32-2.32,1.98-3.49C221.47,180.78,221.52,180.57,221.61,180.37z M107.38,225.48
			c0,0.05,0,0.09,0.01,0.14c0.74,0,1.48,0,2.22,0c0-0.08,0-0.16-0.01-0.24C108.86,225.42,108.12,225.45,107.38,225.48z"/>
		<path fill="#FFFFFF" d="M120.2,157.67c-0.06,0.27-0.15,0.54-0.19,0.81c-0.32,2.06-0.64,4.12-0.95,6.18
			c-0.44,2.91-0.92,5.82-1.27,8.75c-0.2,1.68-0.16,3.39-0.24,5.09c-0.06,1.1-0.27,2.21-0.19,3.3c0.07,0.84-0.17,1.58-0.37,2.33
			c-0.1,0.37-0.57,0.73-0.96,0.91c-0.44,0.21-1.02,0.11-1.45,0.33c-0.76,0.39-1.31-0.22-1.89-0.39c-0.28-0.08-0.35-1.03-0.45-1.6
			c-0.06-0.36,0.02-0.75,0.03-1.13c0.03-1.56,0.05-3.11,0.08-4.67c0.02-1.1-0.01-2.21,0.08-3.31c0.11-1.36,0.31-2.71,0.48-4.06
			c0.27-2.18,0.56-4.35,0.8-6.53c0.23-2.05,0.42-4.1,0.61-6.15c0.21-2.24,0.4-4.48,0.63-6.72c0.14-1.38,0.35-2.76,0.51-4.13
			c0.29-2.5,0.58-5,0.86-7.5c0.13-1.19,0.22-2.38,0.34-3.57c0.09-0.87,0.53-1.24,1.46-1.33c2.45-0.24,4.9-0.5,7.35-0.76
			c3.52-0.37,6.62,0.54,9.09,3.13c0.8,0.84,1.39,1.91,1.05,3.21c-0.33,1.29-0.59,2.61-0.96,3.89c-0.3,1.03-0.84,1.92-1.78,2.54
			c-1.31,0.86-2.53,1.89-3.91,2.6c-1.49,0.77-3.13,1.27-4.71,1.88c-0.7,0.27-0.73,0.42-0.41,1.12c0.73,1.61,1.4,3.25,2.13,4.86
			c0.82,1.81,1.7,3.59,2.51,5.4c0.71,1.59,1.37,3.21,2.05,4.82c0.63,1.49,1.24,2.99,1.86,4.49c0.66,1.59,1.35,3.17,1.98,4.77
			c0.74,1.87,1.43,3.76,2.17,5.63c0.1,0.26,0.28,0.53,0.5,0.7c0.4,0.31,0.6,0.52,0.42,1.14c-0.18,0.65-0.01,1.41,0.09,2.12
			c0.16,1.13-0.03,1.29-1.11,1.03c-0.52-0.12-1.09-0.01-1.64,0.01c-0.09,0-0.19,0.07-0.28,0.07c-0.77-0.02-2.38-1.29-2.64-2.03
			c-0.19-0.54-0.47-1.05-0.68-1.58c-0.41-1.06-0.86-2.11-1.18-3.2c-0.7-2.43-1.61-4.78-2.62-7.09c-0.85-1.95-1.5-4-2.5-5.87
			c-1.38-2.59-2.52-5.26-3.62-7.96c-0.22-0.54-0.57-1.04-0.87-1.55C120.35,157.64,120.27,157.65,120.2,157.67z M121.45,143.04
			c-0.02,0-0.04,0-0.05,0c0.03,0.55,0.08,1.1,0.09,1.65c0.01,0.51,0.23,0.67,0.76,0.69c1.88,0.1,3.56-0.62,5.23-1.29
			c0.95-0.38,1.8-0.99,2.23-2.01c0.33-0.78-0.15-2.5-0.86-2.88c-2.2-1.17-4.5-1.82-7.02-1.58c-0.5,0.05-0.68,0.21-0.65,0.7
			C121.28,139.9,121.36,141.47,121.45,143.04z"/>
		<path fill="#FFFFFF" d="M154.05,144.76c0-1.08,0.04-2.16-0.01-3.24c-0.09-2.24-2.65-3.53-4.58-2.34
			c-0.12,0.07-0.25,0.17-0.38,0.19c-1.96,0.33-2.71,1.67-2.96,3.47c-0.07,0.49-0.27,0.97-0.36,1.46c-0.26,1.43-0.54,2.86-0.73,4.31
			c-0.22,1.71-0.4,3.42-0.53,5.14c-0.14,1.86-0.11,3.74-0.3,5.59c-0.35,3.32,0.1,6.62,0.42,9.9c0.27,2.82,0.94,5.63,2.09,8.25
			c0.46,1.03,1.16,1.98,1.88,2.87c0.87,1.07,2.65,1.04,3.95,0.21c1.36-0.87,1.99-2.18,2.17-3.64c0.38-3.21,0.66-6.44,0.87-9.66
			c0.08-1.26-0.15-2.53-0.23-3.8c-0.03-0.41-0.2-0.57-0.62-0.61c-0.92-0.1-1.82-0.1-2.67,0.33c-0.02,0.01-0.05,0.01-0.07,0.02
			c-1.49,0.38-2.97,0.77-4.46,1.15c-0.47,0.12-1.24-0.37-1.21-0.85c0.08-1.26,0.22-2.51,0.34-3.76c0.01-0.09,0.03-0.19,0.06-0.28
			c0.14-0.49,0.14-1.2,0.46-1.41c0.67-0.45,1.5-0.78,2.3-0.89c2.5-0.36,5.02-0.62,7.54-0.89c0.57-0.06,1.15-0.07,1.72-0.03
			c0.2,0.01,0.41,0.21,0.56,0.37c0.69,0.79,0.73,1.8,0.87,2.76c0.18,1.28,0.36,2.57,0.42,3.86c0.09,1.93,0.15,3.87,0.06,5.8
			c-0.07,1.47-0.37,2.93-0.6,4.4c-0.2,1.29-0.35,2.61-0.7,3.86c-0.33,1.21-0.87,2.36-1.34,3.52c-0.55,1.38-1.4,2.55-2.61,3.42
			c-0.91,0.65-1.94,1.13-3.05,1.17c-2.22,0.09-4.46,0.27-6.45-1.1c-0.6-0.42-1.32-0.66-1.94-1.06c-2.11-1.37-2.88-3.56-3.5-5.82
			c-0.22-0.81-0.44-1.63-0.53-2.46c-0.09-0.8-0.02-1.61-0.02-2.42c-0.01-3.14,0.03-6.27-0.05-9.41c-0.05-2.03-0.3-4.06-0.36-6.1
			c-0.11-3.21-0.16-6.42-0.2-9.63c-0.03-2.01-0.02-4.02,0-6.04c0.02-2.29,0.94-4.06,3.05-5.12c1.04-0.52,2.03-1.16,3.11-1.57
			c2.05-0.78,4.17-0.73,6.29-0.21c0.6,0.15,1.22,0.28,1.83,0.36c1.25,0.16,2.08,0.87,2.67,1.94c0.59,1.07,1.35,2.07,1.78,3.2
			c0.84,2.24,1.48,4.54,1.18,7c-0.09,0.73-0.03,1.48,0,2.21c0.02,0.65-0.36,0.91-0.89,0.84c-1.14-0.13-2.28-0.31-3.4-0.55
			c-0.7-0.15-0.88-0.76-0.89-1.4c-0.01-1.1,0-2.21,0-3.31C154.03,144.76,154.04,144.76,154.05,144.76z"/>
		<path fill="#FFFFFF" d="M177,135.72c0-0.32-0.08-0.62,0.02-0.72c0.13-0.13,0.57-0.22,0.61-0.15c0.22,0.33,0.43,0.7,0.5,1.09
			c0.37,2.19,0.83,4.35,1.5,6.48c0.61,1.97,0.91,4.04,1.3,6.07c0.41,2.08,0.8,4.17,1.15,6.26c0.2,1.2,0.24,2.43,0.46,3.63
			c0.34,1.83,0.81,3.64,1.14,5.47c0.51,2.81,1.69,5.37,2.67,8.02c0.79,2.15,1.22,4.42,1.95,6.6c0.36,1.07,0.37,2.15,0.47,3.23
			c0.07,0.7-0.31,1.1-0.89,1.19c-1.01,0.17-2.04,0.28-3.06,0.26c-0.91-0.02-1.77-1.52-1.72-2.44c0.04-0.69-0.15-1.41-0.34-2.09
			c-0.93-3.41-1.81-6.85-2.89-10.21c-0.7-2.18-1.72-4.25-2.59-6.38c-0.2-0.49-0.42-0.97-0.56-1.48c-0.26-0.88-0.48-1.06-1.36-1.04
			c-0.97,0.02-1.94,0.03-2.91,0.02c-1.34-0.01-1.27,0-1.64,1.3c-0.89,3.13-1.85,6.24-2.77,9.36c-0.2,0.68-0.32,1.39-0.48,2.08
			c-0.21,0.91-0.41,1.82-0.63,2.73c-0.49,1.97-0.93,3.96-1.52,5.9c-0.33,1.07-0.92,2.07-1.43,3.08c-0.06,0.13-0.31,0.22-0.48,0.23
			c-1.15,0.07-2.3,0.1-3.44,0.16c-0.65,0.04-0.9-0.28-0.78-0.87c0.12-0.58,0.31-1.15,0.46-1.73c0.64-2.35,1.29-4.7,1.9-7.05
			c0.29-1.13,0.51-2.29,0.76-3.43c0.4-1.85,0.81-3.69,1.19-5.54c0.33-1.6,0.65-3.19,0.94-4.8c0.38-2.02,0.57-4.1,1.15-6.06
			c0.43-1.45,0.66-2.91,0.93-4.38c0.27-1.46,0.37-2.95,0.68-4.4c0.3-1.41,0.25-2.92,1.16-4.18c0.2-0.27,0.18-0.69,0.29-1.03
			c0.25-0.82,0.5-1.65,0.75-2.47c0.18-0.59,0.33-1.19,0.59-1.74c0.09-0.19,0.45-0.26,0.7-0.36c0.07-0.03,0.19,0.06,0.27,0.03
			c1.56-0.63,3.21-0.23,4.8-0.44C176.23,135.87,176.6,135.79,177,135.72z M171.89,153.38c1.02,0,2.04,0,3.05,0
			c0.61,0,0.81-0.3,0.7-0.88c-0.18-0.96-0.33-1.94-0.54-2.89c-0.24-1.06-0.53-2.11-0.81-3.17c-0.09,0-0.19-0.01-0.28-0.01
			C172.78,148.58,172.48,151.02,171.89,153.38z"/>
		<path fill="#FFFFFF" d="M107.44,133.15c0.12-0.04,0.45-0.21,0.52-0.14c0.17,0.19,0.32,0.48,0.32,0.74c0,2.37-0.01,4.73-0.06,7.1
			c-0.05,2.09-0.16,4.18-0.23,6.28c-0.04,1.24-0.04,2.49-0.12,3.73c-0.11,1.6-0.28,3.19-0.42,4.79c-0.24,2.9-0.52,5.8-0.71,8.7
			c-0.18,2.6-0.17,5.22-0.42,7.82c-0.26,2.74-1.21,5.31-2.13,7.89c-0.78,2.16-2.53,3.15-4.5,3.57c-1.59,0.34-3.34,0.27-4.85-0.75
			c-0.52-0.35-1.2-0.46-1.76-0.78c-0.38-0.22-0.73-0.55-0.97-0.92c-0.81-1.2-1.7-2.37-2.3-3.67c-0.57-1.24-0.73-2.66-1.2-3.95
			c-1.04-2.88-0.87-5.53-0.85-8.51c0.01-0.74,0.02-1.49-0.04-2.23c-0.19-2.48,0.39-4.92,0.26-7.4c-0.1-1.86-0.17-3.73-0.25-5.6
			c-0.06-1.39-0.16-2.78-0.14-4.17c0.02-1.24,0.18-2.48,0.27-3.71c0.08-1.07,0.13-2.14,0.25-3.21c0.12-1.07,0.3-2.13,0.45-3.19
			c0.05-0.35,0.1-0.71,0.14-1.06c0.1-0.97,0.16-1.94,0.31-2.9c0.13-0.79,0.58-1.18,1.42-1.12c1.09,0.07,2.17,0.27,3.16,0.4
			c0.08,0.69,0.03,1.23,0.22,1.66c0.51,1.17,0.28,2.37,0.22,3.55c-0.22,4.53-0.49,9.05-0.74,13.58c-0.11,2.03-0.27,4.07-0.33,6.1
			c-0.08,2.76-0.12,5.52-0.09,8.28c0.03,2.16,0.07,4.33,0.35,6.46c0.22,1.7,0.87,3.35,2.02,4.68c0.92,1.06,2.16,1.57,3.6,1.4
			c0.67-0.08,1.09-0.42,1.45-1.02c0.54-0.88,0.62-1.8,0.68-2.79c0.12-1.84,0.38-3.67,0.61-5.49c0.19-1.49,0.5-2.98,0.61-4.48
			c0.11-1.52,0.02-3.05,0.07-4.57c0.05-1.48,0.17-2.96,0.29-4.44c0.21-2.55,0.44-5.1,0.66-7.65c0.03-0.38-0.01-0.78,0.09-1.15
			c0.24-0.89-0.18-1.69-0.26-2.52c-0.1-1.12-0.01-2.25-0.02-3.38c0-1.51-0.02-3.01-0.03-4.52c0-0.1,0-0.19-0.02-0.29
			c-0.29-1.24,0-1.64,1.27-1.62c0.79,0.01,1.58,0.05,2.37,0.14C106.89,132.83,107.13,133.02,107.44,133.15z"/>
		<path fill="#FFFFFF" d="M206.52,139.39c-1.17,0.1-2.34,0.2-3.5,0.31c-0.54,0.05-0.65,0.43-0.59,0.87
			c0.18,1.35,0.43,2.69,0.57,4.04c0.17,1.72,0.25,3.44,0.35,5.16c0.2,3.61,0.39,7.22,0.57,10.83c0.08,1.6,0.15,3.21,0.2,4.82
			c0.08,2.81,0.11,5.63,0.21,8.45c0.03,0.93,0.22,1.85,0.33,2.78c0.07,0.51,0.21,1.03,0.18,1.54c-0.02,0.26-0.31,0.62-0.56,0.72
			c-1.71,0.67-3.49,1.01-5.33,1.02c-0.59,0-1.35-1.02-1.42-1.73c-0.23-2.32-0.51-4.64-0.76-6.96c-0.03-0.28-0.02-0.57-0.04-0.86
			c-0.15-2.27-0.3-4.53-0.46-6.8c-0.18-2.55-0.45-5.1-0.54-7.65c-0.1-2.99-0.02-5.98-0.05-8.97c-0.02-1.44-0.14-2.88-0.19-4.31
			c-0.02-0.48-0.25-0.61-0.7-0.55c-1.09,0.15-2.18,0.3-3.28,0.42c-0.66,0.07-1.33,0.13-2,0.13c-0.65-0.01-0.96-0.47-0.9-1.1
			c0.08-0.86,0.11-1.72,0.19-2.57c0.09-0.85,0.18-1.7,0.34-2.55c0.08-0.46,1.15-1.1,1.7-1.14c2-0.15,3.99-0.34,5.99-0.48
			c0.78-0.06,1.57-0.02,2.36-0.03c1.11-0.01,2.22-0.01,3.33-0.05c1.53-0.06,3.05-0.16,4.57-0.23c1.07-0.05,1.6,0.48,1.53,1.54
			c-0.05,0.74-0.13,1.48-0.3,2.2c-0.09,0.39-0.29,0.85-0.59,1.07c-0.3,0.22-0.79,0.17-1.2,0.24
			C206.53,139.48,206.53,139.43,206.52,139.39z"/>
	</g>
</g>
</svg>
