<?xml version="1.0" encoding="utf-8"?>
<!-- Generator: Adobe Illustrator 23.0.0, SVG Export Plug-In . SVG Version: 6.00 Build 0)  -->
<svg version="1.1" id="Layer_1" xmlns="http://www.w3.org/2000/svg" xmlns:xlink="http://www.w3.org/1999/xlink" x="0px" y="0px"
	 viewBox="0 0 300 300" enable-background="new 0 0 300 300" xml:space="preserve">
<rect fill="#FCFAE9" width="300" height="300"/>
<rect x="10" y="10" fill="#A4D0C9" width="280" height="280"/>
<g id="deakins">
	<circle fill="#E9AF85" cx="150" cy="150" r="127.5"/>
	<g id="cup">
		<path fill="#FFFFFF" d="M252.82,132.77c-0.05-0.93-0.36-1.84-0.51-2.76c-0.21-1.28-0.39-2.56-0.59-3.84
			c-0.06-0.37-0.09-0.77-0.25-1.1c-0.4-0.82-0.4-1.73-0.61-2.59c-0.3-1.18-0.31-2.42-0.8-3.57c-0.46-1.1-0.73-2.28-1.17-3.39
			c-0.5-1.26-1.06-2.5-1.64-3.73c-0.5-1.04-1.02-2.06-1.71-3c-0.75-1.02-1.38-2.13-2.38-2.95c-0.22-0.18-0.45-0.34-0.64-0.54
			c-0.55-0.59-1.14-1.1-1.83-1.54c-1.16-0.73-2.3-1.46-3.7-1.65c-1.49-0.21-2.95-0.65-4.47-0.66c-1.58-0.01-3.16,0.01-4.74,0.05
			c-0.56,0.01-1.13,0.09-1.68,0.19c-0.76,0.14-1.51,0.39-2.27,0.49c-1.78,0.24-3.35,1.07-4.96,1.75c-1.25,0.53-2.43,1.23-3.57,1.96
			c-0.38,0.24-0.75,0.49-1.11,0.74c-0.34,0.23-0.67,0.48-1.09,0.78c0-0.3-0.03-0.53,0.01-0.74c0.1-0.65,0.23-1.3,0.35-1.95
			c0.2-1.09,0.39-2.18,0.61-3.26c0.26-1.31,0.58-2.62,0.81-3.94c0.46-2.55,0.88-5.1,1.31-7.65c0.1-0.58,0.17-1.16,0.28-1.74
			c0.17-0.9,0.37-1.8,0.55-2.7c0.31-1.57,0.62-3.13,0.94-4.7c0.02-0.09,0.05-0.18,0.09-0.27c0.07-0.19,0.14-0.37,0.2-0.56
			c-0.19-1.04-0.64-1.85-1.32-2.67c-0.12-0.06-0.23-0.14-0.35-0.24c-0.37-0.32-0.76-0.67-1.2-0.85c-1.68-0.67-3.37-1.33-5.09-1.9
			c-0.89-0.3-1.79-0.57-2.64-0.98c-0.25-0.12-0.53-0.19-0.81-0.25c-0.82-0.19-1.65-0.4-2.48-0.55c-0.99-0.18-2-0.3-2.99-0.44
			c-0.23-0.03-0.47-0.06-0.69-0.13c-1.38-0.38-2.75-0.78-4.13-1.14c-1.07-0.27-2.16-0.45-3.23-0.72c-1.8-0.45-3.58-0.97-5.39-1.39
			c-1.67-0.39-3.35-0.75-5.05-1.02c-2.69-0.44-5.39-0.82-8.09-1.17c-1.18-0.16-2.39-0.19-3.58-0.28c-0.33-0.02-0.65-0.09-0.98-0.08
			c-1.01,0.02-2.02,0.13-3.02,0.08c-0.98-0.05-1.95-0.28-2.93-0.4c-1.35-0.16-2.71-0.29-4.07-0.43c-0.23-0.02-0.5,0.04-0.7-0.05
			c-0.1-0.05-0.21-0.08-0.31-0.1c-0.16-0.01-0.33-0.01-0.49-0.01c-0.15,0.01-0.29,0.04-0.44,0.07c-0.41,0.1-0.78,0.08-1.18-0.01
			c-0.38-0.09-0.74-0.22-1.17-0.07c-0.31,0.11-0.68,0.02-1.13,0.02c0.03-0.05,0.06-0.09,0.09-0.13c-0.07,0.01-0.14,0.01-0.2,0.02
			c-0.19,0.02-0.34-0.01-0.47-0.08c-0.04-0.01-0.08-0.01-0.11-0.02c-0.86-0.09-1.7-0.19-2.54-0.25c-0.42-0.03-0.85,0.04-1.27,0.05
			c-0.61,0.01-1.22,0-1.83,0.03c-0.1,0.04-0.21,0.07-0.35,0.07c-1.81,0-3.63,0.05-5.44,0.1c-0.14,0.02-0.28,0.04-0.42,0.07
			c-0.13,0.03-0.28-0.03-0.42-0.03c-0.08,0-0.16,0-0.24-0.01c-1.88,0.07-3.77,0.14-5.65,0.2c-0.33,0.08-0.66,0.14-0.98,0.13
			c-0.6-0.03-1.16,0.08-1.75,0.1c-0.49,0.02-1,0.01-1.46,0.15c-0.57,0.17-1.14,0.21-1.71,0.17c-0.02,0-0.04,0.01-0.07,0.02
			c-2.01,0.26-4.04,0.34-6.06,0.48c-0.34,0.05-0.67,0.1-1.01,0.11h0c-0.13,0.13-0.31,0.23-0.53,0.25c-1.02,0.11-2.03,0.15-3.05,0.18
			c-0.24,0.05-0.47,0.09-0.71,0.15c-0.13,0.14-0.32,0.23-0.57,0.23c-1.95,0-3.85,0.42-5.79,0.49c-1.76,0.07-3.52,0.12-5.28,0.19
			c-0.12,0.09-0.26,0.15-0.44,0.16c-0.36,0.03-0.73,0.07-1.09,0.12c-0.07,0.03-0.15,0.04-0.23,0.03c-0.69,0.1-1.37,0.21-2.06,0.3
			c-0.73,0.09-1.45,0.12-2.16,0.24c-0.04,0.03-0.09,0.05-0.13,0.06c-0.15,0.02-0.3,0.04-0.45,0.06c-0.24,0.06-0.47,0.12-0.7,0.21
			c-0.26,0.1-0.48,0.06-0.65-0.05c-0.32,0.04-0.64,0.09-0.95,0.17c-0.2,0.05-0.37,0.07-0.53,0.06c-0.3,0.09-0.61,0.18-0.91,0.27
			c-0.08,0.09-0.25,0.12-0.57,0.2c-0.06,0.01-0.12,0.03-0.19,0.04c-0.55,0.18-1.1,0.35-1.65,0.51c-0.01,0-0.02,0.01-0.03,0.01
			c-0.57,0.29-1.25,0.45-1.9,0.49c-0.03,0-0.06,0.01-0.09,0.01c-0.44,0.18-0.88,0.34-1.32,0.49c-0.9,0.61-1.98,0.71-2.99,0.99
			c-0.4,0.11-0.8,0.19-1.19,0.36c-1.03,0.44-2,1.08-3.2,1.01c-0.11-0.01-0.24,0.04-0.33,0.1c-0.04,0.03-0.08,0.05-0.12,0.08
			c-0.02,0.03-0.03,0.06-0.05,0.09c-0.43,0.57-0.9,1.15-1.07,1.86c0.02,0.07,0.03,0.15,0.04,0.23c0.04,2.89,0.5,5.72,0.8,8.59
			c0.25,2.43,0.19,4.94,0.85,7.3c0.1,0.35-0.02,0.63-0.23,0.81c0.04,0.06,0.07,0.11,0.07,0.17c0.05,0.54,0.14,1.09,0.04,1.61
			c-0.16,0.84,0.22,1.58,0.35,2.36c0.08,0.52,0.24,0.97-0.04,1.41c0.78,1.27,0.5,2.61,0.57,3.92c0.1,0.26,0.23,0.52,0.28,0.8
			c0.11,0.6,0.18,1.21,0.26,1.81c0.04,0.3,0.1,0.6,0.13,0.91c0.1,1,0.14,2.02,0.3,3.01c0.21,1.28,0.4,2.55,0.37,3.85
			c0,0.12-0.02,0.26,0.03,0.35c0.37,0.64,0.25,1.38,0.39,2.06c0.11,0.55,0.2,1.1,0.26,1.66c0.04,0.39,0.01,0.8,0.05,1.19
			c0.14,1.23,0.35,2.46,0.55,3.69c0.28,1.74,0.39,3.5,0.58,5.26c0.12,1.07,0.15,2.17,0.4,3.21c0.26,1.09,0.31,2.18,0.34,3.28
			c0,0.12,0.02,0.23,0.04,0.35c0.18,1.42,0.37,2.84,0.54,4.27c0.15,1.26,0.29,2.53,0.43,3.79c0.13,1.14,0.3,2.28,0.33,3.44
			c0.04,1.52,0.27,3.04,0.42,4.56c0.03,0.3,0.05,0.61,0.13,0.91c0.29,1.08,0.32,2.18,0.4,3.28c0.03,0.4,0.04,0.8,0.08,1.2
			c0.12,1.21,0.25,2.43,0.39,3.64c0.1,0.84,0.23,1.67,0.34,2.51c0.02,0.12,0,0.23,0.01,0.35c0.09,1.14,0.05,2.32,0.3,3.42
			c0.32,1.43,0.31,2.88,0.51,4.32c0.11,0.79,0.09,1.59,0.17,2.38c0.2,2.08,0.49,4.16,0.63,6.24c0.16,2.4,0.51,4.78,0.83,7.16
			c0.15,1.1,0.31,2.2,0.35,3.3c0.04,1.26,0.37,2.5,0.29,3.78c-0.04,0.69,0.15,1.4,0.25,2.09c0.14,0.9,0.35,1.78,0.05,2.69
			c-0.04,0.13,0.05,0.32,0.08,0.47c0.06,0.23,0.15,0.45,0.18,0.67c0.16,1.19,0.38,2.37,0.31,3.58c-0.01,0.18-0.02,0.42,0.08,0.55
			c0.3,0.4,0.23,0.85,0.27,1.29c0.02,0.26,0.05,0.51,0.07,0.77c0.1,1.07,0.2,2.14,0.29,3.21c0.03,0.37,0.01,0.75,0.04,1.12
			c0.09,0.94,0.2,1.87,0.29,2.81c0.04,0.46,0.04,0.93,0.1,1.39c0.1,0.8,0.25,1.6,0.33,2.41c0.11,1.14,0.16,2.28,0.26,3.42
			c0.08,0.82,0.22,1.63,0.3,2.44c0.15,1.43,0.28,2.85,0.41,4.28c0.15,1.69,0.28,3.38,0.43,5.06c0.1,1.15,0.19,2.3,0.33,3.44
			c0.1,0.8,0.2,1.58,0.04,2.39c-0.05,0.24,0.07,0.5,0.1,0.76c0.02,0.15,0.07,0.39,0,0.45c-0.35,0.29-0.28,0.54-0.03,0.84
			c0.08,0.1,0.11,0.25,0.13,0.38c0.07,0.58,0.07,1.18,0.2,1.75c0.21,0.87,0.54,1.68,1.38,2.21c0.51,0.32,0.92,0.79,1.38,1.19
			c0.09,0.08,0.18,0.16,0.28,0.2c1.37,0.5,2.53,1.44,3.97,1.79c0.61,0.15,1.17,0.51,1.77,0.69c1.1,0.33,2.23,0.57,3.33,0.89
			c1.83,0.55,3.72,0.81,5.6,1.12c1.23,0.2,2.47,0.35,3.71,0.52c0.95,0.13,1.91,0.3,2.87,0.36c1.62,0.12,3.24,0.18,4.86,0.24
			c1.29,0.05,2.58,0.12,3.87,0.08c1.24-0.04,2.48-0.03,3.72,0.03c0.82,0.04,1.65,0.1,2.47,0.12c0.91,0.02,1.83-0.02,2.74,0
			c1.6,0.04,3.2,0.09,4.8,0.15c0.21,0.01,0.42,0.05,0.62,0.08c0.23,0.03,0.45,0.09,0.68,0.1c0.42,0.02,0.89-0.1,1.25,0.06
			c0.45,0.2,0.87,0.14,1.3,0.12c1.5-0.05,3-0.11,4.5-0.16c0.73-0.02,1.46-0.01,2.18-0.04c1.36-0.05,2.73-0.08,4.09-0.17
			c1.46-0.1,2.91-0.26,4.36-0.38c1.45-0.12,2.9-0.22,4.34-0.31c0.28-0.02,0.56,0.08,0.84,0.06c1.17-0.11,2.33-0.22,3.49-0.38
			c0.88-0.12,1.76-0.28,2.64-0.44c0.62-0.12,1.24-0.28,1.85-0.43c0.18-0.04,0.37-0.09,0.54-0.15c1.58-0.54,3.16-1.08,4.74-1.61
			c1.38-0.47,2.76-0.93,4.14-1.39c1.01-0.34,1.91-0.97,2.97-1.2c0.13-0.03,0.25-0.2,0.33-0.33c0.38-0.6,0.59-1.26,0.68-1.97
			c0.23-1.75,0.47-3.5,0.94-5.2c0.02-0.09,0.03-0.19,0.04-0.28c0.15-0.95,0.3-1.9,0.45-2.85c0.14-0.86,0.3-1.71,0.41-2.57
			c0.09-0.67,0.08-1.36,0.17-2.03c0.15-1.07,0.35-2.13,0.52-3.2c0.09-0.56,0.12-1.13,0.48-1.6c0-0.01,0-0.03,0-0.04
			c-0.07-0.34-0.05-0.72-0.02-1.08c-0.09-0.14-0.09-0.29-0.06-0.47c0.04-0.23,0.07-0.46,0.12-0.69c0.12-0.6,0.28-1.19,0.37-1.8
			c0.11-0.74,0.14-1.5,0.26-2.24c0.22-1.46,0.49-2.92,0.72-4.39c0.12-0.76,0.17-0.83,0.96-0.96c1.02-0.17,2.04-0.34,3.05-0.53
			c0.39-0.07,0.77-0.2,1.15-0.3c0.66-0.17,1.33-0.32,1.99-0.49c0.73-0.19,1.45-0.39,2.18-0.58c1.68-0.43,3.4-0.73,5.01-1.45
			c0.51-0.23,1.05-0.41,1.59-0.59c1.47-0.49,2.97-0.9,4.42-1.46c1.16-0.45,2.26-1.05,3.37-1.61c1.45-0.73,2.92-1.42,4.13-2.54
			c0.57-0.52,1.16-1.02,1.71-1.57c0.58-0.58,1.1-1.22,1.66-1.82c0.56-0.6,1.13-1.2,1.69-1.8c0.1-0.1,0.17-0.23,0.26-0.34
			c0.21-0.25,0.42-0.5,0.64-0.74c0.16-0.17,0.35-0.32,0.5-0.49c0.66-0.76,1.31-1.53,1.97-2.3c0.56-0.66,1.14-1.29,1.55-2.06
			c0.11-0.21,0.25-0.4,0.38-0.59c0.43-0.64,0.94-1.21,1.46-1.78c0.7-0.76,1.34-1.56,1.98-2.38c0.55-0.7,1.1-1.41,1.56-2.17
			c0.26-0.42,0.5-0.83,0.84-1.19c1.06-1.14,1.68-2.56,2.18-4c0.49-1.4,1.17-2.72,1.65-4.11c0.54-1.55,1.19-3.06,1.79-4.59
			c0.12-0.31,0.12-0.69,0.31-0.93c0.55-0.68,0.75-1.51,1.11-2.28c0.29-0.61,0.48-1.27,0.7-1.92c0.24-0.71,0.47-1.43,0.71-2.14
			c0.22-0.64,0.44-1.28,0.67-1.92c0.06-0.18,0.15-0.34,0.22-0.52c0.22-0.57,0.57-1.13,0.63-1.71c0.13-1.17,0.41-2.3,0.65-3.44
			c0.35-1.68,0.67-3.37,0.95-5.06c0.21-1.29,0.33-2.6,0.51-3.9c0.14-1.03,0.34-2.04,0.47-3.07c0.13-1.02,0.22-2.05,0.28-3.09
			c0.07-1.22,0.1-2.44,0.13-3.67C252.79,135.5,252.89,134.13,252.82,132.77z M83.8,76.3c0.39-0.34,0.74-0.74,1.18-1
			c0.75-0.44,1.54-0.81,2.33-1.17c0.69-0.3,1.42-0.51,2.1-0.81c1.56-0.68,3.23-1.04,4.84-1.54c2.03-0.64,4.11-1.01,6.2-1.35
			c1.16-0.19,2.29-0.49,3.45-0.71c0.65-0.13,1.3-0.22,1.95-0.31c1.07-0.13,2.15-0.28,3.23-0.36c1.05-0.08,2.11-0.1,3.17-0.15
			c0.31-0.01,0.63,0.04,0.92-0.04c1.9-0.46,3.88-0.35,5.8-0.72c1.59-0.31,3.23-0.32,4.85-0.48c0.84-0.08,1.69-0.18,2.53-0.26
			c0.77-0.07,1.54-0.12,2.32-0.19c1.05-0.09,2.11-0.19,3.16-0.26c0.72-0.04,1.45-0.01,2.17-0.04c0.49-0.02,1-0.03,1.47-0.16
			c1.32-0.36,2.66-0.28,3.99-0.34c1.1-0.05,2.21-0.02,3.31-0.04c0.82-0.01,1.65-0.04,2.47-0.05c0.21,0,0.42,0.06,0.63,0.08
			c0.37,0.03,0.75,0.08,1.12,0.07c1.48-0.06,2.96-0.19,4.43-0.19c1.1,0,2.2,0.16,3.31,0.23c1.21,0.07,2.43,0.09,3.65,0.16
			c2.22,0.14,4.45,0.19,6.64,0.47c2.14,0.28,4.27,0.29,6.41,0.39c1.92,0.09,3.85,0.34,5.76,0.57c1.02,0.13,2.03,0.41,3.05,0.57
			c1.18,0.19,2.38,0.32,3.57,0.49c0.39,0.06,0.78,0.16,1.17,0.24c1.59,0.34,3.18,0.66,4.75,1.04c2.15,0.52,4.29,1.09,6.43,1.64
			c0.23,0.06,0.46,0.09,0.69,0.15c0.61,0.14,1.24,0.24,1.84,0.44c1.28,0.44,2.59,0.72,3.92,0.87c2.22,0.26,4.34,0.85,6.39,1.72
			c0.6,0.26,1.24,0.46,1.87,0.63c1.4,0.37,2.69,1,4,1.58c0.35,0.16,0.65,0.43,1.05,0.7c-0.55,0.7-1.01,1.26-1.82,1.36
			c-0.11,0.01-0.26,0.07-0.3,0.15c-0.22,0.48-0.64,0.49-1.07,0.54c-1.19,0.15-2.37,0.39-3.57,0.44c-1.44,0.06-2.85,0.34-4.27,0.5
			c-0.44,0.05-0.9,0.02-1.34,0.06c-1.9,0.15-3.8,0.31-5.69,0.46c-0.47,0.04-0.94,0.01-1.41,0.06c-2.13,0.23-4.25,0.51-6.39,0.71
			c-1.12,0.1-2.26,0.07-3.39,0.11c-1.48,0.05-2.96,0.11-4.45,0.15c-1.46,0.03-2.92,0.01-4.38,0.06c-1.22,0.04-2.44,0.16-3.66,0.23
			c-0.78,0.05-1.55,0.07-2.33,0.1c-1.24,0.04-2.49,0.07-3.73,0.12c-1.13,0.05-2.25,0.13-3.38,0.18c-1.32,0.05-2.63,0.07-3.95,0.1
			c-0.19,0-0.38,0.01-0.56,0.02c-1.64,0.06-3.28,0.12-4.92,0.17c-0.71,0.02-1.41,0.03-2.12,0.04c-1.17,0.01-2.34,0-3.5,0.02
			c-1.58,0.03-3.15,0.08-4.73,0.11c-0.47,0.01-0.94-0.01-1.41-0.03c-1.15-0.04-2.3-0.08-3.46-0.12c-0.12,0-0.24-0.01-0.35,0
			c-1.56,0.13-3.1-0.04-4.65-0.11c-1.62-0.08-3.25-0.11-4.87-0.17c-0.35-0.01-0.7-0.08-1.05-0.11c-1.13-0.09-2.26-0.14-3.38-0.27
			c-1.05-0.12-2.08-0.35-3.13-0.48c-0.72-0.09-1.45-0.11-2.18-0.12c-1.55-0.02-3.08-0.25-4.62-0.47c-0.72-0.1-1.45-0.14-2.17-0.23
			c-1.07-0.14-2.13-0.3-3.2-0.45c-0.16-0.02-0.33-0.05-0.49-0.06c-1.27-0.08-2.53-0.16-3.8-0.23c-1.55-0.08-3.07-0.41-4.64-0.44
			c-1.13-0.02-2.26-0.3-3.39-0.43c-0.93-0.11-1.88-0.16-2.81-0.23c-0.19-0.01-0.38,0-0.56-0.03c-0.94-0.2-1.87-0.41-2.81-0.61
			c-0.22-0.05-0.45-0.06-0.68-0.09c-0.09-0.01-0.2,0.02-0.28-0.02c-0.9-0.37-1.88-0.36-2.8-0.58c-0.41-0.1-0.83-0.17-1.25-0.22
			c-0.45-0.06-0.85-0.18-1.21-0.51c-0.22-0.21-0.6-0.24-0.89-0.38c-0.36-0.17-0.71-0.35-1.04-0.56
			C83.57,76.77,83.55,76.52,83.8,76.3z M96.23,196.09c-0.09-0.39-0.15-0.78-0.19-1.18c-0.16-1.42-0.31-2.84-0.47-4.27
			c-0.02-0.19-0.03-0.37-0.05-0.56c-0.08-0.7-0.17-1.4-0.25-2.09c-0.03-0.26-0.08-0.51-0.08-0.77c-0.01-0.99-0.16-1.96-0.3-2.94
			c-0.14-0.97-0.15-1.97-0.25-2.95c-0.06-0.62-0.2-1.23-0.27-1.85c-0.1-0.79-0.18-1.58-0.24-2.36c-0.09-1.02-0.16-2.05-0.24-3.07
			c-0.05-0.7-0.1-1.4-0.15-2.11c-0.03-0.44,0.05-0.9-0.21-1.31c-0.07-0.1-0.04-0.27-0.04-0.41c0.02-1.03-0.04-2.05-0.42-3.03
			c-0.03-0.08-0.06-0.19-0.04-0.27c0.22-0.69-0.04-1.34-0.12-2.01c-0.08-0.67-0.19-1.34-0.18-2.02c0.01-0.86-0.19-1.68-0.3-2.51
			c-0.14-1.05-0.24-2.1-0.35-3.16c-0.13-1.3-0.26-2.61-0.39-3.91c-0.04-0.44-0.08-0.89-0.14-1.33c-0.12-1.01-0.24-2.01-0.35-3.02
			c-0.09-0.79-0.17-1.59-0.26-2.39c-0.16-1.52-0.32-3.04-0.49-4.56c-0.2-1.8-0.42-3.6-0.64-5.4c-0.15-1.24-0.3-2.48-0.44-3.72
			c-0.38-3.3-0.75-6.6-1.14-9.9c-0.29-2.45-0.61-4.9-0.91-7.35c-0.23-1.92-0.44-3.84-0.66-5.75c-0.21-1.87-0.42-3.74-0.65-5.61
			c-0.23-1.87-0.52-3.73-0.73-5.6c-0.15-1.38-0.21-2.77-0.33-4.15c-0.05-0.56-0.21-1.11-0.27-1.67c-0.2-2.2-0.38-4.41-0.57-6.61
			c-0.05-0.54-0.13-1.07-0.18-1.61c-0.16-1.73-0.31-3.47-0.46-5.21c-0.01-0.08,0.05-0.17,0.09-0.31c0.17,0.02,0.34,0,0.48,0.06
			c1.97,0.77,4.07,0.98,6.12,1.41c0.68,0.14,1.4,0.09,2.05,0.46c0.21,0.12,0.55-0.02,0.82,0.04c1.71,0.38,3.45,0.46,5.19,0.56
			c1.22,0.07,2.44,0.24,3.66,0.35c1.45,0.13,2.9,0.22,4.35,0.36c2.01,0.2,4.02,0.43,6.03,0.65c0.49,0.05,0.98,0.12,1.47,0.18
			c1.33,0.17,2.65,0.38,3.99,0.5c1.19,0.11,2.4,0.11,3.59,0.21c0.75,0.06,1.49,0.2,2.24,0.29c0.75,0.09,1.5,0.17,2.24,0.23
			c2.08,0.16,4.17,0.33,6.25,0.45c2.37,0.13,4.73,0.21,7.1,0.28c0.84,0.03,1.69-0.07,2.54-0.05c1.88,0.03,3.77,0.11,5.65,0.13
			c1.18,0.01,2.35-0.09,3.53-0.11c2-0.03,4.01,0,6.01-0.05c3.51-0.09,7.02-0.21,10.52-0.33c1.55-0.05,3.1-0.15,4.66-0.21
			c1.46-0.06,2.92,0,4.36-0.18c2.24-0.28,4.47-0.04,6.71-0.15c0.96-0.04,1.92-0.14,2.88-0.17c1.22-0.04,2.45-0.02,3.67-0.04
			c0.21,0,0.42-0.04,0.63-0.07c1.28-0.18,2.56-0.39,3.85-0.54c0.82-0.1,1.64-0.09,2.47-0.15c2.27-0.19,4.55-0.4,6.82-0.59
			c1.08-0.09,2.18-0.08,3.23-0.28c1.4-0.26,2.81-0.25,4.21-0.39c0.23-0.02,0.45-0.12,0.68-0.17c1.6-0.35,3.28-0.34,4.88-1.28
			c0.01,0.48,0.07,0.82,0.02,1.15c-0.22,1.39-0.49,2.78-0.71,4.18c-0.22,1.37-0.4,2.75-0.64,4.12c-0.29,1.62-0.64,3.23-0.94,4.85
			c-0.28,1.5-0.52,3.01-0.77,4.51c-0.23,1.35-0.47,2.69-0.69,4.04c-0.28,1.67-0.55,3.35-0.84,5.01c-0.12,0.67-0.32,1.32-0.43,1.99
			c-0.2,1.23-0.35,2.47-0.55,3.7c-0.11,0.67-0.32,1.32-0.44,1.99c-0.2,1.09-0.41,2.17-0.53,3.27c-0.12,1.05-0.32,2.09-0.58,3.11
			c-0.17,0.68-0.24,1.39-0.35,2.08c-0.16,0.95-0.29,1.91-0.47,2.85c-0.26,1.38-0.57,2.75-0.82,4.13c-0.1,0.55-0.08,1.12-0.18,1.67
			c-0.19,1.06-0.43,2.12-0.65,3.18c-0.03,0.16-0.09,0.32-0.1,0.48c-0.11,1.74-0.55,3.43-0.86,5.14c-0.36,1.97-0.61,3.95-0.9,5.93
			c-0.36,2.42-0.72,4.84-1.09,7.26c-0.14,0.88-0.33,1.76-0.49,2.64c-0.04,0.23-0.05,0.47-0.07,0.7c-0.05,0.52-0.07,1.04-0.15,1.55
			c-0.23,1.39-0.47,2.79-0.72,4.18c-0.26,1.45-0.54,2.91-0.79,4.36c-0.11,0.67-0.14,1.36-0.25,2.03c-0.14,0.9-0.32,1.8-0.49,2.7
			c-0.12,0.62-0.26,1.24-0.36,1.87c-0.27,1.7-0.51,3.4-0.77,5.09c-0.33,2.12-0.67,4.23-1.01,6.34c-0.06,0.35-0.17,0.68-0.22,1.03
			c-0.44,2.69-0.86,5.38-1.33,8.07c-0.16,0.91-0.26,1.81-0.32,2.72c-0.05,0.64-0.29,1.17-0.9,1.49c-0.89,0.48-1.77,0.98-2.65,1.48
			c-0.47,0.27-0.91,0.58-1.4,0.81c-0.83,0.38-1.71,0.67-2.53,1.08c-1.27,0.64-2.71,0.8-3.98,1.39c-1.27,0.6-2.62,0.91-3.95,1.31
			c-1.1,0.33-2.25,0.5-3.37,0.74c-0.76,0.16-1.51,0.34-2.28,0.49c-2.01,0.38-4.02,0.75-6.03,1.1c-0.51,0.09-1.04,0.02-1.55,0.1
			c-0.69,0.11-1.37,0.32-2.07,0.44c-1.32,0.22-2.65,0.43-3.98,0.59c-0.88,0.11-1.78,0.12-2.67,0.18c-0.45,0.03-0.89,0.06-1.34,0.09
			c-1.15,0.1-2.29,0.23-3.44,0.29c-1.05,0.05-2.11,0.02-3.17,0.04c-1.6,0.02-3.21-0.06-4.81,0.09c-1.05,0.1-2.06-0.09-3.08-0.13
			c-0.44-0.01-0.86-0.13-1.32,0.02c-0.25,0.09-0.59-0.14-0.88-0.13c-1.3,0.02-2.58-0.19-3.86-0.36c-1.35-0.17-2.71-0.26-4.07-0.4
			c-0.51-0.06-1.02-0.18-1.53-0.28c-1.55-0.29-3.11-0.47-4.68-0.57c-1.16-0.08-2.3-0.38-3.45-0.59c-0.74-0.13-1.47-0.28-2.2-0.43
			c-0.41-0.08-0.82-0.17-1.23-0.29c-0.63-0.19-1.24-0.41-1.87-0.6c-1.23-0.36-2.4-0.89-3.66-1.2c-1.71-0.41-3.39-0.94-5.05-1.55
			c-0.77-0.28-1.55-0.53-2.3-0.87c-0.51-0.23-1-0.51-1.51-0.75c-1.02-0.48-2.04-0.95-3.07-1.41c-1.76-0.79-3.48-1.65-5.05-2.8
			c-0.23-0.17-0.47-0.32-0.68-0.5c-0.15-0.13-0.33-0.29-0.39-0.47c-0.07-0.24-0.18-0.33-0.42-0.4
			C96.39,196.41,96.26,196.22,96.23,196.09z M207.05,141.41c-0.04-0.17-0.01-0.37,0.02-0.55c0.36-2.23,0.72-4.46,1.09-6.69
			c0.08-0.46,0.21-0.92,0.29-1.38c0.23-1.2,0.47-2.39,0.68-3.59c0.25-1.43,0.45-2.87,0.7-4.29c0.25-1.41,0.56-2.81,0.81-4.22
			c0.16-0.88,0.27-1.76,0.41-2.64c0.02-0.12,0-0.26,0.06-0.34c0.41-0.58,0.32-1.25,0.42-1.89c0.06-0.35,0.27-0.71,0.49-0.99
			c0.73-0.89,1.47-1.78,2.26-2.61c1.01-1.07,2.29-1.79,3.6-2.44c0.9-0.45,1.78-0.99,2.72-1.33c2.54-0.91,5.16-1.47,7.88-1.49
			c1.34-0.01,2.63,0.26,3.86,0.74c1.38,0.54,2.75,1.11,4.09,1.74c0.72,0.34,1.34,0.83,1.92,1.41c1.12,1.11,2.01,2.36,2.6,3.82
			c0.34,0.85,0.71,1.68,1.07,2.53c0.02,0.04,0.06,0.08,0.07,0.12c0.29,1.11,0.62,2.21,0.85,3.34c0.43,2.1,0.8,4.21,1.18,6.31
			c0.24,1.32,0.43,2.65,0.67,3.97c0.1,0.58,0.3,1.14,0.39,1.72c0.11,0.72,0.14,1.44,0.22,2.17c0.07,0.7,0.16,1.4,0.23,2.11
			c0.06,0.68,0.12,1.36,0.15,2.04c0.06,1.25,0.09,2.49,0.14,3.74c0,0.12,0.01,0.24,0,0.35c-0.15,1.49-0.27,2.99-0.47,4.48
			c-0.09,0.72-0.34,1.42-0.48,2.13c-0.22,1.11-0.49,2.21-0.58,3.33c-0.07,1-0.31,1.95-0.58,2.89c-0.23,0.8-0.69,1.53-1.04,2.29
			c-0.13,0.28-0.24,0.56-0.35,0.84c-0.71,1.94-1.52,3.86-2.08,5.84c-0.49,1.72-1.1,3.4-1.69,5.08c-0.32,0.93-0.83,1.79-1.26,2.68
			c-0.24,0.51-0.46,1.02-0.73,1.51c-0.35,0.64-0.73,1.25-1.09,1.88c-0.19,0.32-0.33,0.68-0.53,0.99c-0.78,1.14-1.59,2.26-2.36,3.41
			c-0.46,0.68-0.88,1.38-1.32,2.08c-0.9,1.43-1.84,2.84-2.67,4.31c-0.67,1.18-1.64,2.12-2.4,3.21c-0.24,0.34-0.61,0.59-0.9,0.89
			c-1.16,1.2-2.29,2.43-3.47,3.6c-0.89,0.87-1.86,1.66-2.79,2.5c-1.07,0.96-2.34,1.66-3.49,2.51c-0.68,0.5-1.35,1.02-2.08,1.44
			c-1.1,0.63-2.26,1.17-3.39,1.75c-0.46,0.24-0.91,0.5-1.37,0.74c-1.97,1.01-4.04,1.8-6.16,2.44c-0.72,0.22-1.47,0.31-2.21,0.5
			c-0.94,0.23-1.86,0.5-2.8,0.73c-0.26,0.06-0.54,0.06-0.99,0.1c0.16-0.98,0.29-1.79,0.42-2.6c0.04-0.23,0.1-0.46,0.13-0.69
			c0.22-1.39,0.44-2.78,0.66-4.17c0.16-1.05,0.32-2.09,0.49-3.14c0.19-1.18,0.4-2.37,0.59-3.55c0.43-2.7,0.84-5.4,1.27-8.1
			c0.24-1.49,0.5-2.97,0.73-4.46c0.17-1.05,0.3-2.1,0.48-3.15c0.47-2.81,0.95-5.62,1.41-8.43c0.35-2.09,0.68-4.18,1.01-6.27
			c0.31-1.93,0.59-3.86,0.9-5.79c0.13-0.79,0.33-1.57,0.46-2.36c0.24-1.51,0.41-3.03,0.67-4.54c0.31-1.81,0.68-3.61,1.01-5.42
			C207.08,143.51,207.32,142.47,207.05,141.41z M139.65,223.78c-0.25-1.46-0.51-2.92-0.76-4.38c-0.07-0.42,0.02-0.59,0.46-0.6
			c0.73-0.01,1.45,0.06,2.18,0.1c1.43,0.07,2.85,0.29,4.3,0.23c1.15-0.04,2.32-0.02,3.45,0.18c0.84,0.15,1.62,0.03,2.44-0.02
			c1.13-0.07,2.26-0.17,3.38-0.15c1.55,0.03,3.09-0.06,4.63-0.15c0.54-0.03,0.6,0.02,0.71,0.53c0.25,1.1,0.52,2.2,0.75,3.3
			c0.23,1.1,0.21,1.1-0.68,1.8c0.58,0.07,1.11,0.15,1.64,0.21c0.44,0.05,0.72-0.19,0.59-0.62c-0.28-0.99-0.21-2.05-0.61-3.03
			c-0.26-0.63-0.24-1.38-0.36-2.12c0.43-0.09,0.78-0.2,1.15-0.24c0.89-0.11,1.78-0.18,2.67-0.28c1.87-0.22,3.75-0.38,5.6-0.72
			c1.21-0.23,2.4-0.46,3.63-0.43c0.12,0,0.23-0.02,0.35-0.05c1.58-0.36,3.15-0.77,4.74-1.07c1.6-0.3,3.15-0.78,4.66-1.36
			c0.3-0.11,0.62-0.17,0.93-0.24c0.15,0.33,0.55,4.15,0.51,4.8c-0.77,0.3-1.59,0.58-2.38,0.93c-1.34,0.6-2.81,0.74-4.2,1.19
			c-1.36,0.45-2.75,0.83-4.12,1.24c-1.28,0.38-2.55,0.85-3.85,1.13c-1.6,0.35-3.24,0.55-4.87,0.81c-0.3,0.05-0.61,0.07-0.91,0.13
			c-1.72,0.34-3.47,0.25-5.2,0.39c-1.05,0.08-2.11,0-3.17,0.02c-0.52,0.01-1.03,0.1-1.55,0.11c-1.3,0.02-2.59,0.02-3.89,0.03
			c-1.76,0-3.52,0.03-5.28-0.02c-1.55-0.04-3.09-0.13-4.63-0.36c-0.6-0.09-1.22-0.06-1.83-0.12c-0.55-0.06-0.58-0.14-0.5-0.69
			C139.66,224.1,139.67,223.94,139.65,223.78z M139.75,237.6c-0.09-0.7-0.21-1.4-0.34-2.09c-0.11-0.55-0.26-1.08-0.39-1.61
			c-0.95,0.1-1.19,0.36-1.09,1.14c0.14,1.09,0.19,2.22,0.5,3.26c0.21,0.7,0.31,1.44,0.62,2.15c-1.05,0.1-2.11,0.03-3.15-0.13
			c-2.14-0.34-4.27-0.74-6.4-1.08c-1.67-0.27-3.35-0.48-5.03-0.73c-1.02-0.15-2.04-0.31-3.06-0.46c-1.2-0.18-2.41-0.35-3.65-0.53
			c-0.12-0.51-0.3-1-0.34-1.51c-0.14-1.71-0.23-3.43-0.34-5.14c-0.01-0.09,0-0.19,0.01-0.28c0.05-0.4,0.2-0.54,0.56-0.37
			c0.91,0.42,1.91,0.28,2.83,0.56c0.34,0.1,0.68,0.19,1.02,0.26c1.06,0.2,2.13,0.37,3.19,0.57c0.99,0.19,1.96,0.42,2.95,0.6
			c0.6,0.11,1.22,0.12,1.82,0.2c0.76,0.1,1.54,0.16,2.28,0.37c1.25,0.35,2.51,0.55,3.81,0.56c0.4,0,0.79,0.06,1.19,0.1
			c1.38,0.12,2.75,0.25,4.13,0.34c2.09,0.13,4.18,0.26,6.27,0.34c1.36,0.05,2.72,0.11,4.07-0.14c0.43-0.08,0.89,0.03,1.34,0.01
			c1.25-0.05,2.5-0.07,3.74-0.18c1.24-0.12,2.46-0.34,3.7-0.51c0.23-0.03,0.46-0.06,0.78-0.1c0.16,0.72,0.46,1.4,0.44,2.08
			c-0.05,1.41,0.14,2.76,0.44,4.12c0.05,0.25,0.05,0.5,0.08,0.85c-0.76,0.07-1.45,0.14-2.15,0.2c-1.17,0.1-2.34,0.21-3.51,0.28
			c-0.99,0.06-1.97,0.07-2.96,0.1c-1.21,0.03-2.43,0.07-3.64,0.1c-1.04,0.02-2.07,0.03-3.11,0.02c-1.01,0-2.03,0.01-3.04-0.04
			c-1.15-0.07-2.29-0.2-3.52-0.32C140.37,239.49,139.87,238.55,139.75,237.6z M125.82,230.74c-0.79-0.15-1.52-0.29-2.25-0.43
			c-0.51-0.1-1.01-0.18-1.52-0.29c-1.45-0.3-2.9-0.58-4.34-0.9c-1.72-0.38-3.43-0.79-5.15-1.2c-0.84-0.2-1.68-0.42-2.52-0.64
			c-0.82-0.22-1.63-0.45-2.45-0.67c-0.27-0.07-0.37-0.23-0.39-0.5c-0.11-1.62-0.25-3.24-0.36-4.86c-0.03-0.47,0-0.94,0-1.46
			c1.15-0.03,2.13,0.4,3.15,0.67c0.7,0.18,1.4,0.36,2.1,0.54c0.39,0.1,0.76,0.25,1.15,0.33c0.55,0.11,1.12,0.17,1.67,0.28
			c0.36,0.08,0.71,0.23,1.07,0.32c1,0.25,1.99,0.5,3,0.73c1.53,0.34,3.07,0.64,4.59,0.99c0.72,0.16,1.43,0.39,2.2,0.6
			c-0.4,0.77-0.3,1.51-0.22,2.26c0.12,1.19,0.22,2.39,0.31,3.59C125.87,230.28,125.84,230.47,125.82,230.74z M123.34,222.54
			c-0.62-0.12-1.25-0.18-1.87-0.29c-0.25-0.04-0.49-0.16-0.74-0.22c-1.12-0.27-2.23-0.53-3.32-0.79c-0.09-2.06-0.17-4.02-0.26-6.09
			c0.31,0,0.56-0.04,0.8,0.01c1.35,0.3,2.7,0.63,4.05,0.92c0.57,0.12,1.16,0.18,1.74,0.28c1.27,0.22,2.55,0.43,3.82,0.66
			c1.04,0.19,2.08,0.41,3.12,0.58c0.81,0.13,1.64,0.18,2.45,0.29c1.37,0.19,2.74,0.41,4.11,0.63c0.11,0.02,0.22,0.07,0.34,0.12
			c0,0.16,0,0.29,0,0.43c-0.01,0.32-0.08,0.66-0.03,0.97c0.21,1.37,0.46,2.74,0.68,4.11c0.04,0.22,0,0.45,0,0.75
			c-1.62-0.12-3.2-0.11-4.73-0.37C130.09,223.93,126.72,223.2,123.34,222.54z M106.52,210.04c-0.42-0.28-0.43-0.73-0.43-1.14
			c-0.01-1.3-0.01-2.59,0.03-3.89c0.01-0.48,0.13-0.96,0.21-1.51c0.23,0.07,0.41,0.1,0.58,0.16c1.41,0.53,2.81,1.08,4.22,1.6
			c0.46,0.17,0.94,0.27,1.42,0.4c0.89,0.23,1.79,0.41,2.66,0.69c1.26,0.4,2.48,0.88,3.74,1.28c0.78,0.25,1.56,0.5,2.4,0.56
			c0.5,0.03,0.99,0.27,1.49,0.36c1.08,0.21,2.17,0.39,3.26,0.56c0.52,0.08,0.63,0.2,0.63,0.72c0.01,1.6,0.12,3.19,0.53,4.75
			c0.12,0.45,0.21,0.91,0.34,1.49c-0.31-0.04-0.51-0.05-0.71-0.09c-1.78-0.32-3.56-0.64-5.34-0.98c-1.2-0.23-2.4-0.49-3.58-0.79
			c-1.12-0.28-2.22-0.63-3.33-0.92c-0.61-0.16-1.25-0.23-1.86-0.41c-1.46-0.44-2.91-0.92-4.37-1.39c-0.43-0.14-0.85-0.29-1.26-0.46
			c-0.33-0.13-0.69-0.26-0.52-0.76C106.62,210.22,106.58,210.08,106.52,210.04z M134.4,217.23c-1.7-0.41-3.43-0.51-5.15-0.72
			c-0.38-0.05-0.75-0.23-1.27-0.4c0.41-0.2,0.66-0.32,0.93-0.45c-0.54-2.01-0.94-4.02-0.89-6.11c0.86-0.18,1.63,0.01,2.37,0.16
			c1.6,0.32,3.21,0.47,4.83,0.64c0.8,0.08,1.6,0.16,2.38,0.31c1.17,0.22,2.34,0.22,3.52,0.24c0.61,0.01,1.23,0.04,1.83,0.12
			c1.55,0.22,3.1,0.23,4.65,0.16c0.26-0.01,0.52,0,0.86,0c0.02,0.28,0.05,0.52,0.06,0.77c0.02,1.55,0.02,3.1,0.06,4.65
			c0.01,0.27,0.12,0.54,0.2,0.81c0.08,0.26,0.18,0.52,0.27,0.8c-1.06,0-2.07,0.02-3.07-0.01c-0.99-0.03-1.97-0.11-2.95-0.16
			c-0.35-0.02-0.7-0.03-1.05-0.05c-1.1-0.07-2.21-0.12-3.31-0.23C137.24,217.62,135.78,217.56,134.4,217.23z M149.8,212.4
			c-0.02-0.28,0.04-0.56,0.07-0.84c0.03-0.34,0.23-0.48,0.57-0.47c0.99,0.03,1.98,0.06,2.97,0.07c0.42,0,0.84-0.04,1.26-0.07
			c1.52-0.12,3.04-0.24,4.56-0.38c1.59-0.15,3.18-0.31,4.77-0.52c1.32-0.17,2.63-0.44,3.96-0.62c0.78-0.11,1.58-0.13,2.48-0.2
			c0.17,0.98,0.3,1.86,0.47,2.74c0.19,0.98,0.44,1.96,0.62,2.94c0.1,0.54,0.23,1.05,0.72,1.52c-0.89,0.16-1.71,0.3-2.53,0.45
			c-0.69,0.13-1.37,0.31-2.07,0.39c-0.79,0.09-1.6,0.1-2.39,0.15c-0.42,0.03-0.84,0.09-1.26,0.13c-2.31,0.22-4.62,0.45-6.95,0.4
			c-1.2-0.02-2.39,0.11-3.59,0.17c-0.82,0.04-1.64,0.08-2.46,0.1c-0.39,0.01-0.81-0.46-0.84-0.98
			C150.01,215.72,149.9,214.06,149.8,212.4z M182.48,214.53c-0.7,0.17-1.39,0.45-2.09,0.62c-1.39,0.33-2.79,0.61-4.19,0.91
			c-0.18,0.04-0.37,0.06-0.55,0.12c-0.93,0.28-1.88,0.36-2.93,0.27c0.01-0.22-0.03-0.46,0.05-0.66c0.24-0.58,0.03-1.13-0.15-1.64
			c-0.35-0.98-0.52-1.99-0.61-3.02c-0.03-0.32-0.12-0.64-0.18-0.96c-0.04-0.21-0.06-0.42-0.09-0.63c-0.04-0.29,0.12-0.44,0.37-0.51
			c0.41-0.11,0.82-0.23,1.23-0.31c1.2-0.22,2.41-0.4,3.6-0.62c0.62-0.12,1.23-0.31,1.85-0.46c0.48-0.12,0.96-0.22,1.43-0.33
			c0.91-0.22,1.83-0.43,2.73-0.68c0.63-0.18,1.25-0.39,1.86-0.63c1.22-0.49,2.5-0.79,3.72-1.25c1.18-0.45,2.32-1,3.48-1.5
			c0.1-0.04,0.21-0.07,0.41-0.14c0,0.57,0.03,1.08-0.01,1.58c-0.07,1.08-0.16,2.16-0.27,3.23c-0.07,0.7-0.03,1.36,0.5,1.89
			c-0.73,0.76-1.61,1.1-2.45,1.51c-1.14,0.55-2.3,1.07-3.44,1.62C185.38,213.59,183.97,214.16,182.48,214.53z M97.15,206.22
			c0.03-0.13,0.05-0.28,0.04-0.41c-0.13-0.88-0.32-1.75-0.4-2.63c-0.13-1.38-0.2-2.76-0.29-4.14c-0.01-0.08,0.05-0.17,0.13-0.43
			c0.49,0.29,0.9,0.54,1.32,0.78c0.81,0.47,1.61,0.97,2.44,1.39c0.79,0.4,1.59,0.8,2.43,1.04c0.69,0.2,1.33,0.46,1.97,0.76
			c0.06,0.03,0.11,0.08,0.12,0.09c0,0.41,0.01,0.77,0,1.13c-0.02,0.49-0.09,0.98-0.1,1.48c-0.03,1.04-0.02,2.07-0.05,3.11
			c-0.02,0.49-0.1,0.97-0.16,1.55c-0.36-0.07-0.65-0.07-0.89-0.17c-1.21-0.53-2.4-1.08-3.6-1.63c-0.39-0.18-0.76-0.38-1.15-0.55
			c-0.41-0.17-0.82-0.33-1.25-0.43C97.06,206.96,96.99,206.87,97.15,206.22z M97.56,210.44c-0.07-0.41-0.21-0.81-0.29-1.22
			c-0.03-0.16,0.01-0.33,0.04-0.49c0.06-0.36,0.21-0.43,0.54-0.3c1.9,0.79,3.8,1.59,5.71,2.38c1.04,0.43,2.06,0.92,3.12,1.27
			c1.36,0.46,2.74,0.83,4.13,1.2c1.54,0.41,3.09,0.77,4.65,1.16c0.03,0.13,0.08,0.23,0.06,0.3c-0.41,1.22-0.04,2.41,0.18,3.6
			c0.13,0.69,0.24,1.39,0.35,2.08c0.02,0.13,0,0.26,0,0.44c-1.51-0.35-2.91-0.66-4.3-1c-0.73-0.18-1.44-0.42-2.16-0.63
			c-0.45-0.13-0.91-0.23-1.36-0.36c-0.54-0.15-1.1-0.26-1.62-0.45c-1.53-0.55-3.05-1.12-4.56-1.71c-0.48-0.19-0.93-0.45-1.39-0.69
			c-0.08-0.04-0.19-0.08-0.23-0.16c-0.31-0.62-0.96-0.81-1.48-1.14c-0.63-0.4-0.88-0.94-0.95-1.67
			C97.9,212.19,97.72,211.31,97.56,210.44z M98.63,221.22c-0.07-0.53-0.05-1.08-0.05-1.61c0-0.97-0.17-1.91-0.37-2.86
			c-0.02-0.08,0.04-0.17,0.08-0.28c0.54-0.04,0.95,0.22,1.39,0.44c0.5,0.25,1.03,0.45,1.54,0.67c0.24,0.1,0.47,0.21,0.71,0.31
			c0.68,0.26,1.35,0.53,2.03,0.78c0.56,0.21,1.13,0.41,1.75,0.63c-0.11,0.17-0.16,0.3-0.26,0.39c-0.24,0.22-0.26,0.47-0.23,0.77
			c0.15,1.48,0.3,2.95,0.44,4.43c0.03,0.35,0.04,0.7,0.06,1.23c-0.57-0.18-1.01-0.31-1.45-0.45c-0.58-0.18-1.18-0.34-1.74-0.56
			c-1.05-0.41-2.09-0.85-3.13-1.3c-0.16-0.07-0.34-0.24-0.37-0.39C98.87,222.68,98.72,221.95,98.63,221.22z M105.3,236.79
			c-0.06,0.39,0.64,0.49,0.37,0.96c-0.09-0.01-0.2-0.01-0.37-0.02c0.16,2,0.33,3.98,0.5,6.05c-1.26-0.54-2.29-1.2-3.19-2.07
			c-0.48-0.47-0.97-0.94-1.4-1.47c-0.26-0.32-0.5-0.71-0.58-1.11c-0.27-1.42-0.62-2.84-0.61-4.3c0-0.22-0.09-0.45-0.17-0.66
			c-0.13-0.35-0.16-0.67,0.09-1.02c0.1,0.05,0.2,0.08,0.26,0.14c0.64,0.7,1.54,0.98,2.36,1.38c0.75,0.36,1.56,0.6,2.34,0.9
			c0.11,0.04,0.21,0.11,0.31,0.16c0.25,0.14,0.51,0.29,0.79,0.46C105.98,236.66,105.98,236.66,105.3,236.79z M105.7,234.69
			c-0.4-0.14-0.78-0.31-1.18-0.46c-0.96-0.38-1.92-0.74-2.86-1.16c-0.86-0.38-1.52-1.02-1.94-1.86c-0.14-0.28-0.24-0.61-0.27-0.93
			c-0.07-0.62-0.07-1.25-0.12-1.88c-0.07-1.08-0.16-2.15-0.24-3.34c5.37,1.63,10.59,3.51,16.1,4.67c0.33,2.44,0.65,4.86,0.99,7.36
			c-0.13,0-0.28,0.03-0.43,0c-1.56-0.34-3.12-0.69-4.68-1.02c-1.13-0.24-2.25-0.51-3.38-0.7
			C106.98,235.25,106.36,234.92,105.7,234.69z M127.32,248.39c-0.61,0.02-1.22,0-1.83-0.04c-0.89-0.07-1.77-0.18-2.65-0.29
			c-1.03-0.12-2.05-0.24-3.07-0.39c-1.19-0.17-2.37-0.37-3.56-0.54c-2.33-0.34-4.61-0.94-6.86-1.62c-0.78-0.24-1.52-0.62-2.31-0.95
			c0.78-1.54,0.67-3.08,0.37-4.65c-0.15-0.78-0.15-1.59-0.24-2.38c-0.04-0.33-0.13-0.66-0.22-1.07c6.42,1.29,12.72,2.66,19.21,3.38
			c0.11,1.04,0.2,2.04,0.32,3.05c0.09,0.79,0.09,1.59,0.38,2.36c0.11,0.28,0.17,0.59,0.21,0.89c0.08,0.56,0.15,1.09,0.62,1.52
			C128.04,247.99,127.85,248.37,127.32,248.39z M150.79,248.58c-1.76,0.2-3.52,0.17-5.29,0.09c-0.54-0.02-1.08-0.04-1.62-0.05
			c-1.25-0.01-2.49,0-3.74-0.02c-1.55-0.02-3.11,0.03-4.65-0.1c-1.42-0.13-2.82-0.01-4.22-0.01c-0.86,0-1.71-0.15-2.73-0.25
			c0.22-0.3,0.35-0.46,0.54-0.72c-0.11-0.31-0.28-0.7-0.37-1.1c-0.24-1.05-0.53-2.1-0.65-3.17c-0.11-1.05-0.2-2.1-0.61-3.22
			c0.61,0.08,1.13,0.15,1.65,0.23c1.11,0.17,2.22,0.46,3.34,0.5c0.94,0.03,1.79,0.35,2.68,0.51c1.25,0.22,2.51,0.37,3.78,0.37
			c0.56,0,1.13,0.05,1.69,0.11c1.45,0.15,2.89,0.34,4.36,0.12c0.34-0.05,0.71-0.01,1.05,0.05c1.32,0.22,2.63,0.05,3.94-0.07
			c0.14-0.01,0.28-0.02,0.42-0.02c0.51,0,0.54,0.06,0.58,0.55c0.08,0.86,0.16,1.73,0.32,2.58c0.11,0.54,0.14,1.08,0.05,1.61
			c-0.09,0.49-0.04,0.92,0.22,1.34c0.09,0.15,0.13,0.33,0.24,0.62C151.34,248.54,151.06,248.55,150.79,248.58z M190.5,237.34
			c-0.24,1.51-0.53,3.01-0.78,4.52c-0.05,0.28-0.19,0.41-0.44,0.47c-0.37,0.09-0.74,0.15-1.1,0.27c-1.13,0.38-2.25,0.82-3.39,1.18
			c-1.44,0.45-2.89,0.86-4.34,1.24c-1.2,0.32-2.42,0.59-3.63,0.88c-0.69,0.17-0.76,0.12-0.9-0.55c-0.38-1.77-0.77-3.54-1.14-5.31
			c-0.06-0.26-0.08-0.54-0.43-0.55c-0.26-0.01-0.58,0.31-0.55,0.64c0.09,0.84-0.05,1.69,0.29,2.51c0.17,0.42,0.17,0.92,0.25,1.38
			c0.13,0.76,0.26,1.52,0.4,2.33c-0.8,0.28-1.6,0.61-2.45,0.59c-0.89-0.02-1.72,0.22-2.57,0.41c-1.25,0.28-2.5,0.41-3.78,0.48
			c-1.86,0.1-3.71,0.3-5.57,0.4c-1.76,0.09-3.53,0.11-5.3,0.17c-0.54,0.02-1.08,0.05-1.62,0.08c-0.33,0.02-0.51-0.08-0.56-0.46
			c-0.13-0.99-0.33-1.97-0.48-2.96c-0.12-0.79-0.23-1.58-0.32-2.38c-0.08-0.73,0.06-0.9,0.78-0.93c0.89-0.03,1.78,0,2.67-0.04
			c0.85-0.03,1.69-0.12,2.54-0.18c0.96-0.07,1.93-0.11,2.88-0.23c1.14-0.13,2.27-0.33,3.4-0.5c0.79-0.12,1.58-0.25,2.37-0.38
			c0.35-0.06,0.69-0.17,1.03-0.24c0.71-0.16,1.42-0.31,2.13-0.47c1.85-0.43,3.75-0.64,5.61-1.03c1.83-0.38,3.57-1,5.35-1.48
			c1.47-0.4,2.94-0.79,4.38-1.3c1.35-0.47,2.66-1.06,3.97-1.65c0.4-0.18,0.71-0.53,1.08-0.78c0.22-0.15,0.48-0.25,0.79-0.4
			C190.87,234.6,190.72,235.98,190.5,237.34z M184.3,230.58c0.08,1.01,0.17,2.02,0.26,3.02c0.06,0.7,0.07,0.7,0.66,1.17
			c-0.51,0.29-1.04,0.45-1.55,0.62c-0.89,0.28-1.79,0.54-2.69,0.8c-0.02,0.01-0.04,0.01-0.07,0.02c-1.15,0.3-2.31,0.59-3.46,0.89
			c-0.59,0.16-1.16,0.38-1.76,0.51c-1.08,0.23-2.16,0.46-3.26,0.6c-1.96,0.25-3.89,0.66-5.8,1.17c-0.74,0.2-1.53,0.25-2.29,0.36
			c-0.25,0.04-0.51,0.09-0.77,0.1c-0.32,0.01-0.53-0.13-0.61-0.47c-0.21-0.89-0.5-1.77-0.63-2.67c-0.15-1.02-0.21-2.05-0.23-3.08
			c-0.01-0.53,0-0.72,0.68-0.83c1.65-0.25,3.31-0.4,4.95-0.8c1.27-0.31,2.59-0.39,3.89-0.63c0.81-0.15,1.59-0.42,2.39-0.57
			c1.08-0.21,2.18-0.35,3.27-0.53c0.18-0.03,0.35-0.09,0.53-0.15c0.11-0.04,0.22-0.16,0.31-0.15c0.58,0.1,0.97-0.36,1.48-0.47
			c0.5-0.11,1-0.27,1.5-0.39c1.23-0.3,2.46-0.58,3.86-0.91c-0.13,0.35-0.16,0.59-0.29,0.77
			C184.31,229.47,184.25,230.01,184.3,230.58z M192.47,225.81c-0.26,1.53-0.6,3.04-0.78,4.58c-0.12,0.97-0.71,1.52-1.42,1.94
			c-1.04,0.63-2.15,1.14-3.24,1.68c-0.69,0.34-0.87,0.28-1.01-0.49c-0.18-1.06-0.29-2.14-0.35-3.21c-0.03-0.52-0.16-1.06,0.11-1.6
			c0.08-0.16-0.13-0.46-0.2-0.67c2.28-1,4.55-2,6.9-3.03C192.47,225.28,192.51,225.55,192.47,225.81z M192.64,223.3
			c-0.01,0.11-0.13,0.25-0.23,0.31c-0.91,0.57-1.82,1.15-2.76,1.68c-0.57,0.32-1.18,0.57-1.79,0.83c-0.78,0.33-1.55,0.68-2.35,0.95
			c-1.31,0.44-2.63,0.89-3.97,1.23c-1.48,0.38-2.99,0.64-4.49,0.95c-0.48,0.1-0.96,0.23-1.45,0.31c-0.53,0.08-0.73-0.07-0.85-0.6
			c-0.05-0.21-0.03-0.42-0.07-0.63c-0.06-0.32-0.16-0.63-0.21-0.95c-0.06-0.37-0.09-0.74-0.12-1.11c-0.02-0.28-0.01-0.56-0.03-0.84
			c-0.02-0.29-0.15-0.49-0.49-0.48c-0.34,0.02-0.63,0.21-0.69,0.5c-0.03,0.14-0.02,0.28-0.01,0.42c0.05,1.08,0.11,2.17,0.44,3.21
			c0.08,0.25,0.14,0.5,0.23,0.82c-0.24,0.1-0.47,0.2-0.7,0.29c-0.7,0.25-1.45,0.29-2.17,0.57c-0.61,0.24-1.35,0.1-2.03,0.21
			c-0.78,0.12-1.56,0.32-2.34,0.49c-0.46,0.09-0.91,0.21-1.38,0.26c-0.53,0.06-1.08,0.05-1.61,0.11c-0.86,0.09-1.73,0.2-2.58,0.33
			c-0.46,0.07-0.92,0.22-1.38,0.3c-0.53,0.1-1.06,0.18-1.6,0.25c-2.29,0.29-4.58,0.46-6.89,0.39c-0.54-0.02-1.08,0.13-1.62,0.13
			c-0.75,0-1.5-0.06-2.25-0.09c-0.8-0.03-1.6-0.06-2.39-0.1c-0.21-0.01-0.42-0.04-0.63-0.06c-1.25-0.08-2.49-0.17-3.74-0.25
			c-1.32-0.08-2.64-0.06-3.95-0.22c-1.89-0.23-3.76-0.58-5.64-0.88c-1.05-0.17-2.09-0.35-3.13-0.54c-0.46-0.08-0.91-0.2-1.35-0.29
			c-0.05-0.5,0.29-0.64,0.56-0.77c0.13-0.7,0.27-1.37,0.38-2.03c0.03-0.18-0.01-0.37-0.01-0.56c0-0.92,0-1.83,0-2.8
			c0.12-0.04,0.28-0.14,0.43-0.12c0.67,0.1,1.34,0.2,2,0.37c1.74,0.46,3.5,0.73,5.29,0.86c1.1,0.08,2.21,0.09,3.31,0.14
			c0.4,0.02,0.8,0.01,1.2,0.04c2.49,0.19,4.97,0.39,7.46,0.56c0.73,0.05,1.46,0.01,2.19,0.01c0.12,0,0.23,0.04,0.43,0.07
			c0.09,0.77,0.17,1.49,0.27,2.21c0.06,0.39,0.12,0.81,0.28,1.16c0.34,0.73,0.37,1.5,0.39,2.27c0.01,0.28,0.04,0.57,0.32,0.63
			c0.25,0.05,0.55-0.01,0.8-0.09c0.09-0.03,0.19-0.28,0.17-0.41c-0.2-1.25-0.06-2.54-0.52-3.77c-0.23-0.63-0.32-1.3-0.47-1.96
			c0.48-0.26,0.93-0.12,1.37-0.13c1.56-0.04,3.13-0.08,4.69-0.11c1.08-0.02,2.16-0.03,3.24-0.08c1.31-0.05,2.63-0.1,3.94-0.21
			c2.56-0.22,5.09-0.68,7.59-1.26c1.6-0.37,3.15-0.96,4.72-1.43c0.88-0.26,1.76-0.5,2.65-0.74c1.51-0.42,3.04-0.82,4.54-1.27
			c0.85-0.25,1.68-0.6,2.53-0.88c1-0.33,2.02-0.62,3.03-0.95c0.49-0.16,0.96-0.39,1.44-0.57c0.47-0.18,0.92-0.48,1.52-0.36
			c0.2,1.13,0.42,2.26,0.57,3.4C192.79,222.4,192.69,222.86,192.64,223.3z M194.72,211.44c-0.05,0.15-0.2,0.31-0.18,0.44
			c0.14,0.98-0.19,1.91-0.28,2.87c-0.04,0.37-0.08,0.75-0.13,1.12c-0.06,0.45-0.25,0.81-0.7,0.98c-1.35,0.54-2.7,1.09-4.06,1.62
			c-0.37,0.15-0.75,0.27-1.14,0.39c-0.44,0.13-0.57,0.07-0.65-0.37c-0.17-0.95-0.3-1.9-0.42-2.86c-0.03-0.21,0.02-0.42,0.04-0.63
			c0.04-0.37,0.08-0.73,0.14-1.2c0.13-0.06,0.35-0.19,0.58-0.29c1.1-0.48,2.2-0.95,3.29-1.45c0.44-0.21,0.89-0.46,1.25-0.78
			c0.44-0.4,0.87-0.63,1.53-0.38c-0.01-0.64,0.22-0.9,0.93-1.09C195.02,210.38,194.9,210.91,194.72,211.44z M195.62,206.43
			c-0.02,0.33-0.21,0.67-0.38,0.97c-0.2,0.36-0.44,0.71-0.71,1.02c-0.14,0.16-0.38,0.23-0.62,0.37c-0.07-0.23-0.16-0.38-0.16-0.53
			c-0.03-1.57-0.05-3.15-0.06-4.72c0-0.36,0-0.73,0-1.18c0.78-0.43,1.65-0.92,2.51-1.4l0.16,0.12c-0.01,0.28-0.01,0.56-0.05,0.83
			C196.07,203.41,195.73,204.9,195.62,206.43z M251.67,135.39c-0.08,1.57-0.19,3.15-0.23,4.73c-0.05,1.76-0.26,3.51-0.52,5.25
			c-0.17,1.13-0.3,2.28-0.49,3.41c-0.16,0.97-0.37,1.93-0.56,2.9c-0.31,1.59-0.61,3.19-0.92,4.78c-0.19,0.97-0.39,1.94-0.61,2.9
			c-0.06,0.27-0.17,0.54-0.27,0.8c-0.45,1.24-0.85,2.48-1.3,3.72c-0.78,2.12-1.6,4.21-2.54,6.27c-0.44,0.98-0.73,2.03-1.13,3.03
			c-0.58,1.44-1.21,2.85-1.82,4.28c-0.36,0.86-0.71,1.73-1.08,2.59c-0.4,0.96-0.91,1.85-1.54,2.69c-0.63,0.82-1.19,1.69-1.81,2.51
			c-0.55,0.73-1.16,1.41-1.7,2.15c-0.68,0.92-1.68,1.57-2.22,2.61c-0.03,0.06-0.1,0.11-0.12,0.18c-0.2,0.67-0.66,1.17-1.1,1.68
			c-0.6,0.69-1.21,1.37-1.82,2.05c-0.41,0.46-0.82,0.9-1.22,1.37c-0.61,0.72-1.18,1.46-1.8,2.17c-0.26,0.3-0.61,0.51-0.86,0.82
			c-1.27,1.52-2.56,3.02-4.15,4.22c-0.63,0.48-1.35,0.85-2.04,1.25c-0.51,0.3-1.02,0.59-1.54,0.85c-0.9,0.44-1.8,0.92-2.74,1.27
			c-2.28,0.83-4.57,1.65-6.88,2.38c-1.86,0.59-3.76,1.08-5.66,1.53c-1.83,0.43-3.67,0.85-5.55,1.01c-0.43,0.04-0.86,0.14-1.35,0.22
			c-0.16-0.86,0.06-1.52,0.22-2.17c0.03-0.12,0.21-0.25,0.34-0.31c0.28-0.11,0.58-0.2,0.89-0.24c1.2-0.17,1.76,0.69,2.9,0.32
			c1.25-0.41,3.6-1.15,4.85-1.59c1.82-0.64,4-1.79,5.68-2.75c0.92-0.52,0.98-1.42,1.93-1.88c1.19-0.57,2.31-1.26,3.35-2.09
			c0.49-0.4,1.03-0.74,1.56-1.09c1.54-1.02,2.99-2.13,4.26-3.48c0.22-0.23,0.52-0.39,0.76-0.62c0.89-0.83,1.73-1.71,2.47-2.69
			c0.37-0.5,0.97-0.82,1.38-1.29c0.95-1.07,1.98-2.1,2.75-3.29c1.01-1.55,2.06-3.08,2.93-4.73c0.89-1.7,2.09-3.22,3.26-4.76
			c0.66-0.87,1.17-1.86,1.69-2.83c0.55-1.01,1.02-2.06,1.54-3.08c0.85-1.71,1.55-3.48,2.16-5.29c0.54-1.62,0.96-3.28,1.43-4.91
			c0.05-0.16,0.13-0.3,0.2-0.45c0.94-2.1,1.8-4.23,2.59-6.39c0.5-1.37,0.62-2.84,0.85-4.28c0.21-1.34,0.49-2.67,0.73-4.01
			c0.07-0.41,0.08-0.84,0.12-1.25c0.03-0.27,0.09-0.55,0.12-0.82c0.04-0.39,0.07-0.78,0.1-1.17c0.05-0.82,0.14-1.64,0.14-2.46
			c0-1.01-0.08-2.02-0.15-3.03c-0.01-0.21-0.11-0.41-0.16-0.61c-0.04-0.18-0.15-0.39-0.09-0.54c0.19-0.51,0.02-0.97-0.07-1.45
			c-0.06-0.32-0.11-0.65-0.11-0.98c-0.02-1.14-0.25-2.24-0.52-3.34c-0.11-0.47-0.11-0.97-0.18-1.46c-0.07-0.51-0.13-1.02-0.23-1.53
			c-0.23-1.25-0.56-2.48-0.71-3.74c-0.18-1.46-0.49-2.88-0.74-4.32c-0.12-0.69-0.39-1.35-0.6-2.02c-0.25-0.81-0.48-1.62-0.75-2.42
			c-0.13-0.4-0.34-0.77-0.51-1.16c-0.17-0.41-0.32-0.83-0.5-1.24c-0.16-0.34-0.3-0.7-0.53-0.99c-0.91-1.11-1.81-2.23-2.79-3.28
			c-0.39-0.41-0.96-0.67-1.48-0.93c-0.95-0.47-1.93-0.89-2.89-1.33c-1.79-0.84-3.67-1.4-5.65-1.38c-1.72,0.01-3.44,0.15-5.11,0.63
			c-0.43,0.12-0.87,0.22-1.31,0.31c-1.65,0.35-3.18,1-4.59,1.93c-0.35,0.23-0.75,0.4-1.14,0.56c-0.5,0.21-0.95,0.48-1.36,0.86
			c-0.8,0.76-1.64,1.47-2.48,2.19c-0.14,0.12-0.31,0.2-0.53,0.34c-0.1-0.79,0.13-1.46,0.26-2.14c0-0.02,0.02-0.05,0.04-0.06
			c0.74-0.36,0.91-1.22,1.52-1.7c0.61-0.48,1.18-1.01,1.82-1.44c0.86-0.58,1.73-1.16,2.66-1.59c1.57-0.73,3.11-1.58,4.87-1.84
			c0.37-0.05,0.73-0.18,1.09-0.3c1.26-0.43,2.59-0.48,3.9-0.65c0.21-0.03,0.42-0.02,0.63-0.02c0.9,0,1.79-0.03,2.68,0
			c0.68,0.02,1.36,0.1,2.04,0.19c0.82,0.1,1.63,0.24,2.45,0.35c1.96,0.28,3.57,1.25,5.03,2.52c0.57,0.49,1.12,1.01,1.64,1.56
			c0.42,0.44,0.79,0.92,1.16,1.4c0.33,0.43,0.65,0.87,0.93,1.33c0.82,1.29,1.51,2.65,2.06,4.08c0.5,1.31,1.08,2.6,1.55,3.92
			c0.34,0.97,0.59,1.98,0.82,2.99c0.29,1.24,0.53,2.49,0.81,3.73c0.22,0.98,0.51,1.95,0.71,2.94c0.16,0.81,0.21,1.64,0.34,2.45
			c0.12,0.74,0.25,1.48,0.42,2.21C251.84,133.37,251.72,134.38,251.67,135.39z"/>
		<path fill="#FFFFFF" d="M181.06,156.37c-0.29,0.97-0.96,1.3-1.76,1.27c-0.47-0.02-0.93-0.28-1.39-0.45
			c-0.17-0.07-0.29-0.25-0.47-0.31c-1.05-0.36-1.42-1.32-1.68-2.19c-0.26-0.9-0.35-1.9-0.17-2.87c0.39-2.06,0.95-4.07,1.54-6.08
			c0.26-0.9,0.59-1.78,0.66-2.73c0.02-0.27,0-0.55,0-0.95c-0.35,0.11-0.62,0.15-0.84,0.29c-1.16,0.71-2.2,1.56-2.9,2.73
			c-0.33,0.56-0.54,1.2-0.71,1.83c-0.35,1.29-0.65,2.59-0.97,3.9c-0.09,0.37-0.14,0.74-0.23,1.1c-0.16,0.68-0.19,1.37-0.51,2.02
			c-0.2,0.4-0.17,0.91-0.26,1.36c-0.07,0.41-0.22,0.82-0.22,1.23c0,0.45-0.19,0.81-0.37,1.19c-0.2,0.43-0.57,0.56-0.97,0.6
			c-0.4,0.03-0.73-0.12-0.84-0.58c-0.03-0.12-0.16-0.24-0.28-0.3c-0.65-0.32-0.76-0.9-0.81-1.53c-0.03-0.39-0.05-0.78-0.08-1.16
			c-0.05-0.02-0.1-0.04-0.15-0.05c-0.21,0.24-0.42,0.48-0.65,0.7c-0.64,0.64-1.37,1.18-2.28,1.3c-1.15,0.15-2.26,0.06-3.16-0.81
			c-0.24-0.23-0.57-0.36-0.77-0.61c-0.23-0.28-0.41-0.62-0.53-0.96c-0.24-0.68-0.43-1.38-0.64-2.05c-0.45-0.07-0.68,0.12-0.87,0.37
			c-1,1.36-2.37,2.27-3.78,3.1c-0.92,0.53-1.94,0.98-3.02,1.1c-1.06,0.13-1.99-0.3-2.8-0.95c-0.24-0.19-0.43-0.44-0.66-0.63
			c-0.54-0.43-0.63-1.09-0.81-1.68c-0.22-0.72-0.44-1.45-0.51-2.19c-0.06-0.59-0.23-1.13-0.4-1.68c-0.17-0.54-0.19-0.53-0.86-0.45
			c-0.09,1.01-0.17,2.03-0.26,3.12c0.11,0.07,0.29,0.18,0.47,0.29c-0.04,0.08-0.05,0.18-0.09,0.2c-0.35,0.18-0.56,0.41-0.47,0.84
			c0.02,0.12-0.07,0.26-0.1,0.39c-0.18,0.63-0.35,1.27-0.53,1.9c-0.01,0.05-0.02,0.09-0.03,0.14c-0.3,1.02-0.85,1.03-1.63,0.41
			c-0.38-0.31-0.58-0.84-0.33-1.4c0.06-0.14,0.09-0.32,0.08-0.48c-0.03-0.39-0.32-0.53-0.64-0.32c-0.31,0.21-0.59,0.47-0.89,0.7
			c-0.35,0.27-0.71,0.53-1.07,0.8c-1.04,0.79-2.14,0.65-3.2,0.13c-0.39-0.19-0.66-0.63-1.07-1.05c-0.28,0.09-0.67,0.22-1.07,0.33
			c-1.51,0.43-3,0.32-4.38-0.42c-0.49-0.26-0.83-0.82-1.23-1.25c-0.08-0.08-0.11-0.21-0.18-0.3c-0.42-0.59-0.68-0.65-1.28-0.24
			c-0.68,0.47-1.33,1-2.14,1.2c-1.58,0.4-3.13,0.38-4.53-0.6c-0.19-0.13-0.36-0.32-0.47-0.52c-0.56-1.08-1.27-2.09-1.54-3.31
			c-0.05-0.22-0.19-0.44-0.35-0.6c-0.29-0.3-0.45-0.59-0.28-1.01c0.05-0.12,0.05-0.28,0.02-0.42c-0.3-1.32,0.25-2.5,0.59-3.72
			c0.08-0.29,0.23-0.57,0.3-0.86c0.24-1.01,0.93-1.73,1.62-2.42c0.43-0.43,0.96-0.75,1.62-0.77c0.65-0.01,1.31-0.1,1.96-0.09
			c0.65,0.01,1.22,0.31,1.78,0.62c1.01,0.56,1.11,1.84,0.77,2.61c-0.58,1.33-1.46,2.49-2.56,3.42c-0.68,0.57-1.47,1.02-2.25,1.44
			c-0.48,0.26-0.69,0.55-0.69,1.1c0.01,2,1.34,3.05,3.13,3.25c0.44,0.05,0.77-0.19,1.06-0.47c0.54-0.52,1.07-1.05,1.6-1.59
			c0.09-0.09,0.2-0.21,0.21-0.33c0.04-0.46,0.04-0.92,0.07-1.38c0.09-1.1,0.11-2.21,0.87-3.14c0.22-0.27,0.36-0.61,0.54-0.91
			c0.78-1.29,1.72-2.21,3.39-2.43c1.45-0.19,2.62,0.28,3.89,0.81c0.05-0.08,0.15-0.16,0.17-0.26c0.12-0.7,0.71-1.09,1.07-1.63
			c0.19-0.27,0.48-0.24,0.62,0.07c0.15,0.31,0.17,0.67,0.29,0.99c0.15,0.41-0.14,0.59-0.35,0.85c-0.47,0.58-0.66,1.28-0.83,1.99
			c-0.27,1.1-0.25,2.2-0.18,3.32c0.04,0.7-0.04,1.41-0.08,2.12c-0.02,0.36,0.06,0.66,0.48,0.8c-0.35,0.8,0.25,1.22,0.68,1.69
			c0.14,0.15,0.35,0.24,0.52,0.37c0.58,0.43,1.15,0.49,1.76,0.11c0.89-0.55,1.69-1.23,2.19-2.15c0.37-0.7,0.52-1.49,0.57-2.3
			c0.11-1.9,0.09-3.81,0.47-5.69c0.11-0.52,0.1-1.08,0.11-1.61c0.02-1.31-0.11-2.63,0.06-3.92c0.23-1.8-0.01-3.63,0.36-5.4
			c0.07-0.36,0.33-0.71,0.6-0.99c0.19-0.2,0.52-0.18,0.78,0.02c0.35,0.27,0.6,0.62,0.66,1.05c0.1,0.7,0.21,1.4,0.19,2.1
			c-0.04,1.1-0.16,2.2-0.3,3.29c-0.07,0.55-0.29,1.08-0.44,1.63c-0.25,0.94-0.16,1.89-0.24,2.9c0.18-0.05,0.26-0.05,0.3-0.1
			c0.47-0.52,0.91-1.06,1.39-1.55c0.19-0.19,0.46-0.33,0.72-0.42c0.71-0.26,1.42-0.48,2.14-0.72c0.53-0.18,1.05-0.06,1.52,0.13
			c0.82,0.34,1.44,0.95,1.98,1.64c0.1,0.13,0.18,0.3,0.19,0.45c0.1,1.16-0.11,2.24-0.87,3.17c-0.19,0.24-0.26,0.57-0.42,0.94
			c0.01,0-0.07,0.06-0.16,0.06c-0.85,0-1.5,0.45-2.18,0.89c-0.61,0.39-1.25,0.74-1.88,1.1c-0.12,0.07-0.24,0.13-0.4,0.22
			c0.39,0.41,0.78,0.76,1.09,1.17c0.24,0.31,0.42,0.68,0.55,1.04c0.24,0.71,0.4,1.44,0.78,2.11c0.22,0.38,0.3,0.84,0.4,1.27
			c0.22,1,0.79,1.36,1.79,1.12c0.97-0.23,1.82-0.67,2.69-1.18c1.13-0.66,2.01-1.54,2.83-2.49c0.7-0.81,1.36-1.67,1.85-2.64
			c0.34-0.67,0.65-1.34,1.03-1.99c0.35-0.61,0.77-1.17,1.13-1.77c0.17-0.28,0.25-0.6,0.39-0.89c0.45-0.89,0.77-1.88,1.63-2.48
			c0.55-0.38,1.22-0.48,1.88-0.48c0.38,0,0.72,0.45,0.69,0.85c-0.02,0.28-0.12,0.55-0.22,0.81c-0.45,1.16-0.96,2.3-1.36,3.48
			c-0.51,1.48-0.97,2.98-1.39,4.5c-0.19,0.67-0.28,1.39-0.3,2.09c-0.01,0.34,0.15,0.76,0.38,1.02c0.3,0.34,0.73,0.57,1.13,0.83
			c0.26,0.17,0.51,0.08,0.7-0.13c0.69-0.77,1.47-1.48,2.02-2.35c0.93-1.48,1.66-3.08,2.26-4.73c0.17-0.48,0.26-1,0.38-1.5
			c0.38-1.6,0.59-3.24,0.79-4.87c0.03-0.2,0.09-0.41,0.18-0.6c0.28-0.53,0.54-0.58,1.09-0.39c0.72,0.25,1.33,0.61,1.58,1.38
			c0.11,0.36,0.18,0.73,0.28,1.15c0.16-0.12,0.34-0.23,0.49-0.35c0.7-0.58,1.51-1,2.23-1.57c0.63-0.5,1.46-0.6,2.26-0.1
			c0.4,0.26,0.66,0.58,0.82,1.02c0.39,1.06,0.18,2.11-0.09,3.13c-0.22,0.81-0.34,1.67-0.84,2.39c-0.03,0.04-0.04,0.09-0.05,0.13
			c-0.36,1.97-1.12,3.85-1.23,5.87c-0.04,0.83,0.07,1.64,0.5,2.38c0.18,0.31,0.43,0.5,0.75,0.6
			C179.82,156.07,180.43,156.21,181.06,156.37z M134.05,143.81c-0.46,0.02-1.03,0.09-1.52,0.5c-1.37,1.13-1.63,2.63-1.42,4.26
			c0.09,0.67,0.32,1.33,0.42,2c0.15,0.98,0.63,1.76,1.35,2.4c0.44,0.39,0.97,0.58,1.55,0.59c0.59,0.01,1.26-0.24,1.27-1.11
			c0-0.42-0.08-0.84-0.1-1.25c-0.07-2.02-0.25-4.04,0.11-6.05c0.04-0.21,0.05-0.52-0.08-0.66
			C135.26,144.07,134.81,143.72,134.05,143.81z M146.76,146.39c1.12,0.21,1.91-0.33,2.75-0.74c1.1-0.54,1.49-1.64,2.05-2.6
			c0.14-0.23,0.31-0.54,0.07-0.92c-0.64,0.07-1.26,0.25-1.82,0.62c-0.4,0.26-0.65,0.68-1.01,0.93c-0.49,0.34-0.81,0.76-1.1,1.24
			c-0.21,0.34-0.29,0.76-0.7,0.98C146.9,145.96,146.87,146.17,146.76,146.39z M125.26,141.89c-0.21,0-0.37,0.01-0.54,0
			c-0.83-0.05-1.2,0.17-1.55,0.93c-0.11,0.24-0.24,0.46-0.32,0.71c-0.27,0.74-0.6,1.46-0.63,2.44c0.83-0.35,1.45-0.82,1.98-1.38
			C124.89,143.86,125.38,143.02,125.26,141.89z"/>
		<path fill="#FFFFFF" d="M103.34,148.1c0.16-0.71,0.37-1.23,0.39-1.75c0.07-1.6,0.17-3.21,0.06-4.8c-0.1-1.33,0.08-2.63,0.16-3.94
			c0.06-0.93,0.24-1.84,0.19-2.8c-0.06-1.27,0.17-2.55,0.64-3.76c0.27-0.7,0.56-1.38,0.87-2.17c-0.48-0.17-0.99-0.41-1.53-0.53
			c-0.83-0.18-1.67-0.26-2.51-0.4c-1.06-0.18-2,0.11-2.92,0.6c-1.13,0.6-2.22,1.24-2.96,2.34c-0.57,0.86-0.3,2.5,0.82,3.05
			c0.51,0.25,1.16,0.12,1.56-0.28c0.15-0.15,0.31-0.28,0.44-0.45c0.26-0.32,0.5-0.72,0.2-1.08c-0.35-0.41-0.32-0.84-0.3-1.28
			c0.24-0.18,0.46-0.34,0.68-0.51c0.58-0.46,1.03-0.41,1.5,0.14c0.12,0.14,0.27,0.26,0.4,0.4c0.09,0.1,0.24,0.21,0.25,0.33
			c0.06,0.67,0.11,1.35,0.1,2.02c0,0.43-0.11,0.86-0.06,1.34c-0.23,0.19-0.47,0.38-0.74,0.6c-0.12-0.07-0.25-0.14-0.45-0.26
			c-0.15,0.15-0.34,0.29-0.46,0.48c-0.32,0.53-0.84,0.73-1.38,0.71c-1.01-0.03-2.03-0.11-2.91-0.7c-0.96-0.65-1.59-1.58-1.78-2.69
			c-0.12-0.69,0.04-1.46,0.23-2.15c0.21-0.76,0.5-1.54,0.93-2.2c0.73-1.09,1.71-1.94,3.02-2.31c0.29-0.08,0.59-0.16,0.87-0.28
			c1.97-0.8,3.98-0.8,6.02-0.32c0.78,0.18,1.56,0.35,2.33,0.57c0.43,0.12,0.69,0,0.95-0.36c0.51-0.7,1.02-1.41,1.77-1.89
			c0.11-0.07,0.22-0.19,0.27-0.32c0.19-0.41,0.55-0.57,0.9-0.81c0.55-0.38,1.12-0.37,1.68-0.35c0.93,0.04,1.73,0.41,2.31,1.18
			c0.21,0.28,0.26,0.56-0.02,0.82c-0.19,0.17-0.35,0.42-0.58,0.5c-1.16,0.4-1.96,1.26-2.8,2.08c-0.25,0.25-0.53,0.47-0.79,0.71
			c-0.36,0.34-0.37,0.43-0.08,0.83c0.42,0.56,0.91,1.09,1.28,1.68c0.57,0.89,1.06,1.83,1.59,2.74c0.14,0.24,0.32,0.46,0.47,0.69
			c0.1,0.15,0.26,0.32,0.25,0.48c-0.05,0.67,0.33,1.19,0.66,1.68c0.77,1.13,1.29,2.34,1.61,3.66c0.13,0.54,0.37,1.06,0.57,1.59
			c0.24,0.62,0.45,1.23,0.44,1.91c-0.02,1.27,0.04,2.53-0.01,3.8c-0.05,1.09-0.38,2.12-0.83,3.12c-0.27,0.6-0.53,1.2-0.99,1.68
			c-0.1,0.1-0.17,0.26-0.28,0.31c-0.38,0.17-0.83,0.24-1.16,0.47c-0.34,0.24-0.61,0.5-1.08,0.58c-0.44,0.07-0.84,0.3-1.33,0.36
			c-0.89,0.1-1.72,0.04-2.58-0.18c-1.37-0.35-2.76-0.64-3.96-1.44c-0.17-0.11-0.4-0.15-0.59-0.24c-0.63-0.31-1.16-0.27-1.73,0.24
			c-0.52,0.46-1.17,0.79-1.78,1.14c-0.54,0.31-1.12,0.46-1.75,0.49c-0.45,0.02-0.89,0.09-1.33,0.16c-0.73,0.12-1.44,0.14-2.12-0.26
			c-0.32-0.19-0.68-0.34-1.05-0.42c-0.76-0.17-1.23-0.73-1.62-1.28c-0.53-0.75-0.83-1.63-0.9-2.57c-0.09-1.27,0.39-2.29,1.24-3.17
			c0.06-0.07,0.13-0.15,0.21-0.18c0.54-0.23,1.08-0.46,1.63-0.66c0.91-0.34,1.82-0.18,2.7,0.13c1.43,0.51,2.76,1.21,3.93,2.18
			c0.18,0.15,0.34,0.33,0.51,0.48C102.82,147.72,103.01,147.85,103.34,148.1z M108.23,131.07c-0.45,0.65-0.75,1.32-0.88,2.03
			c-0.39,2.11-0.74,4.22-1.08,6.33c-0.08,0.51-0.09,1.03-0.15,1.54c-0.11,0.93-0.27,1.86-0.36,2.8c-0.18,1.69-0.34,3.38-0.93,4.98
			c-0.15,0.39,0,0.62,0.31,0.82c1.4,0.91,2.93,1.49,4.56,1.79c1.32,0.24,3.29-0.91,3.59-2.53c0.09-0.51,0.22-1.02,0.4-1.5
			c0.28-0.75,0.31-1.52,0.29-2.3c-0.01-0.4-0.08-0.79-0.12-1.19c-0.06-0.61-0.09-1.22-0.19-1.82c-0.1-0.67-0.25-1.34-0.4-2
			c-0.13-0.57-0.22-1.17-0.47-1.69c-0.52-1.05-0.76-2.23-1.47-3.19c-0.03-0.04-0.03-0.09-0.05-0.13c-0.28-1.04-0.71-1.99-1.49-2.76
			C109.32,131.81,108.9,131.31,108.23,131.07z M96.97,146.91c-0.25,0.03-0.61,0.04-0.95,0.1c-0.77,0.13-1.19,0.76-0.97,1.5
			c0.11,0.38,0.32,0.73,0.5,1.08c0.23,0.45,0.61,0.63,1.09,0.78c1.01,0.32,2.05,0.31,3.07,0.4c0.67,0.06,1.3-0.17,1.85-0.57
			c0.35-0.25,0.39-0.41,0.19-0.77c-0.08-0.14-0.2-0.26-0.32-0.37c-0.54-0.52-1.14-0.96-1.77-1.39
			C98.87,147.14,98.01,146.94,96.97,146.91z"/>
		<path fill="#FFFFFF" d="M200.92,145.7c-0.08,0.23-0.14,0.48-0.24,0.72c-0.14,0.36-0.36,0.65-0.73,0.82
			c-1,0.47-1.99,0.95-2.98,1.43c-0.15,0.07-0.28,0.17-0.45,0.27c0.01,0.16,0.04,0.32,0.03,0.48c-0.03,0.39-0.07,0.79-0.14,1.17
			c-0.07,0.37-0.15,0.74-0.29,1.08c-0.1,0.25-0.27,0.51-0.48,0.67c-1.06,0.86-2.15,1.7-3.43,2.19c-0.82,0.32-1.72,0.45-2.6,0.58
			c-1.16,0.17-2.29-0.17-3.43-0.32c-0.7-0.09-1.31-0.42-1.85-0.82c-0.55-0.4-0.8-1.05-0.95-1.69c-0.31-1.31-0.07-2.56,0.45-3.78
			c0.63-1.47,1.79-2.37,3.21-3c0.15-0.07,0.35-0.08,0.45-0.19c0.15-0.15,0.35-0.37,0.34-0.55c-0.05-1.09,0.27-2.1,0.65-3.08
			c0.3-0.79,0.75-1.51,1.41-2.08c0.63-0.55,1.24-1.14,1.87-1.69c0.17-0.15,0.39-0.26,0.6-0.34c0.73-0.27,1.45-0.55,2.19-0.75
			c0.7-0.19,1.43-0.29,2.14-0.42c0.95-0.18,1.63,0.19,2.13,0.99c0.3,0.49,0.15,0.97-0.39,1.18c-0.55,0.2-1.1,0.42-1.65,0.63
			c-1.22,0.48-1.77,1.41-1.81,2.68c-0.03,0.96-0.06,1.93-0.06,2.89c0,0.83,0.17,0.89,0.82,1.08c1.24,0.36,2.42,0.25,3.57-0.28
			c0.17-0.08,0.35-0.15,0.52-0.22C200.4,145.14,200.46,145.16,200.92,145.7z M191.69,149.76c0-0.56,0-0.94,0-1.31
			c0-0.33-0.11-0.53-0.48-0.55c-0.56-0.04-1.12-0.13-1.68-0.17c-1.08-0.08-2.06,0.27-2.91,0.88c-0.87,0.63-1.1,1.59-1.03,2.63
			c0.07,1.08,0.79,1.76,1.89,1.76c0.25,0,0.53,0.02,0.76,0.11c0.71,0.28,1.37,0.18,2.03-0.18c0.97-0.53,1.04-0.56,1.29-1.68
			C191.67,150.71,191.66,150.13,191.69,149.76z M191.72,144.91c0.03-1,0.06-1.87,0.07-2.73c0.01-0.63,0.17-1.2,0.48-1.74
			c0.29-0.49,0.55-1,0.85-1.55c-0.75,0.2-1.03,0.42-1.51,0.84c-0.76,0.66-1.26,1.51-1.83,2.31c-0.46,0.65-0.59,1.43-0.51,2.22
			c0.01,0.15,0.18,0.38,0.3,0.4C190.24,144.77,190.92,144.82,191.72,144.91z"/>
		<path fill="#FFFFFF" d="M187.9,134.51c-0.21,1.03-0.26,2.22-1.07,3.18c-0.36,0.43-0.58,0.96-0.93,1.4
			c-0.58,0.75-1.28,1.38-2.22,1.66c-0.41,0.13-0.73,0.04-0.89-0.22c-0.19-0.33-0.11-0.63,0.13-0.9c0.57-0.64,0.85-1.39,0.85-2.26
			c0-0.36-0.12-0.57-0.42-0.73c-0.19-0.1-0.37-0.21-0.54-0.34c-1.08-0.87-1.15-2.16-0.34-3.4c0.29-0.45,0.65-0.81,1.14-1.01
			c1.21-0.48,2.35-0.27,3.41,0.41C187.52,132.61,187.91,133.68,187.9,134.51z"/>
	</g>
</g>
</svg>
