<?xml version="1.0" encoding="utf-8"?>
<!-- Generator: Adobe Illustrator 23.0.0, SVG Export Plug-In . SVG Version: 6.00 Build 0)  -->
<svg version="1.1" id="Layer_1" xmlns="http://www.w3.org/2000/svg" xmlns:xlink="http://www.w3.org/1999/xlink" x="0px" y="0px"
	 viewBox="0 0 300 300" enable-background="new 0 0 300 300" xml:space="preserve">
<rect fill="#FCFAE9" width="300" height="300"/>
<rect x="10" y="10" fill="#A4D0C9" width="280" height="280"/>
<g id="lazis">
	<circle fill="#E9AF85" cx="150" cy="150" r="127.5"/>
	<g>
		<path fill="#FFFFFF" d="M115.91,248.53c-0.17,0.65-0.67,0.38-1.15,0.28c-0.42-0.09-0.85-0.14-1.29-0.17
			c-0.44-0.03-0.89-0.01-1.34-0.01c-0.48,0-0.97,0.03-1.45,0c-0.44-0.02-0.88-0.07-1.31-0.14c-1.15-0.19-2.32-0.34-3.45-0.61
			c-0.55-0.13-1.04-0.09-1.58-0.08c-0.46,0.01-1.13-0.03-1.56-0.56c-0.2-0.25-0.63-0.49-0.93-0.46c-0.74,0.08-0.95-0.42-1.04-0.91
			c-0.34-1.87-0.73-3.75-0.86-5.64c-0.06-0.93,0.42-1.9,0.65-2.86c0.02-0.06,0.08-0.12,0.08-0.19c0.04-1.67,0.89-3.08,1.48-4.56
			c0.41-1.04,1.06-1.96,2.27-2.38c0.79-0.28,1.47-0.85,2.21-1.25c0.25-0.13,0.53-0.23,0.81-0.26c1.01-0.09,2.02-0.22,3.03-0.19
			c0.96,0.03,1.91,0.23,2.87,0.35c1.19,0.14,1.39-0.09,1.82-1.21c0.52-1.36,0.6-2.71,0.55-4.15c-0.06-1.91-0.65-3.6-1.54-5.24
			c-0.17-0.31-0.25-0.66-0.39-1.05c-0.7,0.2-1.04,0.82-1.1,1.33c-0.14,1.23-0.99,1.98-1.62,2.88c-0.64,0.91-1.27,1.85-2.01,2.68
			c-1.2,1.34-2.85,1.75-4.55,2.11c-2.66,0.56-5.22-0.01-7.8-0.5c-2-0.38-3.84-1.19-5.62-2.15c-0.83-0.45-1.69-0.84-2.55-1.22
			c-0.19-0.09-0.45-0.04-0.75-0.06c-0.09-0.09-0.29-0.25-0.46-0.43c-0.33-0.35-0.76-0.67-0.93-1.09c-0.72-1.79-0.6-3.53-0.01-5.42
			c0.73-2.32,2.37-3.71,4.23-4.87c0.93-0.58,2.08-1.04,3.34-0.86c1.21,0.17,2.06-0.36,2.78-1.41c0.71-1.04,1.42-2.06,1.85-3.24
			c0.33-0.9,0.56-1.84,0.82-2.76c0.06-0.21,0.12-0.44,0.13-0.66c0.01-0.25,0.05-0.56-0.08-0.73c-0.84-1.12-1.74-2.2-2.59-3.31
			c-0.92-1.18-1.77-2.42-2.73-3.56c-0.81-0.96-1.66-1.93-2.66-2.68c-1.17-0.87-1.68-2.18-2.58-3.22c-0.55-0.64-1.07-1.3-1.6-1.97
			c-0.33-0.41-0.67-0.82-0.95-1.27c-0.55-0.87-1.06-1.77-1.59-2.65c-0.78-1.31-1.57-2.61-2.33-3.92c-0.7-1.21-1.38-2.44-2.07-3.66
			c-0.46-0.82-0.93-1.63-1.41-2.44c-0.39-0.64-0.9-1.22-1.2-1.9c-0.48-1.1-0.83-2.25-1.25-3.38c-0.06-0.17-0.19-0.31-0.26-0.47
			c-0.26-0.58-0.51-1.16-0.77-1.74c-0.26-0.59-0.55-1.16-0.76-1.77c-0.24-0.69-0.41-1.4-0.59-2.11c-0.36-1.47-0.74-2.93-1.05-4.4
			c-0.28-1.33-0.46-2.69-0.72-4.03c-0.12-0.59-0.41-1.16-0.47-1.75c-0.08-0.86-0.08-1.74-0.02-2.61c0.06-0.91-0.1-1.69-0.77-2.3
			c0.48-0.8,0.56-1.58,0.19-2.43c-0.11-0.26-0.03-0.6-0.03-0.9c0-0.19,0.07-0.39,0.03-0.56c-0.21-0.78-0.68-1.57-0.62-2.32
			c0.06-0.65-0.24-0.77-0.51-0.94c0.1-0.84,0.2-1.62,0.3-2.47c-0.11-0.09-0.29-0.25-0.54-0.46c0.45-0.83,0.28-1.62-0.21-2.43
			c-0.24-0.4-0.22-0.96-0.36-1.43c-0.07-0.22-0.26-0.41-0.36-0.63c-0.06-0.12-0.1-0.3-0.05-0.41c0.21-0.55-0.06-0.84-0.57-1.1
			c0.19-0.09,0.33-0.15,0.35-0.16c0.06-0.43,0.17-0.77,0.15-1.11c-0.03-0.44-0.11-0.88-0.24-1.3c-0.33-1.03-0.63-2.08-1.08-3.06
			c-0.31-0.67-0.01-1.32-0.17-1.99c-0.39-1.63-0.62-3.29-0.98-4.92c-0.32-1.47-0.7-2.92-1.13-4.36c-0.31-1.05-0.73-2.06-1.1-3.09
			c-0.05-0.13-0.16-0.27-0.13-0.37c0.42-1.4-0.8-2.45-0.8-3.81c0-0.75-0.71-1.51-1.11-2.26c-0.94,0.18-0.95,0.08-1.38-0.76
			c-0.51-1.03-0.14-1.84,0.42-2.62c0.39-0.54,0.12-1.05,0.02-1.55c-0.25-1.31-0.89-2.45-1.66-3.54c-0.66-0.94-1.19-1.99-1.72-3.02
			c-0.19-0.38-0.21-0.85-0.3-1.28c-0.01-0.06,0-0.17,0.04-0.19c0.72-0.39,0.24-1.32,0.81-1.79c0.01-0.01-0.14-0.21-0.32-0.48
			c0.42-0.74,0.88-1.64,1.43-2.48c0.29-0.44,0.61-0.91,1.19-1.04c0.08-0.02,0.2-0.09,0.24-0.06c0.64,0.56,1.04-0.09,1.37-0.38
			c0.84-0.72,1.79-1.11,2.81-1.47c1.09-0.39,2.11-0.98,3.2-1.37c1.06-0.37,2.18-0.59,3.27-0.89c0.48-0.13,0.93-0.33,1.41-0.45
			c1.41-0.38,2.84-0.68,4.22-1.12c1.69-0.53,3.45-0.64,5.16-1.1c2.48-0.67,5.05-0.96,7.57-1.49c2.48-0.52,4.93-1.14,7.4-1.71
			c0.33-0.08,0.66-0.12,1-0.15c0.1-0.01,0.28,0.02,0.3,0.07c0.37,0.93,1.12,0.47,1.69,0.41c1.65-0.17,3.29-0.4,4.93-0.66
			c2.19-0.36,4.36-0.79,6.54-1.15c1.04-0.17,2.1-0.26,3.15-0.37c2.39-0.24,4.77-0.47,7.16-0.68c1.81-0.16,3.63-0.27,5.45-0.42
			c2.21-0.18,4.41-0.42,6.62-0.56c1.34-0.09,2.69-0.05,4.04-0.05c3.32,0,6.64-0.03,9.96,0.03c2.77,0.04,5.54,0.2,8.3,0.28
			c1.75,0.05,3.5,0.03,5.25,0.08c2.08,0.06,4.17,0.18,6.25,0.23c1.5,0.04,3,0.05,4.49,0.02c0.89-0.02,1.79-0.28,2.68-0.24
			c2.67,0.11,5.34,0.33,8.01,0.48c2.05,0.12,4.11,0.18,6.16,0.29c1.4,0.08,2.79,0.2,4.18,0.32c2.03,0.16,4.07,0.32,6.1,0.51
			c0.6,0.05,1.19,0.17,1.79,0.26c0.92,0.13,1.85,0.25,2.77,0.39c1.56,0.24,3.11,0.52,4.67,0.75c0.95,0.14,1.93,0.13,2.87,0.3
			c1.32,0.24,2.62,0.62,3.93,0.88c1.98,0.4,3.96,0.79,5.95,1.12c2.69,0.44,5.22,1.31,7.44,2.91c0.47,0.34,0.8,0.89,1.2,1.34
			c0.58,0.67,1.12,1.39,1.75,2.01c0.54,0.52,0.55,0.66,0.27,1.31c-0.29,0.68-0.43,1.44-0.58,2.17c-0.13,0.63-0.11,1.29-0.28,1.9
			c-0.13,0.48-0.46,0.92-0.69,1.38c-0.07,0.15-0.11,0.32-0.23,0.67c0.35-0.15,0.56-0.21,0.73-0.32c0.74-0.5,1.55-0.5,2.39-0.4
			c0.26,0.03,0.55,0.04,0.8-0.03c2.01-0.55,4.02-0.23,6.03-0.08c0.62,0.05,1.25,0,1.88,0.01c0.95,0.02,1.78,0.41,2.6,0.86
			c0.55,0.3,1.25,0.44,1.66,0.86c0.95,0.97,2.27,1.17,3.36,1.85c1.88,1.19,3.07,2.9,4.08,4.79c0.42,0.79,0.66,1.68,1.03,2.51
			c0.25,0.57,0.63,1.09,0.85,1.67c0.41,1.11,0.75,2.24,1.08,3.38c0.22,0.75,0.44,1.51,0.53,2.28c0.15,1.34,0.23,2.69,0.28,4.04
			c0.05,1.43-0.24,2.8-0.66,4.17c-0.35,1.17-0.54,2.39-0.8,3.59c-0.04,0.17-0.08,0.36-0.16,0.51c-0.6,1.08-1.2,2.16-1.81,3.24
			c-0.43,0.77-0.82,1.57-1.33,2.28c-0.36,0.51-0.89,0.91-1.34,1.36c-0.63,0.63-1.22,1.29-1.88,1.88c-0.72,0.64-1.49,1.23-2.26,1.8
			c-1.62,1.2-3.2,2.46-4.9,3.55c-1.29,0.83-2.72,1.44-4.11,2.11c-1.92,0.92-3.9,1.73-5.79,2.71c-1.65,0.85-3.26,1.81-4.82,2.82
			c-1.58,1.02-3.1,2.12-4.58,3.27c-1.02,0.79-2,1.67-2.87,2.63c-1.01,1.1-2.08,2.23-2.75,3.54c-0.44,0.87-0.98,1.69-1.46,2.52
			c-0.91,1.59-1.38,3.31-1.78,5.04c-0.36,1.54-0.45,3.15-0.59,4.74c-0.18,2.09-0.34,4.19-0.39,6.29c-0.05,1.97,0.5,3.82,1.49,5.54
			c0.31,0.54,0.5,1.16,0.84,1.68c0.39,0.6,0.78,1.26,1.34,1.66c0.7,0.49,0.67,1.09,0.6,1.75c-0.05,0.44-0.15,0.89-0.26,1.32
			c-0.04,0.16-0.17,0.34-0.31,0.41c-1.63,0.85-3.3,1.07-4.73-0.37c-1.45-1.46-2.46-3.2-3.03-5.22c-0.42-1.52-1.11-2.97-1.72-4.55
			c-0.23,0.26-0.43,0.48-0.62,0.71c-0.04,0.05-0.03,0.14-0.07,0.19c-1.21,1.28-1.21,3.18-2.31,4.52c-0.25,0.31-0.51,0.61-0.75,0.93
			c-0.12,0.16-0.25,0.32-0.3,0.51c-0.33,1.1-0.75,2.13-1.42,3.09c-0.74,1.04-1.29,2.21-1.93,3.32c-0.06,0.1-0.12,0.21-0.2,0.26
			c-1.06,0.71-1.41,1.86-1.86,2.95c-0.15,0.37-0.41,0.7-0.66,1.01c-0.38,0.48-0.54,0.88,0.22,1.09c-0.34,0.27-0.69,0.45-0.91,0.74
			c-0.15,0.2-0.13,0.54-0.16,0.82c-0.03,0.22,0.03,0.46-0.05,0.65c-0.41,1.06-0.87,2.1-1.29,3.15c-0.37,0.94-0.85,1.85-1.05,2.83
			c-0.31,1.47-0.55,2.96-0.22,4.5c0.12,0.55,0.3,1.03,0.5,1.54c0.24,0.6,0.58,0.93,1.23,0.94c1.23,0.02,2.25,0.67,3.33,1.14
			c0.83,0.37,1.74,0.68,2.43,1.24c0.81,0.66,1.45,1.55,2.11,2.38c0.38,0.48,0.7,1.02,0.94,1.58c0.3,0.68,0.49,1.41,0.72,2.13
			c0.26,0.81,0.46,1.64,0.78,2.42c0.46,1.16,0.44,2.27-0.07,3.39c-0.28,0.62-0.53,1.26-0.82,1.87c-0.06,0.13-0.21,0.22-0.33,0.3
			c-0.48,0.32-0.94,0.67-1.45,0.93c-0.3,0.15-0.68,0.18-1.03,0.17c-1.33-0.03-2.65-0.11-3.97-0.14c-0.34-0.01-0.68,0.09-1.01,0.16
			c-0.93,0.2-1.86,0.46-2.8,0.6c-1.16,0.18-2.27,0.6-3.52,0.35c-1.53-0.31-3.11-0.35-4.67-0.52c-1.44-0.16-2.93-0.09-4.29-0.76
			c-0.31-0.15-0.7-0.14-1.04-0.22c-0.86-0.19-1.44-0.73-2-1.38c-0.52-0.61-1.17-1.1-1.78-1.63c-0.91-0.79-1.44-1.8-1.75-2.94
			c-0.08-0.29-0.16-0.58-0.24-0.87c-0.08,0.01-0.16,0.01-0.24,0.02c-0.12,1.22-0.26,2.45-0.36,3.67c-0.11,1.34-0.23,2.68-0.23,4.03
			c0,0.74,0.15,1.51,0.37,2.22c0.32,1.01,0.38,2.13,1.18,2.98c0.23,0.24,0.25,0.7,0.35,1.07c0.14,0.5,0.5,0.7,0.97,0.58
			c1.4-0.37,2.64,0.3,3.95,0.52c0.11,0.02,0.21,0.09,0.32,0.1c1.5,0.06,2.78,0.84,4.16,1.3c0.55,0.18,1.15,0.3,1.64,0.6
			c0.9,0.55,1.96,0.82,2.53,1.93c0.46,0.91,0.88,1.81,1.31,2.73c0.45,0.97,0.48,1.88,0.44,2.89c-0.03,0.65,0.31,1.3,0.36,1.96
			c0.07,0.79,0.15,1.62-0.02,2.38c-0.19,0.87-0.58,1.73-1.03,2.51c-0.19,0.33-0.73,0.5-1.15,0.67c-0.88,0.36-1.76,0.8-2.68,0.98
			c-0.98,0.2-2.02,0.2-3.03,0.19c-1.71-0.02-3.43-0.05-5.14-0.19c-1.65-0.13-3.28-0.47-4.93-0.59c-1.76-0.13-3.53-0.04-5.29-0.17
			c-0.73-0.06-1.52,0.29-2.22-0.26c-0.17-0.13-0.48-0.09-0.72-0.13c-1.01-0.18-2.02-0.34-3.02-0.53c-0.63-0.12-1.28-0.23-1.89-0.42
			c-0.99-0.31-1.79-0.92-2.41-1.76c-0.66-0.89-1.39-1.75-1.97-2.69c-0.28-0.45-0.33-1.06-0.43-1.61c-0.14-0.79-0.22-1.59-0.36-2.37
			c-0.05-0.25-0.28-0.47-0.31-0.72c-0.09-0.57-0.09-1.14-0.17-1.71c-0.12-0.86-0.32-1.72-0.39-2.58c-0.13-1.45-0.18-2.91-0.27-4.37
			c-0.01-0.18,0.02-0.43-0.09-0.51c-0.61-0.48-0.53-1.2-0.7-1.84c-0.22-0.84-0.35-1.71-0.69-2.49c-0.81-1.91-1.19-3.97-2.07-5.86
			c-0.31-0.65-0.69-1.17-1.36-1.51c-0.63-0.33-1.24-0.74-1.79-1.19c-0.39-0.33-0.77-0.36-1.23-0.32c-0.86,0.08-1.73,0.1-2.6,0.13
			c-1.03,0.03-2.07-0.02-3.1,0.08c-0.4,0.04-0.87,0.31-1.14,0.62c-0.95,1.11-1.83,2.27-2.73,3.42c-0.08,0.1-0.18,0.23-0.18,0.35
			c-0.01,1.52-0.93,2.78-1.22,4.22c-0.05,0.24-0.12,0.47-0.18,0.71c-0.16,0.6-0.34,1.2-0.5,1.8c-0.23,0.89-0.4,1.8-0.68,2.68
			c-0.24,0.76-0.61,1.47-0.86,2.23c-0.12,0.35-0.11,0.75-0.15,1.12c-0.03,0.29-0.04,0.6-0.1,0.88c-0.14,0.66-0.28,1.31-0.46,1.96
			c-0.23,0.81-0.45,1.63-0.75,2.42c-0.46,1.23-0.97,2.44-1.48,3.64c-0.16,0.37-0.36,0.73-0.56,1.08c-0.41,0.71-0.83,1.41-1.26,2.11
			c-0.12,0.19-0.26,0.37-0.43,0.51c-0.46,0.41-0.93,0.79-1.37,1.17c0.38,0.93,0.33,0.8-0.49,1.08c-0.78,0.26-1.77,0.17-2.29,1.08
			c-0.08,0.14-0.44,0.26-0.59,0.2c-0.65-0.26-1.27-0.19-1.91,0c-0.08,0.02-0.19-0.12-0.29-0.12c-0.28,0-0.57,0.01-0.85,0.05
			c-0.27,0.04-0.55,0.2-0.8,0.16c-0.6-0.08-1.19-0.29-1.79-0.35C117.3,248.48,116.64,248.53,115.91,248.53z M112.09,206.54
			c0.03-0.01,0.05-0.01,0.05-0.01c0.37,0.36,0.68,0.81,1.11,1.06c1.7,0.98,3.49,1.77,5.42,2.21c0.5,0.12,0.99,0.25,1.47,0.43
			c0.27,0.1,0.48,0.35,0.74,0.44c1.06,0.36,2.12,0.71,3.2,1.01c0.95,0.27,1.92,0.46,2.88,0.69c1.1,0.26,2.2,0.53,3.31,0.76
			c1.05,0.22,2.1,0.47,3.16,0.57c1.71,0.17,3.42,0.24,5.14,0.34c0.44,0.03,0.89,0.02,1.34-0.01c0.78-0.05,1.56-0.13,2.35-0.19
			c0.42-0.03,0.84,0,1.26-0.06c0.93-0.14,1.86-0.32,2.79-0.47c1.32-0.2,2.66-0.33,3.96-0.59c1.34-0.27,2.66-0.64,3.98-1
			c1.49-0.41,2.97-0.85,4.45-1.29c0.28-0.08,0.56-0.18,0.83-0.28c1.09-0.36,2.17-0.74,3.26-1.09c1.75-0.56,3.51-1.06,5.24-1.66
			c1.24-0.43,2.45-0.98,3.67-1.5c1.03-0.44,2.06-0.88,3.07-1.36c0.94-0.45,1.82-1.06,2.79-1.41c0.95-0.34,1.74-0.87,2.55-1.43
			c1.73-1.2,3.53-2.29,5.26-3.49c0.96-0.66,1.9-1.38,2.72-2.2c0.42-0.43,0.65-0.84,1.29-0.4c0.07,0.05,0.29-0.08,0.4-0.17
			c0.57-0.5,1.17-0.98,1.69-1.53c0.86-0.9,1.69-1.82,2.48-2.77c0.72-0.87,1.4-1.79,2.07-2.7c0.74-1,1.45-2.01,2.16-3.03
			c0.37-0.53,0.69-1.1,1.03-1.64c0.34-0.54,0.68-1.07,1.02-1.61c0.54-0.85,1.06-1.71,1.61-2.56c0.35-0.55,0.8-1.05,1.08-1.63
			c0.89-1.82,1.7-3.69,2.6-5.51c0.61-1.23,1.39-2.38,2-3.61c0.34-0.69,0.64-1.45,0.7-2.2c0.22-2.45,0.82-4.82,1.48-7.17
			c0.46-1.64,1.12-3.22,1.03-4.97c-0.03-0.67,0.02-1.35,0.09-2.02c0.12-1.3,0.29-2.59,0.43-3.89c0.04-0.38-0.02-0.67-0.43-0.89
			c-0.43-0.23-0.62-0.64-0.11-1c0.68-0.48,0.66-1.16,0.64-1.86c-0.02-0.76-0.02-1.53-0.09-2.28c-0.13-1.31,0.26-2.65-0.16-3.95
			c-0.04-0.12-0.02-0.27,0-0.4c0.15-1.29,0.28-2.58,0.45-3.87c0.1-0.82,0.2-1.65,0.39-2.46c0.39-1.66,0.83-3.31,1.27-4.95
			c0.51-1.92,1.03-3.85,1.58-5.76c0.42-1.46,0.89-2.91,1.37-4.43c-0.2-0.01-0.38-0.07-0.54-0.03c-0.99,0.25-1.98,0.48-2.95,0.8
			c-1.66,0.55-3.27,1.24-4.94,1.75c-1.37,0.42-2.78,0.68-4.18,0.97c-0.99,0.21-2,0.34-3,0.51c-0.04,0.01-0.08,0.04-0.13,0.05
			c-1.14,0.36-2.27,0.78-3.43,1.07c-1.06,0.26-2.16,0.37-3.24,0.53c-2.7,0.41-5.4,0.8-8.09,1.21c-0.94,0.14-1.9,0.22-2.81,0.49
			c-0.78,0.24-1.51,0.61-2.37,0.56c-0.64-0.04-1.31-0.02-1.94,0.12c-1.57,0.34-3.14,0.6-4.76,0.66c-2.11,0.08-4.22,0.35-6.33,0.56
			c-1.11,0.11-2.2,0.31-3.31,0.42c-0.97,0.1-1.96,0.11-2.93,0.19c-1.54,0.13-3.08,0.34-4.63,0.4c-1.25,0.05-2.5-0.13-3.75-0.1
			c-2.07,0.04-4.13,0.17-6.2,0.23c-0.92,0.03-1.84-0.03-2.76,0c-1.41,0.05-2.82,0.15-4.23,0.22c-0.43,0.02-0.86,0.07-1.28,0
			c-2.21-0.39-4.42-0.46-6.65-0.27c-0.41,0.03-0.84-0.1-1.25-0.2c-0.74-0.17-1.46-0.51-2.2-0.54c-2.83-0.12-5.67-0.15-8.51-0.22
			c-0.31-0.01-0.62-0.1-0.93-0.14c-1-0.15-1.99-0.34-2.99-0.42c-1.49-0.12-2.98-0.12-4.47-0.24c-0.63-0.05-1.23-0.3-1.86-0.41
			c-0.41-0.07-0.84-0.03-1.26-0.05c-0.62-0.03-1.24-0.06-1.86-0.09c-0.2-0.01-0.4-0.01-0.59-0.04c-1.11-0.17-2.21-0.42-3.32-0.49
			c-1.43-0.1-2.88-0.04-4.32-0.11c-0.49-0.02-0.99-0.19-1.47-0.36c-0.6-0.21-1.16-0.58-1.78-0.69c-1.46-0.27-2.95-0.43-4.42-0.61
			c-0.13-0.02-0.29,0.15-0.44,0.23c0.01,0.1,0.02,0.21,0.03,0.31c-0.8-0.24-1.6-0.45-2.39-0.72c-0.31-0.11-0.56-0.42-0.88-0.5
			c-1.01-0.28-2.04-0.51-3.07-0.72c-0.84-0.17-1.69-0.27-2.54-0.43c-0.93-0.17-1.84-0.48-2.77-0.54c-1.55-0.09-3.02-0.39-4.46-0.94
			c-1.56-0.59-3.16-1.08-4.74-1.61c0.07,0.25,0.26,0.35,0.33,0.51c0.08,0.19,0.16,0.49,0.07,0.62c-0.48,0.68-0.52,1.4-0.36,2.17
			c0.1,0.49,0.2,0.99,0.31,1.49c0.21,0.98,0.43,1.96,0.62,2.95c0.29,1.55,0.61,3.1,0.82,4.67c0.26,1.96,1.01,3.83,0.99,5.83
			c0,0.19,0.09,0.39,0.16,0.58c0.11,0.32,0.31,0.63,0.35,0.95c0.09,0.69,0.04,1.4,0.17,2.08c0.3,1.56,0.74,3.09,0.99,4.65
			c0.23,1.43,0.18,2.9,0.77,4.26c0.03,0.08,0.02,0.18,0.04,0.27c0.17,1.04,0.31,2.09,0.51,3.13c0.14,0.74,0.38,1.46,0.53,2.19
			c0.19,0.91,0.25,1.86,0.51,2.75c0.61,2.08,1.3,4.13,1.95,6.19c0.21,0.67,0.34,1.36,0.61,2c0.72,1.71,1.48,3.4,2.24,5.09
			c0.73,1.61,1.48,3.21,2.23,4.81c0.39,0.83,0.8,1.64,1.18,2.47c0.4,0.88,0.99,1.57,1.84,1.91c-0.04,0.26-0.18,0.56-0.09,0.73
			c0.32,0.64,0.67,1.27,1.1,1.84c0.82,1.09,1.72,2.13,2.56,3.22c1.29,1.68,2.53,3.41,3.84,5.08c0.62,0.79,1.36,1.47,2.02,2.23
			c0.54,0.62,1.03,1.28,1.59,1.89c0.81,0.9,1.63,1.79,2.5,2.63c0.46,0.44,1.05,0.75,1.59,1.13c0.09,0.26,0.12,0.71,0.37,0.97
			c0.42,0.45,0.97,0.78,1.45,1.18c0.62,0.51,1.23,1.04,1.84,1.57c1.06,0.93,2.05,1.95,3.18,2.77c0.88,0.64,1.92,1.05,2.87,1.55
			c0.07-0.12,0.12-0.2,0.17-0.27C111.39,205.95,112.09,205.84,112.09,206.54z M157.37,92.18c0,0.03,0,0.06,0.01,0.09
			c0.93-0.05,1.87-0.13,2.8-0.16c0.54-0.02,1.08,0.09,1.61,0.04c2.5-0.21,5-0.46,7.5-0.69c1.35-0.13,2.7-0.24,4.05-0.39
			c0.35-0.04,0.68-0.19,1.03-0.24c0.72-0.1,1.45-0.15,2.17-0.25c1.58-0.22,3.14-0.52,4.73-0.66c1.26-0.11,2.53-0.02,3.8-0.02
			c0.13,0,0.27-0.01,0.4-0.04c0.64-0.14,1.26-0.33,1.9-0.44c2.16-0.35,4.32-0.77,6.5-0.98c1.86-0.18,3.75,0.02,5.57-0.56
			c0.1-0.03,0.22,0.02,0.33,0.03c0.6,0.07,1.21,0.2,1.81,0.19c2.35-0.04,4.69-0.07,7.04-0.2c2.19-0.12,4.39-0.27,6.57-0.55
			c2.43-0.32,4.83-0.77,7.24-1.23c0.77-0.15,1.53-0.49,2.25-0.83c0.67-0.32,1.09-1.27,0.98-1.92c-0.1-0.6-0.2-1.2-0.32-1.79
			c-0.04-0.21-0.1-0.45-0.23-0.62c-1.12-1.46-2.65-2.06-4.44-2.21c-0.93-0.08-1.86-0.24-2.76-0.47c-1.47-0.38-2.9-1-4.39-1.24
			c-4.73-0.76-9.47-1.43-14.22-2.04c-1.82-0.23-3.68-0.22-5.52-0.3c-1.21-0.05-2.49,0.03-3.54-0.62c-0.79-0.49-1.58-0.39-2.39-0.43
			c-1.14-0.05-2.28-0.09-3.42-0.12c-2.4-0.07-4.8-0.13-7.2-0.19c-0.58-0.02-1.16-0.01-1.74-0.07c-1.2-0.13-2.4-0.37-3.6-0.42
			c-1.93-0.08-3.87-0.07-5.8-0.03c-0.91,0.02-1.81,0.19-2.72,0.28c-0.53,0.05-1.07,0.15-1.6,0.1c-1-0.08-2.01-0.46-2.98-0.34
			c-2.24,0.26-4.46-0.39-6.69-0.01c-0.96,0.16-1.97,0-2.96,0.01c-1.34,0.01-2.68,0.06-4.02,0.08c-0.49,0-0.99-0.1-1.47-0.08
			c-1.14,0.05-2.27,0.19-3.41,0.22c-2.72,0.07-5.45,0.05-8.17,0.14c-1.87,0.06-3.75,0.23-5.62,0.39c-1.92,0.16-3.84,0.36-5.76,0.57
			c-2.18,0.23-4.37,0.5-6.55,0.74c-1.71,0.19-3.42,0.35-5.13,0.54c-2.13,0.24-4.26,0.46-6.39,0.75c-1.49,0.2-3.03,0.27-4.41,0.98
			c-0.06,0.03-0.17-0.04-0.26-0.04c-0.26-0.01-0.53-0.03-0.78,0.01c-0.68,0.1-1.34,0.26-2.02,0.36c-1.71,0.26-3.43,0.25-5.14,0.78
			c-1.83,0.57-3.79,0.72-5.69,1.06c-1.06,0.19-2.12,0.37-3.17,0.59c-1.09,0.23-2.18,0.45-3.25,0.75c-0.67,0.19-1.52,0.03-1.96,0.83
			c-0.05,0.09-0.28,0.09-0.43,0.12c-0.68,0.13-1.38,0.21-2.05,0.39c-1.08,0.29-2.12,0.78-3.21,0.95c-1.63,0.24-3.21,0.59-4.7,1.3
			c-0.35,0.17-0.91,0.46-0.9,0.68c0.01,0.64-0.35,0.86-0.77,1.13c-1.25,0.82-1.74,2.14-1.25,3.31c0.07,0.18,0.18,0.43,0.33,0.48
			c0.91,0.29,1.85,0.78,2.76,0.74c2.07-0.09,4.09-0.04,6.14,0.33c2.22,0.39,4.5,0.51,6.76,0.67c1.71,0.12,3.44,0.15,5.15,0.15
			c1.97,0,3.94-0.06,5.91-0.15c1.25-0.05,2.5-0.23,3.75-0.3c1.31-0.08,2.62-0.11,3.93-0.15c0.33-0.01,0.67,0.04,1.01,0.03
			c1.09-0.03,2.18-0.14,3.26-0.09c1.89,0.09,3.78,0.28,5.68,0.42c0.67,0.05,1.34,0.04,2,0.08c0.97,0.05,1.96,0.27,2.9,0.16
			c1.96-0.24,3.89-0.01,5.83,0.12c1.97,0.13,3.94,0.32,5.91,0.43c1.77,0.1,3.55,0.13,5.32,0.2c0.88,0.03,1.75,0.08,2.63,0.12
			c2.26,0.1,4.52,0.2,6.79,0.29c1.59,0.07,3.17,0.18,4.76,0.17c1.13-0.01,2.27-0.22,3.4-0.29c2.01-0.12,4.02-0.2,6.03-0.32
			C154.37,92.4,155.87,92.28,157.37,92.18z M150.17,214.98c0.28,0.27,0.48,0.62,0.76,0.69c0.81,0.22,1.21,0.85,1.56,1.48
			c0.81,1.45,1.27,3.04,1.63,4.66c0.18,0.81,0.38,1.61,0.63,2.41c0.27,0.87,0.64,1.72,0.87,2.6c0.23,0.86,0.35,1.74,0.5,2.62
			c0.18,1.07,0.39,2.14,0.51,3.22c0.1,0.89,0.02,1.8,0.17,2.67c0.31,1.79,0.71,3.56,1.11,5.33c0.29,1.28,0.71,2.5,1.94,3.23
			c0.07,0.04,0.14,0.13,0.16,0.21c0.32,0.95,1.29,1.09,2,1.42c0.89,0.42,1.95,0.47,2.93,0.72c0.74,0.19,1.28,0.08,1.51-0.74
			c0.03-0.1,0.18-0.23,0.26-0.22c0.1,0.02,0.22,0.14,0.27,0.25c0.48,1.05,0.77,1.23,1.87,1.15c0.55-0.04,1.11-0.13,1.65-0.07
			c1.91,0.2,3.8,0.48,5.71,0.69c1.09,0.12,2.19,0.22,3.29,0.23c1.51,0.02,2.98,0.5,4.53,0.27c1.05-0.16,2.09-0.22,3.05-0.74
			c0.48-0.26,0.98-0.55,1.5-0.67c0.65-0.15,0.95-0.56,1.28-1.07c0.59-0.89,0.38-1.87,0.45-2.81c0.08-1.03,0-2.09-0.14-3.12
			c-0.11-0.74-0.45-1.44-0.67-2.16c-0.6-1.94-2.12-2.85-3.88-3.5c-0.5-0.18-1.01-0.37-1.52-0.54c-0.44-0.15-0.88-0.33-1.33-0.44
			c-1.15-0.29-2.31-0.55-3.46-0.82c-0.11-0.03-0.21-0.09-0.29-0.16c-0.52-0.42-1.02-0.29-1.57-0.04c-0.79,0.36-1.63,0.63-2.42,0.98
			c-0.62,0.28-1.21,0.65-1.82,0.96c-0.85,0.43-1.71,0.85-2.57,1.26c-0.43,0.21-0.76-0.05-0.86-0.38c-0.06-0.21,0.14-0.64,0.35-0.76
			c1.35-0.79,2.69-1.6,4.11-2.23c0.69-0.31,0.76-0.68,0.63-1.24c-0.09-0.41-0.27-0.81-0.42-1.21c-0.35-0.95-0.78-1.87-1.04-2.84
			c-0.25-0.94-0.35-1.93-0.5-2.9c-0.04-0.28-0.07-0.57-0.04-0.85c0.12-1.26,0.23-2.53,0.39-3.79c0.19-1.48,0.36-2.97,0.64-4.44
			c0.21-1.06,0.56-2.1,0.88-3.14c0.24-0.76,0.5-1.52,0.85-2.23c0.36-0.74,0.84-1.43,1.27-2.15c-0.05-0.07-0.09-0.13-0.14-0.2
			c-0.25,0.02-0.53-0.04-0.73,0.06c-1.04,0.48-2.05,1.03-3.09,1.5c-0.47,0.21-1,0.41-1.5,0.41c-0.74,0.01-1.33,0.24-1.96,0.59
			c-0.66,0.37-1.4,0.62-2.14,0.79c-1.6,0.39-3.24,0.63-4.82,1.06c-1.34,0.37-2.63,0.92-3.95,1.39c-0.18,0.07-0.37,0.11-0.58,0.18
			c0.14,0.42,0.1,0.65-0.4,0.71c-1.22,0.16-2.43,0.39-3.64,0.6c-0.42,0.07-0.99,0.05-1.22,0.31
			C152.05,215.01,151.12,214.7,150.17,214.98z M212.97,149.71c0.11,0.05,0.22,0.1,0.34,0.16c0.34-0.38,0.69-0.76,1.02-1.15
			c0.74-0.86,1.44-1.77,2.24-2.58c0.82-0.82,1.74-1.54,2.61-2.31c0.85-0.76,1.67-1.55,2.54-2.27c0.8-0.66,1.63-1.29,2.51-1.84
			c1.55-0.98,3.14-1.92,4.72-2.84c0.87-0.51,1.78-0.95,2.67-1.41c0.64-0.32,1.3-0.6,1.93-0.94c1.33-0.7,2.64-1.41,3.96-2.13
			c1-0.55,1.94-1.27,3-1.65c1.14-0.41,2.07-1.02,2.94-1.81c0.31-0.29,0.61-0.63,0.97-0.83c1.45-0.78,2.59-1.82,3.55-3.2
			c0.99-1.41,1.82-2.91,2.79-4.33c0.76-1.1,0.65-2.46,0.88-3.71c0.27-1.45,0.45-2.92,0.59-4.39c0.09-0.89,0.06-1.8,0.02-2.7
			c-0.06-1.16-0.06-2.35-0.31-3.48c-0.25-1.12-0.77-2.2-1.22-3.27c-0.34-0.8-0.7-1.62-1.17-2.35c-0.79-1.23-1.66-2.41-2.52-3.59
			c-1.57-2.14-3.69-3.08-6.34-3.04c-1.41,0.02-2.82-0.21-4.23-0.3c-0.44-0.03-0.88-0.03-1.31,0.03c-1.1,0.15-2.08,0.54-2.7,1.55
			c-0.04,0.07-0.15,0.09-0.22,0.15c-1.13,0.96-2.29,1.88-3.35,2.91c-0.36,0.35-0.74,1.03-0.64,1.45c0.2,0.91-0.22,1.6-0.54,2.3
			c-0.73,1.62-1.55,3.2-2.41,4.76c-0.89,1.6-1.37,3.34-1.96,5.05c-0.2,0.59-0.5,1.24-0.43,1.82c0.14,1.12-0.25,2.11-0.42,3.17
			c-0.14,0.87-0.19,1.97,0.23,2.67c1.05,1.78,2.52,3.27,4.21,4.51c0.14,0.1,0.29,0.22,0.45,0.28c1.13,0.42,2.29,0.31,3.44,0.18
			c0.53-0.06,1.06-0.13,1.56-0.3c1.2-0.41,2.25-1.03,2.79-2.27c0.06-0.13,0.23-0.22,0.33-0.34c0.75-0.9,1.6-1.77,1.6-3.03
			c0-0.68-0.17-1.37-0.35-2.03c-0.47-1.71-0.67-3.54-1.87-4.97c-0.61-0.72-1.12-1.64-2.21-1.71c-0.45-0.03-0.91,0.14-1.36,0.25
			c-0.87,0.2-1.24,0.64-1.39,1.52c-0.12,0.72-0.03,1.41,0.38,2c0.54,0.78,0.86,1.77,1.86,2.14c0.42,0.16,0.87,0.22,1.3,0.34
			c0.52,0.14,0.62,0.54,0.26,0.92c-0.26,0.27-0.46,0.62-0.75,0.86c-0.55,0.45-1.02,1.26-1.84,1c-2-0.64-3.65-1.72-4.19-3.95
			c-0.27-1.11-0.63-2.21-0.75-3.33c-0.17-1.62,0.88-2.82,1.67-4.1c0.45-0.72,0.89-1.39,1.74-1.68c0.77-0.26,1.48-0.55,2.36-0.53
			c1.2,0.03,2.26-0.03,3.45,0.58c1.58,0.81,2.79,1.99,3.79,3.27c1.35,1.73,2.18,3.81,2.16,6.11c0,0.27,0.01,0.55,0.08,0.8
			c0.39,1.38,0.25,2.76-0.19,4.08c-0.37,1.11-0.65,2.27-1.56,3.15c-0.94,0.91-1.72,1.98-2.65,2.89c-0.77,0.75-1.65,1.38-2.5,2.04
			c-0.18,0.14-0.45,0.19-0.68,0.21c-0.98,0.06-1.96,0.08-2.94,0.14c-1.77,0.11-3.53,0.26-5.3,0.37c-0.35,0.02-0.72-0.06-1.06-0.15
			c-1.06-0.26-1.94-0.77-2.76-1.54c-1-0.94-2.21-1.66-3-2.85c-0.71-1.07-1.47-2.11-2.17-3.1c-0.02,0.02-0.17,0.19-0.25,0.39
			c-0.28,0.74-0.79,1.44-0.34,2.29c0.25,0.49,0.44,1.02,0.73,1.48c1.03,1.67,2.45,2.83,4.41,3.25c0.14,0.03,0.34,0.09,0.4,0.19
			c0.42,0.77,1.23,0.93,1.91,1.28c0.41,0.21,0.9,0.29,1.37,0.34c1.41,0.14,2.83,0.17,4.22,0.39c0.89,0.14,1.67,0.02,2.48-0.29
			c0.95-0.37,1.93-0.64,2.95-0.29c0.2,0.07,0.45,0.27,0.5,0.46c0.13,0.52-0.48,1.36-1.03,1.55c-0.94,0.33-1.88,0.66-2.82,1
			c-0.16,0.06-0.29,0.2-0.44,0.29c-0.21,0.13-0.4,0.34-0.63,0.38c-1.19,0.19-2.38,0.44-3.57,0.46c-1.53,0.03-2.94,0.42-4.28,1.08
			c-0.41,0.2-0.78,0.55-1.05,0.91c-0.43,0.57-0.12,1.09,0.24,1.6c0.36,0.5,0.73,0.28,1.12,0.09c0.58-0.28,1.15-0.59,1.75-0.83
			c0.19-0.08,0.62-0.03,0.65,0.06c0.08,0.24,0.09,0.58-0.03,0.79c-0.86,1.5-2.48,2.13-3.72,3.21c-0.12,0.11-0.33,0.18-0.5,0.18
			c-0.78-0.01-1.56,0.04-2.24-0.52c-0.45-0.36-0.98-0.76-1.52-0.83c-1.15-0.16-1.56-1.1-2.19-1.8c-0.19-0.21-0.27-0.5-0.41-0.76
			c-0.14,0.1-0.25,0.16-0.46,0.31c0.2-1.2,0.34-2.27,0.58-3.33c0.23-1.03,0.71-1.92,1.63-2.53c0.19-0.12,0.45-0.35,0.44-0.51
			c-0.02-0.23-0.21-0.51-0.41-0.66c-0.44-0.34-0.93-0.61-1.41-0.9c-0.14-0.09-0.3-0.15-0.45-0.22c-0.07,0.16-0.16,0.31-0.19,0.48
			c-0.19,0.97-0.36,1.94-0.55,2.9c-0.05,0.25-0.26,0.47-0.27,0.72c-0.07,1.47-0.1,2.95-0.16,4.43c-0.03,0.69-0.13,1.38-0.14,2.07
			c-0.02,1.26,0.01,2.51,0.01,3.77C212.97,146.06,212.97,147.88,212.97,149.71z M108.27,231.34c0.02,0.06,0.04,0.13,0.07,0.19
			c-1.58-0.06-2.72,0.76-3.77,1.79c-0.04-0.04-0.08-0.07-0.12-0.11c0.27-0.45,0.55-0.9,0.93-1.52c-0.31,0.17-0.53,0.21-0.62,0.35
			c-0.63,0.94-1.45,1.77-1.68,2.96c-0.15,0.79-0.47,1.55-0.67,2.33c-0.24,0.95-0.45,1.91-0.67,2.86c0.09,0.02,0.18,0.05,0.27,0.07
			c0.54-1.74,1.08-3.48,1.62-5.22c0.07,0.02,0.15,0.05,0.22,0.07c-0.05,0.29-0.08,0.59-0.15,0.88c-0.16,0.67-0.22,1.4-0.53,1.99
			c-0.43,0.81-0.64,1.64-0.57,2.52c0.1,1.31,0.23,2.62,0.4,3.92c0.14,1.09,0.39,1.31,1.51,1.46c0.69,0.09,1.39,0.1,2.08,0.17
			c0.36,0.03,0.71,0.1,1.06,0.16c0.57,0.1,1.14,0.28,1.72,0.3c1.73,0.07,3.46,0.1,5.18,0.11c1.35,0.01,2.7-0.07,4.05-0.06
			c0.92,0.01,1.83,0.11,2.75,0.16c2.34,0.11,4.28-0.71,5.69-2.59c1.04-1.38,1.98-2.81,2.48-4.51c0.49-1.67,1.17-3.28,1.67-4.95
			c0.51-1.69,0.9-3.41,1.37-5.11c0.49-1.78,1.02-3.54,1.52-5.32c0.38-1.36,0.62-2.78,1.13-4.09c0.51-1.32,1.28-2.54,1.92-3.82
			c0.1-0.21,0.22-0.47,0.16-0.67c-0.03-0.11-0.39-0.22-0.59-0.19c-0.83,0.11-1.62-0.07-2.51,0.37c-0.98,0.49-2.27,0.37-3.4-0.05
			c-0.66-0.25-1.34-0.72-1.98-0.67c-0.71,0.06-1.27-0.03-1.88-0.35c-0.43-0.22-0.93-0.3-1.41-0.45c-1.6-0.49-3.32-0.54-4.83-1.34
			c-0.45-0.24-0.92-0.45-1.38-0.68c-1.26-0.64-2.68-0.92-3.82-1.83c-0.41-0.33-0.97-0.46-1.46-0.68c-1.33-0.59-2.82-0.83-3.91-1.93
			c-0.5-0.51-1.18-0.79-2.08-0.55c0.28,0.31,0.48,0.56,0.71,0.79c0.94,0.95,1.94,1.85,2.82,2.85c1.17,1.34,2.46,2.57,3.25,4.23
			c0.2,0.42,0.4,0.81,0.47,1.27c0.02,0.13,0.18,0.24,0.25,0.37c0.43,0.81,1.09,1.59,1.22,2.44c0.21,1.35,1.07,2.55,0.85,3.97
			c-0.01,0.06,0.06,0.12,0.07,0.19c0.08,0.81,0.21,1.63-0.29,2.22c0,0.34,0.05,0.6-0.01,0.83c-0.22,0.92-0.48,1.82-0.7,2.74
			c-0.03,0.15,0.05,0.41,0.17,0.49c0.32,0.23,0.67,0.46,1.05,0.56c1.62,0.46,2.76,1.62,3.93,2.71c0.32,0.3,0.54,0.71,0.74,1.1
			c0.06,0.12-0.06,0.48-0.12,0.49c-0.44,0.05-0.99,0.19-1.32,0c-0.51-0.3-0.89-0.84-1.3-1.29c-0.99-1.06-2.3-1.55-3.61-1.99
			c-0.53-0.18-1.16-0.25-1.7-0.14c-0.4,0.08-0.66,0.11-0.95-0.19c-0.31-0.32-0.66-0.46-0.88-0.05c-0.53-0.13-1-0.37-1.44-0.32
			c-0.6,0.07-1.29-0.28-1.82,0.32c-0.1,0.11-0.48,0.11-0.64,0.01c-0.59-0.36-0.71,0.09-0.97,0.47
			C108.02,231.36,108.14,231.35,108.27,231.34z M193.53,195.25c-0.65,0.69-1.23,1.41-1.92,2c-1.97,1.67-3.94,3.36-6.01,4.91
			c-1.45,1.08-3.05,1.95-4.62,2.87c-0.41,0.24-0.95,0.23-1.37,0.46c-0.79,0.44-1.13,1.19-1.39,2.05c-0.25,0.83-0.67,1.63-1.11,2.37
			c-0.21,0.35-0.18,0.56,0.1,0.72c0.49,0.27,0.53,0.63,0.31,1.08c-0.47,0.96-0.44,1.98-0.55,3.01c-0.21,2.12,0.77,3.56,2.32,4.78
			c0.35,0.28,0.74,0.54,1,0.89c0.45,0.61,1.07,0.87,1.76,1.03c0.2,0.05,0.4,0.08,0.6,0.1c1.24,0.15,2.48,0.31,3.73,0.44
			c0.55,0.06,1.12,0.03,1.67,0.09c1.4,0.17,2.79,0.39,4.18,0.56c0.35,0.04,0.71,0.02,1.06-0.02c0.37-0.04,0.75-0.12,1.11-0.23
			c0.52-0.16,1.02-0.38,1.53-0.54c0.19-0.06,0.43,0.02,0.6-0.07c1.05-0.52,2.15-0.18,3.22-0.21c0.82-0.02,1.64-0.01,2.46-0.02
			c0.97-0.01,1.54-0.62,1.86-1.42c0.29-0.74,0.7-1.6,0.58-2.32c-0.29-1.74-0.83-3.44-1.32-5.14c-0.63-2.2-2.14-3.61-4.22-4.46
			c-0.91-0.37-1.83-0.69-2.76-1.03c-0.12-0.04-0.26-0.04-0.39-0.03c-0.68,0.07-1.37,0.13-2.05,0.25c-0.43,0.08-0.89,0.18-1.25,0.4
			c-0.66,0.41-1.27,0.89-1.87,1.38c-0.33,0.27-0.63,0.59-0.86,0.94c-0.29,0.43-0.67,0.65-1.14,0.49c-0.47-0.16-0.52-0.58-0.36-1.01
			c0.08-0.23,0.2-0.44,0.31-0.66c0.44-0.88,1.28-1.32,2.06-1.81c0.56-0.35,0.88-1.03,1.69-1.07c0.34-0.01,0.49-0.43,0.42-0.91
			c-0.21-1.55-0.41-3.1-0.44-4.66c-0.03-1.21,0.09-2.45,0.89-3.49c0.17-0.23,0.31-0.51,0.39-0.78
			C193.83,195.88,194.02,195.48,193.53,195.25z M201.08,92.34c-0.01,0.05-0.02,0.09-0.03,0.14c-0.3,0-0.6,0-0.9,0
			c-0.92-0.01-1.83-0.05-2.75-0.04c-2.65,0.04-4.48,1.6-6.07,3.45c-1.04,1.22-1.76,2.67-2.39,4.18c-0.59,1.42-0.79,2.9-0.82,4.33
			c-0.05,2.44,0.31,4.9,0.47,7.35c0.09,1.35-0.44,2.5-1.37,3.45c-0.37,0.38-0.85,0.64-1.25,1c-1.23,1.12-3.04,1.35-4.32,0.35
			c-0.56-0.44-1.18-1.19-1.23-1.84c-0.08-1.09,0.14-2.25,0.47-3.31c0.37-1.16,0.98-2.26,1.53-3.35c0.74-1.47,0.88-3.04,0.88-4.64
			c0-0.43,0.03-0.99-0.61-1.13c-0.07-0.02-0.15-0.16-0.17-0.26c-0.22-0.96-0.4-1.92-0.64-2.88c-0.43-1.76-1.44-3.18-2.88-4.22
			c-0.74-0.53-1.69-0.78-2.57-1.08c-0.84-0.29-1.7-0.53-2.57-0.7c-0.47-0.09-0.99-0.03-1.47,0.08c-1,0.23-2,0.49-2.96,0.83
			c-0.64,0.22-1.31,0.5-1.81,0.94c-0.97,0.85-1.8,1.86-2.75,2.74c-1.05,0.98-1.05,2.16-0.95,3.45c0.1,1.27,0.06,2.55,0.01,3.83
			c-0.04,0.95-0.68,1.89,0.02,2.83c0.02,0.03,0.01,0.09,0.02,0.13c0.16,1.3,0.34,2.6,0.48,3.9c0.1,0.91,0.59,1.49,1.43,1.76
			c0.87,0.28,1.78,0.45,2.64,0.76c0.87,0.31,1.7,0.09,2.49-0.13c2.27-0.63,3.6-2.24,4.3-4.43c0.15-0.46,0.19-0.98,0.44-1.39
			c0.59-0.97,0.56-2.05,0.51-3.07c-0.06-1.3-0.76-2.42-1.66-3.38c-1-1.06-1.43-1.17-2.69-0.62c-0.02,0.01-0.07-0.03-0.1-0.05
			c0.06-0.15,0.13-0.3,0.19-0.45c-0.04-0.06-0.09-0.12-0.13-0.18c-0.33,0.18-0.66,0.35-0.98,0.55c-0.01,0.01,0.1,0.35,0.18,0.36
			c0.97,0.15,1.54,0.89,2.1,1.54c0.78,0.92,1.26,1.96,1.32,3.27c0.08,2.04-0.76,4.06-3.12,4.3c-0.49,0.05-1.03-0.1-1.46,0.06
			c-1.13,0.42-1.86-0.16-2.52-0.88c-1.39-1.51-2.27-3.35-2.8-5.3c-0.23-0.85-0.52-1.86,0.12-2.78c0.4-0.58,0.7-1.23,1.04-1.86
			c0.5-0.91,1.07-1.76,2.02-2.27c0.49-0.27,0.97-0.56,1.44-0.86c1.59-1.01,3.2-1.94,5.21-1.42c0.06,0.02,0.13-0.01,0.2-0.02
			c0.95-0.12,1.79,0.12,2.63,0.59c1.28,0.72,2.16,1.8,3,2.94c0.4,0.55,0.88,1.17,0.95,1.79c0.16,1.39,0.14,2.8,0.08,4.2
			c-0.06,1.15-0.26,2.26-0.75,3.36c-0.65,1.44-1.06,2.99-1.48,4.52c-0.31,1.14-0.47,2.32-0.64,3.48c-0.04,0.3,0.06,0.67,0.21,0.95
			c0.32,0.56,0.73,1.07,1.1,1.61c0.51,0.76,1.34,1.05,2.14,1.1c1.87,0.11,3.68-0.31,5.47-0.82c1.25-0.35,1.98-1.19,2.44-2.31
			c0.32-0.78,0.53-1.62,0.89-2.39c0.46-0.99,0.56-1.99,0.34-3.02c-0.27-1.29-0.66-2.56-0.85-3.86c-0.15-1.05-0.11-2.14-0.08-3.21
			c0.02-0.6,0.14-1.21,0.31-1.79c0.24-0.82,0.44-1.71,0.9-2.41c0.84-1.26,1.89-2.37,2.8-3.59c0.67-0.91,1.54-1.49,2.61-1.77
			c0.65-0.17,1.31-0.31,1.98-0.38c0.88-0.1,1.73-0.03,2.5,0.52c0.82,0.58,1.75,1.02,2.53,1.64c1.16,0.93,2.36,1.87,3.31,3
			c1.15,1.37,1.94,2.95,2.24,4.81c0.3,1.87,0.33,3.68,0.05,5.53c-0.01,0.08-0.01,0.18,0.02,0.26c0.34,0.89-0.11,1.69-0.52,2.35
			c-0.52,0.8-1.3,1.45-2.02,2.1c-0.17,0.16-0.56,0.07-0.84,0.11c-0.42,0.06-0.83,0.13-1.24,0.22c-0.14,0.03-0.26,0.18-0.41,0.21
			c-0.89,0.16-1.79,0.41-2.69,0.43c-0.98,0.01-1.9-0.36-2.67-1c-0.64-0.53-1.13-1.13-1.55-1.88c-0.67-1.18-1.18-2.38-1.3-3.72
			c-0.07-0.75-0.14-1.59,0.13-2.25c0.43-1.02,1.2-1.88,2.22-2.42c0.5-0.27,1.1-0.37,1.6-0.63c1-0.52,1.81-0.27,2.29,0.76
			c0.3,0.64,0.61,1.27,0.99,2.05c0.12-0.29,0.19-0.42,0.22-0.56c0.22-1.19-0.23-2.25-0.65-3.31c-0.23-0.58-0.65-1.01-1.3-1.18
			c-0.36-0.1-0.69-0.27-1.03-0.41c-0.32-0.13-0.61-0.27-0.87,0.15c-0.13,0.2-0.4,0.33-0.63,0.46c-0.54,0.3-1.31,0.43-1.61,0.88
			c-0.62,0.95-1.45,1.71-2.04,2.7c-1.16,1.96-1.09,3.89-0.45,5.88c0.54,1.68,1.59,3.08,2.75,4.4c0.92,1.05,1.82,2.11,3.07,2.78
			c0.21,0.11,0.44,0.25,0.67,0.27c0.78,0.05,1.57,0.09,2.35,0.08c1.78-0.04,3.18-0.88,4.31-2.18c0.97-1.13,1.94-2.28,2.76-3.52
			c0.53-0.8,0.9-1.74,1.19-2.66c0.52-1.67,0.31-3.39,0.1-5.08c-0.11-0.88-0.25-1.81-0.62-2.61c-0.76-1.64-1.68-3.21-2.53-4.8
			c-0.04-0.07-0.12-0.12-0.18-0.19c-0.82-0.81-1.64-1.63-2.48-2.42c-0.97-0.93-1.88-1.95-2.97-2.71c-0.78-0.54-1.78-0.98-2.86-0.45
			C200.69,92.11,200.89,92.23,201.08,92.34z M152.63,102.65c-0.05-0.07-0.1-0.13-0.15-0.2c-0.33,0.02-0.67,0.04-1,0.05
			c-2.58,0.09-4.06,1.97-4.31,3.59c-0.11,0.74-0.14,1.54-0.01,2.27c0.19,1.13,0.4,2.23,1.33,3.14c1.01,0.99,2.3,1.4,3.39,2.16
			c1.03,0.72,2.14,0.8,3.28,0.73c0.68-0.04,1.35-0.23,2.01-0.42c1.32-0.38,2.3-1.23,2.94-2.44c0.46-0.89,0.21-2.08,1.15-2.78
			c0.01-0.01,0.01-0.04,0.02-0.06c0.51-1.18,0.88-2.38,0.99-3.68c0.17-2.04,0.09-3.96-0.91-5.87c-0.77-1.47-1.85-2.49-3.18-3.33
			c-0.35-0.22-0.85-0.22-1.29-0.3c-0.36-0.07-0.72-0.11-1.08-0.18c-0.23-0.05-0.46-0.18-0.69-0.2c-1.21-0.08-2.42-0.18-3.62-0.2
			c-1.66-0.04-3.33-0.05-4.99-0.03c-2.32,0.04-4.32,0.78-5.62,2.84c-0.53,0.84-0.98,1.74-1.45,2.62c-0.7,1.32-0.84,2.75-0.63,4.19
			c0.26,1.78,0.57,3.53,1.49,5.14c0.5,0.88,0.78,1.89,1.19,2.82c0.48,1.09,1.02,2.15,1.48,3.24c0.39,0.93,0.31,1.91-0.37,2.63
			c-0.61,0.64-1.48,1-2.39,1.04c-1.16,0.06-2.06-0.66-3.01-1.18c-0.64-0.35-1-0.87-1.06-1.59c-0.07-0.9-0.2-1.8-0.15-2.69
			c0.12-2.22-0.35-4.34-0.94-6.45c-0.21-0.74-0.38-1.51-0.4-2.27c-0.03-1.13-0.39-2.15-1.02-3.01c-0.75-1.02-1.7-1.89-2.55-2.84
			c-0.67-0.75-1.28-1.54-1.96-2.27c-1.14-1.23-2.79-1.5-4.26-2.03c-0.86-0.31-1.92-0.14-2.88-0.08c-1.42,0.08-2.77,0.51-4.03,1.15
			c-0.65,0.33-1.37,0.69-1.51,1.58c-0.03,0.21-0.26,0.54-0.43,0.56c-1.07,0.14-1.3,0.99-1.56,1.8c-0.24,0.72-0.26,1.57-0.67,2.16
			c-0.46,0.66-0.43,1.34-0.55,2.02c-0.23,1.3-0.38,2.61-0.64,3.9c-0.31,1.56-0.71,3.13-0.16,4.7c0.4,1.14,0.85,2.29,1.43,3.35
			c1.31,2.39,3.23,3.88,6.12,3.71c0.69-0.04,1.39-0.1,2.09-0.08c1.02,0.04,1.97-0.01,2.92-0.5c1.22-0.64,2.27-1.37,2.86-2.68
			c0.96-2.13,1.88-4.25,0.7-6.6c-0.03-0.06-0.03-0.13-0.05-0.2c-0.47-1.39-0.98-2.72-2.2-3.69c-0.77-0.61-1.57-1.14-2.5-1.45
			c-0.34-0.11-0.77-0.13-1.11-0.02c-1.05,0.32-1.98,0.86-2.76,1.68c-0.83,0.86-1.67,1.7-1.59,3.01c0.02,0.27,0.26,0.54,0.45,0.77
			c0.14,0.17,0.37,0.25,0.55,0.38c0.9,0.63,1.25,0.5,1.48-0.61c0.06-0.3-0.06-0.63-0.08-0.95c-0.01-0.15-0.03-0.33,0.05-0.44
			c0.21-0.31,0.41-0.68,0.72-0.88c0.57-0.37,1.16-0.94,1.89-0.67c0.71,0.26,1.32,0.75,1.59,1.54c0.15,0.44,0.34,0.88,0.5,1.32
			c0.74,2.11,0.68,4.17-0.6,6.04c-0.44,0.63-0.97,1.35-1.97,1.36c-1.56,0-2.93-0.59-4.3-1.22c-0.34-0.15-0.67-0.4-0.9-0.69
			c-0.75-0.94-1.47-1.91-2.18-2.88c-0.72-0.97-1.21-2.04-1.28-3.27c-0.03-0.52-0.03-1.04-0.11-1.55c-0.2-1.27,0.13-2.43,0.81-3.45
			c0.96-1.43,1.98-2.84,3.41-3.86c0.12-0.09,0.22-0.23,0.31-0.36c1-1.4,2.24-2.39,4.06-2.45c0.57-0.02,1.14-0.23,1.71-0.23
			c0.77,0,1.57,0.03,2.32,0.22c0.87,0.22,1.7,0.63,2.56,0.92c0.55,0.19,0.99,0.43,1.32,0.95c0.37,0.6,0.9,1.1,1.35,1.65
			c0.34,0.42,0.73,0.82,0.96,1.29c0.95,1.99,1.31,4.12,1.43,6.31c0.1,1.87,0.23,3.76,0.54,5.6c0.24,1.41,0.79,2.77,1.18,4.16
			c0.47,1.69,1.8,2.47,3.47,2.03c0.5-0.13,1.01-0.24,1.5-0.4c1.09-0.34,2.21-0.61,3.25-1.06c1.15-0.5,1.24-0.93,0.74-2.11
			c-0.05-0.12-0.1-0.25-0.17-0.37c-0.64-1.03-1.25-2.08-1.94-3.07c-0.81-1.17-1.33-2.45-1.77-3.79c-0.49-1.49-0.65-3.01-0.83-4.55
			c-0.22-1.83,0.21-3.52,1.26-5.02c0.82-1.16,1.86-2.11,3.08-2.86c1.51-0.94,3.08-1.79,4.89-1.82c1.15-0.02,2.34,0.1,3.43,0.41
			c2.23,0.64,4.18,1.75,5.74,3.57c1.06,1.24,1.76,2.58,1.7,4.18c-0.05,1.26-0.36,2.52-0.58,3.78c-0.25,1.49-0.91,2.8-1.85,3.96
			c-0.33,0.41-0.75,0.82-1.22,1.01c-1.02,0.41-2.11,0.5-3.22,0.44c-2.28-0.13-4.45-1.81-4.79-4.03c-0.35-2.32,0.63-4.61,3.16-5.54
			C152.19,103.08,152.4,102.83,152.63,102.65z M98.57,209.47c0.21,0.29,0.32,0.58,0.52,0.68c0.86,0.42,1.77,0.77,2.64,1.18
			c1.43,0.68,2.69,1.57,3.34,3.08c0.14,0.32,0.53,0.82,0.01,1.05c-0.36,0.16-0.9,0.09-1.3-0.04c-0.27-0.09-0.5-0.45-0.64-0.75
			c-0.95-2.09-4.01-3.52-6.24-3.11c-0.79,0.15-1.68,0.4-2.5-0.06c-0.08-0.04-0.24,0.04-0.35,0.08c-0.28,0.12-0.57,0.24-0.84,0.37
			c-0.65,0.31-1.32,0.59-1.93,0.97c-0.44,0.28-0.79,0.71-1.18,1.08c-0.3,0.28-0.6,0.57-0.9,0.86c-0.05-0.04-0.09-0.09-0.14-0.13
			c0.39-0.43,0.75-0.89,1.18-1.27c0.43-0.38,0.94-0.67,1.41-1c-0.1-0.1-0.19-0.19-0.29-0.29c-1.54,0.62-2.47,1.82-3.06,3.32
			c-0.57,1.46-1.13,2.94-0.22,4.48c0.31-1.15-0.38-2.44,0.46-3.37c0.03,1,0.02,2.1,0.11,3.2c0.03,0.35,0.2,0.82,0.47,1.01
			c0.66,0.46,1.39,0.81,2.12,1.15c0.36,0.17,0.77,0.23,1.2,0.35c0.07,0.08,0.17,0.3,0.34,0.38c0.88,0.42,1.76,0.84,2.67,1.19
			c1.65,0.63,3.38,0.83,5.13,1c1.85,0.18,3.65,0.31,5.36-0.61c1.11-0.6,2.17-1.24,2.8-2.4c0.32-0.59,0.59-1.23,0.99-1.75
			c1.17-1.5,2.04-3.1,2.11-5.05c0.01-0.28,0.24-0.61,0.15-0.81c-0.23-0.5-0.54-0.99-0.91-1.4c-0.91-0.98-1.88-1.91-2.82-2.87
			c-0.88-0.89-1.74-1.8-2.62-2.68c-0.68-0.68-1.43-1.29-1.59-2.34c-0.08-0.52-0.23-1.13-0.58-1.47c-0.64-0.65-1.45-1.14-2.16-1.67
			c-1.03,2.68-2.02,5.25-2.99,7.77C98.4,209.54,98.54,209.48,98.57,209.47z M76.19,114.25c0.03,0.35-0.02,0.66,0.09,0.88
			c0.43,0.86,2.63,1.69,3.57,1.43c2.96-0.82,4.47-3.12,5.76-5.64c0.35-0.69,0.57-1.46,0.89-2.17c0.23-0.52,0.57-1,0.81-1.52
			c0.47-1.03,0.82-2.12,1.38-3.09c0.77-1.32,1.67-2.58,2.59-3.81c0.89-1.19,1.97-2.22,3.24-2.99c1.1-0.67,2.31-1.16,3.43-1.81
			c1.2-0.71,2.39-0.52,3.66-0.24c1.56,0.35,2.75,1.26,3.67,2.45c0.76,0.98,1.32,2.14,1.8,3.29c0.62,1.46,1.41,2.91,1.27,4.59
			c-0.01,0.08,0.05,0.17,0.06,0.26c0.02,0.36,0.07,0.71,0.05,1.07c-0.02,0.41-0.13,0.82-0.16,1.24c-0.03,0.63-0.04,1.26-0.03,1.88
			c0,1.52-0.89,2.71-1.54,3.96c-1.05,2.01-2.77,3.23-4.94,4.06c-1.46,0.55-2.64,0.16-3.86-0.29c-1.13-0.42-2-1.28-2.5-2.43
			c-0.2-0.46-0.24-0.99-0.44-1.45c-0.43-0.97-0.22-2.02-0.01-2.89c0.57-2.41,2.07-4.34,4.12-5.68c1.67-1.09,2.66-0.81,3.71,0.88
			c0.33,0.52,0.42,1.23,0.48,1.87c0.02,0.21-0.39,0.47-0.59,0.71c-0.06,0.07-0.11,0.15-0.13,0.23c-0.17,0.58-0.5,1.01-1.03,1.34
			c-0.16,0.1-0.17,0.52-0.13,0.78c0.01,0.08,0.43,0.17,0.63,0.13c0.3-0.06,0.59-0.23,0.87-0.36c1.6-0.78,2.55-2.86,2.02-4.54
			c-0.24-0.77-0.57-1.51-0.9-2.25c-0.52-1.14-2.13-2.27-3.61-1.44c-1.45,0.8-2.9,1.61-4.03,2.87c-0.39,0.43-0.84,0.81-1.18,1.27
			c-0.42,0.55-1.01,1.15-1.06,1.76c-0.09,1.06-0.56,1.95-0.78,2.93c-0.16,0.7,0,1.5,0.11,2.24c0.06,0.38,0.31,0.74,0.49,1.1
			c0.05,0.11,0.22,0.2,0.21,0.29c-0.07,0.75,0.36,1.35,0.53,2.01c0.29,1.15,0.99,1.68,2.04,1.97c0.77,0.21,1.52,0.57,2.31,0.69
			c0.85,0.13,1.81,0.32,2.57,0.06c3.03-1.05,5.55-2.92,7.54-5.43c0.66-0.84,1.15-1.89,0.85-3.08c-0.09-0.38-0.08-0.8-0.05-1.2
			c0.09-1.26,0.3-2.51,0.29-3.76c-0.01-1.66-0.23-3.31-0.26-4.97c-0.04-2.6-1.4-4.41-3.41-5.78c-1.48-1.01-3.17-1.66-4.92-2.05
			c-1.5-0.34-3.03-0.32-4.47,0.17c0,0.28,0,0.51,0,0.69c0.1,0.17,0.19,0.33,0.28,0.49c-0.39-0.1-0.77-0.19-1.18-0.29
			c0.13-0.15,0.22-0.25,0.33-0.38c-0.81-0.17-4.88,2.42-5.19,3.18c-0.3,0.12-0.59,0.15-0.74,0.32c-0.65,0.7-1.25,1.45-1.89,2.16
			c-0.81,0.9-1.34,1.94-1.68,3.09c-0.29,0.96-0.48,1.96-0.85,2.89c-0.51,1.28-0.65,2.72-1.65,3.79c-0.03,0.03-0.02,0.09-0.04,0.13
			c-0.58,0.94-1.16,1.87-1.73,2.82c-0.6,1.01-1.65,1.48-2.57,2.1c-0.3,0.2-0.72,0.31-1.08,0.31c-0.86,0.01-1.25-0.47-1-1.25
			c0.17-0.54,0.47-1.05,0.8-1.52c0.37-0.53,0.84-0.98,1.25-1.49c0.07-0.09,0.05-0.25,0.08-0.44c-0.3,0.18-0.49,0.33-0.71,0.43
			c-1.33,0.63-2.47,1.51-3.52,2.52c-0.23,0.22-0.32,0.58-0.53,0.96C75.9,114.25,76.05,114.25,76.19,114.25z M215.3,91.15
			c0.04,0.05,0.09,0.09,0.13,0.14c-0.22,0.31-0.42,0.62-0.65,0.92c-0.54,0.72-1.09,1.42-1.63,2.14c-0.23,0.32-0.47,0.65-0.63,1
			c-0.22,0.48-0.38,0.99-0.53,1.49c-0.05,0.18-0.1,0.49-0.01,0.55c0.64,0.45,0.32,1.11,0.43,1.67c0.11,0.56,0.2,1.13,0.42,1.65
			c0.24,0.55,0.64,1.02,0.94,1.54c0.24,0.42,0.58,0.85,0.64,1.3c0.17,1.3,0.61,2.41,1.68,3.23c0.24,0.19,0.39,0.52,0.54,0.81
			c0.24,0.46,0.41,0.96,0.68,1.39c0.19,0.29,0.48,0.6,0.78,0.68c0.23,0.07,0.76-0.15,0.81-0.33c0.17-0.59,1-1.3,0.39-1.74
			c-0.72-0.52-1.13-1.16-1.6-1.84c-1.2-1.74-2.26-3.56-2.74-5.64c-0.23-1.01-0.55-2-0.48-3.1c0.04-0.7,0.44-1.13,0.64-1.7
			c0.59-1.68,1.6-3.06,2.94-4.2c0.29-0.25,0.7-0.4,1.07-0.53c0.7-0.23,1.4-0.43,2.12-0.6c1.51-0.37,3.01-0.49,4.48,0.16
			c0.53,0.24,1.07,0.48,1.61,0.68c0.49,0.19,0.88-0.14,1.13-0.85c0.19-0.55-0.23-0.57-0.55-0.71c-0.97-0.42-1.97-0.57-3.02-0.42
			c-1.54,0.23-3.11,0.35-4.63,0.65c-1.1,0.22-2.12,0.74-3.31,0.59c-0.56-0.07-1.23,0.08-1.74,0.35c-0.44,0.24-0.72,0.77-1.03,1.21
			c-0.09,0.12-0.02,0.36-0.02,0.55c0.16-0.07,0.36-0.09,0.47-0.21C214.88,91.73,215.08,91.43,215.3,91.15z M67.45,108.96
			c1.69,1.88,3.49,1.81,5.63,0.69c1.54-0.81,2.71-2.94,2.36-3.7c0.19-0.27,0.45-0.48,0.48-0.72c0.08-0.66,0.17-1.36,0.06-2.01
			c-0.33-1.9-0.74-2.5-2.34-1.88c-0.17,0.06-0.4,0.25-0.4,0.38c0,0.22,0.12,0.58,0.27,0.63c0.83,0.3,0.92,1.05,1,1.71
			c0.14,1.12-0.24,2.14-0.84,3.1c-0.68,1.11-2.38,1.84-3.52,1.28c-1.04-0.51-1.98-1.21-3.04-1.87c0.03,0.35,0.06,0.74,0.09,1.07
			c-0.15,0.12-0.35,0.22-0.46,0.38c-0.04,0.06,0.1,0.37,0.17,0.37c0.21,0,0.42-0.08,0.78-0.16
			C67.61,108.49,67.53,108.7,67.45,108.96z M73.71,94.32c-0.01-0.08-0.03-0.17-0.04-0.25c-1.21-0.06-2.43-0.06-3.64-0.19
			c-0.84-0.09-1.38,0.39-1.85,0.87c-0.75,0.77-1.11,1.83-1.66,2.76c-0.45,0.75-0.62,1.66-0.88,2.52c-0.09,0.29-0.06,0.62-0.07,0.94
			c-0.02,0.43-0.04,0.87-0.07,1.3c-0.04,0-0.08-0.01-0.12-0.01c0.16,0.34,0.32,0.67,0.55,1.16c0.71-1.59,1.38-3.06,2.05-4.56
			c-0.19-0.02-0.35-0.03-0.52-0.05c0.41-0.32,0.81-0.56,1.12-0.89c0.49-0.51,0.87-1.14,1.38-1.63
			C71.01,95.29,72.09,94.31,73.71,94.32z M221.37,103.52c0.57-0.55,0.84-0.94,0.35-1.51c-0.51-0.6-0.77-1.3-0.65-2.1
			c0.21-1.35,1.01-2.45,2.62-1.75c0.16,0.07,0.54-0.02,0.59-0.14c0.16-0.39,0.43-0.97,0.27-1.2c-0.41-0.56-1.45-0.99-2.14-0.43
			c-1.07,0.87-1.91,1.88-1.84,3.37c0.04,0.74,0.01,1.48,0.14,2.2C220.81,102.47,221.12,102.94,221.37,103.52z M83.79,100.63
			c0.44-1.9,0.18-3.54-0.49-5.11c-0.55-1.27-1.58-1.73-2.61-1.3C82.59,95.86,83.23,98.13,83.79,100.63z M193.95,92.71
			c0.04,0.09,0.08,0.18,0.12,0.27c0.91-0.4,1.82-0.81,2.88-1.27C195.7,91.67,194.84,92.23,193.95,92.71z M79.99,93.4
			c-0.01,0.06-0.01,0.13-0.02,0.19c0.84,0.07,1.69,0.15,2.53,0.22c0.01-0.09,0.01-0.18,0.02-0.27
			C81.68,93.49,80.84,93.45,79.99,93.4z M106.09,231.22c0.05,0.09,0.11,0.17,0.16,0.26c0.43,0.19,0.62-0.14,0.79-0.44
			c0.03-0.06-0.11-0.21-0.17-0.32C106.61,230.88,106.35,231.05,106.09,231.22z M228.58,87.51c-0.03,0.05-0.05,0.1-0.08,0.16
			c0.25,0.14,0.49,0.3,0.76,0.38c0.04,0.01,0.2-0.32,0.33-0.54C229.18,87.51,228.88,87.51,228.58,87.51z M198.92,91.89
			c0-0.07,0-0.13,0.01-0.2c-0.58,0-1.17,0-1.75,0c0,0.07,0,0.13,0,0.2C197.76,91.89,198.34,91.89,198.92,91.89z"/>
		<path fill="#FFFFFF" d="M50.19,226.63c0.07,0.25,0.14,0.51,0.21,0.76c-0.21-0.01-0.41-0.02-0.62-0.03
			c0.03-0.24,0.05-0.47,0.08-0.71C49.98,226.65,50.08,226.64,50.19,226.63z"/>
		<path fill="#FFFFFF" d="M193.95,92.71c0.89-0.48,1.75-1.03,3-1.01c-1.06,0.47-1.97,0.87-2.88,1.27
			C194.03,92.89,193.99,92.8,193.95,92.71z"/>
		<path fill="#FFFFFF" d="M112.09,206.54c0.51,0.17,1.03,0.3,1.53,0.51c0.34,0.14,0.64,0.38,0.96,0.58
			c-0.03,0.06-0.06,0.12-0.1,0.18c-0.78-0.43-1.56-0.86-2.35-1.28C112.14,206.52,112.12,206.53,112.09,206.54z"/>
		<path fill="#FFFFFF" d="M106.09,231.22c0.26-0.17,0.52-0.34,0.78-0.5c0.06,0.11,0.2,0.27,0.17,0.32c-0.18,0.3-0.36,0.63-0.79,0.44
			C106.2,231.39,106.14,231.3,106.09,231.22z"/>
		<path fill="#FFFFFF" d="M198.92,91.89c-0.58,0-1.16,0-1.75,0c0-0.07,0-0.13,0-0.2c0.58,0,1.17,0,1.75,0
			C198.93,91.76,198.92,91.83,198.92,91.89z"/>
		<path fill="#FFFFFF" d="M188.63,161.28c0.68-1.11,1.28-2.12,1.9-3.11c0.95-1.52,1.94-3.01,2.89-4.53
			c0.52-0.83,0.95-1.73,1.52-2.53c0.42-0.59,1.01-1.06,1.54-1.57c0.06-0.05,0.2-0.02,0.31-0.02c1.3,0.05,2.3,0.68,2.95,1.75
			c0.18,0.3-0.06,0.95-0.26,1.37c-0.43,0.93-0.98,1.81-1.43,2.74c-0.25,0.52-0.46,1.07-0.59,1.63c-0.25,1.09-1.17,1.66-1.8,2.46
			c-0.1,0.12-0.26,0.19-0.35,0.31c-0.77,1.06-1.53,2.12-2.3,3.18c-0.26,0.36-0.53,0.71-0.82,1.04c-0.37,0.41-0.16,0.8,0.02,1.18
			c0.21,0.44,0.4,0.89,0.64,1.31c0.38,0.65,0.84,1.26,1.18,1.93c0.84,1.65,1.87,3.2,2.42,5c0.25,0.82,0.8,1.55,1.27,2.29
			c0.59,0.94,0.51,1.31-0.37,1.94c-0.4,0.29-0.66,0.77-1.04,1.1c-0.98,0.83-2.26,0.42-2.72-0.74c-0.47-1.19-1.09-2.32-1.62-3.48
			c-0.42-0.92-0.74-1.88-1.2-2.77c-0.37-0.7-0.89-1.32-1.37-1.95c-0.03-0.04-0.41,0.07-0.5,0.2c-0.61,0.86-1.17,1.76-2.05,2.4
			c-1.39,1.01-2.75,2.06-4.16,3.03c-1.07,0.73-2.26,1.28-3.3,2.05c-1.63,1.21-3.5,1.97-5.23,3c-0.11,0.07-0.27,0.13-0.38,0.1
			c-1.72-0.54-2.92,0.62-4.28,1.28c-0.63,0.31-1.2,0.72-1.84,0.99c-0.42,0.18-0.91,0.17-1.35,0.3c-0.5,0.15-0.99,0.36-1.48,0.56
			c-0.25,0.1-0.46,0.31-0.72,0.36c-1.54,0.35-3.1,0.65-4.64,1.01c-0.74,0.17-1.45,0.47-2.2,0.62c-1,0.2-2.03,0.29-3.04,0.46
			c-0.64,0.11-1.27,0.33-1.91,0.39c-0.84,0.09-1.69,0.06-2.53,0.1c-0.45,0.03-0.89,0.11-1.33,0.18c-0.86,0.14-1.72,0.3-2.58,0.42
			c-0.24,0.03-0.49-0.06-0.73-0.06c-0.73,0.01-1.46,0.1-2.19,0.06c-0.69-0.04-1.37-0.21-2.06-0.3c-1.48-0.21-2.97-0.38-4.44-0.63
			c-0.45-0.07-0.86-0.35-1.3-0.51c-1.78-0.66-3.57-1.24-5.49-1.48c-1.27-0.16-2.48-0.71-3.72-1.08c-0.11-0.03-0.21-0.1-0.32-0.1
			c-0.77,0.01-1.4-0.31-2.08-0.64c-0.81-0.39-1.78-0.46-2.63-0.78c-1.16-0.44-2.29-0.99-3.42-1.49c-1.77-0.79-3.21-2.28-5.19-2.62
			c-1.91-0.33-3.46-1.45-5.16-2.23c-1.37-0.63-2.8-1.11-4.2-1.66c-0.02,0.05-0.04,0.1-0.06,0.15c-0.12-0.25-0.23-0.5-0.35-0.75
			c-0.05,0.03-0.09,0.05-0.14,0.08c-0.08,1.15-0.07,2.33-0.27,3.46c-0.3,1.67-0.8,3.34-2,4.56c-1.09,1.11-2.41,2.06-4.16,1.91
			c-0.17-0.02-0.35,0.08-0.53,0.09c-0.59,0.05-1.11-0.02-1.57-0.51c-0.45-0.48-1.01-0.86-1.56-1.24c-0.12-0.08-0.36,0.02-0.48,0.03
			c-0.46-1.06-0.97-2.11-1.37-3.2c-0.15-0.39-0.08-0.88-0.07-1.32c0.02-0.54-0.11-0.95-0.57-1.31c-0.13-0.11-0.08-0.76,0.06-0.84
			c0.56-0.32,0.62-0.85,0.67-1.36c0.23-2.2,1.2-4.02,2.84-5.46c0.9-0.79,1.99-1.08,3.2-0.99c0.39,0.03,0.78-0.08,1.19-0.12
			c-0.25-0.9-0.48-1.68-0.71-2.49c0.05-0.12,0.21-0.32,0.22-0.53c0.04-2.33,0.12-4.66,0.08-6.99c-0.05-2.24-0.24-4.47-0.34-6.71
			c-0.02-0.48,0.15-0.97,0.14-1.45c-0.03-0.92-0.11-1.83-0.19-2.74c-0.04-0.4-0.17-0.79-0.2-1.18c-0.08-1.23-0.13-2.46-0.18-3.7
			c-0.07-1.6-0.23-3.21-0.15-4.81c0.05-1.06,0.06-2.09-0.12-3.13c-0.19-1.08-0.29-2.18-0.37-3.28c-0.04-0.49,0.01-0.98,0.5-1.33
			c0.21-0.15,0.28-0.49,0.39-0.76c0.18-0.46,0.45-0.59,0.89-0.32c0.49,0.29,0.98,0.56,1.36,0.77c0.24,0.83,0.47,1.63,0.69,2.42
			c0.03,0.09-0.04,0.21-0.02,0.3c0.05,0.27,0.02,0.65,0.19,0.78c0.7,0.52,0.56,1.2,0.49,1.88c-0.01,0.12-0.18,0.23-0.25,0.35
			c-0.07,0.14-0.09,0.3-0.14,0.45c0.14-0.04,0.29-0.08,0.49-0.14c0,0.98,0.03,1.97-0.02,2.95c-0.01,0.24-0.43,0.43-0.49,0.69
			c-0.07,0.28,0.06,0.61,0.11,0.98c0.57-0.17,0.66,0.18,0.63,0.62c-0.1,1.4,0.23,2.75,0.45,4.11c0.05,0.29-0.31,0.64-0.54,1.06
			c0.72,0.32,0.86,1.03,0.66,1.97c-0.16-0.14-0.26-0.23-0.37-0.32c-0.01,0.02-0.07,0.05-0.06,0.07c0.04,0.23,0.04,0.64,0.14,0.66
			c0.59,0.15,0.48,0.66,0.52,1.01c0.1,0.95,0.07,1.92,0.13,2.88c0.04,0.63,0.16,1.25,0.25,1.87c0.06,0.45,0.27,0.97-0.47,1.08
			c-0.05,0.01-0.08,0.15-0.15,0.31c0.27-0.03,0.47-0.05,0.82-0.08c-0.13,0.22-0.22,0.34-0.28,0.47c-0.1,0.21-0.25,0.42-0.25,0.63
			c0,0.13,0.23,0.27,0.37,0.4c0.07,0.07,0.22,0.17,0.21,0.18c-0.09,0.16-0.21,0.3-0.32,0.45c0.63,0.34,0.71,1.71,0.14,2.27
			c-0.19,0.19-0.34,0.53-0.34,0.8c0,0.52,0.12,1.03,0.18,1.54c0.16,0.11,0.36,0.27,0.62,0.46c-0.34,0.1-0.59,0.09-0.68,0.21
			c-0.24,0.34-0.03,1.85,0.26,2.23c-0.65,1.05,0.22,2.14-0.16,3.27c0.25-0.05,0.41-0.09,0.61-0.13c0.06,0.39,0.1,0.78,0.18,1.16
			c0.02,0.12,0.11,0.3,0.2,0.33c0.96,0.32,1.68,1.05,2.56,1.49c0.65,0.33,1.24,0.79,1.9,1.11c0.88,0.44,1.79,0.83,2.71,1.18
			c2.3,0.88,4.6,1.75,6.91,2.6c2.55,0.94,5.11,1.85,7.67,2.77c0.37,0.14,0.72,0.35,1.1,0.45c1.98,0.54,3.98,1.03,5.96,1.59
			c1.26,0.36,2.49,0.84,3.74,1.25c0.56,0.18,1.13,0.42,1.73,0.08c0.07-0.04,0.27-0.02,0.3,0.04c0.58,0.97,1.61,0.62,2.44,0.84
			c1.32,0.36,2.67,0.23,4.01,0.16c2.24-0.12,4.49-0.26,6.73-0.34c1.02-0.03,2.06,0.12,3.08,0.09c0.87-0.03,1.79-0.05,2.61-0.32
			c2.7-0.88,5.37-1.87,8.05-2.81c1.86-0.65,3.75-1.23,5.59-1.92c0.81-0.3,1.55-0.79,2.32-1.2c0.71-0.38,1.38-0.85,2.12-1.14
			c2.04-0.8,3.73-2.15,5.53-3.33c0.99-0.65,2.07-1.22,2.94-2.01c1.08-0.97,2.01-2.1,2.94-3.21c0.14-0.17,0.07-0.64-0.05-0.9
			c-0.34-0.75-0.73-1.48-1.16-2.18c-0.3-0.49-0.73-0.9-1.06-1.37c-0.72-1.03-1.48-2.02-1.77-3.29c-0.09-0.39-0.52-0.69-0.66-1.08
			c-0.33-0.94-0.47-1.96-0.89-2.85c-0.46-0.97,0.11-1.84,0.02-2.78c-0.08-0.81,0.93-1.11,1.83-0.69c0.31,0.15,0.66,0.21,1,0.31
			c0.67,0.18,1.03,0.69,1.11,1.31c0.18,1.31,0.58,2.5,1.31,3.62c0.42,0.65,0.46,1.54,0.82,2.25c0.39,0.76,0.95,1.44,1.45,2.15
			C188.08,160.56,188.35,160.9,188.63,161.28z M94.44,175.49c-0.08,0.01-0.16,0.02-0.24,0.02c0.25,0.56,0.44,1.15,0.76,1.67
			c0.44,0.72,2.08,0.65,2.52-0.08c0.95-1.59,1.13-3.39,1.28-5.17c0.04-0.5-0.22-1.08-0.84-1.21c-0.36-0.08-0.91-0.18-1.11,0.01
			C95.46,172.01,93.99,173.26,94.44,175.49z"/>
		<path fill="#FFFFFF" d="M111.76,157.42c0.25-0.7,0.51-1.4,0.73-2.11c0.09-0.29-0.03-0.71,0.13-0.92c0.83-1,1.62-2.06,2.62-2.87
			c0.81-0.66,1.88-1.04,2.87-1.45c1.05-0.43,2.13-0.83,3.23-1.1c0.81-0.2,1.68-0.21,2.52-0.21c0.73-0.01,1.43,0.1,2.15-0.29
			c0.87-0.47,1.83,0.11,1.82,1.09c-0.01,1.27-0.25,2.54-0.25,3.8c0,0.81-0.14,1.67,0.41,2.44c0.2,0.27,0.16,0.73,0.21,1.1
			c0.22,1.62,0.41,3.25,0.66,4.86c0.09,0.57,0.34,1.11,0.5,1.67c0.08,0.27,0.1,0.56,0.14,0.84c0.08,0.44-0.01,0.87,0.49,1.22
			c0.58,0.4,0.33,1.51-0.31,1.82c-0.16,0.07-0.28,0.23-0.43,0.31c-0.15,0.09-0.35,0.23-0.48,0.19c-0.69-0.17-1.37-0.42-2.06-0.59
			c-0.27-0.07-0.62-0.13-0.86-0.02c-1.41,0.65-2.89,0.9-4.44,0.97c-1.26,0.05-2.53,0.02-3.53-0.79c-0.95-0.78-1.76-1.75-2.59-2.66
			c-0.48-0.53-1.03-1.05-1.34-1.67c-0.54-1.07-0.93-2.22-1.37-3.35c-0.28-0.71-0.87-1.34-0.62-2.21
			C111.89,157.46,111.82,157.44,111.76,157.42z M123.59,154.71c0.05-0.01,0.1-0.02,0.16-0.03c0-0.59-0.02-1.17,0.01-1.76
			c0.02-0.46-0.1-0.67-0.57-0.45c-0.36,0.17-0.7,0.41-1.08,0.53c-2.01,0.61-3.3,2.12-4.58,3.63c-0.66,0.79-1.05,1.65-1,2.69
			c0.02,0.44-0.11,0.93,0.02,1.32c0.23,0.69,0.61,1.34,0.93,2c0.05,0.1,0.14,0.17,0.22,0.25c0.65,0.61,1.53,0.86,2.33,0.91
			c1.46,0.08,2.94-0.08,4.4-0.18c0.41-0.03,0.69-0.65,0.57-1.07c-0.18-0.67-0.4-1.33-0.52-2.01
			C124.16,158.61,123.89,156.66,123.59,154.71z"/>
		<path fill="#FFFFFF" d="M142.37,153.57c-1.78,0.06-3.37,0.1-4.95,0.16c-1.08,0.05-2.07-0.28-2.68-1.1
			c-0.33-0.45-0.23-1.22-0.32-1.85c-0.1-0.66,0.2-1.14,0.71-1.5c0.13-0.09,0.43-0.16,0.46-0.12c0.39,0.63,1.04,0.44,1.58,0.46
			c2.17,0.09,4.35,0.27,6.52,0.14c1.39-0.08,2.74-0.67,4.13-0.95c0.57-0.11,1.2-0.11,1.76,0.02c0.52,0.12,0.65,0.76,0.4,1.23
			c-0.55,1.01-1.05,2.06-1.66,3.03c-0.5,0.81-1.15,1.53-1.7,2.32c-0.24,0.35-0.44,0.73-0.61,1.12c-0.2,0.46-0.36,0.88-0.74,1.29
			c-0.32,0.34-0.48,0.94-0.84,1.36c-0.58,0.68-1.12,1.38-1.68,2.07c-0.74,0.9-1.49,1.78-2.23,2.68c-0.11,0.13-0.16,0.3-0.29,0.55
			c0.29,0.02,0.51,0.05,0.72,0.05c2.05-0.01,4.09-0.03,6.14-0.03c1.28,0,2.56,0.03,3.84,0.03c0.55,0,0.85,0.2,0.75,0.81
			c-0.07,0.42,0.13,0.63,0.52,0.87c0.31,0.18,0.56,0.7,0.59,1.09c0.05,0.61-0.48,0.51-0.92,0.54c-1.71,0.11-3.41,0.31-5.12,0.41
			c-0.7,0.04-1.43-0.22-2.1-0.1c-1,0.18-1.9-0.22-2.85-0.26c-0.58-0.02-1.17,0.2-1.76,0.29c-0.17,0.02-0.35-0.07-0.52-0.07
			c-0.55,0-1.1,0.02-1.64,0.05c-0.42,0.02-0.85,0.06-1.27,0.06c-0.36,0.01-0.78-0.14-1.05,0.01c-0.51,0.27-0.76,0-1.16-0.22
			c-0.59-0.33-0.62-0.79-0.48-1.31c0.18-0.68,0.34-1.37,1-1.83c0.87-0.61,0.98-1.73,1.55-2.56c0.82-1.19,1.68-2.37,2.51-3.56
			c0.4-0.57,0.74-1.17,1.14-1.74c0.58-0.83,1.19-1.63,1.77-2.46C142.05,154.28,142.18,153.95,142.37,153.57z"/>
		<path fill="#FFFFFF" d="M163.42,149.56c0.71-0.12,2-0.32,3.29-0.57c0.52-0.1,0.64,0.05,0.58,0.55c-0.14,1.19-0.57,2.31-0.78,3.48
			c-0.1,0.54-0.13,1.1-0.21,1.65c-0.16,1.07-0.35,2.14-0.48,3.21c-0.05,0.37,0.07,0.76,0.04,1.13c-0.02,0.28-0.17,0.56-0.23,0.84
			c-0.05,0.25-0.06,0.5-0.04,0.75c0.04,0.48,0.08,0.95,0.17,1.42c0.06,0.26,0.24,0.49,0.36,0.73c0.05,0.11,0.1,0.23,0.1,0.35
			c0.03,2.04,1.91,3.5,4.03,2.95c0.37-0.09,0.76-0.15,1.14-0.14c0.16,0,0.46,0.23,0.45,0.33c-0.04,0.39-0.09,1.02-0.31,1.09
			c-0.97,0.34-1.65,1.33-2.82,1.21c-0.9-0.09-1.69-0.38-2.4-0.93c-1.25-0.95-2.63-1.79-3.73-2.89c-1.08-1.08-1.4-2.62-1.66-4.1
			c-0.26-1.52-0.57-3.05-0.65-4.59c-0.05-1.08,0.22-2.17,0.4-3.25c0.1-0.62,0.3-1.22,0.44-1.83
			C161.33,149.98,161.5,149.49,163.42,149.56z"/>
		<path fill="#FFFFFF" d="M157.33,233.98c-0.17-1.49-0.33-2.89-0.49-4.28C157.31,230.13,157.72,233.28,157.33,233.98z"/>
		<path fill="#FFFFFF" d="M154.46,221.67c0.74,0.35,1.01,1.23,0.75,2.51C154.95,223.29,154.72,222.52,154.46,221.67z"/>
	</g>
</g>
</svg>
