<?xml version="1.0" encoding="utf-8"?>
<!-- Generator: Adobe Illustrator 23.0.0, SVG Export Plug-In . SVG Version: 6.00 Build 0)  -->
<svg version="1.1" id="Layer_1" xmlns="http://www.w3.org/2000/svg" xmlns:xlink="http://www.w3.org/1999/xlink" x="0px" y="0px"
	 viewBox="0 0 300 300" enable-background="new 0 0 300 300" xml:space="preserve">
<rect fill="#FCFAE9" width="300" height="300"/>
<rect x="10" y="10" fill="#A4D0C9" width="280" height="280"/>
<g id="lily_x27_s">
	<ellipse fill="#E9AF85" cx="150" cy="150" rx="122.49" ry="127.5"/>
	<path fill="#FFFFFF" d="M218.87,178.93c-0.25,0.7-0.48,1.39-0.74,2.05c-0.77,1.96-1.45,3.95-2.54,5.76
		c-0.12,0.2-0.25,0.39-0.32,0.61c-0.46,1.48-1.36,2.69-2.19,3.94c-0.49,0.73-0.98,1.47-1.46,2.21c-0.09,0.13-0.16,0.3-0.18,0.45
		c-0.13,1.47-1.19,2.4-1.89,3.54c-0.07,0.11-0.16,0.21-0.27,0.28c-1.31,0.82-1.85,2.32-2.8,3.46c-0.68,0.81-1.09,1.85-1.64,2.77
		c-0.48,0.81-0.83,1.75-1.89,1.96c-0.13,0.03-0.23,0.22-0.33,0.35c-0.94,1.11-1.87,2.23-2.84,3.32c-1.06,1.2-2.13,2.37-3.21,3.55
		c-1.69,1.84-3.52,3.53-5.51,5.03c-0.15,0.12-0.28,0.27-0.43,0.4c-0.65,0.57-1.15,1.34-2.05,1.55c-0.14,0.03-0.28,0.16-0.4,0.27
		c-1.31,1.28-2.97,2.02-4.36,3.19c-0.35,0.29-0.69,0.59-1.04,0.88c-0.2,0.16-0.38,0.39-0.61,0.47c-1.36,0.47-2.4,1.48-3.56,2.28
		c-2.12,1.46-4.03,3.25-6.42,4.27c-0.23,0.1-0.41,0.33-0.63,0.44c-0.27,0.14-0.56,0.23-0.85,0.32c-0.3,0.09-0.62,0.14-0.91,0.25
		c-1.17,0.42-2.33,0.89-3.52,1.26c-0.73,0.23-1.5,0.31-2.25,0.45c-0.28,0.05-0.56,0.09-0.94,0.15c0.16,0.27,0.24,0.47,0.37,0.62
		c0.88,1.07,1.87,1.99,3.11,2.59c0.77,0.37,1.52,0.82,2.26,1.26c1.21,0.72,1.99,1.84,2.54,3.15c0.16,0.37,0.07,0.74-0.02,1.15
		c-0.33,1.53-1.34,2.49-2.36,3.51c-0.78,0.78-1.73,1.18-2.63,1.72c-0.99,0.6-2.13,0.63-3.13,1.12c-1.22,0.6-2.54,0.79-3.85,1.04
		c-0.34,0.07-0.82,0.05-0.74,0.73c-0.44-0.07-0.95-0.71-1.25,0.2c-0.42-0.47-0.86-0.42-1.35-0.29c-3.06,0.81-6.17,0.77-9.3,0.75
		c-3.01-0.02-5.98-0.39-8.95-0.78c-2.56-0.34-5.11-0.77-7.66-1.16c-2.14-0.33-4.28-0.66-6.42-1.04c-0.46-0.08-0.88-0.34-1.31-0.54
		c-0.29-0.13-0.55-0.37-0.84-0.45c-1.09-0.28-1.81-1.05-2.47-1.92c-0.29-0.38-0.53-0.8-1.14-0.76c-0.4,0.03-0.56-0.36-0.61-0.76
		c-0.26-2.27,1.18-4.72,2.81-5.47c1.19-0.55,2.45-0.93,3.66-1.43c0.68-0.28,1.37-0.57,1.99-0.97c1.07-0.7,2.09-1.48,3.2-2.29
		c-0.23-0.27-0.33-0.48-0.51-0.58c-0.7-0.39-1.42-0.74-2.14-1.1c-0.23-0.12-0.5-0.18-0.68-0.35c-1.76-1.6-3.97-2.36-6.03-3.38
		c-2.07-1.02-4.19-1.92-6.1-3.25c-1.14-0.79-2.23-1.66-3.37-2.43c-1.39-0.94-2.84-1.77-4.21-2.73c-1-0.7-1.93-1.51-2.84-2.34
		c-1.56-1.41-3.1-2.86-4.62-4.32c-0.56-0.54-1.04-1.17-1.57-1.74c-1.3-1.41-2.63-2.8-3.92-4.23c-1.88-2.08-3.73-4.18-5.61-6.26
		c-0.59-0.65-1.23-1.25-1.8-1.91c-0.41-0.46-0.75-0.98-1.11-1.48c-0.47-0.65-0.94-1.31-1.41-1.96c-0.84-1.2-1.69-2.41-2.52-3.62
		c-0.31-0.46-0.58-0.96-0.9-1.41c-0.68-0.95-1.41-1.88-2.08-2.84c-0.33-0.47-0.62-0.99-0.86-1.52c-0.66-1.46-1.74-2.68-2.19-4.27
		c-0.2-0.71-0.73-1.32-1.04-2.01c-0.77-1.75-1.48-3.52-2.25-5.27c-0.49-1.11-1.07-2.18-1.56-3.29c-0.71-1.59-1.37-3.21-2.06-4.81
		c-0.38-0.88-0.75-1.74-0.82-2.73c-0.04-0.65-0.3-1.29-0.47-1.92c-0.68-2.49-1.45-4.95-2.03-7.46c-0.59-2.54-1.03-5.12-1.46-7.7
		c-0.37-2.24-0.64-4.51-0.93-6.76c-0.22-1.74-0.45-3.49-0.61-5.24c-0.18-1.95-0.32-3.9-0.41-5.85c-0.11-2.25-0.17-4.5-0.21-6.76
		c-0.03-1.55,0-3.09,0.04-4.64c0.01-0.52,0.16-1.03,0.25-1.54c0.02-0.13,0.07-0.26,0.08-0.39c0.14-1.65,0.25-3.31,0.41-4.96
		c0.18-1.95,0.36-3.89,0.61-5.83c0.08-0.61,0.39-1.18,0.54-1.79c0.51-1.99,1.04-3.97,1.47-5.97c0.22-1.01,0.82-1.73,1.4-2.45
		c0.62-0.78,1.35-1.51,2.16-2.07c0.72-0.5,1.62-0.74,2.44-1.09c0.18-0.07,0.37-0.09,0.55-0.16c2.11-0.75,4.22-1.5,6.33-2.25
		c1.07-0.38,2.05-0.91,2.81-1.81c0.19-0.22,0.42-0.42,0.66-0.57c1.42-0.85,2.55-2.08,3.8-3.15c1.03-0.88,2.11-1.67,3.42-2.05
		c0.76-0.22,1.49-0.56,2.26-0.75c1.57-0.38,3.14-0.46,4.71,0.03c0.24,0.07,0.5,0.08,0.76,0.09c1.87,0.05,3.6,0.83,5.43,1.11
		c1.35,0.21,2.67,0.62,4.02,0.85c1.84,0.31,3.69,0.62,5.54,0.78c1.14,0.09,2.27-0.27,3.34-0.72c2.01-0.85,3.99-1.75,6.02-2.55
		c1.66-0.66,3.34-1.33,5.06-1.77c1.82-0.47,3.69-0.73,5.56-0.96c0.77-0.09,1.58,0.15,2.37,0.27c1.45,0.22,2.92,0.38,4.35,0.72
		c1.36,0.32,2.7,0.79,4,1.3c1.01,0.39,1.94,0.98,2.93,1.43c1.29,0.58,2.62,1.05,4.02,1.18c0.49,0.04,1.04-0.06,1.49-0.26
		c1.17-0.52,2.3-1.14,3.45-1.7c0.43-0.21,0.88-0.39,1.33-0.55c1.45-0.53,2.88-1.09,4.35-1.54c0.66-0.2,1.38-0.21,2.08-0.23
		c1.65-0.04,3.32-0.27,4.95,0.14c1.01,0.25,2.03,0.57,2.97,1.03c2.86,1.37,5.57,3.09,8.63,3.98c0.78,0.23,1.63,0.34,2.44,0.33
		c1.67-0.03,3.34-0.16,4.98-0.61c1.6-0.43,3.25-0.69,4.89-0.87c1.55-0.17,3.12-0.19,4.67-0.14c1.03,0.04,2.07,0.3,3.09,0.5
		c1.09,0.21,2.19,0.41,3.26,0.72c2.8,0.81,5.24,2.25,7.4,4.33c1.1,1.06,2.45,1.87,3.98,2.26c0.92,0.24,1.84,0.55,2.71,0.94
		c1.29,0.59,2.62,1.04,4.01,1.25c2.17,0.33,4.22,1.02,6.16,2.05c1.1,0.59,2.17,1.26,3.27,1.84c2.21,1.16,3.64,3.07,4.78,5.27
		c0.17,0.32,0.31,0.65,0.49,0.97c0.62,1.12,0.53,2.58-0.28,3.6c-0.25,0.31-0.3,0.54-0.22,0.96c0.13,0.71,0.08,1.45,0.09,2.18
		c0.04,1.86,0.08,3.72-0.25,5.56c-0.06,0.32-0.03,0.66-0.05,0.99c-0.08,1.99-0.15,3.97-0.26,5.96c-0.08,1.34-0.22,2.68-0.35,4.26
		c0.31-0.3,0.48-0.42,0.6-0.59c1.13-1.54,2.55-2.67,4.29-3.39c0.77-0.32,1.5-0.72,2.27-1.02c2.06-0.81,4.18-1.38,6.39-1.5
		c1.21-0.07,2.42-0.26,3.62-0.16c1.39,0.11,2.78,0.41,4.13,0.77c1.04,0.28,2.04,0.73,3.01,1.21c0.99,0.49,1.6,1.48,2.38,2.25
		c0.14,0.13,0.23,0.4,0.37,0.43c1.37,0.27,1.73,1.55,2.24,2.57c0.59,1.16,0.91,2.47,1.34,3.71c0.57,1.64,0.6,3.37,0.79,5.08
		c0.17,1.51,0,3.02,0.04,4.53c0.01,0.23,0.02,0.48-0.04,0.69c-0.39,1.35-0.8,2.7-1.22,4.04c-0.28,0.88-0.64,1.74-0.86,2.63
		c-0.27,1.07-0.96,1.87-1.51,2.75c-0.55,0.88-1.34,1.61-1.84,2.52c-0.5,0.89-1.29,1.39-1.98,2.01c-0.72,0.64-1.58,1.12-2.41,1.61
		c-0.88,0.52-1.8,0.98-2.7,1.46c-0.17,0.09-0.36,0.13-0.54,0.21c-0.8,0.32-1.6,0.63-2.38,0.99c-0.52,0.23-0.99,0.61-1.53,0.79
		c-1.16,0.38-2.04,1.22-2.98,1.93c-0.42,0.32-0.77,0.82-1,1.31c-0.24,0.5-0.91,0.57-0.96,1.2c0,0.03-0.22,0.01-0.33,0.05
		c-0.71,0.27-1.37,0.73-1.6,1.45c-0.16,0.52-0.41,0.91-0.75,1.2c-0.73,0.63-1.19,1.45-1.74,2.22c-1.05,1.49-2.21,2.9-3.33,4.34
		c-0.93,1.21-1.84,2.44-2.79,3.63c-0.52,0.65-1.13,1.21-2.03,1.22c-0.16,0-0.32,0.04-0.47,0.1c-1.21,0.41-2.42,0.82-3.63,1.23
		c-0.61,0.21-1.21,0.28-1.87,0.18c-1.2-0.19-2.39-0.37-3.5-0.94C219.4,178.95,219.16,178.97,218.87,178.93z M79.09,187.26
		l-0.02-0.03c0.17,0.39,0.3,0.81,0.53,1.16c1.37,2.07,2.57,4.26,4.19,6.16c1.93,2.25,3.72,4.63,5.65,6.88
		c2.13,2.47,4.31,4.89,6.53,7.27c1.62,1.73,3.32,3.39,5.02,5.04c0.93,0.9,1.95,1.7,2.94,2.52c0.99,0.82,2.15,1.41,2.93,2.5
		c0.04,0.05,0.1,0.08,0.15,0.12c1.8,1.37,3.57,2.79,5.43,4.08c1.27,0.88,2.64,1.6,4,2.34c1.44,0.79,2.9,1.52,4.36,2.26
		c1.06,0.54,2.11,1.09,3.19,1.58c2.24,1.01,4.56,1.83,6.71,3.05c0.3,0.17,0.65,0.28,0.99,0.36c0.68,0.16,1.35,0.27,2.07,0.25
		c1-0.03,2.02,0.21,3.03,0.31c0.2,0.02,0.4-0.04,0.75-0.09c-0.39-0.85-0.7-1.59-1.06-2.31c-1.02-2.1-2.06-4.19-3.08-6.29
		c-0.44-0.91-0.84-1.85-1.25-2.77c-0.2-0.44-0.41-0.87-0.58-1.32c-0.35-0.95-0.66-1.91-1.03-2.85c-0.4-1.03-0.86-2.04-1.26-3.07
		c-0.39-1-0.72-2.03-1.09-3.04c-0.69-1.91-1.56-3.75-1.95-5.76c-0.04-0.21-0.2-0.4-0.3-0.6c-0.11-0.23-0.25-0.46-0.34-0.71
		c-0.23-0.62-0.43-1.25-0.65-1.87c-0.62-1.77-1.25-3.54-1.85-5.32c-0.25-0.75-0.48-1.51-0.64-2.28c-0.26-1.29-0.47-2.59-0.7-3.93
		c-0.72-0.11-1.41-0.2-2.09-0.33c-2.14-0.42-4.25-0.91-5.85-2.63c-0.04-0.04-0.12-0.03-0.24-0.05c-0.67,0.57-1.51,0.71-2.38,0.74
		c-0.16,0.01-0.31,0.05-0.47,0.08c-1.65,0.24-3.32,0.43-4.96,0.15c-1.24-0.21-2.47-0.19-3.71-0.3c-0.63-0.05-1.26-0.13-1.9-0.21
		c-1.04-0.13-2.08-0.41-3.12-0.38c-1.36,0.04-2.67-0.19-3.99-0.36c-0.14-0.02-0.28,0.07-0.49,0.13c0.1,0.44,0.11,0.86,0.28,1.19
		c0.68,1.31,1.38,2.62,2.12,3.89c1.18,2.01,2.36,4.02,3.23,6.2c0.97,2.42,2.16,4.72,3.51,6.93c1.08,1.76,2.27,3.44,3.44,5.14
		c1.05,1.54,2.07,3.11,3.23,4.56c1.46,1.83,3.07,3.55,4.58,5.34c0.47,0.55,0.83,1.21,1.35,1.98c-0.69,0.01-1.06-0.22-1.38-0.54
		c-0.48-0.48-0.96-0.96-1.41-1.48c-1.01-1.19-2-2.4-2.99-3.61c-0.93-1.14-1.91-2.24-2.74-3.45c-1.6-2.32-3.18-4.66-4.65-7.07
		c-1.07-1.76-1.98-3.63-2.91-5.48c-1.05-2.08-2.03-4.21-3.07-6.29c-0.45-0.91-1.03-1.75-1.48-2.66c-0.58-1.18-1.05-2.41-1.64-3.58
		c-0.42-0.83-0.91-1.48-2.07-1.39c-2.31,0.17-4.46-0.62-6.46-1.75c-0.93-0.53-1.62-1.55-1.5-2.7c0.11-1.04,0.03-2.04-0.01-3.06
		c-0.07-1.76-0.02-3.5,0.33-5.24c0.41-2.07,0.67-4.18,1-6.26c0.1-0.65,0.24-1.3,0.33-1.96c0.19-1.3,0.45-2.61,0.51-3.92
		c0.08-1.62,0.08-3.23,0.41-4.83c0.17-0.81,0.31-1.63,0.4-2.45c0.28-2.44,0.5-4.88,0.8-7.32c0.18-1.44,0.48-2.87,0.71-4.31
		c0.1-0.61,0.15-1.23,0.22-1.86c-1.17-0.33-2.17-0.8-3.34-0.91c0,0.31-0.03,0.54,0,0.76c0.13,0.97,0.17,1.95,0.43,2.91
		c0.23,0.85,0.16,1.79,0.36,2.65c0.59,2.46,0.55,4.95,0.48,7.45c-0.11-0.19-0.19-0.38-0.23-0.59c-0.43-2.51-0.85-5.03-1.27-7.54
		c-0.29-1.76-0.62-3.52-0.85-5.29c-0.07-0.56-0.16-1.13-0.22-1.69c-0.11-1.11-0.01-2.24-0.05-3.36c-0.05-1.46-0.18-2.91-0.23-4.37
		c-0.05-1.56-0.05-3.12-0.06-4.68c-0.01-1.36,0.02-2.72-0.01-4.08c-0.03-1.36-0.14-2.72-0.15-4.08c-0.01-2.42,0.1-4.85,0.02-7.27
		c-0.08-2.39-0.1-4.77,0.14-7.15c0.03-0.27-0.03-0.55-0.06-0.92c-0.46,0.19-0.78,0.33-1.1,0.45c-2.36,0.91-4.7,1.86-7.32,1.38
		c-1.43-0.27-2.76-0.73-3.98-1.57c-1.13-0.79-2.36-1.44-3.27-2.54c-0.01-0.02-0.06-0.01-0.21-0.02c-0.12,0.33-0.28,0.68-0.37,1.05
		c-0.32,1.39-0.63,2.78-0.91,4.18c-0.29,1.46-0.55,2.93-0.82,4.4c-0.23,1.23-0.53,2.46-0.67,3.71c-0.19,1.78-0.27,3.56-0.39,5.35
		c-0.08,1.19-0.19,2.39-0.19,3.58c0,2.36,0.09,4.71,0.12,7.07c0.01,0.44,0.14,0.79,0.52,0.99c1.2,0.61,2.38,1.25,3.61,1.79
		c1.5,0.66,3.04,1.18,4.54,1.84c1.88,0.82,3.72,1.73,5.59,2.56c1,0.44,2.03,0.78,3.05,1.17c0.29,0.11,0.65,0.15,0.59,0.71
		c-0.28-0.03-0.57-0.01-0.82-0.1c-0.97-0.32-1.92-0.67-2.88-1.03c-0.57-0.21-1.13-0.43-1.68-0.68c-1.58-0.7-3.14-1.47-4.74-2.12
		c-2.04-0.83-4.12-1.56-6.08-2.61c-0.46-0.25-1-0.33-1.57-0.52c-0.04,0.39-0.11,0.66-0.09,0.91c0.06,0.69,0.15,1.38,0.23,2.07
		c0.22,2.2,0.38,4.41,0.68,6.6c0.37,2.69,0.82,5.37,1.29,8.05c0.37,2.09,0.81,4.16,1.22,6.24c0.04,0.19,0.1,0.39,0.15,0.58
		c0.24,0.86,0.52,1.71,0.72,2.58c0.65,2.88,1.66,5.65,2.62,8.43c0.43,1.24,1.02,2.43,1.54,3.64c1.62,3.72,3.32,7.4,5.24,10.96
		c0.47,0.87,0.84,1.79,1.33,2.64C78.1,185.98,78.62,186.6,79.09,187.26z M177,178.34c0.34-0.23,0.56-0.34,0.74-0.5
		c1.02-0.9,2.03-1.81,3.04-2.73c0.88-0.81,1.74-1.64,2.4-2.68c0.45-0.71,0.99-1.37,1.56-1.99c0.48-0.52,0.63-1.13,0.71-1.79
		c0.12-0.95,0.24-1.9,0.36-2.85c0.04-0.29,0.12-0.58,0.15-0.88c0.18-1.68,0.35-3.36,0.54-5.04c0.14-1.25,0.33-2.5,0.43-3.75
		c0.08-1.02,0.02-2.05,0.08-3.07c0.09-1.55,0.32-3.09,0.35-4.64c0.04-2.02-0.05-4.04-0.09-6.06c0-0.23-0.01-0.46,0-0.69
		c0.09-1.69,0.27-3.37,0.26-5.06c-0.01-2.18-0.16-4.36-0.24-6.54c-0.01-0.16,0.03-0.33,0.06-0.49c0.59-2.88,0.68-5.78,0.35-8.7
		c-0.26-2.3-0.42-4.62-0.62-6.93c-0.07-0.8-0.06-0.85-0.78-1.02c-2.66-0.61-5.19-1.61-7.7-2.66c-2.26-0.94-4.6-1.34-7.01-1.33
		c-1.02,0-2.04,0.05-3.05,0.19c-2.27,0.33-4.56,0.62-6.79,1.13c-1.89,0.43-3.73,1.11-5.58,1.74c-2.75,0.94-5.55,1.19-8.41,0.8
		c-4.51-0.61-8.68-2.3-12.78-4.25c-1.12-0.54-2.3-1.03-3.5-1.31c-2.16-0.51-4.39-0.49-6.57-0.18c-1.69,0.24-3.34,0.82-4.99,1.32
		c-0.78,0.24-1.49,0.79-2.28,0.97c-1.92,0.44-3.78,1.15-5.76,1.41c-1.53,0.21-2.9-0.02-4.27-0.65c-2.19-1-4.38-1.99-6.58-2.95
		c-1.41-0.61-2.84-1.18-4.27-1.73c-0.98-0.38-1.98-0.73-2.98-1.06c-0.91-0.3-1.83-0.57-2.75-0.86c-2.33-0.74-4.69-0.86-7.1-0.6
		c-1.2,0.13-1.64,0.93-1.59,1.93c0.03,0.56,0.03,1.13-0.01,1.69c-0.09,1.45-0.26,2.89-0.29,4.34c-0.03,1.29,0.1,2.58,0.14,3.87
		c0.04,1.39,0.06,2.78,0.07,4.17c0.01,0.83-0.01,1.65,0.01,2.48c0.03,1.42,0.08,2.85,0.12,4.27c0.03,1.09,0.06,2.18,0.1,3.28
		c0.03,0.93,0.07,1.85,0.09,2.78c0.01,0.46-0.05,0.92,0,1.37c0.18,1.71,0.56,3.39,0.47,5.13c-0.02,0.46,0.11,0.92,0.16,1.38
		c0.04,0.33,0.2,0.54,0.53,0.61c0.99,0.21,1.97,0.43,3.02,0.66c0.09-0.52,0.17-0.93,0.23-1.35c0.32-2.54,0.87-5,1.8-7.39
		c0.61-1.56,1.55-2.69,2.9-3.55c0.46-0.3,0.91-0.39,1.45-0.36c1.79,0.1,3.33,0.85,4.81,1.81c1.07,0.69,1.85,1.66,2.05,2.98
		c0.24,1.55,0.15,3.12-0.22,4.64c-0.29,1.22-0.74,2.4-1.11,3.6c-0.27,0.88-0.54,1.75-0.84,2.74c1.8,0.58,3.48,1.19,5.2,1.65
		c2.53,0.68,5.08,1.24,7.61,1.91c0.61,0.16,1.34,0.17,1.8,0.74c-0.12,0.46-0.43,0.41-0.7,0.34c-1.02-0.25-2.04-0.51-3.05-0.78
		c-1.26-0.33-2.53-0.66-3.79-1c-1.85-0.5-3.69-1-5.53-1.52c-0.54-0.15-1.08-0.34-1.73-0.55c-0.23,0.84-0.44,1.56-0.64,2.29
		c-0.65,2.43-1.28,4.86-1.94,7.28c-0.46,1.69-0.98,3.36-1.43,5.05c-0.4,1.53-0.72,3.09-1.1,4.63c-0.5,2.02-1.02,4.04-1.53,6.05
		c-0.45,1.8-0.9,3.59-1.36,5.39c-0.29,1.12-0.65,2.22-0.9,3.34c-0.16,0.72-0.51,1.42-0.39,2.24c0.23,0.04,0.41,0.09,0.6,0.1
		c1.56,0.07,3.12,0.12,4.68,0.18c1.27,0.05,2.55,0.05,3.81,0.16c2.79,0.25,5.56,0.77,8.39,0.68c0.98-0.03,1.97,0.15,2.95,0.22
		c1.13,0.09,2.26,0.17,3.47,0.26c-0.23-1.14-0.42-2.25-0.68-3.33c-0.39-1.68-0.75-3.37-0.63-5.1c0.1-1.34,0.36-2.68,0.56-4.01
		c0.21-1.34,0.44-2.68,0.66-4.02c0.03-0.16,0.06-0.33,0.08-0.49c0.08-0.75,0.15-1.51,0.25-2.25c0.09-0.62,0.25-1.23,0.35-1.85
		c0.1-0.68,0.12-1.38,0.25-2.06c0.1-0.55,0.24-1.11,0.46-1.61c0.41-0.95,0.89-1.88,1.26-2.63c-0.24-0.83-0.51-1.51-0.62-2.21
		c-0.22-1.43-0.09-2.92-0.73-4.28c-0.09-0.19-0.03-0.46-0.04-0.69c-0.07-1.69-0.15-3.38-0.22-5.07c-0.06-1.39-0.12-2.78-0.18-4.17
		c-0.04-0.89-0.09-1.78-0.16-2.68c-0.07-0.99-0.23-1.97-0.23-2.96c0-1.28,0.17-2.56,0.18-3.85c0.01-1.49-0.12-2.98-0.09-4.47
		c0.05-2.21,0.18-4.43,0.3-6.64c0.06-1.12,0.19-2.24,0.24-3.37c0.04-1.09,0.01-2.18,0.03-3.27c0-0.17,0.11-0.34,0.2-0.59
		c0.41,0.32,0.76,0.59,1.09,0.86c0.04,0.04,0.09,0.12,0.08,0.17c-0.06,0.29-0.16,0.56-0.21,0.85c-0.04,0.23-0.04,0.46-0.03,0.7
		c0.11,1.8-0.17,3.57-0.31,5.35c-0.14,1.75-0.25,3.51-0.3,5.27c-0.07,2.65-0.09,5.31-0.11,7.96c-0.01,1.36,0.02,2.72,0.08,4.08
		c0.05,1.12,0.19,2.24,0.24,3.37c0.09,2.09,0.14,4.18,0.22,6.27c0.03,0.72,0.1,1.45,0.15,2.18c0.27,0.1,0.47,0.22,0.68,0.25
		c1.29,0.18,2.58,0.36,3.87,0.49c1.71,0.17,3.46,0.14,5.14,0.49c1.57,0.33,3.15,0.41,4.72,0.64c0.14,0.02,0.29-0.08,0.46-0.13
		c0.45-1.97,0.37-3.97,0.77-5.91c0.36-1.74,0.51-3.54,0.94-5.27c0.87-3.51,2.14-6.88,3.67-10.14c0.57-1.21,1.23-2.39,2.19-3.34
		c0.51-0.5,1.07-0.95,1.57-1.46c1.42-1.42,3.02-2.54,4.86-3.28c0.91-0.37,1.84-0.61,2.8-0.33c0.61,0.18,1.23,0.41,1.78,0.72
		c1.02,0.58,1.95,1.33,2.45,2.43c0.72,1.57,1.05,3.28,1.18,5c0.17,2.17,0.37,4.36,0,6.54c-0.22,1.27-0.34,2.56-0.66,3.8
		c-0.59,2.27-1.3,4.5-1.97,6.75c-0.53,1.8-1.06,3.6-1.59,5.41c-0.04,0.14,0.01,0.31,0.02,0.49c1.37,0.12,2.7,0.26,4.03,0.33
		c0.47,0.03,0.94-0.12,1.42-0.17c0.44-0.05,0.8,0.09,1.05,0.51c-0.28,0.48-0.71,0.47-1.12,0.47c-1.66-0.01-3.32-0.04-4.98-0.06
		c-0.88-0.01-0.93,0.04-1.26,0.88c-0.38,0.95-0.78,1.89-1.2,2.82c-0.43,0.93-0.6,2.02-1.54,2.64c-0.19,0.12-0.26,0.45-0.39,0.68
		c-1.1,2.1-2.19,4.2-3.32,6.28c-0.94,1.73-1.94,3.42-2.9,5.14c-0.1,0.18-0.14,0.43-0.14,0.64c-0.01,1.13,0.03,2.25,0.01,3.38
		c-0.02,1.08,0.23,2.1,0.61,3.09c0.29,0.74,0.71,1.44,0.88,2.2c0.23,1.06,0.97,1.48,1.79,1.72c1.33,0.4,2.65,0.28,3.85-0.56
		c1.56-1.09,3.13-2.17,4.66-3.29c0.46-0.33,0.88-0.75,1.23-1.21c0.81-1.06,1.52-2.21,2.36-3.24c0.63-0.78,0.8-1.68,0.79-2.6
		c-0.02-1.86,0.14-3.69,0.31-5.53c0.2-2.24,0.45-4.49,0.35-6.75c-0.08-1.9-0.11-3.78,0.21-5.66c0.1-0.61,0.11-1.25,0.15-1.87
		c0.07-1.22,0.02-2.46,0.2-3.66c0.4-2.6,0.53-5.21,0.48-7.83c-0.01-0.43,0.02-0.86,0.03-1.29c0.05-1.49,0.13-2.98,0.15-4.47
		c0.02-1.62,0-3.25-0.03-4.87c-0.03-1.55-0.17-3.11-0.16-4.66c0.02-2.35-0.42-4.62-0.91-6.88c-0.26-1.19-0.3-2.36-0.2-3.55
		c0.02-0.21,0.11-0.41,0.18-0.64c0.11,0.09,0.17,0.13,0.21,0.18c0.51,0.61,0.37,1.38,0.47,2.09c0.3,2.2,0.66,4.39,0.88,6.6
		c0.19,1.91,0.23,3.84,0.31,5.76c0.03,0.82-0.05,1.65-0.01,2.47c0.19,3.92-0.07,7.83-0.13,11.75c-0.01,0.92-0.17,1.84-0.23,2.77
		c-0.05,0.79-0.05,1.58-0.1,2.37c-0.04,0.59-0.17,1.16-0.2,1.75c-0.09,1.82-0.07,3.65-0.23,5.46c-0.12,1.38-0.23,2.73-0.14,4.12
		c0.1,1.54-0.03,3.11-0.14,4.65c-0.11,1.65-0.35,3.3-0.47,4.95c-0.05,0.7-0.17,1.43,0.07,2.34c0.28-0.37,0.5-0.57,0.61-0.82
		c0.36-0.81,0.82-1.61,0.98-2.47c0.33-1.78,0.53-3.6,0.74-5.4c0.23-2.01,0.36-4.03,1.15-5.92c0.15-0.36,0.22-0.76,0.35-1.13
		c0.15-0.46,0.31-0.92,0.47-1.38c0.07-0.2,0.18-0.39,0.29-0.62c-0.9-0.27-1.82,0.16-2.61-0.44c0.42-0.13,0.84-0.15,1.26-0.19
		c1.34-0.11,2.62-0.33,3.82-1.11c1.31-0.84,2.75-0.87,4.2-0.23c0.36,0.16,0.79,0.22,1.18,0.21c0.79-0.02,1.59-0.16,2.38-0.19
		c1.3-0.04,2.61,0.03,3.91-0.07c1.55-0.12,3.09-0.36,4.63-0.57c0.66-0.09,1.32-0.29,1.98-0.35c1.71-0.15,3.42-0.26,5.13-0.38
		c0.38-0.03,0.77-0.02,1.15,0.01c0.27,0.02,0.48,0.16,0.45,0.59c-0.3,0.04-0.6,0.12-0.91,0.13c-1.59,0.09-3.19,0.11-4.77,0.27
		c-2.06,0.21-4.12,0.48-6.17,0.81c-1.74,0.28-3.48,0.4-5.24,0.42c-0.78,0.01-1.58-0.02-2.35,0.25c0.55,1.74,0.6,2.69,0.23,4.13
		c-0.66,2.56-1.33,5.12-1.99,7.69c-0.2,0.77-0.43,1.53-0.56,2.31c-0.15,0.95-0.26,1.91-0.29,2.87c-0.03,1.12-0.01,2.25,0.08,3.37
		c0.05,0.62,0.2,1.25,0.42,1.83c0.14,0.38,0.41,0.83,0.74,0.97c1.19,0.52,2.35,0.64,3.49-0.35c1.42-1.23,2.35-2.81,3.05-4.51
		c0.84-2.04,1.49-4.16,2.19-6.25c0.18-0.55,0.25-1.13,0.39-1.7c0.37-1.47,0.83-2.93,1.1-4.42c0.28-1.55,0.8-3.01,1.43-4.42
		c0.38-0.85,1.03-1.59,1.89-1.88c1.89-0.65,3.83,0.45,4.71,2.25c0.06,0.11,0.06,0.26,0.09,0.39c0.21,1.23,0.18,2.42-0.19,3.64
		c-0.69,2.24-1.31,4.5-1.95,6.76c-0.33,1.18-0.62,2.37-0.99,3.54c-0.5,1.6-1.04,3.19-1.6,4.77c-0.34,0.96-0.72,1.9-1.15,2.82
		C177.54,176.56,177.17,177.31,177,178.34z M230.97,104.1c0-0.45,0.02-0.8,0-1.15c-0.04-0.62,0.12-1.27-0.36-1.83
		c-0.91-1.05-1.7-2.22-3.01-2.83c-1.39-0.65-2.61-1.66-4.14-2c-0.74-0.16-1.45-0.5-2.18-0.74c-0.36-0.12-0.73-0.24-1.11-0.3
		c-2.29-0.33-4.45-1.15-6.61-1.96c-1.61-0.61-3.16-1.4-4.71-2.19c-0.76-0.39-1.53-0.85-2.15-1.45c-1.2-1.16-2.48-2.13-3.99-2.83
		c-2.63-1.23-5.38-1.85-8.23-2.01c-1.21-0.07-2.43-0.1-3.63-0.03c-1.77,0.1-3.55,0.28-5.31,0.49c-1.55,0.18-3.09,0.55-4.64,0.65
		c-1.33,0.09-2.67-0.08-4.01-0.15c-1.69-0.09-3.19-0.84-4.68-1.57c-1.01-0.5-2-1.02-3.01-1.51c-0.61-0.29-1.23-0.56-1.85-0.81
		c-0.91-0.36-1.76-0.94-2.81-0.83c-1.77,0.2-3.54,0.4-5.21,1.13c-0.34,0.15-0.78,0.3-1.1,0.19c-0.57-0.18-1,0.08-1.46,0.28
		c-1.58,0.69-3.17,1.36-4.71,2.13c-0.93,0.46-1.86,0.78-2.86,1.02c-0.99,0.23-1.96,0.26-2.93,0.08c-1.41-0.27-2.77-0.72-4.06-1.39
		c-2.7-1.4-5.39-2.85-8.3-3.74c-1.6-0.49-3.19-1.07-4.87-0.72c-1.37,0.29-2.73,0.66-4.06,1.11c-1.3,0.44-2.57,0.99-3.82,1.56
		c-1.02,0.47-1.95,1.13-2.98,1.56c-1.44,0.6-2.87,1.31-4.48,1.3c-0.32,0-0.63,0.1-0.95,0.12c-1.62,0.11-3.25,0.24-4.86-0.1
		c-1.68-0.35-3.36-0.78-5.06-1.02c-2.87-0.41-5.67-1.26-8.57-1.43c-0.29-0.02-0.57-0.1-0.85-0.14c-1.2-0.19-2.39,0.02-3.47,0.51
		c-1.37,0.62-2.66,1.43-3.95,2.21c-0.32,0.19-0.55,0.53-0.81,0.82c-0.32,0.36-0.61,0.75-0.95,1.09c-0.76,0.75-1.64,1.4-2.29,2.24
		c-0.57,0.74-1.21,1.22-2.04,1.55c-1.49,0.58-2.97,1.12-4.53,1.5c-1.7,0.41-3.37,1.01-5.04,1.56c-1.19,0.39-2.28,0.93-2.35,2.49
		c0,0.06-0.04,0.12-0.07,0.18c-0.48,1.21,0.09,2.18,0.67,3.14c0.09,0.15,0.3,0.25,0.47,0.32c2.35,1.03,4.83,1.46,7.35,1.58
		c1.15,0.06,2.32-0.3,3.48-0.49c0.96-0.16,1.97-0.06,2.88-0.53c0.1-0.05,0.25-0.01,0.38-0.01c1.18-0.02,2.36-0.09,3.54-0.04
		c1.08,0.04,2.16,0.15,3.22,0.35c1.12,0.21,2.23,0.53,3.33,0.87c1.58,0.49,3.16,1.01,4.72,1.58c1.35,0.49,2.64,1.17,4.01,1.59
		c1.64,0.5,3.07,1.44,4.62,2.13c1.38,0.62,2.72,1.45,4.26,1.31c1.35-0.12,2.7-0.45,4.03-0.79c1.2-0.31,2.36-0.8,3.55-1.15
		c1.74-0.51,3.49-1,5.26-1.44c1.05-0.26,2.13-0.53,3.2-0.56c1.78-0.06,3.55-0.22,5.34,0.05c1.15,0.18,2.23,0.48,3.29,0.9
		c2.23,0.89,4.44,1.81,6.67,2.68c1.37,0.53,2.75,1.08,4.16,1.46c1.35,0.37,2.75,0.52,4.13,0.78c1.41,0.26,2.73-0.45,4.12-0.4
		c0.18,0.01,0.35-0.13,0.54-0.19c0.33-0.11,0.66-0.3,1-0.31c1.23-0.06,2.35-0.53,3.5-0.93c0.81-0.28,1.64-0.51,2.47-0.7
		c1.27-0.28,2.55-0.52,3.83-0.75c1.66-0.3,3.32-0.59,4.99-0.87c0.19-0.03,0.38,0,0.57-0.01c2.71-0.17,5.25,0.69,7.73,1.58
		c2.46,0.88,4.85,1.96,7.44,2.45c2.48,0.47,4.9,0.58,7.31-0.46c1.7-0.73,3.54-1.1,5.13-2.11c0.66-0.42,1.38-0.64,2.11-0.87
		c0.67-0.21,1.33-0.47,1.99-0.7c0.39-0.13,0.78-0.28,1.18-0.35c1.42-0.24,2.83-0.47,4.25-0.66c0.84-0.11,1.68-0.4,2.54-0.03
		c0.25,0.11,0.57,0.08,0.85,0.05c1.27-0.12,2.46,0.25,3.66,0.61c0.74,0.22,1.4,0.58,2.03,1.07c0.53,0.41,1.13,0.84,1.76,0.97
		c1.43,0.31,2.89,0.51,4.34,0.62c1.28,0.09,2.48-0.29,3.72-0.71c1.63-0.55,2.72-1.57,3.59-3.06c-0.3-0.27-0.57-0.52-0.94-0.86
		C230.54,104.18,230.78,104.14,230.97,104.1z M187.21,176.12c-0.96,0.69-1.46,1.53-1.57,2.73c-0.14,1.57-0.46,3.13-0.74,4.69
		c-0.29,1.62-0.74,3.23-0.91,4.86c-0.37,3.73-1.06,7.39-2.01,11c-0.66,2.48-1.07,5.04-1.95,7.46c-0.16,0.43-0.3,0.88-0.35,1.33
		c-0.24,2.17-1.12,4.13-1.82,6.15c-0.44,1.27-0.91,2.54-1.38,3.8c-1.16,3.05-2.33,6.09-3.48,9.14c-0.13,0.35-0.2,0.73-0.29,1.09
		c0.4-0.04,0.74-0.13,0.84-0.35c0.25-0.57,0.75-0.79,1.21-1.07c1.24-0.75,2.49-1.49,3.74-2.22c3.39-1.98,6.72-4.03,9.94-6.32
		c3-2.14,5.65-4.64,8.05-7.44c1.46-1.71,2.85-3.49,4.31-5.2c2.08-2.44,3.95-5.04,5.65-7.77c0.58-0.94,0.98-1.99,1.57-2.93
		c0.78-1.25,1.66-2.43,2.5-3.64c0.24-0.35,0.53-0.67,0.74-1.04c0.48-0.85,0.91-1.73,1.37-2.59c0.92-1.74,1.86-3.46,2.78-5.21
		c0.33-0.64,0.63-1.3,0.91-1.97c0.57-1.37,1.11-2.74,1.69-4.11c0.16-0.39,0.48-0.74,0.57-1.14c0.35-1.72,1.35-3.14,1.95-4.74
		c0.59-1.56,1.32-3.07,1.39-4.8c0.02-0.47,0.29-0.94,0.45-1.4c0.15-0.44,0.31-0.87,0.45-1.31c0.62-2.02,1.16-4.07,1.86-6.05
		c0.81-2.28,1.4-4.61,1.97-6.95c0.08-0.31,0.14-0.71,0.02-0.97c-0.3-0.63-0.05-1.15,0.12-1.72c0.36-1.26,0.76-2.51,1.04-3.79
		c0.41-1.84,0.76-3.69,1.07-5.55c0.29-1.72,0.49-3.45,0.76-5.17c0.18-1.17,0.44-2.33,0.63-3.51c0.18-1.13,0.37-2.26,0.45-3.4
		c0.13-1.84,0.07-3.69,0.26-5.52c0.23-2.2,0.16-4.41,0.25-6.61c0.05-1.38,0.22-2.84-0.31-4.21c-0.04-0.09,0.1-0.26,0.22-0.53
		c-0.38,0.12-0.64,0.19-0.88,0.29c-0.38,0.17-0.74,0.37-1.12,0.54c-1.13,0.51-2.35,0.63-3.55,0.72c-2.86,0.21-5.67-0.12-8.38-1.16
		c-0.1-0.04-0.24-0.01-0.37-0.01c0.17,1.51,0.36,2.98,0.49,4.45c0.08,0.85,0.05,1.71,0.09,2.56c0.03,0.66,0.15,1.32,0.15,1.98
		c-0.01,2.55-0.02,5.1-0.09,7.65c-0.05,1.68-0.21,3.36-0.33,5.04c-0.04,0.53-0.12,1.06-0.14,1.59c-0.04,0.99,0,1.98-0.07,2.97
		c-0.12,1.55-0.32,3.09-0.48,4.64c-0.09,0.89-0.18,1.78-0.29,2.67c-0.1,0.82-0.23,1.63-0.32,2.45c-0.11,1.05-0.15,2.11-0.31,3.16
		c-0.11,0.78-0.35,1.54-0.53,2.31c-0.38-0.55-0.23-1.06-0.14-1.57c0.03-0.19,0.09-0.38,0.11-0.57c0.08-0.85,0.15-1.71,0.23-2.56
		c0.13-1.4,0.81-2.75,0.28-4.2c-0.03-0.08,0.04-0.19,0.06-0.29c0.21-1.57,0.47-3.13,0.61-4.71c0.11-1.31,0-2.65,0.1-3.96
		c0.1-1.31,0.22-2.63,0.31-3.94c0.21-2.99,0.02-5.97,0.12-8.95c0.04-1.16-0.21-2.33-0.13-3.48c0.16-2.28-0.41-4.47-0.6-6.71
		c-0.06-0.73-0.36-1.17-1.06-1.46c-0.84-0.36-1.65-0.69-2.57-0.66c-0.16,0-0.32-0.01-0.47-0.06c-1.39-0.46-2.79-0.61-4.22-0.19
		c-0.36,0.11-0.75,0.13-1.14,0.15c-1.93,0.13-3.76,0.64-5.55,1.4c-1.94,0.83-3.76,1.96-5.81,2.54c-2.06,0.59-4.09,1.29-6.26,1.28
		c-0.25,0-0.49,0.04-0.84,0.07c0.02,0.41,0.03,0.76,0.06,1.12c0.08,1.19,0.28,2.39,0.21,3.56c-0.08,1.28,0.05,2.51,0.28,3.75
		c0.29,1.64,0.34,3.28,0.12,4.94c-0.15,1.12-0.31,2.24-0.33,3.37c-0.06,2.78-0.05,5.57-0.04,8.36c0.01,1.82,0.05,3.65,0.09,5.47
		c0.02,0.83,0.14,1.65,0.11,2.47c-0.06,1.54-0.24,3.08-0.3,4.62c-0.09,2.18-0.1,4.36-0.16,6.54c-0.01,0.22-0.06,0.45-0.11,0.67
		c-0.16,0.67-0.39,1.32-0.48,2c-0.12,0.9-0.12,1.83-0.19,2.74c-0.07,0.85-0.16,1.7-0.24,2.55c-0.06,0.64-0.17,1.28-0.19,1.93
		c-0.01,0.21,0.17,0.43,0.33,0.8c0.67-0.85,1.23-1.56,1.78-2.26c1.28-1.61,2.55-3.22,3.83-4.83c0.12-0.15,0.28-0.35,0.26-0.51
		c-0.07-0.54,0.31-0.84,0.51-1.24c0.42-0.86,0.89-1.69,1.24-2.57c0.43-1.08,1.04-2.04,1.73-2.94c1.49-1.94,3.49-3.29,5.32-4.82
		c1.16-0.97,2.53-1.65,3.95-2.17c0.44-0.16,0.97-0.29,1.21,0.16c0.21,0.4,0.53,0.55,0.83,0.76c1.26,0.87,1.59,2.44,0.41,3.6
		c-0.67,0.66-1.33,1.32-2.04,1.93c-0.76,0.66-1.19,1.41-1.08,2.49c0.18,1.75,0.91,3.32,1.51,4.91c0.53,1.38,1.27,2.67,1.67,4.12
		c0.49,1.75,1.5,3.31,1.81,5.13c0.02,0.13,0.15,0.24,0.35,0.55c0.14-0.82,0.2-1.44,0.36-2.04c0.29-1.08,0.62-2.14,0.96-3.2
		c0.21-0.65,0.24-1.25-0.19-1.82c0.57-0.09,0.59-0.64,0.7-1.02c0.49-1.7,0.94-3.41,1.37-5.13c0.17-0.66,0.26-1.35,0.36-2.03
		c0.07-0.45,0.1-0.9,0.15-1.36c0.05-0.42,0.1-0.83,0.14-1.25c0.04-0.34,0.04-0.7,0.48-0.95c-0.06,2.01-0.29,3.89-0.73,5.75
		c-0.32,1.35-0.62,2.7-0.91,4.05c-0.47,2.16-0.92,4.33-1.39,6.49c-0.14,0.64-0.3,1.28-0.47,1.91c-0.27,0.99-0.7,1.96-0.79,2.96
		c-0.09,1.08-0.4,2.08-0.74,3.05c-0.62,1.77-1.21,3.54-1.54,5.41c-0.42,2.34-1.08,4.62-1.92,6.84c-0.23,0.62-0.43,1.25-0.63,1.88
		c-0.38,1.23-0.68,2.49-1.11,3.69c-0.59,1.64-1.28,3.25-1.91,4.88c-0.64,1.66-1.23,3.34-1.87,5.01c-0.21,0.56-0.5,1.09-0.75,1.64
		c-0.16-0.28-0.19-0.52-0.12-0.72c0.69-2.1,1.29-4.25,2.14-6.28c1.13-2.68,2.07-5.42,2.93-8.2c0.15-0.47,0.22-0.97,0.37-1.44
		c0.5-1.57,1.03-3.13,1.51-4.71c0.21-0.69,0.28-1.43,0.47-2.13c0.4-1.46,0.85-2.91,1.28-4.36c0.01-0.02-0.03-0.05-0.07-0.1
		c-0.07,0.05-0.16,0.09-0.21,0.16c-0.95,1.21-2.02,2.25-3.35,3.06c-1.65,1.01-3.42,1.46-5.27,1.58c-1.81,0.12-3.65,0-5.41-0.5
		c-2.89-0.82-5.53-2.05-6.93-5.08C187.36,176.26,187.3,176.22,187.21,176.12z M232.06,130.2c-0.07,0.33-0.14,0.55-0.16,0.77
		c-0.13,1.02-0.22,2.04-0.36,3.05c-0.08,0.59-0.27,1.16-0.35,1.74c-0.24,1.74-0.45,3.48-0.65,5.22c-0.07,0.62-0.08,1.25-0.13,1.88
		c-0.01,0.13,0.01,0.3-0.06,0.38c-0.4,0.41-0.27,0.89-0.29,1.38c-0.01,0.47,0.01,1.06-0.57,1.28c0.22,0.61,0.23,0.61,0.04,2.04
		c-0.2,1.5-0.44,2.99-1.03,4.4c-0.24,0.57-0.38,1.18-0.54,1.79c-0.23,0.87-0.42,1.76-0.66,2.63c-0.36,1.32-0.76,2.64-1.13,3.95
		c-0.05,0.19-0.06,0.39-0.13,0.57c-0.38,0.95-0.78,1.88-1.16,2.83c-0.96,2.4-1.83,4.83-2.96,7.16c-0.64,1.33-1.14,2.74-1.66,4.12
		c-0.21,0.56-0.09,0.83,0.41,1.02c1.15,0.43,2.33,0.78,3.55,0.65c1.04-0.11,2.13-0.24,2.96-1.01c1.66-1.54,3.44-2.95,4.77-4.86
		c0.6-0.86,1.36-1.59,1.96-2.43c1.14-1.6,2.24-3.23,3.33-4.87c1.43-2.17,3.06-4.14,5.07-5.77c1.1-0.9,2.3-1.53,3.66-1.86
		c0.62-0.15,1.23-0.34,1.84-0.51c0.4-0.11,0.79-0.25,1.19-0.32c1.1-0.19,2.21-0.42,3.11-1.16c0.9-0.74,1.8-1.48,2.61-2.32
		c0.84-0.86,1.7-1.75,2.3-2.78c0.62-1.06,1.06-2.28,1.39-3.48c0.54-2.01,0.97-4.05,1.36-6.1c0.2-1.04,0.35-2.13,0.24-3.17
		c-0.22-2.2-0.57-4.4-0.98-6.58c-0.28-1.5-1.19-2.71-2.19-3.78c-1.51-1.62-3.66-2.1-5.49-3.17c-0.18-0.11-0.44-0.08-0.66-0.11
		c-2.27-0.31-4.52-0.03-6.75,0.43c-1.4,0.29-2.79,0.67-4.17,1.04c-0.37,0.1-0.73,0.25-1.06,0.45c-1.87,1.17-3.52,2.61-4.88,4.39
		C233.4,129.69,232.91,130.17,232.06,130.2z M132.04,184.59c-0.42,0.39-0.75,0.71-1.08,1.01c-0.72,0.65-1.42,1.34-2.18,1.92
		c-1.41,1.06-2.97,1.78-4.69,2.15c-0.55,0.12-1.06,0.41-1.66,0.65c0.2,0.71,0.37,1.34,0.54,1.97c0.78,2.83,1.46,5.7,2.36,8.49
		c1.03,3.2,2.25,6.35,3.42,9.5c0.96,2.6,1.98,5.17,2.96,7.76c1.08,2.84,2.09,5.7,3.52,8.39c1.01,1.9,1.77,3.94,2.95,5.75
		c0.22,0.34,0.42,0.64,0.89,0.62c1.37-0.04,2.74-0.05,4.11-0.06c0.76-0.01,1.52,0.04,2.28-0.01c0.98-0.06,1.95-0.1,2.92,0.19
		c0.2,0.06,0.44-0.03,0.63-0.04c0.39-0.77,0.73-2.42,0.69-3.28c-0.04-0.86-0.17-1.73-0.1-2.58c0.2-2.19-0.13-4.44,0.81-6.7
		c-0.51,0-0.85-0.02-1.18,0c-0.69,0.05-1.34-0.12-1.94-0.44c-1.36-0.73-2.51-1.7-3.2-3.17c-0.17-0.36-0.42-0.67-0.57-1.03
		c-0.44-1.09-0.97-2.12-1.03-3.38c-0.09-2.08,0.47-4.01,0.98-5.96c0.12-0.48,0.19-0.99,0.4-1.42c0.59-1.24,1.25-2.45,1.88-3.68
		c0.13-0.25,0.22-0.52,0.35-0.81c-1.34-0.17-2.57-0.34-3.8-0.47c-0.5-0.05-0.99-0.08-1.49,0.15c-0.43,0.21-0.87,0.05-1.15-0.49
		c-0.49,0.57-1.14,0.46-1.49,0.18c-0.46-0.36-0.92-0.38-1.39-0.45c-2.3-0.33-4.6-0.63-6.9-0.94c-1.51-0.21-3.02-0.42-4.54-0.63
		c-0.32-0.04-0.63-0.07-0.72-0.58c0.24-0.03,0.44-0.1,0.64-0.08c1.42,0.18,2.84,0.39,4.27,0.57c1.17,0.15,2.34,0.27,3.51,0.43
		c0.84,0.12,1.69,0.43,2.52,0.4c1.9-0.05,3.74,0.33,5.61,0.49c1.59,0.14,3.17,0.32,4.75,0.49c0.67,0.07,1.14-0.2,1.55-0.74
		c0.74-0.99,1.51-1.96,2.29-2.91c0.47-0.57,1.01-1.1,1.51-1.64c0.33-0.35,0.48-0.76,0.47-1.26c-0.02-1.09-0.04-2.19,0.01-3.28
		c0.07-1.72,0.2-3.43,0.31-5.15c0.05-0.71,0.1-1.41,0.16-2.12c-0.09-0.06-0.18-0.13-0.27-0.19c-0.08,0.18-0.14,0.38-0.25,0.53
		c-0.39,0.53-0.73,1.1-1.2,1.54c-1.16,1.08-2.36,2.11-3.58,3.13c-1.14,0.95-2.46,1.45-3.92,1.62c-0.76,0.08-1.51,0.24-2.26,0.39
		c-0.34,0.07-0.68,0.37-0.98,0.32c-0.96-0.18-1.99-0.31-2.83-0.77c-0.91-0.49-1.65-1.31-2.44-2.03
		C133.68,186.19,132.9,185.41,132.04,184.59z M179.98,195.09c-0.35,0.08-0.61,0.14-0.87,0.19c-1,0.2-2.03,0.3-3,0.62
		c-1.62,0.54-3.26,0.88-4.95,1.03c-0.44,0.04-0.71,0.21-0.86,0.64c-0.22,0.62-0.46,1.23-0.71,1.84c-1.18,2.94-2.56,5.78-4.01,8.58
		c-0.54,1.05-1.05,2.15-1.77,3.06c-1.23,1.56-2.6,3-3.95,4.46c-0.64,0.69-1.26,1.47-2.04,1.93c-1.62,0.96-3.21,2.05-5.13,2.33
		c-0.38,0.06-0.75,0.17-1.11,0.31c-0.18,0.07-0.42,0.24-0.47,0.42c-0.19,0.7-0.41,1.41-0.43,2.12c-0.08,2.32-0.06,4.63-0.12,6.95
		c-0.02,0.89-0.15,1.78-0.23,2.67c-0.02,0.22,0,0.44,0,0.81c0.7,0.04,1.35,0.08,2.01,0.12c0,0.04,0.01,0.09,0.01,0.13
		c-0.18,0.07-0.37,0.13-0.77,0.28c2.65,0.02,5.1,0.14,7.52-0.32c1.66-0.31,3.31-0.65,4.94-1.1c2.01-0.57,3.99-1.26,5.98-1.91
		c0.3-0.1,0.59-0.25,0.87-0.41c0.13-0.08,0.27-0.2,0.33-0.34c0.72-1.62,1.48-3.22,2.12-4.87c0.78-2,1.44-4.04,2.18-6.05
		c0.54-1.49,1.11-2.96,1.68-4.43c1.17-3.03,1.68-6.26,2.55-9.38c0.83-2.98,1.34-6.06,2.09-9.07c0.45-1.8,0.76-3.63,0.95-5.46
		c0.26-2.62,0.83-5.17,1.28-7.74c0.21-1.15,0.42-2.3,0.4-3.49c-0.93,0.7-1.84,1.32-2.67,2.02c-1.66,1.4-3.45,2.61-5.3,3.72
		c-0.58,0.35-1.16,0.69-1.73,1.06c-0.46,0.3-0.83,0.69-1.02,1.27c-0.4,1.22-0.87,2.42-1.27,3.64c-0.51,1.54-0.99,3.08-1.46,4.63
		c-0.05,0.17-0.01,0.38-0.01,0.59c0.19,0.05,0.34,0.15,0.49,0.13c0.91-0.12,1.82-0.24,2.71-0.41c0.53-0.1,1.04-0.3,1.57-0.43
		c1.2-0.31,2.39-0.61,3.59-0.91c0.06-0.01,0.12,0.02,0.25,0.03C179.71,194.52,179.82,194.74,179.98,195.09z M147.04,235.74
		c-0.16-0.08-0.34-0.24-0.54-0.26c-1.26-0.16-2.52-0.31-3.79-0.44c-1.05-0.1-2.1-0.16-3.15-0.23c-2.13-0.14-4.26-0.29-6.39-0.42
		c-0.79-0.05-1.5,0.18-2.08,0.8c-0.51,0.54-1.05,1.06-1.63,1.54c-0.62,0.51-1.22,1.12-1.94,1.4c-2.04,0.8-3.93,1.86-5.81,2.99
		c-0.74,0.45-1.29,1.04-1.6,1.9c-0.31,0.9-0.25,1.23,0.51,1.69c0.14,0.08,0.29,0.13,0.44,0.2c1.62,0.76,3.47,0.91,4.96,2.01
		c0.1,0.07,0.24,0.1,0.36,0.12c2.42,0.42,4.83,0.84,7.25,1.26c0.88,0.15,1.76,0.32,2.65,0.41c1.2,0.13,2.42,0.16,3.62,0.3
		c1.87,0.22,3.72,0.5,5.59,0.75c0.7,0.09,1.4,0.24,2.09,0.22c3.63-0.12,7.26-0.36,10.84-1.01c1.54-0.28,3.06-0.67,4.59-1.02
		c1.51-0.34,2.76-1.18,3.79-2.35c0.98-1.12,1.25-2.44,0.82-3.88c-0.08-0.25-0.31-0.5-0.53-0.65c-0.23-0.16-0.53-0.24-0.81-0.27
		c-0.44-0.06-0.71-0.21-0.76-0.72c-0.04-0.43-0.36-0.64-0.7-0.87c-0.55-0.37-1.11-0.78-1.55-1.28c-0.79-0.9-1.49-1.88-2.3-2.92
		c-0.55,0.06-1.18,0.16-1.81,0.19c-1.29,0.07-2.59,0.12-3.88,0.15c-1.08,0.03-2.17,0.01-3.25,0.02c-1.4,0.01-2.8,0.01-4.2,0.05
		C147.58,235.44,147.34,235.62,147.04,235.74z M115.3,154.4c0.23-0.04,0.36-0.04,0.47-0.08c1.03-0.34,2.05-0.73,3.09-1.03
		c0.94-0.27,1.89-0.33,2.78,0.22c0.66,0.4,1.31,0.81,1.99,1.18c0.93,0.5,1.29,1.4,1.35,2.37c0.07,1.15-0.06,2.31-0.13,3.46
		c-0.12,1.92-0.94,3.64-1.48,5.44c-0.93,3.13-2.08,6.18-2.58,9.45c-0.37,2.43-0.19,4.75,0.41,7.08c0.07,0.28,0.36,0.55,0.61,0.72
		c1.29,0.92,2.71,1.11,4.2,0.72c2.47-0.64,3.8-2.64,5.07-4.69c0.07-0.11,0.01-0.32-0.01-0.48c-0.28-2.56-0.55-5.12-0.86-7.68
		c-0.22-1.81-0.54-3.6-0.74-5.41c-0.21-1.98-0.39-3.96-0.46-5.95c-0.06-1.79,0.06-3.58,0.08-5.37c0.02-1.11,0.26-2.23-0.01-3.35
		c-4.8-0.61-9.57-1.19-14.52-1.42C114.83,151.24,115.05,152.77,115.3,154.4z M135.07,150.37c0.9,0.09,1.65,0.18,2.41,0.24
		c0.38,0.03,0.77,0.01,1.14,0.06c0.72,0.09,1.44,0.22,2.16,0.33c0.47,0.07,0.8-0.12,1-0.57c0.3-0.66,0.62-1.31,0.91-1.98
		c1.04-2.49,2.03-5,2.75-7.62c0.34-1.24,0.68-2.49,0.95-3.75c0.38-1.71,0.66-3.45,1.05-5.16c0.25-1.09,0.32-2.15-0.02-3.23
		c-0.24-0.77-0.9-1.2-1.62-0.92c-0.59,0.23-1.16,0.55-1.67,0.92c-0.89,0.64-1.84,1.24-2.56,2.05c-1.98,2.21-3.27,4.89-4.28,7.69
		c-1.24,3.43-1.88,7.03-2.2,10.68C135.05,149.49,135.07,149.85,135.07,150.37z M200.72,156.82c-0.34,0.45-0.72,0.89-1.03,1.37
		c-1.36,2.08-2.71,4.17-4.07,6.25c-0.55,0.85-1.05,1.75-1.69,2.52c-1.18,1.44-2.2,3-3.14,4.61c-0.17,0.28-0.26,0.7-0.2,1.03
		c0.32,1.89,1.4,3.15,3.16,3.72c2.15,0.71,4.23,0.28,6.23-0.62c0.53-0.24,1.03-0.69,1.37-1.18c1.77-2.59,2.67-5.44,2.39-8.67
		c-0.17-2.02-0.72-3.87-1.76-5.59c-0.59-0.97-1.23-1.96-1.04-3.23C200.94,156.99,200.85,156.94,200.72,156.82z M156.62,175.88
		c-1.05,1.44-2.03,2.7-2.92,4.04c-0.29,0.43-0.34,1.04-0.46,1.58c-0.06,0.28-0.02,0.59-0.04,0.89c-0.1,1.26-0.22,2.51-0.32,3.77
		c-0.05,0.66-0.09,1.32-0.12,1.98c-0.05,1.12-0.11,2.25-0.12,3.37c0,0.33,0.15,0.66,0.25,1.05c1.02-0.83,1.97-1.51,2.82-2.29
		c1.96-1.8,3.95-3.53,6.23-4.91c1.87-1.13,3.8-2.01,5.88-2.54c1.2-0.31,1.49-0.72,1.52-2.18c-0.98,0.58-2.04,0.51-3.07,0.6
		c-0.54,0.04-1.08,0.11-1.61,0.03c-0.88-0.13-1.77-0.3-2.62-0.55c-2.18-0.64-3.9-1.92-4.9-4.11
		C157.02,176.38,156.84,176.19,156.62,175.88z M161.14,198.51c-0.39,0.05-0.67,0.06-0.94,0.12c-1.38,0.26-2.75,0.56-4.13,0.76
		c-0.85,0.13-1.71,0.09-2.57,0.15c-0.87,0.07-1.29,0.53-1.37,1.44c-0.03,0.33-0.06,0.66-0.1,0.98c-0.11,0.85-0.24,1.69-0.33,2.54
		c-0.05,0.46,0.04,0.95-0.08,1.38c-0.47,1.7-0.35,3.47-0.61,5.2c-0.02,0.11,0.05,0.23,0.08,0.37
		C153.98,209.62,160.04,202.22,161.14,198.51z M153.29,198.75c0.33,0.07,0.46,0.13,0.57,0.11c2.52-0.39,5.03-0.79,7.54-1.22
		c0.21-0.04,0.44-0.28,0.55-0.49c1.06-2.11,2.1-4.23,3.13-6.36c0.11-0.22,0.11-0.49,0.19-0.85c-1.64,0.62-3.05,1.42-4.37,2.39
		c-1.06,0.78-2.04,1.69-3.14,2.41c-1.29,0.84-2.31,1.97-3.43,2.99C154.02,198.02,153.73,198.32,153.29,198.75z M140.73,152.1
		c-1.93-0.21-3.74-0.79-5.75-0.64c-0.06,1.53-0.16,3.04-0.16,4.54c0,1.5,0.02,3.01,0.59,4.57
		C137.63,157.97,139.02,154.95,140.73,152.1z M151.17,202.16c-0.09-0.04-0.18-0.07-0.27-0.11c-0.09,0.14-0.18,0.27-0.27,0.41
		c-0.67,1.05-1.47,2.03-1.96,3.16c-0.58,1.34-1.36,2.59-1.71,4.07c-0.31,1.29-0.19,2.34,0.63,3.34c0.54,0.65,0.75,0.72,1.49,0.48
		c0.75-0.25,1.31-0.87,1.35-1.49c0.11-1.58,0.22-3.16,0.34-4.74C150.9,205.58,151.04,203.87,151.17,202.16z"/>
</g>
</svg>
