<?xml version="1.0" encoding="utf-8"?>
<!-- Generator: Adobe Illustrator 23.0.0, SVG Export Plug-In . SVG Version: 6.00 Build 0)  -->
<svg version="1.1" id="Layer_1" xmlns="http://www.w3.org/2000/svg" xmlns:xlink="http://www.w3.org/1999/xlink" x="0px" y="0px"
	 viewBox="0 0 300 300" enable-background="new 0 0 300 300" xml:space="preserve">
<rect fill="#FCFAE9" width="300" height="300"/>
<rect x="10" y="10" fill="#A4D0C9" width="280" height="280"/>
<g id="turquoise">
	<circle fill="#E9AF85" cx="150" cy="150" r="127.5"/>
	<g id="cup_1_">
		<path fill="#FFFFFF" d="M104.58,211.19c-0.39,0.03-0.72,0.06-1.06,0.07c-1.31,0.05-2.62,0.05-3.92-0.27
			c-0.44-0.11-0.9-0.13-1.35-0.2c-1.04-0.15-2.01-0.56-2.99-0.9c-1.13-0.39-2.27-0.75-3.39-1.17c-0.78-0.29-1.55-0.64-2.3-1
			c-0.93-0.46-1.85-0.96-2.76-1.46c-0.75-0.41-1.49-0.85-2.23-1.28c-0.43-0.25-0.87-0.5-1.29-0.77c-0.6-0.4-1.2-0.8-1.78-1.24
			c-0.69-0.53-1.38-1.07-2.01-1.66c-0.64-0.59-1.24-1.23-1.79-1.9c-0.64-0.79-1.22-1.63-1.79-2.47c-0.22-0.33-0.36-0.72-0.5-1.1
			c-0.17-0.47-0.31-0.96-0.46-1.44c-0.18-0.54-0.34-1.09-0.54-1.63c-0.23-0.65-0.52-1.28-0.73-1.93c-0.19-0.57-0.33-1.16-0.49-1.74
			c-0.2-0.75-0.4-1.49-0.6-2.24c0-0.02-0.01-0.03-0.02-0.05c-0.18-0.78-0.27-1.58-0.51-2.36c-0.15-0.46-0.21-0.95-0.31-1.43
			c-0.15-0.74-0.31-1.48-0.44-2.23c-0.09-0.53-0.16-1.06-0.2-1.59c-0.02-0.25,0.04-0.5,0.05-0.75c0.01-0.57-0.01-1.14,0-1.71
			c0-0.22,0.03-0.44,0.05-0.65c0.05-0.55,0.13-1.1,0.15-1.65c0.04-1.01,0.24-2,0.46-2.99c0.02-0.1,0.06-0.2,0.06-0.3
			c0.01-0.91,0.36-1.72,0.75-2.51c0.21-0.42,0.37-0.87,0.61-1.27c0.25-0.41,0.57-0.79,0.88-1.17c0.65-0.81,1.33-1.59,1.86-2.5
			c0.16-0.28,0.41-0.52,0.66-0.73c0.49-0.43,0.9-0.93,1.3-1.44c0.38-0.48,0.83-0.91,1.26-1.36c0.16-0.17,0.34-0.33,0.53-0.46
			c1.16-0.83,2.28-1.72,3.61-2.29c0.26-0.11,0.52-0.25,0.75-0.41c0.54-0.39,1.16-0.58,1.8-0.77c0.76-0.22,1.51-0.46,2.27-0.69
			c0.19-0.06,0.39-0.12,0.59-0.14c0.8-0.09,1.6-0.16,2.41-0.25c0.67-0.07,1.32-0.26,1.95-0.5c0.28-0.11,0.57-0.17,0.9-0.27
			c-0.01-0.13-0.01-0.26-0.03-0.38c-0.04-0.37-0.08-0.74-0.14-1.1c-0.04-0.25-0.15-0.48-0.2-0.72c-0.13-0.68-0.24-1.36-0.36-2.03
			c-0.19-1.04-0.38-2.09-0.58-3.13c-0.15-0.79-0.33-1.57-0.48-2.36c-0.07-0.35-0.09-0.7-0.15-1.05c-0.19-1.04-0.4-2.07-0.59-3.11
			c-0.12-0.65-0.19-1.3-0.34-1.94c-0.24-1.03-0.46-2.07-0.61-3.12c-0.07-0.52-0.23-1.02-0.33-1.53c-0.12-0.62-0.23-1.25-0.34-1.88
			c-0.2-1.17-0.39-2.35-0.59-3.52c-0.09-0.51-0.22-1.02-0.32-1.53c-0.13-0.66-0.24-1.32-0.37-1.98c-0.21-1.05-0.28-2.13-0.59-3.17
			c-0.14-0.48-0.17-0.99-0.26-1.49c-0.14-0.76-0.29-1.51-0.43-2.27c-0.18-0.99-0.35-1.99-0.53-2.98c-0.17-0.96-0.33-1.92-0.48-2.88
			c-0.18-1.16-0.35-2.32-0.54-3.48c-0.09-0.53-0.21-1.06-0.3-1.59c-0.27-1.57-0.51-3.15-0.79-4.72c-0.1-0.58-0.26-1.15-0.39-1.72
			c-0.02-0.1-0.06-0.2-0.06-0.3c0.03-0.65-0.18-1.26-0.29-1.89c-0.17-0.94-0.33-1.89-0.49-2.83c-0.05-0.26-0.12-0.52-0.17-0.78
			c-0.21-1.11-0.42-2.21-0.63-3.32c-0.12-0.67-0.23-1.35-0.34-2.03c-0.01-0.03,0-0.07-0.01-0.1c-0.37-0.88-0.31-1.85-0.51-2.77
			c-0.32-1.49-0.58-3-0.87-4.5c-0.11-0.56-0.26-1.11-0.4-1.67c-0.03-0.11-0.11-0.2-0.18-0.3c-0.15-0.21-0.18-0.42-0.16-0.7
			c0.03-0.37-0.09-0.75-0.19-1.12c-0.05-0.18-0.12-0.32-0.05-0.52c0.06-0.2,0.07-0.44,0.03-0.64c-0.21-0.98,0.24-1.64,0.99-2.15
			c0.38-0.26,0.75-0.55,1.21-0.68c0.2-0.06,0.39-0.21,0.53-0.37c0.24-0.26,0.52-0.42,0.83-0.55c0.11-0.04,0.22-0.1,0.31-0.18
			c0.49-0.43,1.05-0.72,1.66-0.94c0.23-0.08,0.46-0.24,0.62-0.42c0.19-0.2,0.38-0.3,0.65-0.31c0.29-0.01,0.54-0.12,0.8-0.25
			c0.56-0.29,1.17-0.5,1.75-0.74c0.7-0.28,1.4-0.57,2.11-0.84c0.34-0.13,0.7-0.22,1.05-0.35c0.74-0.27,1.47-0.59,2.22-0.82
			c0.9-0.28,1.81-0.52,2.72-0.74c1.08-0.25,2.14-0.55,3.18-0.97c0.93-0.38,1.88-0.69,2.88-0.88c0.61-0.11,1.19-0.35,1.79-0.53
			c0.42-0.12,0.85-0.35,1.26-0.32c0.56,0.03,1.04-0.23,1.58-0.24c0.31-0.01,0.62-0.14,0.93-0.21c0.54-0.12,1.08-0.22,1.62-0.36
			c0.48-0.13,0.95-0.32,1.43-0.45c0.34-0.1,0.68-0.19,1.03-0.22c0.69-0.05,1.37-0.17,2.03-0.36c0.37-0.11,0.76-0.12,1.14-0.21
			c0.8-0.19,1.59-0.41,2.39-0.6c0.18-0.04,0.37-0.04,0.55-0.06c0.37-0.04,0.74-0.1,1.03-0.37c0.26-0.25,0.58-0.33,0.91-0.38
			c0.56-0.09,1.13-0.16,1.7-0.26c0.95-0.16,1.9-0.28,2.86-0.31c0.52-0.02,1.03-0.15,1.54-0.23c0.15-0.02,0.3-0.06,0.45-0.07
			c1-0.11,2.01-0.22,3.01-0.33c0.62-0.07,1.24-0.12,1.86-0.19c0.03,0,0.07,0,0.1-0.02c0.66-0.25,1.35-0.2,2.03-0.26
			c0.74-0.06,1.47-0.19,2.21-0.23c0.79-0.04,1.56-0.19,2.36-0.11c0.48,0.05,0.97-0.05,1.46-0.08c0.59-0.04,1.17-0.09,1.76-0.12
			c0.82-0.05,1.65-0.13,2.47-0.15c0.56-0.01,1.14-0.12,1.69,0.12c0.06,0.03,0.13,0.03,0.2,0.03c0.77,0,1.55-0.01,2.32-0.01
			c0.64,0,1.28,0.02,1.91,0.03c0.05,0,0.1,0.02,0.15,0.02c1.06,0.02,2.12,0.06,3.18,0.06c0.28,0,0.56-0.1,0.84-0.14
			c0.3-0.04,0.6-0.11,0.89-0.07c1.34,0.19,2.68,0.24,4.03,0.2c0.03,0,0.07,0.01,0.1-0.01c0.82-0.32,1.63,0.01,2.45,0.01
			c0.5,0,1.01,0.05,1.51,0.09c0.64,0.05,1.27,0.11,1.91,0.16c0.18,0.01,0.37-0.01,0.55,0.01c0.55,0.06,1.1,0.12,1.65,0.19
			c0.33,0.04,0.67,0.1,1,0.15c0.73,0.11,1.48,0.15,2.19,0.35c1.21,0.33,2.48,0.21,3.68,0.55c0.21,0.06,0.44,0.02,0.65,0.03
			c0.42,0.01,0.84,0.02,1.21,0.29c0.09,0.07,0.22,0.1,0.33,0.1c0.43,0.03,0.86,0.04,1.3,0.06c0.12,0.01,0.23,0.03,0.35,0.06
			c0.21,0.04,0.42,0.11,0.64,0.14c1.35,0.19,2.7,0.35,4.05,0.55c0.7,0.11,1.38,0.3,2.07,0.44c1.16,0.23,2.32,0.42,3.47,0.65
			c0.73,0.14,1.44,0.32,2.17,0.49c0.03,0.01,0.06,0.03,0.1,0.03c1.39,0.11,2.65,0.73,4,1.01c1.1,0.23,2.17,0.58,3.26,0.86
			c1.19,0.31,2.38,0.59,3.56,0.93c0.41,0.12,0.81,0.3,1.22,0.42c0.83,0.25,1.66,0.52,2.51,0.72c0.57,0.13,1.12,0.34,1.68,0.51
			c0.52,0.16,1.03,0.31,1.54,0.49c0.24,0.08,0.45,0.22,0.68,0.33c0.1,0.05,0.2,0.12,0.31,0.16c0.47,0.17,0.95,0.32,1.42,0.48
			c0.08,0.03,0.17,0.06,0.22,0.12c0.35,0.37,0.84,0.41,1.29,0.51c0.53,0.13,1.03,0.3,1.42,0.7c0.14,0.14,0.31,0.26,0.48,0.37
			c0.3,0.18,0.49,0.45,0.67,0.74c0.17,0.27,0.37,0.52,0.57,0.77c0.17,0.2,0.26,0.43,0.26,0.69c0.01,0.6,0.01,1.19-0.23,1.78
			c-0.19,0.47-0.16,1.02-0.23,1.54c-0.12,0.9-0.2,1.8-0.38,2.7c-0.17,0.87-0.31,1.75-0.32,2.65c-0.01,0.56-0.22,1.12-0.34,1.67
			c-0.13,0.59-0.3,1.18-0.36,1.78c-0.05,0.51-0.19,0.99-0.39,1.45c-0.04,0.1-0.07,0.22-0.08,0.34c-0.05,0.52-0.05,1.05-0.15,1.55
			c-0.19,0.97-0.36,1.94-0.69,2.89c-0.25,0.74-0.31,1.55-0.4,2.34c-0.07,0.57-0.14,1.13-0.41,1.65c-0.04,0.07-0.07,0.16-0.07,0.24
			c-0.01,0.8-0.39,1.53-0.44,2.32c0,0.03-0.02,0.06-0.03,0.1c-0.06,1.65-0.63,3.23-0.69,4.88c-0.02,0.45-0.01,0.94-0.19,1.34
			c-0.42,0.92-0.5,1.91-0.7,2.88c-0.14,0.65-0.16,1.33-0.24,2c-0.06,0.48-0.13,0.97-0.22,1.44c-0.1,0.53-0.24,1.04-0.24,1.59
			c0,0.4-0.13,0.8-0.14,1.2c-0.02,0.74-0.22,1.45-0.35,2.18c-0.12,0.67-0.08,1.37-0.15,2.05c-0.03,0.33-0.17,0.64-0.26,0.96
			c-0.12,0.38-0.3,0.76-0.36,1.15c-0.12,0.71-0.21,1.43-0.24,2.15c-0.03,0.84-0.22,1.63-0.46,2.42c-0.29,0.98-0.57,1.96-0.74,2.98
			c-0.17,1.06-0.35,2.13-0.55,3.18c-0.16,0.86-0.37,1.71-0.53,2.56c-0.23,1.24-0.44,2.48-0.64,3.72c-0.14,0.81-0.25,1.63-0.4,2.44
			c-0.13,0.71-0.29,1.42-0.42,2.13c-0.25,1.35-0.48,2.71-0.74,4.07c-0.22,1.16-0.45,2.31-0.67,3.47c-0.15,0.79-0.3,1.59-0.45,2.38
			c-0.16,0.89-0.29,1.79-0.45,2.69c-0.23,1.28-0.47,2.55-0.73,3.82c-0.11,0.55-0.2,1.09-0.22,1.65c-0.01,0.3-0.15,0.59-0.2,0.88
			c-0.36,1.99-0.72,3.97-1.07,5.96c-0.05,0.28-0.04,0.57-0.05,0.85c0,0.32-0.02,0.63-0.16,0.93c-0.08,0.18,0,0.43-0.01,0.65
			c-0.01,0.21-0.03,0.43-0.08,0.64c-0.07,0.34-0.15,0.68-0.23,1.02c-0.02,0.1-0.07,0.19-0.1,0.28c-0.05,0.12-0.15,0.24-0.15,0.37
			c-0.05,0.84-0.38,1.63-0.48,2.46c-0.01,0.08-0.04,0.17-0.02,0.25c0.1,0.39-0.07,0.7-0.21,1.06c-0.15,0.36-0.18,0.78-0.22,1.18
			c-0.08,0.76-0.22,1.49-0.47,2.21c-0.18,0.54-0.16,1.15-0.24,1.73c-0.07,0.5-0.14,1-0.26,1.49c-0.1,0.4-0.27,0.77-0.26,1.21
			c0,0.34-0.16,0.68-0.25,1.02c-0.02,0.06-0.06,0.13-0.04,0.19c0.13,0.4-0.04,0.76-0.13,1.13c-0.1,0.42-0.13,0.86-0.21,1.29
			c-0.13,0.73-0.29,1.45-0.42,2.18c-0.06,0.36-0.05,0.75-0.14,1.1c-0.25,0.95-0.32,1.93-0.54,2.89c-0.14,0.64-0.13,1.31-0.24,1.95
			c-0.14,0.83-0.35,1.64-0.51,2.47c-0.08,0.43-0.11,0.87-0.18,1.3c-0.21,1.24-0.43,2.49-0.65,3.73c-0.13,0.73-0.23,1.46-0.37,2.19
			c-0.1,0.56-0.26,1.1-0.35,1.66c-0.11,0.66-0.18,1.33-0.29,1.99c-0.16,0.91-0.34,1.82-0.51,2.73c-0.24,1.25-0.49,2.5-0.71,3.76
			c-0.19,1.09-0.32,2.19-0.51,3.29c-0.12,0.73-0.31,1.45-0.45,2.18c-0.16,0.87-0.3,1.75-0.46,2.62c-0.14,0.76-0.29,1.52-0.44,2.27
			c-0.09,0.44-0.18,0.88-0.25,1.33c-0.02,0.12,0.06,0.26,0.12,0.38c0.14,0.24,0.13,0.45-0.05,0.65c-0.31,0.34-0.41,0.76-0.47,1.2
			c-0.1,0.66-0.23,1.32-0.33,1.98c-0.21,1.37-0.41,2.74-0.61,4.12c-0.23,1.56-0.44,3.13-0.67,4.69c-0.04,0.24-0.14,0.49-0.29,0.68
			c-0.15,0.19-0.37,0.29-0.34,0.6c0.01,0.07-0.18,0.19-0.29,0.25c-0.63,0.3-1.28,0.59-1.91,0.89c-0.7,0.34-1.42,0.62-2.21,0.68
			c-0.21,0.02-0.42,0.13-0.63,0.18c-0.57,0.14-1.14,0.29-1.71,0.39c-0.83,0.14-1.67,0.2-2.5,0.35c-0.73,0.13-1.44,0.34-2.16,0.49
			c-0.48,0.1-0.97,0.11-1.44,0.24c-1.1,0.31-2.24,0.45-3.37,0.6c-1.01,0.13-2.02,0.31-3.06,0.3c-1.14-0.01-2.28,0.18-3.42,0.27
			c-0.57,0.05-1.14,0.06-1.71,0.11c-0.74,0.06-1.47,0.15-2.2,0.22c-0.3,0.03-0.61,0.02-0.91,0.06c-1.14,0.15-2.28,0.11-3.42,0.11
			c-0.42,0-0.84,0.08-1.26,0.09c-0.52,0.01-1.04-0.03-1.56-0.03c-0.64,0-1.29-0.08-1.91,0.05c-0.79,0.16-1.59,0.04-2.36,0.18
			c-0.91,0.17-1.77,0.02-2.65-0.12c-0.64-0.1-1.31-0.08-1.96-0.13c-0.62-0.04-1.24-0.1-1.86-0.14c-0.97-0.06-1.95-0.08-2.92-0.18
			c-0.73-0.07-1.46-0.24-2.19-0.37c-0.2-0.04-0.39-0.1-0.59-0.13c-0.66-0.1-1.33-0.18-1.99-0.29c-0.88-0.14-1.76-0.27-2.63-0.45
			c-1.15-0.23-2.3-0.49-3.45-0.74c-0.85-0.19-1.7-0.41-2.55-0.57c-0.81-0.15-1.58-0.43-2.37-0.65c-0.78-0.21-1.57-0.37-2.35-0.57
			c-0.42-0.11-0.82-0.27-1.23-0.41c-0.46-0.16-0.93-0.3-1.36-0.51c-0.63-0.3-1.31-0.49-1.88-0.93c-0.35-0.27-0.8-0.41-1.22-0.59
			c-0.63-0.27-1.24-0.6-1.89-0.78c-1.03-0.29-1.92-0.85-2.86-1.33c-0.43-0.22-0.86-0.46-1.23-0.77c-0.19-0.16-0.29-0.49-0.34-0.76
			c-0.18-0.94-0.3-1.89-0.47-2.84c-0.22-1.24-0.46-2.48-0.69-3.72c-0.06-0.31-0.12-0.62-0.19-0.93c-0.02-0.08-0.04-0.18-0.09-0.22
			c-0.34-0.23-0.29-0.55-0.21-0.86c0.12-0.46,0.02-0.87-0.29-1.22c-0.18-0.2-0.24-0.38-0.1-0.64c0.21-0.4-0.01-0.79-0.08-1.18
			c-0.21-1.17-0.46-2.35-0.7-3.51c-0.22-1.07-0.47-2.14-0.69-3.21c-0.09-0.41-0.13-0.83-0.21-1.24c-0.19-0.99-0.39-1.98-0.58-2.98
			c-0.11-0.56-0.2-1.12-0.31-1.68C104.69,211.48,104.63,211.36,104.58,211.19z M83.1,87.29c0.48-0.22,0.89-0.44,1.33-0.59
			c0.41-0.14,0.84-0.23,1.27-0.32c0.56-0.11,1.12-0.22,1.68-0.27c0.96-0.08,1.85,0.28,2.77,0.48c0.29,0.06,0.58,0.17,0.86,0.28
			c0.67,0.26,1.32,0.56,2,0.81c0.65,0.24,1.28,0.47,1.83,0.92c0.84,0.68,1.65,1.38,2.24,2.31c0.7,1.1,1.26,2.26,1.57,3.53
			c0.15,0.64,0.37,1.28,0.4,1.92c0.05,0.96-0.02,1.92-0.05,2.88c-0.02,0.69-0.06,1.38-0.1,2.06c-0.01,0.15-0.03,0.3-0.07,0.44
			c-0.21,0.8-0.51,1.56-0.92,2.29c-0.44,0.79-0.96,1.51-1.61,2.12c-0.65,0.62-1.42,1.06-2.26,1.38c-0.63,0.24-1.24,0.53-1.88,0.72
			c-0.8,0.24-1.62,0.45-2.45,0.6c-0.5,0.09-1.01,0.13-1.54-0.07c-0.39-0.15-0.84-0.12-1.26-0.17c-0.03,0.11-0.06,0.16-0.05,0.2
			c0.15,0.9,0.3,1.79,0.45,2.69c0.22,1.28,0.44,2.55,0.66,3.83c0.14,0.81,0.25,1.63,0.39,2.44c0.22,1.21,0.46,2.41,0.68,3.62
			c0.13,0.71,0.24,1.43,0.36,2.14c0.19,1.14,0.39,2.28,0.59,3.42c0.01,0.08,0.04,0.16,0.05,0.25c0.17,0.86,0.36,1.71,0.52,2.57
			c0.1,0.5,0.16,1,0.25,1.49c0.15,0.83,0.31,1.65,0.46,2.47c0.24,1.33,0.46,2.65,0.7,3.98c0.18,0.96,0.38,1.91,0.56,2.87
			c0.21,1.16,0.41,2.32,0.62,3.47c0.05,0.3,0.12,0.59,0.17,0.89c0.11,0.6,0.2,1.19,0.31,1.79c0.19,1.01,0.39,2.01,0.58,3.02
			c0.03,0.16,0,0.35,0.06,0.5c0.28,0.71,0.33,1.47,0.47,2.22c0.24,1.23,0.44,2.47,0.67,3.7c0.24,1.27,0.49,2.54,0.73,3.81
			c0.12,0.63,0.2,1.26,0.32,1.89c0.15,0.79,0.34,1.58,0.49,2.37c0.15,0.79,0.26,1.6,0.4,2.39c0.22,1.21,0.45,2.41,0.67,3.62
			c0.27,1.46,0.53,2.91,0.79,4.37c0.08,0.46,0.17,0.93,0.25,1.39c0.12,0.71,0.23,1.43,0.36,2.14c0.16,0.86,0.33,1.72,0.48,2.58
			c0.23,1.28,0.43,2.56,0.66,3.83c0.17,0.93,0.38,1.86,0.55,2.8c0.28,1.51,0.54,3.01,0.82,4.52c0.06,0.33,0.05,0.68,0.32,0.93
			c0.03,0.03,0.05,0.1,0.04,0.14c-0.12,0.55,0.1,1.06,0.2,1.59c0.25,1.36,0.52,2.71,0.77,4.06c0.22,1.17,0.43,2.35,0.64,3.52
			c0.15,0.83,0.25,1.67,0.46,2.48c0.35,1.37,0.63,2.75,0.88,4.14c0.06,0.36,0.12,0.75,0.3,1.06c0.25,0.42,0.26,0.84,0.25,1.3
			c-0.01,0.26,0.04,0.52,0.08,0.78c0.06,0.36,0.14,0.72,0.2,1.09c0.07,0.37,0.15,0.74,0.35,0.99c0.34-0.14,0.62-0.28,0.92-0.36
			c0.56-0.15,0.99,0.11,1.32,0.53c0.09,0.12,0.09,0.41,0.02,0.55c-0.22,0.42-0.73,0.55-1.18,0.35c-0.3-0.13-0.61-0.24-0.99-0.39
			c-0.08,0.82,0.22,1.53,0.33,2.27c0.12,0.76,0.31,1.52,0.46,2.27c0.15,0.73,0.23,1.47,0.52,2.2c0.48-0.48,0.91-0.9,1.33-1.33
			c0.34-0.36,0.65-0.7,1.14-0.93c0.76-0.36,1.49-0.74,2.31-0.95c0.86-0.22,1.68-0.63,2.59-0.63c0.07,0,0.13-0.03,0.2-0.05
			c1.08-0.28,2.15-0.09,3.2,0.16c0.69,0.17,1.36,0.44,2.03,0.71c0.71,0.29,1.42,0.61,2.11,0.95c0.4,0.2,0.78,0.45,1.15,0.71
			c0.79,0.55,1.6,1.07,2.13,1.91c0.07,0.11,0.17,0.21,0.25,0.31c1.05,1.27,2,2.59,2.49,4.22c0.33,1.11,0.53,2.22,0.62,3.37
			c0.03,0.33-0.07,0.67-0.05,1c0.08,1.12-0.08,2.21-0.32,3.3c-0.05,0.22-0.17,0.43-0.26,0.65c-0.16,0.33-0.32,0.66-0.48,1
			c-0.18,0.38-0.33,0.77-0.66,1.06c-0.57,0.52-1.12,1.06-1.69,1.59c-0.17,0.16-0.34,0.33-0.53,0.47c-0.51,0.38-1,0.79-1.54,1.12
			c-0.46,0.29-0.98,0.49-1.55,0.76c0.19,0.08,0.3,0.12,0.4,0.16c0.84,0.28,1.72,0.42,2.54,0.76c0.38,0.16,0.8,0.25,1.2,0.37
			c0.43,0.13,0.86,0.28,1.29,0.4c0.29,0.08,0.59,0.1,0.89,0.17c0.88,0.21,1.76,0.45,2.65,0.63c1.07,0.21,2.16,0.37,3.23,0.56
			c1.31,0.23,2.61,0.46,3.92,0.7c0.5,0.09,0.99,0.21,1.49,0.25c0.89,0.07,1.78,0.07,2.67,0.12c1,0.05,2.01,0.11,3.01,0.19
			c0.82,0.06,1.63,0.23,2.46,0.18c0.92-0.06,1.84-0.11,2.77-0.14c1.88-0.04,3.77-0.05,5.65-0.1c0.86-0.02,1.71-0.09,2.57-0.14
			c0.42-0.03,0.83-0.07,1.25-0.11c0.92-0.09,1.84-0.18,2.76-0.26c0.74-0.07,1.47-0.14,2.21-0.18c0.65-0.04,1.31,0,1.96-0.05
			c0.94-0.08,1.87-0.2,2.81-0.33c0.98-0.14,1.96-0.3,2.93-0.49c0.87-0.17,1.74-0.38,2.61-0.56c1-0.21,2-0.42,3.01-0.62
			c0.49-0.1,1-0.14,1.49-0.27c0.88-0.23,1.71-0.6,2.5-1.05c0.14-0.08,0.25-0.21,0.46-0.39c-1.17,0.21-2.2,0.43-3.25,0.59
			c-1.07,0.17-2.14-0.07-3.24-0.08c0.02,0.3,0.04,0.57,0.06,0.84c-0.14-0.09-0.23-0.2-0.26-0.32c-0.15-0.6-0.62-0.83-1.13-1.03
			c-0.45-0.17-0.91-0.35-1.34-0.58c-0.9-0.49-1.79-0.99-2.58-1.64c-0.66-0.54-1.37-1.03-2.04-1.55c-0.29-0.23-0.59-0.46-0.82-0.74
			c-0.72-0.9-1.56-1.72-1.98-2.83c-0.01-0.01-0.02-0.03-0.03-0.04c-0.27-0.62-0.57-1.23-0.63-1.91c-0.13-1.54-0.12-3.09,0.21-4.61
			c0.02-0.08,0.07-0.17,0.06-0.24c-0.1-0.72,0.25-1.31,0.61-1.86c0.61-0.96,1.32-1.85,2.32-2.47c0.27-0.17,0.5-0.39,0.73-0.61
			c0.56-0.51,1.05-1.1,1.79-1.38c0.44-0.17,0.88-0.31,1.31-0.49c0.74-0.31,1.54-0.37,2.31-0.51c0.69-0.13,1.36-0.26,2.1-0.13
			c1.47,0.24,2.92,0.52,4.27,1.16c0.5,0.23,1.02,0.45,1.48,0.75c0.61,0.38,1.17,0.84,1.76,1.26c1.26,0.89,2.51,1.79,3.55,2.95
			c0.1,0.12,0.24,0.2,0.43,0.35c0.07-0.2,0.14-0.31,0.15-0.44c0.17-1.32,0.54-2.61,0.7-3.94c0.09-0.78,0.3-1.54,0.45-2.32
			c0.17-0.94,0.33-1.88,0.49-2.82c0.1-0.6,0.16-1.2,0.27-1.79c0.15-0.77,0.37-1.53,0.51-2.3c0.17-0.88,0.28-1.78,0.44-2.66
			c0.17-0.95,0.39-1.9,0.57-2.85c0.16-0.87,0.3-1.75,0.45-2.63c0.17-1.01,0.33-2.02,0.5-3.03c0.18-1.08,0.37-2.15,0.55-3.23
			c0.16-0.96,0.31-1.92,0.46-2.88c0.07-0.47,0.13-0.94,0.22-1.4c0.12-0.63,0.29-1.24,0.4-1.87c0.32-1.77,0.62-3.55,0.92-5.32
			c0.25-1.49,0.49-2.99,0.74-4.49c0.32-1.94,0.64-3.88,0.97-5.82c0.18-1.05,0.39-2.09,0.58-3.13c0.22-1.21,0.42-2.42,0.64-3.63
			c0.16-0.86,0.33-1.72,0.48-2.58c0.23-1.32,0.45-2.65,0.68-3.98c0.12-0.73,0.24-1.46,0.36-2.19c0.19-1.11,0.38-2.22,0.57-3.33
			c0.14-0.83,0.26-1.66,0.41-2.49c0.1-0.6,0.23-1.19,0.33-1.79c0.24-1.38,0.46-2.75,0.69-4.13c0.03-0.2,0.07-0.4,0.1-0.6
			c0.09-0.63,0.15-1.27,0.27-1.9c0.28-1.52,0.6-3.04,0.87-4.56c0.22-1.28,0.49-2.54,0.66-3.83c0.18-1.37,0.48-2.72,0.73-4.08
			c0.25-1.36,0.51-2.71,0.75-4.07c0.23-1.26,0.46-2.52,0.66-3.78c0.17-1.05,0.29-2.1,0.47-3.15c0.21-1.24,0.47-2.48,0.69-3.72
			c0.13-0.76,0.36-1.51,0.34-2.29c0-0.08,0.02-0.17,0.05-0.24c0.35-0.96,0.43-1.97,0.6-2.96c0.11-0.65,0.07-0.66-0.55-0.95
			c-0.52-0.24-0.63-0.75-0.27-1.2c0.25-0.31,0.53-0.56,0.96-0.56c0.11,0,0.22-0.06,0.32-0.09c0.03-0.21,0.06-0.39,0.09-0.57
			c0.21-1.18,0.39-2.36,0.64-3.53c0.16-0.79,0.15-1.59,0.36-2.38c0.22-0.81,0.26-1.66,0.38-2.49c0.02-0.12,0-0.25,0-0.41
			c-0.25,0.1-0.45,0.2-0.65,0.25c-0.35,0.09-0.62-0.09-0.67-0.43c-0.09-0.53,0.08-0.98,0.48-1.34c0.26-0.24,0.4-0.23,0.72-0.05
			c0.14,0.08,0.28,0.14,0.46,0.22c0.3-0.8,0.32-1.56,0.34-2.36c-0.2-0.02-0.35-0.03-0.49-0.06c-0.18-0.03-0.37-0.05-0.54-0.12
			c-0.48-0.19-0.58-0.16-0.84,0.28c-0.14,0.23-0.28,0.46-0.46,0.66c-0.58,0.65-1.17,1.3-1.76,1.94c-0.15,0.16-0.32,0.33-0.2,0.57
			c0.49,1.02,0.69,2.18,1.56,3.02c0.19,0.18,0.34,0.34,0.61,0.36c0.29,0.03,0.36,0.14,0.34,0.45c-0.02,0.24-0.06,0.46-0.26,0.64
			c-0.15,0.13-0.26,0.3-0.38,0.47c-0.16,0.21-0.37,0.32-0.63,0.37c-0.81,0.16-1.61,0.37-2.41,0.53c-0.53,0.11-1.06,0.23-1.59,0.28
			c-1.28,0.13-2.5-0.26-3.73-0.54c-0.67-0.15-1.31-0.43-1.94-0.71c-0.38-0.17-0.71-0.44-1.06-0.66c-0.21-0.14-0.41-0.29-0.61-0.43
			c-0.41-0.29-0.85-0.54-1.22-0.88c-0.25-0.23-0.37-0.61-0.62-0.84c-0.66-0.61-0.75-1.47-1.03-2.25c-0.15-0.42-0.22-0.87-0.32-1.31
			c-0.09-0.39-0.22-0.78-0.25-1.18c-0.05-0.8-0.04-1.6-0.28-2.37c-0.02-0.06,0.01-0.13,0.03-0.19c0.17-0.57,0.08-1.19,0.33-1.75
			c0.03-0.07-0.03-0.19-0.04-0.28c0.41-0.25,0.54-0.61,0.52-0.96c0.17-0.18,0.37-0.3,0.41-0.46c0.18-0.63,0.53-1.16,0.94-1.65
			c0.18-0.22,0.34-0.44,0.46-0.71c0.13-0.28,0.38-0.5,0.6-0.73c0.18-0.19,0.4-0.36,0.6-0.54c0.28-0.25,0.54-0.54,0.86-0.75
			c0.49-0.32,1.02-0.59,1.54-0.86c0.37-0.19,0.75-0.43,1.15-0.49c0.58-0.08,1.09-0.31,1.64-0.46c0.6-0.16,1.2-0.3,1.81-0.43
			c0.57-0.12,1.16-0.2,1.74-0.29c0.15-0.02,0.3-0.02,0.45-0.03c0.88-0.07,1.67,0.3,2.51,0.45c0.31,0.05,0.62,0.17,0.9,0.31
			c0.56,0.27,1.09,0.58,1.64,0.87c0.58,0.31,1.15,0.62,1.73,0.92c0.27-0.15,0.23-0.42,0.26-0.63c0.11-0.66,0.2-1.33,0.31-1.99
			c0.03-0.2,0.11-0.39,0.16-0.58c0.04-0.13,0.08-0.26,0.1-0.39c0.14-0.92,0.25-1.83,0.41-2.75c0.21-1.23,0.46-2.45,0.69-3.67
			c0.01-0.07,0.02-0.13,0.02-0.2c-0.02-0.31-0.15-0.4-0.42-0.27c-0.35,0.17-0.72,0.32-1.01,0.56c-0.98,0.81-2.19,1.08-3.35,1.47
			c-0.54,0.18-1.09,0.33-1.64,0.48c-0.34,0.1-0.68,0.19-1.02,0.27c-0.41,0.1-0.82,0.2-1.23,0.28c-0.43,0.08-0.86,0.13-1.29,0.18
			c-0.18,0.02-0.37,0-0.55,0.03c-1.06,0.16-2.13,0.33-3.19,0.51c-0.65,0.11-1.29,0.25-1.93,0.35c-0.58,0.09-1.17,0.14-1.76,0.21
			c-0.63,0.07-1.26,0.17-1.9,0.22c-0.47,0.04-0.95,0.01-1.41,0.06c-0.85,0.1-1.68,0.27-2.55,0.28c-1.09,0.01-2.19,0.11-3.28,0.16
			c-1.28,0.06-2.56,0.1-3.83,0.17c-1.3,0.07-2.59,0.17-3.88,0.26c-0.69,0.05-1.38,0.09-2.06,0.16c-0.6,0.06-1.2,0.17-1.8,0.22
			c-0.99,0.07-1.98,0.13-2.97,0.16c-0.86,0.03-1.7,0.29-2.56,0.15c-0.13-0.02-0.27,0.02-0.4,0.03c-1.08,0.08-2.15,0.31-3.25,0.23
			c-0.18-0.01-0.36,0.06-0.54,0.1c-0.11,0.02-0.22,0.08-0.34,0.09c-0.64,0.05-1.27,0.1-1.91,0.11c-0.62,0.01-1.24-0.03-1.87-0.03
			c-1.15,0.01-2.29,0.02-3.43,0.04c-0.37,0.01-0.74,0-1.11,0.03c-1.31,0.09-2.62,0.23-3.93,0.26c-1.36,0.03-2.73,0.02-4.09,0.17
			c-0.61,0.07-1.23,0.06-1.85,0.15c-0.68,0.1-1.37-0.01-2.06,0.04c-1.12,0.08-2.25,0.02-3.38,0.02c-0.67,0-1.34-0.03-2.02-0.02
			c-0.55,0.01-1.11,0.07-1.66,0.06c-0.48-0.01-0.97-0.13-1.45-0.13c-1.73-0.03-3.46-0.03-5.2-0.04c-1.52-0.01-3.03-0.03-4.55-0.05
			c-0.26,0-0.53-0.07-0.79-0.08c-0.57-0.02-1.15-0.01-1.72-0.02c-0.15,0-0.31-0.04-0.45,0.01c-0.38,0.13-0.75,0.15-1.15,0.13
			c-0.52-0.03-1.04-0.05-1.56-0.03c-0.87,0.03-1.74-0.07-2.62-0.03c-1.46,0.06-2.93-0.01-4.39-0.04c-0.82-0.02-1.65-0.01-2.47-0.12
			c-1.27-0.16-2.54-0.19-3.81-0.22c-0.93-0.02-1.85-0.09-2.77-0.15c-0.6-0.04-1.21-0.09-1.81-0.14c-0.4-0.03-0.8-0.07-1.2-0.12
			c-0.36-0.04-0.73-0.11-1.09-0.14c-0.67-0.05-1.34-0.09-2.02-0.12c-0.6-0.03-1.21-0.04-1.81-0.09c-0.92-0.08-1.84-0.2-2.76-0.28
			c-0.87-0.08-1.74-0.13-2.62-0.19c-1.23-0.08-2.45-0.18-3.66-0.41c-0.48-0.09-0.94-0.25-1.41-0.36c-0.5-0.12-1.01-0.24-1.52-0.35
			c-0.52-0.12-1.04-0.21-1.56-0.35c-0.52-0.14-1.03-0.3-1.59-0.16c-0.25,0.06-0.5,0-0.71-0.17c-0.1-0.07-0.22-0.11-0.43-0.21
			C82.42,82.86,82.51,85.06,83.1,87.29z M134.87,61.84c0-0.01,0-0.03,0-0.04c-1.16,0.1-2.31,0.2-3.47,0.3
			c-0.22,0.02-0.43,0.09-0.64,0.13c-0.31,0.06-0.62,0.13-0.94,0.17c-0.59,0.07-1.18,0.1-1.76,0.18c-0.93,0.13-1.86,0.3-2.8,0.43
			c-0.4,0.06-0.81,0.04-1.21,0.1c-1.28,0.19-2.56,0.39-3.84,0.6c-0.81,0.14-1.62,0.31-2.42,0.48c-0.71,0.14-1.42,0.29-2.12,0.45
			c-0.56,0.13-1.11,0.29-1.66,0.44c-0.55,0.15-1.1,0.33-1.65,0.46c-0.79,0.18-1.59,0.3-2.37,0.48c-0.62,0.14-1.24,0.31-1.86,0.46
			c-0.28,0.07-0.57,0.09-0.84,0.16c-1.09,0.28-2.18,0.58-3.27,0.87c-0.84,0.22-1.65,0.55-2.51,0.75c-0.86,0.2-1.69,0.57-2.58,0.65
			c-0.12,0.01-0.23,0.06-0.34,0.09c-1.57,0.5-3.15,0.98-4.72,1.5c-0.92,0.31-1.83,0.68-2.73,1.04c-0.21,0.08-0.4,0.25-0.55,0.42
			c-0.27,0.29-0.56,0.52-0.94,0.67c-0.64,0.25-1.29,0.48-1.91,0.77c-0.78,0.36-1.54,0.75-2.3,1.15c-0.39,0.2-0.79,0.4-1.11,0.68
			c-0.5,0.45-0.92,0.98-1.4,1.45c-0.3,0.3-0.31,0.82,0.03,1.12c0.63,0.57,1.33,0.97,2.19,1.04c0.13,0.01,0.27,0.04,0.39,0.08
			c0.45,0.14,0.88,0.32,1.34,0.42c1.23,0.27,2.47,0.51,3.71,0.75c0.48,0.09,0.99,0.09,1.44,0.27c0.54,0.21,1.08,0.23,1.63,0.25
			c0.47,0.02,0.94,0.05,1.41,0.11c0.53,0.07,1.06,0.19,1.59,0.27c0.32,0.04,0.64,0.08,0.96,0.04c0.79-0.09,1.54,0.15,2.3,0.21
			c0.87,0.07,1.72,0.27,2.59,0.38c0.53,0.07,1.08,0.07,1.61,0.14c0.45,0.06,0.88,0.19,1.33,0.25c0.8,0.09,1.61,0.15,2.41,0.22
			c0.08,0.01,0.17,0.01,0.25,0.01c0.84,0.05,1.68,0.09,2.52,0.14c1.13,0.07,2.25,0.14,3.38,0.21c1.07,0.07,2.15,0.17,3.22,0.23
			c0.35,0.02,0.7-0.05,1.05-0.07c0.1-0.01,0.2-0.01,0.29-0.01c0.35,0.03,0.7,0.09,1.05,0.09c0.61,0,1.21-0.05,1.82-0.06
			c1.33-0.02,2.66-0.02,3.99-0.04c0.24,0,0.47-0.02,0.71-0.02c1.45,0.01,2.9,0.07,4.34,0c0.74-0.03,1.48,0,2.22,0.02
			c0.94,0.02,1.88,0.12,2.82,0.16c0.37,0.02,0.74-0.06,1.11-0.05c1.34,0.03,2.69,0.08,4.03,0.12c0.08,0,0.17,0,0.25-0.03
			c0.73-0.28,1.5-0.15,2.25-0.16c0.92-0.01,1.85,0.1,2.77,0.15c1.14,0.07,2.3,0.09,3.42-0.11c1.42-0.25,2.85-0.12,4.28-0.22
			c0.79-0.06,1.58-0.07,2.37-0.11c0.27-0.01,0.53-0.04,0.8-0.05c0.81-0.02,1.61-0.04,2.42-0.06c1.3-0.03,2.59-0.07,3.89-0.09
			c0.7-0.01,1.41,0.11,2.11-0.04c0.28-0.06,0.57-0.07,0.85-0.09c1.12-0.08,2.26,0.03,3.37-0.23c0.18-0.04,0.37-0.06,0.55-0.06
			c1.4-0.04,2.79-0.08,4.19-0.12c0.1,0,0.23,0.04,0.3-0.01c0.38-0.24,0.8-0.18,1.22-0.23c1.05-0.11,2.1-0.28,3.15-0.41
			c0.65-0.08,1.3-0.14,1.96-0.18c0.87-0.05,1.75-0.08,2.62-0.12c1.03-0.05,2.05-0.12,3.08-0.14c1.12-0.03,2.25-0.01,3.37-0.01
			c0.07,0,0.13-0.02,0.2-0.03c0.25-0.02,0.5-0.04,0.75-0.06c0.13-0.01,0.27,0,0.4-0.01c1.07-0.14,2.13-0.31,3.2-0.43
			c0.7-0.08,1.41-0.09,2.12-0.13c0.22-0.01,0.44-0.03,0.65-0.07c0.35-0.07,0.68-0.17,1.03-0.22c1.01-0.16,2-0.42,3.02-0.51
			c0.7-0.06,1.39-0.22,2.09-0.33c0.53-0.08,1.07-0.12,1.6-0.23c0.59-0.12,1.16-0.3,1.74-0.45c0.57-0.15,1.16-0.24,1.71-0.45
			c1.16-0.44,2.3-0.94,3.45-1.42c0.8-0.34,1.6-0.69,2.24-1.32c0.26-0.25,0.39-0.51,0.32-0.85c-0.06-0.31-0.13-0.63-0.26-0.92
			c-0.1-0.22-0.26-0.45-0.45-0.59c-0.48-0.36-0.97-0.73-1.59-0.85c-0.19-0.04-0.37-0.15-0.56-0.23c-0.23-0.09-0.46-0.19-0.71-0.25
			c-0.64-0.15-1.27-0.3-1.86-0.61c-0.28-0.15-0.59-0.24-0.88-0.34c-0.37-0.12-0.74-0.23-1.1-0.35c-0.59-0.2-1.11-0.56-1.74-0.66
			c-0.25-0.04-0.49-0.11-0.73-0.19c-0.62-0.21-1.22-0.54-1.86-0.64c-1.14-0.17-2.14-0.79-3.29-0.92c-0.05-0.01-0.1-0.02-0.14-0.05
			c-0.51-0.29-1.1-0.27-1.64-0.4c-0.99-0.24-2.03-0.36-2.99-0.68c-0.95-0.33-1.95-0.38-2.91-0.62c-0.55-0.14-1.11-0.26-1.67-0.39
			c-0.55-0.12-1.11-0.25-1.66-0.36c-0.75-0.14-1.5-0.35-2.28-0.37c-0.06,0-0.13-0.05-0.19-0.06c-0.3-0.03-0.59-0.06-0.89-0.07
			c-0.65-0.04-1.3-0.06-1.95-0.12c-0.41-0.04-0.82-0.19-1.24-0.19c-0.74,0-1.44-0.08-2.11-0.4c-0.24-0.11-0.51-0.17-0.77-0.23
			c-1.03-0.24-2.08-0.35-3.11-0.57c-1.08-0.23-2.19-0.33-3.29-0.5c-0.25-0.04-0.49-0.1-0.74-0.15c-0.47-0.11-0.94-0.27-1.42-0.32
			c-1-0.11-2-0.17-3.01-0.26c-0.12-0.01-0.24,0-0.35-0.01c-0.37-0.03-0.73-0.07-1.1-0.11c-0.28-0.03-0.57-0.07-0.85-0.09
			c-0.89-0.05-1.78-0.11-2.67-0.13c-0.77-0.02-1.55-0.03-2.32-0.02c-0.5,0.01-1.01,0.11-1.51,0.07c-0.54-0.04-1.1,0.07-1.64-0.19
			c-0.19-0.09-0.48,0.01-0.72,0.05c-0.21,0.04-0.41,0.15-0.62,0.16c-0.84,0.02-1.68,0.03-2.53,0.03c-0.52,0-1.04-0.03-1.56-0.05
			c-0.51-0.02-1.01-0.07-1.51-0.07c-0.39,0-0.78,0.1-1.16,0.05c-0.72-0.1-1.44-0.08-2.16-0.04c-0.33,0.02-0.67-0.02-1.01-0.03
			c-0.18,0-0.37-0.01-0.55,0c-0.34,0.01-0.67,0.05-1.01,0.05c-0.62,0.01-1.26-0.06-1.87,0.02c-1.51,0.2-3.02,0.27-4.53,0.31
			C136.75,61.84,135.81,61.83,134.87,61.84z M94.19,155.4c-0.5,0.11-0.95,0.19-1.39,0.3c-0.8,0.19-1.58,0.47-2.42,0.5
			c-0.47,0.01-0.94,0.09-1.4,0.19c-0.59,0.13-1.17,0.3-1.76,0.46c-0.31,0.08-0.63,0.13-0.92,0.25c-0.57,0.24-1.13,0.53-1.69,0.8
			c-0.57,0.27-0.97,0.82-1.63,0.94c-0.12,0.02-0.23,0.13-0.34,0.21c-0.54,0.39-1.09,0.79-1.63,1.18c-0.15,0.11-0.3,0.22-0.43,0.35
			c-0.24,0.24-0.48,0.47-0.67,0.74c-0.19,0.28-0.39,0.54-0.65,0.77c-0.18,0.15-0.38,0.29-0.53,0.46c-0.95,1.11-1.89,2.23-2.82,3.36
			c-0.39,0.48-0.78,0.96-1.12,1.48c-0.27,0.4-0.47,0.85-0.69,1.29c-0.13,0.27-0.25,0.55-0.34,0.84c-0.11,0.35-0.15,0.73-0.3,1.06
			c-0.23,0.51-0.29,1.03-0.33,1.57c-0.04,0.63,0,1.28-0.28,1.88c-0.09,0.19-0.16,0.42-0.16,0.63c0,0.69-0.01,1.37-0.12,2.06
			c-0.06,0.36,0.02,0.75-0.04,1.11c-0.15,0.81,0.05,1.6,0.14,2.4c0.1,0.87,0.3,1.72,0.47,2.58c0.12,0.64,0.25,1.28,0.39,1.92
			c0.31,1.39,0.67,2.77,0.93,4.17c0.13,0.69,0.48,1.28,0.65,1.95c0.14,0.54,0.43,1.04,0.62,1.57c0.24,0.66,0.43,1.34,0.66,2
			c0.5,1.5,1.31,2.84,2.31,4.04c0.63,0.76,1.33,1.47,2.03,2.17c0.52,0.52,1.08,1,1.66,1.47c0.39,0.32,0.87,0.52,1.24,0.86
			c0.67,0.62,1.58,0.88,2.21,1.55c0.02,0.02,0.06,0.03,0.09,0.04c0.55,0.28,1.11,0.55,1.66,0.84c0.39,0.2,0.76,0.43,1.15,0.62
			c0.98,0.47,1.96,0.96,2.97,1.38c0.9,0.38,1.82,0.7,2.74,1.02c0.58,0.2,1.18,0.36,1.77,0.55c0.83,0.27,1.63,0.64,2.51,0.73
			c0.4,0.04,0.8,0.11,1.2,0.15c0.79,0.09,1.57,0.2,2.36,0.24c0.67,0.04,1.34-0.04,2.03-0.19c0-0.13,0.01-0.25-0.01-0.35
			c-0.22-1.16-0.44-2.31-0.66-3.46c-0.24-1.24-0.48-2.47-0.73-3.7c-0.08-0.37-0.18-0.74-0.26-1.08c-0.36-0.07-0.65-0.16-0.95-0.17
			c-0.71-0.02-1.41-0.01-2.12,0.01c-1.38,0.05-2.72-0.15-4.03-0.57c-1.01-0.32-2.01-0.67-3-1.03c-0.76-0.27-1.53-0.53-2.25-0.89
			c-1.11-0.55-1.98-1.44-2.86-2.29c-0.44-0.43-0.82-0.93-1.21-1.41c-0.17-0.21-0.28-0.46-0.44-0.67c-0.27-0.36-0.59-0.7-0.82-1.08
			c-0.49-0.82-1-1.63-1.22-2.58c-0.1-0.42-0.28-0.83-0.43-1.23c-0.17-0.43-0.42-0.85-0.5-1.3c-0.12-0.64-0.27-1.27-0.48-1.89
			c-0.12-0.35-0.22-0.71-0.27-1.07c-0.11-0.69-0.15-1.39-0.27-2.08c-0.07-0.38-0.07-0.76,0.06-1.1c0.22-0.56,0.04-1.12,0.13-1.68
			c0.09-0.49,0.16-0.99,0.26-1.48c0.02-0.11,0.15-0.19,0.17-0.3c0.13-0.6,0.23-1.22,0.37-1.82c0.14-0.57,0.3-1.14,0.48-1.69
			c0.22-0.67,0.4-1.36,0.73-1.98c0.53-1.01,1.15-1.97,1.74-2.95c0.12-0.2,0.24-0.42,0.42-0.56c0.51-0.39,0.91-0.89,1.32-1.38
			c0.33-0.4,0.65-0.84,1.06-1.14c0.62-0.46,1.31-0.82,1.98-1.21c0.17-0.1,0.38-0.15,0.53-0.28c0.63-0.52,1.39-0.75,2.12-1.01
			c0.68-0.24,1.39-0.39,2.09-0.59c0.11-0.03,0.21-0.09,0.34-0.14c-0.04-0.43-0.04-0.86-0.12-1.27c-0.15-0.79-0.39-1.56-0.42-2.37
			c-0.02-0.35-0.12-0.7-0.18-1.04c-0.13-0.65-0.27-1.31-0.4-1.96C94.39,156.54,94.3,156.01,94.19,155.4z M102.44,200.01
			c-0.11-0.58-0.2-1.09-0.3-1.6c-0.26-1.35-0.51-2.71-0.78-4.06c-0.22-1.1-0.5-2.19-0.71-3.29c-0.21-1.09-0.37-2.19-0.56-3.28
			c-0.12-0.7-0.25-1.39-0.38-2.09c-0.14-0.74-0.31-1.48-0.44-2.22c-0.23-1.29-0.43-2.58-0.65-3.87c-0.17-0.99-0.35-1.98-0.53-2.98
			c-0.08-0.48-0.16-0.95-0.26-1.43c-0.08-0.41-0.17-0.82-0.25-1.23c-0.03-0.15-0.05-0.3-0.08-0.44c-0.16-0.84-0.32-1.68-0.47-2.52
			c-0.08-0.41-0.13-0.83-0.21-1.24c-0.2-1.03-0.39-2.06-0.6-3.09c-0.11-0.57-0.24-1.13-0.37-1.72c-0.16,0-0.27-0.01-0.39,0
			c-0.56,0.06-1.11,0.16-1.66,0.34c-0.73,0.24-1.48,0.46-2.17,0.81c-1.41,0.71-2.54,1.8-3.7,2.85c-0.08,0.08-0.13,0.19-0.2,0.29
			c-0.11,0.17-0.21,0.34-0.33,0.5c-0.27,0.34-0.56,0.67-0.81,1.02c-0.17,0.24-0.25,0.57-0.45,0.78c-0.33,0.35-0.59,0.72-0.63,1.22
			c-0.01,0.11-0.12,0.2-0.17,0.31c-0.08,0.16-0.18,0.31-0.23,0.48c-0.23,0.73-0.44,1.47-0.66,2.21c-0.3,1.02-0.62,2.03-0.72,3.09
			c-0.01,0.13-0.02,0.27-0.06,0.4c-0.34,1.13-0.38,2.29-0.34,3.45c0.03,0.87,0.21,1.73,0.33,2.59c0,0.03,0.02,0.06,0.03,0.1
			c0.23,0.76,0.46,1.51,0.67,2.27c0.11,0.4,0.17,0.82,0.28,1.22c0.07,0.26,0.18,0.51,0.28,0.76c0.22,0.57,0.42,1.16,0.68,1.72
			c0.42,0.9,1.02,1.69,1.61,2.5c0.63,0.86,1.28,1.69,2.06,2.41c0.51,0.47,1.08,0.92,1.68,1.27c0.59,0.35,1.25,0.58,1.89,0.83
			c0.62,0.24,1.28,0.41,1.9,0.67c0.87,0.36,1.77,0.63,2.7,0.78c0.58,0.09,1.17,0.16,1.76,0.15c0.82-0.02,1.64-0.13,2.46,0.01
			C101.89,199.99,102.12,199.99,102.44,200.01z M121.39,220.34c-0.41-0.19-0.75-0.3-1.05-0.49c-1.14-0.7-2.39-0.87-3.68-0.78
			c-0.73,0.05-1.46,0.2-2.18,0.33c-0.49,0.09-0.98,0.21-1.46,0.35c-0.39,0.12-0.77,0.29-1.15,0.44c0.04,0.1,0.04,0.14,0.06,0.16
			c0.8,0.84,1.6,1.67,2.39,2.51c0.09,0.09,0.17,0.2,0.25,0.3c0.12,0.16,0.22,0.32,0.34,0.48c0.25,0.33,0.64,0.52,0.85,0.91
			c0.19,0.34,0.5,0.61,0.73,0.88c0.65-0.15,1.25-0.36,1.86-0.41c0.45-0.04,0.59-0.25,0.74-0.6c0.27-0.61,0.57-1.22,0.92-1.79
			c0.33-0.56,0.75-1.07,1.11-1.62C121.23,220.83,121.29,220.59,121.39,220.34z M172.74,229.43c0.29-1.27,1.25-1.9,2.21-2.51
			c-0.09-0.24-0.2-0.44-0.24-0.65c-0.12-0.65-0.38-1.24-0.69-1.81c-0.14-0.26-0.3-0.52-0.48-0.76c-0.18-0.24-0.39-0.46-0.61-0.66
			c-0.42-0.38-0.82-0.78-1.37-1.01c-0.35-0.15-0.61-0.08-0.88,0.14c-0.19,0.16-0.38,0.33-0.58,0.49c-0.58,0.48-1.24,0.87-1.66,1.52
			c-0.3,0.46-0.66,0.9-0.88,1.41c-0.19,0.44-0.23,0.94-0.35,1.41c-0.06,0.23,0.03,0.42,0.2,0.53c0.35,0.23,0.7,0.48,1.09,0.62
			c0.98,0.34,1.98,0.63,2.98,0.94C171.89,229.19,172.29,229.3,172.74,229.43z M97.33,100.07c0.03-0.19-0.03-0.32-0.24-0.35
			c-0.55-0.09-1.09-0.21-1.64-0.27c-1.12-0.12-2.24-0.21-3.37-0.33c-0.42-0.04-0.83-0.13-1.24-0.21c-0.17-0.04-0.29,0.01-0.4,0.13
			c-0.36,0.37-0.73,0.74-1.1,1.1c-0.14,0.13-0.19,0.27-0.11,0.45c0.42,0.93,1.02,1.74,1.67,2.51c0.7,0.84,1.73,1.25,2.62,1.84
			c0.19,0.13,0.39,0.13,0.6-0.03c0.38-0.28,0.79-0.51,1.17-0.78c0.19-0.13,0.39-0.28,0.52-0.46c0.33-0.46,0.65-0.93,0.92-1.43
			C97.09,101.57,97.31,100.85,97.33,100.07z M117.8,234.18c-0.15-0.04-0.22-0.08-0.3-0.08c-0.08-0.01-0.17,0-0.25,0.01
			c-0.96,0.15-1.7-0.28-2.33-0.93c-0.6-0.63-1.17-1.29-1.78-1.97c-1.01,0.07-1.89,0.63-2.83,1.01c-0.24,0.1-0.21,0.32-0.15,0.52
			c0.05,0.18,0.15,0.35,0.15,0.53c0,0.7,0.23,1.36,0.39,2.03c0.04,0.16,0.16,0.32,0.28,0.45c0.36,0.4,0.79,0.71,1.27,0.96
			c0.49,0.25,0.91,0.63,1.5,0.64c0.09,0,0.19,0.07,0.28,0.11c0.43,0.2,0.84,0.41,1.28,0.59c0.32,0.13,0.67,0.22,1,0.33
			c0.29,0.1,0.34,0.1,0.46-0.2c0.2-0.51,0.36-1.05,0.58-1.55C117.66,235.86,117.64,235.03,117.8,234.18z M172.37,221.1
			c0.03,0.09,0.03,0.13,0.05,0.15c0.54,0.45,1.09,0.89,1.62,1.35c0.18,0.15,0.38,0.3,0.49,0.5c0.41,0.73,0.96,1.38,1.21,2.2
			c0.12,0.38,0.25,0.76,0.37,1.15c0.07,0.24,0.22,0.37,0.47,0.4c0.22,0.02,0.46,0.09,0.6-0.13c0.16-0.25,0.28-0.53,0.41-0.81
			c0.11-0.23,0.18-0.47,0.3-0.68c0.25-0.45,0.52-0.89,0.79-1.34c0.07-0.11,0.15-0.23,0.24-0.32c0.66-0.6,1.32-1.19,1.98-1.79
			c0.17-0.16,0.32-0.33,0.53-0.55c-0.4-0.2-0.74-0.41-1.11-0.55c-0.41-0.15-0.84-0.25-1.26-0.34c-0.47-0.1-0.95-0.23-1.43-0.25
			c-0.82-0.03-1.65,0-2.47,0.03c-0.3,0.01-0.6,0.07-0.89,0.15c-0.31,0.08-0.61,0.19-0.9,0.32
			C173.03,220.74,172.7,220.93,172.37,221.1z M178.99,227.01c0.08,0.07,0.16,0.16,0.26,0.21c0.45,0.22,0.92,0.41,1.36,0.66
			c0.49,0.28,0.99,0.58,1.41,0.95c0.27,0.24,0.51,0.31,0.81,0.19c0.73-0.3,1.45-0.61,2.17-0.92c0.26-0.11,0.52-0.23,0.79-0.32
			c0.31-0.11,0.64-0.18,0.95-0.3c0.14-0.05,0.26-0.15,0.37-0.25c0.19-0.18,0.37-0.38,0.59-0.6c0.06-0.31-0.19-0.54-0.38-0.78
			c-0.56-0.74-1.3-1.29-2.04-1.85c-0.17-0.13-0.34-0.27-0.51-0.41c-0.55-0.43-1.11-0.87-1.7-1.33c-0.31,0.25-0.6,0.49-0.9,0.73
			c0.1,0.15,0.18,0.26,0.26,0.38C180.86,224.36,179.39,226.1,178.99,227.01z M90.14,96.47c0.41-0.24,0.78-0.47,1.16-0.68
			c0.36-0.2,0.74-0.35,1.1-0.55c0.51-0.29,1.04-0.56,1.5-0.91c0.75-0.56,1.45-1.18,2.4-1.45c-0.01-0.07,0-0.13-0.02-0.19
			c-0.29-0.85-0.85-1.53-1.53-2.08c-0.65-0.53-1.38-0.95-2.07-1.42c-0.33-0.22-0.44-0.24-0.76,0.02c-0.45,0.35-0.88,0.73-1.3,1.12
			c-0.09,0.08-0.14,0.23-0.2,0.35c-0.23,0.47-0.4,0.98-0.7,1.39c-0.47,0.66-0.6,1.45-0.87,2.18c-0.05,0.14-0.06,0.36,0.02,0.47
			C89.27,95.3,89.7,95.87,90.14,96.47z M199.36,98.09c-0.17,0.07-0.31,0.1-0.41,0.18c-0.36,0.3-0.72,0.6-1.06,0.92
			c-0.51,0.46-1.01,0.94-1.51,1.41c-0.15,0.14-0.31,0.25-0.46,0.39c-0.17,0.15-0.16,0.33-0.03,0.49c0.23,0.29,0.45,0.59,0.69,0.86
			c0.5,0.55,1.1,0.95,1.72,1.36c0.64,0.43,1.35,0.66,2.04,0.97c0.2,0.09,0.4,0.17,0.6,0.25c0.34,0.13,0.63,0.09,0.83-0.24
			c0.12-0.18,0.24-0.36,0.34-0.55c0.1-0.18,0.16-0.37,0.27-0.54c0.42-0.61,0.75-1.26,1.04-1.95c0.13-0.31,0.12-0.41-0.17-0.57
			c-0.13-0.07-0.28-0.12-0.42-0.17c-0.75-0.32-1.39-0.81-2-1.33C200.33,99.13,199.87,98.61,199.36,98.09z M183.08,239.07
			c0.73-0.17,1.29-0.67,1.94-1.02c0.1-0.05,0.15-0.17,0.22-0.27c0.36-0.48,0.73-0.96,1.25-1.29c0.07-0.05,0.14-0.15,0.15-0.24
			c0.11-0.56,0.22-1.12,0.31-1.68c0.02-0.1,0-0.28-0.07-0.32c-0.4-0.23-0.81-0.53-1.25-0.63c-1.13-0.25-2.28-0.42-3.42-0.61
			c-0.28-0.05-0.51-0.14-0.55-0.43c-0.61,0.49-1.19,0.97-1.78,1.43c-0.19,0.15-0.25,0.32-0.17,0.53c0.1,0.29,0.17,0.6,0.34,0.84
			c0.52,0.74,1.06,1.47,1.63,2.17C182.1,238.07,182.59,238.54,183.08,239.07z M120,225.37c0.4,0.25,0.76,0.52,1.16,0.74
			c0.66,0.37,1.35,0.68,1.81,1.32c0.15,0.21,0.33,0.23,0.53,0.13c0.7-0.34,1.47-0.41,2.22-0.52c0.35-0.05,0.7-0.08,1.05-0.14
			c0.48-0.08,0.57-0.25,0.41-0.69c-0.03-0.08-0.08-0.15-0.12-0.22c-0.25-0.47-0.49-0.95-0.74-1.42c-0.07-0.13-0.14-0.27-0.23-0.39
			c-0.32-0.43-0.65-0.85-0.98-1.27c-0.15-0.19-0.31-0.39-0.48-0.56c-0.49-0.46-0.98-0.91-1.59-1.22c-0.43-0.22-0.45-0.27-0.73,0.13
			c-0.5,0.69-0.96,1.42-1.43,2.13C120.46,223.98,120.09,224.59,120,225.37z M123.33,238.64c0.67-0.2,1.11-0.68,1.56-1.16
			c0.93-0.96,1.57-2.08,2.02-3.32c0.12-0.33,0.11-0.38-0.18-0.52c-0.38-0.17-0.77-0.31-1.16-0.46c-0.08-0.03-0.17-0.03-0.23-0.08
			c-0.51-0.4-1.01-0.81-1.53-1.19c-0.2-0.14-0.46-0.25-0.69-0.26c-0.12-0.01-0.27,0.21-0.39,0.35c-0.31,0.34-0.61,0.68-1.03,0.87
			c-0.32,0.15-0.65,0.28-0.97,0.42c-0.4,0.18-0.49,0.32-0.34,0.71c0.35,0.93,0.67,1.87,1.24,2.68c0.45,0.62,0.97,1.19,1.47,1.78
			C123.16,238.53,123.25,238.58,123.33,238.64z M198.83,88.43c0.57,0.49,0.73,0.55,1.43,0.69c0.32,0.07,0.68,0.14,0.93,0.34
			c0.4,0.32,0.7,0.75,1.07,1.11c0.27,0.27,0.55,0.61,0.89,0.71c0.69,0.21,1.42,0.2,2.08,0.11c0.16-0.4,0.3-0.73,0.42-1.07
			c0.16-0.45,0.31-0.92,0.46-1.37c0.03-0.08,0.08-0.15,0.13-0.22c0.31-0.47,0.63-0.94,0.93-1.42c0.17-0.28,0.07-0.51-0.25-0.55
			c-0.58-0.08-1.17-0.18-1.75-0.18c-1.18,0-2.32,0.24-3.42,0.71c-0.63,0.27-1.31,0.43-1.96,0.63
			C199.43,88.03,199.11,88.15,198.83,88.43z M115.23,225.86c-0.05-0.11-0.1-0.26-0.19-0.37c-0.44-0.55-0.89-1.09-1.35-1.62
			c-0.29-0.34-0.6-0.67-0.91-0.99c-0.57-0.59-1.12-1.2-1.74-1.73c-0.59-0.5-0.35-0.47-1.01-0.06c-0.71,0.43-1.15,1.12-1.4,1.87
			c-0.23,0.68-0.19,1.43-0.07,2.15c0.02,0.12,0.1,0.27,0.19,0.33c0.48,0.31,0.96,0.62,1.47,0.88c0.93,0.47,1.87,0.91,2.81,1.35
			c0.3,0.14,0.48,0.08,0.69-0.19c0.14-0.19,0.28-0.38,0.45-0.55C114.52,226.56,114.86,226.23,115.23,225.86z M83.99,88.42
			c0,0.06,0,0.1,0.01,0.12c0.33,0.54,0.66,1.08,0.98,1.62c0.06,0.1,0.09,0.22,0.13,0.33c0.24,0.61,0.46,1.23,0.74,1.82
			c0.22,0.46,0.49,0.88,0.48,1.41c-0.01,0.22,0.12,0.39,0.34,0.44c0.39,0.1,0.78-0.07,0.95-0.44c0.15-0.32,0.27-0.65,0.42-0.97
			c0.12-0.27,0.27-0.53,0.4-0.8c0.1-0.21,0.19-0.43,0.29-0.64c0.09-0.19,0.2-0.38,0.3-0.58c0.18-0.38,0.34-0.77,0.55-1.13
			c0.16-0.27,0.4-0.5,0.58-0.76c0.24-0.33,0.18-0.51-0.22-0.62c-0.58-0.17-1.17-0.35-1.76-0.43c-0.64-0.08-1.3-0.21-1.95-0.01
			c-0.47,0.14-0.95,0.21-1.42,0.34C84.53,88.2,84.2,88.19,83.99,88.42z M174.03,238.47c0.26-0.67,0.63-1.23,1.13-1.73
			c0.28-0.29,0.49-0.66,0.71-1.01c0.12-0.2,0.19-0.43,0.29-0.64c0.21-0.43,0.2-0.47-0.25-0.58c-1.11-0.27-2.03-0.85-2.76-1.73
			c-0.18-0.21-0.31-0.46-0.46-0.69c-1.41,0.59-2.79,1.19-4.3,1.59c0.07,0.11,0.13,0.24,0.22,0.35c0.36,0.44,0.71,0.89,1.09,1.32
			c0.2,0.22,0.43,0.42,0.67,0.6c0.61,0.47,1.23,0.93,1.85,1.39C172.78,237.78,173.35,238.18,174.03,238.47z M201.56,91.93
			c-0.53-0.83-1.09-1.4-1.91-1.68c-0.63-0.22-1.26-0.45-1.89-0.69c-0.26-0.1-0.44-0.07-0.62,0.15c-0.65,0.8-1.21,1.65-1.58,2.61
			c-0.16,0.42-0.36,0.82-0.55,1.23c-0.1,0.22-0.05,0.37,0.2,0.49c0.36,0.18,0.72,0.35,1.1,0.51c0.65,0.27,1.31,0.51,1.97,0.78
			c0.5,0.2,0.63,0.15,0.85-0.35c0.15-0.34,0.26-0.7,0.46-1c0.42-0.63,0.84-1.25,1.5-1.67C201.24,92.19,201.38,92.06,201.56,91.93z
			 M212.46,90.18c-0.01-0.68-0.09-0.81-0.56-1.05c-0.16-0.08-0.32-0.19-0.47-0.28c-0.37-0.23-0.75-0.45-1.11-0.69
			c-0.43-0.28-0.89-0.47-1.36-0.64c-0.51-0.19-0.54-0.19-0.91,0.18c-0.34,0.34-0.5,0.79-0.74,1.19c-0.45,0.76-0.74,1.58-0.88,2.45
			c-0.06,0.37-0.02,0.47,0.31,0.58c0.69,0.24,1.23,0.68,1.72,1.21c0.44,0.47,0.64,0.47,1.14,0.05c0.28-0.24,0.59-0.43,0.89-0.65
			c0.07-0.05,0.16-0.08,0.21-0.14c0.29-0.35,0.56-0.7,0.85-1.05c0.1-0.11,0.2-0.25,0.33-0.29
			C212.38,90.88,212.43,90.47,212.46,90.18z M174.52,238.76c0.57,0.46,1.75,0.91,2.52,1c0.82,0.1,1.64,0.19,2.46,0.07
			c0.65-0.09,1.3-0.19,1.95-0.29c0.05-0.01,0.09-0.07,0.17-0.14c-1.56-1.31-2.69-2.91-3.6-4.78c-0.18,0.2-0.36,0.31-0.41,0.46
			c-0.22,0.67-0.65,1.21-1.03,1.78c-0.23,0.34-0.49,0.68-0.8,0.96C175.41,238.16,174.95,238.44,174.52,238.76z M91.37,106.12
			c-0.08-0.14-0.1-0.22-0.15-0.25c-0.42-0.3-0.71-0.7-0.99-1.13c-0.05-0.08-0.16-0.13-0.22-0.21c-0.34-0.41-0.72-0.79-1.01-1.24
			c-0.43-0.68-0.81-1.39-1.2-2.1c-0.09-0.16-0.19-0.22-0.36-0.2c-0.19,0.02-0.31,0.12-0.33,0.32c-0.03,0.28-0.05,0.56-0.06,0.85
			c-0.02,0.33-0.01,0.67-0.05,1c-0.06,0.62-0.13,1.24-0.21,1.85c-0.06,0.45-0.16,0.89-0.25,1.33c-0.05,0.24-0.06,0.46,0.15,0.69
			c0.25-0.05,0.52-0.08,0.77-0.17c0.6-0.24,1.22-0.19,1.84-0.22c0.55-0.03,1.09-0.16,1.63-0.27
			C91.07,106.35,91.2,106.22,91.37,106.12z M119.17,234.57c-0.05-0.01-0.1-0.01-0.15-0.02c-0.06,0.18-0.14,0.35-0.19,0.53
			c-0.04,0.16-0.02,0.34-0.07,0.5c-0.32,1-0.49,2.05-0.96,3.01c-0.1,0.21-0.05,0.35,0.15,0.45c0.33,0.16,0.65,0.34,0.99,0.49
			c0.17,0.08,0.35,0.16,0.56,0c0.1-0.08,0.33-0.04,0.48,0.01c0.57,0.17,1.13,0.08,1.68-0.09c0.15-0.05,0.33-0.04,0.39-0.15
			c-0.36-0.44-0.7-0.82-0.99-1.24c-0.36-0.53-0.87-0.98-0.97-1.67c-0.01-0.07-0.1-0.13-0.14-0.21c-0.1-0.17-0.22-0.34-0.3-0.52
			C119.48,235.3,119.32,234.93,119.17,234.57z M203.55,104.88c-0.01,0.32,0.23,0.39,0.47,0.39c0.32,0.01,0.65,0.03,0.95-0.04
			c0.63-0.15,1.26-0.34,1.88-0.53c0.43-0.13,0.43-0.22,0.15-0.59c-0.3-0.4-0.62-0.79-0.86-1.22c-0.22-0.4-0.53-0.78-0.58-1.26
			c-0.01-0.08-0.09-0.14-0.13-0.22c-0.09-0.16-0.2-0.27-0.4-0.24c-0.22,0.03-0.37,0.15-0.41,0.38c-0.03,0.13-0.03,0.28-0.09,0.39
			c-0.32,0.57-0.66,1.12-0.99,1.68c-0.22,0.37-0.46,0.74-0.68,1.11c-0.05,0.08-0.03,0.21-0.04,0.39
			C203.08,105.03,203.28,104.97,203.55,104.88z M119.97,232.08c0.37-0.03,0.65-0.09,0.85-0.32c0.31-0.33,0.62-0.66,0.91-1
			c0.38-0.45,0.53-0.97,0.44-1.55c-0.09-0.54-0.47-0.93-0.77-1.37c-0.01-0.01-0.02-0.02-0.04-0.03c-0.42-0.21-0.84-0.43-1.27-0.61
			c-0.4-0.17-0.55-0.05-0.56,0.4c0,0.32,0.01,0.64,0.04,0.96c0.07,0.97,0.14,1.94,0.23,2.92
			C119.82,231.67,119.91,231.86,119.97,232.08z M175.39,228.2c-0.78,0.23-1.36,0.98-1.37,1.71c0,0.21-0.05,0.43-0.06,0.64
			c-0.03,0.46,0.06,0.88,0.32,1.29c0.34,0.53,0.87,0.83,1.36,1.18c0.29,0.21,0.64,0.37,1.1,0.26c0-0.17,0.01-0.34,0.01-0.51
			c-0.01-0.22-0.04-0.43-0.04-0.65c0-0.45-0.04-0.89-0.31-1.28c-0.06-0.08-0.1-0.18-0.12-0.27c-0.12-0.4-0.21-0.81-0.36-1.21
			C175.76,228.95,175.66,228.53,175.39,228.2z M178.26,228.81c0.04,0.4,0.08,0.78,0.11,1.17c0.07,0.87,0.17,1.74,0.52,2.55
			c0.12,0.27,0.19,0.33,0.45,0.18c0.27-0.16,0.54-0.35,0.76-0.57c0.43-0.42,0.89-0.81,1.14-1.39c0.11-0.26,0.12-0.51-0.01-0.73
			c-0.15-0.26-0.33-0.53-0.57-0.7c-0.64-0.48-1.34-0.9-2.11-1.13c-0.24,0.17-0.48,0.35-0.76,0.55
			C177.96,228.77,178.1,228.79,178.26,228.81z M116.06,227.16c-0.52,0.44-0.86,1.35-0.73,1.93c0.02,0.1,0.05,0.2,0.1,0.28
			c0.39,0.73,0.64,1.54,1.14,2.21c0.17,0.23,0.34,0.45,0.55,0.65c0.27,0.26,0.59,0.29,1,0.05
			C117.49,230.56,117.18,228.73,116.06,227.16z M201.45,96.47c0.09,0.4-0.01,0.76,0.32,0.97c0.55,0.35,1.14,0.59,1.8,0.6
			c0.52,0.01,0.63-0.21,0.47-0.71c-0.14-0.44-0.23-0.9-0.33-1.35c-0.09-0.44-0.13-0.89-0.23-1.33c-0.08-0.36-0.22-0.41-0.53-0.24
			c-0.58,0.31-1,0.79-1.27,1.39C201.57,96.03,201.51,96.29,201.45,96.47z M205.93,97.49c0.37-0.32,0.72-0.6,0.86-0.98
			c0.14-0.39,0.16-0.82,0.2-1.24c0.05-0.49-0.28-0.81-0.59-1.12c-0.17-0.16-0.35-0.09-0.42,0.14c-0.03,0.11-0.04,0.23-0.04,0.35
			c-0.01,0.4-0.02,0.81-0.02,1.21C205.91,96.36,205.92,96.88,205.93,97.49z M83.87,91.01c0,0.3-0.03,0.58,0.01,0.85
			c0.12,0.74,0.27,1.48,0.41,2.22c0.03,0.16,0.07,0.33,0.14,0.48c0.04,0.08,0.13,0.16,0.22,0.18c0.33,0.07,0.66-0.26,0.6-0.6
			c-0.02-0.11-0.07-0.22-0.11-0.33c-0.26-0.7-0.5-1.42-0.78-2.11C84.26,91.46,84.26,91.12,83.87,91.01z M85.84,99.49
			c0.27-1.16-0.2-2.18-0.2-3.34c-0.55,0.43-0.83,0.84-0.71,1.45c0.07,0.36,0.16,0.72,0.18,1.09C85.14,99.14,85.44,99.3,85.84,99.49z
			 M118.04,228.29c0.02-0.02,0.04-0.03,0.06-0.05c0.06-0.43,0.12-0.85,0.18-1.28c0.03-0.2,0.09-0.44-0.18-0.5
			c-0.25-0.06-0.51-0.12-0.8,0.03C117.56,227.12,117.8,227.71,118.04,228.29z M88.81,98.77c0.45-0.53,0.38-1.12-0.18-1.68
			C88.53,97.67,88.65,98.2,88.81,98.77z M85.75,101.27c-0.04,0.01-0.07,0.02-0.11,0.03c0.03,0.12,0.06,0.24,0.09,0.36
			c0.04-0.01,0.07-0.02,0.11-0.03C85.81,101.51,85.78,101.39,85.75,101.27z M87.09,99.58c0.03,0,0.06,0,0.09,0c0-0.09,0-0.19,0-0.28
			c-0.02,0-0.05,0-0.07,0C87.1,99.38,87.09,99.48,87.09,99.58z"/>
		<path fill="#FFFFFF" d="M135.46,106.94c-0.32-0.04-0.63,0.15-0.87-0.14c0.69,0,0.67-0.08,0.63-0.78
			c-0.04-0.75-0.48-1.36-0.54-2.09c-0.07-1-0.25-1.99-0.15-3.01c0.07-0.71,0.26-1.38,0.4-2.07c0.08-0.42,0.29-0.82,0.43-1.23
			c0.25-0.76,0.71-1.43,1.08-2.13c0.22-0.43,0.65-0.75,0.99-1.11c0.26-0.28,0.55-0.55,0.8-0.84c0.55-0.67,1.26-1.13,2-1.57
			c0.45-0.27,0.93-0.45,1.42-0.61c0.36-0.12,0.68-0.34,1.02-0.49c0.12-0.05,0.27-0.11,0.38-0.07c0.56,0.19,1.06-0.06,1.57-0.19
			c0.57-0.15,1.13-0.26,1.74-0.15c0.97,0.18,1.95,0.31,2.93,0.45c0.96,0.13,1.84,0.53,2.75,0.84c0.17,0.06,0.34,0.15,0.52,0.2
			c0.74,0.25,1.32,0.73,1.89,1.23c0.29,0.25,0.58,0.5,0.87,0.76c0.74,0.65,1.34,1.4,1.75,2.3c0.56,1.22,0.9,2.49,1.19,3.8
			c0.22,1,0.2,2.01,0.16,3.02c-0.01,0.27-0.01,0.54,0,0.81c0.03,1.15-0.25,2.25-0.78,3.25c-0.65,1.22-1.52,2.29-2.76,3
			c-0.35,0.2-0.64,0.49-0.97,0.72c-0.53,0.37-1.03,0.81-1.66,1.02c-0.22,0.37-0.69,0.38-0.96,0.72c-0.37,0.46-0.96,0.61-1.53,0.69
			c-0.63,0.09-1.27,0.26-1.9,0.22c-1.03-0.06-2.1,0.1-3.06-0.44c-0.19-0.11-0.41-0.16-0.63-0.19c-1.31-0.16-2.55-0.59-3.79-1.02
			c-0.76-0.26-1.39-0.67-1.99-1.23c-0.79-0.74-1.45-1.58-2.04-2.47C136.05,107.7,135.73,107.32,135.46,106.94z M142.32,101.64
			c0.03-0.1,0.06-0.19,0.1-0.28c0.17-0.42,0.3-0.86,0.54-1.24c0.24-0.38,0.58-0.7,0.9-1.01c0.2-0.19,0.24-0.34,0.06-0.55
			c-0.35-0.41-0.67-0.83-1.02-1.24c-0.26-0.31-0.56-0.58-0.81-0.9c-0.56-0.71-1.17-1.33-2.07-1.61c-0.4-0.12-0.68-0.07-0.95,0.21
			c-0.32,0.32-0.67,0.61-0.97,0.95c-0.36,0.41-0.73,0.84-1.02,1.31c-0.58,0.95-0.85,2.01-0.96,3.11c-0.04,0.45,0.04,0.6,0.46,0.68
			c1.12,0.21,2.24,0.45,3.4,0.38c0.38-0.02,0.79,0,1.14,0.13C141.54,101.74,141.91,101.74,142.32,101.64z M140.84,93.45
			c0.35,0.25,0.58,0.44,0.84,0.59c0.47,0.27,0.9,0.57,1.24,1.01c0.44,0.59,0.9,1.16,1.37,1.72c0.35,0.41,0.73,0.78,1.1,1.16
			c0.21-0.08,0.39-0.2,0.59-0.22c0.58-0.06,0.84-0.41,0.96-0.94c0.01-0.05,0.03-0.1,0.05-0.14c0.28-0.63,0.35-1.33,0.74-1.92
			c0.32-0.49,0.61-1,0.91-1.5c0.06-0.1,0.09-0.21,0.14-0.35c-0.36-0.17-0.68-0.35-1.02-0.49c-0.98-0.4-1.98-0.62-3.05-0.35
			c-0.94,0.24-1.91,0.4-2.78,0.87C141.61,93.05,141.29,93.22,140.84,93.45z M149.21,105.46c-0.16,0.32,0,0.55,0.15,0.74
			c0.35,0.45,0.73,0.88,1.11,1.3c0.71,0.79,1.72,1.09,2.63,1.54c0.14,0.07,0.4,0.08,0.52,0c0.5-0.36,1.05-0.66,1.46-1.14
			c0.57-0.65,1.1-1.31,1.31-2.17c0.12-0.51,0.26-1.01,0.36-1.51c0.03-0.13-0.03-0.28-0.05-0.42c-0.24,0-0.43,0.02-0.61,0
			c-0.72-0.07-1.43-0.17-2.15-0.24c-0.68-0.06-1.37-0.11-2.06-0.13c-0.16,0-0.41,0.08-0.47,0.2c-0.23,0.47-0.66,0.72-1.05,1
			c-0.29,0.21-0.53,0.38-0.51,0.75C149.62,105.4,149.42,105.43,149.21,105.46z M155.08,97.14c0.29-0.26,0.31-0.36,0.13-0.65
			c-0.44-0.67-0.91-1.3-1.69-1.62c-0.14-0.06-0.26-0.16-0.38-0.25c-0.81-0.6-1.75-0.92-2.65-1.33c-0.27-0.12-0.39-0.06-0.54,0.2
			c-0.24,0.4-0.5,0.78-0.73,1.19c-0.18,0.34-0.31,0.7-0.48,1.05c-0.1,0.2-0.05,0.35,0.18,0.48c-0.16,0.04-0.26,0.05-0.35,0.09
			c-0.04,0.02-0.06,0.11-0.06,0.17c0,0.04,0.08,0.11,0.09,0.1c0.3-0.13,0.45,0.12,0.65,0.24c0.11,0.06,0.28,0.04,0.34,0.05
			c0.1-0.25,0.12-0.49,0.25-0.58c0.21-0.15,0.32-0.33,0.42-0.54c0.14-0.27,0.31-0.49,0.68-0.51c0.29-0.02,0.59-0.12,0.86-0.23
			c0.3-0.12,0.4-0.12,0.6,0.12c0.09,0.11,0.18,0.23,0.27,0.35c0.15-0.1,0.27-0.17,0.43-0.28c0,0.19,0,0.31,0,0.42
			c-0.14,0.04-0.26,0.08-0.41,0.13c0.14,0.16,0.24,0.28,0.36,0.42c-0.25,0.34-0.45,0.71-0.74,0.97c-0.38,0.35-0.82,0.67-1.4,0.35
			c-0.09-0.05-0.23-0.02-0.34-0.02c-0.12-0.01-0.24-0.02-0.38-0.03c0.13-0.11,0.3-0.19,0.31-0.28c0.01-0.19-0.12-0.33-0.32-0.37
			c-0.36,0.31-0.53,0.69-0.54,1.17c0.12,0.09,0.24,0.22,0.38,0.29c0.56,0.29,0.95,0.74,1.26,1.28c0.21,0.36,0.4,0.41,0.73,0.15
			c0.3-0.24,0.58-0.5,0.87-0.76c0.35-0.31,0.71-0.62,1.04-0.95c0.36-0.36,0.91-0.58,0.93-1.23C154.93,96.86,155,96.98,155.08,97.14z
			 M141.94,110.52c0.33-0.12,0.58-0.21,0.82-0.3c0.13-0.05,0.27-0.07,0.37-0.15c0.52-0.43,1.06-0.83,1.52-1.32
			c0.61-0.66,0.94-1.49,1.24-2.33c0.07-0.18,0.11-0.37,0.18-0.6c-0.27-0.03-0.48-0.06-0.69-0.09c-0.75-0.12-1.46-0.39-2.13-0.72
			c-0.25-0.13-0.42-0.13-0.62,0.08c-0.18,0.17-0.4,0.3-0.6,0.45c-0.14,0.12-0.28,0.24-0.4,0.38c-0.52,0.64-1.02,1.28-1.54,1.92
			c-0.18,0.22-0.37,0.41-0.68,0.48c-0.26,0.06-0.31,0.26-0.13,0.45c0.26,0.26,0.52,0.54,0.83,0.73
			C140.72,109.87,141.36,110.2,141.94,110.52z M144.04,111.06c1.08,0.39,2.11,0.62,3.16,0.73c0.61,0.06,1.29,0.08,1.77-0.47
			c0.27-0.31,0.56-0.34,0.86-0.04c0.73-0.24,1.42-0.48,1.97-1.09c-0.14-0.06-0.2-0.11-0.25-0.1c-0.05,0.01-0.09,0.08-0.15,0.11
			c-0.04,0.02-0.08,0.02-0.13,0.04c-0.03-0.13-0.06-0.24-0.08-0.31c-0.28-0.11-0.55-0.17-0.77-0.31c-0.21-0.13-0.4-0.23-0.65-0.21
			c-0.19,0.01-0.34-0.04-0.46-0.23c-0.07-0.12-0.29-0.14-0.53-0.25c-0.01-0.09-0.04-0.26-0.07-0.44c-0.01-0.06,0-0.14-0.03-0.18
			c-0.4-0.42-0.63-0.94-0.87-1.45c-0.05-0.1-0.19-0.19-0.31-0.21c-0.06-0.01-0.16,0.14-0.22,0.23c-0.21,0.34-0.37,0.72-0.63,1.01
			c-0.25,0.28-0.43,0.58-0.58,0.93c-0.07,0.16-0.18,0.32-0.31,0.45c-0.48,0.49-0.97,0.96-1.45,1.44
			C144.22,110.79,144.15,110.9,144.04,111.06z M145.87,102.9c0.2-0.55,0.05-1.03-0.36-1.26C145.22,102.09,145.36,102.6,145.87,102.9
			z M147.76,102.52c0.05,0,0.1,0,0.15,0c0-0.28,0.02-0.56,0-0.84c-0.01-0.07-0.12-0.14-0.23-0.27
			C147.58,101.85,147.69,102.18,147.76,102.52z M148.93,97.37c-0.03,0.22,0.03,0.37,0.23,0.44c0.04,0.01,0.1-0.06,0.15-0.09
			c-0.09-0.12-0.18-0.25-0.27-0.37C149.04,97.35,149.01,97.36,148.93,97.37z M149.41,102.25c-0.12,0.26-0.12,0.26,0,0.5
			C149.71,102.55,149.71,102.55,149.41,102.25z M148.57,97.83c0.01-0.36,0.01-0.36-0.38-0.26
			C148.33,97.67,148.43,97.74,148.57,97.83z M148.43,97.28c0.05-0.13,0.09-0.2,0.09-0.27c0-0.04-0.09-0.08-0.13-0.11
			c-0.04,0.06-0.09,0.13-0.1,0.19C148.28,97.13,148.35,97.19,148.43,97.28z"/>
		<path fill="#FFFFFF" d="M129.98,100.71c0.01,1.14,0.01,2.28-0.48,3.36c-0.18,0.39-0.29,0.82-0.48,1.21
			c-0.14,0.28-0.33,0.55-0.55,0.77c-0.21,0.2-0.39,0.41-0.49,0.69c-0.09,0.25-0.25,0.39-0.54,0.46c-0.26,0.06-0.51,0.24-0.73,0.42
			c-0.41,0.35-0.77,0.75-1.19,1.09c-0.86,0.69-1.86,1.13-2.88,1.54c-0.52,0.21-1.07,0.29-1.6,0.43c-0.75,0.21-1.52,0.29-2.27,0.46
			c-0.11,0.03-0.23,0.06-0.35,0.06c-0.92,0.01-1.85,0.07-2.77,0.02c-1.48-0.08-2.93-0.4-4.34-0.87c-0.69-0.23-1.33-0.57-1.94-0.95
			c-0.29-0.17-0.62-0.29-0.87-0.51c-0.56-0.5-1.12-0.99-1.5-1.66c-0.28-0.51-0.66-0.97-0.98-1.45c-0.07-0.11-0.17-0.23-0.19-0.35
			c-0.17-1.01-0.47-1.99-0.78-2.97c-0.11-0.36-0.11-0.76-0.18-1.14c-0.26-1.57,0.23-3.51,0.89-4.62c0.3-0.5,0.61-1.01,1.09-1.37
			c0.07-0.05,0.15-0.09,0.19-0.16c0.35-0.55,0.84-0.96,1.32-1.38c0.58-0.51,1.14-1.04,1.83-1.41c0.3-0.16,0.54-0.45,0.82-0.66
			c0.2-0.15,0.41-0.29,0.62-0.42c0.33-0.2,0.65-0.43,1-0.58c0.33-0.15,0.7-0.24,1.05-0.35c0.66-0.2,1.32-0.4,1.98-0.58
			c0.84-0.23,1.69-0.24,2.55-0.11c0.89,0.13,1.78,0.31,2.69,0.35c0.69,0.03,1.38,0.28,2.05,0.49c0.59,0.18,1.2,0.35,1.74,0.65
			c0.59,0.34,1.11,0.81,1.65,1.24c0.45,0.37,0.9,0.76,1.31,1.18c0.22,0.22,0.39,0.5,0.53,0.78c0.25,0.49,0.44,1.02,0.68,1.51
			c0.71,1.41,1.03,2.91,1.09,4.47C129.95,100.47,129.97,100.59,129.98,100.71z M121.95,99.11c0.18-0.08,0.34-0.13,0.49-0.21
			c0.48-0.23,0.95-0.49,1.45-0.71c0.35-0.15,0.73-0.24,1.01-0.53c0.04-0.05,0.12-0.07,0.18-0.09c0.3-0.09,0.66-0.09,0.69-0.52
			c0-0.03,0.07-0.06,0.12-0.09c0.24-0.12,0.48-0.24,0.72-0.35c0.45-0.2,0.56-0.42,0.36-0.86c-0.26-0.59-0.61-1.12-1.07-1.57
			c-0.73-0.73-1.54-1.35-2.44-1.85c-0.44-0.25-0.94-0.42-1.41,0c-0.33,0.29-0.66,0.56-0.99,0.85c-0.25,0.22-0.55,0.42-0.72,0.69
			c-0.51,0.8-0.98,1.63-1.46,2.44c-0.3,0.52-0.24,0.72,0.29,1c0.87,0.47,1.74,0.95,2.49,1.61
			C121.75,99.01,121.86,99.05,121.95,99.11z M106.72,98.93c0.39,0.13,0.76,0.27,1.18,0.27c1-0.02,1.95,0.31,2.92,0.48
			c0.15,0.03,0.3,0.12,0.44,0.1c0.42-0.05,0.79,0.08,1.17,0.23c0.44,0.18,0.64,0.07,0.69-0.41c0.09-0.83,0.51-1.47,1.12-2.01
			c0.2-0.18,0.39-0.36,0.63-0.57c-0.12-0.24-0.21-0.47-0.34-0.68c-0.21-0.32-0.47-0.62-0.69-0.93c-0.32-0.46-0.72-0.84-1.23-1.08
			c-0.62-0.29-1.3-0.3-1.96-0.38c-0.31-0.04-0.57,0.11-0.82,0.31c-1.05,0.87-2.01,1.83-2.74,2.99
			C106.76,97.75,106.63,98.31,106.72,98.93z M108.65,106.78c0.16,0.21,0.29,0.4,0.45,0.57c0.19,0.2,0.39,0.41,0.62,0.57
			c0.95,0.66,1.99,1.1,3.12,1.32c0.3,0.06,0.59,0.15,0.89,0.15c0.41,0,0.77-0.16,1.03-0.5c0.35-0.45,0.67-0.92,1.06-1.34
			c0.29-0.31,0.56-0.62,0.73-1.01c0.24-0.55,0.53-1.09,0.61-1.7c0.05-0.39-0.04-0.52-0.45-0.53c-0.18,0-0.37,0.02-0.55,0.03
			c-0.1,0.01-0.22,0.05-0.3,0.01c-0.42-0.19-0.86-0.37-1.25-0.62c-0.23-0.14-0.4-0.19-0.65-0.08c-0.5,0.23-1.01,0.44-1.52,0.68
			c-0.29,0.13-0.57,0.28-0.84,0.44c-0.42,0.25-0.83,0.51-1.25,0.77C109.77,105.88,109.15,106.19,108.65,106.78z M111.83,92.79
			c0.27,0.1,0.46,0.22,0.67,0.24c0.45,0.06,0.83,0.27,1.19,0.51c0.79,0.51,1.4,1.19,1.82,2.04c0.28,0.57,0.68,1.01,1.42,0.85
			c0.06-0.01,0.13-0.01,0.2,0c0.25,0.02,0.42-0.09,0.54-0.3c0.34-0.61,0.91-1.08,1.09-1.79c0.02-0.07,0.1-0.14,0.15-0.2
			c0.58-0.71,1.17-1.41,1.75-2.12c0.06-0.07,0.09-0.17,0.14-0.25c-0.32-0.27-0.45-0.31-0.89-0.34c-0.32-0.02-0.64-0.03-0.95-0.09
			c-0.66-0.14-1.3-0.35-1.99-0.27c-0.6,0.06-1.22,0.04-1.8,0.16c-0.67,0.14-1.34,0.35-1.97,0.62
			C112.74,92.05,112.26,92.29,111.83,92.79z M121.18,102.05c-0.08,0.11-0.16,0.21-0.23,0.32c-0.37,0.6-0.85,1.12-1.39,1.58
			c-0.19,0.16-0.2,0.35-0.11,0.59c0.36,0.97,0.91,1.83,1.48,2.68c0.15,0.23,0.39,0.41,0.61,0.59c0.3,0.24,0.61,0.47,0.93,0.69
			c0.11,0.08,0.29,0.17,0.4,0.14c0.4-0.12,0.8-0.26,1.17-0.46c0.84-0.45,1.48-1.15,2.13-1.83c0.36-0.38,0.66-0.8,0.75-1.37
			c-0.14-0.09-0.27-0.2-0.41-0.27c-0.88-0.46-1.76-0.91-2.63-1.36c-0.09-0.05-0.18-0.08-0.28-0.11c-0.65-0.26-1.33-0.47-1.89-0.92
			C121.56,102.2,121.4,102.15,121.18,102.05z M118.3,105.54c-0.35,0.85-0.81,1.53-1.31,2.17c-0.5,0.65-1.01,1.29-1.57,2
			c0.96,0.08,1.83,0.04,2.69-0.06c0.85-0.1,1.73-0.08,2.51-0.51C119.86,107.95,119.11,106.79,118.3,105.54z M116.23,99.25
			c-0.67,0.67-0.79,0.85-0.81,1.54c-0.03,1,0.47,1.64,1.67,1.57C117.03,101.28,117.07,100.17,116.23,99.25z M118.34,99.68
			c-0.16,0.51,0.05,1.58,0.37,2C119.45,101.24,119.29,100.26,118.34,99.68z"/>
		<path fill="#FFFFFF" d="M134.77,230.85c0.03-1.1,0.05-1.95,0.09-2.81c0.01-0.25,0.08-0.5,0.18-0.73c0.31-0.75,0.81-1.38,1.32-2.01
			c0.78-0.98,1.77-1.68,2.81-2.33c0.18-0.11,0.32-0.31,0.51-0.4c0.41-0.19,0.83-0.36,1.25-0.51c0.55-0.2,1.1-0.4,1.67-0.54
			c0.88-0.2,1.74-0.53,2.67-0.46c0.64,0.05,1.27,0.08,1.91,0.12c0.13,0.01,0.27,0.03,0.4,0.03c0.79-0.02,1.57,0.04,2.33,0.3
			c0.38,0.13,0.79,0.15,1.18,0.26c1.25,0.35,2.45,0.83,3.53,1.57c0.15,0.1,0.3,0.22,0.44,0.34c0.83,0.68,1.69,1.32,2.42,2.13
			c0.47,0.52,0.84,1.1,1.1,1.74c0.31,0.76,0.51,1.57,0.87,2.31c0.3,0.6,0.41,1.24,0.59,1.87c0.13,0.48,0.2,0.98,0.3,1.47
			c0.03,0.16,0.09,0.32,0.12,0.49c0.08,0.58,0.17,1.16,0.23,1.74c0.04,0.42,0.01,0.84-0.17,1.24c-0.04,0.09-0.07,0.19-0.07,0.29
			c-0.02,0.39-0.15,0.75-0.29,1.11c-0.17,0.43-0.36,0.82-0.67,1.17c-0.66,0.74-1.23,1.57-1.97,2.21c-1.07,0.91-2.22,1.75-3.61,2.15
			c-0.39,0.11-0.77,0.23-1.17,0.31c-0.19,0.04-0.45,0.04-0.58-0.07c-0.43-0.34-0.94-0.32-1.43-0.38c-0.13-0.01-0.27-0.01-0.4,0
			c-0.91,0.07-1.81,0-2.7-0.21c-0.14-0.03-0.3-0.01-0.45-0.02c-0.45-0.03-0.89-0.08-1.31-0.3c-0.26-0.14-0.58-0.19-0.87-0.21
			c-0.59-0.02-1.1-0.3-1.65-0.45c-0.55-0.15-1.09-0.35-1.6-0.58c-0.68-0.31-1.38-0.62-1.99-1.05c-0.5-0.35-0.91-0.85-1.3-1.33
			c-0.67-0.84-1.3-1.71-1.92-2.58c-0.16-0.23-0.26-0.5-0.39-0.75c-0.61-1.21-1.02-2.49-1.27-3.81
			C134.76,231.66,134.79,231.13,134.77,230.85z M146.25,228.85c-0.27-0.35-0.51-0.69-0.78-1.01c-0.18-0.22-0.39-0.42-0.59-0.63
			c-0.14-0.14-0.27-0.28-0.43-0.41c-0.46-0.36-0.93-0.71-1.39-1.07c-0.7-0.55-1.39-1.1-2.08-1.66c-0.19-0.15-0.34-0.16-0.54,0
			c-0.87,0.68-1.88,1.17-2.61,2.05c-0.33,0.4-0.69,0.77-0.94,1.23c-0.12,0.22-0.13,0.37,0.05,0.58c0.3,0.36,0.69,0.59,1.08,0.82
			c0.33,0.19,0.7,0.33,1.03,0.52c0.91,0.5,1.81,1.02,2.7,1.54c0.45,0.26,0.89,0.54,1.34,0.8c0.16,0.1,0.34,0.18,0.56,0.31
			C143.98,230.39,145.13,229.66,146.25,228.85z M157.96,230.05c-0.1-0.49-0.25-0.98-0.46-1.45c-0.59-1.32-1.55-2.34-2.69-3.21
			c-0.28-0.21-0.55-0.44-0.85-0.63c-0.35-0.23-0.75-0.46-1.17-0.31c-0.81,0.28-1.47,0.82-1.9,1.55c-0.35,0.59-0.63,1.22-0.87,1.86
			c-0.12,0.32-0.38,0.65-0.24,1.07c1.15,0.32,1.98,1.15,2.92,1.82c0.36,0.26,0.59,0.63,0.72,1.03
			C153.99,231.72,156.67,230.7,157.96,230.05z M146.61,237.52c-0.11,0.19-0.18,0.33-0.27,0.44c-0.13,0.15-0.3,0.17-0.44,0.03
			c-0.28-0.29-0.56-0.57-0.81-0.89c-0.5-0.65-0.98-1.31-1.45-1.98c-0.1-0.14-0.2-0.24-0.37-0.19c-0.72,0.21-1.5,0.23-2.18,0.59
			c-0.57,0.3-1.15,0.55-1.78,0.67c-0.14,0.03-0.3,0.05-0.44,0.02c-0.45-0.11-0.47-0.11-0.74,0.33c0.26,0.36,0.53,0.72,0.78,1.1
			c0.55,0.83,1.25,1.54,1.98,2.21c0.6,0.55,1.33,0.84,2.09,1.06c0.58,0.17,1.15,0.36,1.73,0.55c0.18,0.06,0.32,0.04,0.47-0.09
			c0.3-0.26,0.65-0.48,0.92-0.78c0.59-0.64,1.22-1.25,1.49-2.12c0.07-0.23,0.19-0.45,0.32-0.73
			C147.41,237.66,147.02,237.59,146.61,237.52z M152.02,223.54c-0.32-0.12-0.56-0.19-0.78-0.31c-0.41-0.21-0.83-0.35-1.3-0.37
			c-0.87-0.03-1.75-0.09-2.62-0.13c-0.92-0.04-1.84-0.08-2.77-0.12c-0.25-0.01-0.51-0.07-0.75-0.02c-0.41,0.09-0.8,0.23-1.19,0.38
			c-0.21,0.08-0.41,0.21-0.68,0.34c0.17,0.18,0.28,0.34,0.43,0.46c0.88,0.7,1.83,1.29,2.67,2.04c0.82,0.73,1.58,1.49,2.21,2.38
			c0.26,0.36,0.52,0.51,0.95,0.5c0.25-0.01,0.42-0.05,0.52-0.29c0.23-0.56,0.49-1.1,0.69-1.66c0.24-0.69,0.47-1.36,1.09-1.83
			c0.43-0.32,0.81-0.71,1.21-1.07C151.8,223.76,151.89,223.67,152.02,223.54z M158.26,237.65c-0.36-0.13-0.72-0.25-1.07-0.37
			c-0.13-0.04-0.26-0.08-0.38-0.13c-1.05-0.41-2.09-0.81-3.14-1.23c-0.51-0.2-0.61-0.19-0.98,0.17c-0.26,0.25-0.54,0.5-0.82,0.73
			c-0.19,0.16-0.27,0.31-0.14,0.56c0.37,0.7,0.85,1.33,1.4,1.89c0.55,0.56,1.16,1.07,1.75,1.59c0.25,0.22,0.53,0.31,0.88,0.15
			c1.31-0.61,2.07-1.67,2.5-3C158.29,237.92,158.26,237.81,158.26,237.65z M153.84,241.67c-0.29-0.23-0.55-0.39-0.76-0.6
			c-0.49-0.48-0.98-0.97-1.44-1.48c-0.46-0.52-1.01-0.98-1.24-1.68c-0.02-0.05-0.04-0.09-0.07-0.13c-0.22-0.3-0.7-0.3-0.9,0
			c-0.19,0.29-0.35,0.61-0.53,0.91c-0.23,0.39-0.43,0.79-0.68,1.16c-0.16,0.23-0.36,0.44-0.57,0.63c-0.41,0.39-0.68,0.97-1.32,1.1
			c-0.05,0.01-0.09,0.09-0.19,0.21c0.54,0.14,1.02,0.34,1.51,0.36c1.31,0.06,2.62,0.08,3.94,0.05c0.6-0.01,1.19-0.18,1.78-0.29
			C153.51,241.89,153.64,241.78,153.84,241.67z M148.57,236.26c0.04-0.32,0.13-0.65,0.1-0.98c-0.07-0.77-0.19-1.53-0.31-2.29
			c-0.06-0.38-0.11-0.77-0.26-1.12c-0.21-0.51-0.48-0.99-0.76-1.47c-0.19-0.33-0.49-0.39-0.81-0.18c-0.26,0.17-0.51,0.39-0.73,0.61
			c-0.17,0.17-0.35,0.37-0.45,0.59c-0.36,0.85-0.27,1.74-0.24,2.63c0,0.08,0.05,0.16,0.07,0.24c0.36,1.1,1.21,1.67,2.25,1.98
			C147.77,236.37,148.15,236.44,148.57,236.26z M151.03,235.7c0.5-0.23,0.83-0.56,1.08-0.96c0.26-0.42,0.43-0.91,0.24-1.39
			c-0.38-1.01-0.87-1.96-1.74-2.65c-0.27-0.22-0.59-0.36-0.97-0.46c-0.07,0.31-0.1,0.59-0.05,0.87c0.19,1.05,0.3,2.11,0.7,3.12
			c0.14,0.35,0.28,0.71,0.43,1.05C150.79,235.43,150.92,235.56,151.03,235.7z"/>
		<path fill="#FFFFFF" d="M174.05,88.76c1.14,0.05,2.29,0.07,3.43,0.18c0.72,0.07,1.43,0.24,2.12,0.44c1.01,0.3,1.91,0.84,2.76,1.45
			c0.84,0.6,1.58,1.3,2.22,2.11c0.4,0.51,0.68,1.12,1.01,1.68c0.45,0.75,0.76,1.57,1.09,2.38c0.21,0.53,0.26,1.08,0.36,1.62
			c0.04,0.24-0.06,0.5-0.04,0.74c0.03,0.35,0.09,0.7,0.16,1.05c0.17,0.8,0.1,1.55-0.22,2.32c-0.2,0.48-0.26,1.01-0.52,1.47
			c-0.15,0.26-0.27,0.54-0.42,0.8c-0.25,0.44-0.51,0.87-0.78,1.29c-0.15,0.22-0.33,0.43-0.52,0.62c-0.49,0.48-1,0.94-1.5,1.41
			c-0.04,0.03-0.1,0.06-0.11,0.1c-0.11,0.43-0.43,0.54-0.82,0.64c-0.25,0.07-0.47,0.27-0.67,0.43c-0.54,0.43-1.15,0.74-1.77,1.05
			c-0.51,0.27-1.01,0.53-1.57,0.66c-0.38,0.09-0.76,0.16-1.13-0.06c-0.11-0.07-0.25-0.09-0.38-0.11c-0.67-0.08-1.34-0.16-2.01-0.21
			c-0.78-0.06-1.52-0.26-2.24-0.56c-1.07-0.44-2.15-0.87-3.21-1.34c-0.71-0.32-1.32-0.8-1.83-1.39c-0.74-0.86-1.34-1.81-1.83-2.83
			c-0.42-0.88-0.68-1.82-0.86-2.77c-0.03-0.13-0.04-0.27-0.09-0.39c-0.43-1.07-0.45-2.2-0.39-3.33c0.03-0.56,0.2-1.13,0.36-1.67
			c0.24-0.8,0.33-1.66,0.77-2.39c0.37-0.6,0.79-1.15,1.4-1.55c0.21-0.14,0.35-0.4,0.46-0.63c0.11-0.21,0.23-0.37,0.46-0.42
			c0.29-0.06,0.5-0.24,0.73-0.41c0.56-0.39,1.08-0.85,1.76-1.07c0.18-0.06,0.31-0.25,0.48-0.35c0.17-0.11,0.35-0.26,0.53-0.26
			c0.36,0,0.66-0.12,0.96-0.26C172.77,88.91,173.41,88.85,174.05,88.76z M178.8,90.83c-0.43-0.15-0.8-0.35-1.18-0.39
			c-0.85-0.1-1.69-0.25-2.55-0.29c-0.87-0.04-1.71-0.02-2.55,0.2c-0.75,0.19-1.49,0.43-2.17,0.81c-0.3,0.17-0.6,0.36-0.73,0.63
			c0.18,0.21,0.34,0.38,0.47,0.57c0.1,0.15,0.22,0.24,0.41,0.25c0.1,0.01,0.21,0.03,0.28,0.1c0.46,0.42,0.94,0.82,1.34,1.29
			c0.29,0.34,0.5,0.76,0.71,1.16c0.28,0.52,0.61,1.02,0.63,1.64c0,0.08,0.04,0.16,0.06,0.24c0.16,0.48,0.27,0.56,0.77,0.46
			c0.67-0.14,1.34-0.32,2-0.48c0.17-0.04,0.23-0.17,0.25-0.33c0.06-0.62,0.22-1.21,0.46-1.78c0.07-0.17,0.15-0.36,0.13-0.53
			c-0.02-0.17-0.17-0.32-0.24-0.45c0.1-0.07,0.19-0.14,0.28-0.21c-0.08-0.07-0.15-0.16-0.24-0.22c-0.05-0.04-0.13-0.04-0.2-0.06
			c0.4-0.1,0.6-0.4,0.83-0.67c0.08-0.1,0.16-0.2,0.26-0.29c0.22-0.19,0.4-0.38,0.45-0.69c0.03-0.19,0.17-0.36,0.27-0.53
			C178.62,91.12,178.69,91.02,178.8,90.83z M170.45,94.29c-0.14,0.07-0.25,0.17-0.36,0.18c-0.32,0.01-0.64-0.01-0.95-0.04
			c-0.12-0.01-0.23-0.08-0.44-0.16c0.43-0.16,0.93-0.02,1-0.57c-0.03-0.03-0.05-0.1-0.09-0.11c-0.31-0.12-0.58-0.3-0.83-0.53
			c-0.31-0.27-1.08-0.06-1.21,0.35c-0.11,0.32-0.33,0.51-0.54,0.74c-0.14,0.15-0.23,0.36-0.33,0.55c-0.05,0.1-0.02,0.25-0.09,0.34
			c-0.27,0.36-0.41,0.73-0.16,1.17c-0.37,0.18-0.45,0.47-0.49,0.8c-0.08,0.63-0.19,1.26-0.27,1.9c-0.04,0.33-0.06,0.67,0.12,1.06
			c1.62-0.11,3.18,0.31,4.75,0.93c0.14-0.38,0.3-0.72,0.38-1.07c0.05-0.25,0.14-0.39,0.38-0.46c0.09-0.02,0.2-0.08,0.26-0.15
			c0.25-0.32,0.56-0.57,0.88-0.81c0.16-0.12,0.16-0.26,0.07-0.44c-0.23-0.5-0.42-1.02-0.66-1.52c-0.23-0.48-0.36-1.08-1.07-1.14
			C170.84,94.9,170.85,94.53,170.45,94.29z M180.49,108.48c0.95-0.43,1.73-0.89,2.38-1.53c0.97-0.95,1.74-2.05,2.25-3.3
			c0.14-0.35,0.22-0.74,0.24-1.12c0.02-0.36-0.16-0.59-0.58-0.45c-0.16,0.05-0.33,0.05-0.5,0.06c-0.64,0.01-1.28,0.01-1.91,0.01
			c-0.65,0-1.31,0-1.96-0.03c-0.39-0.02-0.52,0.02-0.68,0.36c-0.16,0.35-0.33,0.7-0.44,1.06c-0.22,0.72-0.72,1.2-1.33,1.57
			c-0.33,0.2-0.38,0.28-0.17,0.58c0.2,0.28,0.47,0.51,0.69,0.79c0.32,0.41,0.73,0.67,1.2,0.88c0.36,0.16,0.75,0.31,0.97,0.67
			C180.61,108.15,180.57,108.26,180.49,108.48z M183.62,94.62c-0.08-0.19-0.14-0.37-0.24-0.52c-0.28-0.39-0.55-0.81-0.89-1.15
			c-0.62-0.6-1.37-1.02-2.08-1.49c-0.17-0.11-0.39-0.14-0.53-0.19c-0.51,0.52-0.89,1.03-1.06,1.66c0.27,0.4,0.26,0.76-0.07,0.88
			c-0.35,0.13-0.43,0.37-0.47,0.69c-0.03,0.21-0.12,0.42-0.16,0.63c-0.12,0.56-0.24,1.12-0.34,1.68c-0.07,0.38,0.03,0.68,0.4,0.89
			c0.34,0.19,0.64,0.44,0.83,0.79c0.06,0.11,0.17,0.21,0.27,0.29c0.21,0.17,0.32,0.16,0.52-0.04c0.34-0.35,0.74-0.65,1-1.05
			c0.32-0.48,0.75-0.84,1.11-1.27c0.05-0.06,0.1-0.14,0.17-0.18C182.73,95.85,183.2,95.25,183.62,94.62z M168.8,106.76
			c0.41,0.52,0.93,0.94,1.5,1.2c1.14,0.52,2.34,0.91,3.52,1.35c0.32,0.12,0.4,0.08,0.52-0.26c0.07-0.2,0.05-0.46,0.16-0.62
			c0.25-0.33,0.27-0.71,0.31-1.09c0.03-0.33,0.06-0.67,0.07-1c0.02-0.42-0.09-0.63-0.42-0.68c-1.2-0.2-2.16-0.89-3.18-1.48
			c-0.61,0.28-1.08,0.75-1.49,1.29C169.49,105.87,169.17,106.28,168.8,106.76z M176.36,106.29c-0.27,0.29-0.26,0.49-0.24,0.69
			c0.01,0.15,0.05,0.31,0.01,0.45c-0.14,0.55-0.31,1.09-0.45,1.64c-0.04,0.15-0.03,0.32-0.05,0.53c0.32,0.02,0.59,0.06,0.85,0.05
			c0.77-0.02,1.55-0.06,2.32-0.1c0.16-0.01,0.34-0.03,0.49-0.1c0.12-0.06,0.26-0.18,0.29-0.31c0.05-0.19-0.16-0.21-0.28-0.29
			c-0.67-0.41-1.4-0.7-1.95-1.31c-0.3-0.33-0.69-0.57-0.88-1C176.44,106.48,176.41,106.42,176.36,106.29z M174.46,103.56
			c-0.01-0.13,0-0.23-0.02-0.32c-0.15-0.53-0.3-1.06-0.47-1.59c-0.1-0.3-0.21-0.6-0.34-0.89c-0.11-0.25-0.26-0.26-0.47-0.07
			c-0.22,0.2-0.38,0.43-0.39,0.74c-0.01,0.37-0.01,0.74,0,1.11c0,0.1,0.03,0.21,0.09,0.28
			C173.27,103.28,173.77,103.59,174.46,103.56z M175.07,99.72c-0.08,0.67,0.27,1.74,0.64,2.04c0.14-0.35,0.15-0.53,0.12-0.86
			c-0.02-0.19-0.03-0.4,0.02-0.59c0.16-0.58,0.12-0.65-0.46-0.63C175.28,99.68,175.19,99.7,175.07,99.72z M177.27,101.69
			c-0.11,0.29-0.22,0.59,0.02,0.93C177.55,102.28,177.48,101.99,177.27,101.69z M177.86,100.48c-0.09-0.45-0.12-0.47-0.52-0.52
			C177.38,100.41,177.38,100.41,177.86,100.48z M170.14,94.09c-0.02-0.04-0.02-0.09-0.03-0.09c-0.04,0-0.08,0.01-0.12,0.02
			c0.01,0.03,0.01,0.07,0.03,0.07C170.06,94.1,170.1,94.1,170.14,94.09z M166.56,101.25c0.01-0.03,0.01-0.05,0.02-0.08
			c-0.06-0.02-0.13-0.03-0.19-0.05c0,0-0.01,0.05-0.02,0.08C166.43,101.22,166.49,101.24,166.56,101.25z"/>
		<path fill="#FFFFFF" d="M129.31,162.38c0.05-0.53,0.19-1,0.42-1.46c0.16-0.33,0.25-0.69,0.39-1.02c0.4-0.94,0.97-1.81,1.29-2.79
			c0.04-0.11,0.11-0.22,0.12-0.33c0.11-0.8,0.49-1.5,0.77-2.24c0.17-0.45,0.41-0.88,0.61-1.33c0.27-0.61,0.52-1.24,0.81-1.84
			c0.18-0.39,0.43-0.76,0.62-1.15c0.29-0.6,0.53-1.23,0.82-1.83c0.27-0.56,0.58-1.1,0.86-1.64c0.28-0.53,0.52-1.08,0.82-1.59
			c0.21-0.36,0.47-0.69,0.76-0.99c0.25-0.25,0.57-0.39,0.95-0.4c0.42-0.01,0.84-0.1,1.26-0.09c0.48,0.01,0.89,0.19,1.23,0.56
			c0.59,0.63,0.9,1.38,1.16,2.18c0.4,1.23,0.74,2.47,1.1,3.71c0.02,0.08,0.04,0.16,0.05,0.25c0.06,0.93,0.3,1.82,0.49,2.72
			c0.18,0.87,0.34,1.75,0.52,2.62c0.15,0.72,0.31,1.45,0.47,2.17c0.19,0.87,0.39,1.74,0.59,2.61c0.06,0.28,0.12,0.56,0.23,0.83
			c0.18,0.42,0.27,0.86,0.36,1.3c0.06,0.29,0.14,0.56-0.09,0.85c-0.13,0.16-0.14,0.44-0.18,0.68c-0.05,0.28-0.22,0.39-0.48,0.43
			c-0.35,0.05-0.71,0.07-1.04,0.18c-0.47,0.14-0.78-0.11-1.06-0.39c-0.1-0.1-0.12-0.31-0.14-0.47c-0.02-0.13,0.05-0.28,0-0.4
			c-0.19-0.55-0.4-1.1-0.61-1.64c-0.07-0.19-0.2-0.36-0.25-0.55c-0.3-1.16-0.6-2.31-0.87-3.47c-0.21-0.88-0.48-1.74-0.79-2.59
			c-0.1-0.28-0.33-0.33-0.55-0.38c-0.62-0.15-1.24-0.3-1.87-0.4c-0.68-0.1-1.37-0.16-2.06-0.21c-0.4-0.03-0.43,0.01-0.56,0.35
			c-0.54,1.38-1.08,2.75-1.62,4.13c-0.41,1.07-0.81,2.14-1.21,3.21c-0.12,0.31-0.28,0.56-0.56,0.76c-0.13,0.09-0.29,0.21-0.34,0.36
			c-0.1,0.27-0.28,0.31-0.51,0.27c-0.37-0.05-0.72-0.06-1.07,0.15c-0.27,0.16-0.55,0.04-0.65-0.26
			C129.39,162.95,129.36,162.66,129.31,162.38z M138.65,146.69c-0.04-0.01-0.08-0.02-0.12-0.03c-0.1,0.19-0.23,0.36-0.31,0.56
			c-0.48,1.24-0.95,2.48-1.42,3.72c-0.13,0.35-0.03,0.51,0.36,0.52c0.71,0.02,1.41,0.01,2.12,0.01c0.07,0,0.15-0.05,0.27-0.1
			C139.25,149.8,138.95,148.24,138.65,146.69z"/>
		<path fill="#FFFFFF" d="M154.31,152.62c0,0.44,0,0.87,0.01,1.3c0.03,1.35,0.05,2.69,0.09,4.04c0.03,0.86,0.08,1.71,0.12,2.57
			c0.02,0.37,0.02,0.74,0.04,1.11c0.03,0.8,0.07,1.61,0.11,2.41c0.02,0.31,0.01,0.6-0.27,0.83c-0.08,0.06-0.11,0.2-0.13,0.32
			c-0.05,0.29-0.25,0.46-0.51,0.49c-0.38,0.06-0.77,0.08-1.15,0.09c-0.31,0.01-0.51-0.19-0.57-0.47c-0.09-0.41-0.26-0.76-0.61-1
			c-0.16-0.11-0.17-0.27-0.12-0.45c0.08-0.3,0.05-0.58-0.02-0.89c-0.09-0.4-0.08-0.83-0.07-1.25c0.03-1.56,0.08-3.12,0.1-4.69
			c0-0.4-0.09-0.8-0.12-1.19c-0.02-0.3,0.01-0.6,0-0.9c0-0.57-0.01-1.14-0.02-1.71c0-0.08-0.01-0.17,0.01-0.25
			c0.05-0.24,0.02-0.46-0.12-0.67c-0.06-0.1-0.1-0.28-0.05-0.37c0.38-0.68,0.23-1.42,0.29-2.13c0.11-1.25-0.09-2.48-0.13-3.73
			c-0.01-0.38-0.01-0.77,0.03-1.15c0.02-0.23-0.03-0.38-0.2-0.53c-0.2-0.16-0.18-0.36,0.02-0.51c0.17-0.12,0.36-0.26,0.56-0.3
			c0.48-0.1,0.96-0.17,1.45-0.19c0.42-0.02,0.84,0.03,1.26,0.07c1.03,0.11,2.04,0.08,3.06-0.11c0.54-0.1,1.11-0.02,1.66-0.03
			c0.81-0.01,1.61-0.03,2.42-0.04c0.54-0.01,1.08-0.05,1.61-0.02c0.56,0.03,0.72,0.29,0.65,0.84c-0.03,0.21,0,0.43,0.04,0.64
			c0.08,0.41-0.07,0.6-0.47,0.64c-0.19,0.02-0.38,0.1-0.56,0.15c-0.22,0.06-0.44,0.18-0.66,0.19c-0.94,0.03-1.88,0.02-2.82,0.03
			c-1.3,0.01-2.59,0.01-3.89,0.04c-0.32,0.01-0.64,0.06-0.95,0.12c-0.31,0.06-0.36,0.15-0.35,0.45c0.05,1.09,0.11,2.18,0.17,3.27
			c0.02,0.44,0.1,0.49,0.52,0.48c0.69-0.03,1.38-0.05,2.07-0.11c0.47-0.04,0.93-0.15,1.4-0.2c1.27-0.15,2.55-0.16,3.83-0.09
			c0.25,0.01,0.5-0.01,0.75-0.04c0.47-0.05,0.57,0.02,0.64,0.47c0.07,0.4,0.14,0.8,0.24,1.19c0.06,0.24,0,0.38-0.22,0.49
			c-0.18,0.09-0.4,0.18-0.5,0.33c-0.23,0.36-0.54,0.33-0.89,0.3c-0.65-0.05-1.31-0.08-1.96-0.11c-0.12-0.01-0.25-0.02-0.35,0.01
			c-0.53,0.19-1.06,0.09-1.6,0.1c-1.09,0.01-2.19,0.05-3.28,0.09C154.67,152.53,154.52,152.58,154.31,152.62z"/>
		<path fill="#FFFFFF" d="M172.21,142.24c1.51,0.21,2.88-0.15,4.27-0.26c0.67-0.05,1.34-0.1,2.01-0.14
			c0.45-0.03,0.91-0.04,1.36-0.08c0.49-0.04,0.67,0.07,0.7,0.56c0.02,0.34-0.03,0.71-0.13,1.04c-0.14,0.45-0.59,0.53-0.98,0.59
			c-0.5,0.07-1.01,0.07-1.51,0.11c-0.69,0.06-1.37,0.16-2.06,0.17c-0.68,0.01-1.36,0.15-2.06,0.01c-0.52-0.1-1.07-0.05-1.61-0.03
			c-0.4,0.02-0.45,0.09-0.42,0.51c0.04,0.59,0.15,1.17,0.14,1.76c0,0.91-0.07,1.82-0.12,2.72c-0.03,0.5-0.06,1.01-0.08,1.51
			c-0.01,0.2-0.03,0.4-0.03,0.6c0,0.2,0.01,0.4,0.05,0.6c0.04,0.24,0.18,0.39,0.46,0.37c0.59-0.04,1.17-0.07,1.76-0.11
			c1.01-0.08,2.01-0.17,3.01-0.27c0.8-0.08,1.6-0.16,2.4-0.26c0.53-0.07,0.81,0.13,0.87,0.65c0.02,0.17,0,0.34,0.03,0.5
			c0.03,0.24-0.01,0.4-0.25,0.54c-0.16,0.09-0.27,0.29-0.36,0.46c-0.19,0.36-0.23,0.4-0.62,0.35c-0.4-0.05-0.79-0.15-1.19-0.2
			c-0.14-0.02-0.3,0-0.45,0.02c-0.13,0.02-0.27,0.1-0.39,0.08c-0.96-0.13-1.9,0.24-2.87,0.08c-0.59-0.1-1.21-0.08-1.81-0.11
			c-0.44-0.02-0.54,0.07-0.57,0.5c-0.06,1.07-0.16,2.15-0.18,3.22c-0.02,1.14,0.05,2.28,0.07,3.43c0,0.29,0.19,0.38,0.42,0.41
			c0.28,0.03,0.57,0.02,0.86,0.04c0.49,0.03,0.97,0.07,1.46,0.1c0.67,0.04,1.34,0.08,2.02,0.11c0.08,0,0.17,0,0.25-0.01
			c0.89-0.05,1.77-0.1,2.66-0.16c0.42-0.03,0.82-0.1,1.19-0.35c0.41-0.28,0.67-0.2,0.99,0.2c0.4,0.49,0.38,0.79-0.03,1.27
			c-0.18,0.21-0.37,0.44-0.49,0.69c-0.12,0.24-0.29,0.31-0.52,0.32c-1.18,0.02-2.35,0.05-3.53,0.05c-1.09,0-2.19-0.06-3.28-0.06
			c-0.75,0-1.51,0.09-2.26,0.08c-0.62-0.01-1.24-0.09-1.85-0.2c-0.4-0.07-0.49-0.28-0.49-0.69c0-0.35-0.02-0.71-0.02-1.06
			c0.01-0.5,0.04-1.01,0.05-1.51c0.04-1.19,0.08-2.38,0.13-3.58c0.03-0.82,0.07-1.64,0.1-2.47c0.01-0.22-0.04-0.44-0.05-0.65
			c-0.08-1.3,0-2.59,0.02-3.89c0.01-0.72-0.07-1.44-0.12-2.16c-0.05-0.77-0.16-1.54-0.17-2.31c-0.01-0.75-0.03-1.5,0.26-2.22
			c0.19-0.47,0.68-0.85,1.19-0.85C171.06,142.25,171.69,142.24,172.21,142.24z"/>
		<path fill="#FFFFFF" d="M125.58,145.17c-0.15,0.11-0.3,0.18-0.39,0.29c-0.09,0.1-0.18,0.25-0.19,0.38
			c-0.03,0.38-0.04,0.77-0.04,1.15c0,0.44-0.32,0.84-0.72,0.91c-0.22,0.04-0.4-0.01-0.54-0.19c-0.08-0.1-0.19-0.19-0.28-0.29
			c-0.89-1.01-2.09-1.06-3.29-0.99c-0.62,0.04-1.11,0.45-1.58,0.83c-0.43,0.34-0.88,0.67-1.31,1c-0.07,0.05-0.14,0.1-0.19,0.17
			c-0.38,0.55-0.73,1.13-1.12,1.67c-0.54,0.74-0.64,1.57-0.64,2.44c0.01,1.49,0.29,2.91,1.03,4.22c0.19,0.34,0.46,0.68,0.76,0.93
			c0.6,0.5,1.18,1.03,1.9,1.41c1.42,0.74,2.79,0.55,4.17-0.09c0.09-0.04,0.18-0.1,0.25-0.18c0.32-0.32,0.77-0.3,1.15-0.46
			c0.29-0.13,0.7,0.23,0.73,0.6c0.03,0.42,0.09,0.83,0.26,1.23c0.09,0.22,0.06,0.49,0.04,0.74c-0.02,0.2-0.16,0.35-0.34,0.47
			c-0.41,0.27-0.87,0.37-1.33,0.44c-0.75,0.12-1.5,0.21-2.25,0.3c-0.57,0.07-1.13,0.13-1.7,0.19c-0.72,0.08-1.39-0.21-2.08-0.35
			c-0.98-0.19-1.75-0.84-2.57-1.35c-0.65-0.41-1.07-1.05-1.42-1.73c-0.37-0.73-0.63-1.48-0.78-2.29c-0.05-0.27-0.23-0.51-0.32-0.78
			c-0.16-0.51-0.31-1.02-0.45-1.54c-0.35-1.26-0.36-2.55-0.25-3.84c0.09-0.99,0.51-1.9,1.06-2.74c0.07-0.11,0.19-0.22,0.22-0.34
			c0.09-0.49,0.46-0.76,0.78-1.08c0.41-0.4,0.8-0.82,1.16-1.26c0.41-0.49,0.93-0.83,1.51-1.07c0.77-0.33,1.56-0.62,2.35-0.9
			c0.52-0.19,1.05-0.35,1.58-0.49c0.29-0.07,0.6-0.09,0.9-0.06c0.94,0.09,1.79,0.45,2.53,1.05c0.33,0.26,0.68,0.49,1.02,0.74
			C125.45,144.53,125.6,144.79,125.58,145.17z"/>
		<path fill="#FFFFFF" d="M162.47,182.91c-0.71-0.02-1.37-0.14-1.96-0.57c-0.16-0.12-0.41-0.15-0.62-0.18
			c-0.39-0.05-0.7-0.21-0.9-0.57c-0.08-0.14-0.19-0.29-0.32-0.38c-0.71-0.48-1.19-1.19-1.7-1.85c-0.22-0.29-0.29-0.71-0.41-1.07
			c-0.16-0.47-0.17-0.95-0.22-1.44c-0.09-0.79-0.18-1.57-0.03-2.36c0.03-0.16,0-0.34-0.04-0.5c-0.1-0.44,0.02-0.83,0.22-1.21
			c0.21-0.4,0.42-0.8,0.63-1.2c0.07-0.13,0.19-0.27,0.19-0.4c0-0.53,0.4-0.78,0.75-1c0.49-0.32,1.05-0.53,1.56-0.82
			c0.37-0.2,0.76-0.34,1.18-0.43c0.33-0.07,0.62-0.04,0.94,0.02c0.99,0.17,1.88,0.6,2.79,0.98c1.29,0.53,2.27,1.47,3,2.67
			c0.46,0.76,0.76,1.58,0.99,2.42c0.05,0.19,0.09,0.4,0.09,0.6c0.01,0.64,0,1.28-0.01,1.91c-0.01,0.42,0.03,0.85-0.07,1.25
			c-0.33,1.26-0.99,2.29-2.19,2.93c-0.92,0.49-1.9,0.77-2.88,1.08C163.15,182.88,162.8,182.87,162.47,182.91z M157.9,175.81
			c0.01,0.72,0.09,1.26,0.32,1.78c0.21,0.49,0.48,0.96,0.69,1.45c0.21,0.5,0.56,0.88,0.95,1.23c0.77,0.66,1.61,1.02,2.65,0.67
			c0.3-0.1,0.63-0.11,0.94-0.21c0.53-0.17,1.04-0.38,1.39-0.85c0.33-0.44,0.69-0.86,1.01-1.31c0.26-0.35,0.49-0.72,0.71-1.1
			c0.26-0.43,0.49-0.87,0.73-1.31c0.12-0.21,0.11-0.41,0.02-0.63c-0.13-0.33-0.23-0.67-0.36-1c-0.13-0.32-0.27-0.64-0.43-0.95
			c-0.41-0.79-1.04-1.39-1.67-2c-0.59-0.57-1.33-0.73-2.09-0.89c-0.68-0.15-1.34,0.03-2.01,0.02c-0.5-0.01-0.92,0.19-1.32,0.44
			c-0.2,0.12-0.4,0.25-0.57,0.41c-0.15,0.13-0.31,0.29-0.37,0.46c-0.2,0.62-0.38,1.25-0.51,1.89c-0.06,0.25,0.03,0.53,0.02,0.8
			C157.97,175.13,157.92,175.55,157.9,175.81z"/>
		<path fill="#FFFFFF" d="M132.44,167.81c-0.15-0.09-0.27-0.16-0.4-0.24c0.77-0.51,1.57-0.82,2.46-0.8c0.98,0.02,1.9,0.23,2.6,1.01
			c0.29,0.32,0.66,0.58,0.97,0.88c0.77,0.73,1.43,1.55,1.94,2.5c0.45,0.84,0.74,1.73,0.9,2.67c0.19,1.09,0.2,2.19-0.13,3.25
			c-0.17,0.54-0.47,1.05-0.8,1.51c-0.38,0.52-0.41,0.98-0.11,1.53c0.27,0.49-0.07,1.12-0.6,1.2c-0.33,0.05-0.52-0.04-0.7-0.36
			c-0.25-0.43-0.24-0.39-0.74-0.28c-0.79,0.17-1.55,0.49-2.38,0.4c-0.25-0.03-0.5-0.09-0.72-0.19c-0.76-0.34-1.46-0.76-2.05-1.35
			c-0.14-0.14-0.29-0.29-0.39-0.46c-0.31-0.54-0.6-1.08-0.9-1.63c-0.04-0.07-0.11-0.15-0.11-0.22c0-0.71-0.48-1.27-0.63-1.93
			c-0.22-0.95-0.33-1.9-0.38-2.88c-0.06-1.31,0.5-2.37,1.21-3.38C131.76,168.63,132.1,168.25,132.44,167.81z M138.96,177.57
			c0.32-0.3,0.6-0.64,0.62-1c0.05-0.94,0.1-1.89-0.04-2.82c-0.13-0.87-0.52-1.7-0.99-2.46c-0.48-0.78-1.15-1.4-1.8-2.03
			c-0.38-0.37-0.88-0.57-1.43-0.53c-0.35,0.03-0.7,0.18-1.04,0.14c-0.7-0.08-1.14,0.28-1.52,0.78c-0.04,0.05-0.08,0.11-0.14,0.15
			c-0.62,0.52-0.78,1.27-0.84,1.99c-0.06,0.87,0,1.75,0.11,2.62c0.11,0.83,0.3,1.66,0.87,2.33c0.08,0.1,0.13,0.23,0.18,0.35
			c0.17,0.36,0.3,0.75,0.52,1.08c0.44,0.69,1.1,1.1,1.87,1.37c0.7,0.25,1.32,0.18,1.93-0.19c0.15-0.09,0.26-0.23,0.43-0.38
			c-0.38-0.52-0.72-1-1.09-1.45c-0.63-0.78-1-1.66-1.17-2.64c-0.09-0.52,0.03-0.93,0.51-1.18c0.89,0.37,1.22,1.26,1.79,1.92
			c0.31,0.36,0.51,0.82,0.77,1.23C138.64,177.1,138.79,177.32,138.96,177.57z"/>
		<path fill="#FFFFFF" d="M129.26,179.77c-0.23,0.3-0.41,0.56-0.62,0.79c-0.27,0.28-0.36,0.27-0.61-0.01
			c-0.4-0.45-0.79-0.91-1.19-1.36c-0.02-0.03-0.04-0.06-0.06-0.08c-0.71-0.67-1.17-1.55-1.82-2.27c-0.47-0.52-0.99-1.01-1.51-1.49
			c-0.13-0.12-0.32-0.17-0.52-0.27c-0.03,0.15-0.07,0.26-0.07,0.37c0.01,0.82,0.03,1.65,0.02,2.47c0,0.23,0.02,0.54-0.11,0.68
			c-0.24,0.26-0.58,0.45-0.9,0.61c-0.22,0.11-0.46-0.11-0.5-0.42c-0.02-0.18-0.01-0.37-0.02-0.55c-0.02-0.98-0.04-1.95-0.06-2.93
			c0-0.17,0.04-0.34,0.04-0.5c-0.01-0.59,0.01-1.17-0.04-1.75c-0.06-0.68,0-1.34,0.1-2.01c0.02-0.14-0.01-0.3-0.03-0.45
			c-0.09-0.59-0.07-1.16,0.05-1.75c0.09-0.42,0.02-0.87,0.03-1.3c0.01-0.4,0.03-0.81,0.03-1.21c0-0.19,0.1-0.31,0.25-0.41
			c0.65-0.41,1.36-0.59,2.12-0.39c0.62,0.16,1.22,0.37,1.83,0.56c0.74,0.23,1.29,0.78,1.92,1.19c0.36,0.23,0.69,0.53,1.02,0.81
			c0.22,0.19,0.33,0.43,0.4,0.73c0.23,1.09,0.03,2.15-0.24,3.19c-0.13,0.49-0.55,0.87-1.03,1.12c-0.95,0.49-1.95,0.83-3.02,0.94
			c-0.07,0.01-0.13,0.02-0.29,0.04c0.45,0.49,0.87,0.92,1.28,1.37c0.41,0.46,0.81,0.94,1.2,1.42c0.4,0.48,0.79,0.96,1.19,1.44
			C128.48,178.83,128.88,179.3,129.26,179.77z M122.68,171.22c0.02,0,0.04,0,0.05,0c0,0.4,0,0.81,0.01,1.21
			c0.01,0.49,0.11,0.61,0.59,0.6c0.4-0.01,0.81-0.08,1.21-0.08c0.82,0,1.61-0.15,2.35-0.48c0.23-0.1,0.52-0.28,0.59-0.48
			c0.18-0.52,0.3-1.06,0.35-1.62c0.08-1-0.43-1.64-1.18-2.11c-0.66-0.42-1.34-0.84-2.1-1.07c-0.34-0.1-0.67-0.22-1.01-0.27
			c-0.49-0.07-0.6,0.05-0.62,0.54c-0.02,0.42-0.02,0.84-0.05,1.26C122.82,169.54,122.74,170.38,122.68,171.22z"/>
		<path fill="#FFFFFF" d="M152.06,177.62c0.19-0.05,0.24-0.24,0.27-0.48c0.12-0.89,0.12-1.77,0.02-2.67
			c-0.09-0.82-0.09-1.64-0.15-2.46c-0.03-0.38-0.08-0.77-0.16-1.15c-0.14-0.69-0.15-1.37-0.06-2.06c0.02-0.12,0.14-0.29,0.25-0.33
			c0.11-0.04,0.31,0.01,0.4,0.09c0.15,0.15,0.31,0.33,0.36,0.53c0.21,0.9,0.59,1.77,0.56,2.7c-0.04,1.17,0.27,2.31,0.27,3.47
			c0,1,0.05,2.03-0.33,3c-0.03,0.08-0.08,0.16-0.08,0.24c-0.1,1-0.64,1.79-1.25,2.54c-0.69,0.85-1.62,1.3-2.69,1.45
			c-0.53,0.07-1.07,0.09-1.6,0.11c-0.52,0.01-0.96-0.22-1.4-0.5c-0.81-0.51-1.35-1.25-1.79-2.06c-0.38-0.71-0.68-1.46-0.85-2.26
			c-0.17-0.77-0.41-1.53-0.53-2.31c-0.19-1.23-0.3-2.47-0.44-3.7c-0.01-0.07-0.02-0.14,0-0.2c0.27-0.58,0-1.16,0.02-1.74
			c0.01-0.31-0.1-0.62-0.11-0.94c0-0.25,0.05-0.5,0.12-0.74c0.07-0.26,0.23-0.44,0.51-0.5c0.26-0.06,0.46,0.04,0.58,0.28
			c0.07,0.15,0.13,0.31,0.22,0.44c0.25,0.4,0.29,0.82,0.25,1.29c-0.14,1.77-0.08,3.54,0.32,5.28c0.17,0.72,0.26,1.46,0.47,2.17
			c0.21,0.72,0.51,1.43,0.79,2.13c0.18,0.44,0.57,0.71,0.96,0.94c0.5,0.31,1.04,0.54,1.55,0.83c0.47,0.26,0.94,0.2,1.41,0.03
			c0.47-0.17,0.84-0.48,1.16-0.86c0.48-0.57,0.85-1.21,1-1.94C152.13,178.06,152.08,177.88,152.06,177.62z"/>
		<path fill="#FFFFFF" d="M174.81,177.25c0.21-0.04,0.46-0.18,0.61-0.11c0.25,0.13,0.57,0.22,0.68,0.55
			c0.2,0.57,0.59,1.03,0.99,1.45c0.23,0.24,0.57,0.41,0.89,0.55c0.27,0.12,0.58,0.15,0.88,0.22c0.05,0.01,0.11,0.03,0.15,0.01
			c0.63-0.22,1.29-0.38,1.88-0.69c0.48-0.25,0.58-1.26,0.23-1.69c-0.31-0.39-0.66-0.77-1.05-1.08c-0.27-0.21-0.64-0.28-0.96-0.42
			c-0.18-0.08-0.36-0.16-0.54-0.25c-0.13-0.07-0.25-0.18-0.38-0.24c-0.66-0.3-1.17-0.79-1.63-1.33c-0.3-0.36-0.57-0.74-0.86-1.11
			c-0.41-0.54-0.52-1.18-0.66-1.82c-0.17-0.76,0.06-1.47,0.2-2.19c0.05-0.26,0.22-0.57,0.44-0.71c0.66-0.42,1.25-0.98,2.03-1.2
			c0.85-0.24,1.71-0.21,2.55-0.01c0.34,0.08,0.65,0.41,0.9,0.69c0.55,0.6,0.85,1.32,0.91,2.14c0.02,0.3,0.13,0.59,0.13,0.89
			c0.01,0.43-0.03,0.87-0.07,1.3c-0.03,0.25-0.19,0.41-0.42,0.52c-0.4,0.19-0.7,0.1-0.83-0.32c-0.09-0.28-0.12-0.59-0.13-0.89
			c-0.01-0.66-0.07-1.3-0.3-1.93c-0.2-0.54-0.59-0.89-1.08-1.15c-0.13-0.07-0.31-0.12-0.44-0.08c-0.51,0.15-1.05,0.23-1.4,0.7
			c-0.06,0.08-0.13,0.16-0.21,0.21c-0.61,0.39-0.78,1.02-0.85,1.68c-0.03,0.23,0.1,0.48,0.16,0.71c0.17,0.66,0.57,1.15,1.06,1.62
			c0.49,0.47,0.97,0.93,1.55,1.29c0.14,0.09,0.28,0.19,0.44,0.24c0.8,0.28,1.5,0.75,2.21,1.21c0.82,0.53,1.15,1.35,0.95,2.32
			c-0.11,0.53-0.15,1.08-0.57,1.48c-0.21,0.21-0.46,0.38-0.71,0.55c-0.08,0.06-0.19,0.07-0.27,0.13c-0.95,0.7-2.02,0.91-3.16,0.74
			c-0.76-0.12-1.49-0.42-2.08-0.95c-0.18-0.16-0.29-0.41-0.42-0.62c-0.21-0.33-0.42-0.65-0.6-0.99
			C174.79,178.26,174.72,177.81,174.81,177.25z"/>
		<path fill="#FFFFFF" d="M193.18,178.15c-0.1,0.26-0.19,0.51-0.31,0.81c-0.48,0.12-1,0.24-1.52,0.39
			c-0.89,0.26-1.78,0.52-2.65,0.82c-0.91,0.31-1.85,0.51-2.78,0.72c-0.24,0.05-0.5,0.06-0.75,0.05c-0.38-0.01-0.7-0.33-0.58-0.66
			c0.24-0.66,0.03-1.3,0.05-1.95c0.02-0.45,0.04-0.91,0.05-1.36c0.01-1.13,0.01-2.25,0.02-3.38c0.01-0.45,0.04-0.91,0.06-1.36
			c0.03-0.69,0.03-1.37-0.09-2.06c-0.1-0.54-0.12-1.1-0.19-1.66c-0.03-0.21-0.07-0.43-0.14-0.64c-0.2-0.54,0.21-1.05,0.77-1.08
			c0.61-0.03,1.22-0.21,1.83-0.33c0.58-0.11,1.15-0.23,1.73-0.34c0.38-0.07,0.49-0.12,0.71-0.37c0.38,0,0.7,0,1.02-0.01
			c0.2-0.01,0.4-0.04,0.6-0.05c0.38,0,0.45,0.14,0.34,0.51c-0.23,0.78-0.89,0.96-1.55,1.1c-0.59,0.13-1.2,0.18-1.79,0.31
			c-0.64,0.14-1.27,0.33-1.9,0.49c-0.18,0.05-0.24,0.16-0.23,0.33c0.05,0.65,0.09,1.31,0.14,1.96c0.04,0.59,0.07,1.17,0.12,1.76
			c0.02,0.22,0.03,0.44,0.08,0.65c0.08,0.32,0.2,0.38,0.52,0.3c0.52-0.14,1.03-0.31,1.55-0.43c0.92-0.21,1.84-0.39,2.76-0.59
			c0.2-0.04,0.4-0.07,0.59-0.13c0.19-0.06,0.32,0,0.45,0.14c0.14,0.16,0.09,0.33-0.01,0.46c-0.25,0.33-0.47,0.68-0.99,0.66
			c-0.27-0.01-0.55,0.14-0.83,0.21c-1.22,0.33-2.43,0.66-3.65,0.98c-0.24,0.06-0.4,0.16-0.41,0.43c0,0.22-0.04,0.44-0.02,0.65
			c0.06,0.64,0.08,1.26-0.09,1.9c-0.07,0.29-0.13,0.62,0.02,0.93c0.07,0.14,0.03,0.33,0.04,0.5c0.01,0.18,0.03,0.36,0.05,0.62
			c0.44-0.08,0.86-0.08,1.22-0.24c0.97-0.42,2-0.57,3.01-0.82c0.64-0.16,1.29-0.27,1.93-0.39
			C192.66,177.94,192.94,177.93,193.18,178.15z"/>
		<path fill="#FFFFFF" d="M120.51,169.14c0,0.61,0.04,1.21,0.01,1.82c-0.04,0.6-0.15,1.2-0.23,1.8c-0.04,0.32-0.1,0.63-0.15,0.95
			c-0.02,0.1,0,0.23-0.05,0.29c-0.32,0.38-0.31,0.88-0.5,1.31c-0.39,0.89-0.93,1.66-1.76,2.22c-0.47,0.32-0.9,0.7-1.34,1.06
			c-0.37,0.3-0.82,0.39-1.26,0.49c-0.15,0.03-0.38-0.05-0.51-0.15c-0.51-0.43-1.02-0.88-1.48-1.36c-0.19-0.19-0.32-0.49-0.37-0.76
			c-0.18-0.94-0.33-1.89-0.48-2.84c-0.22-1.45-0.26-2.91-0.23-4.38c0.01-0.52,0.11-1.03,0.16-1.55c0.06-0.67,0.12-1.34,0.17-2
			c0.03-0.39,0.18-0.71,0.43-1c0.19-0.23,0.44-0.24,0.69-0.16c0.25,0.08,0.4,0.26,0.4,0.53c0,0.3-0.01,0.61-0.04,0.91
			c-0.1,1.09-0.25,2.18-0.32,3.27c-0.08,1.23,0.01,2.46,0.18,3.68c0.08,0.6,0.11,1.21,0.2,1.8c0.13,0.82,0.33,1.61,1.02,2.18
			c0.3,0.25,0.58,0.25,0.88,0.06c0.49-0.3,0.95-0.62,1.24-1.16c0.22-0.39,0.52-0.74,0.79-1.11c0.59-0.81,0.9-1.74,1.15-2.7
			c0.16-0.61,0.15-1.19,0.13-1.79c-0.01-0.32,0.04-0.64,0.06-0.96c0.04-0.7,0.08-1.41,0.1-2.11c0.01-0.38-0.05-0.77-0.03-1.15
			c0.01-0.18-0.02-0.43,0.23-0.51c0.19-0.06,0.53,0.08,0.64,0.32c0.18,0.39,0.37,0.77,0.33,1.25c-0.05,0.58,0,1.18,0,1.77
			C120.53,169.14,120.52,169.14,120.51,169.14z"/>
		<path fill="#FFFFFF" d="M105.8,164.72c-0.31-0.09-0.66-0.2-1.02-0.28c-0.36-0.07-0.73-0.13-1.1-0.15
			c-0.27-0.01-0.48-0.11-0.68-0.27c-0.19-0.16-0.43-0.25-0.65-0.39c-0.12-0.08-0.27-0.17-0.34-0.29c-0.3-0.53-0.06-0.94,0.56-0.92
			c0.49,0.01,0.98,0.06,1.46,0.15c0.9,0.16,1.78,0.36,2.68,0.53c0.49,0.09,1,0.14,1.49,0.25c0.41,0.09,0.81,0.23,1.21,0.35
			c0.29,0.09,0.58,0.16,0.86,0.27c0.28,0.1,0.58,0.2,0.82,0.37c0.38,0.28,0.3,0.73-0.12,0.93c-0.36,0.17-0.71,0.22-1.12,0.12
			c-0.59-0.14-1.19-0.21-1.79-0.28c-0.44-0.05-0.53,0.06-0.52,0.51c0.01,0.99-0.01,1.99,0.04,2.98c0.03,0.55,0.16,1.1,0.23,1.65
			c0.03,0.25,0.04,0.5,0.04,0.76c0.02,1.28,0.04,2.56,0.04,3.84c0,0.84-0.02,1.68-0.05,2.52c-0.01,0.31-0.09,0.58-0.48,0.67
			c-0.15,0.03-0.26,0.24-0.38,0.38c-0.11,0.12-0.2,0.28-0.41,0.22c-0.2-0.06-0.24-0.23-0.24-0.4c-0.01-0.32,0-0.64,0.01-0.96
			c0.01-0.28,0.03-0.57,0.02-0.85c-0.04-0.96-0.15-1.92-0.12-2.88c0.05-1.52-0.22-3-0.46-4.49c-0.09-0.54-0.09-1.1-0.11-1.65
			c-0.01-0.43-0.01-0.87,0.02-1.3C105.7,165.65,105.76,165.22,105.8,164.72z"/>
		<path fill="#FFFFFF" d="M171.57,178.8c-0.04-0.76-0.07-1.51-0.13-2.27c-0.08-1.17-0.19-2.35-0.25-3.52
			c-0.02-0.45,0.05-0.91,0.06-1.36c0.01-0.45,0.01-0.91-0.01-1.36c-0.02-0.47-0.06-0.94,0.11-1.39c0.15-0.38,0.3-0.49,0.63-0.44
			c0.35,0.06,0.47,0.24,0.54,0.6c0.09,0.45-0.01,0.93,0.23,1.37c0.08,0.15,0.08,0.36,0.07,0.54c-0.12,1.25,0.05,2.48,0.17,3.72
			c0.17,1.78,0.25,3.56,0.12,5.34c-0.02,0.24-0.12,0.42-0.32,0.54c-0.13,0.08-0.26,0.15-0.4,0.21c-0.46,0.22-0.7,0.13-0.78-0.39
			c-0.08-0.53-0.08-1.07-0.11-1.6C171.52,178.8,171.54,178.8,171.57,178.8z"/>
		<path fill="#FFFFFF" d="M178.57,138.57c-1.05,0.57-2.02,1.1-3,1.62c-0.34,0.18-0.68,0.37-1.03,0.51
			c-0.45,0.18-1.02-0.07-1.25-0.51c-0.11-0.21,0.01-0.39,0.14-0.55c0.43-0.55,0.85-1.12,1.31-1.64c0.45-0.51,0.95-0.99,1.45-1.45
			c0.21-0.19,0.47-0.32,0.74-0.43c0.14-0.05,0.33-0.01,0.48,0.04c0.33,0.11,0.65,0.27,0.98,0.39c0.29,0.1,0.46,0.32,0.51,0.58
			c0.08,0.38,0.22,0.79-0.21,1.11C178.6,138.3,178.59,138.5,178.57,138.57z"/>
		<path fill="#FFFFFF" d="M100.12,113.68c-0.41-0.02-0.77-0.11-1.09-0.37c-0.68-0.54-0.38-1.17,0.07-1.58
			c0.49-0.44,1.09-0.51,1.71-0.4c0.41,0.07,0.77,0.31,0.94,0.69c0.29,0.64,0.07,1-0.66,1.4C100.8,113.58,100.45,113.6,100.12,113.68
			z"/>
		<path fill="#FFFFFF" d="M95.96,111.99c0,0.53-0.22,0.84-0.73,1.01c-0.5,0.17-1,0.17-1.48-0.02c-0.73-0.28-0.93-0.71-0.54-1.47
			c0.31-0.59,0.87-0.87,1.54-0.87C95.44,110.64,95.96,111.23,95.96,111.99z"/>
		<path fill="#FFFFFF" d="M129.88,114.82c0.41,0.06,0.81,0.13,0.98,0.54c0.17,0.39,0.28,0.8-0.1,1.16c-0.21,0.19-0.27,0.5-0.6,0.62
			c-0.54,0.19-1.61-0.24-1.78-0.78c-0.19-0.58,0.12-1.11,0.72-1.27C129.36,115.01,129.62,114.9,129.88,114.82z"/>
		<path fill="#FFFFFF" d="M123.44,116.09c-0.2,0-0.37,0.03-0.53,0c-0.67-0.11-0.92-0.85-0.52-1.4c0.55-0.74,1.81-0.73,2.4-0.42
			c0.47,0.24,0.52,0.79,0.19,1.19C124.56,115.96,124.04,116.13,123.44,116.09z"/>
		<path fill="#FFFFFF" d="M134.56,117.17c-0.32-0.07-0.69-0.12-1.02-0.25c-0.31-0.12-0.31-0.25-0.22-0.57
			c0.09-0.31,0.3-0.52,0.57-0.67c0.27-0.15,0.55-0.25,0.82-0.4c0.57-0.32,1.06-0.05,1.49,0.26c0.37,0.26,0.36,0.81,0.01,1.05
			C135.73,116.92,135.18,117.05,134.56,117.17z"/>
		<path fill="#FFFFFF" d="M196.94,113.84c-0.22,0-0.43,0.01-0.65,0c-0.08,0-0.17-0.04-0.23-0.09c-0.21-0.18-0.43-0.37-0.62-0.58
			c-0.27-0.3-0.08-0.85,0.36-0.96c0.49-0.12,0.99-0.22,1.48-0.26c0.23-0.02,0.51,0.08,0.7,0.21c0.41,0.3,0.46,0.64,0.17,1.02
			C197.83,113.61,197.47,113.85,196.94,113.84z"/>
		<path fill="#FFFFFF" d="M141.87,117.43c-0.41,0.08-0.76-0.08-1.09-0.29c-0.29-0.19-0.37-0.6-0.11-0.82
			c0.59-0.51,1.26-0.83,2.08-0.7c0.43,0.07,0.66,0.36,0.73,0.73c0.08,0.38-0.25,0.6-0.51,0.8
			C142.65,117.4,142.28,117.5,141.87,117.43z"/>
		<path fill="#FFFFFF" d="M112.35,114.26c-0.48,0.08-0.9-0.16-1.24-0.57c-0.29-0.35-0.23-0.69,0.15-0.91
			c0.49-0.29,1.03-0.37,1.58-0.41c0.35-0.02,0.61,0.13,0.8,0.42c0.14,0.21,0.17,0.43,0.04,0.66c-0.03,0.06-0.09,0.11-0.11,0.17
			C113.44,114.28,112.96,114.33,112.35,114.26z"/>
		<path fill="#FFFFFF" d="M192.26,115.01c-0.41-0.11-0.8-0.16-1.13-0.33c-0.37-0.18-0.41-0.47-0.22-0.84
			c0.2-0.41,0.56-0.6,0.96-0.72c0.27-0.08,0.55-0.13,0.83-0.18c0.32-0.06,0.53,0.06,0.71,0.34c0.16,0.26,0.25,0.51,0.01,0.78
			c-0.2,0.22-0.37,0.48-0.6,0.67C192.67,114.87,192.44,114.92,192.26,115.01z"/>
		<path fill="#FFFFFF" d="M106.68,112.21c0.63,0,1.01,0.76,0.73,1.3c-0.38,0.72-1.83,1.08-2.52,0.07c-0.15-0.21-0.09-0.56,0.19-0.81
			c0.31-0.27,0.62-0.58,1.1-0.5C106.35,112.29,106.54,112.23,106.68,112.21z"/>
		<path fill="#FFFFFF" d="M186.58,115.47c-0.32-0.07-0.66-0.1-0.96-0.22c-0.46-0.19-0.5-0.64-0.12-0.95
			c0.18-0.15,0.37-0.29,0.56-0.42c0.43-0.29,1.29-0.27,1.72,0.04c0.26,0.19,0.35,0.45,0.24,0.75c-0.14,0.4-0.61,0.74-1.03,0.74
			c-0.13,0-0.27-0.01-0.4-0.01C186.59,115.42,186.58,115.44,186.58,115.47z"/>
		<path fill="#FFFFFF" d="M89.12,112.07c-0.24-0.05-0.47-0.07-0.69-0.15c-0.59-0.22-0.74-0.74-0.29-1.16
			c0.41-0.38,0.88-0.71,1.52-0.61c0.45,0.07,0.74,0.3,0.83,0.75c0.07,0.34-0.14,0.8-0.5,0.95C89.72,111.96,89.42,112,89.12,112.07z"
			/>
		<path fill="#FFFFFF" d="M166.94,116.22c0.01,0.29-0.18,0.5-0.4,0.59c-0.3,0.12-0.64,0.15-0.96,0.19c-0.14,0.02-0.3-0.02-0.44-0.07
			c-0.13-0.05-0.25-0.14-0.36-0.23c-0.07-0.06-0.11-0.17-0.17-0.24c-0.34-0.43-0.17-1.06,0.35-1.2c0.33-0.09,0.69-0.13,1.04-0.12
			C166.41,115.13,166.94,115.79,166.94,116.22z"/>
		<path fill="#FFFFFF" d="M156.02,117.5c-0.35-0.1-0.72-0.17-1.05-0.32c-0.46-0.21-0.52-0.65-0.18-1.03c0.42-0.47,1-0.71,1.63-0.42
			c0.09,0.04,0.19,0.07,0.28,0.11c0.55,0.23,0.66,0.88,0.17,1.24C156.63,117.26,156.41,117.54,156.02,117.5z"/>
		<path fill="#FFFFFF" d="M148.39,115.99c0.36,0,0.87,0.34,0.98,0.67c0.08,0.23-0.02,0.53-0.24,0.66c-0.23,0.14-0.47,0.27-0.72,0.37
			c-0.54,0.21-1.03,0.09-1.4-0.32c-0.19-0.21-0.2-0.46-0.12-0.71c0.1-0.31,0.33-0.51,0.64-0.57
			C147.82,116.02,148.11,116.02,148.39,115.99z"/>
		<path fill="#FFFFFF" d="M180.36,116.32c-0.28-0.11-0.7-0.27-1.1-0.47c-0.08-0.04-0.15-0.3-0.1-0.39c0.17-0.32,0.38-0.62,0.6-0.92
			c0.06-0.08,0.21-0.14,0.31-0.12c0.36,0.06,0.73,0.13,1.07,0.26c0.34,0.13,0.41,0.37,0.32,0.74
			C181.3,116.02,180.98,116.33,180.36,116.32z"/>
		<path fill="#FFFFFF" d="M117.85,113.48c0.15,0.01,0.25,0,0.35,0.02c0.57,0.12,0.76,0.68,0.39,1.12c-0.54,0.64-1.02,0.75-1.7,0.41
			c-0.46-0.23-0.54-0.82-0.16-1.17C117.06,113.57,117.48,113.51,117.85,113.48z"/>
		<path fill="#FFFFFF" d="M160.55,117.42c-0.31,0.01-0.64-0.19-0.74-0.49c-0.04-0.11-0.02-0.27,0.04-0.38
			c0.29-0.55,1.22-0.91,1.82-0.76c0.28,0.07,0.44,0.23,0.5,0.5c0.06,0.28,0.01,0.55-0.24,0.72c-0.19,0.13-0.41,0.23-0.63,0.29
			C161.07,117.37,160.81,117.38,160.55,117.42z"/>
		<path fill="#FFFFFF" d="M172.97,116.39c-0.49,0.07-0.82-0.06-1.08-0.36c-0.11-0.13-0.15-0.28,0-0.4c0.5-0.4,1.03-0.74,1.71-0.75
			c0.13,0,0.27,0.04,0.39,0.09c0.22,0.08,0.46,0.16,0.47,0.46c0.01,0.28-0.05,0.57-0.33,0.68c-0.3,0.13-0.63,0.19-0.95,0.28
			C173.09,116.4,172.98,116.39,172.97,116.39z"/>
		<path fill="#FFFFFF" d="M150.86,220.34c0,0.1,0.01,0.2,0,0.3c-0.03,0.3-0.23,0.56-0.52,0.59c-0.48,0.05-0.97,0.07-1.41-0.23
			c-0.28-0.19-0.38-0.47-0.2-0.76c0.06-0.1,0.13-0.2,0.23-0.27c0.48-0.32,1.01-0.44,1.57-0.33c0.19,0.03,0.33,0.17,0.32,0.39
			c0,0.1,0,0.2,0,0.3C150.85,220.34,150.86,220.34,150.86,220.34z"/>
		<path fill="#FFFFFF" d="M117.83,216.99c-0.28-0.09-0.57-0.16-0.85-0.27c-0.23-0.1-0.46-0.24-0.43-0.55
			c0.03-0.32,0.21-0.55,0.49-0.65c0.32-0.1,0.65-0.17,0.99-0.19c0.25-0.02,0.5,0.07,0.65,0.31c0.06,0.1,0.12,0.2,0.16,0.31
			c0.21,0.56,0.06,0.83-0.54,0.94c-0.15,0.03-0.3,0.03-0.45,0.05C117.84,216.95,117.83,216.97,117.83,216.99z"/>
		<path fill="#FFFFFF" d="M188.55,215.93c0.37,0,0.62,0.2,0.85,0.43c0.16,0.15,0.14,0.4-0.01,0.59c-0.32,0.41-1.2,0.67-1.7,0.5
			c-0.17-0.06-0.36-0.09-0.52-0.16c-0.33-0.15-0.35-0.38-0.05-0.59c0.27-0.19,0.54-0.4,0.83-0.56
			C188.12,216.03,188.34,216,188.55,215.93z"/>
		<path fill="#FFFFFF" d="M132.42,220.46c-0.22-0.03-0.52-0.05-0.82-0.11c-0.37-0.07-0.6-0.33-0.6-0.64c0-0.27,0.1-0.43,0.39-0.49
			c0.52-0.11,1.01-0.34,1.57-0.12c0.45,0.17,0.55,0.34,0.37,0.79C133.15,220.36,132.96,220.48,132.42,220.46z"/>
		<path fill="#FFFFFF" d="M112.17,214.94c0.37,0.05,0.62,0.07,0.87,0.12c0.44,0.09,0.51,0.36,0.28,0.73
			c-0.22,0.34-0.46,0.54-0.89,0.5c-0.16-0.02-0.32,0.07-0.49,0.12c-0.29,0.09-0.54-0.02-0.76-0.18c-0.36-0.27-0.35-0.75,0.05-0.96
			C111.56,215.1,111.93,215.02,112.17,214.94z"/>
		<path fill="#FFFFFF" d="M156.7,220.53c0.16,0.06,0.43,0.13,0.68,0.25c0.21,0.1,0.21,0.52,0.03,0.77
			c-0.12,0.16-0.21,0.34-0.34,0.47c-0.09,0.1-0.25,0.22-0.36,0.2c-0.4-0.06-0.79-0.16-1.17-0.29c-0.09-0.03-0.18-0.24-0.18-0.36
			C155.36,221.01,155.92,220.54,156.7,220.53z"/>
		<path fill="#FFFFFF" d="M202.66,112.43c-0.22-0.02-0.44-0.01-0.65-0.05c-0.21-0.04-0.37-0.16-0.4-0.4
			c-0.03-0.22,0.09-0.35,0.28-0.43c0.4-0.18,0.79-0.37,1.19-0.52c0.35-0.13,0.66,0.05,0.92,0.27c0.22,0.19,0.08,0.66-0.23,0.86
			C203.43,112.39,203.06,112.48,202.66,112.43z"/>
		<path fill="#FFFFFF" d="M136.66,220.9c-0.13-0.02-0.17-0.03-0.2-0.03c-0.5-0.04-0.62-0.12-0.65-0.46
			c-0.04-0.45,0.19-0.9,0.57-0.94c0.37-0.04,0.76,0,1.14,0.07c0.24,0.04,0.38,0.22,0.38,0.51c0,0.28-0.1,0.45-0.34,0.54
			C137.23,220.71,136.9,220.81,136.66,220.9z"/>
		<path fill="#FFFFFF" d="M172.19,219.03c-0.28-0.07-0.48-0.09-0.67-0.16c-0.49-0.18-0.46-0.45-0.19-0.81
			c0.09-0.12,0.27-0.21,0.43-0.24c0.31-0.07,0.63-0.1,0.95-0.13c0.33-0.03,0.58,0.13,0.77,0.4c0.16,0.23,0.14,0.48-0.12,0.59
			C172.97,218.84,172.54,218.92,172.19,219.03z"/>
		<path fill="#FFFFFF" d="M143.28,220.77c-0.44,0.05-0.67-0.06-0.85-0.29c-0.2-0.25-0.2-0.58,0.03-0.77
			c0.35-0.29,0.74-0.51,1.23-0.49c0.32,0.02,0.47,0.21,0.59,0.46c0.13,0.26,0.08,0.46-0.11,0.68
			C143.89,220.71,143.51,220.73,143.28,220.77z"/>
		<path fill="#FFFFFF" d="M126.93,219.32c-0.29-0.1-0.59-0.17-0.86-0.29c-0.19-0.08-0.22-0.54-0.07-0.72
			c0.39-0.48,1.24-0.56,1.73-0.18c0.29,0.23,0.28,0.7-0.04,0.9C127.47,219.18,127.2,219.23,126.93,219.32z"/>
		<path fill="#FFFFFF" d="M122.08,216.94c0,0.48-0.32,0.79-0.8,0.75c-0.37-0.03-0.73-0.14-1-0.42c-0.22-0.22-0.24-0.46,0-0.63
			c0.39-0.27,0.84-0.45,1.33-0.32C121.94,216.4,122.08,216.62,122.08,216.94z"/>
		<path fill="#FFFFFF" d="M181.42,218.52c-0.31-0.08-0.57-0.13-0.81-0.23c-0.26-0.11-0.29-0.34-0.09-0.52
			c0.25-0.22,0.52-0.42,0.8-0.58c0.33-0.19,0.97,0.01,1.17,0.34c0.15,0.25,0.13,0.46-0.13,0.6
			C182.05,218.29,181.72,218.39,181.42,218.52z"/>
		<path fill="#FFFFFF" d="M167.84,219.96c0.05,0.36,0.01,0.69-0.3,0.86c-0.43,0.24-0.9,0.4-1.4,0.2c-0.26-0.1-0.36-0.41-0.25-0.63
			C166.18,219.88,167.41,219.56,167.84,219.96z"/>
		<path fill="#FFFFFF" d="M160.38,221.05c0.12-0.08,0.21-0.17,0.33-0.22c0.37-0.19,0.74-0.39,1.13-0.54c0.5-0.19,0.86,0.1,0.79,0.62
			c-0.01,0.09-0.06,0.22-0.13,0.25c-0.47,0.24-0.92,0.58-1.5,0.34C160.77,221.41,160.54,221.32,160.38,221.05z"/>
		<path fill="#FFFFFF" d="M177.13,218.53c-0.05,0-0.1,0-0.15,0c-0.49-0.03-0.76-0.3-0.78-0.79c-0.01-0.24,0.36-0.55,0.73-0.58
			c0.18-0.01,0.37,0.01,0.54,0.06c0.39,0.13,0.55,0.38,0.5,0.71c-0.06,0.36-0.31,0.58-0.69,0.61
			C177.23,218.54,177.18,218.54,177.13,218.53C177.13,218.53,177.13,218.53,177.13,218.53z"/>
		<path fill="#FFFFFF" d="M170.63,226.56c-0.1-0.23-0.16-0.38-0.23-0.53c-0.14-0.33-0.08-0.64,0.13-0.9
			c0.18-0.23,0.45-0.28,0.73-0.22c0.13,0.03,0.27,0.04,0.39,0.1c0.24,0.12,0.49,0.25,0.5,0.58c0.01,0.29-0.22,0.6-0.55,0.71
			C171.29,226.39,170.96,226.47,170.63,226.56z"/>
		<path fill="#FFFFFF" d="M93.83,102.83c-0.43-0.05-0.98-0.48-1.02-0.85c-0.07-0.61,0.62-1.12,1.21-0.88
			c0.58,0.23,0.78,1.06,0.34,1.51C94.24,102.74,94.01,102.77,93.83,102.83z"/>
		<path fill="#FFFFFF" d="M113.26,233.85c0.27,0.04,0.54,0.22,0.68,0.56c0.14,0.35,0.12,0.68-0.2,0.95
			c-0.28,0.23-0.55,0.51-0.97,0.39c-0.08-0.02-0.17-0.04-0.23-0.09c-0.3-0.29-0.47-1.15-0.05-1.45
			C112.7,234.04,112.86,233.8,113.26,233.85z"/>
		<path fill="#FFFFFF" d="M182.98,226.87c-0.12-0.01-0.23-0.02-0.35-0.04c-0.67-0.15-0.94-0.99-0.47-1.48
			c0.2-0.22,0.42-0.45,0.75-0.45c0.22,0,0.42,0,0.57,0.22c0.09,0.12,0.25,0.22,0.39,0.27c0.23,0.09,0.42,0.24,0.38,0.47
			c-0.04,0.25,0.1,0.6-0.28,0.74c-0.32,0.12-0.65,0.23-0.97,0.35C183,226.91,182.99,226.89,182.98,226.87z"/>
		<path fill="#FFFFFF" d="M92.44,93.29c-0.22,0-0.58-0.29-0.66-0.5c-0.25-0.69,0.23-1.51,0.95-1.62c0.34-0.05,0.64,0.17,0.67,0.51
			c0.01,0.12-0.03,0.26,0.02,0.35c0.22,0.37-0.05,0.61-0.23,0.85C93.01,93.13,92.74,93.28,92.44,93.29z"/>
		<path fill="#FFFFFF" d="M198.95,102.89c-0.17,0-0.41-0.05-0.53-0.36c-0.11-0.26-0.19-0.47,0.04-0.73
			c0.16-0.19,0.18-0.49,0.42-0.66c0.38-0.28,0.78-0.29,1.18-0.11c0.36,0.16,0.51,0.57,0.38,0.93
			C200.23,102.47,199.62,102.89,198.95,102.89z"/>
		<path fill="#FFFFFF" d="M183.75,237.19c-0.34,0.01-0.94-0.43-0.95-0.7c-0.02-0.51,0.52-1.05,1.08-1.06
			c0.42-0.01,0.77,0.4,0.79,0.93C184.68,236.78,184.24,237.17,183.75,237.19z"/>
		<path fill="#FFFFFF" d="M122.69,223.25c0.26,0.07,0.52,0.12,0.77,0.21c0.21,0.08,0.39,0.24,0.36,0.49
			c-0.03,0.27-0.06,0.54-0.39,0.65c-0.19,0.06-0.35,0.18-0.53,0.27c-0.37,0.18-0.66,0.07-0.91-0.34c-0.17-0.29-0.12-0.59,0.02-0.86
			C122.16,223.4,122.38,223.25,122.69,223.25z"/>
		<path fill="#FFFFFF" d="M123.99,236.46c-0.37,0-0.93-0.56-0.91-0.92c0.02-0.45,0.49-0.93,0.91-0.93c0.35,0,0.9,0.56,0.9,0.9
			C124.88,235.94,124.39,236.47,123.99,236.46z"/>
		<path fill="#FFFFFF" d="M111,225.27c-0.47,0.04-0.71-0.24-0.91-0.62c-0.23-0.42-0.1-0.78,0.18-1.11c0.29-0.34,0.74-0.43,1.14-0.27
			c0.14,0.05,0.29,0.1,0.42,0.17c0.37,0.19,0.49,0.54,0.32,0.92c-0.04,0.09-0.07,0.19-0.11,0.28
			C111.88,225.05,111.5,225.28,111,225.27z"/>
		<path fill="#FFFFFF" d="M171.99,235.72c-0.11-0.02-0.22-0.02-0.3-0.06c-0.32-0.15-0.66-1.01-0.54-1.34
			c0.09-0.26,0.34-0.47,0.6-0.41c0.34,0.08,0.69,0.17,0.97,0.36c0.59,0.39,0.5,1.05-0.15,1.32
			C172.38,235.66,172.17,235.68,171.99,235.72z"/>
		<path fill="#FFFFFF" d="M197.21,91.83c0.04-0.13,0.07-0.32,0.17-0.46c0.2-0.27,0.43-0.51,0.67-0.74c0.14-0.14,0.33-0.15,0.44,0.02
			c0.14,0.22,0.31,0.48,0.3,0.72c-0.01,0.39-0.08,0.82-0.26,1.17c-0.12,0.22-0.46,0.35-0.73,0.44c-0.21,0.07-0.37-0.13-0.43-0.34
			C197.3,92.38,197.26,92.13,197.21,91.83z"/>
		<path fill="#FFFFFF" d="M208.8,89.12c0.5,0.08,0.75,0.32,0.75,0.79c0,0.33-0.09,0.62-0.35,0.86c-0.3,0.28-0.66,0.39-1.04,0.45
			c-0.38,0.06-0.62-0.15-0.7-0.54c-0.15-0.72-0.11-0.81,0.54-1.19C208.25,89.33,208.53,89.24,208.8,89.12z"/>
		<path fill="#FFFFFF" d="M139.95,96.97c0.75,0,1.22,0.66,0.96,1.26c-0.15,0.35-0.37,0.69-0.62,0.98c-0.4,0.47-0.86,0.48-1.32,0.07
			c-0.12-0.1-0.22-0.27-0.24-0.42c-0.06-0.36-0.09-0.73-0.08-1.1c0.01-0.33,0.33-0.46,0.57-0.58
			C139.47,97.05,139.77,97.02,139.95,96.97z"/>
		<path fill="#FFFFFF" d="M152.13,106.62c-0.09-0.35,0.05-0.63,0.37-0.84c0.07-0.05,0.14-0.1,0.2-0.15
			c0.46-0.36,0.97-0.35,1.41,0.02c0.36,0.31,0.39,0.85,0.05,1.22c-0.16,0.17-0.33,0.34-0.52,0.48c-0.14,0.11-0.31,0.21-0.48,0.26
			c-0.55,0.15-0.95-0.14-1.01-0.72C152.14,106.81,152.14,106.73,152.13,106.62z"/>
		<path fill="#FFFFFF" d="M148.98,95.78c0.09,0,0.18,0,0.27,0c0,0.04,0,0.07,0,0.11c-0.09,0-0.18-0.01-0.27-0.01
			C148.98,95.84,148.98,95.81,148.98,95.78z"/>
		<path fill="#FFFFFF" d="M141.62,108.34c-0.01-0.61,0.6-1.27,1.21-1.32c0.3-0.02,0.68,0.21,0.8,0.49c0.15,0.35,0.03,0.85-0.23,1.15
			c-0.25,0.29-0.51,0.51-0.93,0.5C141.99,109.16,141.62,108.82,141.62,108.34z"/>
		<path fill="#FFFFFF" d="M123.79,95.86c0.02,0.57-0.83,1.25-1.37,1.11c-0.06-0.02-0.13-0.05-0.18-0.09
			c-0.47-0.38-0.3-1.59,0.25-1.84C123.18,94.74,123.77,95.11,123.79,95.86z"/>
		<path fill="#FFFFFF" d="M110.92,95.93c0.72-0.03,1.13,0.5,0.94,1.2c-0.14,0.49-0.45,0.86-0.86,1.15
			c-0.34,0.24-0.66,0.17-0.95-0.13c-0.46-0.5-0.51-1.22-0.1-1.75C110.12,96.17,110.6,95.94,110.92,95.93z"/>
		<path fill="#FFFFFF" d="M112.49,105.75c0.5,0.01,0.96,0.55,0.93,1.12c-0.01,0.18-0.05,0.37-0.12,0.54
			c-0.17,0.45-0.67,0.6-1.07,0.34c-0.49-0.33-0.55-0.46-0.43-1.05c0.04-0.18,0.07-0.36,0.12-0.54
			C112.01,105.9,112.24,105.74,112.49,105.75z"/>
		<path fill="#FFFFFF" d="M124.07,105.67c-0.07,0.17-0.14,0.44-0.28,0.66c-0.17,0.27-0.69,0.4-0.95,0.28
			c-0.35-0.16-0.6-0.61-0.56-0.96c0.04-0.35,0.14-0.64,0.47-0.83c0.3-0.17,0.58-0.19,0.86-0.02
			C123.89,104.95,124.04,105.23,124.07,105.67z"/>
		<path fill="#FFFFFF" d="M142.27,228.34c-0.34,0.3-0.71,0.44-1.13,0.51c-0.28,0.04-0.49-0.01-0.63-0.2
			c-0.48-0.61-0.5-1.03,0.15-1.4c0.14-0.08,0.31-0.14,0.47-0.18c0.22-0.05,0.42-0.06,0.6,0.15c0.1,0.12,0.27,0.19,0.41,0.3
			c0.12,0.1,0.21,0.19,0.13,0.38C142.2,228.02,142.26,228.18,142.27,228.34z"/>
		<path fill="#FFFFFF" d="M152.38,228.35c0.08-0.22,0.16-0.58,0.33-0.87c0.26-0.45,0.91-0.38,1.16,0.09
			c0.06,0.12,0.1,0.25,0.16,0.37c0.25,0.48,0.22,0.85-0.18,1.22c-0.2,0.19-0.4,0.49-0.77,0.33
			C152.71,229.35,152.37,228.87,152.38,228.35z"/>
		<path fill="#FFFFFF" d="M143.1,237.94c0.48-0.08,0.7,0.21,0.79,0.54c0.12,0.43-0.06,0.82-0.49,0.98
			c-0.31,0.11-0.66,0.16-0.99,0.16c-0.37,0-0.57-0.26-0.57-0.64c0-0.5,0.37-0.93,0.87-1.01
			C142.82,237.96,142.93,237.96,143.1,237.94z"/>
		<path fill="#FFFFFF" d="M154.45,239.51c-0.38,0-0.62-0.26-0.61-0.64c0.01-0.42,0.4-0.79,0.82-0.8c0.31,0,0.6,0.39,0.63,0.84
			C155.3,239.16,154.81,239.52,154.45,239.51z"/>
		<path fill="#FFFFFF" d="M169.29,95.56c-0.2,0.17-0.35,0.3-0.53,0.46c0.35,0.17,0.61,0.36,0.7,0.72c0.08,0.38,0,0.72-0.27,0.97
			c-0.34,0.31-0.75,0.51-1.24,0.39c-0.06-0.02-0.12-0.06-0.16-0.11c-0.4-0.51-0.66-1.08-0.44-1.72c0.08-0.24,0.39-0.42,0.6-0.61
			c0.11-0.09,0.26-0.14,0.36-0.24c0.31-0.31,0.31-0.32,0.71-0.07C169.1,95.41,169.17,95.47,169.29,95.56z"/>
		<path fill="#FFFFFF" d="M181.1,105.25c0-0.41,0.13-0.59,0.41-0.66c0.16-0.04,0.33-0.07,0.5-0.08c0.45-0.03,0.8,0.29,0.75,0.74
			c-0.05,0.45-0.25,0.85-0.73,0.89c-0.4,0.04-0.53-0.02-0.71-0.39C181.23,105.55,181.15,105.35,181.1,105.25z"/>
		<path fill="#FFFFFF" d="M179.62,95.71c-0.04-0.07-0.12-0.15-0.13-0.24c-0.03-0.2-0.09-0.34-0.29-0.43
			c-0.19-0.08-0.19-0.24-0.13-0.42c0.07-0.22,0.1-0.45,0.16-0.67c0.02-0.09,0.07-0.18,0.12-0.27c0.25-0.38,0.67-0.51,1.07-0.6
			c0.44-0.09,0.85,0.49,0.77,1.01c-0.04,0.23-0.08,0.46-0.13,0.69c-0.21,0.19-0.4,0.43-0.65,0.59
			C180.19,95.53,179.91,95.59,179.62,95.71z"/>
		<path fill="#FFFFFF" d="M181.43,95.25c-0.02,0.02-0.04,0.04-0.06,0.06c-0.01,0-0.04-0.02-0.04-0.02c0-0.03,0.02-0.05,0.03-0.08
			C181.37,95.22,181.4,95.23,181.43,95.25z"/>
		<path fill="#FFFFFF" d="M170.81,106.99c0-0.08,0.01-0.17,0-0.25c-0.04-0.39,0.2-0.57,0.51-0.72c0.31-0.14,0.59-0.06,0.86,0.1
			c0.01,0.01,0.02,0.02,0.04,0.04c0.23,0.23,0.23,0.79,0.01,1.24c-0.21,0.41-0.5,0.59-0.88,0.53c-0.4-0.06-0.51-0.18-0.55-0.59
			c-0.01-0.12,0-0.23,0-0.35C170.8,106.99,170.81,106.99,170.81,106.99z"/>
	</g>
</g>
</svg>
